  0
SECTION
  2
HEADER
  9
$ACADVER
  1
AC1027
  9
$ACADMAINTVER
 70
     8
  9
$DWGCODEPAGE
  3
ANSI_1252
  9
$REQUIREDVERSIONS
160
                 0
  9
$INSBASE
 10
0.0
 20
0.0
 30
0.0
  9
$EXTMIN
 10
1.000000E+20
 20
1.000000E+20
 30
1.000000E+20
  9
$EXTMAX
 10
-1.000000E+20
 20
-1.000000E+20
 30
-1.000000E+20
  9
$LIMMIN
 10
0.0
 20
0.0
  9
$LIMMAX
 10
12.0
 20
9.0
  9
$ORTHOMODE
 70
     0
  9
$REGENMODE
 70
     1
  9
$FILLMODE
 70
     1
  9
$QTEXTMODE
 70
     0
  9
$MIRRTEXT
 70
     1
  9
$LTSCALE
 40
1.0
  9
$ATTMODE
 70
     1
  9
$TEXTSIZE
 40
0.2
  9
$TRACEWID
 40
0.05
  9
$TEXTSTYLE
  7
Standard
  9
$CLAYER
  8
0
  9
$CELTYPE
  6
ByBlock
  9
$CECOLOR
 62
   256
  9
$CELTSCALE
 40
1.0
  9
$DISPSILH
 70
     0
  9
$DIMSCALE
 40
1.0
  9
$DIMASZ
 40
0.18
  9
$DIMEXO
 40
0.0625
  9
$DIMDLI
 40
0.38
  9
$DIMRND
 40
0.0
  9
$DIMDLE
 40
0.0
  9
$DIMEXE
 40
0.18
  9
$DIMTP
 40
0.0
  9
$DIMTM
 40
0.0
  9
$DIMTXT
 40
0.18
  9
$DIMCEN
 40
0.09
  9
$DIMTSZ
 40
0.0
  9
$DIMTOL
 70
     0
  9
$DIMLIM
 70
     0
  9
$DIMTIH
 70
     1
  9
$DIMTOH
 70
     1
  9
$DIMSE1
 70
     0
  9
$DIMSE2
 70
     0
  9
$DIMTAD
 70
     0
  9
$DIMZIN
 70
     0
  9
$DIMBLK
  1

  9
$DIMASO
 70
     1
  9
$DIMSHO
 70
     1
  9
$DIMPOST
  1

  9
$DIMAPOST
  1

  9
$DIMALT
 70
     0
  9
$DIMALTD
 70
     2
  9
$DIMALTF
 40
25.4
  9
$DIMLFAC
 40
1.0
  9
$DIMTOFL
 70
     0
  9
$DIMTVP
 40
0.0
  9
$DIMTIX
 70
     0
  9
$DIMSOXD
 70
     0
  9
$DIMSAH
 70
     0
  9
$DIMBLK1
  1

  9
$DIMBLK2
  1

  9
$DIMSTYLE
  2
Standard
  9
$DIMCLRD
 70
     0
  9
$DIMCLRE
 70
     0
  9
$DIMCLRT
 70
     0
  9
$DIMTFAC
 40
1.0
  9
$DIMGAP
 40
0.09
  9
$DIMJUST
 70
     0
  9
$DIMSD1
 70
     0
  9
$DIMSD2
 70
     0
  9
$DIMTOLJ
 70
     1
  9
$DIMTZIN
 70
     0
  9
$DIMALTZ
 70
     0
  9
$DIMALTTZ
 70
     0
  9
$DIMUPT
 70
     0
  9
$DIMDEC
 70
     4
  9
$DIMTDEC
 70
     4
  9
$DIMALTU
 70
     2
  9
$DIMALTTD
 70
     2
  9
$DIMTXSTY
  7
Standard
  9
$DIMAUNIT
 70
     0
  9
$DIMADEC
 70
     0
  9
$DIMALTRND
 40
0.0
  9
$DIMAZIN
 70
     0
  9
$DIMDSEP
 70
    46
  9
$DIMATFIT
 70
     3
  9
$DIMFRAC
 70
     0
  9
$DIMLDRBLK
  1

  9
$DIMLUNIT
 70
     2
  9
$DIMLWD
 70
    -2
  9
$DIMLWE
 70
    -2
  9
$DIMTMOVE
 70
     2
  9
$DIMFXL
 40
1.0
  9
$DIMFXLON
 70
     0
  9
$DIMJOGANG
 40
0.785398
  9
$DIMTFILL
 70
     0
  9
$DIMTFILLCLR
 70
     0
  9
$DIMARCSYM
 70
     0
  9
$DIMLTYPE
  6

  9
$DIMLTEX1
  6

  9
$DIMLTEX2
  6

  9
$DIMTXTDIRECTION
 70
     0
  9
$LUNITS
 70
     2
  9
$LUPREC
 70
     4
  9
$SKETCHINC
 40
0.1
  9
$FILLETRAD
 40
0.5
  9
$AUNITS
 70
     0
  9
$AUPREC
 70
     0
  9
$MENU
  1
.
  9
$ELEVATION
 40
0.0
  9
$PELEVATION
 40
0.0
  9
$THICKNESS
 40
0.0
  9
$LIMCHECK
 70
     0
  9
$CHAMFERA
 40
0.0
  9
$CHAMFERB
 40
0.0
  9
$CHAMFERC
 40
0.0
  9
$CHAMFERD
 40
0.0
  9
$SKPOLY
 70
     0
  9
$TDCREATE
 40
2460001.530103276
  9
$TDUCREATE
 40
2460001.655103276
  9
$TDUPDATE
 40
2460001.558272604
  9
$TDUUPDATE
 40
2460001.683272604
  9
$TDINDWG
 40
0.0000000116
  9
$TDUSRTIMER
 40
0.0000000116
  9
$USRTIMER
 70
     1
  9
$ANGBASE
 50
0.0
  9
$ANGDIR
 70
     0
  9
$PDMODE
 70
     0
  9
$PDSIZE
 40
0.0
  9
$PLINEWID
 40
0.0
  9
$SPLFRAME
 70
     0
  9
$SPLINETYPE
 70
     6
  9
$SPLINESEGS
 70
     8
  9
$HANDSEED
  5
488
  9
$SURFTAB1
 70
     6
  9
$SURFTAB2
 70
     6
  9
$SURFTYPE
 70
     6
  9
$SURFU
 70
     6
  9
$SURFV
 70
     6
  9
$UCSBASE
  2

  9
$UCSNAME
  2

  9
$UCSORG
 10
0.0
 20
0.0
 30
0.0
  9
$UCSXDIR
 10
1.0
 20
0.0
 30
0.0
  9
$UCSYDIR
 10
0.0
 20
1.0
 30
0.0
  9
$UCSORTHOREF
  2

  9
$UCSORTHOVIEW
 70
     0
  9
$UCSORGTOP
 10
0.0
 20
0.0
 30
0.0
  9
$UCSORGBOTTOM
 10
0.0
 20
0.0
 30
0.0
  9
$UCSORGLEFT
 10
0.0
 20
0.0
 30
0.0
  9
$UCSORGRIGHT
 10
0.0
 20
0.0
 30
0.0
  9
$UCSORGFRONT
 10
0.0
 20
0.0
 30
0.0
  9
$UCSORGBACK
 10
0.0
 20
0.0
 30
0.0
  9
$PUCSBASE
  2

  9
$PUCSNAME
  2

  9
$PUCSORG
 10
0.0
 20
0.0
 30
0.0
  9
$PUCSXDIR
 10
1.0
 20
0.0
 30
0.0
  9
$PUCSYDIR
 10
0.0
 20
1.0
 30
0.0
  9
$PUCSORTHOREF
  2

  9
$PUCSORTHOVIEW
 70
     0
  9
$PUCSORGTOP
 10
0.0
 20
0.0
 30
0.0
  9
$PUCSORGBOTTOM
 10
0.0
 20
0.0
 30
0.0
  9
$PUCSORGLEFT
 10
0.0
 20
0.0
 30
0.0
  9
$PUCSORGRIGHT
 10
0.0
 20
0.0
 30
0.0
  9
$PUCSORGFRONT
 10
0.0
 20
0.0
 30
0.0
  9
$PUCSORGBACK
 10
0.0
 20
0.0
 30
0.0
  9
$USERI1
 70
     0
  9
$USERI2
 70
     0
  9
$USERI3
 70
     0
  9
$USERI4
 70
     0
  9
$USERI5
 70
     0
  9
$USERR1
 40
0.0
  9
$USERR2
 40
0.0
  9
$USERR3
 40
0.0
  9
$USERR4
 40
0.0
  9
$USERR5
 40
0.0
  9
$WORLDVIEW
 70
     1
  9
$SHADEDGE
 70
     3
  9
$SHADEDIF
 70
    70
  9
$TILEMODE
 70
     1
  9
$MAXACTVP
 70
    64
  9
$PINSBASE
 10
0.0
 20
0.0
 30
0.0
  9
$PLIMCHECK
 70
     0
  9
$PEXTMIN
 10
1.000000E+20
 20
1.000000E+20
 30
1.000000E+20
  9
$PEXTMAX
 10
-1.000000E+20
 20
-1.000000E+20
 30
-1.000000E+20
  9
$PLIMMIN
 10
0.0
 20
0.0
  9
$PLIMMAX
 10
12.0
 20
9.0
  9
$UNITMODE
 70
     0
  9
$VISRETAIN
 70
     1
  9
$PLINEGEN
 70
     0
  9
$PSLTSCALE
 70
     0
  9
$TREEDEPTH
 70
  3020
  9
$CMLSTYLE
  2
Standard
  9
$CMLJUST
 70
     0
  9
$CMLSCALE
 40
1.0
  9
$PROXYGRAPHICS
 70
     1
  9
$MEASUREMENT
 70
     0
  9
$CELWEIGHT
370
    -1
  9
$ENDCAPS
280
     0
  9
$JOINSTYLE
280
     0
  9
$LWDISPLAY
290
     0
  9
$INSUNITS
 70
     0
  9
$HYPERLINKBASE
  1

  9
$STYLESHEET
  1

  9
$XEDIT
290
     1
  9
$CEPSNTYPE
380
     0
  9
$PSTYLEMODE
290
     1
  9
$FINGERPRINTGUID
  2
{7E6745FD-907D-4D66-8853-6491EC3B2A46}
  9
$VERSIONGUID
  2
{FAEB1C32-E019-11D5-929B-00C0DF256EC4}
  9
$EXTNAMES
290
     1
  9
$PSVPSCALE
 40
0.0
  9
$OLESTARTUP
290
     0
  9
$SORTENTS
280
   127
  9
$INDEXCTL
280
     0
  9
$HIDETEXT
280
     1
  9
$XCLIPFRAME
280
     2
  9
$HALOGAP
280
     0
  9
$OBSCOLOR
 70
   257
  9
$OBSLTYPE
280
     0
  9
$INTERSECTIONDISPLAY
280
     0
  9
$INTERSECTIONCOLOR
 70
   257
  9
$DIMASSOC
280
     2
  9
$PROJECTNAME
  1

  9
$CAMERADISPLAY
290
     0
  9
$LENSLENGTH
 40
50.0
  9
$CAMERAHEIGHT
 40
0.0
  9
$STEPSPERSEC
 40
2.0
  9
$STEPSIZE
 40
6.0
  9
$3DDWFPREC
 40
2.0
  9
$PSOLWIDTH
 40
0.25
  9
$PSOLHEIGHT
 40
4.0
  9
$LOFTANG1
 40
1.570796
  9
$LOFTANG2
 40
1.570796
  9
$LOFTMAG1
 40
0.0
  9
$LOFTMAG2
 40
0.0
  9
$LOFTPARAM
 70
     7
  9
$LOFTNORMALS
280
     1
  9
$LATITUDE
 40
37.795
  9
$LONGITUDE
 40
-122.394
  9
$NORTHDIRECTION
 40
0.0
  9
$TIMEZONE
 70
 -8000
  9
$LIGHTGLYPHDISPLAY
280
     1
  9
$TILEMODELIGHTSYNCH
280
     1
  9
$SOLIDHIST
280
     1
  9
$SHOWHIST
280
     1
  9
$DWFFRAME
280
     2
  9
$DGNFRAME
280
     2
  9
$REALWORLDSCALE
290
     1
  9
$INTERFERECOLOR
 62
   256
  9
$CSHADOW
280
     0
  9
$SHADOWPLANELOCATION
 40
0.0
  0
ENDSEC
  0
SECTION
  2
CLASSES
  0
CLASS
  1
ACDBDICTIONARYWDFLT
  2
AcDbDictionaryWithDefault
  3
ObjectDBX Classes
 90
        0
 91
        9
280
     0
281
     0
  0
CLASS
  1
SCALE
  2
AcDbScale
  3
ObjectDBX Classes
 90
     1153
 91
        8
280
     0
281
     0
  0
CLASS
  1
VISUALSTYLE
  2
AcDbVisualStyle
  3
ObjectDBX Classes
 90
     4095
 91
        7
280
     0
281
     0
  0
CLASS
  1
MATERIAL
  2
AcDbMaterial
  3
ObjectDBX Classes
 90
     1153
 91
        8
280
     0
281
     0
  0
CLASS
  1
SUN
  2
AcDbSun
  3
SCENEOE
 90
     1153
 91
        8
280
     0
281
     0
  0
CLASS
  1
TABLESTYLE
  2
AcDbTableStyle
  3
ObjectDBX Classes
 90
     4095
 91
        6
280
     0
281
     0
  0
CLASS
  1
CSACDOCUMENTOPTIONS
  2
CDocDataContainer
  3
"DERU003_CSAPP"
 90
     4095
 91
        5
280
     0
281
     0
  0
CLASS
  1
DICTIONARYVAR
  2
AcDbDictionaryVar
  3
ObjectDBX Classes
 90
        0
 91
        6
280
     0
281
     0
  0
CLASS
  1
CELLSTYLEMAP
  2
AcDbCellStyleMap
  3
ObjectDBX Classes
 90
     1152
 91
        4
280
     0
281
     0
  0
ENDSEC
  0
SECTION
  2
TABLES
  0
TABLE
  2
VPORT
  5
8
330
0
100
AcDbSymbolTable
 70
     2
  0
VPORT
  5
20
330
8
100
AcDbSymbolTableRecord
100
AcDbViewportTableRecord
  2
ACTIVE
 70
     0
 10
0.0
 20
0.0
 11
1.0
 21
1.0
 12
0.0
 22
0.0
 13
0.0
 23
0.0
 14
0.0
 24
0.0
 15
0.0
 25
0.0
 16
0.0
 26
0.0
 36
0.0
 17
0.0
 27
0.0
 37
0.0
 40
0.0
 41
0.0
 42
0.0
 43
0.0
 44
0.0
 50
0.0
 51
0.0
 71
     0
 72
  1000
 73
     1
 74
     3
 75
     0
 76
     0
 77
     0
 78
     0
281
     0
 65
     0
110
0.0
120
0.0
130
0.0
111
1.0
121
0.0
131
0.0
112
0.0
122
1.0
132
0.0
 79
     0
146
0.0
348
18B
 60
     3
 61
     5
292
     1
282
     1
141
0.0
142
0.0
 63
   256
  0
VPORT
  5
15B
330
8
100
AcDbSymbolTableRecord
100
AcDbViewportTableRecord
  2
*Active
 70
     0
 10
0.0
 20
0.0
 11
1.0
 21
1.0
 12
820.742382
 22
547.110042
 13
0.0
 23
0.0
 14
0.5
 24
0.5
 15
0.5
 25
0.5
 16
0.0
 26
0.0
 36
1.0
 17
0.0
 27
0.0
 37
0.0
 40
1167.717041
 41
2.13986
 42
50.0
 43
0.0
 44
0.0
 50
0.0
 51
0.0
 71
    16
 72
   100
 73
     1
 74
     3
 75
     0
 76
     0
 77
     0
 78
     0
281
     0
 65
     1
110
0.0
120
0.0
130
0.0
111
1.0
121
0.0
131
0.0
112
0.0
122
1.0
132
0.0
 79
     0
146
0.0
 60
     3
 61
     5
292
     1
282
     1
141
0.0
142
0.0
 63
   250
361
1A8
  0
ENDTAB
  0
TABLE
  2
LTYPE
  5
5
330
0
100
AcDbSymbolTable
 70
     1
  0
LTYPE
  5
14
330
5
100
AcDbSymbolTableRecord
100
AcDbLinetypeTableRecord
  2
ByBlock
 70
     0
  3

 72
    65
 73
     0
 40
0.0
  0
LTYPE
  5
15
330
5
100
AcDbSymbolTableRecord
100
AcDbLinetypeTableRecord
  2
ByLayer
 70
     0
  3

 72
    65
 73
     0
 40
0.0
  0
LTYPE
  5
16
330
5
100
AcDbSymbolTableRecord
100
AcDbLinetypeTableRecord
  2
Continuous
 70
     0
  3
Solid line
 72
    65
 73
     0
 40
0.0
  0
ENDTAB
  0
TABLE
  2
LAYER
  5
2
330
0
100
AcDbSymbolTable
 70
     5
  0
LAYER
  5
10
330
2
100
AcDbSymbolTableRecord
100
AcDbLayerTableRecord
  2
0
 70
     0
 62
     7
  6
Continuous
370
    -3
390
F
347
1A2
348
0
  0
LAYER
  5
15C
330
2
100
AcDbSymbolTableRecord
100
AcDbLayerTableRecord
  2
frame
 70
     0
 62
     7
  6
Continuous
370
    -3
390
F
347
1A2
348
0
  0
LAYER
  5
15D
330
2
100
AcDbSymbolTableRecord
100
AcDbLayerTableRecord
  2
annotation
 70
     0
 62
     7
  6
Continuous
370
    -3
390
F
347
1A2
348
0
  0
LAYER
  5
15E
330
2
100
AcDbSymbolTableRecord
100
AcDbLayerTableRecord
  2
boundary
 70
     0
 62
     7
  6
Continuous
370
    -3
390
F
347
1A2
348
0
  0
LAYER
  5
15F
330
2
100
AcDbSymbolTableRecord
100
AcDbLayerTableRecord
  2
hole
 70
     0
 62
     7
  6
Continuous
370
    -3
390
F
347
1A2
348
0
  0
ENDTAB
  0
TABLE
  2
STYLE
  5
3
330
0
100
AcDbSymbolTable
 70
     1
  0
STYLE
  5
11
330
3
100
AcDbSymbolTableRecord
100
AcDbTextStyleTableRecord
  2
Standard
 70
     0
 40
0.0
 41
1.0
 50
0.0
 71
     0
 42
0.2
  3
txt
  4

  0
ENDTAB
  0
TABLE
  2
VIEW
  5
6
330
0
100
AcDbSymbolTable
 70
     0
  0
ENDTAB
  0
TABLE
  2
UCS
  5
7
330
0
100
AcDbSymbolTable
 70
     0
  0
ENDTAB
  0
TABLE
  2
APPID
  5
9
330
0
100
AcDbSymbolTable
 70
     6
  0
APPID
  5
12
330
9
100
AcDbSymbolTableRecord
100
AcDbRegAppTableRecord
  2
ACAD
 70
     0
  0
APPID
  5
1A3
330
9
100
AcDbSymbolTableRecord
100
AcDbRegAppTableRecord
  2
MCS_DIM1
 70
     0
  0
APPID
  5
1A4
330
9
100
AcDbSymbolTableRecord
100
AcDbRegAppTableRecord
  2
McsXdata5
 70
     0
  0
APPID
  5
1A7
330
9
100
AcDbSymbolTableRecord
100
AcDbRegAppTableRecord
  2
MCS_DOCUMENT_ID
 70
     0
  0
APPID
  5
264
330
9
100
AcDbSymbolTableRecord
100
AcDbRegAppTableRecord
  2
MCS_PARAMS_DATA
 70
     0
  0
APPID
  5
26B
330
9
100
AcDbSymbolTableRecord
100
AcDbRegAppTableRecord
  2
MC_VERSION_DATA
 70
     0
  0
ENDTAB
  0
TABLE
  2
DIMSTYLE
  5
A
330
0
100
AcDbSymbolTable
 70
     1
100
AcDbDimStyleTable
  0
DIMSTYLE
105
21
330
A
100
AcDbSymbolTableRecord
100
AcDbDimStyleTableRecord
  2
Standard
 70
     0
178
     0
340
11
  0
ENDTAB
  0
TABLE
  2
BLOCK_RECORD
  5
1
330
0
100
AcDbSymbolTable
 70
     0
  0
BLOCK_RECORD
  5
1D
330
1
100
AcDbSymbolTableRecord
100
AcDbBlockTableRecord
  2
*Model_Space
340
1E
 70
     0
280
     1
281
     0
  0
BLOCK_RECORD
  5
1B
330
1
100
AcDbSymbolTableRecord
100
AcDbBlockTableRecord
  2
*Paper_Space
340
1C
 70
     0
280
     1
281
     0
  0
ENDTAB
  0
ENDSEC
  0
SECTION
  2
BLOCKS
  0
BLOCK
  5
182
330
1D
100
AcDbEntity
  8
0
100
AcDbBlockBegin
  2
*Model_Space
 70
     0
 10
0.0
 20
0.0
 30
0.0
  3
*Model_Space
  1
*Model_Space
  0
ENDBLK
  5
183
330
1D
100
AcDbEntity
  8
0
100
AcDbBlockEnd
  0
BLOCK
  5
184
330
1B
100
AcDbEntity
 67
     1
  8
0
100
AcDbBlockBegin
  2
*Paper_Space
 70
     0
 10
0.0
 20
0.0
 30
0.0
  3
*Paper_Space
  1
*Paper_Space
  0
ENDBLK
  5
185
330
1B
100
AcDbEntity
 67
     1
  8
0
100
AcDbBlockEnd
  0
ENDSEC
  0
SECTION
  2
ENTITIES
  0
LINE
  5
22
330
1D
100
AcDbEntity
  8
hole
 62
     5
100
AcDbLine
 39
2.0
 10
366.381753
 20
126.381754
 30
0.0
 11
366.953253
 21
126.381754
 31
0.0
  0
LINE
  5
23
330
1D
100
AcDbEntity
  8
hole
 62
     5
100
AcDbLine
 39
2.0
 10
366.953253
 20
126.381754
 30
0.0
 11
366.953253
 21
126.953254
 31
0.0
  0
LINE
  5
24
330
1D
100
AcDbEntity
  8
hole
 62
     5
100
AcDbLine
 39
2.0
 10
366.953253
 20
126.953254
 30
0.0
 11
366.381753
 21
126.953254
 31
0.0
  0
LINE
  5
25
330
1D
100
AcDbEntity
  8
hole
 62
     5
100
AcDbLine
 39
2.0
 10
366.381753
 20
126.953254
 30
0.0
 11
366.381753
 21
126.381754
 31
0.0
  0
LINE
  5
26
330
1D
100
AcDbEntity
  8
hole
 62
     5
100
AcDbLine
 39
2.0
 10
46.38175
 20
126.381754
 30
0.0
 11
46.95325
 21
126.381754
 31
0.0
  0
LINE
  5
27
330
1D
100
AcDbEntity
  8
hole
 62
     5
100
AcDbLine
 39
2.0
 10
46.95325
 20
126.381754
 30
0.0
 11
46.95325
 21
126.953254
 31
0.0
  0
LINE
  5
28
330
1D
100
AcDbEntity
  8
hole
 62
     5
100
AcDbLine
 39
2.0
 10
46.95325
 20
126.953254
 30
0.0
 11
46.38175
 21
126.953254
 31
0.0
  0
LINE
  5
29
330
1D
100
AcDbEntity
  8
hole
 62
     5
100
AcDbLine
 39
2.0
 10
46.38175
 20
126.953254
 30
0.0
 11
46.38175
 21
126.381754
 31
0.0
  0
LINE
  5
2A
330
1D
100
AcDbEntity
  8
boundary
 62
     5
100
AcDbLine
 39
2.0
 10
16.795322
 20
6.6675
 30
0.0
 11
80.545323
 21
6.6675
 31
0.0
  0
LINE
  5
2B
330
1D
100
AcDbEntity
  8
boundary
 62
     5
100
AcDbLine
 39
2.0
 10
80.545323
 20
6.6675
 30
0.0
 11
91.795323
 21
6.6675
 31
0.0
  0
LINE
  5
2C
330
1D
100
AcDbEntity
  8
boundary
 62
     5
100
AcDbLine
 39
2.0
 10
91.795323
 20
6.6675
 30
0.0
 11
91.795322
 21
23.667498
 31
0.0
  0
LINE
  5
2D
330
1D
100
AcDbEntity
  8
boundary
 62
     5
100
AcDbLine
 39
2.0
 10
91.795322
 20
23.667498
 30
0.0
 11
91.795323
 21
26.667497
 31
0.0
  0
LINE
  5
2E
330
1D
100
AcDbEntity
  8
boundary
 62
     5
100
AcDbLine
 39
2.0
 10
91.795323
 20
26.667497
 30
0.0
 11
260.473361
 21
26.667497
 31
0.0
  0
LINE
  5
2F
330
1D
100
AcDbEntity
  8
boundary
 62
     5
100
AcDbLine
 39
2.0
 10
260.473361
 20
26.667497
 30
0.0
 11
290.240071
 21
26.667497
 31
0.0
  0
LINE
  5
30
330
1D
100
AcDbEntity
  8
boundary
 62
     5
100
AcDbLine
 39
2.0
 10
290.240071
 20
26.667497
 30
0.0
 11
290.240071
 21
9.667499
 31
0.0
  0
LINE
  5
31
330
1D
100
AcDbEntity
  8
boundary
 62
     5
100
AcDbLine
 39
2.0
 10
290.240071
 20
9.667499
 30
0.0
 11
290.240071
 21
6.667501
 31
0.0
  0
LINE
  5
32
330
1D
100
AcDbEntity
  8
boundary
 62
     5
100
AcDbLine
 39
2.0
 10
290.240071
 20
6.667501
 30
0.0
 11
301.490068
 21
6.6675
 31
0.0
  0
LINE
  5
33
330
1D
100
AcDbEntity
  8
boundary
 62
     5
100
AcDbLine
 39
2.0
 10
301.490068
 20
6.6675
 30
0.0
 11
365.240054
 21
6.667501
 31
0.0
  0
LINE
  5
34
330
1D
100
AcDbEntity
  8
boundary
 62
     5
100
AcDbLine
 39
2.0
 10
365.240054
 20
6.667501
 30
0.0
 11
365.240054
 21
23.667497
 31
0.0
  0
LINE
  5
35
330
1D
100
AcDbEntity
  8
boundary
 62
     5
100
AcDbLine
 39
2.0
 10
365.240054
 20
23.667497
 30
0.0
 11
365.240054
 21
26.667497
 31
0.0
  0
LINE
  5
36
330
1D
100
AcDbEntity
  8
boundary
 62
     5
100
AcDbLine
 39
2.0
 10
365.240054
 20
26.667497
 30
0.0
 11
371.454171
 21
26.667497
 31
0.0
  0
LINE
  5
37
330
1D
100
AcDbEntity
  8
boundary
 62
     5
100
AcDbLine
 39
2.0
 10
371.454171
 20
26.667497
 30
0.0
 11
406.667504
 21
26.667497
 31
0.0
  0
LINE
  5
38
330
1D
100
AcDbEntity
  8
boundary
 62
     5
100
AcDbLine
 39
2.0
 10
406.667504
 20
26.667497
 30
0.0
 11
406.667504
 21
196.66751
 31
0.0
  0
LINE
  5
39
330
1D
100
AcDbEntity
  8
boundary
 62
     5
100
AcDbLine
 39
2.0
 10
406.667504
 20
196.66751
 30
0.0
 11
406.667504
 21
226.66751
 31
0.0
  0
LINE
  5
3A
330
1D
100
AcDbEntity
  8
boundary
 62
     5
100
AcDbLine
 39
2.0
 10
406.667504
 20
226.66751
 30
0.0
 11
371.454171
 21
226.667511
 31
0.0
  0
LINE
  5
3B
330
1D
100
AcDbEntity
  8
boundary
 62
     5
100
AcDbLine
 39
2.0
 10
371.454171
 20
226.667511
 30
0.0
 11
365.240054
 21
226.66751
 31
0.0
  0
LINE
  5
3C
330
1D
100
AcDbEntity
  8
boundary
 62
     5
100
AcDbLine
 39
2.0
 10
365.240054
 20
226.66751
 30
0.0
 11
365.240053
 21
243.667508
 31
0.0
  0
LINE
  5
3D
330
1D
100
AcDbEntity
  8
boundary
 62
     5
100
AcDbLine
 39
2.0
 10
365.240053
 20
243.667508
 30
0.0
 11
365.240054
 21
246.667507
 31
0.0
  0
LINE
  5
3E
330
1D
100
AcDbEntity
  8
boundary
 62
     5
100
AcDbLine
 39
2.0
 10
365.240054
 20
246.667507
 30
0.0
 11
301.490069
 21
246.667507
 31
0.0
  0
LINE
  5
3F
330
1D
100
AcDbEntity
  8
boundary
 62
     5
100
AcDbLine
 39
2.0
 10
301.490069
 20
246.667507
 30
0.0
 11
290.240072
 21
246.667507
 31
0.0
  0
LINE
  5
40
330
1D
100
AcDbEntity
  8
boundary
 62
     5
100
AcDbLine
 39
2.0
 10
290.240072
 20
246.667507
 30
0.0
 11
290.240072
 21
229.66751
 31
0.0
  0
LINE
  5
41
330
1D
100
AcDbEntity
  8
boundary
 62
     5
100
AcDbLine
 39
2.0
 10
290.240072
 20
229.66751
 30
0.0
 11
290.240071
 21
226.66751
 31
0.0
  0
LINE
  5
42
330
1D
100
AcDbEntity
  8
boundary
 62
     5
100
AcDbLine
 39
2.0
 10
290.240071
 20
226.66751
 30
0.0
 11
121.562033
 21
226.66751
 31
0.0
  0
LINE
  5
43
330
1D
100
AcDbEntity
  8
boundary
 62
     5
100
AcDbLine
 39
2.0
 10
121.562033
 20
226.66751
 30
0.0
 11
91.795323
 21
226.66751
 31
0.0
  0
LINE
  5
44
330
1D
100
AcDbEntity
  8
boundary
 62
     5
100
AcDbLine
 39
2.0
 10
91.795323
 20
226.66751
 30
0.0
 11
91.795323
 21
243.667508
 31
0.0
  0
LINE
  5
45
330
1D
100
AcDbEntity
  8
boundary
 62
     5
100
AcDbLine
 39
2.0
 10
91.795323
 20
243.667508
 30
0.0
 11
91.795323
 21
246.667507
 31
0.0
  0
LINE
  5
46
330
1D
100
AcDbEntity
  8
boundary
 62
     5
100
AcDbLine
 39
2.0
 10
91.795323
 20
246.667507
 30
0.0
 11
28.045322
 21
246.667507
 31
0.0
  0
LINE
  5
47
330
1D
100
AcDbEntity
  8
boundary
 62
     5
100
AcDbLine
 39
2.0
 10
28.045322
 20
246.667507
 30
0.0
 11
16.795322
 21
246.667507
 31
0.0
  0
LINE
  5
48
330
1D
100
AcDbEntity
  8
boundary
 62
     5
100
AcDbLine
 39
2.0
 10
16.795322
 20
246.667507
 30
0.0
 11
16.795322
 21
229.66751
 31
0.0
  0
LINE
  5
49
330
1D
100
AcDbEntity
  8
boundary
 62
     5
100
AcDbLine
 39
2.0
 10
16.795322
 20
229.66751
 30
0.0
 11
16.795322
 21
226.667511
 31
0.0
  0
LINE
  5
4A
330
1D
100
AcDbEntity
  8
boundary
 62
     5
100
AcDbLine
 39
2.0
 10
16.795322
 20
226.667511
 30
0.0
 11
15.276149
 21
226.667511
 31
0.0
  0
LINE
  5
4B
330
1D
100
AcDbEntity
  8
boundary
 62
     5
100
AcDbLine
 39
2.0
 10
15.276149
 20
226.667511
 30
0.0
 11
6.6675
 21
226.66751
 31
0.0
  0
LINE
  5
4C
330
1D
100
AcDbEntity
  8
boundary
 62
     5
100
AcDbLine
 39
2.0
 10
6.6675
 20
226.66751
 30
0.0
 11
6.6675
 21
56.667497
 31
0.0
  0
LINE
  5
4D
330
1D
100
AcDbEntity
  8
boundary
 62
     5
100
AcDbLine
 39
2.0
 10
6.6675
 20
56.667497
 30
0.0
 11
6.6675
 21
26.667497
 31
0.0
  0
LINE
  5
4E
330
1D
100
AcDbEntity
  8
boundary
 62
     5
100
AcDbLine
 39
2.0
 10
6.6675
 20
26.667497
 30
0.0
 11
15.276149
 21
26.667497
 31
0.0
  0
LINE
  5
4F
330
1D
100
AcDbEntity
  8
boundary
 62
     5
100
AcDbLine
 39
2.0
 10
15.276149
 20
26.667497
 30
0.0
 11
16.795322
 21
26.667497
 31
0.0
  0
LINE
  5
50
330
1D
100
AcDbEntity
  8
boundary
 62
     5
100
AcDbLine
 39
2.0
 10
16.795322
 20
26.667497
 30
0.0
 11
16.795322
 21
9.6675
 31
0.0
  0
LINE
  5
51
330
1D
100
AcDbEntity
  8
boundary
 62
     5
100
AcDbLine
 39
2.0
 10
16.795322
 20
9.6675
 30
0.0
 11
16.795322
 21
6.6675
 31
0.0
  0
LINE
  5
52
330
1D
100
AcDbEntity
  8
annotation
 62
     1
100
AcDbLine
 39
211.0
 10
366.667503
 20
126.667504
 30
0.0
 11
366.667503
 21
128.096254
 31
0.0
  0
LINE
  5
53
330
1D
100
AcDbEntity
  8
annotation
 62
     1
100
AcDbLine
 39
211.0
 10
46.6675
 20
126.667504
 30
0.0
 11
48.09625
 21
126.667504
 31
0.0
  0
LINE
  5
54
330
1D
100
AcDbEntity
  8
annotation
 62
     1
100
AcDbLine
 39
211.0
 10
339.824496
 20
68.111648
 30
0.0
 11
339.824496
 21
197.724609
 31
0.0
  0
LINE
  5
55
330
1D
100
AcDbEntity
  8
annotation
 62
     1
100
AcDbLine
 39
211.0
 10
339.824496
 20
197.724609
 30
0.0
 11
311.009875
 21
168.90186
 31
0.0
  0
LINE
  5
56
330
1D
100
AcDbEntity
  8
hole
 62
     5
100
AcDbLine
 39
2.0
 10
206.381752
 20
273.556758
 30
0.0
 11
206.953252
 21
273.556758
 31
0.0
  0
LINE
  5
57
330
1D
100
AcDbEntity
  8
hole
 62
     5
100
AcDbLine
 39
2.0
 10
206.953252
 20
273.556758
 30
0.0
 11
206.953252
 21
274.128258
 31
0.0
  0
LINE
  5
58
330
1D
100
AcDbEntity
  8
hole
 62
     5
100
AcDbLine
 39
2.0
 10
206.953252
 20
274.128258
 30
0.0
 11
206.381752
 21
274.128258
 31
0.0
  0
LINE
  5
59
330
1D
100
AcDbEntity
  8
hole
 62
     5
100
AcDbLine
 39
2.0
 10
206.381752
 20
274.128258
 30
0.0
 11
206.381752
 21
273.556758
 31
0.0
  0
LINE
  5
5A
330
1D
100
AcDbEntity
  8
hole
 62
     5
100
AcDbLine
 39
2.0
 10
206.381752
 20
465.556764
 30
0.0
 11
206.953252
 21
465.556764
 31
0.0
  0
LINE
  5
5B
330
1D
100
AcDbEntity
  8
hole
 62
     5
100
AcDbLine
 39
2.0
 10
206.953252
 20
465.556764
 30
0.0
 11
206.953252
 21
466.128264
 31
0.0
  0
LINE
  5
5C
330
1D
100
AcDbEntity
  8
hole
 62
     5
100
AcDbLine
 39
2.0
 10
206.953252
 20
466.128264
 30
0.0
 11
206.381752
 21
466.128264
 31
0.0
  0
LINE
  5
5D
330
1D
100
AcDbEntity
  8
hole
 62
     5
100
AcDbLine
 39
2.0
 10
206.381752
 20
466.128264
 30
0.0
 11
206.381752
 21
465.556764
 31
0.0
  0
LINE
  5
5E
330
1D
100
AcDbEntity
  8
hole
 62
     5
100
AcDbLine
 39
2.0
 10
366.381753
 20
369.556761
 30
0.0
 11
366.953253
 21
369.556761
 31
0.0
  0
LINE
  5
5F
330
1D
100
AcDbEntity
  8
hole
 62
     5
100
AcDbLine
 39
2.0
 10
366.953253
 20
369.556761
 30
0.0
 11
366.953253
 21
370.128261
 31
0.0
  0
LINE
  5
60
330
1D
100
AcDbEntity
  8
hole
 62
     5
100
AcDbLine
 39
2.0
 10
366.953253
 20
370.128261
 30
0.0
 11
366.381753
 21
370.128261
 31
0.0
  0
LINE
  5
61
330
1D
100
AcDbEntity
  8
hole
 62
     5
100
AcDbLine
 39
2.0
 10
366.381753
 20
370.128261
 30
0.0
 11
366.381753
 21
369.556761
 31
0.0
  0
LINE
  5
62
330
1D
100
AcDbEntity
  8
hole
 62
     5
100
AcDbLine
 39
2.0
 10
46.38175
 20
369.556761
 30
0.0
 11
46.95325
 21
369.556761
 31
0.0
  0
LINE
  5
63
330
1D
100
AcDbEntity
  8
hole
 62
     5
100
AcDbLine
 39
2.0
 10
46.95325
 20
369.556761
 30
0.0
 11
46.95325
 21
370.128261
 31
0.0
  0
LINE
  5
64
330
1D
100
AcDbEntity
  8
hole
 62
     5
100
AcDbLine
 39
2.0
 10
46.95325
 20
370.128261
 30
0.0
 11
46.38175
 21
370.128261
 31
0.0
  0
LINE
  5
65
330
1D
100
AcDbEntity
  8
hole
 62
     5
100
AcDbLine
 39
2.0
 10
46.38175
 20
370.128261
 30
0.0
 11
46.38175
 21
369.556761
 31
0.0
  0
LINE
  5
66
330
1D
100
AcDbEntity
  8
boundary
 62
     5
100
AcDbLine
 39
2.0
 10
16.795322
 20
249.842507
 30
0.0
 11
59.545322
 21
249.842508
 31
0.0
  0
LINE
  5
67
330
1D
100
AcDbEntity
  8
boundary
 62
     5
100
AcDbLine
 39
2.0
 10
59.545322
 20
249.842508
 30
0.0
 11
91.795323
 21
249.842508
 31
0.0
  0
LINE
  5
68
330
1D
100
AcDbEntity
  8
boundary
 62
     5
100
AcDbLine
 39
2.0
 10
91.795323
 20
249.842508
 30
0.0
 11
91.795322
 21
261.242506
 31
0.0
  0
LINE
  5
69
330
1D
100
AcDbEntity
  8
boundary
 62
     5
100
AcDbLine
 39
2.0
 10
91.795322
 20
261.242506
 30
0.0
 11
91.795323
 21
269.842504
 31
0.0
  0
LINE
  5
6A
330
1D
100
AcDbEntity
  8
boundary
 62
     5
100
AcDbLine
 39
2.0
 10
91.795323
 20
269.842504
 30
0.0
 11
204.90883
 21
269.842504
 31
0.0
  0
LINE
  5
6B
330
1D
100
AcDbEntity
  8
boundary
 62
     5
100
AcDbLine
 39
2.0
 10
204.90883
 20
269.842504
 30
0.0
 11
290.240071
 21
269.842505
 31
0.0
  0
LINE
  5
6C
330
1D
100
AcDbEntity
  8
boundary
 62
     5
100
AcDbLine
 39
2.0
 10
290.240071
 20
269.842505
 30
0.0
 11
290.240071
 21
258.442506
 31
0.0
  0
LINE
  5
6D
330
1D
100
AcDbEntity
  8
boundary
 62
     5
100
AcDbLine
 39
2.0
 10
290.240071
 20
258.442506
 30
0.0
 11
290.240071
 21
249.842508
 31
0.0
  0
LINE
  5
6E
330
1D
100
AcDbEntity
  8
boundary
 62
     5
100
AcDbLine
 39
2.0
 10
290.240071
 20
249.842508
 30
0.0
 11
322.490063
 21
249.842507
 31
0.0
  0
LINE
  5
6F
330
1D
100
AcDbEntity
  8
boundary
 62
     5
100
AcDbLine
 39
2.0
 10
322.490063
 20
249.842507
 30
0.0
 11
365.240054
 21
249.842508
 31
0.0
  0
LINE
  5
70
330
1D
100
AcDbEntity
  8
boundary
 62
     5
100
AcDbLine
 39
2.0
 10
365.240054
 20
249.842508
 30
0.0
 11
365.240054
 21
261.242506
 31
0.0
  0
LINE
  5
71
330
1D
100
AcDbEntity
  8
boundary
 62
     5
100
AcDbLine
 39
2.0
 10
365.240054
 20
261.242506
 30
0.0
 11
365.240054
 21
269.842504
 31
0.0
  0
LINE
  5
72
330
1D
100
AcDbEntity
  8
boundary
 62
     5
100
AcDbLine
 39
2.0
 10
365.240054
 20
269.842504
 30
0.0
 11
383.053857
 21
269.842504
 31
0.0
  0
LINE
  5
73
330
1D
100
AcDbEntity
  8
boundary
 62
     5
100
AcDbLine
 39
2.0
 10
383.053857
 20
269.842504
 30
0.0
 11
406.667504
 21
269.842504
 31
0.0
  0
LINE
  5
74
330
1D
100
AcDbEntity
  8
boundary
 62
     5
100
AcDbLine
 39
2.0
 10
406.667504
 20
269.842504
 30
0.0
 11
406.667504
 21
383.842512
 31
0.0
  0
LINE
  5
75
330
1D
100
AcDbEntity
  8
boundary
 62
     5
100
AcDbLine
 39
2.0
 10
406.667504
 20
383.842512
 30
0.0
 11
406.667504
 21
469.842518
 31
0.0
  0
LINE
  5
76
330
1D
100
AcDbEntity
  8
boundary
 62
     5
100
AcDbLine
 39
2.0
 10
406.667504
 20
469.842518
 30
0.0
 11
383.053857
 21
469.842518
 31
0.0
  0
LINE
  5
77
330
1D
100
AcDbEntity
  8
boundary
 62
     5
100
AcDbLine
 39
2.0
 10
383.053857
 20
469.842518
 30
0.0
 11
365.240054
 21
469.842518
 31
0.0
  0
LINE
  5
78
330
1D
100
AcDbEntity
  8
boundary
 62
     5
100
AcDbLine
 39
2.0
 10
365.240054
 20
469.842518
 30
0.0
 11
365.240053
 21
481.242516
 31
0.0
  0
LINE
  5
79
330
1D
100
AcDbEntity
  8
boundary
 62
     5
100
AcDbLine
 39
2.0
 10
365.240053
 20
481.242516
 30
0.0
 11
365.240054
 21
489.842515
 31
0.0
  0
LINE
  5
7A
330
1D
100
AcDbEntity
  8
boundary
 62
     5
100
AcDbLine
 39
2.0
 10
365.240054
 20
489.842515
 30
0.0
 11
322.490064
 21
489.842514
 31
0.0
  0
LINE
  5
7B
330
1D
100
AcDbEntity
  8
boundary
 62
     5
100
AcDbLine
 39
2.0
 10
322.490064
 20
489.842514
 30
0.0
 11
290.240072
 21
489.842515
 31
0.0
  0
LINE
  5
7C
330
1D
100
AcDbEntity
  8
boundary
 62
     5
100
AcDbLine
 39
2.0
 10
290.240072
 20
489.842515
 30
0.0
 11
290.240072
 21
478.442516
 31
0.0
  0
LINE
  5
7D
330
1D
100
AcDbEntity
  8
boundary
 62
     5
100
AcDbLine
 39
2.0
 10
290.240072
 20
478.442516
 30
0.0
 11
290.240071
 21
469.842517
 31
0.0
  0
LINE
  5
7E
330
1D
100
AcDbEntity
  8
boundary
 62
     5
100
AcDbLine
 39
2.0
 10
290.240071
 20
469.842517
 30
0.0
 11
177.126564
 21
469.842517
 31
0.0
  0
LINE
  5
7F
330
1D
100
AcDbEntity
  8
boundary
 62
     5
100
AcDbLine
 39
2.0
 10
177.126564
 20
469.842517
 30
0.0
 11
91.795323
 21
469.842518
 31
0.0
  0
LINE
  5
80
330
1D
100
AcDbEntity
  8
boundary
 62
     5
100
AcDbLine
 39
2.0
 10
91.795323
 20
469.842518
 30
0.0
 11
91.795323
 21
481.242516
 31
0.0
  0
LINE
  5
81
330
1D
100
AcDbEntity
  8
boundary
 62
     5
100
AcDbLine
 39
2.0
 10
91.795323
 20
481.242516
 30
0.0
 11
91.795323
 21
489.842514
 31
0.0
  0
LINE
  5
82
330
1D
100
AcDbEntity
  8
boundary
 62
     5
100
AcDbLine
 39
2.0
 10
91.795323
 20
489.842514
 30
0.0
 11
49.045323
 21
489.842515
 31
0.0
  0
LINE
  5
83
330
1D
100
AcDbEntity
  8
boundary
 62
     5
100
AcDbLine
 39
2.0
 10
49.045323
 20
489.842515
 30
0.0
 11
16.795322
 21
489.842515
 31
0.0
  0
LINE
  5
84
330
1D
100
AcDbEntity
  8
boundary
 62
     5
100
AcDbLine
 39
2.0
 10
16.795322
 20
489.842515
 30
0.0
 11
16.795322
 21
478.442517
 31
0.0
  0
LINE
  5
85
330
1D
100
AcDbEntity
  8
boundary
 62
     5
100
AcDbLine
 39
2.0
 10
16.795322
 20
478.442517
 30
0.0
 11
16.795322
 21
469.842518
 31
0.0
  0
LINE
  5
86
330
1D
100
AcDbEntity
  8
boundary
 62
     5
100
AcDbLine
 39
2.0
 10
16.795322
 20
469.842518
 30
0.0
 11
12.440359
 21
469.842518
 31
0.0
  0
LINE
  5
87
330
1D
100
AcDbEntity
  8
boundary
 62
     5
100
AcDbLine
 39
2.0
 10
12.440359
 20
469.842518
 30
0.0
 11
6.6675
 21
469.842518
 31
0.0
  0
LINE
  5
88
330
1D
100
AcDbEntity
  8
boundary
 62
     5
100
AcDbLine
 39
2.0
 10
6.6675
 20
469.842518
 30
0.0
 11
6.6675
 21
355.84251
 31
0.0
  0
LINE
  5
89
330
1D
100
AcDbEntity
  8
boundary
 62
     5
100
AcDbLine
 39
2.0
 10
6.6675
 20
355.84251
 30
0.0
 11
6.6675
 21
269.842504
 31
0.0
  0
LINE
  5
8A
330
1D
100
AcDbEntity
  8
boundary
 62
     5
100
AcDbLine
 39
2.0
 10
6.6675
 20
269.842504
 30
0.0
 11
12.440359
 21
269.842504
 31
0.0
  0
LINE
  5
8B
330
1D
100
AcDbEntity
  8
boundary
 62
     5
100
AcDbLine
 39
2.0
 10
12.440359
 20
269.842504
 30
0.0
 11
16.795322
 21
269.842505
 31
0.0
  0
LINE
  5
8C
330
1D
100
AcDbEntity
  8
boundary
 62
     5
100
AcDbLine
 39
2.0
 10
16.795322
 20
269.842505
 30
0.0
 11
16.795322
 21
258.442506
 31
0.0
  0
LINE
  5
8D
330
1D
100
AcDbEntity
  8
boundary
 62
     5
100
AcDbLine
 39
2.0
 10
16.795322
 20
258.442506
 30
0.0
 11
16.795322
 21
249.842507
 31
0.0
  0
LINE
  5
8E
330
1D
100
AcDbEntity
  8
annotation
 62
     1
100
AcDbLine
 39
211.0
 10
366.667503
 20
369.842511
 30
0.0
 11
366.667503
 21
371.271261
 31
0.0
  0
LINE
  5
8F
330
1D
100
AcDbEntity
  8
annotation
 62
     1
100
AcDbLine
 39
211.0
 10
46.6675
 20
369.842511
 30
0.0
 11
48.09625
 21
369.842511
 31
0.0
  0
LINE
  5
90
330
1D
100
AcDbEntity
  8
annotation
 62
     1
100
AcDbLine
 39
211.0
 10
206.667502
 20
465.842514
 30
0.0
 11
206.667502
 21
467.271264
 31
0.0
  0
LINE
  5
91
330
1D
100
AcDbEntity
  8
annotation
 62
     1
100
AcDbLine
 39
211.0
 10
206.667502
 20
465.842514
 30
0.0
 11
206.667502
 21
467.271264
 31
0.0
  0
LINE
  5
92
330
1D
100
AcDbEntity
  8
annotation
 62
     1
100
AcDbLine
 39
211.0
 10
206.667502
 20
467.271264
 30
0.0
 11
206.667502
 21
465.842514
 31
0.0
  0
LINE
  5
93
330
1D
100
AcDbEntity
  8
annotation
 62
     1
100
AcDbLine
 39
211.0
 10
206.667502
 20
465.842514
 30
0.0
 11
208.096252
 21
465.842514
 31
0.0
  0
LINE
  5
94
330
1D
100
AcDbEntity
  8
annotation
 62
     1
100
AcDbLine
 39
211.0
 10
206.667502
 20
273.842508
 30
0.0
 11
206.667502
 21
272.413758
 31
0.0
  0
LINE
  5
95
330
1D
100
AcDbEntity
  8
annotation
 62
     1
100
AcDbLine
 39
211.0
 10
235.291567
 20
313.186026
 30
0.0
 11
190.519399
 21
313.186026
 31
0.0
  0
LINE
  5
96
330
1D
100
AcDbEntity
  8
annotation
 62
     1
100
AcDbLine
 39
211.0
 10
190.519399
 20
313.186026
 30
0.0
 11
231.890349
 21
379.787945
 31
0.0
  0
LINE
  5
97
330
1D
100
AcDbEntity
  8
annotation
 62
     1
100
AcDbLine
 39
211.0
 10
231.890349
 20
379.787945
 30
0.0
 11
231.890349
 21
379.787945
 31
0.0
  0
LINE
  5
98
330
1D
100
AcDbEntity
  8
annotation
 62
     1
100
AcDbLine
 39
211.0
 10
231.890349
 20
379.787945
 30
0.0
 11
231.939806
 21
379.849144
 31
0.0
  0
LINE
  5
99
330
1D
100
AcDbEntity
  8
annotation
 62
     1
100
AcDbLine
 39
211.0
 10
231.939806
 20
379.849144
 30
0.0
 11
231.987234
 21
379.910864
 31
0.0
  0
LINE
  5
9A
330
1D
100
AcDbEntity
  8
annotation
 62
     1
100
AcDbLine
 39
211.0
 10
231.987234
 20
379.910864
 30
0.0
 11
232.032944
 21
379.973624
 31
0.0
  0
LINE
  5
9B
330
1D
100
AcDbEntity
  8
annotation
 62
     1
100
AcDbLine
 39
211.0
 10
232.032944
 20
379.973624
 30
0.0
 11
232.07725
 21
380.037945
 31
0.0
  0
LINE
  5
9C
330
1D
100
AcDbEntity
  8
annotation
 62
     1
100
AcDbLine
 39
211.0
 10
232.07725
 20
380.037945
 30
0.0
 11
232.120463
 21
380.104347
 31
0.0
  0
LINE
  5
9D
330
1D
100
AcDbEntity
  8
annotation
 62
     1
100
AcDbLine
 39
211.0
 10
232.120463
 20
380.104347
 30
0.0
 11
232.162896
 21
380.173351
 31
0.0
  0
LINE
  5
9E
330
1D
100
AcDbEntity
  8
annotation
 62
     1
100
AcDbLine
 39
211.0
 10
232.162896
 20
380.173351
 30
0.0
 11
232.20486
 21
380.245477
 31
0.0
  0
LINE
  5
9F
330
1D
100
AcDbEntity
  8
annotation
 62
     1
100
AcDbLine
 39
211.0
 10
232.20486
 20
380.245477
 30
0.0
 11
232.246668
 21
380.321245
 31
0.0
  0
LINE
  5
A0
330
1D
100
AcDbEntity
  8
annotation
 62
     1
100
AcDbLine
 39
211.0
 10
232.246668
 20
380.321245
 30
0.0
 11
232.288633
 21
380.401176
 31
0.0
  0
LINE
  5
A1
330
1D
100
AcDbEntity
  8
annotation
 62
     1
100
AcDbLine
 39
211.0
 10
232.288633
 20
380.401176
 30
0.0
 11
232.288633
 21
380.401176
 31
0.0
  0
LINE
  5
A2
330
1D
100
AcDbEntity
  8
annotation
 62
     1
100
AcDbLine
 39
211.0
 10
232.288633
 20
380.401176
 30
0.0
 11
233.99683
 21
384.068818
 31
0.0
  0
LINE
  5
A3
330
1D
100
AcDbEntity
  8
annotation
 62
     1
100
AcDbLine
 39
211.0
 10
233.99683
 20
384.068818
 30
0.0
 11
234.994729
 21
387.870653
 31
0.0
  0
LINE
  5
A4
330
1D
100
AcDbEntity
  8
annotation
 62
     1
100
AcDbLine
 39
211.0
 10
234.994729
 20
387.870653
 30
0.0
 11
235.306787
 21
391.720774
 31
0.0
  0
LINE
  5
A5
330
1D
100
AcDbEntity
  8
annotation
 62
     1
100
AcDbLine
 39
211.0
 10
235.306787
 20
391.720774
 30
0.0
 11
234.957457
 21
395.533276
 31
0.0
  0
LINE
  5
A6
330
1D
100
AcDbEntity
  8
annotation
 62
     1
100
AcDbLine
 39
211.0
 10
234.957457
 20
395.533276
 30
0.0
 11
233.971195
 21
399.222252
 31
0.0
  0
LINE
  5
A7
330
1D
100
AcDbEntity
  8
annotation
 62
     1
100
AcDbLine
 39
211.0
 10
233.971195
 20
399.222252
 30
0.0
 11
232.372457
 21
402.701796
 31
0.0
  0
LINE
  5
A8
330
1D
100
AcDbEntity
  8
annotation
 62
     1
100
AcDbLine
 39
211.0
 10
232.372457
 20
402.701796
 30
0.0
 11
230.185699
 21
405.886004
 31
0.0
  0
LINE
  5
A9
330
1D
100
AcDbEntity
  8
annotation
 62
     1
100
AcDbLine
 39
211.0
 10
230.185699
 20
405.886004
 30
0.0
 11
227.435374
 21
408.688968
 31
0.0
  0
LINE
  5
AA
330
1D
100
AcDbEntity
  8
annotation
 62
     1
100
AcDbLine
 39
211.0
 10
227.435374
 20
408.688968
 30
0.0
 11
224.14594
 21
411.024783
 31
0.0
  0
LINE
  5
AB
330
1D
100
AcDbEntity
  8
annotation
 62
     1
100
AcDbLine
 39
211.0
 10
224.14594
 20
411.024783
 30
0.0
 11
224.14594
 21
411.024783
 31
0.0
  0
LINE
  5
AC
330
1D
100
AcDbEntity
  8
annotation
 62
     1
100
AcDbLine
 39
211.0
 10
224.14594
 20
411.024783
 30
0.0
 11
220.468099
 21
412.708706
 31
0.0
  0
LINE
  5
AD
330
1D
100
AcDbEntity
  8
annotation
 62
     1
100
AcDbLine
 39
211.0
 10
220.468099
 20
412.708706
 30
0.0
 11
216.660436
 21
413.69123
 31
0.0
  0
LINE
  5
AE
330
1D
100
AcDbEntity
  8
annotation
 62
     1
100
AcDbLine
 39
211.0
 10
216.660436
 20
413.69123
 30
0.0
 11
212.808078
 21
413.994468
 31
0.0
  0
LINE
  5
AF
330
1D
100
AcDbEntity
  8
annotation
 62
     1
100
AcDbLine
 39
211.0
 10
212.808078
 20
413.994468
 30
0.0
 11
208.996149
 21
413.640533
 31
0.0
  0
LINE
  5
B0
330
1D
100
AcDbEntity
  8
annotation
 62
     1
100
AcDbLine
 39
211.0
 10
208.996149
 20
413.640533
 30
0.0
 11
205.309774
 21
412.65154
 31
0.0
  0
LINE
  5
B1
330
1D
100
AcDbEntity
  8
annotation
 62
     1
100
AcDbLine
 39
211.0
 10
205.309774
 20
412.65154
 30
0.0
 11
201.83408
 21
411.049602
 31
0.0
  0
LINE
  5
B2
330
1D
100
AcDbEntity
  8
annotation
 62
     1
100
AcDbLine
 39
211.0
 10
201.83408
 20
411.049602
 30
0.0
 11
198.654192
 21
408.856834
 31
0.0
  0
LINE
  5
B3
330
1D
100
AcDbEntity
  8
annotation
 62
     1
100
AcDbLine
 39
211.0
 10
198.654192
 20
408.856834
 30
0.0
 11
195.855234
 21
406.095348
 31
0.0
  0
LINE
  5
B4
330
1D
100
AcDbEntity
  8
annotation
 62
     1
100
AcDbLine
 39
211.0
 10
195.855234
 20
406.095348
 30
0.0
 11
193.522333
 21
402.78726
 31
0.0
  0
LINE
  5
B5
330
1D
100
AcDbEntity
  8
annotation
 62
     1
100
AcDbLine
 39
211.0
 10
193.522333
 20
402.78726
 30
0.0
 11
190.582619
 21
397.148066
 31
0.0
  0
LINE
  5
B6
330
1D
100
AcDbEntity
  8
hole
 62
     5
100
AcDbLine
 39
2.0
 10
206.381752
 20
516.731765
 30
0.0
 11
206.953252
 21
516.731765
 31
0.0
  0
LINE
  5
B7
330
1D
100
AcDbEntity
  8
hole
 62
     5
100
AcDbLine
 39
2.0
 10
206.953252
 20
516.731765
 30
0.0
 11
206.953252
 21
517.303265
 31
0.0
  0
LINE
  5
B8
330
1D
100
AcDbEntity
  8
hole
 62
     5
100
AcDbLine
 39
2.0
 10
206.953252
 20
517.303265
 30
0.0
 11
206.381752
 21
517.303265
 31
0.0
  0
LINE
  5
B9
330
1D
100
AcDbEntity
  8
hole
 62
     5
100
AcDbLine
 39
2.0
 10
206.381752
 20
517.303265
 30
0.0
 11
206.381752
 21
516.731765
 31
0.0
  0
LINE
  5
BA
330
1D
100
AcDbEntity
  8
hole
 62
     5
100
AcDbLine
 39
2.0
 10
206.381752
 20
708.731771
 30
0.0
 11
206.953252
 21
708.731771
 31
0.0
  0
LINE
  5
BB
330
1D
100
AcDbEntity
  8
hole
 62
     5
100
AcDbLine
 39
2.0
 10
206.953252
 20
708.731771
 30
0.0
 11
206.953252
 21
709.303271
 31
0.0
  0
LINE
  5
BC
330
1D
100
AcDbEntity
  8
hole
 62
     5
100
AcDbLine
 39
2.0
 10
206.953252
 20
709.303271
 30
0.0
 11
206.381752
 21
709.303271
 31
0.0
  0
LINE
  5
BD
330
1D
100
AcDbEntity
  8
hole
 62
     5
100
AcDbLine
 39
2.0
 10
206.381752
 20
709.303271
 30
0.0
 11
206.381752
 21
708.731771
 31
0.0
  0
LINE
  5
BE
330
1D
100
AcDbEntity
  8
hole
 62
     5
100
AcDbLine
 39
2.0
 10
366.381753
 20
612.731768
 30
0.0
 11
366.953253
 21
612.731768
 31
0.0
  0
LINE
  5
BF
330
1D
100
AcDbEntity
  8
hole
 62
     5
100
AcDbLine
 39
2.0
 10
366.953253
 20
612.731768
 30
0.0
 11
366.953253
 21
613.303268
 31
0.0
  0
LINE
  5
C0
330
1D
100
AcDbEntity
  8
hole
 62
     5
100
AcDbLine
 39
2.0
 10
366.953253
 20
613.303268
 30
0.0
 11
366.381753
 21
613.303268
 31
0.0
  0
LINE
  5
C1
330
1D
100
AcDbEntity
  8
hole
 62
     5
100
AcDbLine
 39
2.0
 10
366.381753
 20
613.303268
 30
0.0
 11
366.381753
 21
612.731768
 31
0.0
  0
LINE
  5
C2
330
1D
100
AcDbEntity
  8
hole
 62
     5
100
AcDbLine
 39
2.0
 10
46.38175
 20
612.731768
 30
0.0
 11
46.95325
 21
612.731768
 31
0.0
  0
LINE
  5
C3
330
1D
100
AcDbEntity
  8
hole
 62
     5
100
AcDbLine
 39
2.0
 10
46.95325
 20
612.731768
 30
0.0
 11
46.95325
 21
613.303268
 31
0.0
  0
LINE
  5
C4
330
1D
100
AcDbEntity
  8
hole
 62
     5
100
AcDbLine
 39
2.0
 10
46.95325
 20
613.303268
 30
0.0
 11
46.38175
 21
613.303268
 31
0.0
  0
LINE
  5
C5
330
1D
100
AcDbEntity
  8
hole
 62
     5
100
AcDbLine
 39
2.0
 10
46.38175
 20
613.303268
 30
0.0
 11
46.38175
 21
612.731768
 31
0.0
  0
LINE
  5
C6
330
1D
100
AcDbEntity
  8
boundary
 62
     5
100
AcDbLine
 39
2.0
 10
16.795322
 20
493.017515
 30
0.0
 11
38.545321
 21
493.017515
 31
0.0
  0
LINE
  5
C7
330
1D
100
AcDbEntity
  8
boundary
 62
     5
100
AcDbLine
 39
2.0
 10
38.545321
 20
493.017515
 30
0.0
 11
91.795323
 21
493.017515
 31
0.0
  0
LINE
  5
C8
330
1D
100
AcDbEntity
  8
boundary
 62
     5
100
AcDbLine
 39
2.0
 10
91.795323
 20
493.017515
 30
0.0
 11
91.795322
 21
498.817514
 31
0.0
  0
LINE
  5
C9
330
1D
100
AcDbEntity
  8
boundary
 62
     5
100
AcDbLine
 39
2.0
 10
91.795322
 20
498.817514
 30
0.0
 11
91.795323
 21
513.017511
 31
0.0
  0
LINE
  5
CA
330
1D
100
AcDbEntity
  8
boundary
 62
     5
100
AcDbLine
 39
2.0
 10
91.795323
 20
513.017511
 30
0.0
 11
149.344299
 21
513.017512
 31
0.0
  0
LINE
  5
CB
330
1D
100
AcDbEntity
  8
boundary
 62
     5
100
AcDbLine
 39
2.0
 10
149.344299
 20
513.017512
 30
0.0
 11
290.240071
 21
513.017512
 31
0.0
  0
LINE
  5
CC
330
1D
100
AcDbEntity
  8
boundary
 62
     5
100
AcDbLine
 39
2.0
 10
290.240071
 20
513.017512
 30
0.0
 11
290.240071
 21
507.217512
 31
0.0
  0
LINE
  5
CD
330
1D
100
AcDbEntity
  8
boundary
 62
     5
100
AcDbLine
 39
2.0
 10
290.240071
 20
507.217512
 30
0.0
 11
290.240071
 21
493.017515
 31
0.0
  0
LINE
  5
CE
330
1D
100
AcDbEntity
  8
boundary
 62
     5
100
AcDbLine
 39
2.0
 10
290.240071
 20
493.017515
 30
0.0
 11
343.490059
 21
493.017515
 31
0.0
  0
LINE
  5
CF
330
1D
100
AcDbEntity
  8
boundary
 62
     5
100
AcDbLine
 39
2.0
 10
343.490059
 20
493.017515
 30
0.0
 11
365.240054
 21
493.017515
 31
0.0
  0
LINE
  5
D0
330
1D
100
AcDbEntity
  8
boundary
 62
     5
100
AcDbLine
 39
2.0
 10
365.240054
 20
493.017515
 30
0.0
 11
365.240054
 21
498.817514
 31
0.0
  0
LINE
  5
D1
330
1D
100
AcDbEntity
  8
boundary
 62
     5
100
AcDbLine
 39
2.0
 10
365.240054
 20
498.817514
 30
0.0
 11
365.240054
 21
513.017511
 31
0.0
  0
LINE
  5
D2
330
1D
100
AcDbEntity
  8
boundary
 62
     5
100
AcDbLine
 39
2.0
 10
365.240054
 20
513.017511
 30
0.0
 11
394.653543
 21
513.017511
 31
0.0
  0
LINE
  5
D3
330
1D
100
AcDbEntity
  8
boundary
 62
     5
100
AcDbLine
 39
2.0
 10
394.653543
 20
513.017511
 30
0.0
 11
406.667504
 21
513.017511
 31
0.0
  0
LINE
  5
D4
330
1D
100
AcDbEntity
  8
boundary
 62
     5
100
AcDbLine
 39
2.0
 10
406.667504
 20
513.017511
 30
0.0
 11
406.667504
 21
571.017515
 31
0.0
  0
LINE
  5
D5
330
1D
100
AcDbEntity
  8
boundary
 62
     5
100
AcDbLine
 39
2.0
 10
406.667504
 20
571.017515
 30
0.0
 11
406.667504
 21
713.017525
 31
0.0
  0
LINE
  5
D6
330
1D
100
AcDbEntity
  8
boundary
 62
     5
100
AcDbLine
 39
2.0
 10
406.667504
 20
713.017525
 30
0.0
 11
394.653544
 21
713.017525
 31
0.0
  0
LINE
  5
D7
330
1D
100
AcDbEntity
  8
boundary
 62
     5
100
AcDbLine
 39
2.0
 10
394.653544
 20
713.017525
 30
0.0
 11
365.240054
 21
713.017525
 31
0.0
  0
LINE
  5
D8
330
1D
100
AcDbEntity
  8
boundary
 62
     5
100
AcDbLine
 39
2.0
 10
365.240054
 20
713.017525
 30
0.0
 11
365.240053
 21
718.817524
 31
0.0
  0
LINE
  5
D9
330
1D
100
AcDbEntity
  8
boundary
 62
     5
100
AcDbLine
 39
2.0
 10
365.240053
 20
718.817524
 30
0.0
 11
365.240054
 21
733.017522
 31
0.0
  0
LINE
  5
DA
330
1D
100
AcDbEntity
  8
boundary
 62
     5
100
AcDbLine
 39
2.0
 10
365.240054
 20
733.017522
 30
0.0
 11
343.49006
 21
733.017522
 31
0.0
  0
LINE
  5
DB
330
1D
100
AcDbEntity
  8
boundary
 62
     5
100
AcDbLine
 39
2.0
 10
343.49006
 20
733.017522
 30
0.0
 11
290.240072
 21
733.017522
 31
0.0
  0
LINE
  5
DC
330
1D
100
AcDbEntity
  8
boundary
 62
     5
100
AcDbLine
 39
2.0
 10
290.240072
 20
733.017522
 30
0.0
 11
290.240072
 21
727.217523
 31
0.0
  0
LINE
  5
DD
330
1D
100
AcDbEntity
  8
boundary
 62
     5
100
AcDbLine
 39
2.0
 10
290.240072
 20
727.217523
 30
0.0
 11
290.240071
 21
713.017525
 31
0.0
  0
LINE
  5
DE
330
1D
100
AcDbEntity
  8
boundary
 62
     5
100
AcDbLine
 39
2.0
 10
290.240071
 20
713.017525
 30
0.0
 11
232.691095
 21
713.017525
 31
0.0
  0
LINE
  5
DF
330
1D
100
AcDbEntity
  8
boundary
 62
     5
100
AcDbLine
 39
2.0
 10
232.691095
 20
713.017525
 30
0.0
 11
91.795323
 21
713.017525
 31
0.0
  0
LINE
  5
E0
330
1D
100
AcDbEntity
  8
boundary
 62
     5
100
AcDbLine
 39
2.0
 10
91.795323
 20
713.017525
 30
0.0
 11
91.795323
 21
718.817524
 31
0.0
  0
LINE
  5
E1
330
1D
100
AcDbEntity
  8
boundary
 62
     5
100
AcDbLine
 39
2.0
 10
91.795323
 20
718.817524
 30
0.0
 11
91.795323
 21
733.017521
 31
0.0
  0
LINE
  5
E2
330
1D
100
AcDbEntity
  8
boundary
 62
     5
100
AcDbLine
 39
2.0
 10
91.795323
 20
733.017521
 30
0.0
 11
70.045323
 21
733.017522
 31
0.0
  0
LINE
  5
E3
330
1D
100
AcDbEntity
  8
boundary
 62
     5
100
AcDbLine
 39
2.0
 10
70.045323
 20
733.017522
 30
0.0
 11
16.795322
 21
733.017522
 31
0.0
  0
LINE
  5
E4
330
1D
100
AcDbEntity
  8
boundary
 62
     5
100
AcDbLine
 39
2.0
 10
16.795322
 20
733.017522
 30
0.0
 11
16.795322
 21
727.217523
 31
0.0
  0
LINE
  5
E5
330
1D
100
AcDbEntity
  8
boundary
 62
     5
100
AcDbLine
 39
2.0
 10
16.795322
 20
727.217523
 30
0.0
 11
16.795322
 21
713.017526
 31
0.0
  0
LINE
  5
E6
330
1D
100
AcDbEntity
  8
boundary
 62
     5
100
AcDbLine
 39
2.0
 10
16.795322
 20
713.017526
 30
0.0
 11
9.604569
 21
713.017526
 31
0.0
  0
LINE
  5
E7
330
1D
100
AcDbEntity
  8
boundary
 62
     5
100
AcDbLine
 39
2.0
 10
9.604569
 20
713.017526
 30
0.0
 11
6.6675
 21
713.017525
 31
0.0
  0
LINE
  5
E8
330
1D
100
AcDbEntity
  8
boundary
 62
     5
100
AcDbLine
 39
2.0
 10
6.6675
 20
713.017525
 30
0.0
 11
6.6675
 21
655.017522
 31
0.0
  0
LINE
  5
E9
330
1D
100
AcDbEntity
  8
boundary
 62
     5
100
AcDbLine
 39
2.0
 10
6.6675
 20
655.017522
 30
0.0
 11
6.6675
 21
513.017511
 31
0.0
  0
LINE
  5
EA
330
1D
100
AcDbEntity
  8
boundary
 62
     5
100
AcDbLine
 39
2.0
 10
6.6675
 20
513.017511
 30
0.0
 11
9.604569
 21
513.017511
 31
0.0
  0
LINE
  5
EB
330
1D
100
AcDbEntity
  8
boundary
 62
     5
100
AcDbLine
 39
2.0
 10
9.604569
 20
513.017511
 30
0.0
 11
16.795322
 21
513.017512
 31
0.0
  0
LINE
  5
EC
330
1D
100
AcDbEntity
  8
boundary
 62
     5
100
AcDbLine
 39
2.0
 10
16.795322
 20
513.017512
 30
0.0
 11
16.795322
 21
507.217513
 31
0.0
  0
LINE
  5
ED
330
1D
100
AcDbEntity
  8
boundary
 62
     5
100
AcDbLine
 39
2.0
 10
16.795322
 20
507.217513
 30
0.0
 11
16.795322
 21
493.017515
 31
0.0
  0
LINE
  5
EE
330
1D
100
AcDbEntity
  8
annotation
 62
     1
100
AcDbLine
 39
211.0
 10
206.667502
 20
709.017521
 30
0.0
 11
206.667502
 21
710.446271
 31
0.0
  0
LINE
  5
EF
330
1D
100
AcDbEntity
  8
annotation
 62
     1
100
AcDbLine
 39
211.0
 10
206.667502
 20
709.017521
 30
0.0
 11
206.667502
 21
710.446271
 31
0.0
  0
LINE
  5
F0
330
1D
100
AcDbEntity
  8
annotation
 62
     1
100
AcDbLine
 39
211.0
 10
206.667502
 20
710.446271
 30
0.0
 11
206.667502
 21
709.017521
 31
0.0
  0
LINE
  5
F1
330
1D
100
AcDbEntity
  8
annotation
 62
     1
100
AcDbLine
 39
211.0
 10
206.667502
 20
709.017521
 30
0.0
 11
208.096252
 21
709.017521
 31
0.0
  0
LINE
  5
F2
330
1D
100
AcDbEntity
  8
annotation
 62
     1
100
AcDbLine
 39
211.0
 10
206.667502
 20
517.017515
 30
0.0
 11
206.667502
 21
515.588765
 31
0.0
  0
LINE
  5
F3
330
1D
100
AcDbEntity
  8
annotation
 62
     1
100
AcDbLine
 39
211.0
 10
366.667503
 20
613.017518
 30
0.0
 11
366.667503
 21
614.446268
 31
0.0
  0
LINE
  5
F4
330
1D
100
AcDbEntity
  8
annotation
 62
     1
100
AcDbLine
 39
211.0
 10
366.667503
 20
613.017518
 30
0.0
 11
366.667503
 21
614.446268
 31
0.0
  0
LINE
  5
F5
330
1D
100
AcDbEntity
  8
annotation
 62
     1
100
AcDbLine
 39
211.0
 10
366.667503
 20
614.446268
 30
0.0
 11
366.667503
 21
613.017518
 31
0.0
  0
LINE
  5
F6
330
1D
100
AcDbEntity
  8
annotation
 62
     1
100
AcDbLine
 39
211.0
 10
366.667503
 20
613.017518
 30
0.0
 11
366.667503
 21
611.588768
 31
0.0
  0
LINE
  5
F7
330
1D
100
AcDbEntity
  8
annotation
 62
     1
100
AcDbLine
 39
211.0
 10
46.6675
 20
613.017518
 30
0.0
 11
48.09625
 21
613.017518
 31
0.0
  0
LINE
  5
F8
330
1D
100
AcDbEntity
  8
annotation
 62
     1
100
AcDbLine
 39
211.0
 10
46.6675
 20
613.017518
 30
0.0
 11
48.09625
 21
613.017518
 31
0.0
  0
LINE
  5
F9
330
1D
100
AcDbEntity
  8
annotation
 62
     1
100
AcDbLine
 39
211.0
 10
48.09625
 20
613.017518
 30
0.0
 11
46.6675
 21
613.017518
 31
0.0
  0
LINE
  5
FA
330
1D
100
AcDbEntity
  8
annotation
 62
     1
100
AcDbLine
 39
211.0
 10
46.6675
 20
613.017518
 30
0.0
 11
46.6675
 21
611.588768
 31
0.0
  0
LINE
  5
FB
330
1D
100
AcDbEntity
  8
annotation
 62
     1
100
AcDbLine
 39
211.0
 10
190.519399
 20
556.365014
 30
0.0
 11
212.905483
 21
556.365014
 31
0.0
  0
LINE
  5
FC
330
1D
100
AcDbEntity
  8
annotation
 62
     1
100
AcDbLine
 39
211.0
 10
212.905483
 20
556.365014
 30
0.0
 11
212.905483
 21
556.365014
 31
0.0
  0
LINE
  5
FD
330
1D
100
AcDbEntity
  8
annotation
 62
     1
100
AcDbLine
 39
211.0
 10
212.905483
 20
556.365014
 30
0.0
 11
216.931674
 21
556.72619
 31
0.0
  0
LINE
  5
FE
330
1D
100
AcDbEntity
  8
annotation
 62
     1
100
AcDbLine
 39
211.0
 10
216.931674
 20
556.72619
 30
0.0
 11
220.72018
 21
557.76712
 31
0.0
  0
LINE
  5
FF
330
1D
100
AcDbEntity
  8
annotation
 62
     1
100
AcDbLine
 39
211.0
 10
220.72018
 20
557.76712
 30
0.0
 11
224.207989
 21
559.423909
 31
0.0
  0
LINE
  5
100
330
1D
100
AcDbEntity
  8
annotation
 62
     1
100
AcDbLine
 39
211.0
 10
224.207989
 20
559.423909
 30
0.0
 11
227.332089
 21
561.63266
 31
0.0
  0
LINE
  5
101
330
1D
100
AcDbEntity
  8
annotation
 62
     1
100
AcDbLine
 39
211.0
 10
227.332089
 20
561.63266
 30
0.0
 11
230.029471
 21
564.329478
 31
0.0
  0
LINE
  5
102
330
1D
100
AcDbEntity
  8
annotation
 62
     1
100
AcDbLine
 39
211.0
 10
230.029471
 20
564.329478
 30
0.0
 11
232.23712
 21
567.450465
 31
0.0
  0
LINE
  5
103
330
1D
100
AcDbEntity
  8
annotation
 62
     1
100
AcDbLine
 39
211.0
 10
232.23712
 20
567.450465
 30
0.0
 11
233.892028
 21
570.931727
 31
0.0
  0
LINE
  5
104
330
1D
100
AcDbEntity
  8
annotation
 62
     1
100
AcDbLine
 39
211.0
 10
233.892028
 20
570.931727
 30
0.0
 11
234.93118
 21
574.709367
 31
0.0
  0
LINE
  5
105
330
1D
100
AcDbEntity
  8
annotation
 62
     1
100
AcDbLine
 39
211.0
 10
234.93118
 20
574.709367
 30
0.0
 11
235.291567
 21
578.719488
 31
0.0
  0
LINE
  5
106
330
1D
100
AcDbEntity
  8
annotation
 62
     1
100
AcDbLine
 39
211.0
 10
235.291567
 20
578.719488
 30
0.0
 11
235.291567
 21
589.928335
 31
0.0
  0
LINE
  5
107
330
1D
100
AcDbEntity
  8
annotation
 62
     1
100
AcDbLine
 39
211.0
 10
235.291567
 20
589.928335
 30
0.0
 11
235.291567
 21
589.928335
 31
0.0
  0
LINE
  5
108
330
1D
100
AcDbEntity
  8
annotation
 62
     1
100
AcDbLine
 39
211.0
 10
235.291567
 20
589.928335
 30
0.0
 11
234.93118
 21
593.936791
 31
0.0
  0
LINE
  5
109
330
1D
100
AcDbEntity
  8
annotation
 62
     1
100
AcDbLine
 39
211.0
 10
234.93118
 20
593.936791
 30
0.0
 11
233.892028
 21
597.713547
 31
0.0
  0
LINE
  5
10A
330
1D
100
AcDbEntity
  8
annotation
 62
     1
100
AcDbLine
 39
211.0
 10
233.892028
 20
597.713547
 30
0.0
 11
232.23712
 21
601.194548
 31
0.0
  0
LINE
  5
10B
330
1D
100
AcDbEntity
  8
annotation
 62
     1
100
AcDbLine
 39
211.0
 10
232.23712
 20
601.194548
 30
0.0
 11
230.029471
 21
604.315744
 31
0.0
  0
LINE
  5
10C
330
1D
100
AcDbEntity
  8
annotation
 62
     1
100
AcDbLine
 39
211.0
 10
230.029471
 20
604.315744
 30
0.0
 11
227.332089
 21
607.013081
 31
0.0
  0
LINE
  5
10D
330
1D
100
AcDbEntity
  8
annotation
 62
     1
100
AcDbLine
 39
211.0
 10
227.332089
 20
607.013081
 30
0.0
 11
224.207989
 21
609.222509
 31
0.0
  0
LINE
  5
10E
330
1D
100
AcDbEntity
  8
annotation
 62
     1
100
AcDbLine
 39
211.0
 10
224.207989
 20
609.222509
 30
0.0
 11
220.72018
 21
610.879974
 31
0.0
  0
LINE
  5
10F
330
1D
100
AcDbEntity
  8
annotation
 62
     1
100
AcDbLine
 39
211.0
 10
220.72018
 20
610.879974
 30
0.0
 11
216.931674
 21
611.921425
 31
0.0
  0
LINE
  5
110
330
1D
100
AcDbEntity
  8
annotation
 62
     1
100
AcDbLine
 39
211.0
 10
216.931674
 20
611.921425
 30
0.0
 11
212.905483
 21
612.282809
 31
0.0
  0
LINE
  5
111
330
1D
100
AcDbEntity
  8
annotation
 62
     1
100
AcDbLine
 39
211.0
 10
212.905483
 20
612.282809
 30
0.0
 11
201.696636
 21
612.282809
 31
0.0
  0
LINE
  5
112
330
1D
100
AcDbEntity
  8
annotation
 62
     1
100
AcDbLine
 39
211.0
 10
201.696636
 20
612.282809
 30
0.0
 11
212.905483
 21
612.282809
 31
0.0
  0
LINE
  5
113
330
1D
100
AcDbEntity
  8
annotation
 62
     1
100
AcDbLine
 39
211.0
 10
212.905483
 20
612.282809
 30
0.0
 11
212.905483
 21
612.282809
 31
0.0
  0
LINE
  5
114
330
1D
100
AcDbEntity
  8
annotation
 62
     1
100
AcDbLine
 39
211.0
 10
212.905483
 20
612.282809
 30
0.0
 11
216.931674
 21
612.64428
 31
0.0
  0
LINE
  5
115
330
1D
100
AcDbEntity
  8
annotation
 62
     1
100
AcDbLine
 39
211.0
 10
216.931674
 20
612.64428
 30
0.0
 11
220.72018
 21
613.686338
 31
0.0
  0
LINE
  5
116
330
1D
100
AcDbEntity
  8
annotation
 62
     1
100
AcDbLine
 39
211.0
 10
220.72018
 20
613.686338
 30
0.0
 11
224.207989
 21
615.345451
 31
0.0
  0
LINE
  5
117
330
1D
100
AcDbEntity
  8
annotation
 62
     1
100
AcDbLine
 39
211.0
 10
224.207989
 20
615.345451
 30
0.0
 11
227.332089
 21
617.558087
 31
0.0
  0
LINE
  5
118
330
1D
100
AcDbEntity
  8
annotation
 62
     1
100
AcDbLine
 39
211.0
 10
227.332089
 20
617.558087
 30
0.0
 11
230.029471
 21
620.260715
 31
0.0
  0
LINE
  5
119
330
1D
100
AcDbEntity
  8
annotation
 62
     1
100
AcDbLine
 39
211.0
 10
230.029471
 20
620.260715
 30
0.0
 11
232.23712
 21
623.389802
 31
0.0
  0
LINE
  5
11A
330
1D
100
AcDbEntity
  8
annotation
 62
     1
100
AcDbLine
 39
211.0
 10
232.23712
 20
623.389802
 30
0.0
 11
233.892028
 21
626.881817
 31
0.0
  0
LINE
  5
11B
330
1D
100
AcDbEntity
  8
annotation
 62
     1
100
AcDbLine
 39
211.0
 10
233.892028
 20
626.881817
 30
0.0
 11
234.93118
 21
630.673228
 31
0.0
  0
LINE
  5
11C
330
1D
100
AcDbEntity
  8
annotation
 62
     1
100
AcDbLine
 39
211.0
 10
234.93118
 20
630.673228
 30
0.0
 11
235.291567
 21
634.700503
 31
0.0
  0
LINE
  5
11D
330
1D
100
AcDbEntity
  8
annotation
 62
     1
100
AcDbLine
 39
211.0
 10
235.291567
 20
634.700503
 30
0.0
 11
235.291567
 21
634.700503
 31
0.0
  0
LINE
  5
11E
330
1D
100
AcDbEntity
  8
annotation
 62
     1
100
AcDbLine
 39
211.0
 10
235.291567
 20
634.700503
 30
0.0
 11
234.93118
 21
638.70896
 31
0.0
  0
LINE
  5
11F
330
1D
100
AcDbEntity
  8
annotation
 62
     1
100
AcDbLine
 39
211.0
 10
234.93118
 20
638.70896
 30
0.0
 11
233.892028
 21
642.485715
 31
0.0
  0
LINE
  5
120
330
1D
100
AcDbEntity
  8
annotation
 62
     1
100
AcDbLine
 39
211.0
 10
233.892028
 20
642.485715
 30
0.0
 11
232.23712
 21
645.966716
 31
0.0
  0
LINE
  5
121
330
1D
100
AcDbEntity
  8
annotation
 62
     1
100
AcDbLine
 39
211.0
 10
232.23712
 20
645.966716
 30
0.0
 11
230.029471
 21
649.087912
 31
0.0
  0
LINE
  5
122
330
1D
100
AcDbEntity
  8
annotation
 62
     1
100
AcDbLine
 39
211.0
 10
230.029471
 20
649.087912
 30
0.0
 11
227.332089
 21
651.78525
 31
0.0
  0
LINE
  5
123
330
1D
100
AcDbEntity
  8
annotation
 62
     1
100
AcDbLine
 39
211.0
 10
227.332089
 20
651.78525
 30
0.0
 11
224.207989
 21
653.994677
 31
0.0
  0
LINE
  5
124
330
1D
100
AcDbEntity
  8
annotation
 62
     1
100
AcDbLine
 39
211.0
 10
224.207989
 20
653.994677
 30
0.0
 11
220.72018
 21
655.652143
 31
0.0
  0
LINE
  5
125
330
1D
100
AcDbEntity
  8
annotation
 62
     1
100
AcDbLine
 39
211.0
 10
220.72018
 20
655.652143
 30
0.0
 11
216.931674
 21
656.693593
 31
0.0
  0
LINE
  5
126
330
1D
100
AcDbEntity
  8
annotation
 62
     1
100
AcDbLine
 39
211.0
 10
216.931674
 20
656.693593
 30
0.0
 11
212.905483
 21
657.054977
 31
0.0
  0
LINE
  5
127
330
1D
100
AcDbEntity
  8
annotation
 62
     1
100
AcDbLine
 39
211.0
 10
212.905483
 20
657.054977
 30
0.0
 11
190.519399
 21
657.054977
 31
0.0
  0
LINE
  5
128
330
1D
100
AcDbEntity
  8
hole
 62
     5
100
AcDbLine
 39
2.0
 10
366.381753
 20
855.906776
 30
0.0
 11
366.953253
 21
855.906776
 31
0.0
  0
LINE
  5
129
330
1D
100
AcDbEntity
  8
hole
 62
     5
100
AcDbLine
 39
2.0
 10
366.953253
 20
855.906776
 30
0.0
 11
366.953253
 21
856.478276
 31
0.0
  0
LINE
  5
12A
330
1D
100
AcDbEntity
  8
hole
 62
     5
100
AcDbLine
 39
2.0
 10
366.953253
 20
856.478276
 30
0.0
 11
366.381753
 21
856.478276
 31
0.0
  0
LINE
  5
12B
330
1D
100
AcDbEntity
  8
hole
 62
     5
100
AcDbLine
 39
2.0
 10
366.381753
 20
856.478276
 30
0.0
 11
366.381753
 21
855.906776
 31
0.0
  0
LINE
  5
12C
330
1D
100
AcDbEntity
  8
hole
 62
     5
100
AcDbLine
 39
2.0
 10
46.38175
 20
855.906776
 30
0.0
 11
46.95325
 21
855.906776
 31
0.0
  0
LINE
  5
12D
330
1D
100
AcDbEntity
  8
hole
 62
     5
100
AcDbLine
 39
2.0
 10
46.95325
 20
855.906776
 30
0.0
 11
46.95325
 21
856.478276
 31
0.0
  0
LINE
  5
12E
330
1D
100
AcDbEntity
  8
hole
 62
     5
100
AcDbLine
 39
2.0
 10
46.95325
 20
856.478276
 30
0.0
 11
46.38175
 21
856.478276
 31
0.0
  0
LINE
  5
12F
330
1D
100
AcDbEntity
  8
hole
 62
     5
100
AcDbLine
 39
2.0
 10
46.38175
 20
856.478276
 30
0.0
 11
46.38175
 21
855.906776
 31
0.0
  0
LINE
  5
130
330
1D
100
AcDbEntity
  8
boundary
 62
     5
100
AcDbLine
 39
2.0
 10
16.795322
 20
736.192522
 30
0.0
 11
17.545321
 21
736.192522
 31
0.0
  0
LINE
  5
131
330
1D
100
AcDbEntity
  8
boundary
 62
     5
100
AcDbLine
 39
2.0
 10
17.545321
 20
736.192522
 30
0.0
 11
91.795323
 21
736.192522
 31
0.0
  0
LINE
  5
132
330
1D
100
AcDbEntity
  8
boundary
 62
     5
100
AcDbLine
 39
2.0
 10
91.795323
 20
736.192522
 30
0.0
 11
91.795323
 21
756.192519
 31
0.0
  0
LINE
  5
133
330
1D
100
AcDbEntity
  8
boundary
 62
     5
100
AcDbLine
 39
2.0
 10
91.795323
 20
756.192519
 30
0.0
 11
93.779768
 21
756.192519
 31
0.0
  0
LINE
  5
134
330
1D
100
AcDbEntity
  8
boundary
 62
     5
100
AcDbLine
 39
2.0
 10
93.779768
 20
756.192519
 30
0.0
 11
290.240071
 21
756.192519
 31
0.0
  0
LINE
  5
135
330
1D
100
AcDbEntity
  8
boundary
 62
     5
100
AcDbLine
 39
2.0
 10
290.240071
 20
756.192519
 30
0.0
 11
290.240071
 21
736.192523
 31
0.0
  0
LINE
  5
136
330
1D
100
AcDbEntity
  8
boundary
 62
     5
100
AcDbLine
 39
2.0
 10
290.240071
 20
736.192523
 30
0.0
 11
364.490054
 21
736.192522
 31
0.0
  0
LINE
  5
137
330
1D
100
AcDbEntity
  8
boundary
 62
     5
100
AcDbLine
 39
2.0
 10
364.490054
 20
736.192522
 30
0.0
 11
365.240054
 21
736.192523
 31
0.0
  0
LINE
  5
138
330
1D
100
AcDbEntity
  8
boundary
 62
     5
100
AcDbLine
 39
2.0
 10
365.240054
 20
736.192523
 30
0.0
 11
365.240054
 21
756.192519
 31
0.0
  0
LINE
  5
139
330
1D
100
AcDbEntity
  8
boundary
 62
     5
100
AcDbLine
 39
2.0
 10
365.240054
 20
756.192519
 30
0.0
 11
406.253229
 21
756.192519
 31
0.0
  0
LINE
  5
13A
330
1D
100
AcDbEntity
  8
boundary
 62
     5
100
AcDbLine
 39
2.0
 10
406.253229
 20
756.192519
 30
0.0
 11
406.667504
 21
758.192517
 31
0.0
  0
LINE
  5
13B
330
1D
100
AcDbEntity
  8
boundary
 62
     5
100
AcDbLine
 39
2.0
 10
406.667504
 20
758.192517
 30
0.0
 11
406.667504
 21
956.192532
 31
0.0
  0
LINE
  5
13C
330
1D
100
AcDbEntity
  8
boundary
 62
     5
100
AcDbLine
 39
2.0
 10
406.667504
 20
956.192532
 30
0.0
 11
365.240054
 21
956.192532
 31
0.0
  0
LINE
  5
13D
330
1D
100
AcDbEntity
  8
boundary
 62
     5
100
AcDbLine
 39
2.0
 10
365.240054
 20
956.192532
 30
0.0
 11
365.240054
 21
976.192529
 31
0.0
  0
LINE
  5
13E
330
1D
100
AcDbEntity
  8
boundary
 62
     5
100
AcDbLine
 39
2.0
 10
365.240054
 20
976.192529
 30
0.0
 11
364.490055
 21
976.192529
 31
0.0
  0
LINE
  5
13F
330
1D
100
AcDbEntity
  8
boundary
 62
     5
100
AcDbLine
 39
2.0
 10
364.490055
 20
976.192529
 30
0.0
 11
290.240072
 21
976.192529
 31
0.0
  0
LINE
  5
140
330
1D
100
AcDbEntity
  8
boundary
 62
     5
100
AcDbLine
 39
2.0
 10
290.240072
 20
976.192529
 30
0.0
 11
290.240071
 21
956.192532
 31
0.0
  0
LINE
  5
141
330
1D
100
AcDbEntity
  8
boundary
 62
     5
100
AcDbLine
 39
2.0
 10
290.240071
 20
956.192532
 30
0.0
 11
288.255626
 21
956.192532
 31
0.0
  0
LINE
  5
142
330
1D
100
AcDbEntity
  8
boundary
 62
     5
100
AcDbLine
 39
2.0
 10
288.255626
 20
956.192532
 30
0.0
 11
91.795323
 21
956.192532
 31
0.0
  0
LINE
  5
143
330
1D
100
AcDbEntity
  8
boundary
 62
     5
100
AcDbLine
 39
2.0
 10
91.795323
 20
956.192532
 30
0.0
 11
91.795323
 21
976.192529
 31
0.0
  0
LINE
  5
144
330
1D
100
AcDbEntity
  8
boundary
 62
     5
100
AcDbLine
 39
2.0
 10
91.795323
 20
976.192529
 30
0.0
 11
91.045324
 21
976.192529
 31
0.0
  0
LINE
  5
145
330
1D
100
AcDbEntity
  8
boundary
 62
     5
100
AcDbLine
 39
2.0
 10
91.045324
 20
976.192529
 30
0.0
 11
16.795322
 21
976.192529
 31
0.0
  0
LINE
  5
146
330
1D
100
AcDbEntity
  8
boundary
 62
     5
100
AcDbLine
 39
2.0
 10
16.795322
 20
976.192529
 30
0.0
 11
16.795322
 21
956.192533
 31
0.0
  0
LINE
  5
147
330
1D
100
AcDbEntity
  8
boundary
 62
     5
100
AcDbLine
 39
2.0
 10
16.795322
 20
956.192533
 30
0.0
 11
6.768778
 21
956.192533
 31
0.0
  0
LINE
  5
148
330
1D
100
AcDbEntity
  8
boundary
 62
     5
100
AcDbLine
 39
2.0
 10
6.768778
 20
956.192533
 30
0.0
 11
6.6675
 21
954.192535
 31
0.0
  0
LINE
  5
149
330
1D
100
AcDbEntity
  8
boundary
 62
     5
100
AcDbLine
 39
2.0
 10
6.6675
 20
954.192535
 30
0.0
 11
6.6675
 21
756.192519
 31
0.0
  0
LINE
  5
14A
330
1D
100
AcDbEntity
  8
boundary
 62
     5
100
AcDbLine
 39
2.0
 10
6.6675
 20
756.192519
 30
0.0
 11
16.795322
 21
756.192519
 31
0.0
  0
LINE
  5
14B
330
1D
100
AcDbEntity
  8
boundary
 62
     5
100
AcDbLine
 39
2.0
 10
16.795322
 20
756.192519
 30
0.0
 11
16.795322
 21
736.192522
 31
0.0
  0
LINE
  5
14C
330
1D
100
AcDbEntity
  8
annotation
 62
     1
100
AcDbLine
 39
211.0
 10
366.667503
 20
856.192526
 30
0.0
 11
366.667503
 21
857.621276
 31
0.0
  0
LINE
  5
14D
330
1D
100
AcDbEntity
  8
annotation
 62
     1
100
AcDbLine
 39
211.0
 10
366.667503
 20
856.192526
 30
0.0
 11
366.667503
 21
857.621276
 31
0.0
  0
LINE
  5
14E
330
1D
100
AcDbEntity
  8
annotation
 62
     1
100
AcDbLine
 39
211.0
 10
366.667503
 20
857.621276
 30
0.0
 11
366.667503
 21
856.192526
 31
0.0
  0
LINE
  5
14F
330
1D
100
AcDbEntity
  8
annotation
 62
     1
100
AcDbLine
 39
211.0
 10
366.667503
 20
856.192526
 30
0.0
 11
366.667503
 21
854.763776
 31
0.0
  0
LINE
  5
150
330
1D
100
AcDbEntity
  8
annotation
 62
     1
100
AcDbLine
 39
211.0
 10
46.6675
 20
856.192526
 30
0.0
 11
48.09625
 21
856.192526
 31
0.0
  0
LINE
  5
151
330
1D
100
AcDbEntity
  8
annotation
 62
     1
100
AcDbLine
 39
211.0
 10
46.6675
 20
856.192526
 30
0.0
 11
48.09625
 21
856.192526
 31
0.0
  0
LINE
  5
152
330
1D
100
AcDbEntity
  8
annotation
 62
     1
100
AcDbLine
 39
211.0
 10
48.09625
 20
856.192526
 30
0.0
 11
46.6675
 21
856.192526
 31
0.0
  0
LINE
  5
153
330
1D
100
AcDbEntity
  8
annotation
 62
     1
100
AcDbLine
 39
211.0
 10
46.6675
 20
856.192526
 30
0.0
 11
46.6675
 21
854.763776
 31
0.0
  0
LINE
  5
154
330
1D
100
AcDbEntity
  8
annotation
 62
     1
100
AcDbLine
 39
211.0
 10
240.892829
 20
821.948232
 30
0.0
 11
184.918136
 21
821.948232
 31
0.0
  0
LINE
  5
155
330
1D
100
AcDbEntity
  8
annotation
 62
     1
100
AcDbLine
 39
211.0
 10
184.918136
 20
821.948232
 30
0.0
 11
207.272611
 21
900.346941
 31
0.0
  0
LINE
  5
156
330
1D
100
AcDbEntity
  8
annotation
 62
     1
100
AcDbLine
 39
211.0
 10
224.11433
 20
799.53686
 30
0.0
 11
224.11433
 21
844.309028
 31
0.0
  0
LINE
  5
157
330
1D
100
AcDbEntity
  8
frame
 62
     5
100
AcDbLine
 39
2.0
 10
0.0
 20
0.0
 30
0.0
 11
800.0
 21
0.0
 31
0.0
  0
LINE
  5
158
330
1D
100
AcDbEntity
  8
frame
 62
     5
100
AcDbLine
 39
2.0
 10
800.0
 20
0.0
 30
0.0
 11
800.0
 21
1000.0
 31
0.0
  0
LINE
  5
159
330
1D
100
AcDbEntity
  8
frame
 62
     5
100
AcDbLine
 39
2.0
 10
800.0
 20
1000.0
 30
0.0
 11
0.0
 21
1000.0
 31
0.0
  0
LINE
  5
15A
330
1D
100
AcDbEntity
  8
frame
 62
     5
100
AcDbLine
 39
2.0
 10
0.0
 20
1000.0
 30
0.0
 11
0.0
 21
0.0
 31
0.0
  0
LINE
  5
288
330
1D
100
AcDbEntity
  8
hole
 62
     5
100
AcDbLine
 39
2.0
 10
452.351765
 20
116.951137
 30
0.0
 11
452.923265
 21
116.951137
 31
0.0
  0
LINE
  5
289
330
1D
100
AcDbEntity
  8
hole
 62
     5
100
AcDbLine
 39
2.0
 10
452.923265
 20
116.951137
 30
0.0
 11
452.923265
 21
117.522637
 31
0.0
  0
LINE
  5
28A
330
1D
100
AcDbEntity
  8
hole
 62
     5
100
AcDbLine
 39
2.0
 10
452.923265
 20
117.522637
 30
0.0
 11
452.351765
 21
117.522637
 31
0.0
  0
LINE
  5
28B
330
1D
100
AcDbEntity
  8
hole
 62
     5
100
AcDbLine
 39
2.0
 10
452.351765
 20
117.522637
 30
0.0
 11
452.351765
 21
116.951137
 31
0.0
  0
LINE
  5
28C
330
1D
100
AcDbEntity
  8
hole
 62
     5
100
AcDbLine
 39
2.0
 10
612.351767
 20
116.951137
 30
0.0
 11
612.923267
 21
116.951137
 31
0.0
  0
LINE
  5
28D
330
1D
100
AcDbEntity
  8
hole
 62
     5
100
AcDbLine
 39
2.0
 10
612.923267
 20
116.951137
 30
0.0
 11
612.923267
 21
117.522637
 31
0.0
  0
LINE
  5
28E
330
1D
100
AcDbEntity
  8
hole
 62
     5
100
AcDbLine
 39
2.0
 10
612.923267
 20
117.522637
 30
0.0
 11
612.351767
 21
117.522637
 31
0.0
  0
LINE
  5
28F
330
1D
100
AcDbEntity
  8
hole
 62
     5
100
AcDbLine
 39
2.0
 10
612.351767
 20
117.522637
 30
0.0
 11
612.351767
 21
116.951137
 31
0.0
  0
LINE
  5
290
330
1D
100
AcDbEntity
  8
hole
 62
     5
100
AcDbLine
 39
2.0
 10
532.351766
 20
36.951136
 30
0.0
 11
532.923266
 21
36.951136
 31
0.0
  0
LINE
  5
291
330
1D
100
AcDbEntity
  8
hole
 62
     5
100
AcDbLine
 39
2.0
 10
532.923266
 20
36.951136
 30
0.0
 11
532.923266
 21
37.522636
 31
0.0
  0
LINE
  5
292
330
1D
100
AcDbEntity
  8
hole
 62
     5
100
AcDbLine
 39
2.0
 10
532.923266
 20
37.522636
 30
0.0
 11
532.351766
 21
37.522636
 31
0.0
  0
LINE
  5
293
330
1D
100
AcDbEntity
  8
hole
 62
     5
100
AcDbLine
 39
2.0
 10
532.351766
 20
37.522636
 30
0.0
 11
532.351766
 21
36.951136
 31
0.0
  0
LINE
  5
294
330
1D
100
AcDbEntity
  8
hole
 62
     5
100
AcDbLine
 39
2.0
 10
532.351766
 20
196.951137
 30
0.0
 11
532.923266
 21
196.951137
 31
0.0
  0
LINE
  5
295
330
1D
100
AcDbEntity
  8
hole
 62
     5
100
AcDbLine
 39
2.0
 10
532.923266
 20
196.951137
 30
0.0
 11
532.923266
 21
197.522637
 31
0.0
  0
LINE
  5
296
330
1D
100
AcDbEntity
  8
hole
 62
     5
100
AcDbLine
 39
2.0
 10
532.923266
 20
197.522637
 30
0.0
 11
532.351766
 21
197.522637
 31
0.0
  0
LINE
  5
297
330
1D
100
AcDbEntity
  8
hole
 62
     5
100
AcDbLine
 39
2.0
 10
532.351766
 20
197.522637
 30
0.0
 11
532.351766
 21
196.951137
 31
0.0
  0
LINE
  5
298
330
1D
100
AcDbEntity
  8
boundary
 62
     5
100
AcDbLine
 39
2.0
 10
498.618587
 20
80.676023
 30
0.0
 11
501.100494
 21
78.437193
 31
0.0
  0
LINE
  5
299
330
1D
100
AcDbEntity
  8
boundary
 62
     5
100
AcDbLine
 39
2.0
 10
501.100494
 20
78.437193
 30
0.0
 11
505.138452
 21
57.017085
 31
0.0
  0
LINE
  5
29A
330
1D
100
AcDbEntity
  8
boundary
 62
     5
100
AcDbLine
 39
2.0
 10
505.138452
 20
57.017085
 30
0.0
 11
512.637516
 21
17.236886
 31
0.0
  0
LINE
  5
29B
330
1D
100
AcDbEntity
  8
boundary
 62
     5
100
AcDbLine
 39
2.0
 10
512.637516
 20
17.236886
 30
0.0
 11
538.637516
 21
17.236886
 31
0.0
  0
LINE
  5
29C
330
1D
100
AcDbEntity
  8
boundary
 62
     5
100
AcDbLine
 39
2.0
 10
538.637516
 20
17.236886
 30
0.0
 11
552.637516
 21
17.236886
 31
0.0
  0
LINE
  5
29D
330
1D
100
AcDbEntity
  8
boundary
 62
     5
100
AcDbLine
 39
2.0
 10
552.637516
 20
17.236886
 30
0.0
 11
560.13658
 21
57.017085
 31
0.0
  0
LINE
  5
29E
330
1D
100
AcDbEntity
  8
boundary
 62
     5
100
AcDbLine
 39
2.0
 10
560.13658
 20
57.017085
 30
0.0
 11
564.174538
 21
78.437193
 31
0.0
  0
LINE
  5
29F
330
1D
100
AcDbEntity
  8
boundary
 62
     5
100
AcDbLine
 39
2.0
 10
564.174538
 20
78.437193
 30
0.0
 11
565.510949
 21
79.642717
 31
0.0
  0
LINE
  5
2A0
330
1D
100
AcDbEntity
  8
boundary
 62
     5
100
AcDbLine
 39
2.0
 10
565.510949
 20
79.642717
 30
0.0
 11
567.992856
 21
81.881547
 31
0.0
  0
LINE
  5
2A1
330
1D
100
AcDbEntity
  8
boundary
 62
     5
100
AcDbLine
 39
2.0
 10
567.992856
 20
81.881547
 30
0.0
 11
569.19838
 21
83.217958
 31
0.0
  0
LINE
  5
2A2
330
1D
100
AcDbEntity
  8
boundary
 62
     5
100
AcDbLine
 39
2.0
 10
569.19838
 20
83.217958
 30
0.0
 11
571.43721
 21
85.699864
 31
0.0
  0
LINE
  5
2A3
330
1D
100
AcDbEntity
  8
boundary
 62
     5
100
AcDbLine
 39
2.0
 10
571.43721
 20
85.699864
 30
0.0
 11
592.857318
 21
89.737822
 31
0.0
  0
LINE
  5
2A4
330
1D
100
AcDbEntity
  8
boundary
 62
     5
100
AcDbLine
 39
2.0
 10
592.857318
 20
89.737822
 30
0.0
 11
632.637517
 21
97.236887
 31
0.0
  0
LINE
  5
2A5
330
1D
100
AcDbEntity
  8
boundary
 62
     5
100
AcDbLine
 39
2.0
 10
632.637517
 20
97.236887
 30
0.0
 11
632.637517
 21
111.236887
 31
0.0
  0
LINE
  5
2A6
330
1D
100
AcDbEntity
  8
boundary
 62
     5
100
AcDbLine
 39
2.0
 10
632.637517
 20
111.236887
 30
0.0
 11
632.637517
 21
137.236886
 31
0.0
  0
LINE
  5
2A7
330
1D
100
AcDbEntity
  8
boundary
 62
     5
100
AcDbLine
 39
2.0
 10
632.637517
 20
137.236886
 30
0.0
 11
592.857318
 21
144.735951
 31
0.0
  0
LINE
  5
2A8
330
1D
100
AcDbEntity
  8
boundary
 62
     5
100
AcDbLine
 39
2.0
 10
592.857318
 20
144.735951
 30
0.0
 11
571.43721
 21
148.773909
 31
0.0
  0
LINE
  5
2A9
330
1D
100
AcDbEntity
  8
boundary
 62
     5
100
AcDbLine
 39
2.0
 10
571.43721
 20
148.773909
 30
0.0
 11
570.231686
 21
150.11032
 31
0.0
  0
LINE
  5
2AA
330
1D
100
AcDbEntity
  8
boundary
 62
     5
100
AcDbLine
 39
2.0
 10
570.231686
 20
150.11032
 30
0.0
 11
567.992856
 21
152.592226
 31
0.0
  0
LINE
  5
2AB
330
1D
100
AcDbEntity
  8
boundary
 62
     5
100
AcDbLine
 39
2.0
 10
567.992856
 20
152.592226
 30
0.0
 11
566.656445
 21
153.79775
 31
0.0
  0
LINE
  5
2AC
330
1D
100
AcDbEntity
  8
boundary
 62
     5
100
AcDbLine
 39
2.0
 10
566.656445
 20
153.79775
 30
0.0
 11
564.174538
 21
156.036581
 31
0.0
  0
LINE
  5
2AD
330
1D
100
AcDbEntity
  8
boundary
 62
     5
100
AcDbLine
 39
2.0
 10
564.174538
 20
156.036581
 30
0.0
 11
560.13658
 21
177.456688
 31
0.0
  0
LINE
  5
2AE
330
1D
100
AcDbEntity
  8
boundary
 62
     5
100
AcDbLine
 39
2.0
 10
560.13658
 20
177.456688
 30
0.0
 11
552.637516
 21
217.236887
 31
0.0
  0
LINE
  5
2AF
330
1D
100
AcDbEntity
  8
boundary
 62
     5
100
AcDbLine
 39
2.0
 10
552.637516
 20
217.236887
 30
0.0
 11
538.637516
 21
217.236887
 31
0.0
  0
LINE
  5
2B0
330
1D
100
AcDbEntity
  8
boundary
 62
     5
100
AcDbLine
 39
2.0
 10
538.637516
 20
217.236887
 30
0.0
 11
512.637516
 21
217.236887
 31
0.0
  0
LINE
  5
2B1
330
1D
100
AcDbEntity
  8
boundary
 62
     5
100
AcDbLine
 39
2.0
 10
512.637516
 20
217.236887
 30
0.0
 11
505.138452
 21
177.456689
 31
0.0
  0
LINE
  5
2B2
330
1D
100
AcDbEntity
  8
boundary
 62
     5
100
AcDbLine
 39
2.0
 10
505.138452
 20
177.456689
 30
0.0
 11
501.100494
 21
156.03658
 31
0.0
  0
LINE
  5
2B3
330
1D
100
AcDbEntity
  8
boundary
 62
     5
100
AcDbLine
 39
2.0
 10
501.100494
 20
156.03658
 30
0.0
 11
499.764082
 21
154.831056
 31
0.0
  0
LINE
  5
2B4
330
1D
100
AcDbEntity
  8
boundary
 62
     5
100
AcDbLine
 39
2.0
 10
499.764082
 20
154.831056
 30
0.0
 11
497.282176
 21
152.592226
 31
0.0
  0
LINE
  5
2B5
330
1D
100
AcDbEntity
  8
boundary
 62
     5
100
AcDbLine
 39
2.0
 10
497.282176
 20
152.592226
 30
0.0
 11
496.076652
 21
151.255815
 31
0.0
  0
LINE
  5
2B6
330
1D
100
AcDbEntity
  8
boundary
 62
     5
100
AcDbLine
 39
2.0
 10
496.076652
 20
151.255815
 30
0.0
 11
493.837822
 21
148.773909
 31
0.0
  0
LINE
  5
2B7
330
1D
100
AcDbEntity
  8
boundary
 62
     5
100
AcDbLine
 39
2.0
 10
493.837822
 20
148.773909
 30
0.0
 11
454.057623
 21
141.274844
 31
0.0
  0
LINE
  5
2B8
330
1D
100
AcDbEntity
  8
boundary
 62
     5
100
AcDbLine
 39
2.0
 10
454.057623
 20
141.274844
 30
0.0
 11
432.637515
 21
137.236886
 31
0.0
  0
LINE
  5
2B9
330
1D
100
AcDbEntity
  8
boundary
 62
     5
100
AcDbLine
 39
2.0
 10
432.637515
 20
137.236886
 30
0.0
 11
432.637515
 21
111.236887
 31
0.0
  0
LINE
  5
2BA
330
1D
100
AcDbEntity
  8
boundary
 62
     5
100
AcDbLine
 39
2.0
 10
432.637515
 20
111.236887
 30
0.0
 11
432.637515
 21
97.236887
 31
0.0
  0
LINE
  5
2BB
330
1D
100
AcDbEntity
  8
boundary
 62
     5
100
AcDbLine
 39
2.0
 10
432.637515
 20
97.236887
 30
0.0
 11
472.417714
 21
89.737822
 31
0.0
  0
LINE
  5
2BC
330
1D
100
AcDbEntity
  8
boundary
 62
     5
100
AcDbLine
 39
2.0
 10
472.417714
 20
89.737822
 30
0.0
 11
493.837822
 21
85.699864
 31
0.0
  0
LINE
  5
2BD
330
1D
100
AcDbEntity
  8
boundary
 62
     5
100
AcDbLine
 39
2.0
 10
493.837822
 20
85.699864
 30
0.0
 11
495.043346
 21
84.363453
 31
0.0
  0
LINE
  5
2BE
330
1D
100
AcDbEntity
  8
boundary
 62
     5
100
AcDbLine
 39
2.0
 10
495.043346
 20
84.363453
 30
0.0
 11
497.282177
 21
81.881547
 31
0.0
  0
LINE
  5
2BF
330
1D
100
AcDbEntity
  8
boundary
 62
     5
100
AcDbLine
 39
2.0
 10
497.282177
 20
81.881547
 30
0.0
 11
498.618587
 21
80.676023
 31
0.0
  0
LINE
  5
2C0
330
1D
100
AcDbEntity
  8
annotation
 62
     1
100
AcDbLine
 39
211.0
 10
612.637517
 20
117.236887
 30
0.0
 11
612.637517
 21
118.665637
 31
0.0
  0
LINE
  5
2C1
330
1D
100
AcDbEntity
  8
annotation
 62
     1
100
AcDbLine
 39
211.0
 10
612.637517
 20
117.236887
 30
0.0
 11
612.637517
 21
118.665637
 31
0.0
  0
LINE
  5
2C2
330
1D
100
AcDbEntity
  8
annotation
 62
     1
100
AcDbLine
 39
211.0
 10
612.637517
 20
118.665637
 30
0.0
 11
612.637517
 21
117.236887
 31
0.0
  0
LINE
  5
2C3
330
1D
100
AcDbEntity
  8
annotation
 62
     1
100
AcDbLine
 39
211.0
 10
612.637517
 20
117.236887
 30
0.0
 11
612.637517
 21
115.808137
 31
0.0
  0
LINE
  5
2C4
330
1D
100
AcDbEntity
  8
annotation
 62
     1
100
AcDbLine
 39
211.0
 10
452.637515
 20
117.236887
 30
0.0
 11
454.066265
 21
117.236887
 31
0.0
  0
LINE
  5
2C5
330
1D
100
AcDbEntity
  8
annotation
 62
     1
100
AcDbLine
 39
211.0
 10
452.637515
 20
117.236887
 30
0.0
 11
454.066265
 21
117.236887
 31
0.0
  0
LINE
  5
2C6
330
1D
100
AcDbEntity
  8
annotation
 62
     1
100
AcDbLine
 39
211.0
 10
454.066265
 20
117.236887
 30
0.0
 11
452.637515
 21
117.236887
 31
0.0
  0
LINE
  5
2C7
330
1D
100
AcDbEntity
  8
annotation
 62
     1
100
AcDbLine
 39
211.0
 10
452.637515
 20
117.236887
 30
0.0
 11
452.637515
 21
115.808137
 31
0.0
  0
LINE
  5
2C8
330
1D
100
AcDbEntity
  8
annotation
 62
     1
100
AcDbLine
 39
211.0
 10
532.637516
 20
197.236887
 30
0.0
 11
532.637516
 21
198.665637
 31
0.0
  0
LINE
  5
2C9
330
1D
100
AcDbEntity
  8
annotation
 62
     1
100
AcDbLine
 39
211.0
 10
532.637516
 20
37.236886
 30
0.0
 11
534.066266
 21
37.236886
 31
0.0
  0
LINE
  5
2CA
330
1D
100
AcDbEntity
  8
annotation
 62
     1
100
AcDbLine
 39
211.0
 10
551.748373
 20
104.365817
 30
0.0
 11
519.762834
 21
104.365817
 31
0.0
  0
LINE
  5
2CB
330
1D
100
AcDbEntity
  8
annotation
 62
     1
100
AcDbLine
 39
211.0
 10
519.762834
 20
104.365817
 30
0.0
 11
532.536819
 21
149.165079
 31
0.0
  0
LINE
  5
2CC
330
1D
100
AcDbEntity
  8
annotation
 62
     1
100
AcDbLine
 39
211.0
 10
542.160659
 20
91.559319
 30
0.0
 11
542.160659
 21
117.143415
 31
0.0
  0
LINE
  5
2CD
330
1D
100
AcDbEntity
  8
hole
 62
     5
100
AcDbLine
 39
2.0
 10
532.351766
 20
240.126138
 30
0.0
 11
532.923266
 21
240.126138
 31
0.0
  0
LINE
  5
2CE
330
1D
100
AcDbEntity
  8
hole
 62
     5
100
AcDbLine
 39
2.0
 10
532.923266
 20
240.126138
 30
0.0
 11
532.923266
 21
240.697638
 31
0.0
  0
LINE
  5
2CF
330
1D
100
AcDbEntity
  8
hole
 62
     5
100
AcDbLine
 39
2.0
 10
532.923266
 20
240.697638
 30
0.0
 11
532.351766
 21
240.697638
 31
0.0
  0
LINE
  5
2D0
330
1D
100
AcDbEntity
  8
hole
 62
     5
100
AcDbLine
 39
2.0
 10
532.351766
 20
240.697638
 30
0.0
 11
532.351766
 21
240.126138
 31
0.0
  0
LINE
  5
2D1
330
1D
100
AcDbEntity
  8
hole
 62
     5
100
AcDbLine
 39
2.0
 10
532.351766
 20
400.126139
 30
0.0
 11
532.923266
 21
400.126139
 31
0.0
  0
LINE
  5
2D2
330
1D
100
AcDbEntity
  8
hole
 62
     5
100
AcDbLine
 39
2.0
 10
532.923266
 20
400.126139
 30
0.0
 11
532.923266
 21
400.697639
 31
0.0
  0
LINE
  5
2D3
330
1D
100
AcDbEntity
  8
hole
 62
     5
100
AcDbLine
 39
2.0
 10
532.923266
 20
400.697639
 30
0.0
 11
532.351766
 21
400.697639
 31
0.0
  0
LINE
  5
2D4
330
1D
100
AcDbEntity
  8
hole
 62
     5
100
AcDbLine
 39
2.0
 10
532.351766
 20
400.697639
 30
0.0
 11
532.351766
 21
400.126139
 31
0.0
  0
LINE
  5
2D5
330
1D
100
AcDbEntity
  8
boundary
 62
     5
100
AcDbLine
 39
2.0
 10
497.854924
 20
284.539896
 30
0.0
 11
501.100494
 21
281.612194
 31
0.0
  0
LINE
  5
2D6
330
1D
100
AcDbEntity
  8
boundary
 62
     5
100
AcDbLine
 39
2.0
 10
501.100494
 20
281.612194
 30
0.0
 11
502.831047
 21
272.432147
 31
0.0
  0
LINE
  5
2D7
330
1D
100
AcDbEntity
  8
boundary
 62
     5
100
AcDbLine
 39
2.0
 10
502.831047
 20
272.432147
 30
0.0
 11
512.637516
 21
220.411888
 31
0.0
  0
LINE
  5
2D8
330
1D
100
AcDbEntity
  8
boundary
 62
     5
100
AcDbLine
 39
2.0
 10
512.637516
 20
220.411888
 30
0.0
 11
546.637515
 21
220.411887
 31
0.0
  0
LINE
  5
2D9
330
1D
100
AcDbEntity
  8
boundary
 62
     5
100
AcDbLine
 39
2.0
 10
546.637515
 20
220.411887
 30
0.0
 11
552.637516
 21
220.411887
 31
0.0
  0
LINE
  5
2DA
330
1D
100
AcDbEntity
  8
boundary
 62
     5
100
AcDbLine
 39
2.0
 10
552.637516
 20
220.411887
 30
0.0
 11
562.443985
 21
272.432147
 31
0.0
  0
LINE
  5
2DB
330
1D
100
AcDbEntity
  8
boundary
 62
     5
100
AcDbLine
 39
2.0
 10
562.443985
 20
272.432147
 30
0.0
 11
564.174538
 21
281.612194
 31
0.0
  0
LINE
  5
2DC
330
1D
100
AcDbEntity
  8
boundary
 62
     5
100
AcDbLine
 39
2.0
 10
564.174538
 20
281.612194
 30
0.0
 11
564.747286
 21
282.128848
 31
0.0
  0
LINE
  5
2DD
330
1D
100
AcDbEntity
  8
boundary
 62
     5
100
AcDbLine
 39
2.0
 10
564.747286
 20
282.128848
 30
0.0
 11
567.992856
 21
285.056549
 31
0.0
  0
LINE
  5
2DE
330
1D
100
AcDbEntity
  8
boundary
 62
     5
100
AcDbLine
 39
2.0
 10
567.992856
 20
285.056549
 30
0.0
 11
568.509509
 21
285.629297
 31
0.0
  0
LINE
  5
2DF
330
1D
100
AcDbEntity
  8
boundary
 62
     5
100
AcDbLine
 39
2.0
 10
568.509509
 20
285.629297
 30
0.0
 11
571.43721
 21
288.874866
 31
0.0
  0
LINE
  5
2E0
330
1D
100
AcDbEntity
  8
boundary
 62
     5
100
AcDbLine
 39
2.0
 10
571.43721
 20
288.874866
 30
0.0
 11
580.617257
 21
290.60542
 31
0.0
  0
LINE
  5
2E1
330
1D
100
AcDbEntity
  8
boundary
 62
     5
100
AcDbLine
 39
2.0
 10
580.617257
 20
290.60542
 30
0.0
 11
632.637517
 21
300.411889
 31
0.0
  0
LINE
  5
2E2
330
1D
100
AcDbEntity
  8
boundary
 62
     5
100
AcDbLine
 39
2.0
 10
632.637517
 20
300.411889
 30
0.0
 11
632.637517
 21
306.41189
 31
0.0
  0
LINE
  5
2E3
330
1D
100
AcDbEntity
  8
boundary
 62
     5
100
AcDbLine
 39
2.0
 10
632.637517
 20
306.41189
 30
0.0
 11
632.637517
 21
340.411888
 31
0.0
  0
LINE
  5
2E4
330
1D
100
AcDbEntity
  8
boundary
 62
     5
100
AcDbLine
 39
2.0
 10
632.637517
 20
340.411888
 30
0.0
 11
580.617257
 21
350.218357
 31
0.0
  0
LINE
  5
2E5
330
1D
100
AcDbEntity
  8
boundary
 62
     5
100
AcDbLine
 39
2.0
 10
580.617257
 20
350.218357
 30
0.0
 11
571.43721
 21
351.948911
 31
0.0
  0
LINE
  5
2E6
330
1D
100
AcDbEntity
  8
boundary
 62
     5
100
AcDbLine
 39
2.0
 10
571.43721
 20
351.948911
 30
0.0
 11
570.920557
 21
352.521658
 31
0.0
  0
LINE
  5
2E7
330
1D
100
AcDbEntity
  8
boundary
 62
     5
100
AcDbLine
 39
2.0
 10
570.920557
 20
352.521658
 30
0.0
 11
567.992856
 21
355.767228
 31
0.0
  0
LINE
  5
2E8
330
1D
100
AcDbEntity
  8
boundary
 62
     5
100
AcDbLine
 39
2.0
 10
567.992856
 20
355.767228
 30
0.0
 11
567.420108
 21
356.283881
 31
0.0
  0
LINE
  5
2E9
330
1D
100
AcDbEntity
  8
boundary
 62
     5
100
AcDbLine
 39
2.0
 10
567.420108
 20
356.283881
 30
0.0
 11
564.174538
 21
359.211582
 31
0.0
  0
LINE
  5
2EA
330
1D
100
AcDbEntity
  8
boundary
 62
     5
100
AcDbLine
 39
2.0
 10
564.174538
 20
359.211582
 30
0.0
 11
562.443985
 21
368.391629
 31
0.0
  0
LINE
  5
2EB
330
1D
100
AcDbEntity
  8
boundary
 62
     5
100
AcDbLine
 39
2.0
 10
562.443985
 20
368.391629
 30
0.0
 11
552.637516
 21
420.411889
 31
0.0
  0
LINE
  5
2EC
330
1D
100
AcDbEntity
  8
boundary
 62
     5
100
AcDbLine
 39
2.0
 10
552.637516
 20
420.411889
 30
0.0
 11
546.637515
 21
420.411889
 31
0.0
  0
LINE
  5
2ED
330
1D
100
AcDbEntity
  8
boundary
 62
     5
100
AcDbLine
 39
2.0
 10
546.637515
 20
420.411889
 30
0.0
 11
512.637516
 21
420.411889
 31
0.0
  0
LINE
  5
2EE
330
1D
100
AcDbEntity
  8
boundary
 62
     5
100
AcDbLine
 39
2.0
 10
512.637516
 20
420.411889
 30
0.0
 11
502.831047
 21
368.39163
 31
0.0
  0
LINE
  5
2EF
330
1D
100
AcDbEntity
  8
boundary
 62
     5
100
AcDbLine
 39
2.0
 10
502.831047
 20
368.39163
 30
0.0
 11
501.100494
 21
359.211582
 31
0.0
  0
LINE
  5
2F0
330
1D
100
AcDbEntity
  8
boundary
 62
     5
100
AcDbLine
 39
2.0
 10
501.100494
 20
359.211582
 30
0.0
 11
500.527746
 21
358.694929
 31
0.0
  0
LINE
  5
2F1
330
1D
100
AcDbEntity
  8
boundary
 62
     5
100
AcDbLine
 39
2.0
 10
500.527746
 20
358.694929
 30
0.0
 11
497.282176
 21
355.767228
 31
0.0
  0
LINE
  5
2F2
330
1D
100
AcDbEntity
  8
boundary
 62
     5
100
AcDbLine
 39
2.0
 10
497.282176
 20
355.767228
 30
0.0
 11
496.765523
 21
355.19448
 31
0.0
  0
LINE
  5
2F3
330
1D
100
AcDbEntity
  8
boundary
 62
     5
100
AcDbLine
 39
2.0
 10
496.765523
 20
355.19448
 30
0.0
 11
493.837822
 21
351.948911
 31
0.0
  0
LINE
  5
2F4
330
1D
100
AcDbEntity
  8
boundary
 62
     5
100
AcDbLine
 39
2.0
 10
493.837822
 20
351.948911
 30
0.0
 11
441.817562
 21
342.142441
 31
0.0
  0
LINE
  5
2F5
330
1D
100
AcDbEntity
  8
boundary
 62
     5
100
AcDbLine
 39
2.0
 10
441.817562
 20
342.142441
 30
0.0
 11
432.637515
 21
340.411888
 31
0.0
  0
LINE
  5
2F6
330
1D
100
AcDbEntity
  8
boundary
 62
     5
100
AcDbLine
 39
2.0
 10
432.637515
 20
340.411888
 30
0.0
 11
432.637515
 21
306.411889
 31
0.0
  0
LINE
  5
2F7
330
1D
100
AcDbEntity
  8
boundary
 62
     5
100
AcDbLine
 39
2.0
 10
432.637515
 20
306.411889
 30
0.0
 11
432.637515
 21
300.411889
 31
0.0
  0
LINE
  5
2F8
330
1D
100
AcDbEntity
  8
boundary
 62
     5
100
AcDbLine
 39
2.0
 10
432.637515
 20
300.411889
 30
0.0
 11
484.657775
 21
290.60542
 31
0.0
  0
LINE
  5
2F9
330
1D
100
AcDbEntity
  8
boundary
 62
     5
100
AcDbLine
 39
2.0
 10
484.657775
 20
290.60542
 30
0.0
 11
493.837822
 21
288.874866
 31
0.0
  0
LINE
  5
2FA
330
1D
100
AcDbEntity
  8
boundary
 62
     5
100
AcDbLine
 39
2.0
 10
493.837822
 20
288.874866
 30
0.0
 11
494.354475
 21
288.302118
 31
0.0
  0
LINE
  5
2FB
330
1D
100
AcDbEntity
  8
boundary
 62
     5
100
AcDbLine
 39
2.0
 10
494.354475
 20
288.302118
 30
0.0
 11
497.282177
 21
285.056549
 31
0.0
  0
LINE
  5
2FC
330
1D
100
AcDbEntity
  8
boundary
 62
     5
100
AcDbLine
 39
2.0
 10
497.282177
 20
285.056549
 30
0.0
 11
497.854924
 21
284.539896
 31
0.0
  0
LINE
  5
2FD
330
1D
100
AcDbEntity
  8
annotation
 62
     1
100
AcDbLine
 39
211.0
 10
532.637516
 20
400.411889
 30
0.0
 11
532.637516
 21
401.840639
 31
0.0
  0
LINE
  5
2FE
330
1D
100
AcDbEntity
  8
annotation
 62
     1
100
AcDbLine
 39
211.0
 10
532.637516
 20
240.411888
 30
0.0
 11
534.066266
 21
240.411888
 31
0.0
  0
LINE
  5
2FF
330
1D
100
AcDbEntity
  8
annotation
 62
     1
100
AcDbLine
 39
211.0
 10
519.763737
 20
287.5336
 30
0.0
 11
535.753797
 21
287.5336
 31
0.0
  0
LINE
  5
300
330
1D
100
AcDbEntity
  8
annotation
 62
     1
100
AcDbLine
 39
211.0
 10
535.753797
 20
287.5336
 30
0.0
 11
535.753797
 21
287.5336
 31
0.0
  0
LINE
  5
301
330
1D
100
AcDbEntity
  8
annotation
 62
     1
100
AcDbLine
 39
211.0
 10
535.753797
 20
287.5336
 30
0.0
 11
538.623701
 21
287.791639
 31
0.0
  0
LINE
  5
302
330
1D
100
AcDbEntity
  8
annotation
 62
     1
100
AcDbLine
 39
211.0
 10
538.623701
 20
287.791639
 30
0.0
 11
541.326618
 21
288.535551
 31
0.0
  0
LINE
  5
303
330
1D
100
AcDbEntity
  8
annotation
 62
     1
100
AcDbLine
 39
211.0
 10
541.326618
 20
288.535551
 30
0.0
 11
543.816981
 21
289.720031
 31
0.0
  0
LINE
  5
304
330
1D
100
AcDbEntity
  8
annotation
 62
     1
100
AcDbLine
 39
211.0
 10
543.816981
 20
289.720031
 30
0.0
 11
546.049225
 21
291.299773
 31
0.0
  0
LINE
  5
305
330
1D
100
AcDbEntity
  8
annotation
 62
     1
100
AcDbLine
 39
211.0
 10
546.049225
 20
291.299773
 30
0.0
 11
547.977784
 21
293.229472
 31
0.0
  0
LINE
  5
306
330
1D
100
AcDbEntity
  8
annotation
 62
     1
100
AcDbLine
 39
211.0
 10
547.977784
 20
293.229472
 30
0.0
 11
549.557092
 21
295.463822
 31
0.0
  0
LINE
  5
307
330
1D
100
AcDbEntity
  8
annotation
 62
     1
100
AcDbLine
 39
211.0
 10
549.557092
 20
295.463822
 30
0.0
 11
550.741584
 21
297.957518
 31
0.0
  0
LINE
  5
308
330
1D
100
AcDbEntity
  8
annotation
 62
     1
100
AcDbLine
 39
211.0
 10
550.741584
 20
297.957518
 30
0.0
 11
551.485695
 21
300.665253
 31
0.0
  0
LINE
  5
309
330
1D
100
AcDbEntity
  8
annotation
 62
     1
100
AcDbLine
 39
211.0
 10
551.485695
 20
300.665253
 30
0.0
 11
551.743857
 21
303.541723
 31
0.0
  0
LINE
  5
30A
330
1D
100
AcDbEntity
  8
annotation
 62
     1
100
AcDbLine
 39
211.0
 10
551.743857
 20
303.541723
 30
0.0
 11
551.743857
 21
311.507401
 31
0.0
  0
LINE
  5
30B
330
1D
100
AcDbEntity
  8
annotation
 62
     1
100
AcDbLine
 39
211.0
 10
551.743857
 20
311.507401
 30
0.0
 11
551.743857
 21
311.507401
 31
0.0
  0
LINE
  5
30C
330
1D
100
AcDbEntity
  8
annotation
 62
     1
100
AcDbLine
 39
211.0
 10
551.743857
 20
311.507401
 30
0.0
 11
551.485843
 21
314.382478
 31
0.0
  0
LINE
  5
30D
330
1D
100
AcDbEntity
  8
annotation
 62
     1
100
AcDbLine
 39
211.0
 10
551.485843
 20
314.382478
 30
0.0
 11
550.742105
 21
317.086478
 31
0.0
  0
LINE
  5
30E
330
1D
100
AcDbEntity
  8
annotation
 62
     1
100
AcDbLine
 39
211.0
 10
550.742105
 20
317.086478
 30
0.0
 11
549.558096
 21
319.574766
 31
0.0
  0
LINE
  5
30F
330
1D
100
AcDbEntity
  8
annotation
 62
     1
100
AcDbLine
 39
211.0
 10
549.558096
 20
319.574766
 30
0.0
 11
547.97927
 21
321.802705
 31
0.0
  0
LINE
  5
310
330
1D
100
AcDbEntity
  8
annotation
 62
     1
100
AcDbLine
 39
211.0
 10
547.97927
 20
321.802705
 30
0.0
 11
546.051083
 21
323.725658
 31
0.0
  0
LINE
  5
311
330
1D
100
AcDbEntity
  8
annotation
 62
     1
100
AcDbLine
 39
211.0
 10
546.051083
 20
323.725658
 30
0.0
 11
543.818988
 21
325.298989
 31
0.0
  0
LINE
  5
312
330
1D
100
AcDbEntity
  8
annotation
 62
     1
100
AcDbLine
 39
211.0
 10
543.818988
 20
325.298989
 30
0.0
 11
541.328439
 21
326.478061
 31
0.0
  0
LINE
  5
313
330
1D
100
AcDbEntity
  8
annotation
 62
     1
100
AcDbLine
 39
211.0
 10
541.328439
 20
326.478061
 30
0.0
 11
538.62489
 21
327.218238
 31
0.0
  0
LINE
  5
314
330
1D
100
AcDbEntity
  8
annotation
 62
     1
100
AcDbLine
 39
211.0
 10
538.62489
 20
327.218238
 30
0.0
 11
535.753797
 21
327.474883
 31
0.0
  0
LINE
  5
315
330
1D
100
AcDbEntity
  8
annotation
 62
     1
100
AcDbLine
 39
211.0
 10
535.753797
 20
327.474883
 30
0.0
 11
519.763737
 21
327.474883
 31
0.0
  0
LINE
  5
316
330
1D
100
AcDbEntity
  8
annotation
 62
     1
100
AcDbLine
 39
211.0
 10
519.763737
 20
327.474883
 30
0.0
 11
519.763737
 21
359.540801
 31
0.0
  0
LINE
  5
317
330
1D
100
AcDbEntity
  8
annotation
 62
     1
100
AcDbLine
 39
211.0
 10
519.763737
 20
359.540801
 30
0.0
 11
551.743857
 21
359.540801
 31
0.0
  0
LINE
  5
33B
330
1D
100
AcDbEntity
  8
hole
 62
     5
100
AcDbLine
 39
2.0
 10
602.966395
 20
207.682842
 30
0.0
 11
603.537895
 21
207.682842
 31
0.0
  0
LINE
  5
33C
330
1D
100
AcDbEntity
  8
hole
 62
     5
100
AcDbLine
 39
2.0
 10
603.537895
 20
207.682842
 30
0.0
 11
603.537895
 21
208.254342
 31
0.0
  0
LINE
  5
33D
330
1D
100
AcDbEntity
  8
hole
 62
     5
100
AcDbLine
 39
2.0
 10
603.537895
 20
208.254342
 30
0.0
 11
602.966395
 21
208.254342
 31
0.0
  0
LINE
  5
33E
330
1D
100
AcDbEntity
  8
hole
 62
     5
100
AcDbLine
 39
2.0
 10
602.966395
 20
208.254342
 30
0.0
 11
602.966395
 21
207.682842
 31
0.0
  0
LINE
  5
33F
330
1D
100
AcDbEntity
  8
hole
 62
     5
100
AcDbLine
 39
2.0
 10
762.966397
 20
207.682842
 30
0.0
 11
763.537897
 21
207.682842
 31
0.0
  0
LINE
  5
340
330
1D
100
AcDbEntity
  8
hole
 62
     5
100
AcDbLine
 39
2.0
 10
763.537897
 20
207.682842
 30
0.0
 11
763.537897
 21
208.254342
 31
0.0
  0
LINE
  5
341
330
1D
100
AcDbEntity
  8
hole
 62
     5
100
AcDbLine
 39
2.0
 10
763.537897
 20
208.254342
 30
0.0
 11
762.966397
 21
208.254342
 31
0.0
  0
LINE
  5
342
330
1D
100
AcDbEntity
  8
hole
 62
     5
100
AcDbLine
 39
2.0
 10
762.966397
 20
208.254342
 30
0.0
 11
762.966397
 21
207.682842
 31
0.0
  0
LINE
  5
343
330
1D
100
AcDbEntity
  8
hole
 62
     5
100
AcDbLine
 39
2.0
 10
682.966396
 20
127.682841
 30
0.0
 11
683.537896
 21
127.682841
 31
0.0
  0
LINE
  5
344
330
1D
100
AcDbEntity
  8
hole
 62
     5
100
AcDbLine
 39
2.0
 10
683.537896
 20
127.682841
 30
0.0
 11
683.537896
 21
128.254341
 31
0.0
  0
LINE
  5
345
330
1D
100
AcDbEntity
  8
hole
 62
     5
100
AcDbLine
 39
2.0
 10
683.537896
 20
128.254341
 30
0.0
 11
682.966396
 21
128.254341
 31
0.0
  0
LINE
  5
346
330
1D
100
AcDbEntity
  8
hole
 62
     5
100
AcDbLine
 39
2.0
 10
682.966396
 20
128.254341
 30
0.0
 11
682.966396
 21
127.682841
 31
0.0
  0
LINE
  5
347
330
1D
100
AcDbEntity
  8
hole
 62
     5
100
AcDbLine
 39
2.0
 10
682.966396
 20
287.682842
 30
0.0
 11
683.537896
 21
287.682842
 31
0.0
  0
LINE
  5
348
330
1D
100
AcDbEntity
  8
hole
 62
     5
100
AcDbLine
 39
2.0
 10
683.537896
 20
287.682842
 30
0.0
 11
683.537896
 21
288.254342
 31
0.0
  0
LINE
  5
349
330
1D
100
AcDbEntity
  8
hole
 62
     5
100
AcDbLine
 39
2.0
 10
683.537896
 20
288.254342
 30
0.0
 11
682.966396
 21
288.254342
 31
0.0
  0
LINE
  5
34A
330
1D
100
AcDbEntity
  8
hole
 62
     5
100
AcDbLine
 39
2.0
 10
682.966396
 20
288.254342
 30
0.0
 11
682.966396
 21
287.682842
 31
0.0
  0
LINE
  5
34B
330
1D
100
AcDbEntity
  8
boundary
 62
     5
100
AcDbLine
 39
2.0
 10
649.233217
 20
171.407728
 30
0.0
 11
651.715124
 21
169.168898
 31
0.0
  0
LINE
  5
34C
330
1D
100
AcDbEntity
  8
boundary
 62
     5
100
AcDbLine
 39
2.0
 10
651.715124
 20
169.168898
 30
0.0
 11
655.753082
 21
147.74879
 31
0.0
  0
LINE
  5
34D
330
1D
100
AcDbEntity
  8
boundary
 62
     5
100
AcDbLine
 39
2.0
 10
655.753082
 20
147.74879
 30
0.0
 11
663.252146
 21
107.968591
 31
0.0
  0
LINE
  5
34E
330
1D
100
AcDbEntity
  8
boundary
 62
     5
100
AcDbLine
 39
2.0
 10
663.252146
 20
107.968591
 30
0.0
 11
689.252146
 21
107.968591
 31
0.0
  0
LINE
  5
34F
330
1D
100
AcDbEntity
  8
boundary
 62
     5
100
AcDbLine
 39
2.0
 10
689.252146
 20
107.968591
 30
0.0
 11
703.252146
 21
107.968591
 31
0.0
  0
LINE
  5
350
330
1D
100
AcDbEntity
  8
boundary
 62
     5
100
AcDbLine
 39
2.0
 10
703.252146
 20
107.968591
 30
0.0
 11
710.75121
 21
147.74879
 31
0.0
  0
LINE
  5
351
330
1D
100
AcDbEntity
  8
boundary
 62
     5
100
AcDbLine
 39
2.0
 10
710.75121
 20
147.74879
 30
0.0
 11
714.789168
 21
169.168898
 31
0.0
  0
LINE
  5
352
330
1D
100
AcDbEntity
  8
boundary
 62
     5
100
AcDbLine
 39
2.0
 10
714.789168
 20
169.168898
 30
0.0
 11
716.125579
 21
170.374422
 31
0.0
  0
LINE
  5
353
330
1D
100
AcDbEntity
  8
boundary
 62
     5
100
AcDbLine
 39
2.0
 10
716.125579
 20
170.374422
 30
0.0
 11
718.607486
 21
172.613252
 31
0.0
  0
LINE
  5
354
330
1D
100
AcDbEntity
  8
boundary
 62
     5
100
AcDbLine
 39
2.0
 10
718.607486
 20
172.613252
 30
0.0
 11
719.81301
 21
173.949663
 31
0.0
  0
LINE
  5
355
330
1D
100
AcDbEntity
  8
boundary
 62
     5
100
AcDbLine
 39
2.0
 10
719.81301
 20
173.949663
 30
0.0
 11
722.05184
 21
176.431569
 31
0.0
  0
LINE
  5
356
330
1D
100
AcDbEntity
  8
boundary
 62
     5
100
AcDbLine
 39
2.0
 10
722.05184
 20
176.431569
 30
0.0
 11
743.471948
 21
180.469527
 31
0.0
  0
LINE
  5
357
330
1D
100
AcDbEntity
  8
boundary
 62
     5
100
AcDbLine
 39
2.0
 10
743.471948
 20
180.469527
 30
0.0
 11
783.252147
 21
187.968592
 31
0.0
  0
LINE
  5
358
330
1D
100
AcDbEntity
  8
boundary
 62
     5
100
AcDbLine
 39
2.0
 10
783.252147
 20
187.968592
 30
0.0
 11
783.252147
 21
201.968592
 31
0.0
  0
LINE
  5
359
330
1D
100
AcDbEntity
  8
boundary
 62
     5
100
AcDbLine
 39
2.0
 10
783.252147
 20
201.968592
 30
0.0
 11
783.252147
 21
227.968591
 31
0.0
  0
LINE
  5
35A
330
1D
100
AcDbEntity
  8
boundary
 62
     5
100
AcDbLine
 39
2.0
 10
783.252147
 20
227.968591
 30
0.0
 11
743.471948
 21
235.467656
 31
0.0
  0
LINE
  5
35B
330
1D
100
AcDbEntity
  8
boundary
 62
     5
100
AcDbLine
 39
2.0
 10
743.471948
 20
235.467656
 30
0.0
 11
722.05184
 21
239.505614
 31
0.0
  0
LINE
  5
35C
330
1D
100
AcDbEntity
  8
boundary
 62
     5
100
AcDbLine
 39
2.0
 10
722.05184
 20
239.505614
 30
0.0
 11
720.846316
 21
240.842025
 31
0.0
  0
LINE
  5
35D
330
1D
100
AcDbEntity
  8
boundary
 62
     5
100
AcDbLine
 39
2.0
 10
720.846316
 20
240.842025
 30
0.0
 11
718.607486
 21
243.323931
 31
0.0
  0
LINE
  5
35E
330
1D
100
AcDbEntity
  8
boundary
 62
     5
100
AcDbLine
 39
2.0
 10
718.607486
 20
243.323931
 30
0.0
 11
717.271075
 21
244.529455
 31
0.0
  0
LINE
  5
35F
330
1D
100
AcDbEntity
  8
boundary
 62
     5
100
AcDbLine
 39
2.0
 10
717.271075
 20
244.529455
 30
0.0
 11
714.789168
 21
246.768286
 31
0.0
  0
LINE
  5
360
330
1D
100
AcDbEntity
  8
boundary
 62
     5
100
AcDbLine
 39
2.0
 10
714.789168
 20
246.768286
 30
0.0
 11
710.75121
 21
268.188393
 31
0.0
  0
LINE
  5
361
330
1D
100
AcDbEntity
  8
boundary
 62
     5
100
AcDbLine
 39
2.0
 10
710.75121
 20
268.188393
 30
0.0
 11
703.252146
 21
307.968592
 31
0.0
  0
LINE
  5
362
330
1D
100
AcDbEntity
  8
boundary
 62
     5
100
AcDbLine
 39
2.0
 10
703.252146
 20
307.968592
 30
0.0
 11
689.252146
 21
307.968592
 31
0.0
  0
LINE
  5
363
330
1D
100
AcDbEntity
  8
boundary
 62
     5
100
AcDbLine
 39
2.0
 10
689.252146
 20
307.968592
 30
0.0
 11
663.252146
 21
307.968592
 31
0.0
  0
LINE
  5
364
330
1D
100
AcDbEntity
  8
boundary
 62
     5
100
AcDbLine
 39
2.0
 10
663.252146
 20
307.968592
 30
0.0
 11
655.753082
 21
268.188394
 31
0.0
  0
LINE
  5
365
330
1D
100
AcDbEntity
  8
boundary
 62
     5
100
AcDbLine
 39
2.0
 10
655.753082
 20
268.188394
 30
0.0
 11
651.715124
 21
246.768285
 31
0.0
  0
LINE
  5
366
330
1D
100
AcDbEntity
  8
boundary
 62
     5
100
AcDbLine
 39
2.0
 10
651.715124
 20
246.768285
 30
0.0
 11
650.378712
 21
245.562761
 31
0.0
  0
LINE
  5
367
330
1D
100
AcDbEntity
  8
boundary
 62
     5
100
AcDbLine
 39
2.0
 10
650.378712
 20
245.562761
 30
0.0
 11
647.896806
 21
243.323931
 31
0.0
  0
LINE
  5
368
330
1D
100
AcDbEntity
  8
boundary
 62
     5
100
AcDbLine
 39
2.0
 10
647.896806
 20
243.323931
 30
0.0
 11
646.691282
 21
241.98752
 31
0.0
  0
LINE
  5
369
330
1D
100
AcDbEntity
  8
boundary
 62
     5
100
AcDbLine
 39
2.0
 10
646.691282
 20
241.98752
 30
0.0
 11
644.452452
 21
239.505614
 31
0.0
  0
LINE
  5
36A
330
1D
100
AcDbEntity
  8
boundary
 62
     5
100
AcDbLine
 39
2.0
 10
644.452452
 20
239.505614
 30
0.0
 11
604.672253
 21
232.006549
 31
0.0
  0
LINE
  5
36B
330
1D
100
AcDbEntity
  8
boundary
 62
     5
100
AcDbLine
 39
2.0
 10
604.672253
 20
232.006549
 30
0.0
 11
583.252145
 21
227.968591
 31
0.0
  0
LINE
  5
36C
330
1D
100
AcDbEntity
  8
boundary
 62
     5
100
AcDbLine
 39
2.0
 10
583.252145
 20
227.968591
 30
0.0
 11
583.252145
 21
201.968592
 31
0.0
  0
LINE
  5
36D
330
1D
100
AcDbEntity
  8
boundary
 62
     5
100
AcDbLine
 39
2.0
 10
583.252145
 20
201.968592
 30
0.0
 11
583.252145
 21
187.968592
 31
0.0
  0
LINE
  5
36E
330
1D
100
AcDbEntity
  8
boundary
 62
     5
100
AcDbLine
 39
2.0
 10
583.252145
 20
187.968592
 30
0.0
 11
623.032344
 21
180.469527
 31
0.0
  0
LINE
  5
36F
330
1D
100
AcDbEntity
  8
boundary
 62
     5
100
AcDbLine
 39
2.0
 10
623.032344
 20
180.469527
 30
0.0
 11
644.452452
 21
176.431569
 31
0.0
  0
LINE
  5
370
330
1D
100
AcDbEntity
  8
boundary
 62
     5
100
AcDbLine
 39
2.0
 10
644.452452
 20
176.431569
 30
0.0
 11
645.657976
 21
175.095158
 31
0.0
  0
LINE
  5
371
330
1D
100
AcDbEntity
  8
boundary
 62
     5
100
AcDbLine
 39
2.0
 10
645.657976
 20
175.095158
 30
0.0
 11
647.896807
 21
172.613252
 31
0.0
  0
LINE
  5
372
330
1D
100
AcDbEntity
  8
boundary
 62
     5
100
AcDbLine
 39
2.0
 10
647.896807
 20
172.613252
 30
0.0
 11
649.233217
 21
171.407728
 31
0.0
  0
LINE
  5
373
330
1D
100
AcDbEntity
  8
annotation
 62
     1
100
AcDbLine
 39
211.0
 10
763.252147
 20
207.968592
 30
0.0
 11
763.252147
 21
209.397342
 31
0.0
  0
LINE
  5
374
330
1D
100
AcDbEntity
  8
annotation
 62
     1
100
AcDbLine
 39
211.0
 10
763.252147
 20
207.968592
 30
0.0
 11
763.252147
 21
209.397342
 31
0.0
  0
LINE
  5
375
330
1D
100
AcDbEntity
  8
annotation
 62
     1
100
AcDbLine
 39
211.0
 10
763.252147
 20
209.397342
 30
0.0
 11
763.252147
 21
207.968592
 31
0.0
  0
LINE
  5
376
330
1D
100
AcDbEntity
  8
annotation
 62
     1
100
AcDbLine
 39
211.0
 10
763.252147
 20
207.968592
 30
0.0
 11
763.252147
 21
206.539842
 31
0.0
  0
LINE
  5
377
330
1D
100
AcDbEntity
  8
annotation
 62
     1
100
AcDbLine
 39
211.0
 10
603.252145
 20
207.968592
 30
0.0
 11
604.680895
 21
207.968592
 31
0.0
  0
LINE
  5
378
330
1D
100
AcDbEntity
  8
annotation
 62
     1
100
AcDbLine
 39
211.0
 10
603.252145
 20
207.968592
 30
0.0
 11
604.680895
 21
207.968592
 31
0.0
  0
LINE
  5
379
330
1D
100
AcDbEntity
  8
annotation
 62
     1
100
AcDbLine
 39
211.0
 10
604.680895
 20
207.968592
 30
0.0
 11
603.252145
 21
207.968592
 31
0.0
  0
LINE
  5
37A
330
1D
100
AcDbEntity
  8
annotation
 62
     1
100
AcDbLine
 39
211.0
 10
603.252145
 20
207.968592
 30
0.0
 11
603.252145
 21
206.539842
 31
0.0
  0
LINE
  5
37B
330
1D
100
AcDbEntity
  8
annotation
 62
     1
100
AcDbLine
 39
211.0
 10
683.252146
 20
287.968592
 30
0.0
 11
683.252146
 21
289.397342
 31
0.0
  0
LINE
  5
37C
330
1D
100
AcDbEntity
  8
annotation
 62
     1
100
AcDbLine
 39
211.0
 10
683.252146
 20
127.968591
 30
0.0
 11
684.680896
 21
127.968591
 31
0.0
  0
LINE
  5
37D
330
1D
100
AcDbEntity
  8
annotation
 62
     1
100
AcDbLine
 39
211.0
 10
702.363003
 20
195.097522
 30
0.0
 11
670.377464
 21
195.097522
 31
0.0
  0
LINE
  5
37E
330
1D
100
AcDbEntity
  8
annotation
 62
     1
100
AcDbLine
 39
211.0
 10
670.377464
 20
195.097522
 30
0.0
 11
683.151449
 21
239.896784
 31
0.0
  0
LINE
  5
37F
330
1D
100
AcDbEntity
  8
annotation
 62
     1
100
AcDbLine
 39
211.0
 10
692.775289
 20
182.291024
 30
0.0
 11
692.775289
 21
207.87512
 31
0.0
  0
LINE
  5
380
330
1D
100
AcDbEntity
  8
hole
 62
     5
100
AcDbLine
 39
2.0
 10
682.966396
 20
330.857843
 30
0.0
 11
683.537896
 21
330.857843
 31
0.0
  0
LINE
  5
381
330
1D
100
AcDbEntity
  8
hole
 62
     5
100
AcDbLine
 39
2.0
 10
683.537896
 20
330.857843
 30
0.0
 11
683.537896
 21
331.429343
 31
0.0
  0
LINE
  5
382
330
1D
100
AcDbEntity
  8
hole
 62
     5
100
AcDbLine
 39
2.0
 10
683.537896
 20
331.429343
 30
0.0
 11
682.966396
 21
331.429343
 31
0.0
  0
LINE
  5
383
330
1D
100
AcDbEntity
  8
hole
 62
     5
100
AcDbLine
 39
2.0
 10
682.966396
 20
331.429343
 30
0.0
 11
682.966396
 21
330.857843
 31
0.0
  0
LINE
  5
384
330
1D
100
AcDbEntity
  8
hole
 62
     5
100
AcDbLine
 39
2.0
 10
682.966396
 20
490.857844
 30
0.0
 11
683.537896
 21
490.857844
 31
0.0
  0
LINE
  5
385
330
1D
100
AcDbEntity
  8
hole
 62
     5
100
AcDbLine
 39
2.0
 10
683.537896
 20
490.857844
 30
0.0
 11
683.537896
 21
491.429344
 31
0.0
  0
LINE
  5
386
330
1D
100
AcDbEntity
  8
hole
 62
     5
100
AcDbLine
 39
2.0
 10
683.537896
 20
491.429344
 30
0.0
 11
682.966396
 21
491.429344
 31
0.0
  0
LINE
  5
387
330
1D
100
AcDbEntity
  8
hole
 62
     5
100
AcDbLine
 39
2.0
 10
682.966396
 20
491.429344
 30
0.0
 11
682.966396
 21
490.857844
 31
0.0
  0
LINE
  5
388
330
1D
100
AcDbEntity
  8
boundary
 62
     5
100
AcDbLine
 39
2.0
 10
648.469554
 20
375.271601
 30
0.0
 11
651.715124
 21
372.343899
 31
0.0
  0
LINE
  5
389
330
1D
100
AcDbEntity
  8
boundary
 62
     5
100
AcDbLine
 39
2.0
 10
651.715124
 20
372.343899
 30
0.0
 11
653.445677
 21
363.163852
 31
0.0
  0
LINE
  5
38A
330
1D
100
AcDbEntity
  8
boundary
 62
     5
100
AcDbLine
 39
2.0
 10
653.445677
 20
363.163852
 30
0.0
 11
663.252146
 21
311.143593
 31
0.0
  0
LINE
  5
38B
330
1D
100
AcDbEntity
  8
boundary
 62
     5
100
AcDbLine
 39
2.0
 10
663.252146
 20
311.143593
 30
0.0
 11
697.252145
 21
311.143592
 31
0.0
  0
LINE
  5
38C
330
1D
100
AcDbEntity
  8
boundary
 62
     5
100
AcDbLine
 39
2.0
 10
697.252145
 20
311.143592
 30
0.0
 11
703.252146
 21
311.143592
 31
0.0
  0
LINE
  5
38D
330
1D
100
AcDbEntity
  8
boundary
 62
     5
100
AcDbLine
 39
2.0
 10
703.252146
 20
311.143592
 30
0.0
 11
713.058615
 21
363.163852
 31
0.0
  0
LINE
  5
38E
330
1D
100
AcDbEntity
  8
boundary
 62
     5
100
AcDbLine
 39
2.0
 10
713.058615
 20
363.163852
 30
0.0
 11
714.789168
 21
372.343899
 31
0.0
  0
LINE
  5
38F
330
1D
100
AcDbEntity
  8
boundary
 62
     5
100
AcDbLine
 39
2.0
 10
714.789168
 20
372.343899
 30
0.0
 11
715.361916
 21
372.860553
 31
0.0
  0
LINE
  5
390
330
1D
100
AcDbEntity
  8
boundary
 62
     5
100
AcDbLine
 39
2.0
 10
715.361916
 20
372.860553
 30
0.0
 11
718.607486
 21
375.788254
 31
0.0
  0
LINE
  5
391
330
1D
100
AcDbEntity
  8
boundary
 62
     5
100
AcDbLine
 39
2.0
 10
718.607486
 20
375.788254
 30
0.0
 11
719.124139
 21
376.361002
 31
0.0
  0
LINE
  5
392
330
1D
100
AcDbEntity
  8
boundary
 62
     5
100
AcDbLine
 39
2.0
 10
719.124139
 20
376.361002
 30
0.0
 11
722.05184
 21
379.606571
 31
0.0
  0
LINE
  5
393
330
1D
100
AcDbEntity
  8
boundary
 62
     5
100
AcDbLine
 39
2.0
 10
722.05184
 20
379.606571
 30
0.0
 11
731.231887
 21
381.337125
 31
0.0
  0
LINE
  5
394
330
1D
100
AcDbEntity
  8
boundary
 62
     5
100
AcDbLine
 39
2.0
 10
731.231887
 20
381.337125
 30
0.0
 11
783.252147
 21
391.143594
 31
0.0
  0
LINE
  5
395
330
1D
100
AcDbEntity
  8
boundary
 62
     5
100
AcDbLine
 39
2.0
 10
783.252147
 20
391.143594
 30
0.0
 11
783.252147
 21
397.143595
 31
0.0
  0
LINE
  5
396
330
1D
100
AcDbEntity
  8
boundary
 62
     5
100
AcDbLine
 39
2.0
 10
783.252147
 20
397.143595
 30
0.0
 11
783.252147
 21
431.143593
 31
0.0
  0
LINE
  5
397
330
1D
100
AcDbEntity
  8
boundary
 62
     5
100
AcDbLine
 39
2.0
 10
783.252147
 20
431.143593
 30
0.0
 11
731.231887
 21
440.950062
 31
0.0
  0
LINE
  5
398
330
1D
100
AcDbEntity
  8
boundary
 62
     5
100
AcDbLine
 39
2.0
 10
731.231887
 20
440.950062
 30
0.0
 11
722.05184
 21
442.680616
 31
0.0
  0
LINE
  5
399
330
1D
100
AcDbEntity
  8
boundary
 62
     5
100
AcDbLine
 39
2.0
 10
722.05184
 20
442.680616
 30
0.0
 11
721.535187
 21
443.253363
 31
0.0
  0
LINE
  5
39A
330
1D
100
AcDbEntity
  8
boundary
 62
     5
100
AcDbLine
 39
2.0
 10
721.535187
 20
443.253363
 30
0.0
 11
718.607486
 21
446.498933
 31
0.0
  0
LINE
  5
39B
330
1D
100
AcDbEntity
  8
boundary
 62
     5
100
AcDbLine
 39
2.0
 10
718.607486
 20
446.498933
 30
0.0
 11
718.034738
 21
447.015586
 31
0.0
  0
LINE
  5
39C
330
1D
100
AcDbEntity
  8
boundary
 62
     5
100
AcDbLine
 39
2.0
 10
718.034738
 20
447.015586
 30
0.0
 11
714.789168
 21
449.943287
 31
0.0
  0
LINE
  5
39D
330
1D
100
AcDbEntity
  8
boundary
 62
     5
100
AcDbLine
 39
2.0
 10
714.789168
 20
449.943287
 30
0.0
 11
713.058615
 21
459.123334
 31
0.0
  0
LINE
  5
39E
330
1D
100
AcDbEntity
  8
boundary
 62
     5
100
AcDbLine
 39
2.0
 10
713.058615
 20
459.123334
 30
0.0
 11
703.252146
 21
511.143594
 31
0.0
  0
LINE
  5
39F
330
1D
100
AcDbEntity
  8
boundary
 62
     5
100
AcDbLine
 39
2.0
 10
703.252146
 20
511.143594
 30
0.0
 11
697.252145
 21
511.143594
 31
0.0
  0
LINE
  5
3A0
330
1D
100
AcDbEntity
  8
boundary
 62
     5
100
AcDbLine
 39
2.0
 10
697.252145
 20
511.143594
 30
0.0
 11
663.252146
 21
511.143594
 31
0.0
  0
LINE
  5
3A1
330
1D
100
AcDbEntity
  8
boundary
 62
     5
100
AcDbLine
 39
2.0
 10
663.252146
 20
511.143594
 30
0.0
 11
653.445677
 21
459.123335
 31
0.0
  0
LINE
  5
3A2
330
1D
100
AcDbEntity
  8
boundary
 62
     5
100
AcDbLine
 39
2.0
 10
653.445677
 20
459.123335
 30
0.0
 11
651.715124
 21
449.943287
 31
0.0
  0
LINE
  5
3A3
330
1D
100
AcDbEntity
  8
boundary
 62
     5
100
AcDbLine
 39
2.0
 10
651.715124
 20
449.943287
 30
0.0
 11
651.142376
 21
449.426634
 31
0.0
  0
LINE
  5
3A4
330
1D
100
AcDbEntity
  8
boundary
 62
     5
100
AcDbLine
 39
2.0
 10
651.142376
 20
449.426634
 30
0.0
 11
647.896806
 21
446.498933
 31
0.0
  0
LINE
  5
3A5
330
1D
100
AcDbEntity
  8
boundary
 62
     5
100
AcDbLine
 39
2.0
 10
647.896806
 20
446.498933
 30
0.0
 11
647.380153
 21
445.926185
 31
0.0
  0
LINE
  5
3A6
330
1D
100
AcDbEntity
  8
boundary
 62
     5
100
AcDbLine
 39
2.0
 10
647.380153
 20
445.926185
 30
0.0
 11
644.452452
 21
442.680616
 31
0.0
  0
LINE
  5
3A7
330
1D
100
AcDbEntity
  8
boundary
 62
     5
100
AcDbLine
 39
2.0
 10
644.452452
 20
442.680616
 30
0.0
 11
592.432192
 21
432.874146
 31
0.0
  0
LINE
  5
3A8
330
1D
100
AcDbEntity
  8
boundary
 62
     5
100
AcDbLine
 39
2.0
 10
592.432192
 20
432.874146
 30
0.0
 11
583.252145
 21
431.143593
 31
0.0
  0
LINE
  5
3A9
330
1D
100
AcDbEntity
  8
boundary
 62
     5
100
AcDbLine
 39
2.0
 10
583.252145
 20
431.143593
 30
0.0
 11
583.252145
 21
397.143594
 31
0.0
  0
LINE
  5
3AA
330
1D
100
AcDbEntity
  8
boundary
 62
     5
100
AcDbLine
 39
2.0
 10
583.252145
 20
397.143594
 30
0.0
 11
583.252145
 21
391.143594
 31
0.0
  0
LINE
  5
3AB
330
1D
100
AcDbEntity
  8
boundary
 62
     5
100
AcDbLine
 39
2.0
 10
583.252145
 20
391.143594
 30
0.0
 11
635.272405
 21
381.337125
 31
0.0
  0
LINE
  5
3AC
330
1D
100
AcDbEntity
  8
boundary
 62
     5
100
AcDbLine
 39
2.0
 10
635.272405
 20
381.337125
 30
0.0
 11
644.452452
 21
379.606571
 31
0.0
  0
LINE
  5
3AD
330
1D
100
AcDbEntity
  8
boundary
 62
     5
100
AcDbLine
 39
2.0
 10
644.452452
 20
379.606571
 30
0.0
 11
644.969105
 21
379.033823
 31
0.0
  0
LINE
  5
3AE
330
1D
100
AcDbEntity
  8
boundary
 62
     5
100
AcDbLine
 39
2.0
 10
644.969105
 20
379.033823
 30
0.0
 11
647.896807
 21
375.788254
 31
0.0
  0
LINE
  5
3AF
330
1D
100
AcDbEntity
  8
boundary
 62
     5
100
AcDbLine
 39
2.0
 10
647.896807
 20
375.788254
 30
0.0
 11
648.469554
 21
375.271601
 31
0.0
  0
LINE
  5
3B0
330
1D
100
AcDbEntity
  8
annotation
 62
     1
100
AcDbLine
 39
211.0
 10
683.252146
 20
491.143594
 30
0.0
 11
683.252146
 21
492.572344
 31
0.0
  0
LINE
  5
3B1
330
1D
100
AcDbEntity
  8
annotation
 62
     1
100
AcDbLine
 39
211.0
 10
683.252146
 20
331.143593
 30
0.0
 11
684.680896
 21
331.143593
 31
0.0
  0
LINE
  5
3B2
330
1D
100
AcDbEntity
  8
annotation
 62
     1
100
AcDbLine
 39
211.0
 10
670.378367
 20
378.265305
 30
0.0
 11
686.368427
 21
378.265305
 31
0.0
  0
LINE
  5
3B3
330
1D
100
AcDbEntity
  8
annotation
 62
     1
100
AcDbLine
 39
211.0
 10
686.368427
 20
378.265305
 30
0.0
 11
686.368427
 21
378.265305
 31
0.0
  0
LINE
  5
3B4
330
1D
100
AcDbEntity
  8
annotation
 62
     1
100
AcDbLine
 39
211.0
 10
686.368427
 20
378.265305
 30
0.0
 11
689.238331
 21
378.523344
 31
0.0
  0
LINE
  5
3B5
330
1D
100
AcDbEntity
  8
annotation
 62
     1
100
AcDbLine
 39
211.0
 10
689.238331
 20
378.523344
 30
0.0
 11
691.941248
 21
379.267256
 31
0.0
  0
LINE
  5
3B6
330
1D
100
AcDbEntity
  8
annotation
 62
     1
100
AcDbLine
 39
211.0
 10
691.941248
 20
379.267256
 30
0.0
 11
694.431611
 21
380.451736
 31
0.0
  0
LINE
  5
3B7
330
1D
100
AcDbEntity
  8
annotation
 62
     1
100
AcDbLine
 39
211.0
 10
694.431611
 20
380.451736
 30
0.0
 11
696.663855
 21
382.031478
 31
0.0
  0
LINE
  5
3B8
330
1D
100
AcDbEntity
  8
annotation
 62
     1
100
AcDbLine
 39
211.0
 10
696.663855
 20
382.031478
 30
0.0
 11
698.592414
 21
383.961177
 31
0.0
  0
LINE
  5
3B9
330
1D
100
AcDbEntity
  8
annotation
 62
     1
100
AcDbLine
 39
211.0
 10
698.592414
 20
383.961177
 30
0.0
 11
700.171722
 21
386.195527
 31
0.0
  0
LINE
  5
3BA
330
1D
100
AcDbEntity
  8
annotation
 62
     1
100
AcDbLine
 39
211.0
 10
700.171722
 20
386.195527
 30
0.0
 11
701.356214
 21
388.689223
 31
0.0
  0
LINE
  5
3BB
330
1D
100
AcDbEntity
  8
annotation
 62
     1
100
AcDbLine
 39
211.0
 10
701.356214
 20
388.689223
 30
0.0
 11
702.100325
 21
391.396958
 31
0.0
  0
LINE
  5
3BC
330
1D
100
AcDbEntity
  8
annotation
 62
     1
100
AcDbLine
 39
211.0
 10
702.100325
 20
391.396958
 30
0.0
 11
702.358487
 21
394.273428
 31
0.0
  0
LINE
  5
3BD
330
1D
100
AcDbEntity
  8
annotation
 62
     1
100
AcDbLine
 39
211.0
 10
702.358487
 20
394.273428
 30
0.0
 11
702.358487
 21
402.239106
 31
0.0
  0
LINE
  5
3BE
330
1D
100
AcDbEntity
  8
annotation
 62
     1
100
AcDbLine
 39
211.0
 10
702.358487
 20
402.239106
 30
0.0
 11
702.358487
 21
402.239106
 31
0.0
  0
LINE
  5
3BF
330
1D
100
AcDbEntity
  8
annotation
 62
     1
100
AcDbLine
 39
211.0
 10
702.358487
 20
402.239106
 30
0.0
 11
702.100473
 21
405.114183
 31
0.0
  0
LINE
  5
3C0
330
1D
100
AcDbEntity
  8
annotation
 62
     1
100
AcDbLine
 39
211.0
 10
702.100473
 20
405.114183
 30
0.0
 11
701.356735
 21
407.818183
 31
0.0
  0
LINE
  5
3C1
330
1D
100
AcDbEntity
  8
annotation
 62
     1
100
AcDbLine
 39
211.0
 10
701.356735
 20
407.818183
 30
0.0
 11
700.172726
 21
410.306471
 31
0.0
  0
LINE
  5
3C2
330
1D
100
AcDbEntity
  8
annotation
 62
     1
100
AcDbLine
 39
211.0
 10
700.172726
 20
410.306471
 30
0.0
 11
698.5939
 21
412.53441
 31
0.0
  0
LINE
  5
3C3
330
1D
100
AcDbEntity
  8
annotation
 62
     1
100
AcDbLine
 39
211.0
 10
698.5939
 20
412.53441
 30
0.0
 11
696.665713
 21
414.457363
 31
0.0
  0
LINE
  5
3C4
330
1D
100
AcDbEntity
  8
annotation
 62
     1
100
AcDbLine
 39
211.0
 10
696.665713
 20
414.457363
 30
0.0
 11
694.433618
 21
416.030694
 31
0.0
  0
LINE
  5
3C5
330
1D
100
AcDbEntity
  8
annotation
 62
     1
100
AcDbLine
 39
211.0
 10
694.433618
 20
416.030694
 30
0.0
 11
691.943069
 21
417.209766
 31
0.0
  0
LINE
  5
3C6
330
1D
100
AcDbEntity
  8
annotation
 62
     1
100
AcDbLine
 39
211.0
 10
691.943069
 20
417.209766
 30
0.0
 11
689.23952
 21
417.949943
 31
0.0
  0
LINE
  5
3C7
330
1D
100
AcDbEntity
  8
annotation
 62
     1
100
AcDbLine
 39
211.0
 10
689.23952
 20
417.949943
 30
0.0
 11
686.368427
 21
418.206588
 31
0.0
  0
LINE
  5
3C8
330
1D
100
AcDbEntity
  8
annotation
 62
     1
100
AcDbLine
 39
211.0
 10
686.368427
 20
418.206588
 30
0.0
 11
670.378367
 21
418.206588
 31
0.0
  0
LINE
  5
3C9
330
1D
100
AcDbEntity
  8
annotation
 62
     1
100
AcDbLine
 39
211.0
 10
670.378367
 20
418.206588
 30
0.0
 11
670.378367
 21
450.272506
 31
0.0
  0
LINE
  5
3CA
330
1D
100
AcDbEntity
  8
annotation
 62
     1
100
AcDbLine
 39
211.0
 10
670.378367
 20
450.272506
 30
0.0
 11
702.358487
 21
450.272506
 31
0.0
  0
LINE
  5
3EE
330
1D
100
AcDbEntity
  8
hole
 62
     5
100
AcDbLine
 39
2.0
 10
453.259082
 20
539.760882
 30
0.0
 11
453.830582
 21
539.760882
 31
0.0
  0
LINE
  5
3EF
330
1D
100
AcDbEntity
  8
hole
 62
     5
100
AcDbLine
 39
2.0
 10
453.830582
 20
539.760882
 30
0.0
 11
453.830582
 21
540.332382
 31
0.0
  0
LINE
  5
3F0
330
1D
100
AcDbEntity
  8
hole
 62
     5
100
AcDbLine
 39
2.0
 10
453.830582
 20
540.332382
 30
0.0
 11
453.259082
 21
540.332382
 31
0.0
  0
LINE
  5
3F1
330
1D
100
AcDbEntity
  8
hole
 62
     5
100
AcDbLine
 39
2.0
 10
453.259082
 20
540.332382
 30
0.0
 11
453.259082
 21
539.760882
 31
0.0
  0
LINE
  5
3F2
330
1D
100
AcDbEntity
  8
hole
 62
     5
100
AcDbLine
 39
2.0
 10
613.259084
 20
539.760882
 30
0.0
 11
613.830584
 21
539.760882
 31
0.0
  0
LINE
  5
3F3
330
1D
100
AcDbEntity
  8
hole
 62
     5
100
AcDbLine
 39
2.0
 10
613.830584
 20
539.760882
 30
0.0
 11
613.830584
 21
540.332382
 31
0.0
  0
LINE
  5
3F4
330
1D
100
AcDbEntity
  8
hole
 62
     5
100
AcDbLine
 39
2.0
 10
613.830584
 20
540.332382
 30
0.0
 11
613.259084
 21
540.332382
 31
0.0
  0
LINE
  5
3F5
330
1D
100
AcDbEntity
  8
hole
 62
     5
100
AcDbLine
 39
2.0
 10
613.259084
 20
540.332382
 30
0.0
 11
613.259084
 21
539.760882
 31
0.0
  0
LINE
  5
3F6
330
1D
100
AcDbEntity
  8
hole
 62
     5
100
AcDbLine
 39
2.0
 10
533.259083
 20
459.760881
 30
0.0
 11
533.830583
 21
459.760881
 31
0.0
  0
LINE
  5
3F7
330
1D
100
AcDbEntity
  8
hole
 62
     5
100
AcDbLine
 39
2.0
 10
533.830583
 20
459.760881
 30
0.0
 11
533.830583
 21
460.332381
 31
0.0
  0
LINE
  5
3F8
330
1D
100
AcDbEntity
  8
hole
 62
     5
100
AcDbLine
 39
2.0
 10
533.830583
 20
460.332381
 30
0.0
 11
533.259083
 21
460.332381
 31
0.0
  0
LINE
  5
3F9
330
1D
100
AcDbEntity
  8
hole
 62
     5
100
AcDbLine
 39
2.0
 10
533.259083
 20
460.332381
 30
0.0
 11
533.259083
 21
459.760881
 31
0.0
  0
LINE
  5
3FA
330
1D
100
AcDbEntity
  8
hole
 62
     5
100
AcDbLine
 39
2.0
 10
533.259083
 20
619.760882
 30
0.0
 11
533.830583
 21
619.760882
 31
0.0
  0
LINE
  5
3FB
330
1D
100
AcDbEntity
  8
hole
 62
     5
100
AcDbLine
 39
2.0
 10
533.830583
 20
619.760882
 30
0.0
 11
533.830583
 21
620.332382
 31
0.0
  0
LINE
  5
3FC
330
1D
100
AcDbEntity
  8
hole
 62
     5
100
AcDbLine
 39
2.0
 10
533.830583
 20
620.332382
 30
0.0
 11
533.259083
 21
620.332382
 31
0.0
  0
LINE
  5
3FD
330
1D
100
AcDbEntity
  8
hole
 62
     5
100
AcDbLine
 39
2.0
 10
533.259083
 20
620.332382
 30
0.0
 11
533.259083
 21
619.760882
 31
0.0
  0
LINE
  5
3FE
330
1D
100
AcDbEntity
  8
boundary
 62
     5
100
AcDbLine
 39
2.0
 10
499.525904
 20
503.485768
 30
0.0
 11
502.007811
 21
501.246938
 31
0.0
  0
LINE
  5
3FF
330
1D
100
AcDbEntity
  8
boundary
 62
     5
100
AcDbLine
 39
2.0
 10
502.007811
 20
501.246938
 30
0.0
 11
506.045769
 21
479.82683
 31
0.0
  0
LINE
  5
400
330
1D
100
AcDbEntity
  8
boundary
 62
     5
100
AcDbLine
 39
2.0
 10
506.045769
 20
479.82683
 30
0.0
 11
513.544833
 21
440.046631
 31
0.0
  0
LINE
  5
401
330
1D
100
AcDbEntity
  8
boundary
 62
     5
100
AcDbLine
 39
2.0
 10
513.544833
 20
440.046631
 30
0.0
 11
539.544833
 21
440.046631
 31
0.0
  0
LINE
  5
402
330
1D
100
AcDbEntity
  8
boundary
 62
     5
100
AcDbLine
 39
2.0
 10
539.544833
 20
440.046631
 30
0.0
 11
553.544833
 21
440.046631
 31
0.0
  0
LINE
  5
403
330
1D
100
AcDbEntity
  8
boundary
 62
     5
100
AcDbLine
 39
2.0
 10
553.544833
 20
440.046631
 30
0.0
 11
561.043897
 21
479.82683
 31
0.0
  0
LINE
  5
404
330
1D
100
AcDbEntity
  8
boundary
 62
     5
100
AcDbLine
 39
2.0
 10
561.043897
 20
479.82683
 30
0.0
 11
565.081855
 21
501.246938
 31
0.0
  0
LINE
  5
405
330
1D
100
AcDbEntity
  8
boundary
 62
     5
100
AcDbLine
 39
2.0
 10
565.081855
 20
501.246938
 30
0.0
 11
566.418266
 21
502.452462
 31
0.0
  0
LINE
  5
406
330
1D
100
AcDbEntity
  8
boundary
 62
     5
100
AcDbLine
 39
2.0
 10
566.418266
 20
502.452462
 30
0.0
 11
568.900173
 21
504.691292
 31
0.0
  0
LINE
  5
407
330
1D
100
AcDbEntity
  8
boundary
 62
     5
100
AcDbLine
 39
2.0
 10
568.900173
 20
504.691292
 30
0.0
 11
570.105697
 21
506.027703
 31
0.0
  0
LINE
  5
408
330
1D
100
AcDbEntity
  8
boundary
 62
     5
100
AcDbLine
 39
2.0
 10
570.105697
 20
506.027703
 30
0.0
 11
572.344527
 21
508.509609
 31
0.0
  0
LINE
  5
409
330
1D
100
AcDbEntity
  8
boundary
 62
     5
100
AcDbLine
 39
2.0
 10
572.344527
 20
508.509609
 30
0.0
 11
593.764635
 21
512.547567
 31
0.0
  0
LINE
  5
40A
330
1D
100
AcDbEntity
  8
boundary
 62
     5
100
AcDbLine
 39
2.0
 10
593.764635
 20
512.547567
 30
0.0
 11
633.544834
 21
520.046632
 31
0.0
  0
LINE
  5
40B
330
1D
100
AcDbEntity
  8
boundary
 62
     5
100
AcDbLine
 39
2.0
 10
633.544834
 20
520.046632
 30
0.0
 11
633.544834
 21
534.046632
 31
0.0
  0
LINE
  5
40C
330
1D
100
AcDbEntity
  8
boundary
 62
     5
100
AcDbLine
 39
2.0
 10
633.544834
 20
534.046632
 30
0.0
 11
633.544834
 21
560.046631
 31
0.0
  0
LINE
  5
40D
330
1D
100
AcDbEntity
  8
boundary
 62
     5
100
AcDbLine
 39
2.0
 10
633.544834
 20
560.046631
 30
0.0
 11
593.764635
 21
567.545696
 31
0.0
  0
LINE
  5
40E
330
1D
100
AcDbEntity
  8
boundary
 62
     5
100
AcDbLine
 39
2.0
 10
593.764635
 20
567.545696
 30
0.0
 11
572.344527
 21
571.583654
 31
0.0
  0
LINE
  5
40F
330
1D
100
AcDbEntity
  8
boundary
 62
     5
100
AcDbLine
 39
2.0
 10
572.344527
 20
571.583654
 30
0.0
 11
571.139003
 21
572.920065
 31
0.0
  0
LINE
  5
410
330
1D
100
AcDbEntity
  8
boundary
 62
     5
100
AcDbLine
 39
2.0
 10
571.139003
 20
572.920065
 30
0.0
 11
568.900173
 21
575.401971
 31
0.0
  0
LINE
  5
411
330
1D
100
AcDbEntity
  8
boundary
 62
     5
100
AcDbLine
 39
2.0
 10
568.900173
 20
575.401971
 30
0.0
 11
567.563762
 21
576.607495
 31
0.0
  0
LINE
  5
412
330
1D
100
AcDbEntity
  8
boundary
 62
     5
100
AcDbLine
 39
2.0
 10
567.563762
 20
576.607495
 30
0.0
 11
565.081855
 21
578.846326
 31
0.0
  0
LINE
  5
413
330
1D
100
AcDbEntity
  8
boundary
 62
     5
100
AcDbLine
 39
2.0
 10
565.081855
 20
578.846326
 30
0.0
 11
561.043897
 21
600.266433
 31
0.0
  0
LINE
  5
414
330
1D
100
AcDbEntity
  8
boundary
 62
     5
100
AcDbLine
 39
2.0
 10
561.043897
 20
600.266433
 30
0.0
 11
553.544833
 21
640.046632
 31
0.0
  0
LINE
  5
415
330
1D
100
AcDbEntity
  8
boundary
 62
     5
100
AcDbLine
 39
2.0
 10
553.544833
 20
640.046632
 30
0.0
 11
539.544833
 21
640.046632
 31
0.0
  0
LINE
  5
416
330
1D
100
AcDbEntity
  8
boundary
 62
     5
100
AcDbLine
 39
2.0
 10
539.544833
 20
640.046632
 30
0.0
 11
513.544833
 21
640.046632
 31
0.0
  0
LINE
  5
417
330
1D
100
AcDbEntity
  8
boundary
 62
     5
100
AcDbLine
 39
2.0
 10
513.544833
 20
640.046632
 30
0.0
 11
506.045769
 21
600.266434
 31
0.0
  0
LINE
  5
418
330
1D
100
AcDbEntity
  8
boundary
 62
     5
100
AcDbLine
 39
2.0
 10
506.045769
 20
600.266434
 30
0.0
 11
502.007811
 21
578.846325
 31
0.0
  0
LINE
  5
419
330
1D
100
AcDbEntity
  8
boundary
 62
     5
100
AcDbLine
 39
2.0
 10
502.007811
 20
578.846325
 30
0.0
 11
500.671399
 21
577.640801
 31
0.0
  0
LINE
  5
41A
330
1D
100
AcDbEntity
  8
boundary
 62
     5
100
AcDbLine
 39
2.0
 10
500.671399
 20
577.640801
 30
0.0
 11
498.189493
 21
575.401971
 31
0.0
  0
LINE
  5
41B
330
1D
100
AcDbEntity
  8
boundary
 62
     5
100
AcDbLine
 39
2.0
 10
498.189493
 20
575.401971
 30
0.0
 11
496.983969
 21
574.06556
 31
0.0
  0
LINE
  5
41C
330
1D
100
AcDbEntity
  8
boundary
 62
     5
100
AcDbLine
 39
2.0
 10
496.983969
 20
574.06556
 30
0.0
 11
494.745139
 21
571.583654
 31
0.0
  0
LINE
  5
41D
330
1D
100
AcDbEntity
  8
boundary
 62
     5
100
AcDbLine
 39
2.0
 10
494.745139
 20
571.583654
 30
0.0
 11
454.96494
 21
564.084589
 31
0.0
  0
LINE
  5
41E
330
1D
100
AcDbEntity
  8
boundary
 62
     5
100
AcDbLine
 39
2.0
 10
454.96494
 20
564.084589
 30
0.0
 11
433.544832
 21
560.046631
 31
0.0
  0
LINE
  5
41F
330
1D
100
AcDbEntity
  8
boundary
 62
     5
100
AcDbLine
 39
2.0
 10
433.544832
 20
560.046631
 30
0.0
 11
433.544832
 21
534.046632
 31
0.0
  0
LINE
  5
420
330
1D
100
AcDbEntity
  8
boundary
 62
     5
100
AcDbLine
 39
2.0
 10
433.544832
 20
534.046632
 30
0.0
 11
433.544832
 21
520.046632
 31
0.0
  0
LINE
  5
421
330
1D
100
AcDbEntity
  8
boundary
 62
     5
100
AcDbLine
 39
2.0
 10
433.544832
 20
520.046632
 30
0.0
 11
473.325031
 21
512.547567
 31
0.0
  0
LINE
  5
422
330
1D
100
AcDbEntity
  8
boundary
 62
     5
100
AcDbLine
 39
2.0
 10
473.325031
 20
512.547567
 30
0.0
 11
494.745139
 21
508.509609
 31
0.0
  0
LINE
  5
423
330
1D
100
AcDbEntity
  8
boundary
 62
     5
100
AcDbLine
 39
2.0
 10
494.745139
 20
508.509609
 30
0.0
 11
495.950663
 21
507.173198
 31
0.0
  0
LINE
  5
424
330
1D
100
AcDbEntity
  8
boundary
 62
     5
100
AcDbLine
 39
2.0
 10
495.950663
 20
507.173198
 30
0.0
 11
498.189494
 21
504.691292
 31
0.0
  0
LINE
  5
425
330
1D
100
AcDbEntity
  8
boundary
 62
     5
100
AcDbLine
 39
2.0
 10
498.189494
 20
504.691292
 30
0.0
 11
499.525904
 21
503.485768
 31
0.0
  0
LINE
  5
426
330
1D
100
AcDbEntity
  8
annotation
 62
     1
100
AcDbLine
 39
211.0
 10
613.544834
 20
540.046632
 30
0.0
 11
613.544834
 21
541.475382
 31
0.0
  0
LINE
  5
427
330
1D
100
AcDbEntity
  8
annotation
 62
     1
100
AcDbLine
 39
211.0
 10
613.544834
 20
540.046632
 30
0.0
 11
613.544834
 21
541.475382
 31
0.0
  0
LINE
  5
428
330
1D
100
AcDbEntity
  8
annotation
 62
     1
100
AcDbLine
 39
211.0
 10
613.544834
 20
541.475382
 30
0.0
 11
613.544834
 21
540.046632
 31
0.0
  0
LINE
  5
429
330
1D
100
AcDbEntity
  8
annotation
 62
     1
100
AcDbLine
 39
211.0
 10
613.544834
 20
540.046632
 30
0.0
 11
613.544834
 21
538.617882
 31
0.0
  0
LINE
  5
42A
330
1D
100
AcDbEntity
  8
annotation
 62
     1
100
AcDbLine
 39
211.0
 10
453.544832
 20
540.046632
 30
0.0
 11
454.973582
 21
540.046632
 31
0.0
  0
LINE
  5
42B
330
1D
100
AcDbEntity
  8
annotation
 62
     1
100
AcDbLine
 39
211.0
 10
453.544832
 20
540.046632
 30
0.0
 11
454.973582
 21
540.046632
 31
0.0
  0
LINE
  5
42C
330
1D
100
AcDbEntity
  8
annotation
 62
     1
100
AcDbLine
 39
211.0
 10
454.973582
 20
540.046632
 30
0.0
 11
453.544832
 21
540.046632
 31
0.0
  0
LINE
  5
42D
330
1D
100
AcDbEntity
  8
annotation
 62
     1
100
AcDbLine
 39
211.0
 10
453.544832
 20
540.046632
 30
0.0
 11
453.544832
 21
538.617882
 31
0.0
  0
LINE
  5
42E
330
1D
100
AcDbEntity
  8
annotation
 62
     1
100
AcDbLine
 39
211.0
 10
533.544833
 20
620.046632
 30
0.0
 11
533.544833
 21
621.475382
 31
0.0
  0
LINE
  5
42F
330
1D
100
AcDbEntity
  8
annotation
 62
     1
100
AcDbLine
 39
211.0
 10
533.544833
 20
460.046631
 30
0.0
 11
534.973583
 21
460.046631
 31
0.0
  0
LINE
  5
430
330
1D
100
AcDbEntity
  8
annotation
 62
     1
100
AcDbLine
 39
211.0
 10
552.65569
 20
527.175562
 30
0.0
 11
520.670151
 21
527.175562
 31
0.0
  0
LINE
  5
431
330
1D
100
AcDbEntity
  8
annotation
 62
     1
100
AcDbLine
 39
211.0
 10
520.670151
 20
527.175562
 30
0.0
 11
533.444136
 21
571.974824
 31
0.0
  0
LINE
  5
432
330
1D
100
AcDbEntity
  8
annotation
 62
     1
100
AcDbLine
 39
211.0
 10
543.067976
 20
514.369064
 30
0.0
 11
543.067976
 21
539.95316
 31
0.0
  0
LINE
  5
433
330
1D
100
AcDbEntity
  8
hole
 62
     5
100
AcDbLine
 39
2.0
 10
533.259083
 20
662.935883
 30
0.0
 11
533.830583
 21
662.935883
 31
0.0
  0
LINE
  5
434
330
1D
100
AcDbEntity
  8
hole
 62
     5
100
AcDbLine
 39
2.0
 10
533.830583
 20
662.935883
 30
0.0
 11
533.830583
 21
663.507383
 31
0.0
  0
LINE
  5
435
330
1D
100
AcDbEntity
  8
hole
 62
     5
100
AcDbLine
 39
2.0
 10
533.830583
 20
663.507383
 30
0.0
 11
533.259083
 21
663.507383
 31
0.0
  0
LINE
  5
436
330
1D
100
AcDbEntity
  8
hole
 62
     5
100
AcDbLine
 39
2.0
 10
533.259083
 20
663.507383
 30
0.0
 11
533.259083
 21
662.935883
 31
0.0
  0
LINE
  5
437
330
1D
100
AcDbEntity
  8
hole
 62
     5
100
AcDbLine
 39
2.0
 10
533.259083
 20
822.935884
 30
0.0
 11
533.830583
 21
822.935884
 31
0.0
  0
LINE
  5
438
330
1D
100
AcDbEntity
  8
hole
 62
     5
100
AcDbLine
 39
2.0
 10
533.830583
 20
822.935884
 30
0.0
 11
533.830583
 21
823.507384
 31
0.0
  0
LINE
  5
439
330
1D
100
AcDbEntity
  8
hole
 62
     5
100
AcDbLine
 39
2.0
 10
533.830583
 20
823.507384
 30
0.0
 11
533.259083
 21
823.507384
 31
0.0
  0
LINE
  5
43A
330
1D
100
AcDbEntity
  8
hole
 62
     5
100
AcDbLine
 39
2.0
 10
533.259083
 20
823.507384
 30
0.0
 11
533.259083
 21
822.935884
 31
0.0
  0
LINE
  5
43B
330
1D
100
AcDbEntity
  8
boundary
 62
     5
100
AcDbLine
 39
2.0
 10
498.762241
 20
707.349641
 30
0.0
 11
502.007811
 21
704.421939
 31
0.0
  0
LINE
  5
43C
330
1D
100
AcDbEntity
  8
boundary
 62
     5
100
AcDbLine
 39
2.0
 10
502.007811
 20
704.421939
 30
0.0
 11
503.738364
 21
695.241892
 31
0.0
  0
LINE
  5
43D
330
1D
100
AcDbEntity
  8
boundary
 62
     5
100
AcDbLine
 39
2.0
 10
503.738364
 20
695.241892
 30
0.0
 11
513.544833
 21
643.221633
 31
0.0
  0
LINE
  5
43E
330
1D
100
AcDbEntity
  8
boundary
 62
     5
100
AcDbLine
 39
2.0
 10
513.544833
 20
643.221633
 30
0.0
 11
547.544832
 21
643.221632
 31
0.0
  0
LINE
  5
43F
330
1D
100
AcDbEntity
  8
boundary
 62
     5
100
AcDbLine
 39
2.0
 10
547.544832
 20
643.221632
 30
0.0
 11
553.544833
 21
643.221632
 31
0.0
  0
LINE
  5
440
330
1D
100
AcDbEntity
  8
boundary
 62
     5
100
AcDbLine
 39
2.0
 10
553.544833
 20
643.221632
 30
0.0
 11
563.351302
 21
695.241892
 31
0.0
  0
LINE
  5
441
330
1D
100
AcDbEntity
  8
boundary
 62
     5
100
AcDbLine
 39
2.0
 10
563.351302
 20
695.241892
 30
0.0
 11
565.081855
 21
704.421939
 31
0.0
  0
LINE
  5
442
330
1D
100
AcDbEntity
  8
boundary
 62
     5
100
AcDbLine
 39
2.0
 10
565.081855
 20
704.421939
 30
0.0
 11
565.654603
 21
704.938593
 31
0.0
  0
LINE
  5
443
330
1D
100
AcDbEntity
  8
boundary
 62
     5
100
AcDbLine
 39
2.0
 10
565.654603
 20
704.938593
 30
0.0
 11
568.900173
 21
707.866294
 31
0.0
  0
LINE
  5
444
330
1D
100
AcDbEntity
  8
boundary
 62
     5
100
AcDbLine
 39
2.0
 10
568.900173
 20
707.866294
 30
0.0
 11
569.416826
 21
708.439042
 31
0.0
  0
LINE
  5
445
330
1D
100
AcDbEntity
  8
boundary
 62
     5
100
AcDbLine
 39
2.0
 10
569.416826
 20
708.439042
 30
0.0
 11
572.344527
 21
711.684611
 31
0.0
  0
LINE
  5
446
330
1D
100
AcDbEntity
  8
boundary
 62
     5
100
AcDbLine
 39
2.0
 10
572.344527
 20
711.684611
 30
0.0
 11
581.524574
 21
713.415165
 31
0.0
  0
LINE
  5
447
330
1D
100
AcDbEntity
  8
boundary
 62
     5
100
AcDbLine
 39
2.0
 10
581.524574
 20
713.415165
 30
0.0
 11
633.544834
 21
723.221634
 31
0.0
  0
LINE
  5
448
330
1D
100
AcDbEntity
  8
boundary
 62
     5
100
AcDbLine
 39
2.0
 10
633.544834
 20
723.221634
 30
0.0
 11
633.544834
 21
729.221635
 31
0.0
  0
LINE
  5
449
330
1D
100
AcDbEntity
  8
boundary
 62
     5
100
AcDbLine
 39
2.0
 10
633.544834
 20
729.221635
 30
0.0
 11
633.544834
 21
763.221633
 31
0.0
  0
LINE
  5
44A
330
1D
100
AcDbEntity
  8
boundary
 62
     5
100
AcDbLine
 39
2.0
 10
633.544834
 20
763.221633
 30
0.0
 11
581.524574
 21
773.028102
 31
0.0
  0
LINE
  5
44B
330
1D
100
AcDbEntity
  8
boundary
 62
     5
100
AcDbLine
 39
2.0
 10
581.524574
 20
773.028102
 30
0.0
 11
572.344527
 21
774.758656
 31
0.0
  0
LINE
  5
44C
330
1D
100
AcDbEntity
  8
boundary
 62
     5
100
AcDbLine
 39
2.0
 10
572.344527
 20
774.758656
 30
0.0
 11
571.827874
 21
775.331403
 31
0.0
  0
LINE
  5
44D
330
1D
100
AcDbEntity
  8
boundary
 62
     5
100
AcDbLine
 39
2.0
 10
571.827874
 20
775.331403
 30
0.0
 11
568.900173
 21
778.576973
 31
0.0
  0
LINE
  5
44E
330
1D
100
AcDbEntity
  8
boundary
 62
     5
100
AcDbLine
 39
2.0
 10
568.900173
 20
778.576973
 30
0.0
 11
568.327425
 21
779.093626
 31
0.0
  0
LINE
  5
44F
330
1D
100
AcDbEntity
  8
boundary
 62
     5
100
AcDbLine
 39
2.0
 10
568.327425
 20
779.093626
 30
0.0
 11
565.081855
 21
782.021327
 31
0.0
  0
LINE
  5
450
330
1D
100
AcDbEntity
  8
boundary
 62
     5
100
AcDbLine
 39
2.0
 10
565.081855
 20
782.021327
 30
0.0
 11
563.351302
 21
791.201374
 31
0.0
  0
LINE
  5
451
330
1D
100
AcDbEntity
  8
boundary
 62
     5
100
AcDbLine
 39
2.0
 10
563.351302
 20
791.201374
 30
0.0
 11
553.544833
 21
843.221634
 31
0.0
  0
LINE
  5
452
330
1D
100
AcDbEntity
  8
boundary
 62
     5
100
AcDbLine
 39
2.0
 10
553.544833
 20
843.221634
 30
0.0
 11
547.544832
 21
843.221634
 31
0.0
  0
LINE
  5
453
330
1D
100
AcDbEntity
  8
boundary
 62
     5
100
AcDbLine
 39
2.0
 10
547.544832
 20
843.221634
 30
0.0
 11
513.544833
 21
843.221634
 31
0.0
  0
LINE
  5
454
330
1D
100
AcDbEntity
  8
boundary
 62
     5
100
AcDbLine
 39
2.0
 10
513.544833
 20
843.221634
 30
0.0
 11
503.738364
 21
791.201375
 31
0.0
  0
LINE
  5
455
330
1D
100
AcDbEntity
  8
boundary
 62
     5
100
AcDbLine
 39
2.0
 10
503.738364
 20
791.201375
 30
0.0
 11
502.007811
 21
782.021327
 31
0.0
  0
LINE
  5
456
330
1D
100
AcDbEntity
  8
boundary
 62
     5
100
AcDbLine
 39
2.0
 10
502.007811
 20
782.021327
 30
0.0
 11
501.435063
 21
781.504674
 31
0.0
  0
LINE
  5
457
330
1D
100
AcDbEntity
  8
boundary
 62
     5
100
AcDbLine
 39
2.0
 10
501.435063
 20
781.504674
 30
0.0
 11
498.189493
 21
778.576973
 31
0.0
  0
LINE
  5
458
330
1D
100
AcDbEntity
  8
boundary
 62
     5
100
AcDbLine
 39
2.0
 10
498.189493
 20
778.576973
 30
0.0
 11
497.67284
 21
778.004225
 31
0.0
  0
LINE
  5
459
330
1D
100
AcDbEntity
  8
boundary
 62
     5
100
AcDbLine
 39
2.0
 10
497.67284
 20
778.004225
 30
0.0
 11
494.745139
 21
774.758656
 31
0.0
  0
LINE
  5
45A
330
1D
100
AcDbEntity
  8
boundary
 62
     5
100
AcDbLine
 39
2.0
 10
494.745139
 20
774.758656
 30
0.0
 11
442.724879
 21
764.952186
 31
0.0
  0
LINE
  5
45B
330
1D
100
AcDbEntity
  8
boundary
 62
     5
100
AcDbLine
 39
2.0
 10
442.724879
 20
764.952186
 30
0.0
 11
433.544832
 21
763.221633
 31
0.0
  0
LINE
  5
45C
330
1D
100
AcDbEntity
  8
boundary
 62
     5
100
AcDbLine
 39
2.0
 10
433.544832
 20
763.221633
 30
0.0
 11
433.544832
 21
729.221634
 31
0.0
  0
LINE
  5
45D
330
1D
100
AcDbEntity
  8
boundary
 62
     5
100
AcDbLine
 39
2.0
 10
433.544832
 20
729.221634
 30
0.0
 11
433.544832
 21
723.221634
 31
0.0
  0
LINE
  5
45E
330
1D
100
AcDbEntity
  8
boundary
 62
     5
100
AcDbLine
 39
2.0
 10
433.544832
 20
723.221634
 30
0.0
 11
485.565092
 21
713.415165
 31
0.0
  0
LINE
  5
45F
330
1D
100
AcDbEntity
  8
boundary
 62
     5
100
AcDbLine
 39
2.0
 10
485.565092
 20
713.415165
 30
0.0
 11
494.745139
 21
711.684611
 31
0.0
  0
LINE
  5
460
330
1D
100
AcDbEntity
  8
boundary
 62
     5
100
AcDbLine
 39
2.0
 10
494.745139
 20
711.684611
 30
0.0
 11
495.261792
 21
711.111863
 31
0.0
  0
LINE
  5
461
330
1D
100
AcDbEntity
  8
boundary
 62
     5
100
AcDbLine
 39
2.0
 10
495.261792
 20
711.111863
 30
0.0
 11
498.189494
 21
707.866294
 31
0.0
  0
LINE
  5
462
330
1D
100
AcDbEntity
  8
boundary
 62
     5
100
AcDbLine
 39
2.0
 10
498.189494
 20
707.866294
 30
0.0
 11
498.762241
 21
707.349641
 31
0.0
  0
LINE
  5
463
330
1D
100
AcDbEntity
  8
annotation
 62
     1
100
AcDbLine
 39
211.0
 10
533.544833
 20
823.221634
 30
0.0
 11
533.544833
 21
824.650384
 31
0.0
  0
LINE
  5
464
330
1D
100
AcDbEntity
  8
annotation
 62
     1
100
AcDbLine
 39
211.0
 10
533.544833
 20
663.221633
 30
0.0
 11
534.973583
 21
663.221633
 31
0.0
  0
LINE
  5
465
330
1D
100
AcDbEntity
  8
annotation
 62
     1
100
AcDbLine
 39
211.0
 10
520.671054
 20
710.343345
 30
0.0
 11
536.661114
 21
710.343345
 31
0.0
  0
LINE
  5
466
330
1D
100
AcDbEntity
  8
annotation
 62
     1
100
AcDbLine
 39
211.0
 10
536.661114
 20
710.343345
 30
0.0
 11
536.661114
 21
710.343345
 31
0.0
  0
LINE
  5
467
330
1D
100
AcDbEntity
  8
annotation
 62
     1
100
AcDbLine
 39
211.0
 10
536.661114
 20
710.343345
 30
0.0
 11
539.531018
 21
710.601384
 31
0.0
  0
LINE
  5
468
330
1D
100
AcDbEntity
  8
annotation
 62
     1
100
AcDbLine
 39
211.0
 10
539.531018
 20
710.601384
 30
0.0
 11
542.233935
 21
711.345296
 31
0.0
  0
LINE
  5
469
330
1D
100
AcDbEntity
  8
annotation
 62
     1
100
AcDbLine
 39
211.0
 10
542.233935
 20
711.345296
 30
0.0
 11
544.724298
 21
712.529776
 31
0.0
  0
LINE
  5
46A
330
1D
100
AcDbEntity
  8
annotation
 62
     1
100
AcDbLine
 39
211.0
 10
544.724298
 20
712.529776
 30
0.0
 11
546.956542
 21
714.109518
 31
0.0
  0
LINE
  5
46B
330
1D
100
AcDbEntity
  8
annotation
 62
     1
100
AcDbLine
 39
211.0
 10
546.956542
 20
714.109518
 30
0.0
 11
548.885101
 21
716.039217
 31
0.0
  0
LINE
  5
46C
330
1D
100
AcDbEntity
  8
annotation
 62
     1
100
AcDbLine
 39
211.0
 10
548.885101
 20
716.039217
 30
0.0
 11
550.464409
 21
718.273567
 31
0.0
  0
LINE
  5
46D
330
1D
100
AcDbEntity
  8
annotation
 62
     1
100
AcDbLine
 39
211.0
 10
550.464409
 20
718.273567
 30
0.0
 11
551.648901
 21
720.767263
 31
0.0
  0
LINE
  5
46E
330
1D
100
AcDbEntity
  8
annotation
 62
     1
100
AcDbLine
 39
211.0
 10
551.648901
 20
720.767263
 30
0.0
 11
552.393012
 21
723.474998
 31
0.0
  0
LINE
  5
46F
330
1D
100
AcDbEntity
  8
annotation
 62
     1
100
AcDbLine
 39
211.0
 10
552.393012
 20
723.474998
 30
0.0
 11
552.651174
 21
726.351468
 31
0.0
  0
LINE
  5
470
330
1D
100
AcDbEntity
  8
annotation
 62
     1
100
AcDbLine
 39
211.0
 10
552.651174
 20
726.351468
 30
0.0
 11
552.651174
 21
734.317146
 31
0.0
  0
LINE
  5
471
330
1D
100
AcDbEntity
  8
annotation
 62
     1
100
AcDbLine
 39
211.0
 10
552.651174
 20
734.317146
 30
0.0
 11
552.651174
 21
734.317146
 31
0.0
  0
LINE
  5
472
330
1D
100
AcDbEntity
  8
annotation
 62
     1
100
AcDbLine
 39
211.0
 10
552.651174
 20
734.317146
 30
0.0
 11
552.39316
 21
737.192223
 31
0.0
  0
LINE
  5
473
330
1D
100
AcDbEntity
  8
annotation
 62
     1
100
AcDbLine
 39
211.0
 10
552.39316
 20
737.192223
 30
0.0
 11
551.649422
 21
739.896223
 31
0.0
  0
LINE
  5
474
330
1D
100
AcDbEntity
  8
annotation
 62
     1
100
AcDbLine
 39
211.0
 10
551.649422
 20
739.896223
 30
0.0
 11
550.465413
 21
742.384511
 31
0.0
  0
LINE
  5
475
330
1D
100
AcDbEntity
  8
annotation
 62
     1
100
AcDbLine
 39
211.0
 10
550.465413
 20
742.384511
 30
0.0
 11
548.886587
 21
744.61245
 31
0.0
  0
LINE
  5
476
330
1D
100
AcDbEntity
  8
annotation
 62
     1
100
AcDbLine
 39
211.0
 10
548.886587
 20
744.61245
 30
0.0
 11
546.9584
 21
746.535403
 31
0.0
  0
LINE
  5
477
330
1D
100
AcDbEntity
  8
annotation
 62
     1
100
AcDbLine
 39
211.0
 10
546.9584
 20
746.535403
 30
0.0
 11
544.726305
 21
748.108734
 31
0.0
  0
LINE
  5
478
330
1D
100
AcDbEntity
  8
annotation
 62
     1
100
AcDbLine
 39
211.0
 10
544.726305
 20
748.108734
 30
0.0
 11
542.235756
 21
749.287806
 31
0.0
  0
LINE
  5
479
330
1D
100
AcDbEntity
  8
annotation
 62
     1
100
AcDbLine
 39
211.0
 10
542.235756
 20
749.287806
 30
0.0
 11
539.532207
 21
750.027983
 31
0.0
  0
LINE
  5
47A
330
1D
100
AcDbEntity
  8
annotation
 62
     1
100
AcDbLine
 39
211.0
 10
539.532207
 20
750.027983
 30
0.0
 11
536.661114
 21
750.284628
 31
0.0
  0
LINE
  5
47B
330
1D
100
AcDbEntity
  8
annotation
 62
     1
100
AcDbLine
 39
211.0
 10
536.661114
 20
750.284628
 30
0.0
 11
520.671054
 21
750.284628
 31
0.0
  0
LINE
  5
47C
330
1D
100
AcDbEntity
  8
annotation
 62
     1
100
AcDbLine
 39
211.0
 10
520.671054
 20
750.284628
 30
0.0
 11
520.671054
 21
782.350546
 31
0.0
  0
LINE
  5
47D
330
1D
100
AcDbEntity
  8
annotation
 62
     1
100
AcDbLine
 39
211.0
 10
520.671054
 20
782.350546
 30
0.0
 11
552.651174
 21
782.350546
 31
0.0
  0
ENDSEC
  0
SECTION
  2
OBJECTS
  0
DICTIONARY
  5
C
330
0
100
AcDbDictionary
281
     1
  3
ACAD_DETAILVIEWSTYLE
350
482
  3
ACAD_GROUP
350
D
  3
ACAD_IMAGE_DICT
350
484
  3
ACAD_LAYOUT
350
1A
  3
ACAD_MATERIAL
350
19F
  3
ACAD_MLEADERSTYLE
350
1B9
  3
ACAD_MLINESTYLE
350
17
  3
ACAD_PLOTSETTINGS
350
19
  3
ACAD_PLOTSTYLENAME
350
E
  3
ACAD_SCALELIST
350
160
  3
ACAD_SECTIONVIEWSTYLE
350
483
  3
ACAD_TABLESTYLE
350
1A9
  3
ACAD_VISUALSTYLE
350
186
  3
ACDB_RECOMPOSE_DATA
350
487
  3
AcDbVariableDictionary
350
47F
  3
HOST_DOC_SETTINGS
350
1AB
  3
MCS_STREAM_DICT
350
1A5
  0
SUN
  5
1A8
330
15B
100
AcDbSun
 90
        1
290
     0
 63
     7
421
 16777215
 40
1.0
291
     1
 91
  2455826
 92
 54000000
292
     0
 70
     2
 71
   256
280
     1
  0
DICTIONARY
  5
482
102
{ACAD_REACTORS
330
C
102
}
330
C
100
AcDbDictionary
281
     1
  0
DICTIONARY
  5
D
102
{ACAD_REACTORS
330
C
102
}
330
C
100
AcDbDictionary
281
     1
  0
DICTIONARY
  5
484
102
{ACAD_REACTORS
330
C
102
}
330
C
100
AcDbDictionary
281
     1
  0
DICTIONARY
  5
1A
102
{ACAD_REACTORS
330
C
102
}
330
C
100
AcDbDictionary
281
     1
  3
Layout1
350
1C
  3
Model
350
1E
  0
DICTIONARY
  5
19F
102
{ACAD_REACTORS
330
C
102
}
330
C
100
AcDbDictionary
281
     1
  3
ByBlock
350
1A1
  3
ByLayer
350
1A0
  3
Global
350
1A2
  0
DICTIONARY
  5
1B9
102
{ACAD_REACTORS
330
C
102
}
330
C
100
AcDbDictionary
281
     1
  0
DICTIONARY
  5
17
102
{ACAD_REACTORS
330
C
102
}
330
C
100
AcDbDictionary
281
     1
  3
Standard
350
18
  0
DICTIONARY
  5
19
102
{ACAD_REACTORS
330
C
102
}
330
C
100
AcDbDictionary
281
     1
  0
ACDBDICTIONARYWDFLT
  5
E
102
{ACAD_REACTORS
330
C
102
}
330
C
100
AcDbDictionary
281
     1
  3
Normal
350
F
100
AcDbDictionaryWithDefault
340
F
  0
DICTIONARY
  5
160
102
{ACAD_REACTORS
330
C
102
}
330
C
100
AcDbDictionary
281
     1
  3
A0
350
161
  3
A1
350
162
  3
A2
350
163
  3
A3
350
164
  3
A4
350
165
  3
A5
350
166
  3
A6
350
167
  3
A7
350
168
  3
A8
350
169
  3
A9
350
16A
  3
B0
350
16B
  3
B1
350
16C
  3
B2
350
16D
  3
B3
350
16E
  3
B4
350
16F
  3
B5
350
170
  3
B6
350
171
  3
B7
350
172
  3
B8
350
173
  3
B9
350
174
  3
C0
350
175
  3
C1
350
176
  3
C2
350
177
  3
C3
350
178
  3
C4
350
179
  3
C5
350
17A
  3
C6
350
17B
  3
C7
350
17C
  3
C8
350
17D
  3
C9
350
17E
  3
D0
350
17F
  3
D1
350
180
  3
D2
350
181
  0
DICTIONARY
  5
483
102
{ACAD_REACTORS
330
C
102
}
330
C
100
AcDbDictionary
281
     1
  0
DICTIONARY
  5
1A9
102
{ACAD_REACTORS
330
C
102
}
330
C
100
AcDbDictionary
281
     1
  3
Standard
350
1AA
  0
DICTIONARY
  5
186
102
{ACAD_REACTORS
330
C
102
}
330
C
100
AcDbDictionary
281
     1
  3
2dWireframe
350
18B
  3
Basic
350
18E
  3
Brighten
350
192
  3
ColorChange
350
196
  3
Conceptual
350
190
  3
Dim
350
191
  3
EdgeColorOff
350
199
  3
Facepattern
350
195
  3
Flat
350
187
  3
FlatWithEdges
350
188
  3
Gouraud
350
189
  3
GouraudWithEdges
350
18A
  3
Hidden
350
18D
  3
JitterOff
350
197
  3
Linepattern
350
194
  3
OverhangOff
350
198
  3
Realistic
350
18F
  3
Shaded
350
19E
  3
Shaded with edges
350
19D
  3
Shades of Gray
350
19A
  3
Sketchy
350
19B
  3
Thicken
350
193
  3
Wireframe
350
18C
  3
X-Ray
350
19C
  0
XRECORD
  5
487
102
{ACAD_REACTORS
330
C
102
}
330
C
100
AcDbXrecord
280
     1
 90
        1
330
1AA
  0
DICTIONARY
  5
47F
102
{ACAD_REACTORS
330
C
102
}
330
C
100
AcDbDictionary
281
     1
  3
CANNOSCALE
350
480
  3
MSLTSCALE
350
481
  0
DICTIONARY
  5
1AB
102
{ACAD_REACTORS
330
C
102
}
330
C
100
AcDbDictionary
281
     1
  3
NCDocParameters
350
1AC
  0
DICTIONARY
  5
1A5
102
{ACAD_REACTORS
330
C
102
}
330
C
100
AcDbDictionary
281
     1
  3
MC_VERSION_DATA
350
47E
  3
MCS_DOCUMENT_ID
350
1A6
  3
MCS_PARAMS_DATA
350
263
  0
LAYOUT
  5
1C
102
{ACAD_REACTORS
330
1A
102
}
330
1A
100
AcDbPlotSettings
  1

  2
none_device
  4

  6

 40
0.0
 41
0.0
 42
0.0
 43
0.0
 44
0.0
 45
0.0
 46
0.0
 47
0.0
 48
0.0
 49
0.0
140
0.0
141
0.0
142
1.0
143
1.0
 70
   688
 72
     0
 73
     0
 74
     5
  7

 75
    16
 76
     0
 77
     2
 78
   300
147
1.0
148
0.0
149
0.0
100
AcDbLayout
  1
Layout1
 70
     0
 71
     1
 10
0.0
 20
0.0
 11
12.0
 21
9.0
 12
0.0
 22
0.0
 32
0.0
 14
1.000000E+20
 24
1.000000E+20
 34
1.000000E+20
 15
-1.000000E+20
 25
-1.000000E+20
 35
-1.000000E+20
146
0.0
 13
0.0
 23
0.0
 33
0.0
 16
1.0
 26
0.0
 36
0.0
 17
0.0
 27
1.0
 37
0.0
 76
     0
330
1B
  0
LAYOUT
  5
1E
102
{ACAD_REACTORS
330
1A
102
}
330
1A
100
AcDbPlotSettings
  1

  2
none_device
  4
Letter_(8.50_x_11.00_Inches)
  6

 40
6.35
 41
6.35
 42
6.350005
 43
6.350005
 44
215.9
 45
279.4
 46
0.0
 47
0.0
 48
0.0
 49
0.0
140
0.0
141
0.0
142
1.0
143
1.0
 70
  1712
 72
     0
 73
     0
 74
     0
  7

 75
     0
 76
     0
 77
     2
 78
   300
147
1.0
148
0.0
149
0.0
100
AcDbLayout
  1
Model
 70
     1
 71
     0
 10
0.0
 20
0.0
 11
12.0
 21
9.0
 12
0.0
 22
0.0
 32
0.0
 14
1.000000E+20
 24
1.000000E+20
 34
1.000000E+20
 15
-1.000000E+20
 25
-1.000000E+20
 35
-1.000000E+20
146
0.0
 13
0.0
 23
0.0
 33
0.0
 16
1.0
 26
0.0
 36
0.0
 17
0.0
 27
1.0
 37
0.0
 76
     0
330
1D
331
15B
  0
MATERIAL
  5
1A1
102
{ACAD_REACTORS
330
19F
102
}
330
19F
100
AcDbMaterial
  1
ByBlock
 72
     1
 94
      127
  0
MATERIAL
  5
1A0
102
{ACAD_REACTORS
330
19F
102
}
330
19F
100
AcDbMaterial
  1
ByLayer
 72
     1
 94
      127
  0
MATERIAL
  5
1A2
102
{ACAD_REACTORS
330
19F
102
}
330
19F
100
AcDbMaterial
  1
Global
 72
     1
 94
      127
  0
MLINESTYLE
  5
18
102
{ACAD_REACTORS
330
17
102
}
330
17
100
AcDbMlineStyle
  2
Standard
 70
     0
  3

 62
   256
 51
90.0
 52
90.0
 71
     2
 49
0.5
 62
   256
  6
BYLAYER
 49
-0.5
 62
   256
  6
BYLAYER
  0
ACDBPLACEHOLDER
  5
F
102
{ACAD_REACTORS
330
E
102
}
330
E
  0
SCALE
  5
161
102
{ACAD_REACTORS
330
160
102
}
330
160
100
AcDbScale
 70
     0
300
1:1
140
1.0
141
1.0
290
     1
  0
SCALE
  5
162
102
{ACAD_REACTORS
330
160
102
}
330
160
100
AcDbScale
 70
     0
300
1:2
140
1.0
141
2.0
290
     0
  0
SCALE
  5
163
102
{ACAD_REACTORS
330
160
102
}
330
160
100
AcDbScale
 70
     0
300
1:4
140
1.0
141
4.0
290
     0
  0
SCALE
  5
164
102
{ACAD_REACTORS
330
160
102
}
330
160
100
AcDbScale
 70
     0
300
1:5
140
1.0
141
5.0
290
     0
  0
SCALE
  5
165
102
{ACAD_REACTORS
330
160
102
}
330
160
100
AcDbScale
 70
     0
300
1:8
140
1.0
141
8.0
290
     0
  0
SCALE
  5
166
102
{ACAD_REACTORS
330
160
102
}
330
160
100
AcDbScale
 70
     0
300
1:10
140
1.0
141
10.0
290
     0
  0
SCALE
  5
167
102
{ACAD_REACTORS
330
160
102
}
330
160
100
AcDbScale
 70
     0
300
1:16
140
1.0
141
16.0
290
     0
  0
SCALE
  5
168
102
{ACAD_REACTORS
330
160
102
}
330
160
100
AcDbScale
 70
     0
300
1:20
140
1.0
141
20.0
290
     0
  0
SCALE
  5
169
102
{ACAD_REACTORS
330
160
102
}
330
160
100
AcDbScale
 70
     0
300
1:30
140
1.0
141
30.0
290
     0
  0
SCALE
  5
16A
102
{ACAD_REACTORS
330
160
102
}
330
160
100
AcDbScale
 70
     0
300
1:40
140
1.0
141
40.0
290
     0
  0
SCALE
  5
16B
102
{ACAD_REACTORS
330
160
102
}
330
160
100
AcDbScale
 70
     0
300
1:50
140
1.0
141
50.0
290
     0
  0
SCALE
  5
16C
102
{ACAD_REACTORS
330
160
102
}
330
160
100
AcDbScale
 70
     0
300
1:100
140
1.0
141
100.0
290
     0
  0
SCALE
  5
16D
102
{ACAD_REACTORS
330
160
102
}
330
160
100
AcDbScale
 70
     0
300
2:1
140
2.0
141
1.0
290
     0
  0
SCALE
  5
16E
102
{ACAD_REACTORS
330
160
102
}
330
160
100
AcDbScale
 70
     0
300
4:1
140
4.0
141
1.0
290
     0
  0
SCALE
  5
16F
102
{ACAD_REACTORS
330
160
102
}
330
160
100
AcDbScale
 70
     0
300
8:1
140
8.0
141
1.0
290
     0
  0
SCALE
  5
170
102
{ACAD_REACTORS
330
160
102
}
330
160
100
AcDbScale
 70
     0
300
10:1
140
10.0
141
1.0
290
     0
  0
SCALE
  5
171
102
{ACAD_REACTORS
330
160
102
}
330
160
100
AcDbScale
 70
     0
300
100:1
140
100.0
141
1.0
290
     0
  0
SCALE
  5
172
102
{ACAD_REACTORS
330
160
102
}
330
160
100
AcDbScale
 70
     0
300
1/128" = 1'-0"
140
0.007812
141
12.0
290
     0
  0
SCALE
  5
173
102
{ACAD_REACTORS
330
160
102
}
330
160
100
AcDbScale
 70
     0
300
1/64" = 1'-0"
140
0.015625
141
12.0
290
     0
  0
SCALE
  5
174
102
{ACAD_REACTORS
330
160
102
}
330
160
100
AcDbScale
 70
     0
300
1/32" = 1'-0"
140
0.03125
141
12.0
290
     0
  0
SCALE
  5
175
102
{ACAD_REACTORS
330
160
102
}
330
160
100
AcDbScale
 70
     0
300
1/16" = 1'-0"
140
0.0625
141
12.0
290
     0
  0
SCALE
  5
176
102
{ACAD_REACTORS
330
160
102
}
330
160
100
AcDbScale
 70
     0
300
3/32" = 1'-0"
140
0.09375
141
12.0
290
     0
  0
SCALE
  5
177
102
{ACAD_REACTORS
330
160
102
}
330
160
100
AcDbScale
 70
     0
300
1/8" = 1'-0"
140
0.125
141
12.0
290
     0
  0
SCALE
  5
178
102
{ACAD_REACTORS
330
160
102
}
330
160
100
AcDbScale
 70
     0
300
3/16" = 1'-0"
140
0.1875
141
12.0
290
     0
  0
SCALE
  5
179
102
{ACAD_REACTORS
330
160
102
}
330
160
100
AcDbScale
 70
     0
300
1/4" = 1'-0"
140
0.25
141
12.0
290
     0
  0
SCALE
  5
17A
102
{ACAD_REACTORS
330
160
102
}
330
160
100
AcDbScale
 70
     0
300
3/8" = 1'-0"
140
0.375
141
12.0
290
     0
  0
SCALE
  5
17B
102
{ACAD_REACTORS
330
160
102
}
330
160
100
AcDbScale
 70
     0
300
1/2" = 1'-0"
140
0.5
141
12.0
290
     0
  0
SCALE
  5
17C
102
{ACAD_REACTORS
330
160
102
}
330
160
100
AcDbScale
 70
     0
300
3/4" = 1'-0"
140
0.75
141
12.0
290
     0
  0
SCALE
  5
17D
102
{ACAD_REACTORS
330
160
102
}
330
160
100
AcDbScale
 70
     0
300
1" = 1'-0"
140
1.0
141
12.0
290
     0
  0
SCALE
  5
17E
102
{ACAD_REACTORS
330
160
102
}
330
160
100
AcDbScale
 70
     0
300
1-1/2" = 1'-0"
140
1.5
141
12.0
290
     0
  0
SCALE
  5
17F
102
{ACAD_REACTORS
330
160
102
}
330
160
100
AcDbScale
 70
     0
300
3" = 1'-0"
140
3.0
141
12.0
290
     0
  0
SCALE
  5
180
102
{ACAD_REACTORS
330
160
102
}
330
160
100
AcDbScale
 70
     0
300
6" = 1'-0"
140
6.0
141
12.0
290
     0
  0
SCALE
  5
181
102
{ACAD_REACTORS
330
160
102
}
330
160
100
AcDbScale
 70
     0
300
1'-0" = 1'-0"
140
12.0
141
12.0
290
     0
  0
TABLESTYLE
  5
1AA
102
{ACAD_REACTORS
330
1A9
102
}
102
{ACAD_XDICTIONARY
360
485
102
}
330
1A9
100
AcDbTableStyle
  3
Standard
 70
     0
 71
     8
 40
1.5
 41
1.5
280
     0
281
     0
  7
Standard
140
4.5
170
     2
 62
     0
 63
   257
283
     0
 90
        4
 91
        0
  1

274
    -2
284
     1
 64
     0
275
    -2
285
     1
 65
     0
276
    -2
286
     1
 66
     0
277
    -2
287
     1
 67
     0
278
    -2
288
     1
 68
     0
279
    -2
289
     1
 69
     0
  7
Standard
140
6.0
170
     5
 62
     0
 63
   257
283
     0
 90
        4
 91
        0
  1

274
    -2
284
     1
 64
     0
275
    -2
285
     1
 65
     0
276
    -2
286
     1
 66
     0
277
    -2
287
     1
 67
     0
278
    -2
288
     1
 68
     0
279
    -2
289
     1
 69
     0
  7
Standard
140
4.5
170
     5
 62
     0
 63
   257
283
     0
 90
        4
 91
        0
  1

274
    -2
284
     1
 64
     0
275
    -2
285
     1
 65
     0
276
    -2
286
     1
 66
     0
277
    -2
287
     1
 67
     0
278
    -2
288
     1
 68
     0
279
    -2
289
     1
 69
     0
  0
VISUALSTYLE
  5
18B
102
{ACAD_REACTORS
330
186
102
}
330
186
100
AcDbVisualStyle
  2
2dWireframe
 70
     4
177
     3
291
     0
 70
    58
 90
        0
176
     1
 90
        2
176
     1
 90
        0
176
     1
 90
        0
176
     1
 40
0.6
176
     1
 40
30.0
176
     1
 62
     7
420
 16777215
176
     1
 90
        1
176
     1
 90
        4
176
     1
 62
     7
176
     1
 62
   257
176
     1
 90
        1
176
     1
 90
        1
176
     1
 40
1.0
176
     1
 90
        0
176
     1
 62
   257
176
     1
 40
1.0
176
     1
 90
        1
176
     1
 90
        6
176
     1
 90
        2
176
     1
 62
     7
176
     1
 90
        5
176
     1
 90
        0
176
     1
 90
        0
176
     1
290
     0
176
     1
 90
        1
176
     1
 40
0.0
176
     1
 90
        0
176
     1
290
     1
176
     1
290
     1
176
     1
290
     0
176
     1
290
     0
176
     1
290
     0
176
     1
290
     0
176
     1
290
     0
176
     1
290
     0
176
     1
290
     0
176
     1
 90
       50
176
     1
 40
0.0
176
     1
 40
1.0
176
     1
 90
        0
176
     1
 62
    18
420
        0
176
     1
 90
       50
176
     1
 90
        3
176
     1
 62
     5
420
      255
176
     1
290
     0
176
     1
 90
       50
176
     1
 90
       50
176
     1
 90
       50
176
     1
290
     0
176
     1
 90
       50
176
     1
 62
   256
176
     0
 40
1.0
176
     0
 90
        2
176
     1
  1
strokes_ogs.tif
176
     1
290
     0
176
     1
 40
1.0
176
     1
 40
1.0
176
     1
  0
VISUALSTYLE
  5
18E
102
{ACAD_REACTORS
330
186
102
}
330
186
100
AcDbVisualStyle
  2
Basic
 70
     7
177
     3
291
     1
 70
    58
 90
        1
176
     1
 90
        0
176
     1
 90
        1
176
     1
 90
        0
176
     1
 40
0.6
176
     1
 40
30.0
176
     1
 62
     7
420
 16777215
176
     1
 90
        0
176
     1
 90
        4
176
     1
 62
     7
176
     1
 62
   257
176
     1
 90
        1
176
     1
 90
        1
176
     1
 40
1.0
176
     1
 90
        8
176
     1
 62
     7
176
     1
 40
1.0
176
     1
 90
        1
176
     1
 90
        6
176
     1
 90
        2
176
     1
 62
     7
176
     1
 90
        5
176
     1
 90
        0
176
     1
 90
        0
176
     1
290
     0
176
     1
 90
        1
176
     1
 40
0.0
176
     1
 90
        0
176
     1
290
     0
176
     1
290
     1
176
     1
290
     1
176
     1
290
     0
176
     1
290
     0
176
     1
290
     0
176
     1
290
     0
176
     1
290
     0
176
     1
290
     0
176
     1
 90
       50
176
     1
 40
0.0
176
     1
 40
1.0
176
     1
 90
        0
176
     1
 62
    18
420
        0
176
     1
 90
       50
176
     1
 90
        3
176
     1
 62
     5
420
      255
176
     1
290
     0
176
     1
 90
       50
176
     1
 90
       50
176
     1
 90
       50
176
     1
290
     0
176
     1
 90
       50
176
     1
 62
   256
176
     0
 40
1.0
176
     0
 90
        2
176
     1
  1
strokes_ogs.tif
176
     1
290
     0
176
     1
 40
1.0
176
     1
 40
1.0
176
     1
  0
VISUALSTYLE
  5
192
102
{ACAD_REACTORS
330
186
102
}
330
186
100
AcDbVisualStyle
  2
Brighten
 70
    12
177
     3
291
     1
 70
    58
 90
        2
176
     1
 90
        2
176
     1
 90
        0
176
     1
 90
        0
176
     1
 40
0.6
176
     1
 40
30.0
176
     1
 62
     7
420
 16777215
176
     1
 90
        1
176
     1
 90
        4
176
     1
 62
     7
176
     1
 62
   257
176
     1
 90
        1
176
     1
 90
        1
176
     1
 40
1.0
176
     1
 90
        8
176
     1
 62
     7
176
     1
 40
1.0
176
     1
 90
        1
176
     1
 90
        6
176
     1
 90
        2
176
     1
 62
     7
176
     1
 90
        5
176
     1
 90
        0
176
     1
 90
        0
176
     1
290
     0
176
     1
 90
        1
176
     1
 40
50.0
176
     1
 90
        0
176
     1
290
     0
176
     1
290
     1
176
     1
290
     1
176
     1
290
     0
176
     1
290
     0
176
     1
290
     0
176
     1
290
     0
176
     1
290
     0
176
     1
290
     0
176
     1
 90
       50
176
     1
 40
0.0
176
     1
 40
1.0
176
     1
 90
        0
176
     1
 62
    18
420
        0
176
     1
 90
       50
176
     1
 90
        3
176
     1
 62
     5
420
      255
176
     1
290
     0
176
     1
 90
       50
176
     1
 90
       50
176
     1
 90
       50
176
     1
290
     0
176
     1
 90
       50
176
     1
 62
   256
176
     0
 40
1.0
176
     0
 90
        2
176
     1
  1
strokes_ogs.tif
176
     1
290
     0
176
     1
 40
1.0
176
     1
 40
1.0
176
     1
  0
VISUALSTYLE
  5
196
102
{ACAD_REACTORS
330
186
102
}
330
186
100
AcDbVisualStyle
  2
ColorChange
 70
    16
177
     3
291
     1
 70
    58
 90
        2
176
     1
 90
        2
176
     1
 90
        3
176
     1
 90
        0
176
     1
 40
0.6
176
     1
 40
30.0
176
     1
 62
     8
420
  8421504
176
     1
 90
        1
176
     1
 90
        4
176
     1
 62
     7
176
     1
 62
   257
176
     1
 90
        1
176
     1
 90
        1
176
     1
 40
1.0
176
     1
 90
        8
176
     1
 62
     8
420
  8421504
176
     1
 40
1.0
176
     1
 90
        1
176
     1
 90
        6
176
     1
 90
        2
176
     1
 62
     7
176
     1
 90
        5
176
     1
 90
        0
176
     1
 90
        0
176
     1
290
     0
176
     1
 90
        1
176
     1
 40
0.0
176
     1
 90
        0
176
     1
290
     0
176
     1
290
     1
176
     1
290
     1
176
     1
290
     0
176
     1
290
     0
176
     1
290
     0
176
     1
290
     0
176
     1
290
     0
176
     1
290
     0
176
     1
 90
       50
176
     1
 40
0.0
176
     1
 40
1.0
176
     1
 90
        0
176
     1
 62
    18
420
        0
176
     1
 90
       50
176
     1
 90
        3
176
     1
 62
     5
420
      255
176
     1
290
     0
176
     1
 90
       50
176
     1
 90
       50
176
     1
 90
       50
176
     1
290
     0
176
     1
 90
       50
176
     1
 62
   256
176
     0
 40
1.0
176
     0
 90
        2
176
     1
  1
strokes_ogs.tif
176
     1
290
     0
176
     1
 40
1.0
176
     1
 40
1.0
176
     1
  0
VISUALSTYLE
  5
190
102
{ACAD_REACTORS
330
186
102
}
330
186
100
AcDbVisualStyle
  2
Conceptual
 70
     9
177
     3
291
     0
 70
    58
 90
        3
176
     1
 90
        2
176
     1
 90
        0
176
     1
 90
        0
176
     1
 40
0.6
176
     1
 40
30.0
176
     1
 62
     7
420
 16777215
176
     1
 90
        2
176
     1
 90
        2
176
     1
 62
     7
176
     1
 62
   257
176
     1
 90
        1
176
     1
 90
        1
176
     1
 40
179.0
176
     1
 90
        8
176
     1
 62
     7
176
     1
 40
1.0
176
     1
 90
        1
176
     1
 90
        6
176
     1
 90
        2
176
     1
 62
     7
176
     1
 90
        3
176
     1
 90
        0
176
     1
 90
        0
176
     1
290
     0
176
     1
 90
        1
176
     1
 40
0.0
176
     1
 90
        0
176
     1
290
     0
176
     1
290
     1
176
     1
290
     1
176
     1
290
     0
176
     1
290
     0
176
     1
290
     0
176
     1
290
     0
176
     1
290
     0
176
     1
290
     0
176
     1
 90
       50
176
     1
 40
0.0
176
     1
 40
1.0
176
     1
 90
        0
176
     1
 62
    18
420
        0
176
     1
 90
       50
176
     1
 90
        3
176
     1
 62
     5
420
      255
176
     1
290
     0
176
     1
 90
       50
176
     1
 90
       50
176
     1
 90
       50
176
     1
290
     0
176
     1
 90
       50
176
     1
 62
   256
176
     0
 40
1.0
176
     0
 90
        2
176
     1
  1
strokes_ogs.tif
176
     1
290
     0
176
     1
 40
1.0
176
     1
 40
1.0
176
     1
  0
VISUALSTYLE
  5
191
102
{ACAD_REACTORS
330
186
102
}
330
186
100
AcDbVisualStyle
  2
Dim
 70
    11
177
     3
291
     1
 70
    58
 90
        2
176
     1
 90
        2
176
     1
 90
        0
176
     1
 90
        0
176
     1
 40
0.6
176
     1
 40
30.0
176
     1
 62
     7
420
 16777215
176
     1
 90
        1
176
     1
 90
        4
176
     1
 62
     7
176
     1
 62
   257
176
     1
 90
        1
176
     1
 90
        1
176
     1
 40
1.0
176
     1
 90
        8
176
     1
 62
     7
176
     1
 40
1.0
176
     1
 90
        1
176
     1
 90
        6
176
     1
 90
        2
176
     1
 62
     7
176
     1
 90
        5
176
     1
 90
        0
176
     1
 90
        0
176
     1
290
     0
176
     1
 90
        1
176
     1
 40
-50.0
176
     1
 90
        0
176
     1
290
     0
176
     1
290
     1
176
     1
290
     1
176
     1
290
     0
176
     1
290
     0
176
     1
290
     0
176
     1
290
     0
176
     1
290
     0
176
     1
290
     0
176
     1
 90
       50
176
     1
 40
0.0
176
     1
 40
1.0
176
     1
 90
        0
176
     1
 62
    18
420
        0
176
     1
 90
       50
176
     1
 90
        3
176
     1
 62
     5
420
      255
176
     1
290
     0
176
     1
 90
       50
176
     1
 90
       50
176
     1
 90
       50
176
     1
290
     0
176
     1
 90
       50
176
     1
 62
   256
176
     0
 40
1.0
176
     0
 90
        2
176
     1
  1
strokes_ogs.tif
176
     1
290
     0
176
     1
 40
1.0
176
     1
 40
1.0
176
     1
  0
VISUALSTYLE
  5
199
102
{ACAD_REACTORS
330
186
102
}
330
186
100
AcDbVisualStyle
  2
EdgeColorOff
 70
    22
177
     3
291
     1
 70
    58
 90
        2
176
     0
 90
        2
176
     0
 90
        0
176
     0
 90
        0
176
     0
 40
0.6
176
     0
 40
30.0
176
     0
 62
     7
420
 16777215
176
     0
 90
        1
176
     0
 90
        4
176
     0
 62
     7
176
     0
 62
   257
176
     0
 90
        1
176
     0
 90
        1
176
     0
 40
1.0
176
     0
 90
        8
176
     2
 62
     7
176
     0
 40
1.0
176
     0
 90
        1
176
     0
 90
        6
176
     0
 90
        2
176
     0
 62
     7
176
     0
 90
        5
176
     0
 90
        0
176
     0
 90
        0
176
     0
290
     0
176
     0
 90
        1
176
     0
 40
0.0
176
     0
 90
        0
176
     0
290
     0
176
     0
290
     1
176
     0
290
     1
176
     0
290
     0
176
     0
290
     0
176
     0
290
     0
176
     0
290
     0
176
     0
290
     0
176
     0
290
     0
176
     0
 90
       50
176
     0
 40
0.0
176
     0
 40
1.0
176
     0
 90
        0
176
     0
 62
    18
420
        0
176
     0
 90
       50
176
     0
 90
        3
176
     0
 62
     5
420
      255
176
     0
290
     0
176
     0
 90
       50
176
     0
 90
       50
176
     0
 90
       50
176
     0
290
     0
176
     0
 90
       50
176
     0
 62
   256
176
     0
 40
1.0
176
     0
 90
        2
176
     0
  1
strokes_ogs.tif
176
     0
290
     0
176
     0
 40
1.0
176
     0
 40
1.0
176
     0
  0
VISUALSTYLE
  5
195
102
{ACAD_REACTORS
330
186
102
}
330
186
100
AcDbVisualStyle
  2
Facepattern
 70
    15
177
     3
291
     1
 70
    58
 90
        2
176
     1
 90
        2
176
     1
 90
        0
176
     1
 90
        0
176
     1
 40
0.6
176
     1
 40
30.0
176
     1
 62
     7
420
 16777215
176
     1
 90
        1
176
     1
 90
        4
176
     1
 62
     7
176
     1
 62
   257
176
     1
 90
        1
176
     1
 90
        1
176
     1
 40
1.0
176
     1
 90
        8
176
     1
 62
     7
176
     1
 40
1.0
176
     1
 90
        1
176
     1
 90
        6
176
     1
 90
        2
176
     1
 62
     7
176
     1
 90
        5
176
     1
 90
        0
176
     1
 90
        0
176
     1
290
     0
176
     1
 90
        1
176
     1
 40
0.0
176
     1
 90
        0
176
     1
290
     0
176
     1
290
     1
176
     1
290
     1
176
     1
290
     0
176
     1
290
     0
176
     1
290
     0
176
     1
290
     0
176
     1
290
     0
176
     1
290
     0
176
     1
 90
       50
176
     1
 40
0.0
176
     1
 40
1.0
176
     1
 90
        0
176
     1
 62
    18
420
        0
176
     1
 90
       50
176
     1
 90
        3
176
     1
 62
     5
420
      255
176
     1
290
     0
176
     1
 90
       50
176
     1
 90
       50
176
     1
 90
       50
176
     1
290
     0
176
     1
 90
       50
176
     1
 62
   256
176
     0
 40
1.0
176
     0
 90
        2
176
     1
  1
strokes_ogs.tif
176
     1
290
     0
176
     1
 40
1.0
176
     1
 40
1.0
176
     1
  0
VISUALSTYLE
  5
187
102
{ACAD_REACTORS
330
186
102
}
330
186
100
AcDbVisualStyle
  2
Flat
 70
     0
177
     3
291
     1
 70
    58
 90
        2
176
     1
 90
        1
176
     1
 90
        1
176
     1
 90
        2
176
     1
 40
0.6
176
     1
 40
30.0
176
     1
 62
     7
420
 16777215
176
     1
 90
        0
176
     1
 90
        0
176
     1
 62
     7
176
     1
 62
   257
176
     1
 90
        1
176
     1
 90
        1
176
     1
 40
1.0
176
     1
 90
        8
176
     1
 62
     7
176
     1
 40
1.0
176
     1
 90
        1
176
     1
 90
        6
176
     1
 90
        2
176
     1
 62
     7
176
     1
 90
        5
176
     1
 90
        0
176
     1
 90
        0
176
     1
290
     0
176
     1
 90
       13
176
     1
 40
0.0
176
     1
 90
        0
176
     1
290
     0
176
     1
290
     1
176
     1
290
     1
176
     1
290
     0
176
     1
290
     0
176
     1
290
     0
176
     1
290
     0
176
     1
290
     0
176
     1
290
     0
176
     1
 90
       50
176
     1
 40
0.0
176
     1
 40
1.0
176
     1
 90
        0
176
     1
 62
    18
420
        0
176
     1
 90
       50
176
     1
 90
        3
176
     1
 62
     5
420
      255
176
     1
290
     0
176
     1
 90
       50
176
     1
 90
       50
176
     1
 90
       50
176
     1
290
     0
176
     1
 90
       50
176
     1
 62
   256
176
     0
 40
1.0
176
     0
 90
        2
176
     1
  1
strokes_ogs.tif
176
     1
290
     0
176
     1
 40
1.0
176
     1
 40
1.0
176
     1
  0
VISUALSTYLE
  5
188
102
{ACAD_REACTORS
330
186
102
}
330
186
100
AcDbVisualStyle
  2
FlatWithEdges
 70
     1
177
     3
291
     1
 70
    58
 90
        2
176
     1
 90
        1
176
     1
 90
        1
176
     1
 90
        2
176
     1
 40
0.6
176
     1
 40
30.0
176
     1
 62
     7
420
 16777215
176
     1
 90
        1
176
     1
 90
        0
176
     1
 62
     7
176
     1
 62
   257
176
     1
 90
        1
176
     1
 90
        1
176
     1
 40
1.0
176
     1
 90
        0
176
     1
 62
   257
176
     1
 40
1.0
176
     1
 90
        1
176
     1
 90
        6
176
     1
 90
        2
176
     1
 62
     7
176
     1
 90
        5
176
     1
 90
        0
176
     1
 90
        0
176
     1
290
     0
176
     1
 90
       13
176
     1
 40
0.0
176
     1
 90
        0
176
     1
290
     0
176
     1
290
     1
176
     1
290
     1
176
     1
290
     0
176
     1
290
     0
176
     1
290
     0
176
     1
290
     0
176
     1
290
     0
176
     1
290
     0
176
     1
 90
       50
176
     1
 40
0.0
176
     1
 40
1.0
176
     1
 90
        0
176
     1
 62
    18
420
        0
176
     1
 90
       50
176
     1
 90
        3
176
     1
 62
     5
420
      255
176
     1
290
     0
176
     1
 90
       50
176
     1
 90
       50
176
     1
 90
       50
176
     1
290
     0
176
     1
 90
       50
176
     1
 62
   256
176
     0
 40
1.0
176
     0
 90
        2
176
     1
  1
strokes_ogs.tif
176
     1
290
     0
176
     1
 40
1.0
176
     1
 40
1.0
176
     1
  0
VISUALSTYLE
  5
189
102
{ACAD_REACTORS
330
186
102
}
330
186
100
AcDbVisualStyle
  2
Gouraud
 70
     2
177
     3
291
     1
 70
    58
 90
        2
176
     1
 90
        2
176
     1
 90
        1
176
     1
 90
        2
176
     1
 40
0.6
176
     1
 40
30.0
176
     1
 62
     7
420
 16777215
176
     1
 90
        0
176
     1
 90
        0
176
     1
 62
     7
176
     1
 62
   257
176
     1
 90
        1
176
     1
 90
        1
176
     1
 40
1.0
176
     1
 90
        0
176
     1
 62
     7
176
     1
 40
1.0
176
     1
 90
        1
176
     1
 90
        6
176
     1
 90
        2
176
     1
 62
     7
176
     1
 90
        5
176
     1
 90
        0
176
     1
 90
        0
176
     1
290
     0
176
     1
 90
       13
176
     1
 40
0.0
176
     1
 90
        0
176
     1
290
     0
176
     1
290
     1
176
     1
290
     1
176
     1
290
     0
176
     1
290
     0
176
     1
290
     0
176
     1
290
     0
176
     1
290
     0
176
     1
290
     0
176
     1
 90
       50
176
     1
 40
0.0
176
     1
 40
1.0
176
     1
 90
        0
176
     1
 62
    18
420
        0
176
     1
 90
       50
176
     1
 90
        3
176
     1
 62
     5
420
      255
176
     1
290
     0
176
     1
 90
       50
176
     1
 90
       50
176
     1
 90
       50
176
     1
290
     0
176
     1
 90
       50
176
     1
 62
   256
176
     0
 40
1.0
176
     0
 90
        2
176
     1
  1
strokes_ogs.tif
176
     1
290
     0
176
     1
 40
1.0
176
     1
 40
1.0
176
     1
  0
VISUALSTYLE
  5
18A
102
{ACAD_REACTORS
330
186
102
}
330
186
100
AcDbVisualStyle
  2
GouraudWithEdges
 70
     3
177
     3
291
     1
 70
    58
 90
        2
176
     1
 90
        2
176
     1
 90
        1
176
     1
 90
        2
176
     1
 40
0.6
176
     1
 40
30.0
176
     1
 62
     7
420
 16777215
176
     1
 90
        1
176
     1
 90
        0
176
     1
 62
     7
176
     1
 62
   257
176
     1
 90
        1
176
     1
 90
        1
176
     1
 40
1.0
176
     1
 90
        0
176
     1
 62
   257
176
     1
 40
1.0
176
     1
 90
        1
176
     1
 90
        6
176
     1
 90
        2
176
     1
 62
     7
176
     1
 90
        5
176
     1
 90
        0
176
     1
 90
        0
176
     1
290
     0
176
     1
 90
       13
176
     1
 40
0.0
176
     1
 90
        0
176
     1
290
     0
176
     1
290
     1
176
     1
290
     1
176
     1
290
     0
176
     1
290
     0
176
     1
290
     0
176
     1
290
     0
176
     1
290
     0
176
     1
290
     0
176
     1
 90
       50
176
     1
 40
0.0
176
     1
 40
1.0
176
     1
 90
        0
176
     1
 62
    18
420
        0
176
     1
 90
       50
176
     1
 90
        3
176
     1
 62
     5
420
      255
176
     1
290
     0
176
     1
 90
       50
176
     1
 90
       50
176
     1
 90
       50
176
     1
290
     0
176
     1
 90
       50
176
     1
 62
   256
176
     0
 40
1.0
176
     0
 90
        2
176
     1
  1
strokes_ogs.tif
176
     1
290
     0
176
     1
 40
1.0
176
     1
 40
1.0
176
     1
  0
VISUALSTYLE
  5
18D
102
{ACAD_REACTORS
330
186
102
}
330
186
100
AcDbVisualStyle
  2
Hidden
 70
     6
177
     3
291
     0
 70
    58
 90
        1
176
     1
 90
        2
176
     1
 90
        2
176
     1
 90
        0
176
     1
 40
0.6
176
     1
 40
30.0
176
     1
 62
     7
420
 16777215
176
     1
 90
        2
176
     1
 90
        2
176
     1
 62
     7
176
     1
 62
   257
176
     1
 90
        2
176
     1
 90
        1
176
     1
 40
40.0
176
     1
 90
        0
176
     1
 62
   257
176
     1
 40
1.0
176
     1
 90
        1
176
     1
 90
        6
176
     1
 90
        2
176
     1
 62
     7
176
     1
 90
        3
176
     1
 90
        0
176
     1
 90
        0
176
     1
290
     0
176
     1
 90
        1
176
     1
 40
0.0
176
     1
 90
        0
176
     1
290
     0
176
     1
290
     1
176
     1
290
     1
176
     1
290
     0
176
     1
290
     0
176
     1
290
     0
176
     1
290
     0
176
     1
290
     0
176
     1
290
     0
176
     1
 90
       50
176
     1
 40
0.0
176
     1
 40
1.0
176
     1
 90
        0
176
     1
 62
    18
420
        0
176
     1
 90
       50
176
     1
 90
        3
176
     1
 62
     5
420
      255
176
     1
290
     0
176
     1
 90
       50
176
     1
 90
       50
176
     1
 90
       50
176
     1
290
     0
176
     1
 90
       50
176
     1
 62
   256
176
     0
 40
1.0
176
     0
 90
        2
176
     1
  1
strokes_ogs.tif
176
     1
290
     0
176
     1
 40
1.0
176
     1
 40
1.0
176
     1
  0
VISUALSTYLE
  5
197
102
{ACAD_REACTORS
330
186
102
}
330
186
100
AcDbVisualStyle
  2
JitterOff
 70
    20
177
     3
291
     1
 70
    58
 90
        2
176
     0
 90
        2
176
     0
 90
        0
176
     0
 90
        0
176
     0
 40
0.6
176
     0
 40
30.0
176
     0
 62
     7
420
 16777215
176
     0
 90
        1
176
     0
 90
        4
176
     0
 62
     7
176
     0
 62
   257
176
     0
 90
        1
176
     0
 90
        1
176
     0
 40
1.0
176
     0
 90
       10
176
     2
 62
     7
176
     0
 40
1.0
176
     0
 90
        1
176
     0
 90
        6
176
     0
 90
        2
176
     0
 62
     7
176
     0
 90
        5
176
     0
 90
        0
176
     0
 90
        0
176
     0
290
     0
176
     0
 90
        1
176
     0
 40
0.0
176
     0
 90
        0
176
     0
290
     0
176
     0
290
     1
176
     0
290
     1
176
     0
290
     0
176
     0
290
     0
176
     0
290
     0
176
     0
290
     0
176
     0
290
     0
176
     0
290
     0
176
     0
 90
       50
176
     0
 40
0.0
176
     0
 40
1.0
176
     0
 90
        0
176
     0
 62
    18
420
        0
176
     0
 90
       50
176
     0
 90
        3
176
     0
 62
     5
420
      255
176
     0
290
     0
176
     0
 90
       50
176
     0
 90
       50
176
     0
 90
       50
176
     0
290
     0
176
     0
 90
       50
176
     0
 62
   256
176
     0
 40
1.0
176
     0
 90
        2
176
     0
  1
strokes_ogs.tif
176
     0
290
     0
176
     0
 40
1.0
176
     0
 40
1.0
176
     0
  0
VISUALSTYLE
  5
194
102
{ACAD_REACTORS
330
186
102
}
330
186
100
AcDbVisualStyle
  2
Linepattern
 70
    14
177
     3
291
     1
 70
    58
 90
        2
176
     1
 90
        2
176
     1
 90
        0
176
     1
 90
        0
176
     1
 40
0.6
176
     1
 40
30.0
176
     1
 62
     7
420
 16777215
176
     1
 90
        1
176
     1
 90
        4
176
     1
 62
     7
176
     1
 62
   257
176
     1
 90
        7
176
     1
 90
        7
176
     1
 40
1.0
176
     1
 90
        8
176
     1
 62
     7
176
     1
 40
1.0
176
     1
 90
        1
176
     1
 90
        6
176
     1
 90
        2
176
     1
 62
     7
176
     1
 90
        5
176
     1
 90
        0
176
     1
 90
        0
176
     1
290
     0
176
     1
 90
        1
176
     1
 40
0.0
176
     1
 90
        0
176
     1
290
     0
176
     1
290
     1
176
     1
290
     1
176
     1
290
     0
176
     1
290
     0
176
     1
290
     0
176
     1
290
     0
176
     1
290
     0
176
     1
290
     0
176
     1
 90
       50
176
     1
 40
0.0
176
     1
 40
1.0
176
     1
 90
        0
176
     1
 62
    18
420
        0
176
     1
 90
       50
176
     1
 90
        3
176
     1
 62
     5
420
      255
176
     1
290
     0
176
     1
 90
       50
176
     1
 90
       50
176
     1
 90
       50
176
     1
290
     0
176
     1
 90
       50
176
     1
 62
   256
176
     0
 40
1.0
176
     0
 90
        2
176
     1
  1
strokes_ogs.tif
176
     1
290
     0
176
     1
 40
1.0
176
     1
 40
1.0
176
     1
  0
VISUALSTYLE
  5
198
102
{ACAD_REACTORS
330
186
102
}
330
186
100
AcDbVisualStyle
  2
OverhangOff
 70
    21
177
     3
291
     1
 70
    58
 90
        2
176
     0
 90
        2
176
     0
 90
        0
176
     0
 90
        0
176
     0
 40
0.6
176
     0
 40
30.0
176
     0
 62
     7
420
 16777215
176
     0
 90
        1
176
     0
 90
        4
176
     0
 62
     7
176
     0
 62
   257
176
     0
 90
        1
176
     0
 90
        1
176
     0
 40
1.0
176
     0
 90
        9
176
     2
 62
     7
176
     0
 40
1.0
176
     0
 90
        1
176
     0
 90
        6
176
     0
 90
        2
176
     0
 62
     7
176
     0
 90
        5
176
     0
 90
        0
176
     0
 90
        0
176
     0
290
     0
176
     0
 90
        1
176
     0
 40
0.0
176
     0
 90
        0
176
     0
290
     0
176
     0
290
     1
176
     0
290
     1
176
     0
290
     0
176
     0
290
     0
176
     0
290
     0
176
     0
290
     0
176
     0
290
     0
176
     0
290
     0
176
     0
 90
       50
176
     0
 40
0.0
176
     0
 40
1.0
176
     0
 90
        0
176
     0
 62
    18
420
        0
176
     0
 90
       50
176
     0
 90
        3
176
     0
 62
     5
420
      255
176
     0
290
     0
176
     0
 90
       50
176
     0
 90
       50
176
     0
 90
       50
176
     0
290
     0
176
     0
 90
       50
176
     0
 62
   256
176
     0
 40
1.0
176
     0
 90
        2
176
     0
  1
strokes_ogs.tif
176
     0
290
     0
176
     0
 40
1.0
176
     0
 40
1.0
176
     0
  0
VISUALSTYLE
  5
18F
102
{ACAD_REACTORS
330
186
102
}
330
186
100
AcDbVisualStyle
  2
Realistic
 70
     8
177
     3
291
     0
 70
    58
 90
        2
176
     1
 90
        3
176
     1
 90
        0
176
     1
 90
        2
176
     1
 40
0.6
176
     1
 40
30.0
176
     1
 62
     7
420
 16777215
176
     1
 90
        0
176
     1
 90
        0
176
     1
 62
     7
176
     1
 62
   257
176
     1
 90
        1
176
     1
 90
        1
176
     1
 40
1.0
176
     1
 90
        8
176
     1
 62
   257
176
     1
 40
1.0
176
     1
 90
        1
176
     1
 90
        6
176
     1
 90
        2
176
     1
 62
     7
176
     1
 90
        3
176
     1
 90
        0
176
     1
 90
        0
176
     1
290
     0
176
     1
 90
       13
176
     1
 40
0.0
176
     1
 90
        0
176
     1
290
     0
176
     1
290
     1
176
     1
290
     1
176
     1
290
     0
176
     1
290
     0
176
     1
290
     0
176
     1
290
     0
176
     1
290
     0
176
     1
290
     0
176
     1
 90
       50
176
     1
 40
0.0
176
     1
 40
1.0
176
     1
 90
        0
176
     1
 62
    18
420
        0
176
     1
 90
       50
176
     1
 90
        3
176
     1
 62
     5
420
      255
176
     1
290
     0
176
     1
 90
       50
176
     1
 90
       50
176
     1
 90
       50
176
     1
290
     0
176
     1
 90
       50
176
     1
 62
   256
176
     0
 40
1.0
176
     0
 90
        2
176
     1
  1
strokes_ogs.tif
176
     1
290
     0
176
     1
 40
1.0
176
     1
 40
1.0
176
     1
  0
VISUALSTYLE
  5
19E
102
{ACAD_REACTORS
330
186
102
}
330
186
100
AcDbVisualStyle
  2
Shaded
 70
    27
177
     3
291
     0
 70
    58
 90
        2
176
     1
 90
        2
176
     1
 90
        1
176
     1
 90
        2
176
     1
 40
0.6
176
     1
 40
30.0
176
     1
 62
     7
420
 16777215
176
     1
 90
        0
176
     1
 90
        4
176
     1
 62
     7
176
     1
 62
   257
176
     1
 90
        1
176
     1
 90
        1
176
     1
 40
1.0
176
     1
 90
        8
176
     1
 62
   257
176
     1
 40
1.0
176
     1
 90
        1
176
     1
 90
        6
176
     1
 90
        2
176
     1
 62
     8
420
  7895160
176
     1
 90
        3
176
     1
 90
        0
176
     1
 90
        0
176
     1
290
     0
176
     1
 90
        5
176
     1
 40
0.0
176
     1
 90
        0
176
     1
290
     0
176
     1
290
     1
176
     1
290
     1
176
     1
290
     0
176
     1
290
     0
176
     1
290
     0
176
     1
290
     0
176
     1
290
     0
176
     1
290
     0
176
     1
 90
       50
176
     1
 40
0.0
176
     1
 40
1.0
176
     1
 90
        0
176
     1
 62
    18
420
        0
176
     1
 90
       50
176
     1
 90
        3
176
     1
 62
     5
420
      255
176
     1
290
     0
176
     1
 90
       50
176
     1
 90
       50
176
     1
 90
       50
176
     1
290
     0
176
     1
 90
       50
176
     1
 62
   256
176
     0
 40
1.0
176
     0
 90
        2
176
     1
  1
strokes_ogs.tif
176
     1
290
     0
176
     1
 40
1.0
176
     1
 40
1.0
176
     1
  0
VISUALSTYLE
  5
19D
102
{ACAD_REACTORS
330
186
102
}
330
186
100
AcDbVisualStyle
  2
Shaded with edges
 70
    26
177
     3
291
     0
 70
    58
 90
        2
176
     1
 90
        2
176
     1
 90
        1
176
     1
 90
        2
176
     1
 40
0.6
176
     1
 40
30.0
176
     1
 62
     7
420
 16777215
176
     1
 90
        1
176
     1
 90
       10
176
     1
 62
     7
176
     1
 62
   257
176
     1
 90
        2
176
     1
 90
        1
176
     1
 40
1.0
176
     1
 90
        8
176
     1
 62
   257
176
     1
 40
1.0
176
     1
 90
        1
176
     1
 90
        6
176
     1
 90
        2
176
     1
 62
     7
176
     1
 90
        3
176
     1
 90
        0
176
     1
 90
        0
176
     1
290
     0
176
     1
 90
        5
176
     1
 40
0.0
176
     1
 90
        0
176
     1
290
     0
176
     1
290
     1
176
     1
290
     1
176
     1
290
     0
176
     1
290
     0
176
     1
290
     0
176
     1
290
     0
176
     1
290
     0
176
     1
290
     0
176
     1
 90
       50
176
     1
 40
0.0
176
     1
 40
1.0
176
     1
 90
        0
176
     1
 62
    18
420
        0
176
     1
 90
       50
176
     1
 90
        3
176
     1
 62
     5
420
      255
176
     1
290
     0
176
     1
 90
       50
176
     1
 90
       50
176
     1
 90
       50
176
     1
290
     0
176
     1
 90
       50
176
     1
 62
   256
176
     0
 40
1.0
176
     0
 90
        2
176
     1
  1
strokes_ogs.tif
176
     1
290
     0
176
     1
 40
1.0
176
     1
 40
1.0
176
     1
  0
VISUALSTYLE
  5
19A
102
{ACAD_REACTORS
330
186
102
}
330
186
100
AcDbVisualStyle
  2
Shades of Gray
 70
    23
177
     3
291
     0
 70
    58
 90
        2
176
     1
 90
        2
176
     1
 90
        3
176
     1
 90
        0
176
     1
 40
0.6
176
     1
 40
30.0
176
     1
 62
     7
420
 16777215
176
     1
 90
        2
176
     1
 90
        2
176
     1
 62
     7
176
     1
 62
     7
176
     1
 90
        1
176
     1
 90
        1
176
     1
 40
40.0
176
     1
 90
        8
176
     1
 62
     7
176
     1
 40
1.0
176
     1
 90
        1
176
     1
 90
        6
176
     1
 90
        2
176
     1
 62
     7
176
     1
 90
        3
176
     1
 90
        0
176
     1
 90
        0
176
     1
290
     0
176
     1
 90
        1
176
     1
 40
0.0
176
     1
 90
        0
176
     1
290
     0
176
     1
290
     1
176
     1
290
     1
176
     1
290
     0
176
     1
290
     0
176
     1
290
     0
176
     1
290
     0
176
     1
290
     0
176
     1
290
     0
176
     1
 90
       50
176
     1
 40
0.0
176
     1
 40
1.0
176
     1
 90
        0
176
     1
 62
    18
420
        0
176
     1
 90
       50
176
     1
 90
        3
176
     1
 62
     5
420
      255
176
     1
290
     0
176
     1
 90
       50
176
     1
 90
       50
176
     1
 90
       50
176
     1
290
     0
176
     1
 90
       50
176
     1
 62
   256
176
     0
 40
1.0
176
     0
 90
        2
176
     1
  1
strokes_ogs.tif
176
     1
290
     0
176
     1
 40
1.0
176
     1
 40
1.0
176
     1
  0
VISUALSTYLE
  5
19B
102
{ACAD_REACTORS
330
186
102
}
330
186
100
AcDbVisualStyle
  2
Sketchy
 70
    24
177
     3
291
     0
 70
    58
 90
        1
176
     1
 90
        2
176
     1
 90
        2
176
     1
 90
        0
176
     1
 40
0.6
176
     1
 40
30.0
176
     1
 62
     7
420
 16777215
176
     1
 90
        2
176
     1
 90
        2
176
     1
 62
     7
176
     1
 62
     7
176
     1
 90
        1
176
     1
 90
        1
176
     1
 40
40.0
176
     1
 90
       11
176
     1
 62
     7
176
     1
 40
1.0
176
     1
 90
        1
176
     1
 90
        6
176
     1
 90
        2
176
     1
 62
     7
176
     1
 90
        6
176
     1
 90
        0
176
     1
 90
        0
176
     1
290
     0
176
     1
 90
        1
176
     1
 40
0.0
176
     1
 90
        0
176
     1
290
     0
176
     1
290
     1
176
     1
290
     1
176
     1
290
     0
176
     1
290
     0
176
     1
290
     0
176
     1
290
     0
176
     1
290
     0
176
     1
290
     0
176
     1
 90
       50
176
     1
 40
0.0
176
     1
 40
1.0
176
     1
 90
        0
176
     1
 62
    18
420
        0
176
     1
 90
       50
176
     1
 90
        3
176
     1
 62
     5
420
      255
176
     1
290
     0
176
     1
 90
       50
176
     1
 90
       50
176
     1
 90
       50
176
     1
290
     0
176
     1
 90
       50
176
     1
 62
   256
176
     0
 40
1.0
176
     0
 90
        2
176
     1
  1
strokes_ogs.tif
176
     1
290
     0
176
     1
 40
1.0
176
     1
 40
1.0
176
     1
  0
VISUALSTYLE
  5
193
102
{ACAD_REACTORS
330
186
102
}
330
186
100
AcDbVisualStyle
  2
Thicken
 70
    13
177
     3
291
     1
 70
    58
 90
        2
176
     1
 90
        2
176
     1
 90
        0
176
     1
 90
        0
176
     1
 40
0.6
176
     1
 40
30.0
176
     1
 62
     7
420
 16777215
176
     1
 90
        1
176
     1
 90
        4
176
     1
 62
     7
176
     1
 62
   257
176
     1
 90
        1
176
     1
 90
        1
176
     1
 40
1.0
176
     1
 90
       12
176
     1
 62
     7
176
     1
 40
1.0
176
     1
 90
        1
176
     1
 90
        6
176
     1
 90
        2
176
     1
 62
     7
176
     1
 90
        5
176
     1
 90
        0
176
     1
 90
        0
176
     1
290
     0
176
     1
 90
        1
176
     1
 40
0.0
176
     1
 90
        0
176
     1
290
     0
176
     1
290
     1
176
     1
290
     1
176
     1
290
     0
176
     1
290
     0
176
     1
290
     0
176
     1
290
     0
176
     1
290
     0
176
     1
290
     0
176
     1
 90
       50
176
     1
 40
0.0
176
     1
 40
1.0
176
     1
 90
        0
176
     1
 62
    18
420
        0
176
     1
 90
       50
176
     1
 90
        3
176
     1
 62
     5
420
      255
176
     1
290
     0
176
     1
 90
       50
176
     1
 90
       50
176
     1
 90
       50
176
     1
290
     0
176
     1
 90
       50
176
     1
 62
   256
176
     0
 40
1.0
176
     0
 90
        2
176
     1
  1
strokes_ogs.tif
176
     1
290
     0
176
     1
 40
1.0
176
     1
 40
1.0
176
     1
  0
VISUALSTYLE
  5
18C
102
{ACAD_REACTORS
330
186
102
}
330
186
100
AcDbVisualStyle
  2
Wireframe
 70
     5
177
     3
291
     0
 70
    58
 90
        0
176
     1
 90
        2
176
     1
 90
        0
176
     1
 90
        0
176
     1
 40
0.6
176
     1
 40
30.0
176
     1
 62
     7
420
 16777215
176
     1
 90
        1
176
     1
 90
        4
176
     1
 62
     7
176
     1
 62
   257
176
     1
 90
        1
176
     1
 90
        1
176
     1
 40
1.0
176
     1
 90
        0
176
     1
 62
   257
176
     1
 40
1.0
176
     1
 90
        1
176
     1
 90
        6
176
     1
 90
        2
176
     1
 62
     7
176
     1
 90
        3
176
     1
 90
        0
176
     1
 90
        0
176
     1
290
     0
176
     1
 90
        1
176
     1
 40
0.0
176
     1
 90
        0
176
     1
290
     0
176
     1
290
     1
176
     1
290
     1
176
     1
290
     0
176
     1
290
     0
176
     1
290
     0
176
     1
290
     0
176
     1
290
     0
176
     1
290
     0
176
     1
 90
       50
176
     1
 40
0.0
176
     1
 40
1.0
176
     1
 90
        0
176
     1
 62
    18
420
        0
176
     1
 90
       50
176
     1
 90
        3
176
     1
 62
     5
420
      255
176
     1
290
     0
176
     1
 90
       50
176
     1
 90
       50
176
     1
 90
       50
176
     1
290
     0
176
     1
 90
       50
176
     1
 62
   256
176
     0
 40
1.0
176
     0
 90
        2
176
     1
  1
strokes_ogs.tif
176
     1
290
     0
176
     1
 40
1.0
176
     1
 40
1.0
176
     1
  0
VISUALSTYLE
  5
19C
102
{ACAD_REACTORS
330
186
102
}
330
186
100
AcDbVisualStyle
  2
X-Ray
 70
    25
177
     3
291
     0
 70
    58
 90
        2
176
     1
 90
        2
176
     1
 90
        1
176
     1
 90
        1
176
     1
 40
0.5
176
     1
 40
30.0
176
     1
 62
     7
420
 16777215
176
     1
 90
        1
176
     1
 90
        0
176
     1
 62
     7
176
     1
 62
   257
176
     1
 90
        1
176
     1
 90
        1
176
     1
 40
1.0
176
     1
 90
        8
176
     1
 62
     7
176
     1
 40
1.0
176
     1
 90
        1
176
     1
 90
        6
176
     1
 90
        2
176
     1
 62
     7
176
     1
 90
        3
176
     1
 90
        0
176
     1
 90
        0
176
     1
290
     0
176
     1
 90
       13
176
     1
 40
0.0
176
     1
 90
        0
176
     1
290
     0
176
     1
290
     1
176
     1
290
     1
176
     1
290
     0
176
     1
290
     0
176
     1
290
     0
176
     1
290
     0
176
     1
290
     0
176
     1
290
     0
176
     1
 90
       50
176
     1
 40
0.0
176
     1
 40
1.0
176
     1
 90
        0
176
     1
 62
    18
420
        0
176
     1
 90
       50
176
     1
 90
        3
176
     1
 62
     5
420
      255
176
     1
290
     0
176
     1
 90
       50
176
     1
 90
       50
176
     1
 90
       50
176
     1
290
     0
176
     1
 90
       50
176
     1
 62
   256
176
     0
 40
1.0
176
     0
 90
        2
176
     1
  1
strokes_ogs.tif
176
     1
290
     0
176
     1
 40
1.0
176
     1
 40
1.0
176
     1
  0
DICTIONARYVAR
  5
480
102
{ACAD_REACTORS
330
47F
102
}
330
47F
100
DictionaryVariables
280
     0
  1
1:1
  0
DICTIONARYVAR
  5
481
102
{ACAD_REACTORS
330
47F
102
}
330
47F
100
DictionaryVariables
280
     0
  1
0
  0
CSACDOCUMENTOPTIONS
  5
1AC
102
{ACAD_REACTORS
330
1AB
102
}
330
1AB
  0
XRECORD
  5
47E
102
{ACAD_REACTORS
330
1A5
102
}
330
1A5
100
AcDbXrecord
280
     1
300
MC_VERSION_DATA
 90
       95
310
0600000002000000570000001C000000E404000000000000000000007801936764E5D8CF7A8393818115C460606066E0646662626666706006F214793899F8DE3171E725E6E53B3BBA2878E6951050AF75FEFFFFFF520032DE0F3057000000
  0
XRECORD
  5
1A6
102
{ACAD_REACTORS
330
1A5
102
}
330
1A5
100
AcDbXrecord
280
     1
300
MCS_DOCUMENT_ID
 90
       60
310
0600000002000000150000001C000000E404000000000000000000007801E38D5AAC7872A2688ADF9E657BD8131F6899FD070200645C0B0F15000000
  0
XRECORD
  5
263
102
{ACAD_REACTORS
330
1A5
102
}
330
1A5
100
AcDbXrecord
280
     1
300
MCS_PARAMS_DATA
 90
     3313
310
0600000002000000F64B00001C000000E404000000000000000000007801C55C5B6C5CC519DE9D595FD6B9DF494B53970A1A6F4A58DF92A6426A1A1210527090E23EF0543976A2BA75E25CAC160A6DA92AF5A55255A96AD556551F4A49A0CF15A03EC0438190865E482021147221409310B6900B3826B1FB7F7366CEFC73E6
310
1CAFBDDE3D9B07D8FF3F73CEF7DFE6FB67E6ECBA757EA3143929F767A4FCCE8636299AA49C90529036BB402C105929F279912F89C6DEAF6FD8BC69AB14A46C51EAC2B9898909BA39945F872C1FCD848A834A91A13B1AD51D6D5266E8A9FAF627E9AABE92BD45CA6F03BD81A3CFC24D59D990C96408C7E066656E0232E13A03
310
14B0AB01724443F05CC3F08780DFC8F19B03FC710A073DC8486413411B49060E3311A05C24C45064703B01D7CCE196A818E5C59C9268B967CBD6DED68ED59DC52EEB78BEF08E09F8223D745649346F1DE9DB35D0B777C089FC5FC3C8EB60BF1A286CF47FE3467F17CC59C5CD990B0CD948C1A77FB9F5CA0E4F479188EA541E
310
3C25A2E22BC99C8892456878B2821857F6B05492C2AD881B41409C21325211340605C9C6DC6006EC49AC088A0CCBB25B1159B72248E415019155047D5453031360047082A7405D92B72AB0F03379693EAB50870260AC609E2C6F6510BB3D081DFE4EF5EFECD71494A7B3590EC7F12C5B25CB32539229914732934ECE22AF1D
310
D259AC8B7B7649E437DE7BDFA69EADF76EE95186E95A7ED74C032DBFA66A9BF1CEF341B19B78E45DDED9EF56FE29189043E4814BF734E1FF34659991678231F23A51010DA578E8294D435524988818E84710A7B2643B4F7C134F5CC6936D1E4176D01398C4D0A83AE0A6BDC86B0BB5C3E1E8299D70A5A945AC12322FE697C4
310
9C8DC3BBBE34D2BA77FBEEA1BEFEED79D15C120DF70F0FEE1A093EF60C8FF47F4BCAB3B0ED666EDB17F5733E2B445B5E2C298985C507BB8BEBBA3A3A3774178B1D777FA5B36B9D327BBE1ED84C030BC74C9EDAB5B64D88BC405AEF1E1CD9D73A34B88F70838775AD5DDBD1B9B6BBABBB73A0ABA37F5D7BE0E757F57D1DB80F
310
037BFBB60D6D6F1DDED1DA3B3CB47D6FDF2EF8A0AD5933506CEF2FF6F7ADD9D6B56D5DFF9A60D6A95222FF670B51F8295953F8455019945B7EE9315C7A8AFEC352DE9D4B4A5050256AA6D1B42D5F0C265BEED4473538E9811F770DEFDCDD3732B86D706870E4A1D69DC303E45F6349C807B6EFCB8B8692103DC352AE816545
310
9E9E798813B5E9A692C86DD9B1A355A5424F8E0BF018466AF90D150136590E2905AA568F782650907D5A7180140B84AD0159F8156902B8F63BDA8BE1A72E29AF48322EA98B5F578631B6F5489B26184C63434803DB221A328E6B58DEAED6DB808FEB6DC068BD0DF8A4DE065CABB7018B3045EB390B3EAD7704C6EA6DC07518
310
10B79C17773A0DB6C361F03BDD064B22C8C7303844629E5064B47323116EB9039777E096BB70247238880C6E39831B9F221C81B3E543C57019D4736C30574EE2DD4AD73B12B9771099772B997713E97A974DF4CECD5D9582B938116EC00926492C777A7F676A8F441E4C882C98032C983211AE26DE8974E196022EC7174366
310
F9AE62C95769E105B5C4B012E2E82ED8CD3516C5E34D519CF0D1F6765A8551C6CC0505130A3E8ABEC46EF81CED54DC1DA04AB7BC4DB0CA082453194AB29B82400C2B438BA6322032B88FE093B3E13470C11297490C8EEF78E88158D51A8AD42283A38F61044E78707A57F8BBDFE2DF2167F36975041D1DA7FCF59430C35792
310
05112533A905D5D3CAAB4759DBB4CA160F3E9309466F934A1794E7E1154C402D3088858048DCDF7EA3E7FECD5B7A7B376D5480CBF43A7E5E49CCBE6BEB37D945B2402FC65F52AB73B67E7F3A58AE93F37A04F6B7011D680556EBCCA2819BC8A21C320F385BBDB4EE56E6E32CE2CB18E358AD7676B4C7C096B1674BAF7B1278
310
1E906198B0DF8681EA696AF34D20563061CAB731C0DB01185B8B0DCA46538BD880EB0E2C6FC3120B40E62289BC162112587895C11513E18290E892090EBF46A9321968C513E0BB89A0AE8F2431B88A7DFC9E07A7BD0A8E668E3AF3CDEA083A3A8ECFB770A00AB53712018F2859D8DB3D93C2E4D422CB77A40BB73A5DB807A7
310
0857A5727AC8838BE45965D0D3D5B29CBEEF99145F4E558AC0C3E9C23D922EDC0FD285FBA107E7958EEDE721E98018A3E3AAC64E7F5C166D7ABA81B65C437BB31D766C74A6ED6E1FBC2766B7AFDAD87156F9771BF44A2A724C461AB43EE729AAFB710D63E2111810BBA3ABC9AE6037E09AB9BF3AB40BE8309F8736AB64CAB2
310
BE7E3364E5AC569CA6976081AF5A311628A8EF68C5B3A4609E3E86AC3AA156E3E83562F4B5A292099A878C61EB3B549CF92354989982613F016CE7AD5A4D09AA1F5126387AAD451EE384D9C035A925859E39C1AA865EE9A9B8DA21CEE289167F7CF1D4C4BC7A125EC5AED5D8BB0B5A9D9144D134CFA71BF85A8D44BE568348
310
F6AA55A2F3CAEACF6982FD29118CC249D3CBF852A586F278BA70FBD3853B90085793EDE51E143F0AD06C6B4CB2242BDDBDD1419166C2865E85F9CE1648F3CBF54B2E655D5432557AB8C599EEE6E763403914E55050D879E2BFFA30F366F009F0CB378371CA9B99D05949929DD07465EA8797A3808B6B06B9536E64AF9C844C
310
903AF2F3709D3783A318A078E4F37AEBBCEC2DD1B228B722F785DC2DB9D64C476675A63353CC74E937B1FA39BFA7DB58A6AFC19E49583A4A9B6110A6BA038D3C80418F79D091B18A763C1D8524AA5361F194EC4CC4B23EDBA3192533E95398E41423EB6DCA1C239B4DBF91D13F6D762A6897D7013D496371DC8BECCAA7D45E
310
0C251095ABC98AA38E1B6540CD3DACF829EF15C38D27C2B92DA64A071D13897001094F16523EC1C9E5A99FF465029665AB5B13C49AF8984D174EA40B273D389D33BB29A272F6749622C2719C22AC925104534E7A8CF33714555C6B3CF3BE4BE0AF28994CA9B8353E0F28878DD26D8D2F007FBAAD11BD305CEB4EAB35BE08B8
310
B8D678FEB81BD9134AB6ADF10A644BBEF9C2334A81E4EAA6772450D87DD2AF49C178F020A0EBD3055FF292CC5B8AB3FC4114C86BA708ACDB15F49C43C04EBBE7FCBD0CA8A1CB2AF59CC3897035E1E39713E16AD873FE91085A131FFF19C04DBEDBF8D75406FD3B3A2842E56C8ABE82A171BC3BF89ECB0E0F287926BC7B0450
310
75E4DDA3C09F2EEF56BE2579157071BCBBE7881BD93E255BDE7D04B225A07C61BD5230DE1DBA8C1158736B225E412358525F03747D78F79897E472BCCBAF5BAF2BA0DDE3804E9B765F2F035A65DA3D910857134A7A2311AE52DA8D6E0E9C1341735A873DD47F12A16BE2E99BE9C275792B70532835F1AEDB838B7404B509F7
310
74C449519D9AA19EB28205FF5B08785CE3F9307262735AC933693C270155C7C6730AF8E9359ED3808B6B3CA387DDC6734EC9B6F1C897238DE72006D89713F9C2E58B91C6F3388D608DE70CA0A7DA7866D30F8008DC16BEAA2D26A2AAB848F4108A0CF46D0F54D7A73989E2C56D75B6B8431D2F6EAB64C5CD94644C04869974
310
1626C5B6A280378D1BEE62BCE2C3917700E714386FAA719B1D7E7D464DF7DD444F8317374E8CAA75BEF65E19D0F8F0523EC21D7470DCC60B8CAEF29753FC38EF4760CFDBF99B4673F680D0869F6742513F06849341B61DF57EE3400A02734628D75C0DBC8B68A868B98655ECA330208EA3C6F1B52E3DF1E8849E2433679564
310
431A886148B568E62C4406F75F64308EFD2F9D7039EA6D259B5B2BF91AD8396F72B01004EFC5CD6C88F911E8CCDF849C077E5C64E9488747967101058B73015D99FA9B900B808B63FFB117DCC85E50324556799F2F34BC086EC70CD18A4318C0D9FF2AB6807CDB718046B0A4BE0FE8B4D9FFA207EA504E3D7E65FA014C7226
310
B329B0E8D703AAFEBAA304E869379E693123CD68457958A4FF2F11AE86ECFF6119D078F6E7138AD87FF2370F86D6E1E34789702D76FED2134932CCA824CB8C811832A3160D33426421BD940847AF6F0C11D33DEECB1CFE9B7175D1F926045DE5BD8DBFBDBE9C081764D0049324E6DDB40A8607F34A225C4D16463974B5B836
310
F3B3A32E193EACE499B49986C93A780A6DA631A981D7A6CD34012EAECDFCF23937B23F51B26D337F80CCDBCC36A5C0ECD07DE7E7A7236D663D8D6033A419D0536D33E07F56B8C4CA7C0D48229F9610695A461A0883CE7B494E8DD95B004DF38E8247AB09FE45AC1A52EDAC32A0861DD8DA85D8A76276989D08579353913989
310
700119397510D9BB4CAB9DF096393711B4263ECE4B176E7EBA700B3C389DB3F0B5335AA6A7234288EA142D784A9083AFB414616018456CF64C3293C4CD2F49D3E5A5F0410CEE3E0F2E6A6FEA11580893E29AEE529C2FC11C4DF48D4AA628982DB44A422820F8563073C8F989CF2240392BED74F7768B819FDEDE6E09E0E29A
310
EE0AFA030B3CB273954C91D5916E83CC9BEE074FAB1E6B73B11CFB6CBEB73B4C23589D2D05F4CC9AAE2E4C768646F0614DBB4BD40606BDCC4B726A4DF72640A7DD749797013521AB4ED3C5971C1BF2225712D922FD192CAA82F186C253F467B664EED8B163100EA1787299890C1D4314EEF90B040C236113FD72905624B8F0
310
99FF03A92412CEF64B0000
  0
DICTIONARY
  5
485
330
1AA
100
AcDbDictionary
280
     1
281
     1
  3
ACAD_ROUNDTRIP_2008_TABLESTYLE_CELLSTYLEMAP
360
486
  0
CELLSTYLEMAP
  5
486
102
{ACAD_REACTORS
330
485
102
}
330
485
100
AcDbCellStyleMap
 90
        3
300
CELLSTYLE
  1
TABLEFORMAT_BEGIN
 90
        5
170
     1
 91
        0
 92
        0
 62
   257
 93
        1
300
CONTENTFORMAT
  1
CONTENTFORMAT_BEGIN
 90
        0
 91
        0
 92
        4
 93
        0
300

 40
0.0
140
1.0
 94
        5
 62
     0
340
11
144
6.0
309
CONTENTFORMAT_END
171
     1
301
MARGIN
  1
CELLMARGIN_BEGIN
 40
1.5
 40
1.5
 40
1.5
 40
1.5
 40
4.5
 40
4.5
309
CELLMARGIN_END
 94
        6
 95
        1
302
GRIDFORMAT
  1
GRIDFORMAT_BEGIN
 90
        0
 91
        1
 62
     0
 92
       -2
340
14
 93
        0
 40
1.125
309
GRIDFORMAT_END
 95
        2
302
GRIDFORMAT
  1
GRIDFORMAT_BEGIN
 90
        0
 91
        1
 62
     0
 92
       -2
340
14
 93
        0
 40
1.125
309
GRIDFORMAT_END
 95
        4
302
GRIDFORMAT
  1
GRIDFORMAT_BEGIN
 90
        0
 91
        1
 62
     0
 92
       -2
340
14
 93
        0
 40
1.125
309
GRIDFORMAT_END
 95
        8
302
GRIDFORMAT
  1
GRIDFORMAT_BEGIN
 90
        0
 91
        1
 62
     0
 92
       -2
340
14
 93
        0
 40
1.125
309
GRIDFORMAT_END
 95
       16
302
GRIDFORMAT
  1
GRIDFORMAT_BEGIN
 90
        0
 91
        1
 62
     0
 92
       -2
340
14
 93
        0
 40
1.125
309
GRIDFORMAT_END
 95
       32
302
GRIDFORMAT
  1
GRIDFORMAT_BEGIN
 90
        0
 91
        1
 62
     0
 92
       -2
340
14
 93
        0
 40
1.125
309
GRIDFORMAT_END
309
TABLEFORMAT_END
  1
CELLSTYLE_BEGIN
 90
        1
 91
        1
300
_TITLE
309
CELLSTYLE_END
300
CELLSTYLE
  1
TABLEFORMAT_BEGIN
 90
        5
170
     1
 91
        0
 92
        0
 62
   257
 93
        1
300
CONTENTFORMAT
  1
CONTENTFORMAT_BEGIN
 90
        0
 91
        0
 92
        4
 93
        0
300

 40
0.0
140
1.0
 94
        5
 62
     0
340
11
144
4.5
309
CONTENTFORMAT_END
171
     1
301
MARGIN
  1
CELLMARGIN_BEGIN
 40
1.5
 40
1.5
 40
1.5
 40
1.5
 40
4.5
 40
4.5
309
CELLMARGIN_END
 94
        6
 95
        1
302
GRIDFORMAT
  1
GRIDFORMAT_BEGIN
 90
        0
 91
        1
 62
     0
 92
       -2
340
14
 93
        0
 40
1.125
309
GRIDFORMAT_END
 95
        2
302
GRIDFORMAT
  1
GRIDFORMAT_BEGIN
 90
        0
 91
        1
 62
     0
 92
       -2
340
14
 93
        0
 40
1.125
309
GRIDFORMAT_END
 95
        4
302
GRIDFORMAT
  1
GRIDFORMAT_BEGIN
 90
        0
 91
        1
 62
     0
 92
       -2
340
14
 93
        0
 40
1.125
309
GRIDFORMAT_END
 95
        8
302
GRIDFORMAT
  1
GRIDFORMAT_BEGIN
 90
        0
 91
        1
 62
     0
 92
       -2
340
14
 93
        0
 40
1.125
309
GRIDFORMAT_END
 95
       16
302
GRIDFORMAT
  1
GRIDFORMAT_BEGIN
 90
        0
 91
        1
 62
     0
 92
       -2
340
14
 93
        0
 40
1.125
309
GRIDFORMAT_END
 95
       32
302
GRIDFORMAT
  1
GRIDFORMAT_BEGIN
 90
        0
 91
        1
 62
     0
 92
       -2
340
14
 93
        0
 40
1.125
309
GRIDFORMAT_END
309
TABLEFORMAT_END
  1
CELLSTYLE_BEGIN
 90
        2
 91
        1
300
_HEADER
309
CELLSTYLE_END
300
CELLSTYLE
  1
TABLEFORMAT_BEGIN
 90
        5
170
     1
 91
        0
 92
        0
 62
   257
 93
        1
300
CONTENTFORMAT
  1
CONTENTFORMAT_BEGIN
 90
        0
 91
        0
 92
        4
 93
        0
300

 40
0.0
140
1.0
 94
        2
 62
     0
340
11
144
4.5
309
CONTENTFORMAT_END
171
     1
301
MARGIN
  1
CELLMARGIN_BEGIN
 40
1.5
 40
1.5
 40
1.5
 40
1.5
 40
4.5
 40
4.5
309
CELLMARGIN_END
 94
        6
 95
        1
302
GRIDFORMAT
  1
GRIDFORMAT_BEGIN
 90
        0
 91
        1
 62
     0
 92
       -2
340
14
 93
        0
 40
1.125
309
GRIDFORMAT_END
 95
        2
302
GRIDFORMAT
  1
GRIDFORMAT_BEGIN
 90
        0
 91
        1
 62
     0
 92
       -2
340
14
 93
        0
 40
1.125
309
GRIDFORMAT_END
 95
        4
302
GRIDFORMAT
  1
GRIDFORMAT_BEGIN
 90
        0
 91
        1
 62
     0
 92
       -2
340
14
 93
        0
 40
1.125
309
GRIDFORMAT_END
 95
        8
302
GRIDFORMAT
  1
GRIDFORMAT_BEGIN
 90
        0
 91
        1
 62
     0
 92
       -2
340
14
 93
        0
 40
1.125
309
GRIDFORMAT_END
 95
       16
302
GRIDFORMAT
  1
GRIDFORMAT_BEGIN
 90
        0
 91
        1
 62
     0
 92
       -2
340
14
 93
        0
 40
1.125
309
GRIDFORMAT_END
 95
       32
302
GRIDFORMAT
  1
GRIDFORMAT_BEGIN
 90
        0
 91
        1
 62
     0
 92
       -2
340
14
 93
        0
 40
1.125
309
GRIDFORMAT_END
309
TABLEFORMAT_END
  1
CELLSTYLE_BEGIN
 90
        3
 91
        2
300
_DATA
309
CELLSTYLE_END
  0
ENDSEC
  0
EOF
