0
SECTION
2
HEADER
9
$ACADVER
1
AC1009
0
ENDSEC
0
SECTION
2
TABLES
0
TABLE
2
VPORT
70
1
0
VPORT
2
ACTIVE
70
0
10
0.0
20
0.0
11
0.0
21
0.0
12
0.0
22
0.0
13
0.0
23
0.0
14
0.0
24
0.0
15
0.0
25
0.0
16
0.0
26
0.0
36
0.0
17
0.0
27
0.0
37
0.0
40
0.0
41
0.0
42
0.0
43
0.0
44
0.0
50
0.0
51
0.0
71
0
72
1000
73
1
74
3
75
0
76
0
77
0
78
0
0
ENDTAB
0
ENDSEC
0
SECTION
2
ENTITIES
0
LINE
8
hole
62
5
39
2
10
366.381753
20
126.381754
11
366.953253
21
126.381754
0
LINE
8
hole
62
5
39
2
10
366.953253
20
126.381754
11
366.953253
21
126.953254
0
LINE
8
hole
62
5
39
2
10
366.953253
20
126.953254
11
366.381753
21
126.953254
0
LINE
8
hole
62
5
39
2
10
366.381753
20
126.953254
11
366.381753
21
126.381754
0
LINE
8
hole
62
5
39
2
10
46.381750
20
126.381754
11
46.953250
21
126.381754
0
LINE
8
hole
62
5
39
2
10
46.953250
20
126.381754
11
46.953250
21
126.953254
0
LINE
8
hole
62
5
39
2
10
46.953250
20
126.953254
11
46.381750
21
126.953254
0
LINE
8
hole
62
5
39
2
10
46.381750
20
126.953254
11
46.381750
21
126.381754
0
LINE
8
boundary
62
5
39
2
10
16.795322
20
6.667500
11
80.545323
21
6.667500
0
LINE
8
boundary
62
5
39
2
10
80.545323
20
6.667500
11
91.795323
21
6.667500
0
LINE
8
boundary
62
5
39
2
10
91.795323
20
6.667500
11
91.795322
21
23.667498
0
LINE
8
boundary
62
5
39
2
10
91.795322
20
23.667498
11
91.795323
21
26.667497
0
LINE
8
boundary
62
5
39
2
10
91.795323
20
26.667497
11
260.473361
21
26.667497
0
LINE
8
boundary
62
5
39
2
10
260.473361
20
26.667497
11
290.240071
21
26.667497
0
LINE
8
boundary
62
5
39
2
10
290.240071
20
26.667497
11
290.240071
21
9.667499
0
LINE
8
boundary
62
5
39
2
10
290.240071
20
9.667499
11
290.240071
21
6.667501
0
LINE
8
boundary
62
5
39
2
10
290.240071
20
6.667501
11
301.490068
21
6.667500
0
LINE
8
boundary
62
5
39
2
10
301.490068
20
6.667500
11
365.240054
21
6.667501
0
LINE
8
boundary
62
5
39
2
10
365.240054
20
6.667501
11
365.240054
21
23.667497
0
LINE
8
boundary
62
5
39
2
10
365.240054
20
23.667497
11
365.240054
21
26.667497
0
LINE
8
boundary
62
5
39
2
10
365.240054
20
26.667497
11
371.454171
21
26.667497
0
LINE
8
boundary
62
5
39
2
10
371.454171
20
26.667497
11
406.667504
21
26.667497
0
LINE
8
boundary
62
5
39
2
10
406.667504
20
26.667497
11
406.667504
21
196.667510
0
LINE
8
boundary
62
5
39
2
10
406.667504
20
196.667510
11
406.667504
21
226.667510
0
LINE
8
boundary
62
5
39
2
10
406.667504
20
226.667510
11
371.454171
21
226.667511
0
LINE
8
boundary
62
5
39
2
10
371.454171
20
226.667511
11
365.240054
21
226.667510
0
LINE
8
boundary
62
5
39
2
10
365.240054
20
226.667510
11
365.240053
21
243.667508
0
LINE
8
boundary
62
5
39
2
10
365.240053
20
243.667508
11
365.240054
21
246.667507
0
LINE
8
boundary
62
5
39
2
10
365.240054
20
246.667507
11
301.490069
21
246.667507
0
LINE
8
boundary
62
5
39
2
10
301.490069
20
246.667507
11
290.240072
21
246.667507
0
LINE
8
boundary
62
5
39
2
10
290.240072
20
246.667507
11
290.240072
21
229.667510
0
LINE
8
boundary
62
5
39
2
10
290.240072
20
229.667510
11
290.240071
21
226.667510
0
LINE
8
boundary
62
5
39
2
10
290.240071
20
226.667510
11
121.562033
21
226.667510
0
LINE
8
boundary
62
5
39
2
10
121.562033
20
226.667510
11
91.795323
21
226.667510
0
LINE
8
boundary
62
5
39
2
10
91.795323
20
226.667510
11
91.795323
21
243.667508
0
LINE
8
boundary
62
5
39
2
10
91.795323
20
243.667508
11
91.795323
21
246.667507
0
LINE
8
boundary
62
5
39
2
10
91.795323
20
246.667507
11
28.045322
21
246.667507
0
LINE
8
boundary
62
5
39
2
10
28.045322
20
246.667507
11
16.795322
21
246.667507
0
LINE
8
boundary
62
5
39
2
10
16.795322
20
246.667507
11
16.795322
21
229.667510
0
LINE
8
boundary
62
5
39
2
10
16.795322
20
229.667510
11
16.795322
21
226.667511
0
LINE
8
boundary
62
5
39
2
10
16.795322
20
226.667511
11
15.276149
21
226.667511
0
LINE
8
boundary
62
5
39
2
10
15.276149
20
226.667511
11
6.667500
21
226.667510
0
LINE
8
boundary
62
5
39
2
10
6.667500
20
226.667510
11
6.667500
21
56.667497
0
LINE
8
boundary
62
5
39
2
10
6.667500
20
56.667497
11
6.667500
21
26.667497
0
LINE
8
boundary
62
5
39
2
10
6.667500
20
26.667497
11
15.276149
21
26.667497
0
LINE
8
boundary
62
5
39
2
10
15.276149
20
26.667497
11
16.795322
21
26.667497
0
LINE
8
boundary
62
5
39
2
10
16.795322
20
26.667497
11
16.795322
21
9.667500
0
LINE
8
boundary
62
5
39
2
10
16.795322
20
9.667500
11
16.795322
21
6.667500
0
LINE
8
annotation
62
1
39
211
10
366.667503
20
126.667504
11
366.667503
21
128.096254
0
LINE
8
annotation
62
1
39
211
10
46.667500
20
126.667504
11
48.096250
21
126.667504
0
LINE
8
annotation
62
1
39
211
10
339.824496
20
68.111648
11
339.824496
21
197.724609
0
LINE
8
annotation
62
1
39
211
10
339.824496
20
197.724609
11
311.009875
21
168.901860
0
LINE
8
hole
62
5
39
2
10
206.381752
20
273.556758
11
206.953252
21
273.556758
0
LINE
8
hole
62
5
39
2
10
206.953252
20
273.556758
11
206.953252
21
274.128258
0
LINE
8
hole
62
5
39
2
10
206.953252
20
274.128258
11
206.381752
21
274.128258
0
LINE
8
hole
62
5
39
2
10
206.381752
20
274.128258
11
206.381752
21
273.556758
0
LINE
8
hole
62
5
39
2
10
206.381752
20
465.556764
11
206.953252
21
465.556764
0
LINE
8
hole
62
5
39
2
10
206.953252
20
465.556764
11
206.953252
21
466.128264
0
LINE
8
hole
62
5
39
2
10
206.953252
20
466.128264
11
206.381752
21
466.128264
0
LINE
8
hole
62
5
39
2
10
206.381752
20
466.128264
11
206.381752
21
465.556764
0
LINE
8
hole
62
5
39
2
10
366.381753
20
369.556761
11
366.953253
21
369.556761
0
LINE
8
hole
62
5
39
2
10
366.953253
20
369.556761
11
366.953253
21
370.128261
0
LINE
8
hole
62
5
39
2
10
366.953253
20
370.128261
11
366.381753
21
370.128261
0
LINE
8
hole
62
5
39
2
10
366.381753
20
370.128261
11
366.381753
21
369.556761
0
LINE
8
hole
62
5
39
2
10
46.381750
20
369.556761
11
46.953250
21
369.556761
0
LINE
8
hole
62
5
39
2
10
46.953250
20
369.556761
11
46.953250
21
370.128261
0
LINE
8
hole
62
5
39
2
10
46.953250
20
370.128261
11
46.381750
21
370.128261
0
LINE
8
hole
62
5
39
2
10
46.381750
20
370.128261
11
46.381750
21
369.556761
0
LINE
8
boundary
62
5
39
2
10
16.795322
20
249.842507
11
59.545322
21
249.842508
0
LINE
8
boundary
62
5
39
2
10
59.545322
20
249.842508
11
91.795323
21
249.842508
0
LINE
8
boundary
62
5
39
2
10
91.795323
20
249.842508
11
91.795322
21
261.242506
0
LINE
8
boundary
62
5
39
2
10
91.795322
20
261.242506
11
91.795323
21
269.842504
0
LINE
8
boundary
62
5
39
2
10
91.795323
20
269.842504
11
204.908830
21
269.842504
0
LINE
8
boundary
62
5
39
2
10
204.908830
20
269.842504
11
290.240071
21
269.842505
0
LINE
8
boundary
62
5
39
2
10
290.240071
20
269.842505
11
290.240071
21
258.442506
0
LINE
8
boundary
62
5
39
2
10
290.240071
20
258.442506
11
290.240071
21
249.842508
0
LINE
8
boundary
62
5
39
2
10
290.240071
20
249.842508
11
322.490063
21
249.842507
0
LINE
8
boundary
62
5
39
2
10
322.490063
20
249.842507
11
365.240054
21
249.842508
0
LINE
8
boundary
62
5
39
2
10
365.240054
20
249.842508
11
365.240054
21
261.242506
0
LINE
8
boundary
62
5
39
2
10
365.240054
20
261.242506
11
365.240054
21
269.842504
0
LINE
8
boundary
62
5
39
2
10
365.240054
20
269.842504
11
383.053857
21
269.842504
0
LINE
8
boundary
62
5
39
2
10
383.053857
20
269.842504
11
406.667504
21
269.842504
0
LINE
8
boundary
62
5
39
2
10
406.667504
20
269.842504
11
406.667504
21
383.842512
0
LINE
8
boundary
62
5
39
2
10
406.667504
20
383.842512
11
406.667504
21
469.842518
0
LINE
8
boundary
62
5
39
2
10
406.667504
20
469.842518
11
383.053857
21
469.842518
0
LINE
8
boundary
62
5
39
2
10
383.053857
20
469.842518
11
365.240054
21
469.842518
0
LINE
8
boundary
62
5
39
2
10
365.240054
20
469.842518
11
365.240053
21
481.242516
0
LINE
8
boundary
62
5
39
2
10
365.240053
20
481.242516
11
365.240054
21
489.842515
0
LINE
8
boundary
62
5
39
2
10
365.240054
20
489.842515
11
322.490064
21
489.842514
0
LINE
8
boundary
62
5
39
2
10
322.490064
20
489.842514
11
290.240072
21
489.842515
0
LINE
8
boundary
62
5
39
2
10
290.240072
20
489.842515
11
290.240072
21
478.442516
0
LINE
8
boundary
62
5
39
2
10
290.240072
20
478.442516
11
290.240071
21
469.842517
0
LINE
8
boundary
62
5
39
2
10
290.240071
20
469.842517
11
177.126564
21
469.842517
0
LINE
8
boundary
62
5
39
2
10
177.126564
20
469.842517
11
91.795323
21
469.842518
0
LINE
8
boundary
62
5
39
2
10
91.795323
20
469.842518
11
91.795323
21
481.242516
0
LINE
8
boundary
62
5
39
2
10
91.795323
20
481.242516
11
91.795323
21
489.842514
0
LINE
8
boundary
62
5
39
2
10
91.795323
20
489.842514
11
49.045323
21
489.842515
0
LINE
8
boundary
62
5
39
2
10
49.045323
20
489.842515
11
16.795322
21
489.842515
0
LINE
8
boundary
62
5
39
2
10
16.795322
20
489.842515
11
16.795322
21
478.442517
0
LINE
8
boundary
62
5
39
2
10
16.795322
20
478.442517
11
16.795322
21
469.842518
0
LINE
8
boundary
62
5
39
2
10
16.795322
20
469.842518
11
12.440359
21
469.842518
0
LINE
8
boundary
62
5
39
2
10
12.440359
20
469.842518
11
6.667500
21
469.842518
0
LINE
8
boundary
62
5
39
2
10
6.667500
20
469.842518
11
6.667500
21
355.842510
0
LINE
8
boundary
62
5
39
2
10
6.667500
20
355.842510
11
6.667500
21
269.842504
0
LINE
8
boundary
62
5
39
2
10
6.667500
20
269.842504
11
12.440359
21
269.842504
0
LINE
8
boundary
62
5
39
2
10
12.440359
20
269.842504
11
16.795322
21
269.842505
0
LINE
8
boundary
62
5
39
2
10
16.795322
20
269.842505
11
16.795322
21
258.442506
0
LINE
8
boundary
62
5
39
2
10
16.795322
20
258.442506
11
16.795322
21
249.842507
0
LINE
8
annotation
62
1
39
211
10
366.667503
20
369.842511
11
366.667503
21
371.271261
0
LINE
8
annotation
62
1
39
211
10
46.667500
20
369.842511
11
48.096250
21
369.842511
0
LINE
8
annotation
62
1
39
211
10
206.667502
20
465.842514
11
206.667502
21
467.271264
0
LINE
8
annotation
62
1
39
211
10
206.667502
20
465.842514
11
206.667502
21
467.271264
0
LINE
8
annotation
62
1
39
211
10
206.667502
20
467.271264
11
206.667502
21
465.842514
0
LINE
8
annotation
62
1
39
211
10
206.667502
20
465.842514
11
208.096252
21
465.842514
0
LINE
8
annotation
62
1
39
211
10
206.667502
20
273.842508
11
206.667502
21
272.413758
0
LINE
8
annotation
62
1
39
211
10
235.291567
20
313.186026
11
190.519399
21
313.186026
0
LINE
8
annotation
62
1
39
211
10
190.519399
20
313.186026
11
231.890349
21
379.787945
0
LINE
8
annotation
62
1
39
211
10
231.890349
20
379.787945
11
231.890349
21
379.787945
0
LINE
8
annotation
62
1
39
211
10
231.890349
20
379.787945
11
231.939806
21
379.849144
0
LINE
8
annotation
62
1
39
211
10
231.939806
20
379.849144
11
231.987234
21
379.910864
0
LINE
8
annotation
62
1
39
211
10
231.987234
20
379.910864
11
232.032944
21
379.973624
0
LINE
8
annotation
62
1
39
211
10
232.032944
20
379.973624
11
232.077250
21
380.037945
0
LINE
8
annotation
62
1
39
211
10
232.077250
20
380.037945
11
232.120463
21
380.104347
0
LINE
8
annotation
62
1
39
211
10
232.120463
20
380.104347
11
232.162896
21
380.173351
0
LINE
8
annotation
62
1
39
211
10
232.162896
20
380.173351
11
232.204860
21
380.245477
0
LINE
8
annotation
62
1
39
211
10
232.204860
20
380.245477
11
232.246668
21
380.321245
0
LINE
8
annotation
62
1
39
211
10
232.246668
20
380.321245
11
232.288633
21
380.401176
0
LINE
8
annotation
62
1
39
211
10
232.288633
20
380.401176
11
232.288633
21
380.401176
0
LINE
8
annotation
62
1
39
211
10
232.288633
20
380.401176
11
233.996830
21
384.068818
0
LINE
8
annotation
62
1
39
211
10
233.996830
20
384.068818
11
234.994729
21
387.870653
0
LINE
8
annotation
62
1
39
211
10
234.994729
20
387.870653
11
235.306787
21
391.720774
0
LINE
8
annotation
62
1
39
211
10
235.306787
20
391.720774
11
234.957457
21
395.533276
0
LINE
8
annotation
62
1
39
211
10
234.957457
20
395.533276
11
233.971195
21
399.222252
0
LINE
8
annotation
62
1
39
211
10
233.971195
20
399.222252
11
232.372457
21
402.701796
0
LINE
8
annotation
62
1
39
211
10
232.372457
20
402.701796
11
230.185699
21
405.886004
0
LINE
8
annotation
62
1
39
211
10
230.185699
20
405.886004
11
227.435374
21
408.688968
0
LINE
8
annotation
62
1
39
211
10
227.435374
20
408.688968
11
224.145940
21
411.024783
0
LINE
8
annotation
62
1
39
211
10
224.145940
20
411.024783
11
224.145940
21
411.024783
0
LINE
8
annotation
62
1
39
211
10
224.145940
20
411.024783
11
220.468099
21
412.708706
0
LINE
8
annotation
62
1
39
211
10
220.468099
20
412.708706
11
216.660436
21
413.691230
0
LINE
8
annotation
62
1
39
211
10
216.660436
20
413.691230
11
212.808078
21
413.994468
0
LINE
8
annotation
62
1
39
211
10
212.808078
20
413.994468
11
208.996149
21
413.640533
0
LINE
8
annotation
62
1
39
211
10
208.996149
20
413.640533
11
205.309774
21
412.651540
0
LINE
8
annotation
62
1
39
211
10
205.309774
20
412.651540
11
201.834080
21
411.049602
0
LINE
8
annotation
62
1
39
211
10
201.834080
20
411.049602
11
198.654192
21
408.856834
0
LINE
8
annotation
62
1
39
211
10
198.654192
20
408.856834
11
195.855234
21
406.095348
0
LINE
8
annotation
62
1
39
211
10
195.855234
20
406.095348
11
193.522333
21
402.787260
0
LINE
8
annotation
62
1
39
211
10
193.522333
20
402.787260
11
190.582619
21
397.148066
0
LINE
8
hole
62
5
39
2
10
206.381752
20
516.731765
11
206.953252
21
516.731765
0
LINE
8
hole
62
5
39
2
10
206.953252
20
516.731765
11
206.953252
21
517.303265
0
LINE
8
hole
62
5
39
2
10
206.953252
20
517.303265
11
206.381752
21
517.303265
0
LINE
8
hole
62
5
39
2
10
206.381752
20
517.303265
11
206.381752
21
516.731765
0
LINE
8
hole
62
5
39
2
10
206.381752
20
708.731771
11
206.953252
21
708.731771
0
LINE
8
hole
62
5
39
2
10
206.953252
20
708.731771
11
206.953252
21
709.303271
0
LINE
8
hole
62
5
39
2
10
206.953252
20
709.303271
11
206.381752
21
709.303271
0
LINE
8
hole
62
5
39
2
10
206.381752
20
709.303271
11
206.381752
21
708.731771
0
LINE
8
hole
62
5
39
2
10
366.381753
20
612.731768
11
366.953253
21
612.731768
0
LINE
8
hole
62
5
39
2
10
366.953253
20
612.731768
11
366.953253
21
613.303268
0
LINE
8
hole
62
5
39
2
10
366.953253
20
613.303268
11
366.381753
21
613.303268
0
LINE
8
hole
62
5
39
2
10
366.381753
20
613.303268
11
366.381753
21
612.731768
0
LINE
8
hole
62
5
39
2
10
46.381750
20
612.731768
11
46.953250
21
612.731768
0
LINE
8
hole
62
5
39
2
10
46.953250
20
612.731768
11
46.953250
21
613.303268
0
LINE
8
hole
62
5
39
2
10
46.953250
20
613.303268
11
46.381750
21
613.303268
0
LINE
8
hole
62
5
39
2
10
46.381750
20
613.303268
11
46.381750
21
612.731768
0
LINE
8
boundary
62
5
39
2
10
16.795322
20
493.017515
11
38.545321
21
493.017515
0
LINE
8
boundary
62
5
39
2
10
38.545321
20
493.017515
11
91.795323
21
493.017515
0
LINE
8
boundary
62
5
39
2
10
91.795323
20
493.017515
11
91.795322
21
498.817514
0
LINE
8
boundary
62
5
39
2
10
91.795322
20
498.817514
11
91.795323
21
513.017511
0
LINE
8
boundary
62
5
39
2
10
91.795323
20
513.017511
11
149.344299
21
513.017512
0
LINE
8
boundary
62
5
39
2
10
149.344299
20
513.017512
11
290.240071
21
513.017512
0
LINE
8
boundary
62
5
39
2
10
290.240071
20
513.017512
11
290.240071
21
507.217512
0
LINE
8
boundary
62
5
39
2
10
290.240071
20
507.217512
11
290.240071
21
493.017515
0
LINE
8
boundary
62
5
39
2
10
290.240071
20
493.017515
11
343.490059
21
493.017515
0
LINE
8
boundary
62
5
39
2
10
343.490059
20
493.017515
11
365.240054
21
493.017515
0
LINE
8
boundary
62
5
39
2
10
365.240054
20
493.017515
11
365.240054
21
498.817514
0
LINE
8
boundary
62
5
39
2
10
365.240054
20
498.817514
11
365.240054
21
513.017511
0
LINE
8
boundary
62
5
39
2
10
365.240054
20
513.017511
11
394.653543
21
513.017511
0
LINE
8
boundary
62
5
39
2
10
394.653543
20
513.017511
11
406.667504
21
513.017511
0
LINE
8
boundary
62
5
39
2
10
406.667504
20
513.017511
11
406.667504
21
571.017515
0
LINE
8
boundary
62
5
39
2
10
406.667504
20
571.017515
11
406.667504
21
713.017525
0
LINE
8
boundary
62
5
39
2
10
406.667504
20
713.017525
11
394.653544
21
713.017525
0
LINE
8
boundary
62
5
39
2
10
394.653544
20
713.017525
11
365.240054
21
713.017525
0
LINE
8
boundary
62
5
39
2
10
365.240054
20
713.017525
11
365.240053
21
718.817524
0
LINE
8
boundary
62
5
39
2
10
365.240053
20
718.817524
11
365.240054
21
733.017522
0
LINE
8
boundary
62
5
39
2
10
365.240054
20
733.017522
11
343.490060
21
733.017522
0
LINE
8
boundary
62
5
39
2
10
343.490060
20
733.017522
11
290.240072
21
733.017522
0
LINE
8
boundary
62
5
39
2
10
290.240072
20
733.017522
11
290.240072
21
727.217523
0
LINE
8
boundary
62
5
39
2
10
290.240072
20
727.217523
11
290.240071
21
713.017525
0
LINE
8
boundary
62
5
39
2
10
290.240071
20
713.017525
11
232.691095
21
713.017525
0
LINE
8
boundary
62
5
39
2
10
232.691095
20
713.017525
11
91.795323
21
713.017525
0
LINE
8
boundary
62
5
39
2
10
91.795323
20
713.017525
11
91.795323
21
718.817524
0
LINE
8
boundary
62
5
39
2
10
91.795323
20
718.817524
11
91.795323
21
733.017521
0
LINE
8
boundary
62
5
39
2
10
91.795323
20
733.017521
11
70.045323
21
733.017522
0
LINE
8
boundary
62
5
39
2
10
70.045323
20
733.017522
11
16.795322
21
733.017522
0
LINE
8
boundary
62
5
39
2
10
16.795322
20
733.017522
11
16.795322
21
727.217523
0
LINE
8
boundary
62
5
39
2
10
16.795322
20
727.217523
11
16.795322
21
713.017526
0
LINE
8
boundary
62
5
39
2
10
16.795322
20
713.017526
11
9.604569
21
713.017526
0
LINE
8
boundary
62
5
39
2
10
9.604569
20
713.017526
11
6.667500
21
713.017525
0
LINE
8
boundary
62
5
39
2
10
6.667500
20
713.017525
11
6.667500
21
655.017522
0
LINE
8
boundary
62
5
39
2
10
6.667500
20
655.017522
11
6.667500
21
513.017511
0
LINE
8
boundary
62
5
39
2
10
6.667500
20
513.017511
11
9.604569
21
513.017511
0
LINE
8
boundary
62
5
39
2
10
9.604569
20
513.017511
11
16.795322
21
513.017512
0
LINE
8
boundary
62
5
39
2
10
16.795322
20
513.017512
11
16.795322
21
507.217513
0
LINE
8
boundary
62
5
39
2
10
16.795322
20
507.217513
11
16.795322
21
493.017515
0
LINE
8
annotation
62
1
39
211
10
206.667502
20
709.017521
11
206.667502
21
710.446271
0
LINE
8
annotation
62
1
39
211
10
206.667502
20
709.017521
11
206.667502
21
710.446271
0
LINE
8
annotation
62
1
39
211
10
206.667502
20
710.446271
11
206.667502
21
709.017521
0
LINE
8
annotation
62
1
39
211
10
206.667502
20
709.017521
11
208.096252
21
709.017521
0
LINE
8
annotation
62
1
39
211
10
206.667502
20
517.017515
11
206.667502
21
515.588765
0
LINE
8
annotation
62
1
39
211
10
366.667503
20
613.017518
11
366.667503
21
614.446268
0
LINE
8
annotation
62
1
39
211
10
366.667503
20
613.017518
11
366.667503
21
614.446268
0
LINE
8
annotation
62
1
39
211
10
366.667503
20
614.446268
11
366.667503
21
613.017518
0
LINE
8
annotation
62
1
39
211
10
366.667503
20
613.017518
11
366.667503
21
611.588768
0
LINE
8
annotation
62
1
39
211
10
46.667500
20
613.017518
11
48.096250
21
613.017518
0
LINE
8
annotation
62
1
39
211
10
46.667500
20
613.017518
11
48.096250
21
613.017518
0
LINE
8
annotation
62
1
39
211
10
48.096250
20
613.017518
11
46.667500
21
613.017518
0
LINE
8
annotation
62
1
39
211
10
46.667500
20
613.017518
11
46.667500
21
611.588768
0
LINE
8
annotation
62
1
39
211
10
190.519399
20
556.365014
11
212.905483
21
556.365014
0
LINE
8
annotation
62
1
39
211
10
212.905483
20
556.365014
11
212.905483
21
556.365014
0
LINE
8
annotation
62
1
39
211
10
212.905483
20
556.365014
11
216.931674
21
556.726190
0
LINE
8
annotation
62
1
39
211
10
216.931674
20
556.726190
11
220.720180
21
557.767120
0
LINE
8
annotation
62
1
39
211
10
220.720180
20
557.767120
11
224.207989
21
559.423909
0
LINE
8
annotation
62
1
39
211
10
224.207989
20
559.423909
11
227.332089
21
561.632660
0
LINE
8
annotation
62
1
39
211
10
227.332089
20
561.632660
11
230.029471
21
564.329478
0
LINE
8
annotation
62
1
39
211
10
230.029471
20
564.329478
11
232.237120
21
567.450465
0
LINE
8
annotation
62
1
39
211
10
232.237120
20
567.450465
11
233.892028
21
570.931727
0
LINE
8
annotation
62
1
39
211
10
233.892028
20
570.931727
11
234.931180
21
574.709367
0
LINE
8
annotation
62
1
39
211
10
234.931180
20
574.709367
11
235.291567
21
578.719488
0
LINE
8
annotation
62
1
39
211
10
235.291567
20
578.719488
11
235.291567
21
589.928335
0
LINE
8
annotation
62
1
39
211
10
235.291567
20
589.928335
11
235.291567
21
589.928335
0
LINE
8
annotation
62
1
39
211
10
235.291567
20
589.928335
11
234.931180
21
593.936791
0
LINE
8
annotation
62
1
39
211
10
234.931180
20
593.936791
11
233.892028
21
597.713547
0
LINE
8
annotation
62
1
39
211
10
233.892028
20
597.713547
11
232.237120
21
601.194548
0
LINE
8
annotation
62
1
39
211
10
232.237120
20
601.194548
11
230.029471
21
604.315744
0
LINE
8
annotation
62
1
39
211
10
230.029471
20
604.315744
11
227.332089
21
607.013081
0
LINE
8
annotation
62
1
39
211
10
227.332089
20
607.013081
11
224.207989
21
609.222509
0
LINE
8
annotation
62
1
39
211
10
224.207989
20
609.222509
11
220.720180
21
610.879974
0
LINE
8
annotation
62
1
39
211
10
220.720180
20
610.879974
11
216.931674
21
611.921425
0
LINE
8
annotation
62
1
39
211
10
216.931674
20
611.921425
11
212.905483
21
612.282809
0
LINE
8
annotation
62
1
39
211
10
212.905483
20
612.282809
11
201.696636
21
612.282809
0
LINE
8
annotation
62
1
39
211
10
201.696636
20
612.282809
11
212.905483
21
612.282809
0
LINE
8
annotation
62
1
39
211
10
212.905483
20
612.282809
11
212.905483
21
612.282809
0
LINE
8
annotation
62
1
39
211
10
212.905483
20
612.282809
11
216.931674
21
612.644280
0
LINE
8
annotation
62
1
39
211
10
216.931674
20
612.644280
11
220.720180
21
613.686338
0
LINE
8
annotation
62
1
39
211
10
220.720180
20
613.686338
11
224.207989
21
615.345451
0
LINE
8
annotation
62
1
39
211
10
224.207989
20
615.345451
11
227.332089
21
617.558087
0
LINE
8
annotation
62
1
39
211
10
227.332089
20
617.558087
11
230.029471
21
620.260715
0
LINE
8
annotation
62
1
39
211
10
230.029471
20
620.260715
11
232.237120
21
623.389802
0
LINE
8
annotation
62
1
39
211
10
232.237120
20
623.389802
11
233.892028
21
626.881817
0
LINE
8
annotation
62
1
39
211
10
233.892028
20
626.881817
11
234.931180
21
630.673228
0
LINE
8
annotation
62
1
39
211
10
234.931180
20
630.673228
11
235.291567
21
634.700503
0
LINE
8
annotation
62
1
39
211
10
235.291567
20
634.700503
11
235.291567
21
634.700503
0
LINE
8
annotation
62
1
39
211
10
235.291567
20
634.700503
11
234.931180
21
638.708960
0
LINE
8
annotation
62
1
39
211
10
234.931180
20
638.708960
11
233.892028
21
642.485715
0
LINE
8
annotation
62
1
39
211
10
233.892028
20
642.485715
11
232.237120
21
645.966716
0
LINE
8
annotation
62
1
39
211
10
232.237120
20
645.966716
11
230.029471
21
649.087912
0
LINE
8
annotation
62
1
39
211
10
230.029471
20
649.087912
11
227.332089
21
651.785250
0
LINE
8
annotation
62
1
39
211
10
227.332089
20
651.785250
11
224.207989
21
653.994677
0
LINE
8
annotation
62
1
39
211
10
224.207989
20
653.994677
11
220.720180
21
655.652143
0
LINE
8
annotation
62
1
39
211
10
220.720180
20
655.652143
11
216.931674
21
656.693593
0
LINE
8
annotation
62
1
39
211
10
216.931674
20
656.693593
11
212.905483
21
657.054977
0
LINE
8
annotation
62
1
39
211
10
212.905483
20
657.054977
11
190.519399
21
657.054977
0
LINE
8
hole
62
5
39
2
10
366.381753
20
855.906776
11
366.953253
21
855.906776
0
LINE
8
hole
62
5
39
2
10
366.953253
20
855.906776
11
366.953253
21
856.478276
0
LINE
8
hole
62
5
39
2
10
366.953253
20
856.478276
11
366.381753
21
856.478276
0
LINE
8
hole
62
5
39
2
10
366.381753
20
856.478276
11
366.381753
21
855.906776
0
LINE
8
hole
62
5
39
2
10
46.381750
20
855.906776
11
46.953250
21
855.906776
0
LINE
8
hole
62
5
39
2
10
46.953250
20
855.906776
11
46.953250
21
856.478276
0
LINE
8
hole
62
5
39
2
10
46.953250
20
856.478276
11
46.381750
21
856.478276
0
LINE
8
hole
62
5
39
2
10
46.381750
20
856.478276
11
46.381750
21
855.906776
0
LINE
8
boundary
62
5
39
2
10
16.795322
20
736.192522
11
17.545321
21
736.192522
0
LINE
8
boundary
62
5
39
2
10
17.545321
20
736.192522
11
91.795323
21
736.192522
0
LINE
8
boundary
62
5
39
2
10
91.795323
20
736.192522
11
91.795323
21
756.192519
0
LINE
8
boundary
62
5
39
2
10
91.795323
20
756.192519
11
93.779768
21
756.192519
0
LINE
8
boundary
62
5
39
2
10
93.779768
20
756.192519
11
290.240071
21
756.192519
0
LINE
8
boundary
62
5
39
2
10
290.240071
20
756.192519
11
290.240071
21
736.192523
0
LINE
8
boundary
62
5
39
2
10
290.240071
20
736.192523
11
364.490054
21
736.192522
0
LINE
8
boundary
62
5
39
2
10
364.490054
20
736.192522
11
365.240054
21
736.192523
0
LINE
8
boundary
62
5
39
2
10
365.240054
20
736.192523
11
365.240054
21
756.192519
0
LINE
8
boundary
62
5
39
2
10
365.240054
20
756.192519
11
406.253229
21
756.192519
0
LINE
8
boundary
62
5
39
2
10
406.253229
20
756.192519
11
406.667504
21
758.192517
0
LINE
8
boundary
62
5
39
2
10
406.667504
20
758.192517
11
406.667504
21
956.192532
0
LINE
8
boundary
62
5
39
2
10
406.667504
20
956.192532
11
365.240054
21
956.192532
0
LINE
8
boundary
62
5
39
2
10
365.240054
20
956.192532
11
365.240054
21
976.192529
0
LINE
8
boundary
62
5
39
2
10
365.240054
20
976.192529
11
364.490055
21
976.192529
0
LINE
8
boundary
62
5
39
2
10
364.490055
20
976.192529
11
290.240072
21
976.192529
0
LINE
8
boundary
62
5
39
2
10
290.240072
20
976.192529
11
290.240071
21
956.192532
0
LINE
8
boundary
62
5
39
2
10
290.240071
20
956.192532
11
288.255626
21
956.192532
0
LINE
8
boundary
62
5
39
2
10
288.255626
20
956.192532
11
91.795323
21
956.192532
0
LINE
8
boundary
62
5
39
2
10
91.795323
20
956.192532
11
91.795323
21
976.192529
0
LINE
8
boundary
62
5
39
2
10
91.795323
20
976.192529
11
91.045324
21
976.192529
0
LINE
8
boundary
62
5
39
2
10
91.045324
20
976.192529
11
16.795322
21
976.192529
0
LINE
8
boundary
62
5
39
2
10
16.795322
20
976.192529
11
16.795322
21
956.192533
0
LINE
8
boundary
62
5
39
2
10
16.795322
20
956.192533
11
6.768778
21
956.192533
0
LINE
8
boundary
62
5
39
2
10
6.768778
20
956.192533
11
6.667500
21
954.192535
0
LINE
8
boundary
62
5
39
2
10
6.667500
20
954.192535
11
6.667500
21
756.192519
0
LINE
8
boundary
62
5
39
2
10
6.667500
20
756.192519
11
16.795322
21
756.192519
0
LINE
8
boundary
62
5
39
2
10
16.795322
20
756.192519
11
16.795322
21
736.192522
0
LINE
8
annotation
62
1
39
211
10
366.667503
20
856.192526
11
366.667503
21
857.621276
0
LINE
8
annotation
62
1
39
211
10
366.667503
20
856.192526
11
366.667503
21
857.621276
0
LINE
8
annotation
62
1
39
211
10
366.667503
20
857.621276
11
366.667503
21
856.192526
0
LINE
8
annotation
62
1
39
211
10
366.667503
20
856.192526
11
366.667503
21
854.763776
0
LINE
8
annotation
62
1
39
211
10
46.667500
20
856.192526
11
48.096250
21
856.192526
0
LINE
8
annotation
62
1
39
211
10
46.667500
20
856.192526
11
48.096250
21
856.192526
0
LINE
8
annotation
62
1
39
211
10
48.096250
20
856.192526
11
46.667500
21
856.192526
0
LINE
8
annotation
62
1
39
211
10
46.667500
20
856.192526
11
46.667500
21
854.763776
0
LINE
8
annotation
62
1
39
211
10
240.892829
20
821.948232
11
184.918136
21
821.948232
0
LINE
8
annotation
62
1
39
211
10
184.918136
20
821.948232
11
207.272611
21
900.346941
0
LINE
8
annotation
62
1
39
211
10
224.114330
20
799.536860
11
224.114330
21
844.309028
0
LINE
8
frame
62
5
39
2
10
0.000000
20
0.000000
11
800.000000
21
0.000000
0
LINE
8
frame
62
5
39
2
10
800.000000
20
0.000000
11
800.000000
21
1000.000000
0
LINE
8
frame
62
5
39
2
10
800.000000
20
1000.000000
11
0.000000
21
1000.000000
0
LINE
8
frame
62
5
39
2
10
0.000000
20
1000.000000
11
0.000000
21
0.000000
0
ENDSEC
0
EOF
