0
SECTION
2
HEADER
9
$ACADVER
1
AC1009
0
ENDSEC
0
SECTION
2
TABLES
0
TABLE
2
VPORT
70
1
0
VPORT
2
ACTIVE
70
0
10
0.0
20
0.0
11
0.0
21
0.0
12
0.0
22
0.0
13
0.0
23
0.0
14
0.0
24
0.0
15
0.0
25
0.0
16
0.0
26
0.0
36
0.0
17
0.0
27
0.0
37
0.0
40
0.0
41
0.0
42
0.0
43
0.0
44
0.0
50
0.0
51
0.0
71
0
72
1000
73
1
74
3
75
0
76
0
77
0
78
0
0
ENDTAB
0
ENDSEC
0
SECTION
2
ENTITIES
0
LINE
8
hole
62
5
39
2
10
104.845480
20
102.661432
11
104.375365
21
103.131549
0
LINE
8
hole
62
5
39
2
10
104.375365
20
103.131549
11
103.990567
21
103.806893
0
LINE
8
hole
62
5
39
2
10
103.990567
20
103.806893
11
103.833295
21
104.568095
0
LINE
8
hole
62
5
39
2
10
103.833295
20
104.568095
11
103.851724
21
105.077631
0
LINE
8
hole
62
5
39
2
10
103.851724
20
105.077631
11
104.239138
21
106.048901
0
LINE
8
hole
62
5
39
2
10
104.239138
20
106.048901
11
104.762518
21
106.623554
0
LINE
8
hole
62
5
39
2
10
104.762518
20
106.623554
11
105.437862
21
107.008352
0
LINE
8
hole
62
5
39
2
10
105.437862
20
107.008352
11
106.199061
21
107.165624
0
LINE
8
hole
62
5
39
2
10
106.199061
20
107.165624
11
106.971603
21
107.079971
0
LINE
8
hole
62
5
39
2
10
106.971603
20
107.079971
11
107.679867
21
106.759781
0
LINE
8
hole
62
5
39
2
10
107.679867
20
106.759781
11
108.254525
21
106.236401
0
LINE
8
hole
62
5
39
2
10
108.254525
20
106.236401
11
108.639319
21
105.561054
0
LINE
8
hole
62
5
39
2
10
108.639319
20
105.561054
11
108.796588
21
104.799857
0
LINE
8
hole
62
5
39
2
10
108.796588
20
104.799857
11
108.710937
21
104.027313
0
LINE
8
hole
62
5
39
2
10
108.710937
20
104.027313
11
108.390752
21
103.319049
0
LINE
8
hole
62
5
39
2
10
108.390752
20
103.319049
11
107.867368
21
102.744393
0
LINE
8
hole
62
5
39
2
10
107.867368
20
102.744393
11
107.192023
21
102.359595
0
LINE
8
hole
62
5
39
2
10
107.192023
20
102.359595
11
106.430824
21
102.202331
0
LINE
8
hole
62
5
39
2
10
106.430824
20
102.202331
11
105.658281
21
102.287977
0
LINE
8
hole
62
5
39
2
10
105.658281
20
102.287977
11
104.950018
21
102.608166
0
LINE
8
hole
62
5
39
2
10
104.950018
20
102.608166
11
104.845480
21
102.661432
0
LINE
8
hole
62
5
39
2
10
102.684735
20
25.368178
11
102.299939
21
26.043522
0
LINE
8
hole
62
5
39
2
10
102.299939
20
26.043522
11
102.142672
21
26.804722
0
LINE
8
hole
62
5
39
2
10
102.142672
20
26.804722
11
102.161098
21
27.314260
0
LINE
8
hole
62
5
39
2
10
102.161098
20
27.314260
11
102.548508
21
28.285528
0
LINE
8
hole
62
5
39
2
10
102.548508
20
28.285528
11
103.071893
21
28.860183
0
LINE
8
hole
62
5
39
2
10
103.071893
20
28.860183
11
103.747235
21
29.244979
0
LINE
8
hole
62
5
39
2
10
103.747235
20
29.244979
11
104.508436
21
29.402251
0
LINE
8
hole
62
5
39
2
10
104.508436
20
29.402251
11
105.280979
21
29.316598
0
LINE
8
hole
62
5
39
2
10
105.280979
20
29.316598
11
105.989242
21
28.996410
0
LINE
8
hole
62
5
39
2
10
105.989242
20
28.996410
11
106.563898
21
28.473028
0
LINE
8
hole
62
5
39
2
10
106.563898
20
28.473028
11
106.948694
21
27.797683
0
LINE
8
hole
62
5
39
2
10
106.948694
20
27.797683
11
107.105965
21
27.036484
0
LINE
8
hole
62
5
39
2
10
107.105965
20
27.036484
11
107.020313
21
26.263942
0
LINE
8
hole
62
5
39
2
10
107.020313
20
26.263942
11
106.700124
21
25.555678
0
LINE
8
hole
62
5
39
2
10
106.700124
20
25.555678
11
106.176742
21
24.981020
0
LINE
8
hole
62
5
39
2
10
106.176742
20
24.981020
11
105.501398
21
24.596227
0
LINE
8
hole
62
5
39
2
10
105.501398
20
24.596227
11
104.740199
21
24.438958
0
LINE
8
hole
62
5
39
2
10
104.740199
20
24.438958
11
103.967654
21
24.524609
0
LINE
8
hole
62
5
39
2
10
103.967654
20
24.524609
11
103.259393
21
24.844794
0
LINE
8
hole
62
5
39
2
10
103.259393
20
24.844794
11
102.684735
21
25.368178
0
LINE
8
hole
62
5
39
2
10
25.391481
20
26.588689
11
24.921364
21
27.058804
0
LINE
8
hole
62
5
39
2
10
24.921364
20
27.058804
11
24.536571
21
27.734150
0
LINE
8
hole
62
5
39
2
10
24.536571
20
27.734150
11
24.379302
21
28.495347
0
LINE
8
hole
62
5
39
2
10
24.379302
20
28.495347
11
24.397727
21
29.004887
0
LINE
8
hole
62
5
39
2
10
24.397727
20
29.004887
11
24.785138
21
29.976155
0
LINE
8
hole
62
5
39
2
10
24.785138
20
29.976155
11
25.308520
21
30.550811
0
LINE
8
hole
62
5
39
2
10
25.308520
20
30.550811
11
25.983866
21
30.935609
0
LINE
8
hole
62
5
39
2
10
25.983866
20
30.935609
11
26.745066
21
31.092874
0
LINE
8
hole
62
5
39
2
10
26.745066
20
31.092874
11
27.517606
21
31.007227
0
LINE
8
hole
62
5
39
2
10
27.517606
20
31.007227
11
28.225871
21
30.687038
0
LINE
8
hole
62
5
39
2
10
28.225871
20
30.687038
11
28.800525
21
30.163655
0
LINE
8
hole
62
5
39
2
10
28.800525
20
30.163655
11
29.185323
21
29.488311
0
LINE
8
hole
62
5
39
2
10
29.185323
20
29.488311
11
29.342595
21
28.727110
0
LINE
8
hole
62
5
39
2
10
29.342595
20
28.727110
11
29.256942
21
27.954569
0
LINE
8
hole
62
5
39
2
10
29.256942
20
27.954569
11
28.936751
21
27.246303
0
LINE
8
hole
62
5
39
2
10
28.936751
20
27.246303
11
28.413371
21
26.671650
0
LINE
8
hole
62
5
39
2
10
28.413371
20
26.671650
11
27.738025
21
26.286852
0
LINE
8
hole
62
5
39
2
10
27.738025
20
26.286852
11
26.976828
21
26.129580
0
LINE
8
hole
62
5
39
2
10
26.976828
20
26.129580
11
26.204286
21
26.215233
0
LINE
8
hole
62
5
39
2
10
26.204286
20
26.215233
11
25.496020
21
26.535424
0
LINE
8
hole
62
5
39
2
10
25.496020
20
26.535424
11
25.391481
21
26.588689
0
LINE
8
hole
62
5
39
2
10
26.907444
20
104.513587
11
26.522648
21
105.188933
0
LINE
8
hole
62
5
39
2
10
26.522648
20
105.188933
11
26.365379
21
105.950133
0
LINE
8
hole
62
5
39
2
10
26.365379
20
105.950133
11
26.383809
21
106.459671
0
LINE
8
hole
62
5
39
2
10
26.383809
20
106.459671
11
26.771217
21
107.430940
0
LINE
8
hole
62
5
39
2
10
26.771217
20
107.430940
11
27.294602
21
108.005597
0
LINE
8
hole
62
5
39
2
10
27.294602
20
108.005597
11
27.969944
21
108.390393
0
LINE
8
hole
62
5
39
2
10
27.969944
20
108.390393
11
28.731145
21
108.547662
0
LINE
8
hole
62
5
39
2
10
28.731145
20
108.547662
11
29.503688
21
108.462012
0
LINE
8
hole
62
5
39
2
10
29.503688
20
108.462012
11
30.211954
21
108.141824
0
LINE
8
hole
62
5
39
2
10
30.211954
20
108.141824
11
30.786607
21
107.618439
0
LINE
8
hole
62
5
39
2
10
30.786607
20
107.618439
11
31.171403
21
106.943097
0
LINE
8
hole
62
5
39
2
10
31.171403
20
106.943097
11
31.328672
21
106.181896
0
LINE
8
hole
62
5
39
2
10
31.328672
20
106.181896
11
31.243021
21
105.409353
0
LINE
8
hole
62
5
39
2
10
31.243021
20
105.409353
11
30.922834
21
104.701087
0
LINE
8
hole
62
5
39
2
10
30.922834
20
104.701087
11
30.399454
21
104.126434
0
LINE
8
hole
62
5
39
2
10
30.399454
20
104.126434
11
29.724108
21
103.741638
0
LINE
8
hole
62
5
39
2
10
29.724108
20
103.741638
11
28.962908
21
103.584369
0
LINE
8
hole
62
5
39
2
10
28.962908
20
103.584369
11
28.190363
21
103.670020
0
LINE
8
hole
62
5
39
2
10
28.190363
20
103.670020
11
27.482102
21
103.990208
0
LINE
8
hole
62
5
39
2
10
27.482102
20
103.990208
11
26.907444
21
104.513587
0
LINE
8
boundary
62
5
39
2
10
16.498312
20
33.690612
11
19.540758
21
29.411033
0
LINE
8
boundary
62
5
39
2
10
19.540758
20
29.411033
11
20.152466
21
28.715021
0
LINE
8
boundary
62
5
39
2
10
20.152466
20
28.715021
11
23.618812
21
24.770952
0
LINE
8
boundary
62
5
39
2
10
23.618812
20
24.770952
11
24.298844
21
24.141526
0
LINE
8
boundary
62
5
39
2
10
24.298844
20
24.141526
11
28.152356
21
20.574778
0
LINE
8
boundary
62
5
39
2
10
28.152356
20
20.574778
11
28.893501
21
20.018609
0
LINE
8
boundary
62
5
39
2
10
28.893501
20
20.018609
11
33.093319
21
16.866980
0
LINE
8
boundary
62
5
39
2
10
33.093319
20
16.866980
11
33.887721
21
16.389965
0
LINE
8
boundary
62
5
39
2
10
33.887721
20
16.389965
11
38.389338
21
13.686875
0
LINE
8
boundary
62
5
39
2
10
38.389338
20
13.686875
11
39.228577
21
13.294069
0
LINE
8
boundary
62
5
39
2
10
39.228577
20
13.294069
11
43.984269
21
11.068164
0
LINE
8
boundary
62
5
39
2
10
43.984269
20
11.068164
11
44.859449
21
10.763731
0
LINE
8
boundary
62
5
39
2
10
44.859449
20
10.763731
11
49.818804
21
9.038612
0
LINE
8
boundary
62
5
39
2
10
49.818804
20
9.038612
11
50.720648
21
8.825779
0
LINE
8
boundary
62
5
39
2
10
50.720648
20
8.825779
11
55.831099
21
7.619725
0
LINE
8
boundary
62
5
39
2
10
55.831099
20
7.619725
11
56.750046
21
7.500749
0
LINE
8
boundary
62
5
39
2
10
56.750046
20
7.500749
11
61.957416
21
6.826550
0
LINE
8
boundary
62
5
39
2
10
61.957416
20
6.826550
11
62.883726
21
6.802693
0
LINE
8
boundary
62
5
39
2
10
62.883726
20
6.802693
11
68.132818
21
6.667500
0
LINE
8
boundary
62
5
39
2
10
68.132818
20
6.667500
11
69.056672
21
6.739011
0
LINE
8
boundary
62
5
39
2
10
69.056672
20
6.739011
11
74.291845
21
7.144239
0
LINE
8
boundary
62
5
39
2
10
74.291845
20
7.144239
11
75.203449
21
7.310365
0
LINE
8
boundary
62
5
39
2
10
75.203449
20
7.310365
11
80.369208
21
8.251742
0
LINE
8
boundary
62
5
39
2
10
80.369208
20
8.251742
11
81.258899
21
8.510718
0
LINE
8
boundary
62
5
39
2
10
81.258899
20
8.510718
11
86.300486
21
9.978247
0
LINE
8
boundary
62
5
39
2
10
86.300486
20
9.978247
11
87.158834
21
10.327330
0
LINE
8
boundary
62
5
39
2
10
87.158834
20
10.327330
11
92.022807
21
12.305467
0
LINE
8
boundary
62
5
39
2
10
92.022807
20
12.305467
11
92.840712
21
12.740956
0
LINE
8
boundary
62
5
39
2
10
92.840712
20
12.740956
11
97.475511
21
15.208724
0
LINE
8
boundary
62
5
39
2
10
97.475511
20
15.208724
11
98.244304
21
15.726002
0
LINE
8
boundary
62
5
39
2
10
98.244304
20
15.726002
11
102.600801
21
18.657245
0
LINE
8
boundary
62
5
39
2
10
102.600801
20
18.657245
11
103.312332
21
19.250830
0
LINE
8
boundary
62
5
39
2
10
103.312332
20
19.250830
11
107.344346
21
22.614480
0
LINE
8
boundary
62
5
39
2
10
107.344346
20
22.614480
11
107.991073
21
23.278079
0
LINE
8
boundary
62
5
39
2
10
107.991073
20
23.278079
11
111.655859
21
27.038474
0
LINE
8
boundary
62
5
39
2
10
111.655859
20
27.038474
11
112.230927
21
27.765053
0
LINE
8
boundary
62
5
39
2
10
112.230927
20
27.765053
11
115.489643
21
31.882337
0
LINE
8
boundary
62
5
39
2
10
115.489643
20
31.882337
11
115.986955
21
32.664194
0
LINE
8
boundary
62
5
39
2
10
115.986955
20
32.664194
11
118.805060
21
37.094718
0
LINE
8
boundary
62
5
39
2
10
118.805060
20
37.094718
11
119.219345
21
37.923566
0
LINE
8
boundary
62
5
39
2
10
119.219345
20
37.923566
11
121.566961
21
42.620367
0
LINE
8
boundary
62
5
39
2
10
121.566961
20
42.620367
11
121.893827
21
43.487419
0
LINE
8
boundary
62
5
39
2
10
121.893827
20
43.487419
11
123.746067
21
48.400713
0
LINE
8
boundary
62
5
39
2
10
123.746067
20
48.400713
11
123.982050
21
49.296778
0
LINE
8
boundary
62
5
39
2
10
123.982050
20
49.296778
11
125.319287
21
54.374478
0
LINE
8
boundary
62
5
39
2
10
125.319287
20
54.374478
11
125.461885
21
55.290058
0
LINE
8
boundary
62
5
39
2
10
125.461885
20
55.290058
11
126.269938
21
60.478342
0
LINE
8
boundary
62
5
39
2
10
126.269938
20
60.478342
11
126.317639
21
61.403731
0
LINE
8
boundary
62
5
39
2
10
126.317639
20
61.403731
11
126.587942
21
66.647602
0
LINE
8
boundary
62
5
39
2
10
126.587942
20
66.647602
11
126.540241
21
67.572991
0
LINE
8
boundary
62
5
39
2
10
126.540241
20
67.572991
11
126.269938
21
72.816862
0
LINE
8
boundary
62
5
39
2
10
126.269938
20
72.816862
11
126.127341
21
73.732442
0
LINE
8
boundary
62
5
39
2
10
126.127341
20
73.732442
11
125.319288
21
78.920726
0
LINE
8
boundary
62
5
39
2
10
125.319288
20
78.920726
11
125.083304
21
79.816791
0
LINE
8
boundary
62
5
39
2
10
125.083304
20
79.816791
11
123.746067
21
84.894491
0
LINE
8
boundary
62
5
39
2
10
123.746067
20
84.894491
11
123.419201
21
85.761543
0
LINE
8
boundary
62
5
39
2
10
123.419201
20
85.761543
11
121.566961
21
90.674837
0
LINE
8
boundary
62
5
39
2
10
121.566961
20
90.674837
11
121.152676
21
91.503685
0
LINE
8
boundary
62
5
39
2
10
121.152676
20
91.503685
11
118.805059
21
96.200486
0
LINE
8
boundary
62
5
39
2
10
118.805059
20
96.200486
11
118.307747
21
96.982343
0
LINE
8
boundary
62
5
39
2
10
118.307747
20
96.982343
11
115.489643
21
101.412868
0
LINE
8
boundary
62
5
39
2
10
115.489643
20
101.412868
11
114.914575
21
102.139447
0
LINE
8
boundary
62
5
39
2
10
114.914575
20
102.139447
11
111.655859
21
106.256731
0
LINE
8
boundary
62
5
39
2
10
111.655859
20
106.256731
11
111.009132
21
106.920330
0
LINE
8
boundary
62
5
39
2
10
111.009132
20
106.920330
11
107.344346
21
110.680725
0
LINE
8
boundary
62
5
39
2
10
107.344346
20
110.680725
11
106.632814
21
111.274310
0
LINE
8
boundary
62
5
39
2
10
106.632814
20
111.274310
11
102.600801
21
114.637959
0
LINE
8
boundary
62
5
39
2
10
102.600801
20
114.637959
11
101.832007
21
115.155238
0
LINE
8
boundary
62
5
39
2
10
101.832007
20
115.155238
11
97.475511
21
118.086480
0
LINE
8
boundary
62
5
39
2
10
97.475511
20
118.086480
11
96.657605
21
118.521969
0
LINE
8
boundary
62
5
39
2
10
96.657605
20
118.521969
11
92.022807
21
120.989737
0
LINE
8
boundary
62
5
39
2
10
92.022807
20
120.989737
11
91.164459
21
121.338820
0
LINE
8
boundary
62
5
39
2
10
91.164459
20
121.338820
11
86.300486
21
123.316957
0
LINE
8
boundary
62
5
39
2
10
86.300486
20
123.316957
11
85.410794
21
123.575933
0
LINE
8
boundary
62
5
39
2
10
85.410794
20
123.575933
11
80.369208
21
125.043462
0
LINE
8
boundary
62
5
39
2
10
80.369208
20
125.043462
11
79.457603
21
125.209588
0
LINE
8
boundary
62
5
39
2
10
79.457603
20
125.209588
11
74.291845
21
126.150965
0
LINE
8
boundary
62
5
39
2
10
74.291845
20
126.150965
11
73.367991
21
126.222476
0
LINE
8
boundary
62
5
39
2
10
73.367991
20
126.222476
11
68.132818
21
126.627704
0
LINE
8
boundary
62
5
39
2
10
68.132818
20
126.627704
11
67.206508
21
126.603847
0
LINE
8
boundary
62
5
39
2
10
67.206508
20
126.603847
11
61.957416
21
126.468654
0
LINE
8
boundary
62
5
39
2
10
61.957416
20
126.468654
11
61.038468
21
126.349678
0
LINE
8
boundary
62
5
39
2
10
61.038468
20
126.349678
11
55.831099
21
125.675479
0
LINE
8
boundary
62
5
39
2
10
55.831099
20
125.675479
11
54.929254
21
125.462646
0
LINE
8
boundary
62
5
39
2
10
54.929254
20
125.462646
11
49.818804
21
124.256592
0
LINE
8
boundary
62
5
39
2
10
49.818804
20
124.256592
11
48.943624
21
123.952159
0
LINE
8
boundary
62
5
39
2
10
48.943624
20
123.952159
11
43.984269
21
122.227040
0
LINE
8
boundary
62
5
39
2
10
43.984269
20
122.227040
11
43.145029
21
121.834234
0
LINE
8
boundary
62
5
39
2
10
43.145029
20
121.834234
11
38.389337
21
119.608329
0
LINE
8
boundary
62
5
39
2
10
38.389337
20
119.608329
11
37.594935
21
119.131313
0
LINE
8
boundary
62
5
39
2
10
37.594935
20
119.131313
11
33.093319
21
116.428224
0
LINE
8
boundary
62
5
39
2
10
33.093319
20
116.428224
11
32.352174
21
115.872054
0
LINE
8
boundary
62
5
39
2
10
32.352174
20
115.872054
11
28.152356
21
112.720426
0
LINE
8
boundary
62
5
39
2
10
28.152356
20
112.720426
11
27.472325
21
112.091000
0
LINE
8
boundary
62
5
39
2
10
27.472325
20
112.091000
11
23.618812
21
108.524252
0
LINE
8
boundary
62
5
39
2
10
23.618812
20
108.524252
11
23.007104
21
107.828240
0
LINE
8
boundary
62
5
39
2
10
23.007104
20
107.828240
11
19.540757
21
103.884171
0
LINE
8
boundary
62
5
39
2
10
19.540757
20
103.884171
11
19.003855
21
103.128951
0
LINE
8
boundary
62
5
39
2
10
19.003855
20
103.128951
11
15.961409
21
98.849373
0
LINE
8
boundary
62
5
39
2
10
15.961409
20
98.849373
11
15.505006
21
98.042952
0
LINE
8
boundary
62
5
39
2
10
15.505006
20
98.042952
11
12.918717
21
93.473230
0
LINE
8
boundary
62
5
39
2
10
12.918717
20
93.473230
11
12.547650
21
92.624154
0
LINE
8
boundary
62
5
39
2
10
12.547650
20
92.624154
11
10.444934
21
87.812727
0
LINE
8
boundary
62
5
39
2
10
10.444934
20
87.812727
11
10.163136
21
86.929998
0
LINE
8
boundary
62
5
39
2
10
10.163136
20
86.929998
11
8.566282
21
81.927869
0
LINE
8
boundary
62
5
39
2
10
8.566282
20
81.927869
11
7.767428
21
78.387374
0
LINE
8
boundary
62
5
39
2
10
7.767428
20
78.387374
11
7.626453
21
77.762580
0
LINE
8
boundary
62
5
39
2
10
7.626453
20
77.762580
11
7.351239
21
76.163269
0
LINE
8
boundary
62
5
39
2
10
7.351239
20
76.163269
11
7.207396
21
74.959331
0
LINE
8
boundary
62
5
39
2
10
7.207396
20
74.959331
11
6.667500
21
69.736328
0
LINE
8
boundary
62
5
39
2
10
6.667500
20
69.736328
11
6.667500
21
68.809710
0
LINE
8
boundary
62
5
39
2
10
6.667500
20
68.809710
11
6.667500
21
63.558877
0
LINE
8
boundary
62
5
39
2
10
6.667500
20
63.558877
11
6.762776
21
62.637170
0
LINE
8
boundary
62
5
39
2
10
6.762776
20
62.637170
11
7.302672
21
57.414167
0
LINE
8
boundary
62
5
39
2
10
7.302672
20
57.414167
11
7.492214
21
56.507142
0
LINE
8
boundary
62
5
39
2
10
7.492214
20
56.507142
11
8.566282
21
51.367335
0
LINE
8
boundary
62
5
39
2
10
8.566282
20
51.367335
11
8.848080
21
50.484606
0
LINE
8
boundary
62
5
39
2
10
8.848080
20
50.484606
11
10.444934
21
45.482477
0
LINE
8
boundary
62
5
39
2
10
10.444934
20
45.482477
11
10.816002
21
44.633402
0
LINE
8
boundary
62
5
39
2
10
10.816002
20
44.633402
11
12.918717
21
39.821975
0
LINE
8
boundary
62
5
39
2
10
12.918717
20
39.821975
11
13.375121
21
39.015553
0
LINE
8
boundary
62
5
39
2
10
13.375121
20
39.015553
11
15.961409
21
34.445831
0
LINE
8
boundary
62
5
39
2
10
15.961409
20
34.445831
11
16.498312
21
33.690612
0
LINE
8
annotation
62
1
39
211
10
75.697459
20
32.380542
11
75.697459
21
97.165531
0
LINE
8
annotation
62
1
39
211
10
75.697459
20
97.165531
11
61.294926
21
82.758935
0
LINE
8
frame
62
5
39
2
10
0.000000
20
0.000000
11
800.000000
21
0.000000
0
LINE
8
frame
62
5
39
2
10
800.000000
20
0.000000
11
800.000000
21
1000.000000
0
LINE
8
frame
62
5
39
2
10
800.000000
20
1000.000000
11
0.000000
21
1000.000000
0
LINE
8
frame
62
5
39
2
10
0.000000
20
1000.000000
11
0.000000
21
0.000000
0
ENDSEC
0
EOF
