0
SECTION
2
HEADER
9
$ACADVER
1
AC1009
0
ENDSEC
0
SECTION
2
TABLES
0
TABLE
2
VPORT
70
1
0
VPORT
2
ACTIVE
70
0
10
0.0
20
0.0
11
0.0
21
0.0
12
0.0
22
0.0
13
0.0
23
0.0
14
0.0
24
0.0
15
0.0
25
0.0
16
0.0
26
0.0
36
0.0
17
0.0
27
0.0
37
0.0
40
0.0
41
0.0
42
0.0
43
0.0
44
0.0
50
0.0
51
0.0
71
0
72
1000
73
1
74
3
75
0
76
0
77
0
78
0
0
ENDTAB
0
ENDSEC
0
SECTION
2
ENTITIES
0
LINE
8
hole
62
5
39
2
10
9.881750
20
70.094422
11
10.453250
21
70.094422
0
LINE
8
hole
62
5
39
2
10
10.453250
20
70.094422
11
10.453250
21
70.665922
0
LINE
8
hole
62
5
39
2
10
10.453250
20
70.665922
11
9.881750
21
70.665922
0
LINE
8
hole
62
5
39
2
10
9.881750
20
70.665922
11
9.881750
21
70.094422
0
LINE
8
hole
62
5
39
2
10
37.881751
20
70.094422
11
38.453251
21
70.094422
0
LINE
8
hole
62
5
39
2
10
38.453251
20
70.094422
11
38.453251
21
70.665922
0
LINE
8
hole
62
5
39
2
10
38.453251
20
70.665922
11
37.881751
21
70.665922
0
LINE
8
hole
62
5
39
2
10
37.881751
20
70.665922
11
37.881751
21
70.094422
0
LINE
8
hole
62
5
39
2
10
22.553892
20
125.912852
11
22.268228
21
126.469238
0
LINE
8
hole
62
5
39
2
10
22.268228
20
126.469238
11
22.168480
21
127.086661
0
LINE
8
hole
62
5
39
2
10
22.168480
20
127.086661
11
22.264409
21
127.704700
0
LINE
8
hole
62
5
39
2
10
22.264409
20
127.704700
11
22.546626
21
128.262836
0
LINE
8
hole
62
5
39
2
10
22.546626
20
128.262836
11
22.987506
21
128.706456
0
LINE
8
hole
62
5
39
2
10
22.987506
20
128.706456
11
23.543892
21
128.992125
0
LINE
8
hole
62
5
39
2
10
23.543892
20
128.992125
11
24.161320
21
129.091861
0
LINE
8
hole
62
5
39
2
10
24.161320
20
129.091861
11
24.779354
21
128.995944
0
LINE
8
hole
62
5
39
2
10
24.779354
20
128.995944
11
25.337496
21
128.713721
0
LINE
8
hole
62
5
39
2
10
25.337496
20
128.713721
11
25.781110
21
128.272836
0
LINE
8
hole
62
5
39
2
10
25.781110
20
128.272836
11
26.066773
21
127.716456
0
LINE
8
hole
62
5
39
2
10
26.066773
20
127.716456
11
26.166522
21
127.099021
0
LINE
8
hole
62
5
39
2
10
26.166522
20
127.099021
11
26.070593
21
126.480993
0
LINE
8
hole
62
5
39
2
10
26.070593
20
126.480993
11
25.788376
21
125.922852
0
LINE
8
hole
62
5
39
2
10
25.788376
20
125.922852
11
25.347496
21
125.479238
0
LINE
8
hole
62
5
39
2
10
25.347496
20
125.479238
11
24.791110
21
125.193569
0
LINE
8
hole
62
5
39
2
10
24.791110
20
125.193569
11
24.173681
21
125.093821
0
LINE
8
hole
62
5
39
2
10
24.173681
20
125.093821
11
23.555647
21
125.189749
0
LINE
8
hole
62
5
39
2
10
23.555647
20
125.189749
11
22.997506
21
125.471973
0
LINE
8
hole
62
5
39
2
10
22.997506
20
125.471973
11
22.553892
21
125.912852
0
LINE
8
hole
62
5
39
2
10
20.133478
20
21.142860
11
19.419321
21
22.533821
0
LINE
8
hole
62
5
39
2
10
19.419321
20
22.533821
11
19.169948
21
24.077397
0
LINE
8
hole
62
5
39
2
10
19.169948
20
24.077397
11
19.409772
21
25.622482
0
LINE
8
hole
62
5
39
2
10
19.409772
20
25.622482
11
20.115314
21
27.017832
0
LINE
8
hole
62
5
39
2
10
20.115314
20
27.017832
11
21.217513
21
28.126870
0
LINE
8
hole
62
5
39
2
10
21.217513
20
28.126870
11
22.608477
21
28.841024
0
LINE
8
hole
62
5
39
2
10
22.608477
20
28.841024
11
24.152050
21
29.090398
0
LINE
8
hole
62
5
39
2
10
24.152050
20
29.090398
11
25.697135
21
28.850573
0
LINE
8
hole
62
5
39
2
10
25.697135
20
28.850573
11
27.092489
21
28.145033
0
LINE
8
hole
62
5
39
2
10
27.092489
20
28.145033
11
28.201524
21
27.042832
0
LINE
8
hole
62
5
39
2
10
28.201524
20
27.042832
11
28.915681
21
25.651871
0
LINE
8
hole
62
5
39
2
10
28.915681
20
25.651871
11
29.165054
21
24.108298
0
LINE
8
hole
62
5
39
2
10
29.165054
20
24.108298
11
28.925230
21
22.563210
0
LINE
8
hole
62
5
39
2
10
28.925230
20
22.563210
11
28.219687
21
21.167861
0
LINE
8
hole
62
5
39
2
10
28.219687
20
21.167861
11
27.117489
21
20.058822
0
LINE
8
hole
62
5
39
2
10
27.117489
20
20.058822
11
25.726524
21
19.344668
0
LINE
8
hole
62
5
39
2
10
25.726524
20
19.344668
11
24.182952
21
19.095291
0
LINE
8
hole
62
5
39
2
10
24.182952
20
19.095291
11
22.637867
21
19.335119
0
LINE
8
hole
62
5
39
2
10
22.637867
20
19.335119
11
21.242513
21
20.040659
0
LINE
8
hole
62
5
39
2
10
21.242513
20
20.040659
11
20.133478
21
21.142860
0
LINE
8
boundary
62
5
39
2
10
13.621395
20
10.127542
11
16.367080
21
8.427494
0
LINE
8
boundary
62
5
39
2
10
16.367080
20
8.427494
11
19.378398
21
7.260899
0
LINE
8
boundary
62
5
39
2
10
19.378398
20
7.260899
11
22.552805
21
6.667500
0
LINE
8
boundary
62
5
39
2
10
22.552805
20
6.667500
11
25.782197
21
6.667500
0
LINE
8
boundary
62
5
39
2
10
25.782197
20
6.667500
11
28.956603
21
7.260899
0
LINE
8
boundary
62
5
39
2
10
28.956603
20
7.260899
11
31.967922
21
8.427494
0
LINE
8
boundary
62
5
39
2
10
31.967922
20
8.427494
11
34.713607
21
10.127542
0
LINE
8
boundary
62
5
39
2
10
34.713607
20
10.127542
11
37.100157
21
12.303172
0
LINE
8
boundary
62
5
39
2
10
37.100157
20
12.303172
11
39.046300
21
14.880286
0
LINE
8
boundary
62
5
39
2
10
39.046300
20
14.880286
11
40.485764
21
17.771116
0
LINE
8
boundary
62
5
39
2
10
40.485764
20
17.771116
11
41.369530
21
20.877231
0
LINE
8
boundary
62
5
39
2
10
41.369530
20
20.877231
11
41.667502
21
24.092847
0
LINE
8
boundary
62
5
39
2
10
41.667502
20
24.092847
11
41.667501
21
25.192850
0
LINE
8
boundary
62
5
39
2
10
41.667501
20
25.192850
11
41.667502
21
134.092844
0
LINE
8
boundary
62
5
39
2
10
41.667502
20
134.092844
11
6.667500
21
134.092843
0
LINE
8
boundary
62
5
39
2
10
6.667500
20
134.092843
11
6.667500
21
25.192851
0
LINE
8
boundary
62
5
39
2
10
6.667500
20
25.192851
11
6.667500
21
24.092848
0
LINE
8
boundary
62
5
39
2
10
6.667500
20
24.092848
11
6.965471
21
20.877231
0
LINE
8
boundary
62
5
39
2
10
6.965471
20
20.877231
11
7.849238
21
17.771116
0
LINE
8
boundary
62
5
39
2
10
7.849238
20
17.771116
11
9.288702
21
14.880286
0
LINE
8
boundary
62
5
39
2
10
9.288702
20
14.880286
11
11.234845
21
12.303172
0
LINE
8
boundary
62
5
39
2
10
11.234845
20
12.303172
11
13.621395
21
10.127542
0
LINE
8
annotation
62
1
39
211
10
38.167501
20
70.380172
11
38.167501
21
71.808922
0
LINE
8
annotation
62
1
39
211
10
38.167501
20
70.380172
11
38.167501
21
71.808922
0
LINE
8
annotation
62
1
39
211
10
38.167501
20
71.808922
11
38.167501
21
70.380172
0
LINE
8
annotation
62
1
39
211
10
38.167501
20
70.380172
11
38.167501
21
68.951422
0
LINE
8
annotation
62
1
39
211
10
10.167500
20
70.380172
11
11.596250
21
70.380172
0
LINE
8
annotation
62
1
39
211
10
10.167500
20
70.380172
11
11.596250
21
70.380172
0
LINE
8
annotation
62
1
39
211
10
11.596250
20
70.380172
11
10.167500
21
70.380172
0
LINE
8
annotation
62
1
39
211
10
10.167500
20
70.380172
11
10.167500
21
68.951422
0
LINE
8
annotation
62
1
39
211
10
35.625420
20
64.888145
11
12.699224
21
64.888145
0
LINE
8
annotation
62
1
39
211
10
12.699224
20
64.888145
11
21.855202
21
96.998802
0
LINE
8
annotation
62
1
39
211
10
28.753258
20
55.708862
11
28.753258
21
74.046712
0
LINE
8
hole
62
5
39
2
10
24.070866
20
147.748325
11
24.642366
21
147.748325
0
LINE
8
hole
62
5
39
2
10
24.642366
20
147.748325
11
24.642366
21
148.319825
0
LINE
8
hole
62
5
39
2
10
24.642366
20
148.319825
11
24.070866
21
148.319825
0
LINE
8
hole
62
5
39
2
10
24.070866
20
148.319825
11
24.070866
21
147.748325
0
LINE
8
hole
62
5
39
2
10
9.881750
20
200.694765
11
10.453250
21
200.694765
0
LINE
8
hole
62
5
39
2
10
10.453250
20
200.694765
11
10.453250
21
201.266265
0
LINE
8
hole
62
5
39
2
10
10.453250
20
201.266265
11
9.881750
21
201.266265
0
LINE
8
hole
62
5
39
2
10
9.881750
20
201.266265
11
9.881750
21
200.694765
0
LINE
8
hole
62
5
39
2
10
23.881751
20
251.664903
11
24.453251
21
251.664903
0
LINE
8
hole
62
5
39
2
10
24.453251
20
251.664903
11
24.453251
21
252.236403
0
LINE
8
hole
62
5
39
2
10
24.453251
20
252.236403
11
23.881751
21
252.236403
0
LINE
8
hole
62
5
39
2
10
23.881751
20
252.236403
11
23.881751
21
251.664903
0
LINE
8
hole
62
5
39
2
10
37.881751
20
200.694765
11
38.453251
21
200.694765
0
LINE
8
hole
62
5
39
2
10
38.453251
20
200.694765
11
38.453251
21
201.266265
0
LINE
8
hole
62
5
39
2
10
38.453251
20
201.266265
11
37.881751
21
201.266265
0
LINE
8
hole
62
5
39
2
10
37.881751
20
201.266265
11
37.881751
21
200.694765
0
LINE
8
hole
62
5
39
2
10
22.677781
20
256.389306
11
22.347771
21
256.913471
0
LINE
8
hole
62
5
39
2
10
22.347771
20
256.913471
11
22.195888
21
257.513956
0
LINE
8
hole
62
5
39
2
10
22.195888
20
257.513956
11
22.237000
21
258.131993
0
LINE
8
hole
62
5
39
2
10
22.237000
20
258.131993
11
22.467084
21
258.707071
0
LINE
8
hole
62
5
39
2
10
22.467084
20
258.707071
11
22.863616
21
259.182908
0
LINE
8
hole
62
5
39
2
10
22.863616
20
259.182908
11
23.387781
21
259.512925
0
LINE
8
hole
62
5
39
2
10
23.387781
20
259.512925
11
23.988271
21
259.664800
0
LINE
8
hole
62
5
39
2
10
23.988271
20
259.664800
11
24.606305
21
259.623693
0
LINE
8
hole
62
5
39
2
10
24.606305
20
259.623693
11
25.181386
21
259.393609
0
LINE
8
hole
62
5
39
2
10
25.181386
20
259.393609
11
25.657220
21
258.997071
0
LINE
8
hole
62
5
39
2
10
25.657220
20
258.997071
11
25.987231
21
258.472908
0
LINE
8
hole
62
5
39
2
10
25.987231
20
258.472908
11
26.139114
21
257.872416
0
LINE
8
hole
62
5
39
2
10
26.139114
20
257.872416
11
26.098001
21
257.254385
0
LINE
8
hole
62
5
39
2
10
26.098001
20
257.254385
11
25.867918
21
256.679306
0
LINE
8
hole
62
5
39
2
10
25.867918
20
256.679306
11
25.471386
21
256.203471
0
LINE
8
hole
62
5
39
2
10
25.471386
20
256.203471
11
24.947220
21
255.873457
0
LINE
8
hole
62
5
39
2
10
24.947220
20
255.873457
11
24.346731
21
255.721572
0
LINE
8
hole
62
5
39
2
10
24.346731
20
255.721572
11
23.728697
21
255.762685
0
LINE
8
hole
62
5
39
2
10
23.728697
20
255.762685
11
23.153616
21
255.992772
0
LINE
8
hole
62
5
39
2
10
23.153616
20
255.992772
11
22.677781
21
256.389306
0
LINE
8
hole
62
5
39
2
10
20.443202
20
151.433479
11
19.618176
21
152.743890
0
LINE
8
hole
62
5
39
2
10
19.618176
20
152.743890
11
19.238469
21
154.245116
0
LINE
8
hole
62
5
39
2
10
19.238469
20
154.245116
11
19.341250
21
155.790201
0
LINE
8
hole
62
5
39
2
10
19.341250
20
155.790201
11
19.916459
21
157.227901
0
LINE
8
hole
62
5
39
2
10
19.916459
20
157.227901
11
20.907789
21
158.417488
0
LINE
8
hole
62
5
39
2
10
20.907789
20
158.417488
11
22.218202
21
159.242513
0
LINE
8
hole
62
5
39
2
10
22.218202
20
159.242513
11
23.719426
21
159.622220
0
LINE
8
hole
62
5
39
2
10
23.719426
20
159.622220
11
25.264511
21
159.519438
0
LINE
8
hole
62
5
39
2
10
25.264511
20
159.519438
11
26.702213
21
158.944232
0
LINE
8
hole
62
5
39
2
10
26.702213
20
158.944232
11
27.891800
21
157.952901
0
LINE
8
hole
62
5
39
2
10
27.891800
20
157.952901
11
28.716826
21
156.642489
0
LINE
8
hole
62
5
39
2
10
28.716826
20
156.642489
11
29.096533
21
155.141266
0
LINE
8
hole
62
5
39
2
10
29.096533
20
155.141266
11
28.993751
21
153.596179
0
LINE
8
hole
62
5
39
2
10
28.993751
20
153.596179
11
28.418543
21
152.158479
0
LINE
8
hole
62
5
39
2
10
28.418543
20
152.158479
11
27.427213
21
150.968891
0
LINE
8
hole
62
5
39
2
10
27.427213
20
150.968891
11
26.116800
21
150.143866
0
LINE
8
hole
62
5
39
2
10
26.116800
20
150.143866
11
24.615575
21
149.764157
0
LINE
8
hole
62
5
39
2
10
24.615575
20
149.764157
11
23.070490
21
149.866940
0
LINE
8
hole
62
5
39
2
10
23.070490
20
149.866940
11
21.632789
21
150.442148
0
LINE
8
hole
62
5
39
2
10
21.632789
20
150.442148
11
20.443202
21
151.433479
0
LINE
8
boundary
62
5
39
2
10
13.621395
20
140.727886
11
14.417643
21
140.234872
0
LINE
8
boundary
62
5
39
2
10
14.417643
20
140.234872
11
16.367080
21
139.027838
0
LINE
8
boundary
62
5
39
2
10
16.367080
20
139.027838
11
17.240362
21
138.689525
0
LINE
8
boundary
62
5
39
2
10
17.240362
20
138.689525
11
19.378398
21
137.861242
0
LINE
8
boundary
62
5
39
2
10
19.378398
20
137.861242
11
20.298976
21
137.689157
0
LINE
8
boundary
62
5
39
2
10
20.298976
20
137.689157
11
22.552805
21
137.267844
0
LINE
8
boundary
62
5
39
2
10
22.552805
20
137.267844
11
23.489328
21
137.267844
0
LINE
8
boundary
62
5
39
2
10
23.489328
20
137.267844
11
25.782197
21
137.267844
0
LINE
8
boundary
62
5
39
2
10
25.782197
20
137.267844
11
26.702775
21
137.439929
0
LINE
8
boundary
62
5
39
2
10
26.702775
20
137.439929
11
28.956603
21
137.861243
0
LINE
8
boundary
62
5
39
2
10
28.956603
20
137.861243
11
29.829886
21
138.199555
0
LINE
8
boundary
62
5
39
2
10
29.829886
20
138.199555
11
31.967922
21
139.027838
0
LINE
8
boundary
62
5
39
2
10
31.967922
20
139.027838
11
32.764171
21
139.520852
0
LINE
8
boundary
62
5
39
2
10
32.764171
20
139.520852
11
34.713607
21
140.727886
0
LINE
8
boundary
62
5
39
2
10
34.713607
20
140.727886
11
35.405707
21
141.358819
0
LINE
8
boundary
62
5
39
2
10
35.405707
20
141.358819
11
37.100157
21
142.903516
0
LINE
8
boundary
62
5
39
2
10
37.100157
20
142.903516
11
37.664538
21
143.650879
0
LINE
8
boundary
62
5
39
2
10
37.664538
20
143.650879
11
39.046300
21
145.480630
0
LINE
8
boundary
62
5
39
2
10
39.046300
20
145.480630
11
39.463744
21
146.318970
0
LINE
8
boundary
62
5
39
2
10
39.463744
20
146.318970
11
40.485764
21
148.371460
0
LINE
8
boundary
62
5
39
2
10
40.485764
20
148.371460
11
40.742056
21
149.272233
0
LINE
8
boundary
62
5
39
2
10
40.742056
20
149.272233
11
41.369530
21
151.477575
0
LINE
8
boundary
62
5
39
2
10
41.369530
20
151.477575
11
41.455942
21
152.410104
0
LINE
8
boundary
62
5
39
2
10
41.455942
20
152.410104
11
41.667502
21
154.693191
0
LINE
8
boundary
62
5
39
2
10
41.667502
20
154.693191
11
41.667501
21
186.593191
0
LINE
8
boundary
62
5
39
2
10
41.667501
20
186.593191
11
41.667502
21
264.693187
0
LINE
8
boundary
62
5
39
2
10
41.667502
20
264.693187
11
31.517501
21
264.693187
0
LINE
8
boundary
62
5
39
2
10
31.517501
20
264.693187
11
6.667500
21
264.693187
0
LINE
8
boundary
62
5
39
2
10
6.667500
20
264.693187
11
6.667500
21
186.593191
0
LINE
8
boundary
62
5
39
2
10
6.667500
20
186.593191
11
6.667500
21
154.693191
0
LINE
8
boundary
62
5
39
2
10
6.667500
20
154.693191
11
6.753912
21
153.760663
0
LINE
8
boundary
62
5
39
2
10
6.753912
20
153.760663
11
6.965471
21
151.477575
0
LINE
8
boundary
62
5
39
2
10
6.965471
20
151.477575
11
7.221764
21
150.576801
0
LINE
8
boundary
62
5
39
2
10
7.221764
20
150.576801
11
7.849238
21
148.371460
0
LINE
8
boundary
62
5
39
2
10
7.849238
20
148.371460
11
8.266683
21
147.533119
0
LINE
8
boundary
62
5
39
2
10
8.266683
20
147.533119
11
9.288702
21
145.480630
0
LINE
8
boundary
62
5
39
2
10
9.288702
20
145.480630
11
9.853083
21
144.733267
0
LINE
8
boundary
62
5
39
2
10
9.853083
20
144.733267
11
11.234845
21
142.903516
0
LINE
8
boundary
62
5
39
2
10
11.234845
20
142.903516
11
11.926944
21
142.272583
0
LINE
8
boundary
62
5
39
2
10
11.926944
20
142.272583
11
13.621395
21
140.727886
0
LINE
8
annotation
62
1
39
211
10
24.167501
20
251.950653
11
24.167501
21
253.379403
0
LINE
8
annotation
62
1
39
211
10
24.167501
20
251.950653
11
24.167501
21
253.379403
0
LINE
8
annotation
62
1
39
211
10
24.167501
20
253.379403
11
24.167501
21
251.950653
0
LINE
8
annotation
62
1
39
211
10
24.167501
20
251.950653
11
25.596251
21
251.950653
0
LINE
8
annotation
62
1
39
211
10
24.356616
20
148.034075
11
24.356616
21
146.605325
0
LINE
8
annotation
62
1
39
211
10
38.167501
20
200.980515
11
38.167501
21
202.409265
0
LINE
8
annotation
62
1
39
211
10
38.167501
20
200.980515
11
38.167501
21
202.409265
0
LINE
8
annotation
62
1
39
211
10
38.167501
20
202.409265
11
38.167501
21
200.980515
0
LINE
8
annotation
62
1
39
211
10
38.167501
20
200.980515
11
38.167501
21
199.551765
0
LINE
8
annotation
62
1
39
211
10
10.167500
20
200.980515
11
11.596250
21
200.980515
0
LINE
8
annotation
62
1
39
211
10
10.167500
20
200.980515
11
11.596250
21
200.980515
0
LINE
8
annotation
62
1
39
211
10
11.596250
20
200.980515
11
10.167500
21
200.980515
0
LINE
8
annotation
62
1
39
211
10
10.167500
20
200.980515
11
10.167500
21
199.551765
0
LINE
8
annotation
62
1
39
211
10
12.954707
20
181.723017
11
24.161171
21
181.723017
0
LINE
8
annotation
62
1
39
211
10
24.161171
20
181.723017
11
24.161171
21
181.723017
0
LINE
8
annotation
62
1
39
211
10
24.161171
20
181.723017
11
26.176681
21
181.903822
0
LINE
8
annotation
62
1
39
211
10
26.176681
20
181.903822
11
28.073205
21
182.424911
0
LINE
8
annotation
62
1
39
211
10
28.073205
20
182.424911
11
29.819201
21
183.254299
0
LINE
8
annotation
62
1
39
211
10
29.819201
20
183.254299
11
31.383124
21
184.359999
0
LINE
8
annotation
62
1
39
211
10
31.383124
20
184.359999
11
32.733432
21
185.710024
0
LINE
8
annotation
62
1
39
211
10
32.733432
20
185.710024
11
33.838581
21
187.272389
0
LINE
8
annotation
62
1
39
211
10
33.838581
20
187.272389
11
34.667026
21
189.015107
0
LINE
8
annotation
62
1
39
211
10
34.667026
20
189.015107
11
35.187226
21
190.906192
0
LINE
8
annotation
62
1
39
211
10
35.187226
20
190.906192
11
35.367635
21
192.913657
0
LINE
8
annotation
62
1
39
211
10
35.367635
20
192.913657
11
35.367635
21
198.524801
0
LINE
8
annotation
62
1
39
211
10
35.367635
20
198.524801
11
35.367635
21
198.524801
0
LINE
8
annotation
62
1
39
211
10
35.367635
20
198.524801
11
35.187226
21
200.531432
0
LINE
8
annotation
62
1
39
211
10
35.187226
20
200.531432
11
34.667026
21
202.422074
0
LINE
8
annotation
62
1
39
211
10
34.667026
20
202.422074
11
33.838581
21
204.164662
0
LINE
8
annotation
62
1
39
211
10
33.838581
20
204.164662
11
32.733432
21
205.727131
0
LINE
8
annotation
62
1
39
211
10
32.733432
20
205.727131
11
31.383124
21
207.077417
0
LINE
8
annotation
62
1
39
211
10
31.383124
20
207.077417
11
29.819201
21
208.183456
0
LINE
8
annotation
62
1
39
211
10
29.819201
20
208.183456
11
28.073205
21
209.013182
0
LINE
8
annotation
62
1
39
211
10
28.073205
20
209.013182
11
26.176681
21
209.534532
0
LINE
8
annotation
62
1
39
211
10
26.176681
20
209.534532
11
24.161171
21
209.715441
0
LINE
8
annotation
62
1
39
211
10
24.161171
20
209.715441
11
18.550027
21
209.715441
0
LINE
8
annotation
62
1
39
211
10
18.550027
20
209.715441
11
24.161171
21
209.715441
0
LINE
8
annotation
62
1
39
211
10
24.161171
20
209.715441
11
24.161171
21
209.715441
0
LINE
8
annotation
62
1
39
211
10
24.161171
20
209.715441
11
26.176681
21
209.896393
0
LINE
8
annotation
62
1
39
211
10
26.176681
20
209.896393
11
28.073205
21
210.418047
0
LINE
8
annotation
62
1
39
211
10
28.073205
20
210.418047
11
29.819201
21
211.248598
0
LINE
8
annotation
62
1
39
211
10
29.819201
20
211.248598
11
31.383124
21
212.356243
0
LINE
8
annotation
62
1
39
211
10
31.383124
20
212.356243
11
32.733432
21
213.709177
0
LINE
8
annotation
62
1
39
211
10
32.733432
20
213.709177
11
33.838581
21
215.275597
0
LINE
8
annotation
62
1
39
211
10
33.838581
20
215.275597
11
34.667026
21
217.023698
0
LINE
8
annotation
62
1
39
211
10
34.667026
20
217.023698
11
35.187226
21
218.921676
0
LINE
8
annotation
62
1
39
211
10
35.187226
20
218.921676
11
35.367635
21
220.937729
0
LINE
8
annotation
62
1
39
211
10
35.367635
20
220.937729
11
35.367635
21
220.937729
0
LINE
8
annotation
62
1
39
211
10
35.367635
20
220.937729
11
35.187226
21
222.944360
0
LINE
8
annotation
62
1
39
211
10
35.187226
20
222.944360
11
34.667026
21
224.835002
0
LINE
8
annotation
62
1
39
211
10
34.667026
20
224.835002
11
33.838581
21
226.577590
0
LINE
8
annotation
62
1
39
211
10
33.838581
20
226.577590
11
32.733432
21
228.140059
0
LINE
8
annotation
62
1
39
211
10
32.733432
20
228.140059
11
31.383124
21
229.490345
0
LINE
8
annotation
62
1
39
211
10
31.383124
20
229.490345
11
29.819201
21
230.596384
0
LINE
8
annotation
62
1
39
211
10
29.819201
20
230.596384
11
28.073205
21
231.426110
0
LINE
8
annotation
62
1
39
211
10
28.073205
20
231.426110
11
26.176681
21
231.947460
0
LINE
8
annotation
62
1
39
211
10
26.176681
20
231.947460
11
24.161171
21
232.128368
0
LINE
8
annotation
62
1
39
211
10
24.161171
20
232.128368
11
12.954707
21
232.128368
0
LINE
8
hole
62
5
39
2
10
37.881751
20
331.295109
11
38.453251
21
331.295109
0
LINE
8
hole
62
5
39
2
10
38.453251
20
331.295109
11
38.453251
21
331.866609
0
LINE
8
hole
62
5
39
2
10
38.453251
20
331.866609
11
37.881751
21
331.866609
0
LINE
8
hole
62
5
39
2
10
37.881751
20
331.866609
11
37.881751
21
331.295109
0
LINE
8
hole
62
5
39
2
10
9.881750
20
331.295109
11
10.453250
21
331.295109
0
LINE
8
hole
62
5
39
2
10
10.453250
20
331.295109
11
10.453250
21
331.866609
0
LINE
8
hole
62
5
39
2
10
10.453250
20
331.866609
11
9.881750
21
331.866609
0
LINE
8
hole
62
5
39
2
10
9.881750
20
331.866609
11
9.881750
21
331.295109
0
LINE
8
hole
62
5
39
2
10
22.925561
20
386.741870
11
22.549467
21
387.117964
0
LINE
8
hole
62
5
39
2
10
22.549467
20
387.117964
11
22.265388
21
387.675500
0
LINE
8
hole
62
5
39
2
10
22.265388
20
387.675500
11
22.167501
21
388.293528
0
LINE
8
hole
62
5
39
2
10
22.167501
20
388.293528
11
22.265388
21
388.911568
0
LINE
8
hole
62
5
39
2
10
22.265388
20
388.911568
11
22.549467
21
389.469098
0
LINE
8
hole
62
5
39
2
10
22.549467
20
389.469098
11
22.991930
21
389.911568
0
LINE
8
hole
62
5
39
2
10
22.991930
20
389.911568
11
23.549467
21
390.195653
0
LINE
8
hole
62
5
39
2
10
23.549467
20
390.195653
11
24.167501
21
390.293527
0
LINE
8
hole
62
5
39
2
10
24.167501
20
390.293527
11
24.785535
21
390.195653
0
LINE
8
hole
62
5
39
2
10
24.785535
20
390.195653
11
25.343071
21
389.911568
0
LINE
8
hole
62
5
39
2
10
25.343071
20
389.911568
11
25.785535
21
389.469098
0
LINE
8
hole
62
5
39
2
10
25.785535
20
389.469098
11
26.069614
21
388.911568
0
LINE
8
hole
62
5
39
2
10
26.069614
20
388.911568
11
26.167501
21
388.293528
0
LINE
8
hole
62
5
39
2
10
26.167501
20
388.293528
11
26.069614
21
387.675500
0
LINE
8
hole
62
5
39
2
10
26.069614
20
387.675500
11
25.785535
21
387.117964
0
LINE
8
hole
62
5
39
2
10
25.785535
20
387.117964
11
25.343071
21
386.675501
0
LINE
8
hole
62
5
39
2
10
25.343071
20
386.675501
11
24.785535
21
386.391416
0
LINE
8
hole
62
5
39
2
10
24.785535
20
386.391416
11
24.167501
21
386.293529
0
LINE
8
hole
62
5
39
2
10
24.167501
20
386.293529
11
23.549467
21
386.391416
0
LINE
8
hole
62
5
39
2
10
23.549467
20
386.391416
11
22.991930
21
386.675501
0
LINE
8
hole
62
5
39
2
10
22.991930
20
386.675501
11
22.925561
21
386.741870
0
LINE
8
hole
62
5
39
2
10
21.062651
20
281.414372
11
20.122416
21
282.354609
0
LINE
8
hole
62
5
39
2
10
20.122416
20
282.354609
11
19.412219
21
283.748447
0
LINE
8
hole
62
5
39
2
10
19.412219
20
283.748447
11
19.167501
21
285.293535
0
LINE
8
hole
62
5
39
2
10
19.167501
20
285.293535
11
19.412219
21
286.838620
0
LINE
8
hole
62
5
39
2
10
19.412219
20
286.838620
11
20.122416
21
288.232457
0
LINE
8
hole
62
5
39
2
10
20.122416
20
288.232457
11
21.228575
21
289.338619
0
LINE
8
hole
62
5
39
2
10
21.228575
20
289.338619
11
22.622416
21
290.048813
0
LINE
8
hole
62
5
39
2
10
22.622416
20
290.048813
11
24.167501
21
290.293532
0
LINE
8
hole
62
5
39
2
10
24.167501
20
290.293532
11
25.712586
21
290.048813
0
LINE
8
hole
62
5
39
2
10
25.712586
20
290.048813
11
27.106427
21
289.338619
0
LINE
8
hole
62
5
39
2
10
27.106427
20
289.338619
11
28.212585
21
288.232457
0
LINE
8
hole
62
5
39
2
10
28.212585
20
288.232457
11
28.922783
21
286.838620
0
LINE
8
hole
62
5
39
2
10
28.922783
20
286.838620
11
29.167501
21
285.293535
0
LINE
8
hole
62
5
39
2
10
29.167501
20
285.293535
11
28.922783
21
283.748447
0
LINE
8
hole
62
5
39
2
10
28.922783
20
283.748447
11
28.212585
21
282.354609
0
LINE
8
hole
62
5
39
2
10
28.212585
20
282.354609
11
27.106427
21
281.248448
0
LINE
8
hole
62
5
39
2
10
27.106427
20
281.248448
11
25.712586
21
280.538253
0
LINE
8
hole
62
5
39
2
10
25.712586
20
280.538253
11
24.167501
21
280.293531
0
LINE
8
hole
62
5
39
2
10
24.167501
20
280.293531
11
22.622416
21
280.538253
0
LINE
8
hole
62
5
39
2
10
22.622416
20
280.538253
11
21.228575
21
281.248448
0
LINE
8
hole
62
5
39
2
10
21.228575
20
281.248448
11
21.062651
21
281.414372
0
LINE
8
boundary
62
5
39
2
10
13.621395
20
271.328229
11
15.955227
21
269.883189
0
LINE
8
boundary
62
5
39
2
10
15.955227
20
269.883189
11
18.926700
21
268.636576
0
LINE
8
boundary
62
5
39
2
10
18.926700
20
268.636576
11
22.076644
21
267.957197
0
LINE
8
boundary
62
5
39
2
10
22.076644
20
267.957197
11
25.297788
21
267.868187
0
LINE
8
boundary
62
5
39
2
10
25.297788
20
267.868187
11
28.480442
21
268.372576
0
LINE
8
boundary
62
5
39
2
10
28.480442
20
268.372576
11
31.516224
21
269.453192
0
LINE
8
boundary
62
5
39
2
10
31.516224
20
269.453192
11
34.301754
21
271.073222
0
LINE
8
boundary
62
5
39
2
10
34.301754
20
271.073222
11
36.742174
21
273.177515
0
LINE
8
boundary
62
5
39
2
10
36.742174
20
273.177515
11
38.754378
21
275.694406
0
LINE
8
boundary
62
5
39
2
10
38.754378
20
275.694406
11
40.269844
21
278.538179
0
LINE
8
boundary
62
5
39
2
10
40.269844
20
278.538179
11
41.236965
21
281.612001
0
LINE
8
boundary
62
5
39
2
10
41.236965
20
281.612001
11
41.622806
21
284.811192
0
LINE
8
boundary
62
5
39
2
10
41.622806
20
284.811192
11
41.667501
21
378.793529
0
LINE
8
boundary
62
5
39
2
10
41.667501
20
378.793529
11
41.667502
21
395.293531
0
LINE
8
boundary
62
5
39
2
10
41.667502
20
395.293531
11
11.917501
21
395.293531
0
LINE
8
boundary
62
5
39
2
10
11.917501
20
395.293531
11
6.667500
21
395.293531
0
LINE
8
boundary
62
5
39
2
10
6.667500
20
395.293531
11
6.667500
21
378.793529
0
LINE
8
boundary
62
5
39
2
10
6.667500
20
378.793529
11
6.667500
21
285.293535
0
LINE
8
boundary
62
5
39
2
10
6.667500
20
285.293535
11
6.920776
21
282.560261
0
LINE
8
boundary
62
5
39
2
10
6.920776
20
282.560261
11
7.716673
21
279.437721
0
LINE
8
boundary
62
5
39
2
10
7.716673
20
279.437721
11
9.072782
21
276.514598
0
LINE
8
boundary
62
5
39
2
10
9.072782
20
276.514598
11
10.942923
21
273.890427
0
LINE
8
boundary
62
5
39
2
10
10.942923
20
273.890427
11
13.263412
21
271.654574
0
LINE
8
boundary
62
5
39
2
10
13.263412
20
271.654574
11
13.621395
21
271.328229
0
LINE
8
annotation
62
1
39
211
10
38.167501
20
331.580859
11
38.167501
21
333.009609
0
LINE
8
annotation
62
1
39
211
10
10.167500
20
331.580859
11
11.596250
21
331.580859
0
LINE
8
annotation
62
1
39
211
10
29.772315
20
316.304218
11
29.772315
21
366.769701
0
LINE
8
annotation
62
1
39
211
10
29.772315
20
366.769701
11
18.553192
21
355.547413
0
LINE
8
hole
62
5
39
2
10
24.070866
20
408.949012
11
24.642366
21
408.949012
0
LINE
8
hole
62
5
39
2
10
24.642366
20
408.949012
11
24.642366
21
409.520512
0
LINE
8
hole
62
5
39
2
10
24.642366
20
409.520512
11
24.070866
21
409.520512
0
LINE
8
hole
62
5
39
2
10
24.070866
20
409.520512
11
24.070866
21
408.949012
0
LINE
8
hole
62
5
39
2
10
37.881751
20
461.895453
11
38.453251
21
461.895453
0
LINE
8
hole
62
5
39
2
10
38.453251
20
461.895453
11
38.453251
21
462.466953
0
LINE
8
hole
62
5
39
2
10
38.453251
20
462.466953
11
37.881751
21
462.466953
0
LINE
8
hole
62
5
39
2
10
37.881751
20
462.466953
11
37.881751
21
461.895453
0
LINE
8
hole
62
5
39
2
10
9.881750
20
461.895453
11
10.453250
21
461.895453
0
LINE
8
hole
62
5
39
2
10
10.453250
20
461.895453
11
10.453250
21
462.466953
0
LINE
8
hole
62
5
39
2
10
10.453250
20
462.466953
11
9.881750
21
462.466953
0
LINE
8
hole
62
5
39
2
10
9.881750
20
462.466953
11
9.881750
21
461.895453
0
LINE
8
hole
62
5
39
2
10
23.881751
20
512.865590
11
24.453251
21
512.865590
0
LINE
8
hole
62
5
39
2
10
24.453251
20
512.865590
11
24.453251
21
513.437090
0
LINE
8
hole
62
5
39
2
10
24.453251
20
513.437090
11
23.881751
21
513.437090
0
LINE
8
hole
62
5
39
2
10
23.881751
20
513.437090
11
23.881751
21
512.865590
0
LINE
8
hole
62
5
39
2
10
22.801671
20
517.466103
11
22.427313
21
517.958048
0
LINE
8
hole
62
5
39
2
10
22.427313
20
517.958048
11
22.223296
21
518.541596
0
LINE
8
hole
62
5
39
2
10
22.223296
20
518.541596
11
22.209592
21
519.159629
0
LINE
8
hole
62
5
39
2
10
22.209592
20
519.159629
11
22.387542
21
519.751650
0
LINE
8
hole
62
5
39
2
10
22.387542
20
519.751650
11
22.739726
21
520.259704
0
LINE
8
hole
62
5
39
2
10
22.739726
20
520.259704
11
23.231671
21
520.634068
0
LINE
8
hole
62
5
39
2
10
23.231671
20
520.634068
11
23.815221
21
520.838082
0
LINE
8
hole
62
5
39
2
10
23.815221
20
520.838082
11
24.433255
21
520.851785
0
LINE
8
hole
62
5
39
2
10
24.433255
20
520.851785
11
25.025275
21
520.673840
0
LINE
8
hole
62
5
39
2
10
25.025275
20
520.673840
11
25.533330
21
520.321650
0
LINE
8
hole
62
5
39
2
10
25.533330
20
520.321650
11
25.907689
21
519.829704
0
LINE
8
hole
62
5
39
2
10
25.907689
20
519.829704
11
26.111705
21
519.246155
0
LINE
8
hole
62
5
39
2
10
26.111705
20
519.246155
11
26.125410
21
518.628120
0
LINE
8
hole
62
5
39
2
10
26.125410
20
518.628120
11
25.947460
21
518.036103
0
LINE
8
hole
62
5
39
2
10
25.947460
20
518.036103
11
25.595275
21
517.528048
0
LINE
8
hole
62
5
39
2
10
25.595275
20
517.528048
11
25.103331
21
517.153688
0
LINE
8
hole
62
5
39
2
10
25.103331
20
517.153688
11
24.519780
21
516.949668
0
LINE
8
hole
62
5
39
2
10
24.519780
20
516.949668
11
23.901746
21
516.935964
0
LINE
8
hole
62
5
39
2
10
23.901746
20
516.935964
11
23.309726
21
517.113916
0
LINE
8
hole
62
5
39
2
10
23.309726
20
517.113916
11
22.801671
21
517.466103
0
LINE
8
hole
62
5
39
2
10
20.752926
20
412.324441
11
20.122416
21
412.954953
0
LINE
8
hole
62
5
39
2
10
20.122416
20
412.954953
11
19.817031
21
413.554303
0
LINE
8
hole
62
5
39
2
10
19.817031
20
413.554303
11
19.412219
21
414.348791
0
LINE
8
hole
62
5
39
2
10
19.412219
20
414.348791
11
19.306990
21
415.013178
0
LINE
8
hole
62
5
39
2
10
19.306990
20
415.013178
11
19.167501
21
415.893879
0
LINE
8
hole
62
5
39
2
10
19.167501
20
415.893879
11
19.272729
21
416.558265
0
LINE
8
hole
62
5
39
2
10
19.272729
20
416.558265
11
19.412219
21
417.438963
0
LINE
8
hole
62
5
39
2
10
19.412219
20
417.438963
11
19.717604
21
418.038313
0
LINE
8
hole
62
5
39
2
10
19.717604
20
418.038313
11
20.122416
21
418.832801
0
LINE
8
hole
62
5
39
2
10
20.122416
20
418.832801
11
20.598064
21
419.308450
0
LINE
8
hole
62
5
39
2
10
20.598064
20
419.308450
11
21.228575
21
419.938962
0
LINE
8
hole
62
5
39
2
10
21.228575
20
419.938962
11
21.827926
21
420.244346
0
LINE
8
hole
62
5
39
2
10
21.827926
20
420.244346
11
22.622416
21
420.649157
0
LINE
8
hole
62
5
39
2
10
22.622416
20
420.649157
11
23.286802
21
420.754386
0
LINE
8
hole
62
5
39
2
10
23.286802
20
420.754386
11
24.167501
21
420.893876
0
LINE
8
hole
62
5
39
2
10
24.167501
20
420.893876
11
24.831887
21
420.788647
0
LINE
8
hole
62
5
39
2
10
24.831887
20
420.788647
11
25.712586
21
420.649157
0
LINE
8
hole
62
5
39
2
10
25.712586
20
420.649157
11
26.311938
21
420.343773
0
LINE
8
hole
62
5
39
2
10
26.311938
20
420.343773
11
27.106427
21
419.938962
0
LINE
8
hole
62
5
39
2
10
27.106427
20
419.938962
11
27.582075
21
419.463313
0
LINE
8
hole
62
5
39
2
10
27.582075
20
419.463313
11
28.212585
21
418.832801
0
LINE
8
hole
62
5
39
2
10
28.212585
20
418.832801
11
28.517970
21
418.233451
0
LINE
8
hole
62
5
39
2
10
28.517970
20
418.233451
11
28.922783
21
417.438964
0
LINE
8
hole
62
5
39
2
10
28.922783
20
417.438964
11
29.028012
21
416.774577
0
LINE
8
hole
62
5
39
2
10
29.028012
20
416.774577
11
29.167501
21
415.893879
0
LINE
8
hole
62
5
39
2
10
29.167501
20
415.893879
11
29.062272
21
415.229491
0
LINE
8
hole
62
5
39
2
10
29.062272
20
415.229491
11
28.922783
21
414.348791
0
LINE
8
hole
62
5
39
2
10
28.922783
20
414.348791
11
28.617398
21
413.749440
0
LINE
8
hole
62
5
39
2
10
28.617398
20
413.749440
11
28.212585
21
412.954953
0
LINE
8
hole
62
5
39
2
10
28.212585
20
412.954953
11
27.736937
21
412.479304
0
LINE
8
hole
62
5
39
2
10
27.736937
20
412.479304
11
27.106427
21
411.848792
0
LINE
8
hole
62
5
39
2
10
27.106427
20
411.848792
11
26.507075
21
411.543408
0
LINE
8
hole
62
5
39
2
10
26.507075
20
411.543408
11
25.712586
21
411.138597
0
LINE
8
hole
62
5
39
2
10
25.712586
20
411.138597
11
25.048199
21
411.033366
0
LINE
8
hole
62
5
39
2
10
25.048199
20
411.033366
11
24.167501
21
410.893875
0
LINE
8
hole
62
5
39
2
10
24.167501
20
410.893875
11
23.503114
21
410.999105
0
LINE
8
hole
62
5
39
2
10
23.503114
20
410.999105
11
22.622416
21
411.138597
0
LINE
8
hole
62
5
39
2
10
22.622416
20
411.138597
11
22.023064
21
411.443981
0
LINE
8
hole
62
5
39
2
10
22.023064
20
411.443981
11
21.228575
21
411.848792
0
LINE
8
hole
62
5
39
2
10
21.228575
20
411.848792
11
20.752926
21
412.324441
0
LINE
8
boundary
62
5
39
2
10
13.621395
20
401.928573
11
15.186435
21
400.959546
0
LINE
8
boundary
62
5
39
2
10
15.186435
20
400.959546
11
16.367080
21
400.228525
0
LINE
8
boundary
62
5
39
2
10
16.367080
20
400.228525
11
18.083531
21
399.563566
0
LINE
8
boundary
62
5
39
2
10
18.083531
20
399.563566
11
19.378398
21
399.061930
0
LINE
8
boundary
62
5
39
2
10
19.378398
20
399.061930
11
21.187810
21
398.723693
0
LINE
8
boundary
62
5
39
2
10
21.187810
20
398.723693
11
22.552805
21
398.468531
0
LINE
8
boundary
62
5
39
2
10
22.552805
20
398.468531
11
24.393558
21
398.468531
0
LINE
8
boundary
62
5
39
2
10
24.393558
20
398.468531
11
25.782197
21
398.468531
0
LINE
8
boundary
62
5
39
2
10
25.782197
20
398.468531
11
27.591608
21
398.806768
0
LINE
8
boundary
62
5
39
2
10
27.591608
20
398.806768
11
28.956603
21
399.061930
0
LINE
8
boundary
62
5
39
2
10
28.956603
20
399.061930
11
30.673055
21
399.726889
0
LINE
8
boundary
62
5
39
2
10
30.673055
20
399.726889
11
31.967922
21
400.228525
0
LINE
8
boundary
62
5
39
2
10
31.967922
20
400.228525
11
33.532962
21
401.197552
0
LINE
8
boundary
62
5
39
2
10
33.532962
20
401.197552
11
34.713607
21
401.928573
0
LINE
8
boundary
62
5
39
2
10
34.713607
20
401.928573
11
36.073941
21
403.168682
0
LINE
8
boundary
62
5
39
2
10
36.073941
20
403.168682
11
37.100157
21
404.104203
0
LINE
8
boundary
62
5
39
2
10
37.100157
20
404.104203
11
38.209458
21
405.573158
0
LINE
8
boundary
62
5
39
2
10
38.209458
20
405.573158
11
39.046300
21
406.681317
0
LINE
8
boundary
62
5
39
2
10
39.046300
20
406.681317
11
39.866794
21
408.329090
0
LINE
8
boundary
62
5
39
2
10
39.866794
20
408.329090
11
40.485764
21
409.572147
0
LINE
8
boundary
62
5
39
2
10
40.485764
20
409.572147
11
40.989511
21
411.342633
0
LINE
8
boundary
62
5
39
2
10
40.989511
20
411.342633
11
41.369530
21
412.678262
0
LINE
8
boundary
62
5
39
2
10
41.369530
20
412.678262
11
41.539374
21
414.511163
0
LINE
8
boundary
62
5
39
2
10
41.539374
20
414.511163
11
41.667502
21
415.893878
0
LINE
8
boundary
62
5
39
2
10
41.667502
20
415.893878
11
41.667501
21
478.593876
0
LINE
8
boundary
62
5
39
2
10
41.667501
20
478.593876
11
41.667502
21
525.893874
0
LINE
8
boundary
62
5
39
2
10
41.667502
20
525.893874
11
21.717501
21
525.893875
0
LINE
8
boundary
62
5
39
2
10
21.717501
20
525.893875
11
6.667500
21
525.893874
0
LINE
8
boundary
62
5
39
2
10
6.667500
20
525.893874
11
6.667500
21
478.593876
0
LINE
8
boundary
62
5
39
2
10
6.667500
20
478.593876
11
6.667500
21
415.893879
0
LINE
8
boundary
62
5
39
2
10
6.667500
20
415.893879
11
6.837344
21
414.060977
0
LINE
8
boundary
62
5
39
2
10
6.837344
20
414.060977
11
6.965471
21
412.678262
0
LINE
8
boundary
62
5
39
2
10
6.965471
20
412.678262
11
7.469218
21
410.907777
0
LINE
8
boundary
62
5
39
2
10
7.469218
20
410.907777
11
7.849238
21
409.572147
0
LINE
8
boundary
62
5
39
2
10
7.849238
20
409.572147
11
8.669732
21
407.924374
0
LINE
8
boundary
62
5
39
2
10
8.669732
20
407.924374
11
9.288702
21
406.681317
0
LINE
8
boundary
62
5
39
2
10
9.288702
20
406.681317
11
10.398003
21
405.212362
0
LINE
8
boundary
62
5
39
2
10
10.398003
20
405.212362
11
11.234845
21
404.104203
0
LINE
8
boundary
62
5
39
2
10
11.234845
20
404.104203
11
12.595178
21
402.864094
0
LINE
8
boundary
62
5
39
2
10
12.595178
20
402.864094
11
13.621395
21
401.928573
0
LINE
8
annotation
62
1
39
211
10
38.167501
20
462.181203
11
38.167501
21
463.609953
0
LINE
8
annotation
62
1
39
211
10
10.167500
20
462.181203
11
11.596250
21
462.181203
0
LINE
8
annotation
62
1
39
211
10
24.167501
20
513.151340
11
24.167501
21
514.580090
0
LINE
8
annotation
62
1
39
211
10
24.167501
20
513.151340
11
24.167501
21
514.580090
0
LINE
8
annotation
62
1
39
211
10
24.167501
20
514.580090
11
24.167501
21
513.151340
0
LINE
8
annotation
62
1
39
211
10
24.167501
20
513.151340
11
25.596251
21
513.151340
0
LINE
8
annotation
62
1
39
211
10
24.356616
20
409.234762
11
24.356616
21
407.806012
0
LINE
8
annotation
62
1
39
211
10
35.367635
20
442.921712
11
12.954707
21
442.921712
0
LINE
8
annotation
62
1
39
211
10
12.954707
20
442.921712
11
33.664987
21
476.262603
0
LINE
8
annotation
62
1
39
211
10
33.664987
20
476.262603
11
33.664987
21
476.262603
0
LINE
8
annotation
62
1
39
211
10
33.664987
20
476.262603
11
33.689745
21
476.293239
0
LINE
8
annotation
62
1
39
211
10
33.689745
20
476.293239
11
33.713487
21
476.324136
0
LINE
8
annotation
62
1
39
211
10
33.713487
20
476.324136
11
33.736370
21
476.355554
0
LINE
8
annotation
62
1
39
211
10
33.736370
20
476.355554
11
33.758550
21
476.387753
0
LINE
8
annotation
62
1
39
211
10
33.758550
20
476.387753
11
33.780182
21
476.420994
0
LINE
8
annotation
62
1
39
211
10
33.780182
20
476.420994
11
33.801424
21
476.455537
0
LINE
8
annotation
62
1
39
211
10
33.801424
20
476.455537
11
33.822431
21
476.491643
0
LINE
8
annotation
62
1
39
211
10
33.822431
20
476.491643
11
33.843360
21
476.529573
0
LINE
8
annotation
62
1
39
211
10
33.843360
20
476.529573
11
33.864368
21
476.569586
0
LINE
8
annotation
62
1
39
211
10
33.864368
20
476.569586
11
33.864368
21
476.569586
0
LINE
8
annotation
62
1
39
211
10
33.864368
20
476.569586
11
34.719490
21
478.405606
0
LINE
8
annotation
62
1
39
211
10
34.719490
20
478.405606
11
35.219038
21
480.308803
0
LINE
8
annotation
62
1
39
211
10
35.219038
20
480.308803
11
35.375254
21
482.236172
0
LINE
8
annotation
62
1
39
211
10
35.375254
20
482.236172
11
35.200380
21
484.144709
0
LINE
8
annotation
62
1
39
211
10
35.200380
20
484.144709
11
34.706658
21
485.991408
0
LINE
8
annotation
62
1
39
211
10
34.706658
20
485.991408
11
33.906330
21
487.733267
0
LINE
8
annotation
62
1
39
211
10
33.906330
20
487.733267
11
32.811640
21
489.327280
0
LINE
8
annotation
62
1
39
211
10
32.811640
20
489.327280
11
31.434829
21
490.730442
0
LINE
8
annotation
62
1
39
211
10
31.434829
20
490.730442
11
29.788139
21
491.899750
0
LINE
8
annotation
62
1
39
211
10
29.788139
20
491.899750
11
29.788139
21
491.899750
0
LINE
8
annotation
62
1
39
211
10
29.788139
20
491.899750
11
27.947013
21
492.742722
0
LINE
8
annotation
62
1
39
211
10
27.947013
20
492.742722
11
26.040899
21
493.234573
0
LINE
8
annotation
62
1
39
211
10
26.040899
20
493.234573
11
24.112410
21
493.386373
0
LINE
8
annotation
62
1
39
211
10
24.112410
20
493.386373
11
22.204160
21
493.209194
0
LINE
8
annotation
62
1
39
211
10
22.204160
20
493.209194
11
20.358763
21
492.714104
0
LINE
8
annotation
62
1
39
211
10
20.358763
20
492.714104
11
18.618832
21
491.912175
0
LINE
8
annotation
62
1
39
211
10
18.618832
20
491.912175
11
17.026981
21
490.814476
0
LINE
8
annotation
62
1
39
211
10
17.026981
20
490.814476
11
15.625824
21
489.432078
0
LINE
8
annotation
62
1
39
211
10
15.625824
20
489.432078
11
14.457975
21
487.776050
0
LINE
8
annotation
62
1
39
211
10
14.457975
20
487.776050
11
12.986355
21
484.953072
0
LINE
8
frame
62
5
39
2
10
0.000000
20
0.000000
11
800.000000
21
0.000000
0
LINE
8
frame
62
5
39
2
10
800.000000
20
0.000000
11
800.000000
21
1000.000000
0
LINE
8
frame
62
5
39
2
10
800.000000
20
1000.000000
11
0.000000
21
1000.000000
0
LINE
8
frame
62
5
39
2
10
0.000000
20
1000.000000
11
0.000000
21
0.000000
0
ENDSEC
0
EOF
