0
SECTION
2
HEADER
9
$ACADVER
1
AC1009
0
ENDSEC
0
SECTION
2
TABLES
0
TABLE
2
VPORT
70
1
0
VPORT
2
ACTIVE
70
0
10
0.0
20
0.0
11
0.0
21
0.0
12
0.0
22
0.0
13
0.0
23
0.0
14
0.0
24
0.0
15
0.0
25
0.0
16
0.0
26
0.0
36
0.0
17
0.0
27
0.0
37
0.0
40
0.0
41
0.0
42
0.0
43
0.0
44
0.0
50
0.0
51
0.0
71
0
72
1000
73
1
74
3
75
0
76
0
77
0
78
0
0
ENDTAB
0
ENDSEC
0
SECTION
2
ENTITIES
0
LINE
8
hole
62
5
39
2
10
127.881746
20
40.093522
11
128.453246
21
40.093522
0
LINE
8
hole
62
5
39
2
10
128.453246
20
40.093522
11
128.453246
21
40.665022
0
LINE
8
hole
62
5
39
2
10
128.453246
20
40.665022
11
127.881746
21
40.665022
0
LINE
8
hole
62
5
39
2
10
127.881746
20
40.665022
11
127.881746
21
40.093522
0
LINE
8
hole
62
5
39
2
10
19.881750
20
40.093522
11
20.453250
21
40.093522
0
LINE
8
hole
62
5
39
2
10
20.453250
20
40.093522
11
20.453250
21
40.665022
0
LINE
8
hole
62
5
39
2
10
20.453250
20
40.665022
11
19.881750
21
40.665022
0
LINE
8
hole
62
5
39
2
10
19.881750
20
40.665022
11
19.881750
21
40.093522
0
LINE
8
boundary
62
5
39
2
10
25.126159
20
27.729173
11
29.755201
21
23.277418
0
LINE
8
boundary
62
5
39
2
10
29.755201
20
23.277418
11
34.786443
21
19.285851
0
LINE
8
boundary
62
5
39
2
10
34.786443
20
19.285851
11
40.174326
21
15.790607
0
LINE
8
boundary
62
5
39
2
10
40.174326
20
15.790607
11
45.870059
21
12.823337
0
LINE
8
boundary
62
5
39
2
10
45.870059
20
12.823337
11
51.822059
21
10.410930
0
LINE
8
boundary
62
5
39
2
10
51.822059
20
10.410930
11
57.976420
21
8.575199
0
LINE
8
boundary
62
5
39
2
10
57.976420
20
8.575199
11
64.277411
21
7.332800
0
LINE
8
boundary
62
5
39
2
10
64.277411
20
7.332800
11
70.667967
21
6.694977
0
LINE
8
boundary
62
5
39
2
10
70.667967
20
6.694977
11
77.090217
21
6.667500
0
LINE
8
boundary
62
5
39
2
10
77.090217
20
6.667500
11
83.485998
21
7.250618
0
LINE
8
boundary
62
5
39
2
10
83.485998
20
7.250618
11
89.797389
21
8.439055
0
LINE
8
boundary
62
5
39
2
10
89.797389
20
8.439055
11
95.967232
21
10.222059
0
LINE
8
boundary
62
5
39
2
10
95.967232
20
10.222059
11
101.939656
21
12.583450
0
LINE
8
boundary
62
5
39
2
10
101.939656
20
12.583450
11
107.660570
21
15.501874
0
LINE
8
boundary
62
5
39
2
10
107.660570
20
15.501874
11
113.078164
21
18.950888
0
LINE
8
boundary
62
5
39
2
10
113.078164
20
18.950888
11
118.143376
21
22.899258
0
LINE
8
boundary
62
5
39
2
10
118.143376
20
22.899258
11
122.810340
21
27.311242
0
LINE
8
boundary
62
5
39
2
10
122.810340
20
27.311242
11
127.036787
21
32.146859
0
LINE
8
boundary
62
5
39
2
10
127.036787
20
32.146859
11
130.784436
21
37.362326
0
LINE
8
boundary
62
5
39
2
10
130.784436
20
37.362326
11
134.019360
21
42.910421
0
LINE
8
boundary
62
5
39
2
10
134.019360
20
42.910421
11
136.712252
21
48.740890
0
LINE
8
boundary
62
5
39
2
10
136.712252
20
48.740890
11
138.838728
21
54.800933
0
LINE
8
boundary
62
5
39
2
10
138.838728
20
54.800933
11
140.379533
21
61.035672
0
LINE
8
boundary
62
5
39
2
10
140.379533
20
61.035672
11
141.320709
21
67.388641
0
LINE
8
boundary
62
5
39
2
10
141.320709
20
67.388641
11
141.653742
21
73.802311
0
LINE
8
boundary
62
5
39
2
10
141.653742
20
73.802311
11
134.467497
21
74.091043
0
LINE
8
boundary
62
5
39
2
10
134.467497
20
74.091043
11
121.667497
21
74.091043
0
LINE
8
boundary
62
5
39
2
10
121.667497
20
74.091043
11
121.559975
21
72.176451
0
LINE
8
boundary
62
5
39
2
10
121.559975
20
72.176451
11
121.368826
21
68.772730
0
LINE
8
boundary
62
5
39
2
10
121.368826
20
68.772730
11
121.047614
21
66.882215
0
LINE
8
boundary
62
5
39
2
10
121.047614
20
66.882215
11
120.476572
21
63.521299
0
LINE
8
boundary
62
5
39
2
10
120.476572
20
63.521299
11
120.030286
21
61.926409
0
LINE
8
boundary
62
5
39
2
10
120.030286
20
61.926409
11
119.086531
21
58.650561
0
LINE
8
boundary
62
5
39
2
10
119.086531
20
58.650561
11
116.963514
21
53.481567
0
LINE
8
boundary
62
5
39
2
10
116.963514
20
53.481567
11
114.386897
21
48.819520
0
LINE
8
boundary
62
5
39
2
10
114.386897
20
48.819520
11
111.304497
21
44.475279
0
LINE
8
boundary
62
5
39
2
10
111.304497
20
44.475279
11
107.755070
21
40.503468
0
LINE
8
boundary
62
5
39
2
10
107.755070
20
40.503468
11
103.783262
21
36.954049
0
LINE
8
boundary
62
5
39
2
10
103.783262
20
36.954049
11
99.439022
21
33.871647
0
LINE
8
boundary
62
5
39
2
10
99.439022
20
33.871647
11
94.776975
21
31.295025
0
LINE
8
boundary
62
5
39
2
10
94.776975
20
31.295025
11
89.855753
21
29.256585
0
LINE
8
boundary
62
5
39
2
10
89.855753
20
29.256585
11
84.737241
21
27.781969
0
LINE
8
boundary
62
5
39
2
10
84.737241
20
27.781969
11
79.485810
21
26.889714
0
LINE
8
boundary
62
5
39
2
10
79.485810
20
26.889714
11
74.167498
21
26.591043
0
LINE
8
boundary
62
5
39
2
10
74.167498
20
26.591043
11
68.849186
21
26.889714
0
LINE
8
boundary
62
5
39
2
10
68.849186
20
26.889714
11
63.597755
21
27.781969
0
LINE
8
boundary
62
5
39
2
10
63.597755
20
27.781969
11
58.479243
21
29.256585
0
LINE
8
boundary
62
5
39
2
10
58.479243
20
29.256585
11
53.558021
21
31.295025
0
LINE
8
boundary
62
5
39
2
10
53.558021
20
31.295025
11
48.895974
21
33.871648
0
LINE
8
boundary
62
5
39
2
10
48.895974
20
33.871648
11
44.551734
21
36.954049
0
LINE
8
boundary
62
5
39
2
10
44.551734
20
36.954049
11
40.579925
21
40.503468
0
LINE
8
boundary
62
5
39
2
10
40.579925
20
40.503468
11
37.030499
21
44.475279
0
LINE
8
boundary
62
5
39
2
10
37.030499
20
44.475279
11
33.948099
21
48.819520
0
LINE
8
boundary
62
5
39
2
10
33.948099
20
48.819520
11
31.371482
21
53.481567
0
LINE
8
boundary
62
5
39
2
10
31.371482
20
53.481567
11
29.333040
21
58.402787
0
LINE
8
boundary
62
5
39
2
10
29.333040
20
58.402787
11
28.304710
21
61.926407
0
LINE
8
boundary
62
5
39
2
10
28.304710
20
61.926407
11
27.858424
21
63.521299
0
LINE
8
boundary
62
5
39
2
10
27.858424
20
63.521299
11
27.537213
21
65.411814
0
LINE
8
boundary
62
5
39
2
10
27.537213
20
65.411814
11
26.966170
21
68.772730
0
LINE
8
boundary
62
5
39
2
10
26.966170
20
68.772730
11
26.858649
21
70.687323
0
LINE
8
boundary
62
5
39
2
10
26.858649
20
70.687323
11
26.667499
21
74.091043
0
LINE
8
boundary
62
5
39
2
10
26.667499
20
74.091043
11
13.867499
21
74.091043
0
LINE
8
boundary
62
5
39
2
10
13.867499
20
74.091043
11
6.667500
21
74.091043
0
LINE
8
boundary
62
5
39
2
10
6.667500
20
74.091043
11
6.959395
21
67.963492
0
LINE
8
boundary
62
5
39
2
10
6.959395
20
67.963492
11
7.846177
21
61.602702
0
LINE
8
boundary
62
5
39
2
10
7.846177
20
61.602702
11
9.333578
21
55.355007
0
LINE
8
boundary
62
5
39
2
10
9.333578
20
55.355007
11
11.408122
21
49.276990
0
LINE
8
boundary
62
5
39
2
10
11.408122
20
49.276990
11
14.051026
21
43.423692
0
LINE
8
boundary
62
5
39
2
10
14.051026
20
43.423692
11
17.238359
21
37.848121
0
LINE
8
boundary
62
5
39
2
10
17.238359
20
37.848121
11
20.941244
21
32.600776
0
LINE
8
boundary
62
5
39
2
10
20.941244
20
32.600776
11
25.126159
21
27.729173
0
LINE
8
annotation
62
1
39
211
10
128.167496
20
40.379272
11
128.167496
21
41.808022
0
LINE
8
annotation
62
1
39
211
10
20.167500
20
40.379272
11
21.596250
21
40.379272
0
LINE
8
annotation
62
1
39
211
10
129.066413
20
45.425401
11
129.066413
21
64.867345
0
LINE
8
annotation
62
1
39
211
10
129.066413
20
64.867345
11
124.744220
21
60.543932
0
LINE
8
hole
62
5
39
2
10
212.394408
20
24.766557
11
212.965908
21
24.766557
0
LINE
8
hole
62
5
39
2
10
212.965908
20
24.766557
11
212.965908
21
25.338057
0
LINE
8
hole
62
5
39
2
10
212.965908
20
25.338057
11
212.394408
21
25.338057
0
LINE
8
hole
62
5
39
2
10
212.394408
20
25.338057
11
212.394408
21
24.766557
0
LINE
8
hole
62
5
39
2
10
212.056744
20
13.124104
11
212.628244
21
13.124104
0
LINE
8
hole
62
5
39
2
10
212.628244
20
13.124104
11
212.628244
21
13.695604
0
LINE
8
hole
62
5
39
2
10
212.628244
20
13.695604
11
212.056744
21
13.695604
0
LINE
8
hole
62
5
39
2
10
212.056744
20
13.695604
11
212.056744
21
13.124104
0
LINE
8
boundary
62
5
39
2
10
159.767663
20
31.807037
11
163.490449
21
27.510717
0
LINE
8
boundary
62
5
39
2
10
163.490449
20
27.510717
11
164.025079
21
27.000948
0
LINE
8
boundary
62
5
39
2
10
164.025079
20
27.000948
11
168.139399
21
23.077943
0
LINE
8
boundary
62
5
39
2
10
168.139399
20
23.077943
11
168.720064
21
22.621304
0
LINE
8
boundary
62
5
39
2
10
168.720064
20
22.621304
11
173.188655
21
19.107166
0
LINE
8
boundary
62
5
39
2
10
173.188655
20
19.107166
11
173.810097
21
18.707790
0
LINE
8
boundary
62
5
39
2
10
173.810097
20
18.707790
11
178.592495
21
15.634329
0
LINE
8
boundary
62
5
39
2
10
178.592495
20
15.634329
11
179.249086
21
15.295833
0
LINE
8
boundary
62
5
39
2
10
179.249086
20
15.295833
11
184.301982
21
12.690882
0
LINE
8
boundary
62
5
39
2
10
184.301982
20
12.690882
11
184.987776
21
12.416333
0
LINE
8
boundary
62
5
39
2
10
184.987776
20
12.416333
11
190.265409
21
10.303497
0
LINE
8
boundary
62
5
39
2
10
190.265409
20
10.303497
11
190.974195
21
10.095378
0
LINE
8
boundary
62
5
39
2
10
190.974195
20
10.095378
11
196.428767
21
8.493760
0
LINE
8
boundary
62
5
39
2
10
196.428767
20
8.493760
11
197.154127
21
8.353959
0
LINE
8
boundary
62
5
39
2
10
197.154127
20
8.353959
11
202.736243
21
7.278094
0
LINE
8
boundary
62
5
39
2
10
202.736243
20
7.278094
11
203.471607
21
7.207876
0
LINE
8
boundary
62
5
39
2
10
203.471607
20
7.207876
11
209.130715
21
6.667500
0
LINE
8
boundary
62
5
39
2
10
209.130715
20
6.667500
11
209.869424
21
6.667500
0
LINE
8
boundary
62
5
39
2
10
209.869424
20
6.667500
11
215.554273
21
6.667500
0
LINE
8
boundary
62
5
39
2
10
215.554273
20
6.667500
11
216.289638
21
6.737718
0
LINE
8
boundary
62
5
39
2
10
216.289638
20
6.737718
11
221.948745
21
7.278095
0
LINE
8
boundary
62
5
39
2
10
221.948745
20
7.278095
11
222.674105
21
7.417896
0
LINE
8
boundary
62
5
39
2
10
222.674105
20
7.417896
11
228.256221
21
8.493760
0
LINE
8
boundary
62
5
39
2
10
228.256221
20
8.493760
11
228.965007
21
8.701880
0
LINE
8
boundary
62
5
39
2
10
228.965007
20
8.701880
11
234.419579
21
10.303497
0
LINE
8
boundary
62
5
39
2
10
234.419579
20
10.303497
11
235.105373
21
10.578047
0
LINE
8
boundary
62
5
39
2
10
235.105373
20
10.578047
11
240.383006
21
12.690882
0
LINE
8
boundary
62
5
39
2
10
240.383006
20
12.690882
11
241.039597
21
13.029378
0
LINE
8
boundary
62
5
39
2
10
241.039597
20
13.029378
11
246.092493
21
15.634329
0
LINE
8
boundary
62
5
39
2
10
246.092493
20
15.634329
11
246.713935
21
16.033706
0
LINE
8
boundary
62
5
39
2
10
246.713935
20
16.033706
11
251.496333
21
19.107166
0
LINE
8
boundary
62
5
39
2
10
251.496333
20
19.107166
11
252.076997
21
19.563805
0
LINE
8
boundary
62
5
39
2
10
252.076997
20
19.563805
11
256.545589
21
23.077943
0
LINE
8
boundary
62
5
39
2
10
256.545589
20
23.077943
11
257.080218
21
23.587712
0
LINE
8
boundary
62
5
39
2
10
257.080218
20
23.587712
11
261.194539
21
27.510717
0
LINE
8
boundary
62
5
39
2
10
261.194539
20
27.510717
11
261.678291
21
28.068996
0
LINE
8
boundary
62
5
39
2
10
261.678291
20
28.068996
11
265.401077
21
32.365315
0
LINE
8
boundary
62
5
39
2
10
265.401077
20
32.365315
11
265.829570
21
32.967050
0
LINE
8
boundary
62
5
39
2
10
265.829570
20
32.967050
11
269.127103
21
37.597787
0
LINE
8
boundary
62
5
39
2
10
269.127103
20
37.597787
11
269.496458
21
38.237528
0
LINE
8
boundary
62
5
39
2
10
269.496458
20
38.237528
11
272.338886
21
43.160754
0
LINE
8
boundary
62
5
39
2
10
272.338886
20
43.160754
11
272.645757
21
43.832708
0
LINE
8
boundary
62
5
39
2
10
272.645757
20
43.832708
11
275.007328
21
49.003828
0
LINE
8
boundary
62
5
39
2
10
275.007328
20
49.003828
11
275.248936
21
49.701909
0
LINE
8
boundary
62
5
39
2
10
275.248936
20
49.701909
11
277.108266
21
55.074095
0
LINE
8
boundary
62
5
39
2
10
277.108266
20
55.074095
11
277.282423
21
55.791981
0
LINE
8
boundary
62
5
39
2
10
277.282423
20
55.791981
11
278.622678
21
61.316584
0
LINE
8
boundary
62
5
39
2
10
278.622678
20
61.316584
11
278.727807
21
62.047774
0
LINE
8
boundary
62
5
39
2
10
278.727807
20
62.047774
11
279.536842
21
67.674759
0
LINE
8
boundary
62
5
39
2
10
279.536842
20
67.674759
11
279.571992
21
68.412632
0
LINE
8
boundary
62
5
39
2
10
279.571992
20
68.412632
11
279.842492
21
74.091043
0
LINE
8
boundary
62
5
39
2
10
279.842492
20
74.091043
11
277.213921
21
74.091043
0
LINE
8
boundary
62
5
39
2
10
277.213921
20
74.091043
11
261.442497
21
74.091043
0
LINE
8
boundary
62
5
39
2
10
261.442497
20
74.091043
11
259.842492
21
74.091043
0
LINE
8
boundary
62
5
39
2
10
259.842492
20
74.091043
11
259.543822
21
68.772730
0
LINE
8
boundary
62
5
39
2
10
259.543822
20
68.772730
11
258.651568
21
63.521299
0
LINE
8
boundary
62
5
39
2
10
258.651568
20
63.521299
11
257.511059
21
59.445469
0
LINE
8
boundary
62
5
39
2
10
257.511059
20
59.445469
11
257.176952
21
58.402787
0
LINE
8
boundary
62
5
39
2
10
257.176952
20
58.402787
11
255.372931
21
54.047507
0
LINE
8
boundary
62
5
39
2
10
255.372931
20
54.047507
11
255.138510
21
53.481567
0
LINE
8
boundary
62
5
39
2
10
255.138510
20
53.481567
11
252.858204
21
49.355655
0
LINE
8
boundary
62
5
39
2
10
252.858204
20
49.355655
11
252.561893
21
48.819520
0
LINE
8
boundary
62
5
39
2
10
252.561893
20
48.819520
11
249.833969
21
44.974867
0
LINE
8
boundary
62
5
39
2
10
249.833969
20
44.974867
11
249.479493
21
44.475279
0
LINE
8
boundary
62
5
39
2
10
249.479493
20
44.475279
11
246.338250
21
40.960227
0
LINE
8
boundary
62
5
39
2
10
246.338250
20
40.960227
11
245.930066
21
40.503468
0
LINE
8
boundary
62
5
39
2
10
245.930066
20
40.503468
11
242.415016
21
37.362232
0
LINE
8
boundary
62
5
39
2
10
242.415016
20
37.362232
11
241.958258
21
36.954049
0
LINE
8
boundary
62
5
39
2
10
241.958258
20
36.954049
11
238.113606
21
34.226124
0
LINE
8
boundary
62
5
39
2
10
238.113606
20
34.226124
11
237.614018
21
33.871647
0
LINE
8
boundary
62
5
39
2
10
237.614018
20
33.871647
11
233.488106
21
31.591336
0
LINE
8
boundary
62
5
39
2
10
233.488106
20
31.591336
11
232.951971
21
31.295025
0
LINE
8
boundary
62
5
39
2
10
232.951971
20
31.295025
11
228.596689
21
29.491006
0
LINE
8
boundary
62
5
39
2
10
228.596689
20
29.491006
11
228.030749
21
29.256585
0
LINE
8
boundary
62
5
39
2
10
228.030749
20
29.256585
11
223.500866
21
27.951550
0
LINE
8
boundary
62
5
39
2
10
223.500866
20
27.951550
11
222.912237
21
27.781969
0
LINE
8
boundary
62
5
39
2
10
222.912237
20
27.781969
11
218.264721
21
26.992323
0
LINE
8
boundary
62
5
39
2
10
218.264721
20
26.992323
11
217.660806
21
26.889714
0
LINE
8
boundary
62
5
39
2
10
217.660806
20
26.889714
11
212.954100
21
26.625390
0
LINE
8
boundary
62
5
39
2
10
212.954100
20
26.625390
11
212.342494
21
26.591043
0
LINE
8
boundary
62
5
39
2
10
212.342494
20
26.591043
11
207.635788
21
26.855367
0
LINE
8
boundary
62
5
39
2
10
207.635788
20
26.855367
11
207.024182
21
26.889714
0
LINE
8
boundary
62
5
39
2
10
207.024182
20
26.889714
11
202.376665
21
27.679360
0
LINE
8
boundary
62
5
39
2
10
202.376665
20
27.679360
11
201.772751
21
27.781969
0
LINE
8
boundary
62
5
39
2
10
201.772751
20
27.781969
11
197.242868
21
29.087004
0
LINE
8
boundary
62
5
39
2
10
197.242868
20
29.087004
11
196.654239
21
29.256585
0
LINE
8
boundary
62
5
39
2
10
196.654239
20
29.256585
11
192.298958
21
31.060604
0
LINE
8
boundary
62
5
39
2
10
192.298958
20
31.060604
11
191.733017
21
31.295025
0
LINE
8
boundary
62
5
39
2
10
191.733017
20
31.295025
11
187.607105
21
33.575336
0
LINE
8
boundary
62
5
39
2
10
187.607105
20
33.575336
11
187.070970
21
33.871648
0
LINE
8
boundary
62
5
39
2
10
187.070970
20
33.871648
11
183.226317
21
36.599573
0
LINE
8
boundary
62
5
39
2
10
183.226317
20
36.599573
11
182.726730
21
36.954049
0
LINE
8
boundary
62
5
39
2
10
182.726730
20
36.954049
11
179.211679
21
40.095285
0
LINE
8
boundary
62
5
39
2
10
179.211679
20
40.095285
11
178.754921
21
40.503468
0
LINE
8
boundary
62
5
39
2
10
178.754921
20
40.503468
11
175.613679
21
44.018521
0
LINE
8
boundary
62
5
39
2
10
175.613679
20
44.018521
11
175.205495
21
44.475279
0
LINE
8
boundary
62
5
39
2
10
175.205495
20
44.475279
11
172.477571
21
48.319932
0
LINE
8
boundary
62
5
39
2
10
172.477571
20
48.319932
11
172.123095
21
48.819520
0
LINE
8
boundary
62
5
39
2
10
172.123095
20
48.819520
11
169.842789
21
52.945431
0
LINE
8
boundary
62
5
39
2
10
169.842789
20
52.945431
11
169.546478
21
53.481567
0
LINE
8
boundary
62
5
39
2
10
169.546478
20
53.481567
11
167.742457
21
57.836847
0
LINE
8
boundary
62
5
39
2
10
167.742457
20
57.836847
11
167.508036
21
58.402787
0
LINE
8
boundary
62
5
39
2
10
167.508036
20
58.402787
11
167.291898
21
59.035982
0
LINE
8
boundary
62
5
39
2
10
167.291898
20
59.035982
11
166.033420
21
63.521299
0
LINE
8
boundary
62
5
39
2
10
166.033420
20
63.521299
11
165.141166
21
68.772730
0
LINE
8
boundary
62
5
39
2
10
165.141166
20
68.772730
11
164.842495
21
74.091043
0
LINE
8
boundary
62
5
39
2
10
164.842495
20
74.091043
11
163.242491
21
74.091043
0
LINE
8
boundary
62
5
39
2
10
163.242491
20
74.091043
11
147.471067
21
74.091043
0
LINE
8
boundary
62
5
39
2
10
147.471067
20
74.091043
11
144.842496
21
74.091043
0
LINE
8
boundary
62
5
39
2
10
144.842496
20
74.091043
11
144.877646
21
73.353171
0
LINE
8
boundary
62
5
39
2
10
144.877646
20
73.353171
11
145.148146
21
67.674759
0
LINE
8
boundary
62
5
39
2
10
145.148146
20
67.674759
11
145.253275
21
66.943569
0
LINE
8
boundary
62
5
39
2
10
145.253275
20
66.943569
11
146.062310
21
61.316584
0
LINE
8
boundary
62
5
39
2
10
146.062310
20
61.316584
11
146.236467
21
60.598698
0
LINE
8
boundary
62
5
39
2
10
146.236467
20
60.598698
11
147.576722
21
55.074095
0
LINE
8
boundary
62
5
39
2
10
147.576722
20
55.074095
11
147.818330
21
54.376014
0
LINE
8
boundary
62
5
39
2
10
147.818330
20
54.376014
11
149.677660
21
49.003829
0
LINE
8
boundary
62
5
39
2
10
149.677660
20
49.003829
11
149.984531
21
48.331875
0
LINE
8
boundary
62
5
39
2
10
149.984531
20
48.331875
11
152.346102
21
43.160754
0
LINE
8
boundary
62
5
39
2
10
152.346102
20
43.160754
11
152.715457
21
42.521013
0
LINE
8
boundary
62
5
39
2
10
152.715457
20
42.521013
11
155.557885
21
37.597787
0
LINE
8
boundary
62
5
39
2
10
155.557885
20
37.597787
11
155.986378
21
36.996053
0
LINE
8
boundary
62
5
39
2
10
155.986378
20
36.996053
11
159.283911
21
32.365315
0
LINE
8
boundary
62
5
39
2
10
159.283911
20
32.365315
11
159.767663
21
31.807037
0
LINE
8
annotation
62
1
39
211
10
212.680158
20
25.052307
11
212.680158
21
26.481057
0
LINE
8
annotation
62
1
39
211
10
212.680158
20
25.052307
11
212.680158
21
26.481057
0
LINE
8
annotation
62
1
39
211
10
212.680158
20
26.481057
11
212.680158
21
25.052307
0
LINE
8
annotation
62
1
39
211
10
212.680158
20
25.052307
11
212.680158
21
23.623557
0
LINE
8
annotation
62
1
39
211
10
212.342494
20
13.409854
11
213.771244
21
13.409854
0
LINE
8
annotation
62
1
39
211
10
212.342494
20
13.409854
11
213.771244
21
13.409854
0
LINE
8
annotation
62
1
39
211
10
213.771244
20
13.409854
11
212.342494
21
13.409854
0
LINE
8
annotation
62
1
39
211
10
212.342494
20
13.409854
11
212.342494
21
11.981104
0
LINE
8
annotation
62
1
39
211
10
265.080312
20
52.074816
11
268.321957
21
66.656273
0
LINE
8
annotation
62
1
39
211
10
268.321957
20
66.656273
11
261.837753
21
66.656273
0
LINE
8
annotation
62
1
39
211
10
268.321957
20
60.162925
11
265.080312
21
60.162925
0
LINE
8
hole
62
5
39
2
10
404.231738
20
40.093522
11
404.803238
21
40.093522
0
LINE
8
hole
62
5
39
2
10
404.803238
20
40.093522
11
404.803238
21
40.665022
0
LINE
8
hole
62
5
39
2
10
404.803238
20
40.665022
11
404.231738
21
40.665022
0
LINE
8
hole
62
5
39
2
10
404.231738
20
40.665022
11
404.231738
21
40.093522
0
LINE
8
hole
62
5
39
2
10
350.231740
20
67.062939
11
350.803240
21
67.062939
0
LINE
8
hole
62
5
39
2
10
350.803240
20
67.062939
11
350.803240
21
67.634439
0
LINE
8
hole
62
5
39
2
10
350.803240
20
67.634439
11
350.231740
21
67.634439
0
LINE
8
hole
62
5
39
2
10
350.231740
20
67.634439
11
350.231740
21
67.062939
0
LINE
8
hole
62
5
39
2
10
350.231740
20
13.124104
11
350.803240
21
13.124104
0
LINE
8
hole
62
5
39
2
10
350.803240
20
13.124104
11
350.803240
21
13.695604
0
LINE
8
hole
62
5
39
2
10
350.803240
20
13.695604
11
350.231740
21
13.695604
0
LINE
8
hole
62
5
39
2
10
350.231740
20
13.695604
11
350.231740
21
13.124104
0
LINE
8
hole
62
5
39
2
10
296.231742
20
40.093522
11
296.803242
21
40.093522
0
LINE
8
hole
62
5
39
2
10
296.803242
20
40.093522
11
296.803242
21
40.665022
0
LINE
8
hole
62
5
39
2
10
296.803242
20
40.665022
11
296.231742
21
40.665022
0
LINE
8
hole
62
5
39
2
10
296.231742
20
40.665022
11
296.231742
21
40.093522
0
LINE
8
hole
62
5
39
2
10
316.929918
20
40.503468
11
316.273274
21
41.238253
0
LINE
8
hole
62
5
39
2
10
316.273274
20
41.238253
11
313.380491
21
44.475279
0
LINE
8
hole
62
5
39
2
10
313.380491
20
44.475279
11
312.810248
21
45.278964
0
LINE
8
hole
62
5
39
2
10
312.810248
20
45.278964
11
310.298091
21
48.819520
0
LINE
8
hole
62
5
39
2
10
310.298091
20
48.819520
11
309.821417
21
49.681999
0
LINE
8
hole
62
5
39
2
10
309.821417
20
49.681999
11
307.721474
21
53.481567
0
LINE
8
hole
62
5
39
2
10
307.721474
20
53.481567
11
307.344362
21
54.391992
0
LINE
8
hole
62
5
39
2
10
307.344362
20
54.391992
11
305.683032
21
58.402787
0
LINE
8
hole
62
5
39
2
10
305.683032
20
58.402787
11
305.464209
21
59.043848
0
LINE
8
hole
62
5
39
2
10
305.464209
20
59.043848
11
388.375777
21
59.091047
0
LINE
8
hole
62
5
39
2
10
388.375777
20
59.091047
11
395.586881
21
59.091048
0
LINE
8
hole
62
5
39
2
10
395.586881
20
59.091048
11
395.401619
21
58.548305
0
LINE
8
hole
62
5
39
2
10
395.401619
20
58.548305
11
394.974836
21
57.492361
0
LINE
8
hole
62
5
39
2
10
394.974836
20
57.492361
11
393.313506
21
53.481567
0
LINE
8
hole
62
5
39
2
10
393.313506
20
53.481567
11
392.836832
21
52.619088
0
LINE
8
hole
62
5
39
2
10
392.836832
20
52.619088
11
390.736889
21
48.819520
0
LINE
8
hole
62
5
39
2
10
390.736889
20
48.819520
11
390.166645
21
48.015836
0
LINE
8
hole
62
5
39
2
10
390.166645
20
48.015836
11
387.654488
21
44.475279
0
LINE
8
hole
62
5
39
2
10
387.654488
20
44.475279
11
386.997845
21
43.740494
0
LINE
8
hole
62
5
39
2
10
386.997845
20
43.740494
11
384.105063
21
40.503468
0
LINE
8
hole
62
5
39
2
10
384.105063
20
40.503468
11
383.370278
21
39.846826
0
LINE
8
hole
62
5
39
2
10
383.370278
20
39.846826
11
380.133254
21
36.954049
0
LINE
8
hole
62
5
39
2
10
380.133254
20
36.954049
11
379.329570
21
36.383805
0
LINE
8
hole
62
5
39
2
10
379.329570
20
36.383805
11
375.789014
21
33.871647
0
LINE
8
hole
62
5
39
2
10
375.789014
20
33.871647
11
374.926535
21
33.394972
0
LINE
8
hole
62
5
39
2
10
374.926535
20
33.394972
11
371.126967
21
31.295025
0
LINE
8
hole
62
5
39
2
10
371.126967
20
31.295025
11
370.216541
21
30.917914
0
LINE
8
hole
62
5
39
2
10
370.216541
20
30.917914
11
366.205745
21
29.256585
0
LINE
8
hole
62
5
39
2
10
366.205745
20
29.256585
11
365.258820
21
28.983781
0
LINE
8
hole
62
5
39
2
10
365.258820
20
28.983781
11
361.087233
21
27.781969
0
LINE
8
hole
62
5
39
2
10
361.087233
20
27.781969
11
360.115718
21
27.616902
0
LINE
8
hole
62
5
39
2
10
360.115718
20
27.616902
11
355.835802
21
26.889714
0
LINE
8
hole
62
5
39
2
10
355.835802
20
26.889714
11
354.851914
21
26.834460
0
LINE
8
hole
62
5
39
2
10
354.851914
20
26.834460
11
350.517490
21
26.591043
0
LINE
8
hole
62
5
39
2
10
350.517490
20
26.591043
11
349.533602
21
26.646297
0
LINE
8
hole
62
5
39
2
10
349.533602
20
26.646297
11
345.199178
21
26.889714
0
LINE
8
hole
62
5
39
2
10
345.199178
20
26.889714
11
344.227663
21
27.054781
0
LINE
8
hole
62
5
39
2
10
344.227663
20
27.054781
11
339.947747
21
27.781969
0
LINE
8
hole
62
5
39
2
10
339.947747
20
27.781969
11
339.000822
21
28.054773
0
LINE
8
hole
62
5
39
2
10
339.000822
20
28.054773
11
334.829235
21
29.256585
0
LINE
8
hole
62
5
39
2
10
334.829235
20
29.256585
11
333.918809
21
29.633696
0
LINE
8
hole
62
5
39
2
10
333.918809
20
29.633696
11
329.908013
21
31.295025
0
LINE
8
hole
62
5
39
2
10
329.908013
20
31.295025
11
329.045535
21
31.771700
0
LINE
8
hole
62
5
39
2
10
329.045535
20
31.771700
11
325.245966
21
33.871647
0
LINE
8
hole
62
5
39
2
10
325.245966
20
33.871647
11
324.442281
21
34.441892
0
LINE
8
hole
62
5
39
2
10
324.442281
20
34.441892
11
320.901726
21
36.954049
0
LINE
8
hole
62
5
39
2
10
320.901726
20
36.954049
11
320.166941
21
37.610691
0
LINE
8
hole
62
5
39
2
10
320.166941
20
37.610691
11
316.929918
21
40.503468
0
LINE
8
boundary
62
5
39
2
10
300.887236
20
28.408817
11
301.665445
21
27.510717
0
LINE
8
boundary
62
5
39
2
10
301.665445
20
27.510717
11
305.454340
21
23.898006
0
LINE
8
boundary
62
5
39
2
10
305.454340
20
23.898006
11
306.314395
21
23.077943
0
LINE
8
boundary
62
5
39
2
10
306.314395
20
23.077943
11
310.429539
21
19.841760
0
LINE
8
boundary
62
5
39
2
10
310.429539
20
19.841760
11
311.363651
21
19.107166
0
LINE
8
boundary
62
5
39
2
10
311.363651
20
19.107166
11
315.767781
21
16.276804
0
LINE
8
boundary
62
5
39
2
10
315.767781
20
16.276804
11
316.767491
21
15.634329
0
LINE
8
boundary
62
5
39
2
10
316.767491
20
15.634329
11
321.420723
21
13.235420
0
LINE
8
boundary
62
5
39
2
10
321.420723
20
13.235420
11
322.476978
21
12.690882
0
LINE
8
boundary
62
5
39
2
10
322.476978
20
12.690882
11
327.337171
21
10.745164
0
LINE
8
boundary
62
5
39
2
10
327.337171
20
10.745164
11
328.440405
21
10.303497
0
LINE
8
boundary
62
5
39
2
10
328.440405
20
10.303497
11
333.463542
21
8.828562
0
LINE
8
boundary
62
5
39
2
10
333.463542
20
8.828562
11
334.603763
21
8.493760
0
LINE
8
boundary
62
5
39
2
10
334.603763
20
8.493760
11
339.744356
21
7.502993
0
LINE
8
boundary
62
5
39
2
10
339.744356
20
7.502993
11
340.911239
21
7.278094
0
LINE
8
boundary
62
5
39
2
10
340.911239
20
7.278094
11
346.122733
21
6.780460
0
LINE
8
boundary
62
5
39
2
10
346.122733
20
6.780460
11
347.305711
21
6.667500
0
LINE
8
boundary
62
5
39
2
10
347.305711
20
6.667500
11
352.540911
21
6.667500
0
LINE
8
boundary
62
5
39
2
10
352.540911
20
6.667500
11
353.729269
21
6.667500
0
LINE
8
boundary
62
5
39
2
10
353.729269
20
6.667500
11
358.940764
21
7.165135
0
LINE
8
boundary
62
5
39
2
10
358.940764
20
7.165135
11
360.123741
21
7.278095
0
LINE
8
boundary
62
5
39
2
10
360.123741
20
7.278095
11
365.264334
21
8.268862
0
LINE
8
boundary
62
5
39
2
10
365.264334
20
8.268862
11
366.431217
21
8.493760
0
LINE
8
boundary
62
5
39
2
10
366.431217
20
8.493760
11
371.454354
21
9.968696
0
LINE
8
boundary
62
5
39
2
10
371.454354
20
9.968696
11
372.594575
21
10.303497
0
LINE
8
boundary
62
5
39
2
10
372.594575
20
10.303497
11
377.454768
21
12.249216
0
LINE
8
boundary
62
5
39
2
10
377.454768
20
12.249216
11
378.558002
21
12.690882
0
LINE
8
boundary
62
5
39
2
10
378.558002
20
12.690882
11
383.211234
21
15.089792
0
LINE
8
boundary
62
5
39
2
10
383.211234
20
15.089792
11
384.267489
21
15.634329
0
LINE
8
boundary
62
5
39
2
10
384.267489
20
15.634329
11
388.671618
21
18.464691
0
LINE
8
boundary
62
5
39
2
10
388.671618
20
18.464691
11
389.671329
21
19.107166
0
LINE
8
boundary
62
5
39
2
10
389.671329
20
19.107166
11
393.786472
21
22.343349
0
LINE
8
boundary
62
5
39
2
10
393.786472
20
22.343349
11
394.720585
21
23.077943
0
LINE
8
boundary
62
5
39
2
10
394.720585
20
23.077943
11
398.509479
21
26.690654
0
LINE
8
boundary
62
5
39
2
10
398.509479
20
26.690654
11
399.369535
21
27.510717
0
LINE
8
boundary
62
5
39
2
10
399.369535
20
27.510717
11
402.797864
21
31.467215
0
LINE
8
boundary
62
5
39
2
10
402.797864
20
31.467215
11
403.576073
21
32.365315
0
LINE
8
boundary
62
5
39
2
10
403.576073
20
32.365315
11
406.612784
21
36.629780
0
LINE
8
boundary
62
5
39
2
10
406.612784
20
36.629780
11
407.302099
21
37.597787
0
LINE
8
boundary
62
5
39
2
10
407.302099
20
37.597787
11
409.919702
21
42.131605
0
LINE
8
boundary
62
5
39
2
10
409.919702
20
42.131605
11
410.513882
21
43.160754
0
LINE
8
boundary
62
5
39
2
10
410.513882
20
43.160754
11
412.688662
21
47.922860
0
LINE
8
boundary
62
5
39
2
10
412.688662
20
47.922860
11
413.182324
21
49.003828
0
LINE
8
boundary
62
5
39
2
10
413.182324
20
49.003828
11
414.894588
21
53.951095
0
LINE
8
boundary
62
5
39
2
10
414.894588
20
53.951095
11
415.283262
21
55.074095
0
LINE
8
boundary
62
5
39
2
10
415.283262
20
55.074095
11
416.517508
21
60.161723
0
LINE
8
boundary
62
5
39
2
10
416.517508
20
60.161723
11
416.797674
21
61.316584
0
LINE
8
boundary
62
5
39
2
10
416.797674
20
61.316584
11
417.542718
21
66.498497
0
LINE
8
boundary
62
5
39
2
10
417.542718
20
66.498497
11
417.711838
21
67.674759
0
LINE
8
boundary
62
5
39
2
10
417.711838
20
67.674759
11
417.960943
21
72.904031
0
LINE
8
boundary
62
5
39
2
10
417.960943
20
72.904031
11
418.017488
21
74.091043
0
LINE
8
boundary
62
5
39
2
10
418.017488
20
74.091043
11
399.388917
21
74.091043
0
LINE
8
boundary
62
5
39
2
10
399.388917
20
74.091043
11
398.017489
21
74.091043
0
LINE
8
boundary
62
5
39
2
10
398.017489
20
74.091043
11
390.417487
21
74.091043
0
LINE
8
boundary
62
5
39
2
10
390.417487
20
74.091043
11
303.017491
21
74.091043
0
LINE
8
boundary
62
5
39
2
10
303.017491
20
74.091043
11
301.646063
21
74.091043
0
LINE
8
boundary
62
5
39
2
10
301.646063
20
74.091043
11
283.017492
21
74.091043
0
LINE
8
boundary
62
5
39
2
10
283.017492
20
74.091043
11
283.266597
21
68.861772
0
LINE
8
boundary
62
5
39
2
10
283.266597
20
68.861772
11
283.323142
21
67.674759
0
LINE
8
boundary
62
5
39
2
10
283.323142
20
67.674759
11
284.068186
21
62.492846
0
LINE
8
boundary
62
5
39
2
10
284.068186
20
62.492846
11
284.237306
21
61.316584
0
LINE
8
boundary
62
5
39
2
10
284.237306
20
61.316584
11
285.471552
21
56.228955
0
LINE
8
boundary
62
5
39
2
10
285.471552
20
56.228955
11
285.751718
21
55.074095
0
LINE
8
boundary
62
5
39
2
10
285.751718
20
55.074095
11
287.463982
21
50.126828
0
LINE
8
boundary
62
5
39
2
10
287.463982
20
50.126828
11
287.852656
21
49.003829
0
LINE
8
boundary
62
5
39
2
10
287.852656
20
49.003829
11
290.027436
21
44.241723
0
LINE
8
boundary
62
5
39
2
10
290.027436
20
44.241723
11
290.521098
21
43.160754
0
LINE
8
boundary
62
5
39
2
10
290.521098
20
43.160754
11
293.138701
21
38.626936
0
LINE
8
boundary
62
5
39
2
10
293.138701
20
38.626936
11
293.732881
21
37.597787
0
LINE
8
boundary
62
5
39
2
10
293.732881
20
37.597787
11
296.769592
21
33.333323
0
LINE
8
boundary
62
5
39
2
10
296.769592
20
33.333323
11
297.458907
21
32.365315
0
LINE
8
boundary
62
5
39
2
10
297.458907
20
32.365315
11
300.887236
21
28.408817
0
LINE
8
annotation
62
1
39
211
10
404.517488
20
40.379272
11
404.517488
21
41.808022
0
LINE
8
annotation
62
1
39
211
10
296.517492
20
40.379272
11
297.946242
21
40.379272
0
LINE
8
annotation
62
1
39
211
10
350.517490
20
67.348689
11
350.517490
21
68.777439
0
LINE
8
annotation
62
1
39
211
10
350.517490
20
67.348689
11
350.517490
21
68.777439
0
LINE
8
annotation
62
1
39
211
10
350.517490
20
68.777439
11
350.517490
21
67.348689
0
LINE
8
annotation
62
1
39
211
10
350.517490
20
67.348689
11
351.946240
21
67.348689
0
LINE
8
annotation
62
1
39
211
10
350.517490
20
13.409854
11
350.517490
21
11.981104
0
LINE
8
annotation
62
1
39
211
10
301.014001
20
52.074697
11
294.538027
21
52.074697
0
LINE
8
annotation
62
1
39
211
10
294.538027
20
52.074697
11
300.522039
21
61.708189
0
LINE
8
annotation
62
1
39
211
10
300.522039
20
61.708189
11
300.522039
21
61.708189
0
LINE
8
annotation
62
1
39
211
10
300.522039
20
61.708189
11
300.529193
21
61.717041
0
LINE
8
annotation
62
1
39
211
10
300.529193
20
61.717041
11
300.536053
21
61.725968
0
LINE
8
annotation
62
1
39
211
10
300.536053
20
61.725968
11
300.542665
21
61.735046
0
LINE
8
annotation
62
1
39
211
10
300.542665
20
61.735046
11
300.549073
21
61.744349
0
LINE
8
annotation
62
1
39
211
10
300.549073
20
61.744349
11
300.555324
21
61.753954
0
LINE
8
annotation
62
1
39
211
10
300.555324
20
61.753954
11
300.561461
21
61.763935
0
LINE
8
annotation
62
1
39
211
10
300.561461
20
61.763935
11
300.567531
21
61.774367
0
LINE
8
annotation
62
1
39
211
10
300.567531
20
61.774367
11
300.573579
21
61.785327
0
LINE
8
annotation
62
1
39
211
10
300.573579
20
61.785327
11
300.579648
21
61.796888
0
LINE
8
annotation
62
1
39
211
10
300.579648
20
61.796888
11
300.579648
21
61.796888
0
LINE
8
annotation
62
1
39
211
10
300.579648
20
61.796888
11
300.826727
21
62.327386
0
LINE
8
annotation
62
1
39
211
10
300.826727
20
62.327386
11
300.971066
21
62.877295
0
LINE
8
annotation
62
1
39
211
10
300.971066
20
62.877295
11
301.016203
21
63.434187
0
LINE
8
annotation
62
1
39
211
10
301.016203
20
63.434187
11
300.965675
21
63.985638
0
LINE
8
annotation
62
1
39
211
10
300.965675
20
63.985638
11
300.823019
21
64.519222
0
LINE
8
annotation
62
1
39
211
10
300.823019
20
64.519222
11
300.591773
21
65.022514
0
LINE
8
annotation
62
1
39
211
10
300.591773
20
65.022514
11
300.275474
21
65.483086
0
LINE
8
annotation
62
1
39
211
10
300.275474
20
65.483086
11
299.877659
21
65.888515
0
LINE
8
annotation
62
1
39
211
10
299.877659
20
65.888515
11
299.401866
21
66.226374
0
LINE
8
annotation
62
1
39
211
10
299.401866
20
66.226374
11
299.401866
21
66.226374
0
LINE
8
annotation
62
1
39
211
10
299.401866
20
66.226374
11
298.869893
21
66.469942
0
LINE
8
annotation
62
1
39
211
10
298.869893
20
66.469942
11
298.319141
21
66.612057
0
LINE
8
annotation
62
1
39
211
10
298.319141
20
66.612057
11
297.761925
21
66.655918
0
LINE
8
annotation
62
1
39
211
10
297.761925
20
66.655918
11
297.210557
21
66.604724
0
LINE
8
annotation
62
1
39
211
10
297.210557
20
66.604724
11
296.677349
21
66.461673
0
LINE
8
annotation
62
1
39
211
10
296.677349
20
66.461673
11
296.174615
21
66.229964
0
LINE
8
annotation
62
1
39
211
10
296.174615
20
66.229964
11
295.714667
21
65.912796
0
LINE
8
annotation
62
1
39
211
10
295.714667
20
65.912796
11
295.309818
21
65.513367
0
LINE
8
annotation
62
1
39
211
10
295.309818
20
65.513367
11
294.972380
21
65.034875
0
LINE
8
annotation
62
1
39
211
10
294.972380
20
65.034875
11
294.547172
21
64.219206
0
LINE
8
hole
62
5
39
2
10
488.406736
20
67.062939
11
488.978236
21
67.062939
0
LINE
8
hole
62
5
39
2
10
488.978236
20
67.062939
11
488.978236
21
67.634439
0
LINE
8
hole
62
5
39
2
10
488.978236
20
67.634439
11
488.406736
21
67.634439
0
LINE
8
hole
62
5
39
2
10
488.406736
20
67.634439
11
488.406736
21
67.062939
0
LINE
8
hole
62
5
39
2
10
488.406736
20
13.124104
11
488.978236
21
13.124104
0
LINE
8
hole
62
5
39
2
10
488.978236
20
13.124104
11
488.978236
21
13.695604
0
LINE
8
hole
62
5
39
2
10
488.978236
20
13.695604
11
488.406736
21
13.695604
0
LINE
8
hole
62
5
39
2
10
488.406736
20
13.695604
11
488.406736
21
13.124104
0
LINE
8
hole
62
5
39
2
10
542.406734
20
40.093522
11
542.978234
21
40.093522
0
LINE
8
hole
62
5
39
2
10
542.978234
20
40.093522
11
542.978234
21
40.665022
0
LINE
8
hole
62
5
39
2
10
542.978234
20
40.665022
11
542.406734
21
40.665022
0
LINE
8
hole
62
5
39
2
10
542.406734
20
40.665022
11
542.406734
21
40.093522
0
LINE
8
hole
62
5
39
2
10
434.406738
20
40.093522
11
434.978238
21
40.093522
0
LINE
8
hole
62
5
39
2
10
434.978238
20
40.093522
11
434.978238
21
40.665022
0
LINE
8
hole
62
5
39
2
10
434.978238
20
40.665022
11
434.406738
21
40.665022
0
LINE
8
hole
62
5
39
2
10
434.406738
20
40.665022
11
434.406738
21
40.093522
0
LINE
8
hole
62
5
39
2
10
455.104914
20
40.503468
11
453.951350
21
41.794307
0
LINE
8
hole
62
5
39
2
10
453.951350
20
41.794307
11
451.555487
21
44.475279
0
LINE
8
hole
62
5
39
2
10
451.555487
20
44.475279
11
450.553707
21
45.887157
0
LINE
8
hole
62
5
39
2
10
450.553707
20
45.887157
11
448.473087
21
48.819520
0
LINE
8
hole
62
5
39
2
10
448.473087
20
48.819520
11
447.635687
21
50.334685
0
LINE
8
hole
62
5
39
2
10
447.635687
20
50.334685
11
445.896470
21
53.481567
0
LINE
8
hole
62
5
39
2
10
445.896470
20
53.481567
11
445.233977
21
55.080963
0
LINE
8
hole
62
5
39
2
10
445.233977
20
55.080963
11
443.858028
21
58.402787
0
LINE
8
hole
62
5
39
2
10
443.858028
20
58.402787
11
443.676794
21
58.933727
0
LINE
8
hole
62
5
39
2
10
443.676794
20
58.933727
11
509.724866
21
59.091046
0
LINE
8
hole
62
5
39
2
10
509.724866
20
59.091046
11
533.761877
21
59.091048
0
LINE
8
hole
62
5
39
2
10
533.761877
20
59.091048
11
533.526943
21
58.402787
0
LINE
8
hole
62
5
39
2
10
533.526943
20
58.402787
11
532.864450
21
56.803390
0
LINE
8
hole
62
5
39
2
10
532.864450
20
56.803390
11
531.488502
21
53.481567
0
LINE
8
hole
62
5
39
2
10
531.488502
20
53.481567
11
530.651101
21
51.966401
0
LINE
8
hole
62
5
39
2
10
530.651101
20
51.966401
11
528.911885
21
48.819520
0
LINE
8
hole
62
5
39
2
10
528.911885
20
48.819520
11
527.910105
21
47.407642
0
LINE
8
hole
62
5
39
2
10
527.910105
20
47.407642
11
525.829484
21
44.475279
0
LINE
8
hole
62
5
39
2
10
525.829484
20
44.475279
11
524.675921
21
43.184441
0
LINE
8
hole
62
5
39
2
10
524.675921
20
43.184441
11
522.280059
21
40.503468
0
LINE
8
hole
62
5
39
2
10
522.280059
20
40.503468
11
520.989221
21
39.349907
0
LINE
8
hole
62
5
39
2
10
520.989221
20
39.349907
11
518.308250
21
36.954049
0
LINE
8
hole
62
5
39
2
10
518.308250
20
36.954049
11
516.896372
21
35.952268
0
LINE
8
hole
62
5
39
2
10
516.896372
20
35.952268
11
513.964010
21
33.871647
0
LINE
8
hole
62
5
39
2
10
513.964010
20
33.871647
11
512.448845
21
33.034245
0
LINE
8
hole
62
5
39
2
10
512.448845
20
33.034245
11
509.301963
21
31.295025
0
LINE
8
hole
62
5
39
2
10
509.301963
20
31.295025
11
507.702565
21
30.632532
0
LINE
8
hole
62
5
39
2
10
507.702565
20
30.632532
11
504.380741
21
29.256585
0
LINE
8
hole
62
5
39
2
10
504.380741
20
29.256585
11
502.717224
21
28.777335
0
LINE
8
hole
62
5
39
2
10
502.717224
20
28.777335
11
499.262229
21
27.781969
0
LINE
8
hole
62
5
39
2
10
499.262229
20
27.781969
11
497.555514
21
27.491986
0
LINE
8
hole
62
5
39
2
10
497.555514
20
27.491986
11
494.010798
21
26.889714
0
LINE
8
hole
62
5
39
2
10
494.010798
20
26.889714
11
492.282347
21
26.792646
0
LINE
8
hole
62
5
39
2
10
492.282347
20
26.792646
11
488.692486
21
26.591043
0
LINE
8
hole
62
5
39
2
10
488.692486
20
26.591043
11
486.964035
21
26.688111
0
LINE
8
hole
62
5
39
2
10
486.964035
20
26.688111
11
483.374174
21
26.889714
0
LINE
8
hole
62
5
39
2
10
483.374174
20
26.889714
11
481.667459
21
27.179697
0
LINE
8
hole
62
5
39
2
10
481.667459
20
27.179697
11
478.122743
21
27.781969
0
LINE
8
hole
62
5
39
2
10
478.122743
20
27.781969
11
476.459227
21
28.261219
0
LINE
8
hole
62
5
39
2
10
476.459227
20
28.261219
11
473.004231
21
29.256585
0
LINE
8
hole
62
5
39
2
10
473.004231
20
29.256585
11
471.404834
21
29.919078
0
LINE
8
hole
62
5
39
2
10
471.404834
20
29.919078
11
468.083009
21
31.295025
0
LINE
8
hole
62
5
39
2
10
468.083009
20
31.295025
11
466.567844
21
32.132427
0
LINE
8
hole
62
5
39
2
10
466.567844
20
32.132427
11
463.420962
21
33.871647
0
LINE
8
hole
62
5
39
2
10
463.420962
20
33.871647
11
462.009084
21
34.873428
0
LINE
8
hole
62
5
39
2
10
462.009084
20
34.873428
11
459.076722
21
36.954049
0
LINE
8
hole
62
5
39
2
10
459.076722
20
36.954049
11
457.785884
21
38.107610
0
LINE
8
hole
62
5
39
2
10
457.785884
20
38.107610
11
455.104914
21
40.503468
0
LINE
8
boundary
62
5
39
2
10
438.473316
20
29.088461
11
439.840441
21
27.510717
0
LINE
8
boundary
62
5
39
2
10
439.840441
20
27.510717
11
442.978483
21
24.518595
0
LINE
8
boundary
62
5
39
2
10
442.978483
20
24.518595
11
444.489391
21
23.077943
0
LINE
8
boundary
62
5
39
2
10
444.489391
20
23.077943
11
447.897639
21
20.397668
0
LINE
8
boundary
62
5
39
2
10
447.897639
20
20.397668
11
449.538647
21
19.107166
0
LINE
8
boundary
62
5
39
2
10
449.538647
20
19.107166
11
453.186239
21
16.763001
0
LINE
8
boundary
62
5
39
2
10
453.186239
20
16.763001
11
454.942487
21
15.634329
0
LINE
8
boundary
62
5
39
2
10
454.942487
20
15.634329
11
458.796391
21
13.647502
0
LINE
8
boundary
62
5
39
2
10
458.796391
20
13.647502
11
460.651974
21
12.690882
0
LINE
8
boundary
62
5
39
2
10
460.651974
20
12.690882
11
464.677287
21
11.079397
0
LINE
8
boundary
62
5
39
2
10
464.677287
20
11.079397
11
466.615401
21
10.303497
0
LINE
8
boundary
62
5
39
2
10
466.615401
20
10.303497
11
470.775668
21
9.081925
0
LINE
8
boundary
62
5
39
2
10
470.775668
20
9.081925
11
472.778759
21
8.493760
0
LINE
8
boundary
62
5
39
2
10
472.778759
20
8.493760
11
477.036305
21
7.673186
0
LINE
8
boundary
62
5
39
2
10
477.036305
20
7.673186
11
479.086235
21
7.278094
0
LINE
8
boundary
62
5
39
2
10
479.086235
20
7.278094
11
483.402503
21
6.865943
0
LINE
8
boundary
62
5
39
2
10
483.402503
20
6.865943
11
485.480707
21
6.667500
0
LINE
8
boundary
62
5
39
2
10
485.480707
20
6.667500
11
489.816609
21
6.667500
0
LINE
8
boundary
62
5
39
2
10
489.816609
20
6.667500
11
491.904265
21
6.667500
0
LINE
8
boundary
62
5
39
2
10
491.904265
20
6.667500
11
496.220534
21
7.079651
0
LINE
8
boundary
62
5
39
2
10
496.220534
20
7.079651
11
498.298737
21
7.278095
0
LINE
8
boundary
62
5
39
2
10
498.298737
20
7.278095
11
502.556283
21
8.098669
0
LINE
8
boundary
62
5
39
2
10
502.556283
20
8.098669
11
504.606213
21
8.493760
0
LINE
8
boundary
62
5
39
2
10
504.606213
20
8.493760
11
508.766480
21
9.715333
0
LINE
8
boundary
62
5
39
2
10
508.766480
20
9.715333
11
510.769571
21
10.303497
0
LINE
8
boundary
62
5
39
2
10
510.769571
20
10.303497
11
514.794884
21
11.914982
0
LINE
8
boundary
62
5
39
2
10
514.794884
20
11.914982
11
516.732998
21
12.690882
0
LINE
8
boundary
62
5
39
2
10
516.732998
20
12.690882
11
520.586902
21
14.677709
0
LINE
8
boundary
62
5
39
2
10
520.586902
20
14.677709
11
522.442485
21
15.634329
0
LINE
8
boundary
62
5
39
2
10
522.442485
20
15.634329
11
526.090077
21
17.978494
0
LINE
8
boundary
62
5
39
2
10
526.090077
20
17.978494
11
527.846325
21
19.107166
0
LINE
8
boundary
62
5
39
2
10
527.846325
20
19.107166
11
531.254572
21
21.787441
0
LINE
8
boundary
62
5
39
2
10
531.254572
20
21.787441
11
532.895581
21
23.077943
0
LINE
8
boundary
62
5
39
2
10
532.895581
20
23.077943
11
536.033622
21
26.070065
0
LINE
8
boundary
62
5
39
2
10
536.033622
20
26.070065
11
537.544531
21
27.510717
0
LINE
8
boundary
62
5
39
2
10
537.544531
20
27.510717
11
540.383944
21
30.787571
0
LINE
8
boundary
62
5
39
2
10
540.383944
20
30.787571
11
541.751069
21
32.365315
0
LINE
8
boundary
62
5
39
2
10
541.751069
20
32.365315
11
544.266137
21
35.897234
0
LINE
8
boundary
62
5
39
2
10
544.266137
20
35.897234
11
545.477095
21
37.597787
0
LINE
8
boundary
62
5
39
2
10
545.477095
20
37.597787
11
547.645049
21
41.352790
0
LINE
8
boundary
62
5
39
2
10
547.645049
20
41.352790
11
548.688878
21
43.160754
0
LINE
8
boundary
62
5
39
2
10
548.688878
20
43.160754
11
550.490077
21
47.104829
0
LINE
8
boundary
62
5
39
2
10
550.490077
20
47.104829
11
551.357320
21
49.003828
0
LINE
8
boundary
62
5
39
2
10
551.357320
20
49.003828
11
552.775453
21
53.101258
0
LINE
8
boundary
62
5
39
2
10
552.775453
20
53.101258
11
553.458258
21
55.074095
0
LINE
8
boundary
62
5
39
2
10
553.458258
20
55.074095
11
554.480486
21
59.287775
0
LINE
8
boundary
62
5
39
2
10
554.480486
20
59.287775
11
554.972670
21
61.316584
0
LINE
8
boundary
62
5
39
2
10
554.972670
20
61.316584
11
555.589731
21
65.608352
0
LINE
8
boundary
62
5
39
2
10
555.589731
20
65.608352
11
555.886834
21
67.674759
0
LINE
8
boundary
62
5
39
2
10
555.886834
20
67.674759
11
556.093148
21
72.005751
0
LINE
8
boundary
62
5
39
2
10
556.093148
20
72.005751
11
556.192484
21
74.091043
0
LINE
8
boundary
62
5
39
2
10
556.192484
20
74.091043
11
540.763913
21
74.091043
0
LINE
8
boundary
62
5
39
2
10
540.763913
20
74.091043
11
536.192485
21
74.091043
0
LINE
8
boundary
62
5
39
2
10
536.192485
20
74.091043
11
510.859150
21
74.091043
0
LINE
8
boundary
62
5
39
2
10
510.859150
20
74.091043
11
441.192487
21
74.091043
0
LINE
8
boundary
62
5
39
2
10
441.192487
20
74.091043
11
436.621059
21
74.091043
0
LINE
8
boundary
62
5
39
2
10
436.621059
20
74.091043
11
421.192488
21
74.091043
0
LINE
8
boundary
62
5
39
2
10
421.192488
20
74.091043
11
421.398802
21
69.760052
0
LINE
8
boundary
62
5
39
2
10
421.398802
20
69.760052
11
421.498138
21
67.674759
0
LINE
8
boundary
62
5
39
2
10
421.498138
20
67.674759
11
422.115199
21
63.382991
0
LINE
8
boundary
62
5
39
2
10
422.115199
20
63.382991
11
422.412302
21
61.316584
0
LINE
8
boundary
62
5
39
2
10
422.412302
20
61.316584
11
423.434530
21
57.102904
0
LINE
8
boundary
62
5
39
2
10
423.434530
20
57.102904
11
423.926714
21
55.074095
0
LINE
8
boundary
62
5
39
2
10
423.926714
20
55.074095
11
425.344847
21
50.976665
0
LINE
8
boundary
62
5
39
2
10
425.344847
20
50.976665
11
426.027652
21
49.003829
0
LINE
8
boundary
62
5
39
2
10
426.027652
20
49.003829
11
427.828850
21
45.059753
0
LINE
8
boundary
62
5
39
2
10
427.828850
20
45.059753
11
428.696094
21
43.160754
0
LINE
8
boundary
62
5
39
2
10
428.696094
20
43.160754
11
430.864047
21
39.405752
0
LINE
8
boundary
62
5
39
2
10
430.864047
20
39.405752
11
431.907877
21
37.597787
0
LINE
8
boundary
62
5
39
2
10
431.907877
20
37.597787
11
434.422944
21
34.065869
0
LINE
8
boundary
62
5
39
2
10
434.422944
20
34.065869
11
435.633903
21
32.365315
0
LINE
8
boundary
62
5
39
2
10
435.633903
20
32.365315
11
438.473316
21
29.088461
0
LINE
8
annotation
62
1
39
211
10
488.692486
20
67.348689
11
488.692486
21
68.777439
0
LINE
8
annotation
62
1
39
211
10
488.692486
20
67.348689
11
488.692486
21
68.777439
0
LINE
8
annotation
62
1
39
211
10
488.692486
20
68.777439
11
488.692486
21
67.348689
0
LINE
8
annotation
62
1
39
211
10
488.692486
20
67.348689
11
490.121236
21
67.348689
0
LINE
8
annotation
62
1
39
211
10
488.692486
20
13.409854
11
488.692486
21
11.981104
0
LINE
8
annotation
62
1
39
211
10
542.692484
20
40.379272
11
542.692484
21
41.808022
0
LINE
8
annotation
62
1
39
211
10
542.692484
20
40.379272
11
542.692484
21
41.808022
0
LINE
8
annotation
62
1
39
211
10
542.692484
20
41.808022
11
542.692484
21
40.379272
0
LINE
8
annotation
62
1
39
211
10
542.692484
20
40.379272
11
542.692484
21
38.950522
0
LINE
8
annotation
62
1
39
211
10
434.692488
20
40.379272
11
436.121238
21
40.379272
0
LINE
8
annotation
62
1
39
211
10
434.692488
20
40.379272
11
436.121238
21
40.379272
0
LINE
8
annotation
62
1
39
211
10
436.121238
20
40.379272
11
434.692488
21
40.379272
0
LINE
8
annotation
62
1
39
211
10
434.692488
20
40.379272
11
434.692488
21
38.950522
0
LINE
8
annotation
62
1
39
211
10
432.713023
20
52.075273
11
435.951010
21
52.075273
0
LINE
8
annotation
62
1
39
211
10
435.951010
20
52.075273
11
435.951010
21
52.075273
0
LINE
8
annotation
62
1
39
211
10
435.951010
20
52.075273
11
436.533370
21
52.127515
0
LINE
8
annotation
62
1
39
211
10
436.533370
20
52.127515
11
437.081350
21
52.278078
0
LINE
8
annotation
62
1
39
211
10
437.081350
20
52.278078
11
437.585837
21
52.517720
0
LINE
8
annotation
62
1
39
211
10
437.585837
20
52.517720
11
438.037716
21
52.837200
0
LINE
8
annotation
62
1
39
211
10
438.037716
20
52.837200
11
438.427873
21
53.227276
0
LINE
8
annotation
62
1
39
211
10
438.427873
20
53.227276
11
438.747194
21
53.678704
0
LINE
8
annotation
62
1
39
211
10
438.747194
20
53.678704
11
438.986564
21
54.182244
0
LINE
8
annotation
62
1
39
211
10
438.986564
20
54.182244
11
439.136870
21
54.728652
0
LINE
8
annotation
62
1
39
211
10
439.136870
20
54.728652
11
439.188997
21
55.308688
0
LINE
8
annotation
62
1
39
211
10
439.188997
20
55.308688
11
439.188997
21
56.929967
0
LINE
8
annotation
62
1
39
211
10
439.188997
20
56.929967
11
439.188997
21
56.929967
0
LINE
8
annotation
62
1
39
211
10
439.188997
20
56.929967
11
439.136870
21
57.509762
0
LINE
8
annotation
62
1
39
211
10
439.136870
20
57.509762
11
438.986564
21
58.056043
0
LINE
8
annotation
62
1
39
211
10
438.986564
20
58.056043
11
438.747194
21
58.559545
0
LINE
8
annotation
62
1
39
211
10
438.747194
20
58.559545
11
438.427873
21
59.011003
0
LINE
8
annotation
62
1
39
211
10
438.427873
20
59.011003
11
438.037716
21
59.401154
0
LINE
8
annotation
62
1
39
211
10
438.037716
20
59.401154
11
437.585837
21
59.720732
0
LINE
8
annotation
62
1
39
211
10
437.585837
20
59.720732
11
437.081350
21
59.960472
0
LINE
8
annotation
62
1
39
211
10
437.081350
20
59.960472
11
436.533370
21
60.111111
0
LINE
8
annotation
62
1
39
211
10
436.533370
20
60.111111
11
435.951010
21
60.163382
0
LINE
8
annotation
62
1
39
211
10
435.951010
20
60.163382
11
434.329731
21
60.163382
0
LINE
8
annotation
62
1
39
211
10
434.329731
20
60.163382
11
435.951010
21
60.163382
0
LINE
8
annotation
62
1
39
211
10
435.951010
20
60.163382
11
435.951010
21
60.163382
0
LINE
8
annotation
62
1
39
211
10
435.951010
20
60.163382
11
436.533370
21
60.215667
0
LINE
8
annotation
62
1
39
211
10
436.533370
20
60.215667
11
437.081350
21
60.366393
0
LINE
8
annotation
62
1
39
211
10
437.081350
20
60.366393
11
437.585837
21
60.606372
0
LINE
8
annotation
62
1
39
211
10
437.585837
20
60.606372
11
438.037716
21
60.926414
0
LINE
8
annotation
62
1
39
211
10
438.037716
20
60.926414
11
438.427873
21
61.317329
0
LINE
8
annotation
62
1
39
211
10
438.427873
20
61.317329
11
438.747194
21
61.769930
0
LINE
8
annotation
62
1
39
211
10
438.747194
20
61.769930
11
438.986564
21
62.275025
0
LINE
8
annotation
62
1
39
211
10
438.986564
20
62.275025
11
439.136870
21
62.823425
0
LINE
8
annotation
62
1
39
211
10
439.136870
20
62.823425
11
439.188997
21
63.405942
0
LINE
8
annotation
62
1
39
211
10
439.188997
20
63.405942
11
439.188997
21
63.405942
0
LINE
8
annotation
62
1
39
211
10
439.188997
20
63.405942
11
439.136870
21
63.985736
0
LINE
8
annotation
62
1
39
211
10
439.136870
20
63.985736
11
438.986564
21
64.532017
0
LINE
8
annotation
62
1
39
211
10
438.986564
20
64.532017
11
438.747194
21
65.035519
0
LINE
8
annotation
62
1
39
211
10
438.747194
20
65.035519
11
438.427873
21
65.486977
0
LINE
8
annotation
62
1
39
211
10
438.427873
20
65.486977
11
438.037716
21
65.877128
0
LINE
8
annotation
62
1
39
211
10
438.037716
20
65.877128
11
437.585837
21
66.196706
0
LINE
8
annotation
62
1
39
211
10
437.585837
20
66.196706
11
437.081350
21
66.436446
0
LINE
8
annotation
62
1
39
211
10
437.081350
20
66.436446
11
436.533370
21
66.587085
0
LINE
8
annotation
62
1
39
211
10
436.533370
20
66.587085
11
435.951010
21
66.639356
0
LINE
8
annotation
62
1
39
211
10
435.951010
20
66.639356
11
432.713023
21
66.639356
0
LINE
8
hole
62
5
39
2
10
680.581730
20
40.093522
11
681.153230
21
40.093522
0
LINE
8
hole
62
5
39
2
10
681.153230
20
40.093522
11
681.153230
21
40.665022
0
LINE
8
hole
62
5
39
2
10
681.153230
20
40.665022
11
680.581730
21
40.665022
0
LINE
8
hole
62
5
39
2
10
680.581730
20
40.665022
11
680.581730
21
40.093522
0
LINE
8
hole
62
5
39
2
10
572.581734
20
40.093522
11
573.153234
21
40.093522
0
LINE
8
hole
62
5
39
2
10
573.153234
20
40.093522
11
573.153234
21
40.665022
0
LINE
8
hole
62
5
39
2
10
573.153234
20
40.665022
11
572.581734
21
40.665022
0
LINE
8
hole
62
5
39
2
10
572.581734
20
40.665022
11
572.581734
21
40.093522
0
LINE
8
hole
62
5
39
2
10
626.581732
20
67.062939
11
627.153232
21
67.062939
0
LINE
8
hole
62
5
39
2
10
627.153232
20
67.062939
11
627.153232
21
67.634439
0
LINE
8
hole
62
5
39
2
10
627.153232
20
67.634439
11
626.581732
21
67.634439
0
LINE
8
hole
62
5
39
2
10
626.581732
20
67.634439
11
626.581732
21
67.062939
0
LINE
8
hole
62
5
39
2
10
626.581732
20
13.124104
11
627.153232
21
13.124104
0
LINE
8
hole
62
5
39
2
10
627.153232
20
13.124104
11
627.153232
21
13.695604
0
LINE
8
hole
62
5
39
2
10
627.153232
20
13.695604
11
626.581732
21
13.695604
0
LINE
8
hole
62
5
39
2
10
626.581732
20
13.695604
11
626.581732
21
13.124104
0
LINE
8
hole
62
5
39
2
10
593.279910
20
40.503468
11
591.629426
21
42.350360
0
LINE
8
hole
62
5
39
2
10
591.629426
20
42.350360
11
589.730483
21
44.475279
0
LINE
8
hole
62
5
39
2
10
589.730483
20
44.475279
11
588.297167
21
46.495351
0
LINE
8
hole
62
5
39
2
10
588.297167
20
46.495351
11
586.648083
21
48.819520
0
LINE
8
hole
62
5
39
2
10
586.648083
20
48.819520
11
585.449956
21
50.987372
0
LINE
8
hole
62
5
39
2
10
585.449956
20
50.987372
11
584.071466
21
53.481567
0
LINE
8
hole
62
5
39
2
10
584.071466
20
53.481567
11
583.123591
21
55.769934
0
LINE
8
hole
62
5
39
2
10
583.123591
20
55.769934
11
582.033024
21
58.402787
0
LINE
8
hole
62
5
39
2
10
582.033024
20
58.402787
11
581.798092
21
59.091043
0
LINE
8
hole
62
5
39
2
10
581.798092
20
59.091043
11
631.073956
21
59.091045
0
LINE
8
hole
62
5
39
2
10
631.073956
20
59.091045
11
671.936873
21
59.091048
0
LINE
8
hole
62
5
39
2
10
671.936873
20
59.091048
11
671.701939
21
58.402787
0
LINE
8
hole
62
5
39
2
10
671.701939
20
58.402787
11
670.754064
21
56.114420
0
LINE
8
hole
62
5
39
2
10
670.754064
20
56.114420
11
669.663498
21
53.481567
0
LINE
8
hole
62
5
39
2
10
669.663498
20
53.481567
11
668.465371
21
51.313715
0
LINE
8
hole
62
5
39
2
10
668.465371
20
51.313715
11
667.086881
21
48.819520
0
LINE
8
hole
62
5
39
2
10
667.086881
20
48.819520
11
665.653565
21
46.799448
0
LINE
8
hole
62
5
39
2
10
665.653565
20
46.799448
11
664.004480
21
44.475279
0
LINE
8
hole
62
5
39
2
10
664.004480
20
44.475279
11
662.353998
21
42.628387
0
LINE
8
hole
62
5
39
2
10
662.353998
20
42.628387
11
660.455055
21
40.503468
0
LINE
8
hole
62
5
39
2
10
660.455055
20
40.503468
11
658.608164
21
38.852988
0
LINE
8
hole
62
5
39
2
10
658.608164
20
38.852988
11
656.483246
21
36.954049
0
LINE
8
hole
62
5
39
2
10
656.483246
20
36.954049
11
654.463175
21
35.520732
0
LINE
8
hole
62
5
39
2
10
654.463175
20
35.520732
11
652.139006
21
33.871647
0
LINE
8
hole
62
5
39
2
10
652.139006
20
33.871647
11
649.971154
21
32.673518
0
LINE
8
hole
62
5
39
2
10
649.971154
20
32.673518
11
647.476959
21
31.295025
0
LINE
8
hole
62
5
39
2
10
647.476959
20
31.295025
11
645.188590
21
30.347151
0
LINE
8
hole
62
5
39
2
10
645.188590
20
30.347151
11
642.555737
21
29.256585
0
LINE
8
hole
62
5
39
2
10
642.555737
20
29.256585
11
640.175629
21
28.570889
0
LINE
8
hole
62
5
39
2
10
640.175629
20
28.570889
11
637.437225
21
27.781969
0
LINE
8
hole
62
5
39
2
10
637.437225
20
27.781969
11
634.995310
21
27.367070
0
LINE
8
hole
62
5
39
2
10
634.995310
20
27.367070
11
632.185794
21
26.889714
0
LINE
8
hole
62
5
39
2
10
632.185794
20
26.889714
11
629.712779
21
26.750832
0
LINE
8
hole
62
5
39
2
10
629.712779
20
26.750832
11
626.867482
21
26.591043
0
LINE
8
hole
62
5
39
2
10
626.867482
20
26.591043
11
624.394467
21
26.729925
0
LINE
8
hole
62
5
39
2
10
624.394467
20
26.729925
11
621.549170
21
26.889714
0
LINE
8
hole
62
5
39
2
10
621.549170
20
26.889714
11
619.107254
21
27.304612
0
LINE
8
hole
62
5
39
2
10
619.107254
20
27.304612
11
616.297739
21
27.781969
0
LINE
8
hole
62
5
39
2
10
616.297739
20
27.781969
11
613.917631
21
28.467665
0
LINE
8
hole
62
5
39
2
10
613.917631
20
28.467665
11
611.179227
21
29.256585
0
LINE
8
hole
62
5
39
2
10
611.179227
20
29.256585
11
608.890859
21
30.204460
0
LINE
8
hole
62
5
39
2
10
608.890859
20
30.204460
11
606.258005
21
31.295025
0
LINE
8
hole
62
5
39
2
10
606.258005
20
31.295025
11
604.090153
21
32.493154
0
LINE
8
hole
62
5
39
2
10
604.090153
20
32.493154
11
601.595958
21
33.871647
0
LINE
8
hole
62
5
39
2
10
601.595958
20
33.871647
11
599.575886
21
35.304964
0
LINE
8
hole
62
5
39
2
10
599.575886
20
35.304964
11
597.251718
21
36.954049
0
LINE
8
hole
62
5
39
2
10
597.251718
20
36.954049
11
595.404827
21
38.604529
0
LINE
8
hole
62
5
39
2
10
595.404827
20
38.604529
11
593.279910
21
40.503468
0
LINE
8
boundary
62
5
39
2
10
576.059397
20
29.768105
11
578.015437
21
27.510717
0
LINE
8
boundary
62
5
39
2
10
578.015437
20
27.510717
11
580.502626
21
25.139183
0
LINE
8
boundary
62
5
39
2
10
580.502626
20
25.139183
11
582.664387
21
23.077943
0
LINE
8
boundary
62
5
39
2
10
582.664387
20
23.077943
11
585.365739
21
20.953577
0
LINE
8
boundary
62
5
39
2
10
585.365739
20
20.953577
11
587.713643
21
19.107166
0
LINE
8
boundary
62
5
39
2
10
587.713643
20
19.107166
11
590.604697
21
17.249198
0
LINE
8
boundary
62
5
39
2
10
590.604697
20
17.249198
11
593.117483
21
15.634329
0
LINE
8
boundary
62
5
39
2
10
593.117483
20
15.634329
11
596.172058
21
14.059585
0
LINE
8
boundary
62
5
39
2
10
596.172058
20
14.059585
11
598.826970
21
12.690882
0
LINE
8
boundary
62
5
39
2
10
598.826970
20
12.690882
11
602.017404
21
11.413631
0
LINE
8
boundary
62
5
39
2
10
602.017404
20
11.413631
11
604.790397
21
10.303497
0
LINE
8
boundary
62
5
39
2
10
604.790397
20
10.303497
11
608.087794
21
9.335288
0
LINE
8
boundary
62
5
39
2
10
608.087794
20
9.335288
11
610.953755
21
8.493760
0
LINE
8
boundary
62
5
39
2
10
610.953755
20
8.493760
11
614.328255
21
7.843379
0
LINE
8
boundary
62
5
39
2
10
614.328255
20
7.843379
11
617.261231
21
7.278094
0
LINE
8
boundary
62
5
39
2
10
617.261231
20
7.278094
11
620.682273
21
6.951426
0
LINE
8
boundary
62
5
39
2
10
620.682273
20
6.951426
11
623.655703
21
6.667500
0
LINE
8
boundary
62
5
39
2
10
623.655703
20
6.667500
11
627.092307
21
6.667500
0
LINE
8
boundary
62
5
39
2
10
627.092307
20
6.667500
11
630.079261
21
6.667500
0
LINE
8
boundary
62
5
39
2
10
630.079261
20
6.667500
11
633.500304
21
6.994168
0
LINE
8
boundary
62
5
39
2
10
633.500304
20
6.994168
11
636.473733
21
7.278095
0
LINE
8
boundary
62
5
39
2
10
636.473733
20
7.278095
11
639.848233
21
7.928476
0
LINE
8
boundary
62
5
39
2
10
639.848233
20
7.928476
11
642.781209
21
8.493760
0
LINE
8
boundary
62
5
39
2
10
642.781209
20
8.493760
11
646.078606
21
9.461970
0
LINE
8
boundary
62
5
39
2
10
646.078606
20
9.461970
11
648.944567
21
10.303497
0
LINE
8
boundary
62
5
39
2
10
648.944567
20
10.303497
11
652.135001
21
11.580748
0
LINE
8
boundary
62
5
39
2
10
652.135001
20
11.580748
11
654.907994
21
12.690882
0
LINE
8
boundary
62
5
39
2
10
654.907994
20
12.690882
11
657.962570
21
14.265626
0
LINE
8
boundary
62
5
39
2
10
657.962570
20
14.265626
11
660.617481
21
15.634329
0
LINE
8
boundary
62
5
39
2
10
660.617481
20
15.634329
11
663.508535
21
17.492297
0
LINE
8
boundary
62
5
39
2
10
663.508535
20
17.492297
11
666.021321
21
19.107166
0
LINE
8
boundary
62
5
39
2
10
666.021321
20
19.107166
11
668.722673
21
21.231532
0
LINE
8
boundary
62
5
39
2
10
668.722673
20
21.231532
11
671.070577
21
23.077943
0
LINE
8
boundary
62
5
39
2
10
671.070577
20
23.077943
11
673.557765
21
25.449477
0
LINE
8
boundary
62
5
39
2
10
673.557765
20
25.449477
11
675.719527
21
27.510717
0
LINE
8
boundary
62
5
39
2
10
675.719527
20
27.510717
11
677.970025
21
30.107927
0
LINE
8
boundary
62
5
39
2
10
677.970025
20
30.107927
11
679.926065
21
32.365315
0
LINE
8
boundary
62
5
39
2
10
679.926065
20
32.365315
11
681.919489
21
35.164688
0
LINE
8
boundary
62
5
39
2
10
681.919489
20
35.164688
11
683.652091
21
37.597787
0
LINE
8
boundary
62
5
39
2
10
683.652091
20
37.597787
11
685.370395
21
40.573975
0
LINE
8
boundary
62
5
39
2
10
685.370395
20
40.573975
11
686.863874
21
43.160754
0
LINE
8
boundary
62
5
39
2
10
686.863874
20
43.160754
11
688.291491
21
46.286799
0
LINE
8
boundary
62
5
39
2
10
688.291491
20
46.286799
11
689.532316
21
49.003828
0
LINE
8
boundary
62
5
39
2
10
689.532316
20
49.003828
11
690.656318
21
52.251421
0
LINE
8
boundary
62
5
39
2
10
690.656318
20
52.251421
11
691.633254
21
55.074095
0
LINE
8
boundary
62
5
39
2
10
691.633254
20
55.074095
11
692.443464
21
58.413826
0
LINE
8
boundary
62
5
39
2
10
692.443464
20
58.413826
11
693.147666
21
61.316584
0
LINE
8
boundary
62
5
39
2
10
693.147666
20
61.316584
11
693.636744
21
64.718208
0
LINE
8
boundary
62
5
39
2
10
693.636744
20
64.718208
11
694.061830
21
67.674759
0
LINE
8
boundary
62
5
39
2
10
694.061830
20
67.674759
11
694.225353
21
71.107471
0
LINE
8
boundary
62
5
39
2
10
694.225353
20
71.107471
11
694.367480
21
74.091043
0
LINE
8
boundary
62
5
39
2
10
694.367480
20
74.091043
11
682.138909
21
74.091043
0
LINE
8
boundary
62
5
39
2
10
682.138909
20
74.091043
11
674.367481
21
74.091043
0
LINE
8
boundary
62
5
39
2
10
674.367481
20
74.091043
11
631.300813
21
74.091043
0
LINE
8
boundary
62
5
39
2
10
631.300813
20
74.091043
11
579.367483
21
74.091043
0
LINE
8
boundary
62
5
39
2
10
579.367483
20
74.091043
11
571.596055
21
74.091043
0
LINE
8
boundary
62
5
39
2
10
571.596055
20
74.091043
11
559.367484
21
74.091043
0
LINE
8
boundary
62
5
39
2
10
559.367484
20
74.091043
11
559.531007
21
70.658331
0
LINE
8
boundary
62
5
39
2
10
559.531007
20
70.658331
11
559.673134
21
67.674759
0
LINE
8
boundary
62
5
39
2
10
559.673134
20
67.674759
11
560.162212
21
64.273135
0
LINE
8
boundary
62
5
39
2
10
560.162212
20
64.273135
11
560.587298
21
61.316584
0
LINE
8
boundary
62
5
39
2
10
560.587298
20
61.316584
11
561.397508
21
57.976852
0
LINE
8
boundary
62
5
39
2
10
561.397508
20
57.976852
11
562.101710
21
55.074095
0
LINE
8
boundary
62
5
39
2
10
562.101710
20
55.074095
11
563.225712
21
51.826502
0
LINE
8
boundary
62
5
39
2
10
563.225712
20
51.826502
11
564.202648
21
49.003829
0
LINE
8
boundary
62
5
39
2
10
564.202648
20
49.003829
11
565.630264
21
45.877784
0
LINE
8
boundary
62
5
39
2
10
565.630264
20
45.877784
11
566.871090
21
43.160754
0
LINE
8
boundary
62
5
39
2
10
566.871090
20
43.160754
11
568.589394
21
40.184567
0
LINE
8
boundary
62
5
39
2
10
568.589394
20
40.184567
11
570.082873
21
37.597787
0
LINE
8
boundary
62
5
39
2
10
570.082873
20
37.597787
11
572.076297
21
34.798415
0
LINE
8
boundary
62
5
39
2
10
572.076297
20
34.798415
11
573.808899
21
32.365315
0
LINE
8
boundary
62
5
39
2
10
573.808899
20
32.365315
11
576.059397
21
29.768105
0
LINE
8
annotation
62
1
39
211
10
680.867480
20
40.379272
11
680.867480
21
41.808022
0
LINE
8
annotation
62
1
39
211
10
680.867480
20
40.379272
11
680.867480
21
41.808022
0
LINE
8
annotation
62
1
39
211
10
680.867480
20
41.808022
11
680.867480
21
40.379272
0
LINE
8
annotation
62
1
39
211
10
680.867480
20
40.379272
11
680.867480
21
38.950522
0
LINE
8
annotation
62
1
39
211
10
572.867484
20
40.379272
11
574.296234
21
40.379272
0
LINE
8
annotation
62
1
39
211
10
572.867484
20
40.379272
11
574.296234
21
40.379272
0
LINE
8
annotation
62
1
39
211
10
574.296234
20
40.379272
11
572.867484
21
40.379272
0
LINE
8
annotation
62
1
39
211
10
572.867484
20
40.379272
11
572.867484
21
38.950522
0
LINE
8
annotation
62
1
39
211
10
626.867482
20
67.348689
11
626.867482
21
68.777439
0
LINE
8
annotation
62
1
39
211
10
626.867482
20
13.409854
11
628.296232
21
13.409854
0
LINE
8
annotation
62
1
39
211
10
683.653470
20
55.316461
11
675.557130
21
55.316461
0
LINE
8
annotation
62
1
39
211
10
675.557130
20
55.316461
11
678.790545
21
66.656273
0
LINE
8
annotation
62
1
39
211
10
681.226580
20
52.074816
11
681.226580
21
58.550790
0
LINE
8
hole
62
5
39
2
10
73.881748
20
137.661482
11
74.453248
21
137.661482
0
LINE
8
hole
62
5
39
2
10
74.453248
20
137.661482
11
74.453248
21
138.232982
0
LINE
8
hole
62
5
39
2
10
74.453248
20
138.232982
11
73.881748
21
138.232982
0
LINE
8
hole
62
5
39
2
10
73.881748
20
138.232982
11
73.881748
21
137.661482
0
LINE
8
hole
62
5
39
2
10
73.881748
20
83.722648
11
74.453248
21
83.722648
0
LINE
8
hole
62
5
39
2
10
74.453248
20
83.722648
11
74.453248
21
84.294148
0
LINE
8
hole
62
5
39
2
10
74.453248
20
84.294148
11
73.881748
21
84.294148
0
LINE
8
hole
62
5
39
2
10
73.881748
20
84.294148
11
73.881748
21
83.722648
0
LINE
8
hole
62
5
39
2
10
127.881746
20
110.692065
11
128.453246
21
110.692065
0
LINE
8
hole
62
5
39
2
10
128.453246
20
110.692065
11
128.453246
21
111.263565
0
LINE
8
hole
62
5
39
2
10
128.453246
20
111.263565
11
127.881746
21
111.263565
0
LINE
8
hole
62
5
39
2
10
127.881746
20
111.263565
11
127.881746
21
110.692065
0
LINE
8
hole
62
5
39
2
10
19.881750
20
110.692065
11
20.453250
21
110.692065
0
LINE
8
hole
62
5
39
2
10
20.453250
20
110.692065
11
20.453250
21
111.263565
0
LINE
8
hole
62
5
39
2
10
20.453250
20
111.263565
11
19.881750
21
111.263565
0
LINE
8
hole
62
5
39
2
10
19.881750
20
111.263565
11
19.881750
21
110.692065
0
LINE
8
hole
62
5
39
2
10
40.579926
20
111.102012
11
38.432523
21
113.504957
0
LINE
8
hole
62
5
39
2
10
38.432523
20
113.504957
11
37.030499
21
115.073823
0
LINE
8
hole
62
5
39
2
10
37.030499
20
115.073823
11
35.165647
21
117.702088
0
LINE
8
hole
62
5
39
2
10
35.165647
20
117.702088
11
33.948099
21
119.418064
0
LINE
8
hole
62
5
39
2
10
33.948099
20
119.418064
11
32.389246
21
122.238602
0
LINE
8
hole
62
5
39
2
10
32.389246
20
122.238602
11
31.371482
21
124.080110
0
LINE
8
hole
62
5
39
2
10
31.371482
20
124.080110
11
30.138225
21
127.057448
0
LINE
8
hole
62
5
39
2
10
30.138225
20
127.057448
11
29.333040
21
129.001331
0
LINE
8
hole
62
5
39
2
10
29.333040
20
129.001331
11
29.098108
21
129.689586
0
LINE
8
hole
62
5
39
2
10
29.098108
20
129.689586
11
61.548066
21
129.689588
0
LINE
8
hole
62
5
39
2
10
61.548066
20
129.689588
11
119.236888
21
129.689591
0
LINE
8
hole
62
5
39
2
10
119.236888
20
129.689591
11
119.001955
21
129.001330
0
LINE
8
hole
62
5
39
2
10
119.001955
20
129.001330
11
117.768698
21
126.023992
0
LINE
8
hole
62
5
39
2
10
117.768698
20
126.023992
11
116.963514
21
124.080110
0
LINE
8
hole
62
5
39
2
10
116.963514
20
124.080110
11
115.404661
21
121.259572
0
LINE
8
hole
62
5
39
2
10
115.404661
20
121.259572
11
114.386897
21
119.418064
0
LINE
8
hole
62
5
39
2
10
114.386897
20
119.418064
11
112.522045
21
116.789798
0
LINE
8
hole
62
5
39
2
10
112.522045
20
116.789798
11
111.304496
21
115.073823
0
LINE
8
hole
62
5
39
2
10
111.304496
20
115.073823
11
109.157094
21
112.670877
0
LINE
8
hole
62
5
39
2
10
109.157094
20
112.670877
11
107.755071
21
111.102012
0
LINE
8
hole
62
5
39
2
10
107.755071
20
111.102012
11
105.352127
21
108.954613
0
LINE
8
hole
62
5
39
2
10
105.352127
20
108.954613
11
103.783262
21
107.552592
0
LINE
8
hole
62
5
39
2
10
103.783262
20
107.552592
11
101.154997
21
105.687739
0
LINE
8
hole
62
5
39
2
10
101.154997
20
105.687739
11
99.439022
21
104.470191
0
LINE
8
hole
62
5
39
2
10
99.439022
20
104.470191
11
96.618483
21
102.911334
0
LINE
8
hole
62
5
39
2
10
96.618483
20
102.911334
11
94.776975
21
101.893568
0
LINE
8
hole
62
5
39
2
10
94.776975
20
101.893568
11
91.799635
21
100.660312
0
LINE
8
hole
62
5
39
2
10
91.799635
20
100.660312
11
89.855753
21
99.855128
0
LINE
8
hole
62
5
39
2
10
89.855753
20
99.855128
11
86.759053
21
98.962986
0
LINE
8
hole
62
5
39
2
10
86.759053
20
98.962986
11
84.737241
21
98.380512
0
LINE
8
hole
62
5
39
2
10
84.737241
20
98.380512
11
81.560125
21
97.840698
0
LINE
8
hole
62
5
39
2
10
81.560125
20
97.840698
11
79.485810
21
97.488257
0
LINE
8
hole
62
5
39
2
10
79.485810
20
97.488257
11
76.268231
21
97.307562
0
LINE
8
hole
62
5
39
2
10
76.268231
20
97.307562
11
74.167498
21
97.189587
0
LINE
8
hole
62
5
39
2
10
74.167498
20
97.189587
11
70.949919
21
97.370282
0
LINE
8
hole
62
5
39
2
10
70.949919
20
97.370282
11
68.849186
21
97.488257
0
LINE
8
hole
62
5
39
2
10
68.849186
20
97.488257
11
65.672070
21
98.028072
0
LINE
8
hole
62
5
39
2
10
65.672070
20
98.028072
11
63.597755
21
98.380512
0
LINE
8
hole
62
5
39
2
10
63.597755
20
98.380512
11
60.501055
21
99.272655
0
LINE
8
hole
62
5
39
2
10
60.501055
20
99.272655
11
58.479243
21
99.855128
0
LINE
8
hole
62
5
39
2
10
58.479243
20
99.855128
11
55.501904
21
101.088385
0
LINE
8
hole
62
5
39
2
10
55.501904
20
101.088385
11
53.558021
21
101.893568
0
LINE
8
hole
62
5
39
2
10
53.558021
20
101.893568
11
50.737483
21
103.452425
0
LINE
8
hole
62
5
39
2
10
50.737483
20
103.452425
11
48.895974
21
104.470191
0
LINE
8
hole
62
5
39
2
10
48.895974
20
104.470191
11
46.267708
21
106.335044
0
LINE
8
hole
62
5
39
2
10
46.267708
20
106.335044
11
44.551734
21
107.552592
0
LINE
8
hole
62
5
39
2
10
44.551734
20
107.552592
11
42.148790
21
109.699991
0
LINE
8
hole
62
5
39
2
10
42.148790
20
109.699991
11
40.579926
21
111.102012
0
LINE
8
boundary
62
5
39
2
10
22.770497
20
101.046292
11
25.315453
21
98.109260
0
LINE
8
boundary
62
5
39
2
10
25.315453
20
98.109260
11
27.151789
21
96.358315
0
LINE
8
boundary
62
5
39
2
10
27.151789
20
96.358315
11
29.964403
21
93.676487
0
LINE
8
boundary
62
5
39
2
10
29.964403
20
93.676487
11
31.958859
21
92.108030
0
LINE
8
boundary
62
5
39
2
10
31.958859
20
92.108030
11
35.013659
21
89.705709
0
LINE
8
boundary
62
5
39
2
10
35.013659
20
89.705709
11
37.148176
21
88.333939
0
LINE
8
boundary
62
5
39
2
10
37.148176
20
88.333939
11
40.417499
21
86.232873
0
LINE
8
boundary
62
5
39
2
10
40.417499
20
86.232873
11
42.672746
21
85.070211
0
LINE
8
boundary
62
5
39
2
10
42.672746
20
85.070211
11
46.126986
21
83.289425
0
LINE
8
boundary
62
5
39
2
10
46.126986
20
83.289425
11
48.482540
21
82.346409
0
LINE
8
boundary
62
5
39
2
10
48.482540
20
82.346409
11
52.090413
21
80.902041
0
LINE
8
boundary
62
5
39
2
10
52.090413
20
80.902041
11
54.524940
21
80.187195
0
LINE
8
boundary
62
5
39
2
10
54.524940
20
80.187195
11
58.253771
21
79.092304
0
LINE
8
boundary
62
5
39
2
10
58.253771
20
79.092304
11
60.745224
21
78.612116
0
LINE
8
boundary
62
5
39
2
10
60.745224
20
78.612116
11
64.561247
21
77.876638
0
LINE
8
boundary
62
5
39
2
10
64.561247
20
77.876638
11
67.087063
21
77.635453
0
LINE
8
boundary
62
5
39
2
10
67.087063
20
77.635453
11
70.955719
21
77.266043
0
LINE
8
boundary
62
5
39
2
10
70.955719
20
77.266043
11
73.493024
21
77.266044
0
LINE
8
boundary
62
5
39
2
10
73.493024
20
77.266044
11
77.379277
21
77.266044
0
LINE
8
boundary
62
5
39
2
10
77.379277
20
77.266044
11
79.905094
21
77.507228
0
LINE
8
boundary
62
5
39
2
10
79.905094
20
77.507228
11
83.773749
21
77.876638
0
LINE
8
boundary
62
5
39
2
10
83.773749
20
77.876638
11
86.265202
21
78.356826
0
LINE
8
boundary
62
5
39
2
10
86.265202
20
78.356826
11
90.081225
21
79.092304
0
LINE
8
boundary
62
5
39
2
10
90.081225
20
79.092304
11
92.515751
21
79.807150
0
LINE
8
boundary
62
5
39
2
10
92.515751
20
79.807150
11
96.244583
21
80.902041
0
LINE
8
boundary
62
5
39
2
10
96.244583
20
80.902041
11
98.600137
21
81.845058
0
LINE
8
boundary
62
5
39
2
10
98.600137
20
81.845058
11
102.208010
21
83.289425
0
LINE
8
boundary
62
5
39
2
10
102.208010
20
83.289425
11
104.463257
21
84.452087
0
LINE
8
boundary
62
5
39
2
10
104.463257
20
84.452087
11
107.917497
21
86.232873
0
LINE
8
boundary
62
5
39
2
10
107.917497
20
86.232873
11
110.052014
21
87.604643
0
LINE
8
boundary
62
5
39
2
10
110.052014
20
87.604643
11
113.321337
21
89.705709
0
LINE
8
boundary
62
5
39
2
10
113.321337
20
89.705709
11
115.315793
21
91.274166
0
LINE
8
boundary
62
5
39
2
10
115.315793
20
91.274166
11
118.370593
21
93.676487
0
LINE
8
boundary
62
5
39
2
10
118.370593
20
93.676487
11
120.206928
21
95.427432
0
LINE
8
boundary
62
5
39
2
10
120.206928
20
95.427432
11
123.019543
21
98.109260
0
LINE
8
boundary
62
5
39
2
10
123.019543
20
98.109260
11
124.681125
21
100.026827
0
LINE
8
boundary
62
5
39
2
10
124.681125
20
100.026827
11
127.226081
21
102.963859
0
LINE
8
boundary
62
5
39
2
10
127.226081
20
102.963859
11
128.697861
21
105.030685
0
LINE
8
boundary
62
5
39
2
10
128.697861
20
105.030685
11
130.952107
21
108.196331
0
LINE
8
boundary
62
5
39
2
10
130.952107
20
108.196331
11
132.220761
21
110.393703
0
LINE
8
boundary
62
5
39
2
10
132.220761
20
110.393703
11
134.163890
21
113.759298
0
LINE
8
boundary
62
5
39
2
10
134.163890
20
113.759298
11
135.217925
21
116.067312
0
LINE
8
boundary
62
5
39
2
10
135.217925
20
116.067312
11
136.832332
21
119.602372
0
LINE
8
boundary
62
5
39
2
10
136.832332
20
119.602372
11
137.662203
21
122.000127
0
LINE
8
boundary
62
5
39
2
10
137.662203
20
122.000127
11
138.933270
21
125.672638
0
LINE
8
boundary
62
5
39
2
10
138.933270
20
125.672638
11
139.531463
21
128.138421
0
LINE
8
boundary
62
5
39
2
10
139.531463
20
128.138421
11
140.447682
21
131.915127
0
LINE
8
boundary
62
5
39
2
10
140.447682
20
131.915127
11
140.808777
21
134.426607
0
LINE
8
boundary
62
5
39
2
10
140.808777
20
134.426607
11
141.361846
21
138.273303
0
LINE
8
boundary
62
5
39
2
10
141.361846
20
138.273303
11
141.482578
21
140.807735
0
LINE
8
boundary
62
5
39
2
10
141.482578
20
140.807735
11
141.667496
21
144.689587
0
LINE
8
boundary
62
5
39
2
10
141.667496
20
144.689587
11
132.638925
21
144.689587
0
LINE
8
boundary
62
5
39
2
10
132.638925
20
144.689587
11
121.667497
21
144.689587
0
LINE
8
boundary
62
5
39
2
10
121.667497
20
144.689587
11
60.867496
21
144.689587
0
LINE
8
boundary
62
5
39
2
10
60.867496
20
144.689587
11
26.667499
21
144.689587
0
LINE
8
boundary
62
5
39
2
10
26.667499
20
144.689587
11
15.696071
21
144.689587
0
LINE
8
boundary
62
5
39
2
10
15.696071
20
144.689587
11
6.667500
21
144.689587
0
LINE
8
boundary
62
5
39
2
10
6.667500
20
144.689587
11
6.788232
21
142.155155
0
LINE
8
boundary
62
5
39
2
10
6.788232
20
142.155155
11
6.973150
21
138.273303
0
LINE
8
boundary
62
5
39
2
10
6.973150
20
138.273303
11
7.334245
21
135.761823
0
LINE
8
boundary
62
5
39
2
10
7.334245
20
135.761823
11
7.887314
21
131.915127
0
LINE
8
boundary
62
5
39
2
10
7.887314
20
131.915127
11
8.485507
21
129.449344
0
LINE
8
boundary
62
5
39
2
10
8.485507
20
129.449344
11
9.401726
21
125.672638
0
LINE
8
boundary
62
5
39
2
10
9.401726
20
125.672638
11
10.231597
21
123.274883
0
LINE
8
boundary
62
5
39
2
10
10.231597
20
123.274883
11
11.502664
21
119.602372
0
LINE
8
boundary
62
5
39
2
10
11.502664
20
119.602372
11
12.556698
21
117.294358
0
LINE
8
boundary
62
5
39
2
10
12.556698
20
117.294358
11
14.171106
21
113.759298
0
LINE
8
boundary
62
5
39
2
10
14.171106
20
113.759298
11
15.439760
21
111.561926
0
LINE
8
boundary
62
5
39
2
10
15.439760
20
111.561926
11
17.382889
21
108.196331
0
LINE
8
boundary
62
5
39
2
10
17.382889
20
108.196331
11
18.854669
21
106.129504
0
LINE
8
boundary
62
5
39
2
10
18.854669
20
106.129504
11
21.108915
21
102.963859
0
LINE
8
boundary
62
5
39
2
10
21.108915
20
102.963859
11
22.770497
21
101.046292
0
LINE
8
annotation
62
1
39
211
10
74.167498
20
137.947232
11
74.167498
21
139.375982
0
LINE
8
annotation
62
1
39
211
10
74.167498
20
84.008398
11
75.596248
21
84.008398
0
LINE
8
annotation
62
1
39
211
10
128.167496
20
110.977815
11
128.167496
21
112.406565
0
LINE
8
annotation
62
1
39
211
10
128.167496
20
110.977815
11
128.167496
21
112.406565
0
LINE
8
annotation
62
1
39
211
10
128.167496
20
112.406565
11
128.167496
21
110.977815
0
LINE
8
annotation
62
1
39
211
10
128.167496
20
110.977815
11
129.596246
21
110.977815
0
LINE
8
annotation
62
1
39
211
10
20.167500
20
110.977815
11
20.167499
21
109.549065
0
LINE
8
annotation
62
1
39
211
10
123.667329
20
122.673359
11
126.905316
21
122.673359
0
LINE
8
annotation
62
1
39
211
10
126.905316
20
122.673359
11
126.905316
21
122.673359
0
LINE
8
annotation
62
1
39
211
10
126.905316
20
122.673359
11
127.486472
21
122.725612
0
LINE
8
annotation
62
1
39
211
10
127.486472
20
122.725612
11
128.033812
21
122.876254
0
LINE
8
annotation
62
1
39
211
10
128.033812
20
122.876254
11
128.538111
21
123.116111
0
LINE
8
annotation
62
1
39
211
10
128.538111
20
123.116111
11
128.990140
21
123.436009
0
LINE
8
annotation
62
1
39
211
10
128.990140
20
123.436009
11
129.380673
21
123.826773
0
LINE
8
annotation
62
1
39
211
10
129.380673
20
123.826773
11
129.700483
21
124.279229
0
LINE
8
annotation
62
1
39
211
10
129.700483
20
124.279229
11
129.940343
21
124.784202
0
LINE
8
annotation
62
1
39
211
10
129.940343
20
124.784202
11
130.091025
21
125.332519
0
LINE
8
annotation
62
1
39
211
10
130.091025
20
125.332519
11
130.143303
21
125.915004
0
LINE
8
annotation
62
1
39
211
10
130.143303
20
125.915004
11
130.143303
21
127.528054
0
LINE
8
annotation
62
1
39
211
10
130.143303
20
127.528054
11
130.143303
21
127.528054
0
LINE
8
annotation
62
1
39
211
10
130.143303
20
127.528054
11
130.091055
21
128.110257
0
LINE
8
annotation
62
1
39
211
10
130.091055
20
128.110257
11
129.940448
21
128.657817
0
LINE
8
annotation
62
1
39
211
10
129.940448
20
128.657817
11
129.700686
21
129.161695
0
LINE
8
annotation
62
1
39
211
10
129.700686
20
129.161695
11
129.380974
21
129.612853
0
LINE
8
annotation
62
1
39
211
10
129.380974
20
129.612853
11
128.990516
21
130.002251
0
LINE
8
annotation
62
1
39
211
10
128.990516
20
130.002251
11
128.538517
21
130.320850
0
LINE
8
annotation
62
1
39
211
10
128.538517
20
130.320850
11
128.034181
21
130.559612
0
LINE
8
annotation
62
1
39
211
10
128.034181
20
130.559612
11
127.486712
21
130.709498
0
LINE
8
annotation
62
1
39
211
10
127.486712
20
130.709498
11
126.905316
21
130.761469
0
LINE
8
annotation
62
1
39
211
10
126.905316
20
130.761469
11
123.667329
21
130.761469
0
LINE
8
annotation
62
1
39
211
10
123.667329
20
130.761469
11
123.667329
21
137.254817
0
LINE
8
annotation
62
1
39
211
10
123.667329
20
137.254817
11
130.143303
21
137.254817
0
LINE
8
hole
62
5
39
2
10
212.394408
20
95.365100
11
212.965908
21
95.365100
0
LINE
8
hole
62
5
39
2
10
212.965908
20
95.365100
11
212.965908
21
95.936600
0
LINE
8
hole
62
5
39
2
10
212.965908
20
95.936600
11
212.394408
21
95.936600
0
LINE
8
hole
62
5
39
2
10
212.394408
20
95.936600
11
212.394408
21
95.365100
0
LINE
8
hole
62
5
39
2
10
266.056742
20
110.692065
11
266.628242
21
110.692065
0
LINE
8
hole
62
5
39
2
10
266.628242
20
110.692065
11
266.628242
21
111.263565
0
LINE
8
hole
62
5
39
2
10
266.628242
20
111.263565
11
266.056742
21
111.263565
0
LINE
8
hole
62
5
39
2
10
266.056742
20
111.263565
11
266.056742
21
110.692065
0
LINE
8
hole
62
5
39
2
10
158.056746
20
110.692065
11
158.628246
21
110.692065
0
LINE
8
hole
62
5
39
2
10
158.628246
20
110.692065
11
158.628246
21
111.263565
0
LINE
8
hole
62
5
39
2
10
158.628246
20
111.263565
11
158.056746
21
111.263565
0
LINE
8
hole
62
5
39
2
10
158.056746
20
111.263565
11
158.056746
21
110.692065
0
LINE
8
hole
62
5
39
2
10
212.056744
20
83.722648
11
212.628244
21
83.722648
0
LINE
8
hole
62
5
39
2
10
212.628244
20
83.722648
11
212.628244
21
84.294148
0
LINE
8
hole
62
5
39
2
10
212.628244
20
84.294148
11
212.056744
21
84.294148
0
LINE
8
hole
62
5
39
2
10
212.056744
20
84.294148
11
212.056744
21
83.722648
0
LINE
8
hole
62
5
39
2
10
178.754922
20
111.102012
11
176.110599
21
114.061011
0
LINE
8
hole
62
5
39
2
10
176.110599
20
114.061011
11
175.205495
21
115.073823
0
LINE
8
hole
62
5
39
2
10
175.205495
20
115.073823
11
172.909107
21
118.310282
0
LINE
8
hole
62
5
39
2
10
172.909107
20
118.310282
11
172.123095
21
119.418064
0
LINE
8
hole
62
5
39
2
10
172.123095
20
119.418064
11
170.203515
21
122.891288
0
LINE
8
hole
62
5
39
2
10
170.203515
20
122.891288
11
169.546478
21
124.080110
0
LINE
8
hole
62
5
39
2
10
169.546478
20
124.080110
11
168.027839
21
127.746419
0
LINE
8
hole
62
5
39
2
10
168.027839
20
127.746419
11
167.508036
21
129.001331
0
LINE
8
hole
62
5
39
2
10
167.508036
20
129.001331
11
167.273104
21
129.689586
0
LINE
8
hole
62
5
39
2
10
167.273104
20
129.689586
11
182.897156
21
129.689587
0
LINE
8
hole
62
5
39
2
10
182.897156
20
129.689587
11
257.411884
21
129.689591
0
LINE
8
hole
62
5
39
2
10
257.411884
20
129.689591
11
257.176951
21
129.001330
0
LINE
8
hole
62
5
39
2
10
257.176951
20
129.001330
11
255.658313
21
125.335021
0
LINE
8
hole
62
5
39
2
10
255.658313
20
125.335021
11
255.138510
21
124.080110
0
LINE
8
hole
62
5
39
2
10
255.138510
20
124.080110
11
253.218930
21
120.606885
0
LINE
8
hole
62
5
39
2
10
253.218930
20
120.606885
11
252.561893
21
119.418064
0
LINE
8
hole
62
5
39
2
10
252.561893
20
119.418064
11
250.265504
21
116.181604
0
LINE
8
hole
62
5
39
2
10
250.265504
20
116.181604
11
249.479492
21
115.073823
0
LINE
8
hole
62
5
39
2
10
249.479492
20
115.073823
11
246.835170
21
112.114824
0
LINE
8
hole
62
5
39
2
10
246.835170
20
112.114824
11
245.930067
21
111.102012
0
LINE
8
hole
62
5
39
2
10
245.930067
20
111.102012
11
242.971070
21
108.457694
0
LINE
8
hole
62
5
39
2
10
242.971070
20
108.457694
11
241.958258
21
107.552592
0
LINE
8
hole
62
5
39
2
10
241.958258
20
107.552592
11
238.721799
21
105.256203
0
LINE
8
hole
62
5
39
2
10
238.721799
20
105.256203
11
237.614018
21
104.470191
0
LINE
8
hole
62
5
39
2
10
237.614018
20
104.470191
11
234.140793
21
102.550607
0
LINE
8
hole
62
5
39
2
10
234.140793
20
102.550607
11
232.951971
21
101.893568
0
LINE
8
hole
62
5
39
2
10
232.951971
20
101.893568
11
229.285660
21
100.374931
0
LINE
8
hole
62
5
39
2
10
229.285660
20
100.374931
11
228.030749
21
99.855128
0
LINE
8
hole
62
5
39
2
10
228.030749
20
99.855128
11
224.217457
21
98.756539
0
LINE
8
hole
62
5
39
2
10
224.217457
20
98.756539
11
222.912237
21
98.380512
0
LINE
8
hole
62
5
39
2
10
222.912237
20
98.380512
11
218.999921
21
97.715782
0
LINE
8
hole
62
5
39
2
10
218.999921
20
97.715782
11
217.660806
21
97.488257
0
LINE
8
hole
62
5
39
2
10
217.660806
20
97.488257
11
213.698663
21
97.265748
0
LINE
8
hole
62
5
39
2
10
213.698663
20
97.265748
11
212.342494
21
97.189587
0
LINE
8
hole
62
5
39
2
10
212.342494
20
97.189587
11
208.380351
21
97.412096
0
LINE
8
hole
62
5
39
2
10
208.380351
20
97.412096
11
207.024182
21
97.488257
0
LINE
8
hole
62
5
39
2
10
207.024182
20
97.488257
11
203.111866
21
98.152987
0
LINE
8
hole
62
5
39
2
10
203.111866
20
98.152987
11
201.772751
21
98.380512
0
LINE
8
hole
62
5
39
2
10
201.772751
20
98.380512
11
197.959460
21
99.479101
0
LINE
8
hole
62
5
39
2
10
197.959460
20
99.479101
11
196.654239
21
99.855128
0
LINE
8
hole
62
5
39
2
10
196.654239
20
99.855128
11
192.987929
21
101.373766
0
LINE
8
hole
62
5
39
2
10
192.987929
20
101.373766
11
191.733017
21
101.893568
0
LINE
8
hole
62
5
39
2
10
191.733017
20
101.893568
11
188.259792
21
103.813152
0
LINE
8
hole
62
5
39
2
10
188.259792
20
103.813152
11
187.070970
21
104.470191
0
LINE
8
hole
62
5
39
2
10
187.070970
20
104.470191
11
183.834511
21
106.766580
0
LINE
8
hole
62
5
39
2
10
183.834511
20
106.766580
11
182.726730
21
107.552592
0
LINE
8
hole
62
5
39
2
10
182.726730
20
107.552592
11
179.767732
21
110.196910
0
LINE
8
hole
62
5
39
2
10
179.767732
20
110.196910
11
178.754922
21
111.102012
0
LINE
8
boundary
62
5
39
2
10
160.356578
20
101.725936
11
163.490449
21
98.109260
0
LINE
8
boundary
62
5
39
2
10
163.490449
20
98.109260
11
164.675932
21
96.978903
0
LINE
8
boundary
62
5
39
2
10
164.675932
20
96.978903
11
168.139399
21
93.676487
0
LINE
8
boundary
62
5
39
2
10
168.139399
20
93.676487
11
169.426960
21
92.663938
0
LINE
8
boundary
62
5
39
2
10
169.426960
20
92.663938
11
173.188655
21
89.705709
0
LINE
8
boundary
62
5
39
2
10
173.188655
20
89.705709
11
174.566634
21
88.820136
0
LINE
8
boundary
62
5
39
2
10
174.566634
20
88.820136
11
178.592495
21
86.232873
0
LINE
8
boundary
62
5
39
2
10
178.592495
20
86.232873
11
180.048414
21
85.482294
0
LINE
8
boundary
62
5
39
2
10
180.048414
20
85.482294
11
184.301982
21
83.289425
0
LINE
8
boundary
62
5
39
2
10
184.301982
20
83.289425
11
185.822656
21
82.680642
0
LINE
8
boundary
62
5
39
2
10
185.822656
20
82.680642
11
190.265409
21
80.902041
0
LINE
8
boundary
62
5
39
2
10
190.265409
20
80.902041
11
191.837065
21
80.440558
0
LINE
8
boundary
62
5
39
2
10
191.837065
20
80.440558
11
196.428767
21
79.092304
0
LINE
8
boundary
62
5
39
2
10
196.428767
20
79.092304
11
198.037173
21
78.782309
0
LINE
8
boundary
62
5
39
2
10
198.037173
20
78.782309
11
202.736243
21
77.876638
0
LINE
8
boundary
62
5
39
2
10
202.736243
20
77.876638
11
204.366833
21
77.720936
0
LINE
8
boundary
62
5
39
2
10
204.366833
20
77.720936
11
209.130715
21
77.266043
0
LINE
8
boundary
62
5
39
2
10
209.130715
20
77.266043
11
210.768722
21
77.266044
0
LINE
8
boundary
62
5
39
2
10
210.768722
20
77.266044
11
215.554273
21
77.266044
0
LINE
8
boundary
62
5
39
2
10
215.554273
20
77.266044
11
217.184864
21
77.421745
0
LINE
8
boundary
62
5
39
2
10
217.184864
20
77.421745
11
221.948745
21
77.876638
0
LINE
8
boundary
62
5
39
2
10
221.948745
20
77.876638
11
223.557151
21
78.186633
0
LINE
8
boundary
62
5
39
2
10
223.557151
20
78.186633
11
228.256221
21
79.092304
0
LINE
8
boundary
62
5
39
2
10
228.256221
20
79.092304
11
229.827877
21
79.553787
0
LINE
8
boundary
62
5
39
2
10
229.827877
20
79.553787
11
234.419579
21
80.902041
0
LINE
8
boundary
62
5
39
2
10
234.419579
20
80.902041
11
235.940253
21
81.510824
0
LINE
8
boundary
62
5
39
2
10
235.940253
20
81.510824
11
240.383006
21
83.289425
0
LINE
8
boundary
62
5
39
2
10
240.383006
20
83.289425
11
241.838925
21
84.040004
0
LINE
8
boundary
62
5
39
2
10
241.838925
20
84.040004
11
246.092493
21
86.232873
0
LINE
8
boundary
62
5
39
2
10
246.092493
20
86.232873
11
247.470472
21
87.118446
0
LINE
8
boundary
62
5
39
2
10
247.470472
20
87.118446
11
251.496333
21
89.705709
0
LINE
8
boundary
62
5
39
2
10
251.496333
20
89.705709
11
252.783893
21
90.718257
0
LINE
8
boundary
62
5
39
2
10
252.783893
20
90.718257
11
256.545589
21
93.676487
0
LINE
8
boundary
62
5
39
2
10
256.545589
20
93.676487
11
257.731071
21
94.806844
0
LINE
8
boundary
62
5
39
2
10
257.731071
20
94.806844
11
261.194539
21
98.109260
0
LINE
8
boundary
62
5
39
2
10
261.194539
20
98.109260
11
262.267206
21
99.347183
0
LINE
8
boundary
62
5
39
2
10
262.267206
20
99.347183
11
265.401077
21
102.963859
0
LINE
8
boundary
62
5
39
2
10
265.401077
20
102.963859
11
266.351214
21
104.298139
0
LINE
8
boundary
62
5
39
2
10
266.351214
20
104.298139
11
269.127103
21
108.196331
0
LINE
8
boundary
62
5
39
2
10
269.127103
20
108.196331
11
269.946108
21
109.614887
0
LINE
8
boundary
62
5
39
2
10
269.946108
20
109.614887
11
272.338886
21
113.759298
0
LINE
8
boundary
62
5
39
2
10
272.338886
20
113.759298
11
273.019339
21
115.249282
0
LINE
8
boundary
62
5
39
2
10
273.019339
20
115.249282
11
275.007328
21
119.602372
0
LINE
8
boundary
62
5
39
2
10
275.007328
20
119.602372
11
275.543067
21
121.150290
0
LINE
8
boundary
62
5
39
2
10
275.543067
20
121.150290
11
277.108266
21
125.672638
0
LINE
8
boundary
62
5
39
2
10
277.108266
20
125.672638
11
277.494441
21
127.264473
0
LINE
8
boundary
62
5
39
2
10
277.494441
20
127.264473
11
278.622678
21
131.915127
0
LINE
8
boundary
62
5
39
2
10
278.622678
20
131.915127
11
278.855790
21
133.536462
0
LINE
8
boundary
62
5
39
2
10
278.855790
20
133.536462
11
279.536842
21
138.273303
0
LINE
8
boundary
62
5
39
2
10
279.536842
20
138.273303
11
279.614783
21
139.909455
0
LINE
8
boundary
62
5
39
2
10
279.614783
20
139.909455
11
279.842492
21
144.689587
0
LINE
8
boundary
62
5
39
2
10
279.842492
20
144.689587
11
274.013921
21
144.689587
0
LINE
8
boundary
62
5
39
2
10
274.013921
20
144.689587
11
259.842493
21
144.689587
0
LINE
8
boundary
62
5
39
2
10
259.842493
20
144.689587
11
181.309158
21
144.689587
0
LINE
8
boundary
62
5
39
2
10
181.309158
20
144.689587
11
164.842495
21
144.689587
0
LINE
8
boundary
62
5
39
2
10
164.842495
20
144.689587
11
150.671067
21
144.689587
0
LINE
8
boundary
62
5
39
2
10
150.671067
20
144.689587
11
144.842496
21
144.689587
0
LINE
8
boundary
62
5
39
2
10
144.842496
20
144.689587
11
144.920437
21
143.053434
0
LINE
8
boundary
62
5
39
2
10
144.920437
20
143.053434
11
145.148146
21
138.273303
0
LINE
8
boundary
62
5
39
2
10
145.148146
20
138.273303
11
145.381258
21
136.651968
0
LINE
8
boundary
62
5
39
2
10
145.381258
20
136.651968
11
146.062310
21
131.915127
0
LINE
8
boundary
62
5
39
2
10
146.062310
20
131.915127
11
146.448485
21
130.323293
0
LINE
8
boundary
62
5
39
2
10
146.448485
20
130.323293
11
147.576722
21
125.672638
0
LINE
8
boundary
62
5
39
2
10
147.576722
20
125.672638
11
148.112461
21
124.124720
0
LINE
8
boundary
62
5
39
2
10
148.112461
20
124.124720
11
149.677660
21
119.602372
0
LINE
8
boundary
62
5
39
2
10
149.677660
20
119.602372
11
150.358113
21
118.112388
0
LINE
8
boundary
62
5
39
2
10
150.358113
20
118.112388
11
152.346102
21
113.759298
0
LINE
8
boundary
62
5
39
2
10
152.346102
20
113.759298
11
153.165106
21
112.340741
0
LINE
8
boundary
62
5
39
2
10
153.165106
20
112.340741
11
155.557885
21
108.196331
0
LINE
8
boundary
62
5
39
2
10
155.557885
20
108.196331
11
156.508021
21
106.862050
0
LINE
8
boundary
62
5
39
2
10
156.508021
20
106.862050
11
159.283911
21
102.963859
0
LINE
8
boundary
62
5
39
2
10
159.283911
20
102.963859
11
160.356578
21
101.725936
0
LINE
8
annotation
62
1
39
211
10
259.685213
20
141.889587
11
259.543839
21
139.371233
0
LINE
8
annotation
62
1
39
211
10
259.543839
20
139.371233
11
259.472479
21
138.951127
0
LINE
8
annotation
62
1
39
211
10
259.472479
20
138.951127
11
258.651545
21
134.119815
0
LINE
8
annotation
62
1
39
211
10
258.651545
20
134.119815
11
258.195340
21
132.489591
0
LINE
8
annotation
62
1
39
211
10
166.489557
20
132.489587
11
166.033312
21
134.119821
0
LINE
8
annotation
62
1
39
211
10
166.033312
20
134.119821
11
165.961953
21
134.540058
0
LINE
8
annotation
62
1
39
211
10
165.961953
20
134.540058
11
165.141128
21
139.371408
0
LINE
8
annotation
62
1
39
211
10
165.141128
20
139.371408
11
165.117153
21
139.796749
0
LINE
8
annotation
62
1
39
211
10
165.117153
20
139.796749
11
164.999674
21
141.889587
0
LINE
8
annotation
62
1
39
211
10
266.342492
20
110.977815
11
266.342492
21
112.406565
0
LINE
8
annotation
62
1
39
211
10
266.342492
20
110.977815
11
266.342492
21
112.406565
0
LINE
8
annotation
62
1
39
211
10
266.342492
20
112.406565
11
266.342492
21
110.977815
0
LINE
8
annotation
62
1
39
211
10
266.342492
20
110.977815
11
267.771242
21
110.977815
0
LINE
8
annotation
62
1
39
211
10
158.342496
20
110.977815
11
158.342495
21
109.549065
0
LINE
8
annotation
62
1
39
211
10
212.680158
20
95.650850
11
212.680158
21
97.079600
0
LINE
8
annotation
62
1
39
211
10
212.680158
20
95.650850
11
212.680158
21
97.079600
0
LINE
8
annotation
62
1
39
211
10
212.680158
20
97.079600
11
212.680158
21
95.650850
0
LINE
8
annotation
62
1
39
211
10
212.680158
20
95.650850
11
212.680158
21
94.222100
0
LINE
8
annotation
62
1
39
211
10
212.342494
20
84.008398
11
213.771244
21
84.008398
0
LINE
8
annotation
62
1
39
211
10
212.342494
20
84.008398
11
213.771244
21
84.008398
0
LINE
8
annotation
62
1
39
211
10
213.771244
20
84.008398
11
212.342494
21
84.008398
0
LINE
8
annotation
62
1
39
211
10
212.342494
20
84.008398
11
212.342494
21
82.579648
0
LINE
8
annotation
62
1
39
211
10
266.706164
20
137.254817
11
266.706164
21
137.254817
0
LINE
8
annotation
62
1
39
211
10
266.706164
20
137.254817
11
265.778562
21
136.907022
0
LINE
8
annotation
62
1
39
211
10
265.778562
20
136.907022
11
264.927366
21
136.438410
0
LINE
8
annotation
62
1
39
211
10
264.927366
20
136.438410
11
264.161313
21
135.860722
0
LINE
8
annotation
62
1
39
211
10
264.161313
20
135.860722
11
263.489141
21
135.185697
0
LINE
8
annotation
62
1
39
211
10
263.489141
20
135.185697
11
262.919588
21
134.425078
0
LINE
8
annotation
62
1
39
211
10
262.919588
20
134.425078
11
262.461392
21
133.590605
0
LINE
8
annotation
62
1
39
211
10
262.461392
20
133.590605
11
262.123291
21
132.694018
0
LINE
8
annotation
62
1
39
211
10
262.123291
20
132.694018
11
261.914023
21
131.747059
0
LINE
8
annotation
62
1
39
211
10
261.914023
20
131.747059
11
261.842325
21
130.761469
0
LINE
8
annotation
62
1
39
211
10
261.842325
20
130.761469
11
261.842325
21
125.915004
0
LINE
8
annotation
62
1
39
211
10
261.842325
20
125.915004
11
261.842325
21
125.915004
0
LINE
8
annotation
62
1
39
211
10
261.842325
20
125.915004
11
261.894603
21
125.332519
0
LINE
8
annotation
62
1
39
211
10
261.894603
20
125.332519
11
262.045285
21
124.784202
0
LINE
8
annotation
62
1
39
211
10
262.045285
20
124.784202
11
262.285145
21
124.279229
0
LINE
8
annotation
62
1
39
211
10
262.285145
20
124.279229
11
262.604955
21
123.826773
0
LINE
8
annotation
62
1
39
211
10
262.604955
20
123.826773
11
262.995488
21
123.436009
0
LINE
8
annotation
62
1
39
211
10
262.995488
20
123.436009
11
263.447517
21
123.116111
0
LINE
8
annotation
62
1
39
211
10
263.447517
20
123.116111
11
263.951816
21
122.876254
0
LINE
8
annotation
62
1
39
211
10
263.951816
20
122.876254
11
264.499156
21
122.725612
0
LINE
8
annotation
62
1
39
211
10
264.499156
20
122.725612
11
265.080312
21
122.673359
0
LINE
8
annotation
62
1
39
211
10
265.080312
20
122.673359
11
265.080312
21
122.673359
0
LINE
8
annotation
62
1
39
211
10
265.080312
20
122.673359
11
265.662672
21
122.725612
0
LINE
8
annotation
62
1
39
211
10
265.662672
20
122.725612
11
266.210652
21
122.876254
0
LINE
8
annotation
62
1
39
211
10
266.210652
20
122.876254
11
266.715139
21
123.116111
0
LINE
8
annotation
62
1
39
211
10
266.715139
20
123.116111
11
267.167018
21
123.436009
0
LINE
8
annotation
62
1
39
211
10
267.167018
20
123.436009
11
267.557174
21
123.826773
0
LINE
8
annotation
62
1
39
211
10
267.557174
20
123.826773
11
267.876495
21
124.279229
0
LINE
8
annotation
62
1
39
211
10
267.876495
20
124.279229
11
268.115866
21
124.784202
0
LINE
8
annotation
62
1
39
211
10
268.115866
20
124.784202
11
268.266172
21
125.332519
0
LINE
8
annotation
62
1
39
211
10
268.266172
20
125.332519
11
268.318299
21
125.915004
0
LINE
8
annotation
62
1
39
211
10
268.318299
20
125.915004
11
268.318299
21
127.528054
0
LINE
8
annotation
62
1
39
211
10
268.318299
20
127.528054
11
268.318299
21
127.528054
0
LINE
8
annotation
62
1
39
211
10
268.318299
20
127.528054
11
268.266172
21
128.110257
0
LINE
8
annotation
62
1
39
211
10
268.266172
20
128.110257
11
268.115866
21
128.657817
0
LINE
8
annotation
62
1
39
211
10
268.115866
20
128.657817
11
267.876495
21
129.161695
0
LINE
8
annotation
62
1
39
211
10
267.876495
20
129.161695
11
267.557174
21
129.612853
0
LINE
8
annotation
62
1
39
211
10
267.557174
20
129.612853
11
267.167018
21
130.002251
0
LINE
8
annotation
62
1
39
211
10
267.167018
20
130.002251
11
266.715139
21
130.320850
0
LINE
8
annotation
62
1
39
211
10
266.715139
20
130.320850
11
266.210652
21
130.559612
0
LINE
8
annotation
62
1
39
211
10
266.210652
20
130.559612
11
265.662672
21
130.709498
0
LINE
8
annotation
62
1
39
211
10
265.662672
20
130.709498
11
265.080312
21
130.761469
0
LINE
8
annotation
62
1
39
211
10
265.080312
20
130.761469
11
261.842325
21
130.761469
0
LINE
8
annotation
62
1
39
211
10
261.436776
20
120.850677
11
268.727505
21
120.850677
0
LINE
8
frame
62
5
39
2
10
0.000000
20
0.000000
11
800.000000
21
0.000000
0
LINE
8
frame
62
5
39
2
10
800.000000
20
0.000000
11
800.000000
21
1000.000000
0
LINE
8
frame
62
5
39
2
10
800.000000
20
1000.000000
11
0.000000
21
1000.000000
0
LINE
8
frame
62
5
39
2
10
0.000000
20
1000.000000
11
0.000000
21
0.000000
0
ENDSEC
0
EOF
