0
SECTION
2
HEADER
9
$ACADVER
1
AC1009
0
ENDSEC
0
SECTION
2
TABLES
0
TABLE
2
VPORT
70
1
0
VPORT
2
ACTIVE
70
0
10
0.0
20
0.0
11
0.0
21
0.0
12
0.0
22
0.0
13
0.0
23
0.0
14
0.0
24
0.0
15
0.0
25
0.0
16
0.0
26
0.0
36
0.0
17
0.0
27
0.0
37
0.0
40
0.0
41
0.0
42
0.0
43
0.0
44
0.0
50
0.0
51
0.0
71
0
72
1000
73
1
74
3
75
0
76
0
77
0
78
0
0
ENDTAB
0
ENDSEC
0
SECTION
2
ENTITIES
0
LINE
8
hole
62
5
39
2
10
46.381749
20
60.381749
11
46.953249
21
60.381749
0
LINE
8
hole
62
5
39
2
10
46.953249
20
60.381749
11
46.953249
21
60.953249
0
LINE
8
hole
62
5
39
2
10
46.953249
20
60.953249
11
46.381749
21
60.953249
0
LINE
8
hole
62
5
39
2
10
46.381749
20
60.953249
11
46.381749
21
60.381749
0
LINE
8
hole
62
5
39
2
10
78.381748
20
36.381749
11
78.953248
21
36.381749
0
LINE
8
hole
62
5
39
2
10
78.953248
20
36.381749
11
78.953248
21
36.953249
0
LINE
8
hole
62
5
39
2
10
78.953248
20
36.953249
11
78.381748
21
36.953249
0
LINE
8
hole
62
5
39
2
10
78.381748
20
36.953249
11
78.381748
21
36.381749
0
LINE
8
hole
62
5
39
2
10
14.381750
20
36.381749
11
14.953250
21
36.381749
0
LINE
8
hole
62
5
39
2
10
14.953250
20
36.381749
11
14.953250
21
36.953249
0
LINE
8
hole
62
5
39
2
10
14.953250
20
36.953249
11
14.381750
21
36.953249
0
LINE
8
hole
62
5
39
2
10
14.381750
20
36.953249
11
14.381750
21
36.381749
0
LINE
8
hole
62
5
39
2
10
66.977373
20
15.001125
11
67.548873
21
15.001125
0
LINE
8
hole
62
5
39
2
10
67.548873
20
15.001125
11
67.548873
21
15.572625
0
LINE
8
hole
62
5
39
2
10
67.548873
20
15.572625
11
66.977373
21
15.572625
0
LINE
8
hole
62
5
39
2
10
66.977373
20
15.572625
11
66.977373
21
15.001125
0
LINE
8
boundary
62
5
39
2
10
23.317500
20
13.367500
11
26.667500
21
6.667500
0
LINE
8
boundary
62
5
39
2
10
26.667500
20
6.667500
11
29.046072
21
6.667500
0
LINE
8
boundary
62
5
39
2
10
29.046072
20
6.667500
11
29.167500
21
8.367495
0
LINE
8
boundary
62
5
39
2
10
29.167500
20
8.367495
11
29.167500
21
36.667500
0
LINE
8
boundary
62
5
39
2
10
29.167500
20
36.667500
11
31.150828
21
36.667500
0
LINE
8
boundary
62
5
39
2
10
31.150828
20
36.667500
11
64.167498
21
36.667500
0
LINE
8
boundary
62
5
39
2
10
64.167498
20
36.667500
11
64.167498
21
8.367495
0
LINE
8
boundary
62
5
39
2
10
64.167498
20
8.367495
11
64.167498
21
6.667500
0
LINE
8
boundary
62
5
39
2
10
64.167498
20
6.667500
11
66.667499
21
6.667500
0
LINE
8
boundary
62
5
39
2
10
66.667499
20
6.667500
11
70.017499
21
13.367500
0
LINE
8
boundary
62
5
39
2
10
70.017499
20
13.367500
11
86.667498
21
46.667499
0
LINE
8
boundary
62
5
39
2
10
86.667498
20
46.667499
11
84.232797
21
49.102200
0
LINE
8
boundary
62
5
39
2
10
84.232797
20
49.102200
11
77.632792
21
55.702205
0
LINE
8
boundary
62
5
39
2
10
77.632792
20
55.702205
11
67.830180
21
65.504819
0
LINE
8
boundary
62
5
39
2
10
67.830180
20
65.504819
11
67.055059
21
66.279938
0
LINE
8
boundary
62
5
39
2
10
67.055059
20
66.279938
11
66.667499
21
66.667499
0
LINE
8
boundary
62
5
39
2
10
66.667499
20
66.667499
11
33.367500
21
66.667499
0
LINE
8
boundary
62
5
39
2
10
33.367500
20
66.667499
11
26.667500
21
66.667499
0
LINE
8
boundary
62
5
39
2
10
26.667500
20
66.667499
11
25.504818
21
65.504819
0
LINE
8
boundary
62
5
39
2
10
25.504818
20
65.504819
11
15.702206
21
55.702205
0
LINE
8
boundary
62
5
39
2
10
15.702206
20
55.702205
11
9.102201
21
49.102200
0
LINE
8
boundary
62
5
39
2
10
9.102201
20
49.102200
11
7.479067
21
47.479067
0
LINE
8
boundary
62
5
39
2
10
7.479067
20
47.479067
11
6.667500
21
46.667499
0
LINE
8
boundary
62
5
39
2
10
6.667500
20
46.667499
11
23.317500
21
13.367500
0
LINE
8
annotation
62
1
39
211
10
46.667499
20
60.667499
11
46.667499
21
62.096249
0
LINE
8
annotation
62
1
39
211
10
46.667499
20
60.667499
11
46.667499
21
62.096249
0
LINE
8
annotation
62
1
39
211
10
46.667499
20
62.096249
11
46.667499
21
60.667499
0
LINE
8
annotation
62
1
39
211
10
46.667499
20
60.667499
11
48.096249
21
60.667499
0
LINE
8
annotation
62
1
39
211
10
67.263123
20
15.286875
11
67.263123
21
13.858125
0
LINE
8
annotation
62
1
39
211
10
78.667498
20
36.667499
11
78.667498
21
38.096249
0
LINE
8
annotation
62
1
39
211
10
78.667498
20
36.667499
11
78.667498
21
38.096249
0
LINE
8
annotation
62
1
39
211
10
78.667498
20
38.096249
11
78.667498
21
36.667499
0
LINE
8
annotation
62
1
39
211
10
78.667498
20
36.667499
11
78.667498
21
35.238749
0
LINE
8
annotation
62
1
39
211
10
14.667500
20
36.667499
11
16.096250
21
36.667499
0
LINE
8
annotation
62
1
39
211
10
14.667500
20
36.667499
11
16.096250
21
36.667499
0
LINE
8
annotation
62
1
39
211
10
16.096250
20
36.667499
11
14.667500
21
36.667499
0
LINE
8
annotation
62
1
39
211
10
14.667500
20
36.667499
11
14.667500
21
35.238749
0
LINE
8
annotation
62
1
39
211
10
66.580092
20
31.777552
11
70.417706
21
31.777552
0
LINE
8
annotation
62
1
39
211
10
70.417706
20
31.777552
11
70.417706
21
31.777552
0
LINE
8
annotation
62
1
39
211
10
70.417706
20
31.777552
11
71.107910
21
31.839468
0
LINE
8
annotation
62
1
39
211
10
71.107910
20
31.839468
11
71.757368
21
32.017913
0
LINE
8
annotation
62
1
39
211
10
71.757368
20
32.017913
11
72.355278
21
32.301934
0
LINE
8
annotation
62
1
39
211
10
72.355278
20
32.301934
11
72.890839
21
32.680577
0
LINE
8
annotation
62
1
39
211
10
72.890839
20
32.680577
11
73.353247
21
33.142889
0
LINE
8
annotation
62
1
39
211
10
73.353247
20
33.142889
11
73.731701
21
33.677915
0
LINE
8
annotation
62
1
39
211
10
73.731701
20
33.677915
11
74.015399
21
34.274703
0
LINE
8
annotation
62
1
39
211
10
74.015399
20
34.274703
11
74.193540
21
34.922298
0
LINE
8
annotation
62
1
39
211
10
74.193540
20
34.922298
11
74.255320
21
35.609748
0
LINE
8
annotation
62
1
39
211
10
74.255320
20
35.609748
11
74.255320
21
37.531264
0
LINE
8
annotation
62
1
39
211
10
74.255320
20
37.531264
11
74.255320
21
37.531264
0
LINE
8
annotation
62
1
39
211
10
74.255320
20
37.531264
11
74.193540
21
38.218428
0
LINE
8
annotation
62
1
39
211
10
74.193540
20
38.218428
11
74.015399
21
38.865872
0
LINE
8
annotation
62
1
39
211
10
74.015399
20
38.865872
11
73.731701
21
39.462615
0
LINE
8
annotation
62
1
39
211
10
73.731701
20
39.462615
11
73.353247
21
39.997677
0
LINE
8
annotation
62
1
39
211
10
73.353247
20
39.997677
11
72.890839
21
40.460078
0
LINE
8
annotation
62
1
39
211
10
72.890839
20
40.460078
11
72.355278
21
40.838837
0
LINE
8
annotation
62
1
39
211
10
72.355278
20
40.838837
11
71.757368
21
41.122974
0
LINE
8
annotation
62
1
39
211
10
71.757368
20
41.122974
11
71.107910
21
41.301508
0
LINE
8
annotation
62
1
39
211
10
71.107910
20
41.301508
11
70.417706
21
41.363460
0
LINE
8
annotation
62
1
39
211
10
70.417706
20
41.363460
11
68.496190
21
41.363460
0
LINE
8
annotation
62
1
39
211
10
68.496190
20
41.363460
11
70.417706
21
41.363460
0
LINE
8
annotation
62
1
39
211
10
70.417706
20
41.363460
11
70.417706
21
41.363460
0
LINE
8
annotation
62
1
39
211
10
70.417706
20
41.363460
11
71.107910
21
41.425426
0
LINE
8
annotation
62
1
39
211
10
71.107910
20
41.425426
11
71.757368
21
41.604065
0
LINE
8
annotation
62
1
39
211
10
71.757368
20
41.604065
11
72.355278
21
41.888484
0
LINE
8
annotation
62
1
39
211
10
72.355278
20
41.888484
11
72.890839
21
42.267793
0
LINE
8
annotation
62
1
39
211
10
72.890839
20
42.267793
11
73.353247
21
42.731101
0
LINE
8
annotation
62
1
39
211
10
73.353247
20
42.731101
11
73.731701
21
43.267516
0
LINE
8
annotation
62
1
39
211
10
73.731701
20
43.267516
11
74.015399
21
43.866147
0
LINE
8
annotation
62
1
39
211
10
74.015399
20
43.866147
11
74.193540
21
44.516103
0
LINE
8
annotation
62
1
39
211
10
74.193540
20
44.516103
11
74.255320
21
45.206493
0
LINE
8
annotation
62
1
39
211
10
74.255320
20
45.206493
11
74.255320
21
45.206493
0
LINE
8
annotation
62
1
39
211
10
74.255320
20
45.206493
11
74.193540
21
45.893657
0
LINE
8
annotation
62
1
39
211
10
74.193540
20
45.893657
11
74.015399
21
46.541101
0
LINE
8
annotation
62
1
39
211
10
74.015399
20
46.541101
11
73.731701
21
47.137844
0
LINE
8
annotation
62
1
39
211
10
73.731701
20
47.137844
11
73.353247
21
47.672906
0
LINE
8
annotation
62
1
39
211
10
73.353247
20
47.672906
11
72.890839
21
48.135307
0
LINE
8
annotation
62
1
39
211
10
72.890839
20
48.135307
11
72.355278
21
48.514066
0
LINE
8
annotation
62
1
39
211
10
72.355278
20
48.514066
11
71.757368
21
48.798202
0
LINE
8
annotation
62
1
39
211
10
71.757368
20
48.798202
11
71.107910
21
48.976737
0
LINE
8
annotation
62
1
39
211
10
71.107910
20
48.976737
11
70.417706
21
49.038688
0
LINE
8
annotation
62
1
39
211
10
70.417706
20
49.038688
11
66.580092
21
49.038688
0
LINE
8
hole
62
5
39
2
10
108.961123
20
15.001125
11
109.532623
21
15.001125
0
LINE
8
hole
62
5
39
2
10
109.532623
20
15.001125
11
109.532623
21
15.572625
0
LINE
8
hole
62
5
39
2
10
109.532623
20
15.572625
11
108.961123
21
15.572625
0
LINE
8
hole
62
5
39
2
10
108.961123
20
15.572625
11
108.961123
21
15.001125
0
LINE
8
hole
62
5
39
2
10
129.963748
20
61.149750
11
130.535248
21
61.149750
0
LINE
8
hole
62
5
39
2
10
130.535248
20
61.149750
11
130.535248
21
61.721250
0
LINE
8
hole
62
5
39
2
10
130.535248
20
61.721250
11
129.963748
21
61.721250
0
LINE
8
hole
62
5
39
2
10
129.963748
20
61.721250
11
129.963748
21
61.149750
0
LINE
8
hole
62
5
39
2
10
161.556747
20
36.381749
11
162.128247
21
36.381749
0
LINE
8
hole
62
5
39
2
10
162.128247
20
36.381749
11
162.128247
21
36.953249
0
LINE
8
hole
62
5
39
2
10
162.128247
20
36.953249
11
161.556747
21
36.953249
0
LINE
8
hole
62
5
39
2
10
161.556747
20
36.953249
11
161.556747
21
36.381749
0
LINE
8
hole
62
5
39
2
10
97.556748
20
36.381749
11
98.128248
21
36.381749
0
LINE
8
hole
62
5
39
2
10
98.128248
20
36.381749
11
98.128248
21
36.953249
0
LINE
8
hole
62
5
39
2
10
98.128248
20
36.953249
11
97.556748
21
36.953249
0
LINE
8
hole
62
5
39
2
10
97.556748
20
36.953249
11
97.556748
21
36.381749
0
LINE
8
hole
62
5
39
2
10
129.794872
20
61.096124
11
130.366372
21
61.096124
0
LINE
8
hole
62
5
39
2
10
130.366372
20
61.096124
11
130.366372
21
61.667624
0
LINE
8
hole
62
5
39
2
10
130.366372
20
61.667624
11
129.794872
21
61.667624
0
LINE
8
hole
62
5
39
2
10
129.794872
20
61.667624
11
129.794872
21
61.096124
0
LINE
8
hole
62
5
39
2
10
138.885314
20
38.238301
11
139.456814
21
38.238301
0
LINE
8
hole
62
5
39
2
10
139.456814
20
38.238301
11
139.456814
21
38.809801
0
LINE
8
hole
62
5
39
2
10
139.456814
20
38.809801
11
138.885314
21
38.809801
0
LINE
8
hole
62
5
39
2
10
138.885314
20
38.809801
11
138.885314
21
38.238301
0
LINE
8
boundary
62
5
39
2
10
105.092498
20
16.167500
11
109.842498
21
6.667500
0
LINE
8
boundary
62
5
39
2
10
109.842498
20
6.667500
11
112.021070
21
6.667500
0
LINE
8
boundary
62
5
39
2
10
112.021070
20
6.667500
11
112.342498
21
11.167496
0
LINE
8
boundary
62
5
39
2
10
112.342498
20
11.167496
11
112.342498
21
36.667500
0
LINE
8
boundary
62
5
39
2
10
112.342498
20
36.667500
11
117.592493
21
36.667500
0
LINE
8
boundary
62
5
39
2
10
117.592493
20
36.667500
11
147.342496
21
36.667500
0
LINE
8
boundary
62
5
39
2
10
147.342496
20
36.667500
11
147.342497
21
11.167496
0
LINE
8
boundary
62
5
39
2
10
147.342497
20
11.167496
11
147.342497
21
6.667500
0
LINE
8
boundary
62
5
39
2
10
147.342497
20
6.667500
11
149.842497
21
6.667500
0
LINE
8
boundary
62
5
39
2
10
149.842497
20
6.667500
11
154.592497
21
16.167500
0
LINE
8
boundary
62
5
39
2
10
154.592497
20
16.167500
11
169.842496
21
46.667499
0
LINE
8
boundary
62
5
39
2
10
169.842496
20
46.667499
11
166.390308
21
50.119687
0
LINE
8
boundary
62
5
39
2
10
166.390308
20
50.119687
11
165.390301
21
51.119695
0
LINE
8
boundary
62
5
39
2
10
165.390301
20
51.119695
11
151.491074
21
65.018922
0
LINE
8
boundary
62
5
39
2
10
151.491074
20
65.018922
11
150.392023
21
66.117973
0
LINE
8
boundary
62
5
39
2
10
150.392023
20
66.117973
11
149.842497
21
66.667499
0
LINE
8
boundary
62
5
39
2
10
149.842497
20
66.667499
11
119.342498
21
66.667499
0
LINE
8
boundary
62
5
39
2
10
119.342498
20
66.667499
11
109.842498
21
66.667499
0
LINE
8
boundary
62
5
39
2
10
109.842498
20
66.667499
11
108.193920
21
65.018923
0
LINE
8
boundary
62
5
39
2
10
108.193920
20
65.018923
11
94.294694
21
51.119695
0
LINE
8
boundary
62
5
39
2
10
94.294694
20
51.119695
11
93.294686
21
50.119687
0
LINE
8
boundary
62
5
39
2
10
93.294686
20
50.119687
11
90.993228
21
47.818229
0
LINE
8
boundary
62
5
39
2
10
90.993228
20
47.818229
11
89.842498
21
46.667499
0
LINE
8
boundary
62
5
39
2
10
89.842498
20
46.667499
11
105.092498
21
16.167500
0
LINE
8
annotation
62
1
39
211
10
163.693867
20
48.856331
11
160.660919
21
47.113572
0
LINE
8
annotation
62
1
39
211
10
160.660919
20
47.113572
11
159.991026
21
46.809041
0
LINE
8
annotation
62
1
39
211
10
159.991026
20
46.809041
11
154.836282
21
44.465258
0
LINE
8
annotation
62
1
39
211
10
154.836282
20
44.465258
11
154.140504
21
44.225640
0
LINE
8
annotation
62
1
39
211
10
154.140504
20
44.225640
11
148.786941
21
42.380430
0
LINE
8
annotation
62
1
39
211
10
148.786941
20
42.380430
11
148.071686
21
42.207651
0
LINE
8
annotation
62
1
39
211
10
148.071686
20
42.207651
11
142.567463
21
40.877855
0
LINE
8
annotation
62
1
39
211
10
142.567463
20
40.877855
11
141.839195
21
40.773429
0
LINE
8
annotation
62
1
39
211
10
141.839195
20
40.773429
11
136.233737
21
39.970780
0
LINE
8
annotation
62
1
39
211
10
136.233737
20
39.970780
11
135.498742
21
39.935806
0
LINE
8
annotation
62
1
39
211
10
135.498742
20
39.935806
11
129.842441
21
39.667531
0
LINE
8
annotation
62
1
39
211
10
129.842441
20
39.667531
11
129.107564
21
39.702382
0
LINE
8
annotation
62
1
39
211
10
129.107564
20
39.702382
11
123.451290
21
39.970750
0
LINE
8
annotation
62
1
39
211
10
123.451290
20
39.970750
11
122.722861
21
40.075022
0
LINE
8
annotation
62
1
39
211
10
122.722861
20
40.075022
11
117.117475
21
40.877749
0
LINE
8
annotation
62
1
39
211
10
117.117475
20
40.877749
11
116.402221
21
41.050597
0
LINE
8
annotation
62
1
39
211
10
116.402221
20
41.050597
11
110.897948
21
42.380536
0
LINE
8
annotation
62
1
39
211
10
110.897948
20
42.380536
11
110.202313
21
42.620175
0
LINE
8
annotation
62
1
39
211
10
110.202313
20
42.620175
11
104.848718
21
44.465278
0
LINE
8
annotation
62
1
39
211
10
104.848718
20
44.465278
11
104.178894
21
44.769864
0
LINE
8
annotation
62
1
39
211
10
104.178894
20
44.769864
11
99.024082
21
47.113598
0
LINE
8
annotation
62
1
39
211
10
99.024082
20
47.113598
11
98.386121
21
47.480224
0
LINE
8
annotation
62
1
39
211
10
98.386121
20
47.480224
11
95.991174
21
48.856377
0
LINE
8
annotation
62
1
39
211
10
110.838896
20
63.704100
11
112.154793
21
63.112537
0
LINE
8
annotation
62
1
39
211
10
112.154793
20
63.112537
11
112.680735
21
62.876107
0
LINE
8
annotation
62
1
39
211
10
112.680735
20
62.876107
11
116.897715
21
61.493441
0
LINE
8
annotation
62
1
39
211
10
116.897715
20
61.493441
11
117.445642
21
61.313706
0
LINE
8
annotation
62
1
39
211
10
117.445642
20
61.313706
11
121.784820
21
60.383244
0
LINE
8
annotation
62
1
39
211
10
121.784820
20
60.383244
11
122.348683
21
60.262355
0
LINE
8
annotation
62
1
39
211
10
122.348683
20
60.262355
11
126.761760
21
59.794488
0
LINE
8
annotation
62
1
39
211
10
126.761760
20
59.794488
11
127.335216
21
59.733719
0
LINE
8
annotation
62
1
39
211
10
127.335216
20
59.733719
11
131.773119
21
59.733759
0
LINE
8
annotation
62
1
39
211
10
131.773119
20
59.733759
11
132.349786
21
59.733733
0
LINE
8
annotation
62
1
39
211
10
132.349786
20
59.733733
11
136.762857
21
60.201585
0
LINE
8
annotation
62
1
39
211
10
136.762857
20
60.201585
11
137.336265
21
60.262350
0
LINE
8
annotation
62
1
39
211
10
137.336265
20
60.262350
11
141.675471
21
61.192828
0
LINE
8
annotation
62
1
39
211
10
141.675471
20
61.192828
11
142.239330
21
61.313693
0
LINE
8
annotation
62
1
39
211
10
142.239330
20
61.313693
11
146.456293
21
62.696444
0
LINE
8
annotation
62
1
39
211
10
146.456293
20
62.696444
11
147.004183
21
62.876128
0
LINE
8
annotation
62
1
39
211
10
147.004183
20
62.876128
11
148.846057
21
63.704141
0
LINE
8
annotation
62
1
39
211
10
161.842497
20
36.667499
11
161.842497
21
38.096249
0
LINE
8
annotation
62
1
39
211
10
161.842497
20
36.667499
11
161.842497
21
38.096249
0
LINE
8
annotation
62
1
39
211
10
161.842497
20
38.096249
11
161.842497
21
36.667499
0
LINE
8
annotation
62
1
39
211
10
161.842497
20
36.667499
11
161.842497
21
35.238749
0
LINE
8
annotation
62
1
39
211
10
97.842498
20
36.667499
11
99.271248
21
36.667499
0
LINE
8
annotation
62
1
39
211
10
97.842498
20
36.667499
11
99.271248
21
36.667499
0
LINE
8
annotation
62
1
39
211
10
99.271248
20
36.667499
11
97.842498
21
36.667499
0
LINE
8
annotation
62
1
39
211
10
97.842498
20
36.667499
11
97.842498
21
35.238749
0
LINE
8
annotation
62
1
39
211
10
139.171064
20
38.524051
11
139.171064
21
39.952801
0
LINE
8
annotation
62
1
39
211
10
130.080622
20
61.381874
11
131.509372
21
61.381874
0
LINE
8
annotation
62
1
39
211
10
109.246873
20
15.286875
11
109.246873
21
16.715625
0
LINE
8
annotation
62
1
39
211
10
109.246873
20
15.286875
11
109.246873
21
16.715625
0
LINE
8
annotation
62
1
39
211
10
109.246873
20
16.715625
11
109.246873
21
15.286875
0
LINE
8
annotation
62
1
39
211
10
109.246873
20
15.286875
11
110.675623
21
15.286875
0
LINE
8
annotation
62
1
39
211
10
109.246873
20
15.286875
11
109.246873
21
16.715625
0
LINE
8
annotation
62
1
39
211
10
109.246873
20
16.715625
11
109.246873
21
15.286875
0
LINE
8
annotation
62
1
39
211
10
109.246873
20
15.286875
11
110.675623
21
15.286875
0
LINE
8
annotation
62
1
39
211
10
110.675623
20
15.286875
11
109.246873
21
15.286875
0
LINE
8
annotation
62
1
39
211
10
109.246873
20
15.286875
11
109.246873
21
13.858125
0
LINE
8
annotation
62
1
39
211
10
130.249498
20
61.435500
11
128.820748
21
61.435500
0
LINE
8
annotation
62
1
39
211
10
132.588758
20
46.419779
11
124.592374
21
46.419779
0
LINE
8
annotation
62
1
39
211
10
124.592374
20
46.419779
11
127.785870
21
57.619594
0
LINE
8
annotation
62
1
39
211
10
130.191830
20
43.218154
11
130.191830
21
49.614178
0
LINE
8
hole
62
5
39
2
10
241.715397
20
30.302178
11
242.286897
21
30.302178
0
LINE
8
hole
62
5
39
2
10
242.286897
20
30.302178
11
242.286897
21
30.873678
0
LINE
8
hole
62
5
39
2
10
242.286897
20
30.873678
11
241.715397
21
30.873678
0
LINE
8
hole
62
5
39
2
10
241.715397
20
30.873678
11
241.715397
21
30.302178
0
LINE
8
hole
62
5
39
2
10
183.748094
20
30.302178
11
184.319594
21
30.302178
0
LINE
8
hole
62
5
39
2
10
184.319594
20
30.302178
11
184.319594
21
30.873678
0
LINE
8
hole
62
5
39
2
10
184.319594
20
30.873678
11
183.748094
21
30.873678
0
LINE
8
hole
62
5
39
2
10
183.748094
20
30.873678
11
183.748094
21
30.302178
0
LINE
8
hole
62
5
39
2
10
219.880647
20
63.152984
11
220.452147
21
63.152984
0
LINE
8
hole
62
5
39
2
10
220.452147
20
63.152984
11
220.452147
21
63.724484
0
LINE
8
hole
62
5
39
2
10
220.452147
20
63.724484
11
219.880647
21
63.724484
0
LINE
8
hole
62
5
39
2
10
219.880647
20
63.724484
11
219.880647
21
63.152984
0
LINE
8
hole
62
5
39
2
10
212.731746
20
60.381749
11
213.303246
21
60.381749
0
LINE
8
hole
62
5
39
2
10
213.303246
20
60.381749
11
213.303246
21
60.953249
0
LINE
8
hole
62
5
39
2
10
213.303246
20
60.953249
11
212.731746
21
60.953249
0
LINE
8
hole
62
5
39
2
10
212.731746
20
60.953249
11
212.731746
21
60.381749
0
LINE
8
hole
62
5
39
2
10
205.582844
20
63.152984
11
206.154344
21
63.152984
0
LINE
8
hole
62
5
39
2
10
206.154344
20
63.152984
11
206.154344
21
63.724484
0
LINE
8
hole
62
5
39
2
10
206.154344
20
63.724484
11
205.582844
21
63.724484
0
LINE
8
hole
62
5
39
2
10
205.582844
20
63.724484
11
205.582844
21
63.152984
0
LINE
8
hole
62
5
39
2
10
192.136121
20
15.001125
11
192.707621
21
15.001125
0
LINE
8
hole
62
5
39
2
10
192.707621
20
15.001125
11
192.707621
21
15.572625
0
LINE
8
hole
62
5
39
2
10
192.707621
20
15.572625
11
192.136121
21
15.572625
0
LINE
8
hole
62
5
39
2
10
192.136121
20
15.572625
11
192.136121
21
15.001125
0
LINE
8
boundary
62
5
39
2
10
177.067496
20
38.567499
11
193.017496
21
6.667500
0
LINE
8
boundary
62
5
39
2
10
193.017496
20
6.667500
11
193.596068
21
6.667500
0
LINE
8
boundary
62
5
39
2
10
193.596068
20
6.667500
11
195.517496
21
6.667500
0
LINE
8
boundary
62
5
39
2
10
195.517496
20
6.667500
11
195.517496
21
33.567499
0
LINE
8
boundary
62
5
39
2
10
195.517496
20
33.567499
11
195.517496
21
36.667500
0
LINE
8
boundary
62
5
39
2
10
195.517496
20
36.667500
11
226.900826
21
36.667500
0
LINE
8
boundary
62
5
39
2
10
226.900826
20
36.667500
11
230.517495
21
36.667500
0
LINE
8
boundary
62
5
39
2
10
230.517495
20
36.667500
11
230.517495
21
33.567499
0
LINE
8
boundary
62
5
39
2
10
230.517495
20
33.567499
11
230.517495
21
6.667500
0
LINE
8
boundary
62
5
39
2
10
230.517495
20
6.667500
11
232.438924
21
6.667500
0
LINE
8
boundary
62
5
39
2
10
232.438924
20
6.667500
11
233.017495
21
6.667500
0
LINE
8
boundary
62
5
39
2
10
233.017495
20
6.667500
11
248.967495
21
38.567499
0
LINE
8
boundary
62
5
39
2
10
248.967495
20
38.567499
11
253.017495
21
46.667499
0
LINE
8
boundary
62
5
39
2
10
253.017495
20
46.667499
11
252.036346
21
47.648648
0
LINE
8
boundary
62
5
39
2
10
252.036346
20
47.648648
11
250.074048
21
49.610946
0
LINE
8
boundary
62
5
39
2
10
250.074048
20
49.610946
11
246.274052
21
53.410942
0
LINE
8
boundary
62
5
39
2
10
246.274052
20
53.410942
11
234.423125
21
65.261870
0
LINE
8
boundary
62
5
39
2
10
234.423125
20
65.261870
11
233.017495
21
66.667499
0
LINE
8
boundary
62
5
39
2
10
233.017495
20
66.667499
11
224.917495
21
66.667499
0
LINE
8
boundary
62
5
39
2
10
224.917495
20
66.667499
11
193.017496
21
66.667499
0
LINE
8
boundary
62
5
39
2
10
193.017496
20
66.667499
11
192.548953
21
66.198956
0
LINE
8
boundary
62
5
39
2
10
192.548953
20
66.198956
11
191.611866
21
65.261870
0
LINE
8
boundary
62
5
39
2
10
191.611866
20
65.261870
11
179.760939
21
53.410942
0
LINE
8
boundary
62
5
39
2
10
179.760939
20
53.410942
11
175.960943
21
49.610946
0
LINE
8
boundary
62
5
39
2
10
175.960943
20
49.610946
11
173.017496
21
46.667499
0
LINE
8
boundary
62
5
39
2
10
173.017496
20
46.667499
11
177.067496
21
38.567499
0
LINE
8
annotation
62
1
39
211
10
242.001147
20
30.587928
11
242.001147
21
32.016678
0
LINE
8
annotation
62
1
39
211
10
242.001147
20
30.587928
11
242.001147
21
32.016678
0
LINE
8
annotation
62
1
39
211
10
242.001147
20
32.016678
11
242.001147
21
30.587928
0
LINE
8
annotation
62
1
39
211
10
242.001147
20
30.587928
11
243.429897
21
30.587928
0
LINE
8
annotation
62
1
39
211
10
184.033844
20
30.587928
11
184.033844
21
29.159178
0
LINE
8
annotation
62
1
39
211
10
220.166397
20
63.438734
11
220.166397
21
64.867484
0
LINE
8
annotation
62
1
39
211
10
220.166397
20
63.438734
11
220.166397
21
64.867484
0
LINE
8
annotation
62
1
39
211
10
220.166397
20
64.867484
11
220.166397
21
63.438734
0
LINE
8
annotation
62
1
39
211
10
220.166397
20
63.438734
11
218.737647
21
63.438734
0
LINE
8
annotation
62
1
39
211
10
205.868594
20
63.438734
11
207.297344
21
63.438734
0
LINE
8
annotation
62
1
39
211
10
205.868594
20
63.438734
11
207.297344
21
63.438734
0
LINE
8
annotation
62
1
39
211
10
207.297344
20
63.438734
11
205.868594
21
63.438734
0
LINE
8
annotation
62
1
39
211
10
205.868594
20
63.438734
11
204.439844
21
63.438734
0
LINE
8
annotation
62
1
39
211
10
213.017496
20
60.667499
11
213.017496
21
62.096249
0
LINE
8
annotation
62
1
39
211
10
213.017496
20
60.667499
11
213.017496
21
62.096249
0
LINE
8
annotation
62
1
39
211
10
213.017496
20
62.096249
11
213.017496
21
60.667499
0
LINE
8
annotation
62
1
39
211
10
213.017496
20
60.667499
11
213.017495
21
59.238749
0
LINE
8
annotation
62
1
39
211
10
192.421871
20
15.286875
11
193.850621
21
15.286875
0
LINE
8
annotation
62
1
39
211
10
192.421871
20
15.286875
11
193.850621
21
15.286875
0
LINE
8
annotation
62
1
39
211
10
193.850621
20
15.286875
11
192.421871
21
15.286875
0
LINE
8
annotation
62
1
39
211
10
192.421871
20
15.286875
11
192.421871
21
13.858125
0
LINE
8
annotation
62
1
39
211
10
197.466459
20
43.218154
11
197.466459
21
57.619594
0
LINE
8
annotation
62
1
39
211
10
197.466459
20
57.619594
11
194.264835
21
54.417066
0
LINE
8
annotation
62
1
39
211
10
209.263659
20
43.218037
11
202.867635
21
43.218037
0
LINE
8
annotation
62
1
39
211
10
202.867635
20
43.218037
11
208.777770
21
52.732597
0
LINE
8
annotation
62
1
39
211
10
208.777770
20
52.732597
11
208.777770
21
52.732597
0
LINE
8
annotation
62
1
39
211
10
208.777770
20
52.732597
11
208.784836
21
52.741339
0
LINE
8
annotation
62
1
39
211
10
208.784836
20
52.741339
11
208.791611
21
52.750157
0
LINE
8
annotation
62
1
39
211
10
208.791611
20
52.750157
11
208.798141
21
52.759122
0
LINE
8
annotation
62
1
39
211
10
208.798141
20
52.759122
11
208.804471
21
52.768311
0
LINE
8
annotation
62
1
39
211
10
208.804471
20
52.768311
11
208.810644
21
52.777797
0
LINE
8
annotation
62
1
39
211
10
208.810644
20
52.777797
11
208.816706
21
52.787655
0
LINE
8
annotation
62
1
39
211
10
208.816706
20
52.787655
11
208.822701
21
52.797958
0
LINE
8
annotation
62
1
39
211
10
208.822701
20
52.797958
11
208.828673
21
52.808782
0
LINE
8
annotation
62
1
39
211
10
208.828673
20
52.808782
11
208.834668
21
52.820201
0
LINE
8
annotation
62
1
39
211
10
208.834668
20
52.820201
11
208.834668
21
52.820201
0
LINE
8
annotation
62
1
39
211
10
208.834668
20
52.820201
11
209.078696
21
53.344150
0
LINE
8
annotation
62
1
39
211
10
209.078696
20
53.344150
11
209.221253
21
53.887269
0
LINE
8
annotation
62
1
39
211
10
209.221253
20
53.887269
11
209.265833
21
54.437287
0
LINE
8
annotation
62
1
39
211
10
209.265833
20
54.437287
11
209.215929
21
54.981930
0
LINE
8
annotation
62
1
39
211
10
209.215929
20
54.981930
11
209.075034
21
55.508926
0
LINE
8
annotation
62
1
39
211
10
209.075034
20
55.508926
11
208.846643
21
56.006004
0
LINE
8
annotation
62
1
39
211
10
208.846643
20
56.006004
11
208.534249
21
56.460891
0
LINE
8
annotation
62
1
39
211
10
208.534249
20
56.460891
11
208.141345
21
56.861314
0
LINE
8
annotation
62
1
39
211
10
208.141345
20
56.861314
11
207.671426
21
57.195002
0
LINE
8
annotation
62
1
39
211
10
207.671426
20
57.195002
11
207.671426
21
57.195002
0
LINE
8
annotation
62
1
39
211
10
207.671426
20
57.195002
11
207.146020
21
57.435563
0
LINE
8
annotation
62
1
39
211
10
207.146020
20
57.435563
11
206.602069
21
57.575923
0
LINE
8
annotation
62
1
39
211
10
206.602069
20
57.575923
11
206.051732
21
57.619243
0
LINE
8
annotation
62
1
39
211
10
206.051732
20
57.619243
11
205.507170
21
57.568681
0
LINE
8
annotation
62
1
39
211
10
205.507170
20
57.568681
11
204.980546
21
57.427396
0
LINE
8
annotation
62
1
39
211
10
204.980546
20
57.427396
11
204.484018
21
57.198548
0
LINE
8
annotation
62
1
39
211
10
204.484018
20
57.198548
11
204.029748
21
56.885295
0
LINE
8
annotation
62
1
39
211
10
204.029748
20
56.885295
11
203.629897
21
56.490797
0
LINE
8
annotation
62
1
39
211
10
203.629897
20
56.490797
11
203.296625
21
56.018213
0
LINE
8
annotation
62
1
39
211
10
203.296625
20
56.018213
11
202.876666
21
55.212614
0
LINE
8
hole
62
5
39
2
10
295.906744
20
60.381749
11
296.478244
21
60.381749
0
LINE
8
hole
62
5
39
2
10
296.478244
20
60.381749
11
296.478244
21
60.953249
0
LINE
8
hole
62
5
39
2
10
296.478244
20
60.953249
11
295.906744
21
60.953249
0
LINE
8
hole
62
5
39
2
10
295.906744
20
60.953249
11
295.906744
21
60.381749
0
LINE
8
hole
62
5
39
2
10
327.906743
20
36.381749
11
328.478243
21
36.381749
0
LINE
8
hole
62
5
39
2
10
328.478243
20
36.381749
11
328.478243
21
36.953249
0
LINE
8
hole
62
5
39
2
10
328.478243
20
36.953249
11
327.906743
21
36.953249
0
LINE
8
hole
62
5
39
2
10
327.906743
20
36.953249
11
327.906743
21
36.381749
0
LINE
8
hole
62
5
39
2
10
263.906745
20
36.381749
11
264.478245
21
36.381749
0
LINE
8
hole
62
5
39
2
10
264.478245
20
36.381749
11
264.478245
21
36.953249
0
LINE
8
hole
62
5
39
2
10
264.478245
20
36.953249
11
263.906745
21
36.953249
0
LINE
8
hole
62
5
39
2
10
263.906745
20
36.953249
11
263.906745
21
36.381749
0
LINE
8
hole
62
5
39
2
10
275.311120
20
15.001125
11
275.882620
21
15.001125
0
LINE
8
hole
62
5
39
2
10
275.882620
20
15.001125
11
275.882620
21
15.572625
0
LINE
8
hole
62
5
39
2
10
275.882620
20
15.572625
11
275.311120
21
15.572625
0
LINE
8
hole
62
5
39
2
10
275.311120
20
15.572625
11
275.311120
21
15.001125
0
LINE
8
boundary
62
5
39
2
10
258.842495
20
41.367499
11
276.192494
21
6.667500
0
LINE
8
boundary
62
5
39
2
10
276.192494
20
6.667500
11
278.692494
21
6.667500
0
LINE
8
boundary
62
5
39
2
10
278.692494
20
6.667500
11
278.692495
21
36.367499
0
LINE
8
boundary
62
5
39
2
10
278.692495
20
36.367499
11
313.342492
21
36.667500
0
LINE
8
boundary
62
5
39
2
10
313.342492
20
36.667500
11
313.692493
21
6.667500
0
LINE
8
boundary
62
5
39
2
10
313.692493
20
6.667500
11
315.813922
21
6.667500
0
LINE
8
boundary
62
5
39
2
10
315.813922
20
6.667500
11
333.542493
21
41.367499
0
LINE
8
boundary
62
5
39
2
10
333.542493
20
41.367499
11
336.192493
21
46.667499
0
LINE
8
boundary
62
5
39
2
10
336.192493
20
46.667499
11
335.550507
21
47.309485
0
LINE
8
boundary
62
5
39
2
10
335.550507
20
47.309485
11
334.266534
21
48.593458
0
LINE
8
boundary
62
5
39
2
10
334.266534
20
48.593458
11
324.866537
21
57.993455
0
LINE
8
boundary
62
5
39
2
10
324.866537
20
57.993455
11
317.112227
21
65.747766
0
LINE
8
boundary
62
5
39
2
10
317.112227
20
65.747766
11
316.192493
21
66.667499
0
LINE
8
boundary
62
5
39
2
10
316.192493
20
66.667499
11
310.892493
21
66.667499
0
LINE
8
boundary
62
5
39
2
10
310.892493
20
66.667499
11
276.192494
21
66.667499
0
LINE
8
boundary
62
5
39
2
10
276.192494
20
66.667499
11
275.272761
21
65.747766
0
LINE
8
boundary
62
5
39
2
10
275.272761
20
65.747766
11
267.518451
21
57.993455
0
LINE
8
boundary
62
5
39
2
10
267.518451
20
57.993455
11
258.118454
21
48.593458
0
LINE
8
boundary
62
5
39
2
10
258.118454
20
48.593458
11
256.192495
21
46.667499
0
LINE
8
boundary
62
5
39
2
10
256.192495
20
46.667499
11
258.842495
21
41.367499
0
LINE
8
annotation
62
1
39
211
10
296.192494
20
60.667499
11
296.192494
21
62.096249
0
LINE
8
annotation
62
1
39
211
10
296.192494
20
60.667499
11
296.192494
21
62.096249
0
LINE
8
annotation
62
1
39
211
10
296.192494
20
62.096249
11
296.192494
21
60.667499
0
LINE
8
annotation
62
1
39
211
10
296.192494
20
60.667499
11
296.192494
21
59.238749
0
LINE
8
annotation
62
1
39
211
10
275.596870
20
15.286875
11
277.025619
21
15.286875
0
LINE
8
annotation
62
1
39
211
10
275.596870
20
15.286875
11
277.025619
21
15.286875
0
LINE
8
annotation
62
1
39
211
10
277.025619
20
15.286875
11
275.596870
21
15.286875
0
LINE
8
annotation
62
1
39
211
10
275.596870
20
15.286875
11
275.596869
21
13.858125
0
LINE
8
annotation
62
1
39
211
10
328.192493
20
36.667499
11
328.192493
21
38.096249
0
LINE
8
annotation
62
1
39
211
10
264.192495
20
36.667499
11
265.621244
21
36.667499
0
LINE
8
annotation
62
1
39
211
10
280.642545
20
43.218154
11
280.642545
21
57.619594
0
LINE
8
annotation
62
1
39
211
10
280.642545
20
57.619594
11
277.440920
21
54.417066
0
LINE
8
annotation
62
1
39
211
10
286.042633
20
43.218606
11
289.240645
21
43.218606
0
LINE
8
annotation
62
1
39
211
10
289.240645
20
43.218606
11
289.240645
21
43.218606
0
LINE
8
annotation
62
1
39
211
10
289.240645
20
43.218606
11
289.815815
21
43.270202
0
LINE
8
annotation
62
1
39
211
10
289.815815
20
43.270202
11
290.357030
21
43.418907
0
LINE
8
annotation
62
1
39
211
10
290.357030
20
43.418907
11
290.855289
21
43.655591
0
LINE
8
annotation
62
1
39
211
10
290.855289
20
43.655591
11
291.301589
21
43.971127
0
LINE
8
annotation
62
1
39
211
10
291.301589
20
43.971127
11
291.686929
21
44.356386
0
LINE
8
annotation
62
1
39
211
10
291.686929
20
44.356386
11
292.002307
21
44.802242
0
LINE
8
annotation
62
1
39
211
10
292.002307
20
44.802242
11
292.238723
21
45.299565
0
LINE
8
annotation
62
1
39
211
10
292.238723
20
45.299565
11
292.387173
21
45.839228
0
LINE
8
annotation
62
1
39
211
10
292.387173
20
45.839228
11
292.438657
21
46.412102
0
LINE
8
annotation
62
1
39
211
10
292.438657
20
46.412102
11
292.438657
21
48.013366
0
LINE
8
annotation
62
1
39
211
10
292.438657
20
48.013366
11
292.438657
21
48.013366
0
LINE
8
annotation
62
1
39
211
10
292.438657
20
48.013366
11
292.387173
21
48.586002
0
LINE
8
annotation
62
1
39
211
10
292.387173
20
48.586002
11
292.238723
21
49.125539
0
LINE
8
annotation
62
1
39
211
10
292.238723
20
49.125539
11
292.002307
21
49.622825
0
LINE
8
annotation
62
1
39
211
10
292.002307
20
49.622825
11
291.686929
21
50.068710
0
LINE
8
annotation
62
1
39
211
10
291.686929
20
50.068710
11
291.301589
21
50.454044
0
LINE
8
annotation
62
1
39
211
10
291.301589
20
50.454044
11
290.855289
21
50.769676
0
LINE
8
annotation
62
1
39
211
10
290.855289
20
50.769676
11
290.357030
21
51.006457
0
LINE
8
annotation
62
1
39
211
10
290.357030
20
51.006457
11
289.815815
21
51.155236
0
LINE
8
annotation
62
1
39
211
10
289.815815
20
51.155236
11
289.240645
21
51.206862
0
LINE
8
annotation
62
1
39
211
10
289.240645
20
51.206862
11
287.639381
21
51.206862
0
LINE
8
annotation
62
1
39
211
10
287.639381
20
51.206862
11
289.240645
21
51.206862
0
LINE
8
annotation
62
1
39
211
10
289.240645
20
51.206862
11
289.240645
21
51.206862
0
LINE
8
annotation
62
1
39
211
10
289.240645
20
51.206862
11
289.815815
21
51.258501
0
LINE
8
annotation
62
1
39
211
10
289.815815
20
51.258501
11
290.357030
21
51.407366
0
LINE
8
annotation
62
1
39
211
10
290.357030
20
51.407366
11
290.855289
21
51.644382
0
LINE
8
annotation
62
1
39
211
10
290.855289
20
51.644382
11
291.301589
21
51.960473
0
LINE
8
annotation
62
1
39
211
10
291.301589
20
51.960473
11
291.686929
21
52.346563
0
LINE
8
annotation
62
1
39
211
10
291.686929
20
52.346563
11
292.002307
21
52.793575
0
LINE
8
annotation
62
1
39
211
10
292.002307
20
52.793575
11
292.238723
21
53.292435
0
LINE
8
annotation
62
1
39
211
10
292.238723
20
53.292435
11
292.387173
21
53.834065
0
LINE
8
annotation
62
1
39
211
10
292.387173
20
53.834065
11
292.438657
21
54.409390
0
LINE
8
annotation
62
1
39
211
10
292.438657
20
54.409390
11
292.438657
21
54.409390
0
LINE
8
annotation
62
1
39
211
10
292.438657
20
54.409390
11
292.387173
21
54.982026
0
LINE
8
annotation
62
1
39
211
10
292.387173
20
54.982026
11
292.238723
21
55.521563
0
LINE
8
annotation
62
1
39
211
10
292.238723
20
55.521563
11
292.002307
21
56.018849
0
LINE
8
annotation
62
1
39
211
10
292.002307
20
56.018849
11
291.686929
21
56.464734
0
LINE
8
annotation
62
1
39
211
10
291.686929
20
56.464734
11
291.301589
21
56.850068
0
LINE
8
annotation
62
1
39
211
10
291.301589
20
56.850068
11
290.855289
21
57.165700
0
LINE
8
annotation
62
1
39
211
10
290.855289
20
57.165700
11
290.357030
21
57.402481
0
LINE
8
annotation
62
1
39
211
10
290.357030
20
57.402481
11
289.815815
21
57.551260
0
LINE
8
annotation
62
1
39
211
10
289.815815
20
57.551260
11
289.240645
21
57.602886
0
LINE
8
annotation
62
1
39
211
10
289.240645
20
57.602886
11
286.042633
21
57.602886
0
LINE
8
hole
62
5
39
2
10
411.081741
20
36.381749
11
411.653241
21
36.381749
0
LINE
8
hole
62
5
39
2
10
411.653241
20
36.381749
11
411.653241
21
36.953249
0
LINE
8
hole
62
5
39
2
10
411.653241
20
36.953249
11
411.081741
21
36.953249
0
LINE
8
hole
62
5
39
2
10
411.081741
20
36.953249
11
411.081741
21
36.381749
0
LINE
8
hole
62
5
39
2
10
347.081743
20
36.381749
11
347.653243
21
36.381749
0
LINE
8
hole
62
5
39
2
10
347.653243
20
36.381749
11
347.653243
21
36.953249
0
LINE
8
hole
62
5
39
2
10
347.653243
20
36.953249
11
347.081743
21
36.953249
0
LINE
8
hole
62
5
39
2
10
347.081743
20
36.953249
11
347.081743
21
36.381749
0
LINE
8
hole
62
5
39
2
10
378.601360
20
27.428797
11
378.011859
21
27.729164
0
LINE
8
hole
62
5
39
2
10
378.011859
20
27.729164
11
377.506301
21
28.216217
0
LINE
8
hole
62
5
39
2
10
377.506301
20
28.216217
11
377.175994
21
28.835659
0
LINE
8
hole
62
5
39
2
10
377.175994
20
28.835659
11
377.053272
21
29.526854
0
LINE
8
hole
62
5
39
2
10
377.053272
20
29.526854
11
377.150147
21
30.222142
0
LINE
8
hole
62
5
39
2
10
377.150147
20
30.222142
11
377.457137
21
30.853465
0
LINE
8
hole
62
5
39
2
10
377.457137
20
30.853465
11
377.944190
21
31.359022
0
LINE
8
hole
62
5
39
2
10
377.944190
20
31.359022
11
378.563632
21
31.689328
0
LINE
8
hole
62
5
39
2
10
378.563632
20
31.689328
11
379.254826
21
31.812050
0
LINE
8
hole
62
5
39
2
10
379.254826
20
31.812050
11
379.950115
21
31.715175
0
LINE
8
hole
62
5
39
2
10
379.950115
20
31.715175
11
380.581437
21
31.408186
0
LINE
8
hole
62
5
39
2
10
380.581437
20
31.408186
11
381.086995
21
30.921134
0
LINE
8
hole
62
5
39
2
10
381.086995
20
30.921134
11
381.417302
21
30.301692
0
LINE
8
hole
62
5
39
2
10
381.417302
20
30.301692
11
381.540024
21
29.610497
0
LINE
8
hole
62
5
39
2
10
381.540024
20
29.610497
11
381.443149
21
28.915209
0
LINE
8
hole
62
5
39
2
10
381.443149
20
28.915209
11
381.136160
21
28.283886
0
LINE
8
hole
62
5
39
2
10
381.136160
20
28.283886
11
380.649106
21
27.778329
0
LINE
8
hole
62
5
39
2
10
380.649106
20
27.778329
11
380.029664
21
27.448021
0
LINE
8
hole
62
5
39
2
10
380.029664
20
27.448021
11
379.338470
21
27.325298
0
LINE
8
hole
62
5
39
2
10
379.338470
20
27.325298
11
378.643182
21
27.422173
0
LINE
8
hole
62
5
39
2
10
378.643182
20
27.422173
11
378.601360
21
27.428797
0
LINE
8
boundary
62
5
39
2
10
340.617493
20
44.167499
11
359.367493
21
6.667500
0
LINE
8
boundary
62
5
39
2
10
359.367493
20
6.667500
11
360.617493
21
6.667500
0
LINE
8
boundary
62
5
39
2
10
360.617493
20
6.667500
11
380.617487
21
6.667500
0
LINE
8
boundary
62
5
39
2
10
380.617487
20
6.667500
11
398.117491
21
6.667500
0
LINE
8
boundary
62
5
39
2
10
398.117491
20
6.667500
11
399.188920
21
6.667500
0
LINE
8
boundary
62
5
39
2
10
399.188920
20
6.667500
11
418.117491
21
44.167499
0
LINE
8
boundary
62
5
39
2
10
418.117491
20
44.167499
11
419.367491
21
46.667499
0
LINE
8
boundary
62
5
39
2
10
419.367491
20
46.667499
11
418.459020
21
47.575970
0
LINE
8
boundary
62
5
39
2
10
418.459020
20
47.575970
11
403.459022
21
62.575969
0
LINE
8
boundary
62
5
39
2
10
403.459022
20
62.575969
11
399.801328
21
66.233662
0
LINE
8
boundary
62
5
39
2
10
399.801328
20
66.233662
11
399.367492
21
66.667499
0
LINE
8
boundary
62
5
39
2
10
399.367492
20
66.667499
11
396.867491
21
66.667499
0
LINE
8
boundary
62
5
39
2
10
396.867491
20
66.667499
11
359.367492
21
66.667499
0
LINE
8
boundary
62
5
39
2
10
359.367492
20
66.667499
11
358.933656
21
66.233663
0
LINE
8
boundary
62
5
39
2
10
358.933656
20
66.233663
11
355.275962
21
62.575969
0
LINE
8
boundary
62
5
39
2
10
355.275962
20
62.575969
11
340.275964
21
47.575970
0
LINE
8
boundary
62
5
39
2
10
340.275964
20
47.575970
11
339.367493
21
46.667499
0
LINE
8
boundary
62
5
39
2
10
339.367493
20
46.667499
11
340.617493
21
44.167499
0
LINE
8
annotation
62
1
39
211
10
411.367491
20
36.667499
11
411.367491
21
38.096249
0
LINE
8
annotation
62
1
39
211
10
347.367493
20
36.667499
11
348.796243
21
36.667499
0
LINE
8
annotation
62
1
39
211
10
371.998561
20
41.778010
11
371.998561
21
59.059738
0
LINE
8
annotation
62
1
39
211
10
371.998561
20
59.059738
11
368.156612
21
55.216705
0
LINE
8
annotation
62
1
39
211
10
388.074329
20
45.619960
11
378.478667
21
45.619960
0
LINE
8
annotation
62
1
39
211
10
378.478667
20
45.619960
11
382.310863
21
59.059738
0
LINE
8
annotation
62
1
39
211
10
385.198015
20
41.778010
11
385.198015
21
49.453239
0
LINE
8
hole
62
5
39
2
10
494.256740
20
36.381749
11
494.828240
21
36.381749
0
LINE
8
hole
62
5
39
2
10
494.828240
20
36.381749
11
494.828240
21
36.953249
0
LINE
8
hole
62
5
39
2
10
494.828240
20
36.953249
11
494.256740
21
36.953249
0
LINE
8
hole
62
5
39
2
10
494.256740
20
36.953249
11
494.256740
21
36.381749
0
LINE
8
hole
62
5
39
2
10
430.256741
20
36.381749
11
430.828241
21
36.381749
0
LINE
8
hole
62
5
39
2
10
430.828241
20
36.381749
11
430.828241
21
36.953249
0
LINE
8
hole
62
5
39
2
10
430.828241
20
36.953249
11
430.256741
21
36.953249
0
LINE
8
hole
62
5
39
2
10
430.256741
20
36.953249
11
430.256741
21
36.381749
0
LINE
8
hole
62
5
39
2
10
461.039620
20
27.857897
11
460.651358
21
28.246158
0
LINE
8
hole
62
5
39
2
10
460.651358
20
28.246158
11
460.331769
21
28.873387
0
LINE
8
hole
62
5
39
2
10
460.331769
20
28.873387
11
460.221647
21
29.568675
0
LINE
8
hole
62
5
39
2
10
460.221647
20
29.568675
11
460.331769
21
30.263964
0
LINE
8
hole
62
5
39
2
10
460.331769
20
30.263964
11
460.651358
21
30.891193
0
LINE
8
hole
62
5
39
2
10
460.651358
20
30.891193
11
461.149130
21
31.388963
0
LINE
8
hole
62
5
39
2
10
461.149130
20
31.388963
11
461.776358
21
31.708551
0
LINE
8
hole
62
5
39
2
10
461.776358
20
31.708551
11
462.471646
21
31.818674
0
LINE
8
hole
62
5
39
2
10
462.471646
20
31.818674
11
463.166935
21
31.708551
0
LINE
8
hole
62
5
39
2
10
463.166935
20
31.708551
11
463.794163
21
31.388963
0
LINE
8
hole
62
5
39
2
10
463.794163
20
31.388963
11
464.291935
21
30.891193
0
LINE
8
hole
62
5
39
2
10
464.291935
20
30.891193
11
464.611524
21
30.263964
0
LINE
8
hole
62
5
39
2
10
464.611524
20
30.263964
11
464.721646
21
29.568675
0
LINE
8
hole
62
5
39
2
10
464.721646
20
29.568675
11
464.611524
21
28.873387
0
LINE
8
hole
62
5
39
2
10
464.611524
20
28.873387
11
464.291935
21
28.246158
0
LINE
8
hole
62
5
39
2
10
464.291935
20
28.246158
11
463.794163
21
27.748388
0
LINE
8
hole
62
5
39
2
10
463.794163
20
27.748388
11
463.166935
21
27.428797
0
LINE
8
hole
62
5
39
2
10
463.166935
20
27.428797
11
462.471646
21
27.318674
0
LINE
8
hole
62
5
39
2
10
462.471646
20
27.318674
11
461.776358
21
27.428797
0
LINE
8
hole
62
5
39
2
10
461.776358
20
27.428797
11
461.149130
21
27.748388
0
LINE
8
hole
62
5
39
2
10
461.149130
20
27.748388
11
461.039620
21
27.857897
0
LINE
8
boundary
62
5
39
2
10
441.992491
20
7.767500
11
442.542491
21
6.667500
0
LINE
8
boundary
62
5
39
2
10
442.542491
20
6.667500
11
443.092490
21
6.667500
0
LINE
8
boundary
62
5
39
2
10
443.092490
20
6.667500
11
474.292496
21
6.667500
0
LINE
8
boundary
62
5
39
2
10
474.292496
20
6.667500
11
481.992490
21
6.667500
0
LINE
8
boundary
62
5
39
2
10
481.992490
20
6.667500
11
482.542490
21
6.667500
0
LINE
8
boundary
62
5
39
2
10
482.542490
20
6.667500
11
483.092490
21
7.767500
0
LINE
8
boundary
62
5
39
2
10
483.092490
20
7.767500
11
502.542489
21
46.667499
0
LINE
8
boundary
62
5
39
2
10
502.542489
20
46.667499
11
502.142762
21
47.067226
0
LINE
8
boundary
62
5
39
2
10
502.142762
20
47.067226
11
484.342762
21
64.867226
0
LINE
8
boundary
62
5
39
2
10
484.342762
20
64.867226
11
482.733378
21
66.476611
0
LINE
8
boundary
62
5
39
2
10
482.733378
20
66.476611
11
443.642491
21
66.667499
0
LINE
8
boundary
62
5
39
2
10
443.642491
20
66.667499
11
442.542491
21
66.667499
0
LINE
8
boundary
62
5
39
2
10
442.542491
20
66.667499
11
440.742218
21
64.867226
0
LINE
8
boundary
62
5
39
2
10
440.742218
20
64.867226
11
422.942218
21
47.067226
0
LINE
8
boundary
62
5
39
2
10
422.942218
20
47.067226
11
422.542491
21
46.667499
0
LINE
8
boundary
62
5
39
2
10
422.542491
20
46.667499
11
441.992491
21
7.767500
0
LINE
8
annotation
62
1
39
211
10
494.542490
20
36.667499
11
494.542490
21
38.096249
0
LINE
8
annotation
62
1
39
211
10
430.542491
20
36.667499
11
431.971241
21
36.667499
0
LINE
8
annotation
62
1
39
211
10
477.312422
20
19.575791
11
477.312422
21
51.258958
0
LINE
8
annotation
62
1
39
211
10
477.312422
20
51.258958
11
470.268848
21
44.213397
0
LINE
8
hole
62
5
39
2
10
577.431738
20
36.381749
11
578.003238
21
36.381749
0
LINE
8
hole
62
5
39
2
10
578.003238
20
36.381749
11
578.003238
21
36.953249
0
LINE
8
hole
62
5
39
2
10
578.003238
20
36.953249
11
577.431738
21
36.953249
0
LINE
8
hole
62
5
39
2
10
577.431738
20
36.953249
11
577.431738
21
36.381749
0
LINE
8
hole
62
5
39
2
10
513.431739
20
36.381749
11
514.003239
21
36.381749
0
LINE
8
hole
62
5
39
2
10
514.003239
20
36.381749
11
514.003239
21
36.953249
0
LINE
8
hole
62
5
39
2
10
514.003239
20
36.953249
11
513.431739
21
36.953249
0
LINE
8
hole
62
5
39
2
10
513.431739
20
36.953249
11
513.431739
21
36.381749
0
LINE
8
hole
62
5
39
2
10
545.431738
20
60.381749
11
546.003238
21
60.381749
0
LINE
8
hole
62
5
39
2
10
546.003238
20
60.381749
11
546.003238
21
60.953249
0
LINE
8
hole
62
5
39
2
10
546.003238
20
60.953249
11
545.431738
21
60.953249
0
LINE
8
hole
62
5
39
2
10
545.431738
20
60.953249
11
545.431738
21
60.381749
0
LINE
8
hole
62
5
39
2
10
566.027363
20
15.001125
11
566.598863
21
15.001125
0
LINE
8
hole
62
5
39
2
10
566.598863
20
15.001125
11
566.598863
21
15.572625
0
LINE
8
hole
62
5
39
2
10
566.598863
20
15.572625
11
566.027363
21
15.572625
0
LINE
8
hole
62
5
39
2
10
566.027363
20
15.572625
11
566.027363
21
15.001125
0
LINE
8
hole
62
5
39
2
10
543.935867
20
28.136648
11
543.577077
21
28.735396
0
LINE
8
hole
62
5
39
2
10
543.577077
20
28.735396
11
543.420872
21
29.415711
0
LINE
8
hole
62
5
39
2
10
543.420872
20
29.415711
11
543.482540
21
30.111000
0
LINE
8
hole
62
5
39
2
10
543.482540
20
30.111000
11
543.756047
21
30.753202
0
LINE
8
hole
62
5
39
2
10
543.756047
20
30.753202
11
544.214618
21
31.279453
0
LINE
8
hole
62
5
39
2
10
544.214618
20
31.279453
11
544.813366
21
31.638242
0
LINE
8
hole
62
5
39
2
10
544.813366
20
31.638242
11
545.493681
21
31.794447
0
LINE
8
hole
62
5
39
2
10
545.493681
20
31.794447
11
546.188969
21
31.732778
0
LINE
8
hole
62
5
39
2
10
546.188969
20
31.732778
11
546.831171
21
31.459273
0
LINE
8
hole
62
5
39
2
10
546.831171
20
31.459273
11
547.357423
21
31.000703
0
LINE
8
hole
62
5
39
2
10
547.357423
20
31.000703
11
547.716212
21
30.401955
0
LINE
8
hole
62
5
39
2
10
547.716212
20
30.401955
11
547.872418
21
29.721639
0
LINE
8
hole
62
5
39
2
10
547.872418
20
29.721639
11
547.810749
21
29.026351
0
LINE
8
hole
62
5
39
2
10
547.810749
20
29.026351
11
547.537243
21
28.384149
0
LINE
8
hole
62
5
39
2
10
547.537243
20
28.384149
11
547.078671
21
27.857898
0
LINE
8
hole
62
5
39
2
10
547.078671
20
27.857898
11
546.479924
21
27.499107
0
LINE
8
hole
62
5
39
2
10
546.479924
20
27.499107
11
545.799608
21
27.342901
0
LINE
8
hole
62
5
39
2
10
545.799608
20
27.342901
11
545.104320
21
27.404570
0
LINE
8
hole
62
5
39
2
10
545.104320
20
27.404570
11
544.462118
21
27.678078
0
LINE
8
hole
62
5
39
2
10
544.462118
20
27.678078
11
543.935867
21
28.136648
0
LINE
8
boundary
62
5
39
2
10
523.767489
20
10.567500
11
525.717489
21
6.667500
0
LINE
8
boundary
62
5
39
2
10
525.717489
20
6.667500
11
527.667487
21
6.667500
0
LINE
8
boundary
62
5
39
2
10
527.667487
20
6.667500
11
536.467517
21
6.667500
0
LINE
8
boundary
62
5
39
2
10
536.467517
20
6.667500
11
563.767490
21
6.667500
0
LINE
8
boundary
62
5
39
2
10
563.767490
20
6.667500
11
565.717488
21
6.667500
0
LINE
8
boundary
62
5
39
2
10
565.717488
20
6.667500
11
567.667488
21
10.567500
0
LINE
8
boundary
62
5
39
2
10
567.667488
20
10.567500
11
585.717487
21
46.667499
0
LINE
8
boundary
62
5
39
2
10
585.717487
20
46.667499
11
584.300273
21
48.084713
0
LINE
8
boundary
62
5
39
2
10
584.300273
20
48.084713
11
572.100271
21
60.284716
0
LINE
8
boundary
62
5
39
2
10
572.100271
20
60.284716
11
566.394273
21
65.990715
0
LINE
8
boundary
62
5
39
2
10
566.394273
20
65.990715
11
565.943083
21
66.441904
0
LINE
8
boundary
62
5
39
2
10
565.943083
20
66.441904
11
529.617489
21
66.667499
0
LINE
8
boundary
62
5
39
2
10
529.617489
20
66.667499
11
525.717489
21
66.667499
0
LINE
8
boundary
62
5
39
2
10
525.717489
20
66.667499
11
525.040704
21
65.990715
0
LINE
8
boundary
62
5
39
2
10
525.040704
20
65.990715
11
519.334706
21
60.284716
0
LINE
8
boundary
62
5
39
2
10
519.334706
20
60.284716
11
507.134704
21
48.084713
0
LINE
8
boundary
62
5
39
2
10
507.134704
20
48.084713
11
506.189894
21
47.139904
0
LINE
8
boundary
62
5
39
2
10
506.189894
20
47.139904
11
505.717489
21
46.667499
0
LINE
8
boundary
62
5
39
2
10
505.717489
20
46.667499
11
523.767489
21
10.567500
0
LINE
8
annotation
62
1
39
211
10
528.217552
20
9.467500
11
528.217563
21
36.667513
0
LINE
8
annotation
62
1
39
211
10
528.217563
20
36.667513
11
530.200824
21
36.667446
0
LINE
8
annotation
62
1
39
211
10
530.200824
20
36.667446
11
563.217430
21
36.667542
0
LINE
8
annotation
62
1
39
211
10
563.217430
20
36.667542
11
563.217431
21
9.467500
0
LINE
8
annotation
62
1
39
211
10
577.717488
20
36.667499
11
577.717488
21
38.096249
0
LINE
8
annotation
62
1
39
211
10
513.717489
20
36.667499
11
515.146239
21
36.667499
0
LINE
8
annotation
62
1
39
211
10
545.717488
20
60.667499
11
545.717488
21
62.096249
0
LINE
8
annotation
62
1
39
211
10
545.717488
20
60.667499
11
545.717488
21
62.096249
0
LINE
8
annotation
62
1
39
211
10
545.717488
20
62.096249
11
545.717488
21
60.667499
0
LINE
8
annotation
62
1
39
211
10
545.717488
20
60.667499
11
547.146238
21
60.667499
0
LINE
8
annotation
62
1
39
211
10
566.313113
20
15.286875
11
566.313112
21
13.858125
0
LINE
8
annotation
62
1
39
211
10
540.858775
20
21.015701
11
528.066727
21
21.015701
0
LINE
8
annotation
62
1
39
211
10
528.066727
20
21.015701
11
539.886998
21
40.044820
0
LINE
8
annotation
62
1
39
211
10
539.886998
20
40.044820
11
539.886998
21
40.044820
0
LINE
8
annotation
62
1
39
211
10
539.886998
20
40.044820
11
539.901129
21
40.062305
0
LINE
8
annotation
62
1
39
211
10
539.901129
20
40.062305
11
539.914680
21
40.079939
0
LINE
8
annotation
62
1
39
211
10
539.914680
20
40.079939
11
539.927740
21
40.097871
0
LINE
8
annotation
62
1
39
211
10
539.927740
20
40.097871
11
539.940399
21
40.116248
0
LINE
8
annotation
62
1
39
211
10
539.940399
20
40.116248
11
539.952745
21
40.135220
0
LINE
8
annotation
62
1
39
211
10
539.952745
20
40.135220
11
539.964869
21
40.154936
0
LINE
8
annotation
62
1
39
211
10
539.964869
20
40.154936
11
539.976859
21
40.175543
0
LINE
8
annotation
62
1
39
211
10
539.976859
20
40.175543
11
539.988804
21
40.197191
0
LINE
8
annotation
62
1
39
211
10
539.988804
20
40.197191
11
540.000794
21
40.220029
0
LINE
8
annotation
62
1
39
211
10
540.000794
20
40.220029
11
540.000794
21
40.220029
0
LINE
8
annotation
62
1
39
211
10
540.000794
20
40.220029
11
540.488850
21
41.267926
0
LINE
8
annotation
62
1
39
211
10
540.488850
20
41.267926
11
540.773964
21
42.354165
0
LINE
8
annotation
62
1
39
211
10
540.773964
20
42.354165
11
540.863123
21
43.454199
0
LINE
8
annotation
62
1
39
211
10
540.863123
20
43.454199
11
540.763315
21
44.543485
0
LINE
8
annotation
62
1
39
211
10
540.763315
20
44.543485
11
540.481526
21
45.597479
0
LINE
8
annotation
62
1
39
211
10
540.481526
20
45.597479
11
540.024744
21
46.591634
0
LINE
8
annotation
62
1
39
211
10
540.024744
20
46.591634
11
539.399955
21
47.501408
0
LINE
8
annotation
62
1
39
211
10
539.399955
20
47.501408
11
538.614149
21
48.302254
0
LINE
8
annotation
62
1
39
211
10
538.614149
20
48.302254
11
537.674310
21
48.969630
0
LINE
8
annotation
62
1
39
211
10
537.674310
20
48.969630
11
537.674310
21
48.969630
0
LINE
8
annotation
62
1
39
211
10
537.674310
20
48.969630
11
536.623498
21
49.450751
0
LINE
8
annotation
62
1
39
211
10
536.623498
20
49.450751
11
535.535595
21
49.731472
0
LINE
8
annotation
62
1
39
211
10
535.535595
20
49.731472
11
534.434921
21
49.818112
0
LINE
8
annotation
62
1
39
211
10
534.434921
20
49.818112
11
533.345799
21
49.716987
0
LINE
8
annotation
62
1
39
211
10
533.345799
20
49.716987
11
532.292549
21
49.434418
0
LINE
8
annotation
62
1
39
211
10
532.292549
20
49.434418
11
531.299493
21
48.976721
0
LINE
8
annotation
62
1
39
211
10
531.299493
20
48.976721
11
530.390954
21
48.350216
0
LINE
8
annotation
62
1
39
211
10
530.390954
20
48.350216
11
529.591252
21
47.561220
0
LINE
8
annotation
62
1
39
211
10
529.591252
20
47.561220
11
528.924708
21
46.616052
0
LINE
8
annotation
62
1
39
211
10
528.924708
20
46.616052
11
528.084790
21
45.004854
0
LINE
8
hole
62
5
39
2
10
608.011112
20
15.001125
11
608.582612
21
15.001125
0
LINE
8
hole
62
5
39
2
10
608.582612
20
15.001125
11
608.582612
21
15.572625
0
LINE
8
hole
62
5
39
2
10
608.582612
20
15.572625
11
608.011112
21
15.572625
0
LINE
8
hole
62
5
39
2
10
608.011112
20
15.572625
11
608.011112
21
15.001125
0
LINE
8
hole
62
5
39
2
10
657.590388
20
30.302178
11
658.161888
21
30.302178
0
LINE
8
hole
62
5
39
2
10
658.161888
20
30.302178
11
658.161888
21
30.873678
0
LINE
8
hole
62
5
39
2
10
658.161888
20
30.873678
11
657.590388
21
30.873678
0
LINE
8
hole
62
5
39
2
10
657.590388
20
30.873678
11
657.590388
21
30.302178
0
LINE
8
hole
62
5
39
2
10
637.935303
20
38.238301
11
638.506803
21
38.238301
0
LINE
8
hole
62
5
39
2
10
638.506803
20
38.238301
11
638.506803
21
38.809801
0
LINE
8
hole
62
5
39
2
10
638.506803
20
38.809801
11
637.935303
21
38.809801
0
LINE
8
hole
62
5
39
2
10
637.935303
20
38.809801
11
637.935303
21
38.238301
0
LINE
8
hole
62
5
39
2
10
599.623086
20
30.302178
11
600.194586
21
30.302178
0
LINE
8
hole
62
5
39
2
10
600.194586
20
30.302178
11
600.194586
21
30.873678
0
LINE
8
hole
62
5
39
2
10
600.194586
20
30.873678
11
599.623086
21
30.873678
0
LINE
8
hole
62
5
39
2
10
599.623086
20
30.873678
11
599.623086
21
30.302178
0
LINE
8
boundary
62
5
39
2
10
602.742487
20
18.967500
11
608.892487
21
6.667500
0
LINE
8
boundary
62
5
39
2
10
608.892487
20
6.667500
11
610.871059
21
6.667500
0
LINE
8
boundary
62
5
39
2
10
610.871059
20
6.667500
11
611.392487
21
6.667500
0
LINE
8
boundary
62
5
39
2
10
611.392487
20
6.667500
11
611.392487
21
13.967496
0
LINE
8
boundary
62
5
39
2
10
611.392487
20
13.967496
11
611.392487
21
36.667500
0
LINE
8
boundary
62
5
39
2
10
611.392487
20
36.667500
11
619.909149
21
36.667500
0
LINE
8
boundary
62
5
39
2
10
619.909149
20
36.667500
11
646.392486
21
36.667500
0
LINE
8
boundary
62
5
39
2
10
646.392486
20
36.667500
11
646.392486
21
13.967496
0
LINE
8
boundary
62
5
39
2
10
646.392486
20
13.967496
11
646.392486
21
6.667500
0
LINE
8
boundary
62
5
39
2
10
646.392486
20
6.667500
11
646.913914
21
6.667500
0
LINE
8
boundary
62
5
39
2
10
646.913914
20
6.667500
11
648.892486
21
6.667500
0
LINE
8
boundary
62
5
39
2
10
648.892486
20
6.667500
11
655.042486
21
18.967500
0
LINE
8
boundary
62
5
39
2
10
655.042486
20
18.967500
11
668.892486
21
46.667499
0
LINE
8
boundary
62
5
39
2
10
668.892486
20
46.667499
11
665.537199
21
50.022786
0
LINE
8
boundary
62
5
39
2
10
665.537199
20
50.022786
11
664.620613
21
49.934782
0
LINE
8
boundary
62
5
39
2
10
664.620613
20
49.934782
11
659.710860
21
47.113547
0
LINE
8
boundary
62
5
39
2
10
659.710860
20
47.113547
11
659.041026
21
46.809001
0
LINE
8
boundary
62
5
39
2
10
659.041026
20
46.809001
11
653.886205
21
44.465317
0
LINE
8
boundary
62
5
39
2
10
653.886205
20
44.465317
11
653.190544
21
44.225563
0
LINE
8
boundary
62
5
39
2
10
653.190544
20
44.225563
11
647.836968
21
42.380494
0
LINE
8
boundary
62
5
39
2
10
647.836968
20
42.380494
11
647.121732
21
42.207686
0
LINE
8
boundary
62
5
39
2
10
647.121732
20
42.207686
11
641.617511
21
40.877807
0
LINE
8
boundary
62
5
39
2
10
641.617511
20
40.877807
11
640.889125
21
40.773496
0
LINE
8
boundary
62
5
39
2
10
640.889125
20
40.773496
11
635.283713
21
39.970760
0
LINE
8
boundary
62
5
39
2
10
635.283713
20
39.970760
11
634.548723
21
39.935885
0
LINE
8
boundary
62
5
39
2
10
634.548723
20
39.935885
11
628.892487
21
39.667502
0
LINE
8
boundary
62
5
39
2
10
628.892487
20
39.667502
11
628.157497
21
39.702377
0
LINE
8
boundary
62
5
39
2
10
628.157497
20
39.702377
11
622.501260
21
39.970760
0
LINE
8
boundary
62
5
39
2
10
622.501260
20
39.970760
11
621.772874
21
40.075070
0
LINE
8
boundary
62
5
39
2
10
621.772874
20
40.075070
11
616.167462
21
40.877807
0
LINE
8
boundary
62
5
39
2
10
616.167462
20
40.877807
11
615.452226
21
41.050615
0
LINE
8
boundary
62
5
39
2
10
615.452226
20
41.050615
11
609.948005
21
42.380494
0
LINE
8
boundary
62
5
39
2
10
609.948005
20
42.380494
11
609.252344
21
42.620249
0
LINE
8
boundary
62
5
39
2
10
609.252344
20
42.620249
11
603.898768
21
44.465317
0
LINE
8
boundary
62
5
39
2
10
603.898768
20
44.465317
11
603.228934
21
44.769863
0
LINE
8
boundary
62
5
39
2
10
603.228934
20
44.769863
11
598.074113
21
47.113547
0
LINE
8
boundary
62
5
39
2
10
598.074113
20
47.113547
11
597.436123
21
47.480147
0
LINE
8
boundary
62
5
39
2
10
597.436123
20
47.480147
11
592.526371
21
50.301383
0
LINE
8
boundary
62
5
39
2
10
592.526371
20
50.301383
11
590.382380
21
48.157391
0
LINE
8
boundary
62
5
39
2
10
590.382380
20
48.157391
11
588.892487
21
46.667499
0
LINE
8
boundary
62
5
39
2
10
588.892487
20
46.667499
11
602.742487
21
18.967500
0
LINE
8
annotation
62
1
39
211
10
638.221053
20
38.524051
11
638.221053
21
39.952801
0
LINE
8
annotation
62
1
39
211
10
608.296862
20
15.286875
11
608.296862
21
16.715625
0
LINE
8
annotation
62
1
39
211
10
608.296862
20
15.286875
11
608.296862
21
16.715625
0
LINE
8
annotation
62
1
39
211
10
608.296862
20
16.715625
11
608.296862
21
15.286875
0
LINE
8
annotation
62
1
39
211
10
608.296862
20
15.286875
11
609.725612
21
15.286875
0
LINE
8
annotation
62
1
39
211
10
608.296862
20
15.286875
11
608.296862
21
16.715625
0
LINE
8
annotation
62
1
39
211
10
608.296862
20
16.715625
11
608.296862
21
15.286875
0
LINE
8
annotation
62
1
39
211
10
608.296862
20
15.286875
11
609.725612
21
15.286875
0
LINE
8
annotation
62
1
39
211
10
609.725612
20
15.286875
11
608.296862
21
15.286875
0
LINE
8
annotation
62
1
39
211
10
608.296862
20
15.286875
11
608.296862
21
13.858125
0
LINE
8
annotation
62
1
39
211
10
657.876138
20
30.587928
11
657.876138
21
32.016678
0
LINE
8
annotation
62
1
39
211
10
657.876138
20
30.587928
11
657.876138
21
32.016678
0
LINE
8
annotation
62
1
39
211
10
657.876138
20
32.016678
11
657.876138
21
30.587928
0
LINE
8
annotation
62
1
39
211
10
657.876138
20
30.587928
11
659.304888
21
30.587928
0
LINE
8
annotation
62
1
39
211
10
599.908836
20
30.587928
11
599.908835
21
29.159178
0
LINE
8
annotation
62
1
39
211
10
649.817181
20
30.794672
11
650.456783
21
30.794672
0
LINE
8
annotation
62
1
39
211
10
650.456783
20
30.794672
11
650.456783
21
30.794672
0
LINE
8
annotation
62
1
39
211
10
650.456783
20
30.794672
11
650.571580
21
30.804994
0
LINE
8
annotation
62
1
39
211
10
650.571580
20
30.804994
11
650.679696
21
30.834750
0
LINE
8
annotation
62
1
39
211
10
650.679696
20
30.834750
11
650.779311
21
30.882130
0
LINE
8
annotation
62
1
39
211
10
650.779311
20
30.882130
11
650.868600
21
30.945319
0
LINE
8
annotation
62
1
39
211
10
650.868600
20
30.945319
11
650.945743
21
31.022507
0
LINE
8
annotation
62
1
39
211
10
650.945743
20
31.022507
11
651.008915
21
31.111881
0
LINE
8
annotation
62
1
39
211
10
651.008915
20
31.111881
11
651.056295
21
31.211629
0
LINE
8
annotation
62
1
39
211
10
651.056295
20
31.211629
11
651.086059
21
31.319938
0
LINE
8
annotation
62
1
39
211
10
651.086059
20
31.319938
11
651.096386
21
31.434997
0
LINE
8
annotation
62
1
39
211
10
651.096386
20
31.434997
11
651.096386
21
31.753624
0
LINE
8
annotation
62
1
39
211
10
651.096386
20
31.753624
11
651.096386
21
31.753624
0
LINE
8
annotation
62
1
39
211
10
651.096386
20
31.753624
11
651.086065
21
31.868627
0
LINE
8
annotation
62
1
39
211
10
651.086065
20
31.868627
11
651.056316
21
31.976787
0
LINE
8
annotation
62
1
39
211
10
651.056316
20
31.976787
11
651.008955
21
32.076319
0
LINE
8
annotation
62
1
39
211
10
651.008955
20
32.076319
11
650.945802
21
32.165437
0
LINE
8
annotation
62
1
39
211
10
650.945802
20
32.165437
11
650.868675
21
32.242355
0
LINE
8
annotation
62
1
39
211
10
650.868675
20
32.242355
11
650.779391
21
32.305288
0
LINE
8
annotation
62
1
39
211
10
650.779391
20
32.305288
11
650.679769
21
32.352451
0
LINE
8
annotation
62
1
39
211
10
650.679769
20
32.352451
11
650.571627
21
32.382058
0
LINE
8
annotation
62
1
39
211
10
650.571627
20
32.382058
11
650.456783
21
32.392324
0
LINE
8
annotation
62
1
39
211
10
650.456783
20
32.392324
11
649.817181
21
32.392324
0
LINE
8
annotation
62
1
39
211
10
649.817181
20
32.392324
11
649.817181
21
33.674960
0
LINE
8
annotation
62
1
39
211
10
649.817181
20
33.674960
11
651.096386
21
33.674960
0
LINE
8
annotation
62
1
39
211
10
653.751657
20
32.234816
11
652.176765
21
32.234816
0
LINE
8
annotation
62
1
39
211
10
655.471909
20
30.794672
11
655.471909
21
33.674960
0
LINE
8
annotation
62
1
39
211
10
655.471909
20
33.674960
11
654.831584
21
33.034455
0
LINE
8
hole
62
5
39
2
10
617.490984
20
56.895647
11
618.062484
21
56.895647
0
LINE
8
hole
62
5
39
2
10
618.062484
20
56.895647
11
618.062484
21
57.467147
0
LINE
8
hole
62
5
39
2
10
618.062484
20
57.467147
11
617.490984
21
57.467147
0
LINE
8
hole
62
5
39
2
10
617.490984
20
57.467147
11
617.490984
21
56.895647
0
LINE
8
hole
62
5
39
2
10
610.580208
20
58.240409
11
611.151708
21
58.240409
0
LINE
8
hole
62
5
39
2
10
611.151708
20
58.240409
11
611.151708
21
58.811909
0
LINE
8
hole
62
5
39
2
10
611.151708
20
58.811909
11
610.580208
21
58.811909
0
LINE
8
hole
62
5
39
2
10
610.580208
20
58.811909
11
610.580208
21
58.240409
0
LINE
8
hole
62
5
39
2
10
610.580208
20
55.074636
11
611.151708
21
55.074636
0
LINE
8
hole
62
5
39
2
10
611.151708
20
55.074636
11
611.151708
21
55.646136
0
LINE
8
hole
62
5
39
2
10
611.151708
20
55.646136
11
610.580208
21
55.646136
0
LINE
8
hole
62
5
39
2
10
610.580208
20
55.646136
11
610.580208
21
55.074636
0
LINE
8
hole
62
5
39
2
10
603.193182
20
56.895647
11
603.764682
21
56.895647
0
LINE
8
hole
62
5
39
2
10
603.764682
20
56.895647
11
603.764682
21
57.467147
0
LINE
8
hole
62
5
39
2
10
603.764682
20
57.467147
11
603.193182
21
57.467147
0
LINE
8
hole
62
5
39
2
10
603.193182
20
57.467147
11
603.193182
21
56.895647
0
LINE
8
boundary
62
5
39
2
10
605.727833
20
60.410162
11
590.627833
21
60.410162
0
LINE
8
boundary
62
5
39
2
10
590.627833
20
60.410162
11
589.187496
21
58.969826
0
LINE
8
boundary
62
5
39
2
10
589.187496
20
58.969826
11
592.299833
21
57.143084
0
LINE
8
boundary
62
5
39
2
10
592.299833
20
57.143084
11
593.466105
21
56.618799
0
LINE
8
boundary
62
5
39
2
10
593.466105
20
56.618799
11
597.015943
21
55.454808
0
LINE
8
boundary
62
5
39
2
10
597.015943
20
55.454808
11
598.230987
21
55.056395
0
LINE
8
boundary
62
5
39
2
10
598.230987
20
55.056395
11
601.883753
21
54.273120
0
LINE
8
boundary
62
5
39
2
10
601.883753
20
54.273120
11
603.134027
21
54.005019
0
LINE
8
boundary
62
5
39
2
10
603.134027
20
54.005019
11
606.849012
21
53.611185
0
LINE
8
boundary
62
5
39
2
10
606.849012
20
53.611185
11
608.120583
21
53.476383
0
LINE
8
boundary
62
5
39
2
10
608.120583
20
53.476383
11
611.856386
21
53.476383
0
LINE
8
boundary
62
5
39
2
10
611.856386
20
53.476383
11
613.135082
21
53.476383
0
LINE
8
boundary
62
5
39
2
10
613.135082
20
53.476383
11
616.850067
21
53.870217
0
LINE
8
boundary
62
5
39
2
10
616.850067
20
53.870217
11
618.121639
21
54.005019
0
LINE
8
boundary
62
5
39
2
10
618.121639
20
54.005019
11
621.774404
21
54.788294
0
LINE
8
boundary
62
5
39
2
10
621.774404
20
54.788294
11
623.024678
21
55.056395
0
LINE
8
boundary
62
5
39
2
10
623.024678
20
55.056395
11
626.574517
21
56.220386
0
LINE
8
boundary
62
5
39
2
10
626.574517
20
56.220386
11
627.789561
21
56.618799
0
LINE
8
boundary
62
5
39
2
10
627.789561
20
56.618799
11
631.196906
21
58.150534
0
LINE
8
boundary
62
5
39
2
10
631.196906
20
58.150534
11
632.363178
21
58.674818
0
LINE
8
boundary
62
5
39
2
10
632.363178
20
58.674818
11
631.501289
21
59.536706
0
LINE
8
boundary
62
5
39
2
10
631.501289
20
59.536706
11
630.627832
21
60.410162
0
LINE
8
boundary
62
5
39
2
10
630.627832
20
60.410162
11
605.727833
21
60.410162
0
LINE
8
annotation
62
1
39
211
10
629.394377
20
60.410137
11
629.394377
21
60.410137
0
LINE
8
annotation
62
1
39
211
10
617.776734
20
57.181397
11
617.776734
21
58.610147
0
LINE
8
annotation
62
1
39
211
10
617.776734
20
57.181397
11
617.776734
21
58.610147
0
LINE
8
annotation
62
1
39
211
10
617.776734
20
58.610147
11
617.776734
21
57.181397
0
LINE
8
annotation
62
1
39
211
10
617.776734
20
57.181397
11
616.347984
21
57.181397
0
LINE
8
annotation
62
1
39
211
10
603.478932
20
57.181397
11
604.907681
21
57.181397
0
LINE
8
annotation
62
1
39
211
10
603.478932
20
57.181397
11
604.907681
21
57.181397
0
LINE
8
annotation
62
1
39
211
10
604.907681
20
57.181397
11
603.478932
21
57.181397
0
LINE
8
annotation
62
1
39
211
10
603.478932
20
57.181397
11
602.050182
21
57.181397
0
LINE
8
annotation
62
1
39
211
10
610.865958
20
58.526159
11
610.865958
21
59.954909
0
LINE
8
annotation
62
1
39
211
10
610.865958
20
58.526159
11
610.865958
21
59.954909
0
LINE
8
annotation
62
1
39
211
10
610.865958
20
59.954909
11
610.865958
21
58.526159
0
LINE
8
annotation
62
1
39
211
10
610.865958
20
58.526159
11
612.294708
21
58.526159
0
LINE
8
annotation
62
1
39
211
10
610.865958
20
58.526159
11
610.865958
21
59.954909
0
LINE
8
annotation
62
1
39
211
10
610.865958
20
59.954909
11
610.865958
21
58.526159
0
LINE
8
annotation
62
1
39
211
10
610.865958
20
58.526159
11
612.294708
21
58.526159
0
LINE
8
annotation
62
1
39
211
10
612.294708
20
58.526159
11
610.865958
21
58.526159
0
LINE
8
annotation
62
1
39
211
10
610.865958
20
58.526159
11
609.437208
21
58.526159
0
LINE
8
annotation
62
1
39
211
10
610.865958
20
55.360386
11
610.865958
21
53.931636
0
LINE
8
annotation
62
1
39
211
10
610.865958
20
55.360386
11
610.865958
21
53.931636
0
LINE
8
annotation
62
1
39
211
10
610.865958
20
53.931636
11
610.865958
21
55.360386
0
LINE
8
annotation
62
1
39
211
10
610.865958
20
55.360386
11
609.437208
21
55.360386
0
LINE
8
annotation
62
1
39
211
10
608.930827
20
59.187671
11
608.930827
21
59.187671
0
LINE
8
annotation
62
1
39
211
10
608.930827
20
59.187671
11
608.731699
21
59.113010
0
LINE
8
annotation
62
1
39
211
10
608.731699
20
59.113010
11
608.548973
21
59.012413
0
LINE
8
annotation
62
1
39
211
10
608.548973
20
59.012413
11
608.384524
21
58.888401
0
LINE
8
annotation
62
1
39
211
10
608.384524
20
58.888401
11
608.240229
21
58.743493
0
LINE
8
annotation
62
1
39
211
10
608.240229
20
58.743493
11
608.117963
21
58.580211
0
LINE
8
annotation
62
1
39
211
10
608.117963
20
58.580211
11
608.019602
21
58.401075
0
LINE
8
annotation
62
1
39
211
10
608.019602
20
58.401075
11
607.947022
21
58.208604
0
LINE
8
annotation
62
1
39
211
10
607.947022
20
58.208604
11
607.902098
21
58.005321
0
LINE
8
annotation
62
1
39
211
10
607.902098
20
58.005321
11
607.886707
21
57.793744
0
LINE
8
annotation
62
1
39
211
10
607.886707
20
57.793744
11
607.886707
21
56.753353
0
LINE
8
annotation
62
1
39
211
10
607.886707
20
56.753353
11
607.886707
21
56.753353
0
LINE
8
annotation
62
1
39
211
10
607.886707
20
56.753353
11
607.897929
21
56.628311
0
LINE
8
annotation
62
1
39
211
10
607.897929
20
56.628311
11
607.930276
21
56.510603
0
LINE
8
annotation
62
1
39
211
10
607.930276
20
56.510603
11
607.981767
21
56.402201
0
LINE
8
annotation
62
1
39
211
10
607.981767
20
56.402201
11
608.050420
21
56.305072
0
LINE
8
annotation
62
1
39
211
10
608.050420
20
56.305072
11
608.134256
21
56.221187
0
LINE
8
annotation
62
1
39
211
10
608.134256
20
56.221187
11
608.231293
21
56.152514
0
LINE
8
annotation
62
1
39
211
10
608.231293
20
56.152514
11
608.339551
21
56.101024
0
LINE
8
annotation
62
1
39
211
10
608.339551
20
56.101024
11
608.457049
21
56.068686
0
LINE
8
annotation
62
1
39
211
10
608.457049
20
56.068686
11
608.581806
21
56.057469
0
LINE
8
annotation
62
1
39
211
10
608.581806
20
56.057469
11
608.581806
21
56.057469
0
LINE
8
annotation
62
1
39
211
10
608.581806
20
56.057469
11
608.706821
21
56.068686
0
LINE
8
annotation
62
1
39
211
10
608.706821
20
56.068686
11
608.824456
21
56.101024
0
LINE
8
annotation
62
1
39
211
10
608.824456
20
56.101024
11
608.932754
21
56.152514
0
LINE
8
annotation
62
1
39
211
10
608.932754
20
56.152514
11
609.029759
21
56.221187
0
LINE
8
annotation
62
1
39
211
10
609.029759
20
56.221187
11
609.113514
21
56.305072
0
LINE
8
annotation
62
1
39
211
10
609.113514
20
56.305072
11
609.182062
21
56.402201
0
LINE
8
annotation
62
1
39
211
10
609.182062
20
56.402201
11
609.233448
21
56.510603
0
LINE
8
annotation
62
1
39
211
10
609.233448
20
56.510603
11
609.265714
21
56.628311
0
LINE
8
annotation
62
1
39
211
10
609.265714
20
56.628311
11
609.276905
21
56.753353
0
LINE
8
annotation
62
1
39
211
10
609.276905
20
56.753353
11
609.276905
21
57.099626
0
LINE
8
annotation
62
1
39
211
10
609.276905
20
57.099626
11
609.276905
21
57.099626
0
LINE
8
annotation
62
1
39
211
10
609.276905
20
57.099626
11
609.265714
21
57.224608
0
LINE
8
annotation
62
1
39
211
10
609.265714
20
57.224608
11
609.233448
21
57.342153
0
LINE
8
annotation
62
1
39
211
10
609.233448
20
57.342153
11
609.182062
21
57.450320
0
LINE
8
annotation
62
1
39
211
10
609.182062
20
57.450320
11
609.113514
21
57.547170
0
LINE
8
annotation
62
1
39
211
10
609.113514
20
57.547170
11
609.029759
21
57.630762
0
LINE
8
annotation
62
1
39
211
10
609.029759
20
57.630762
11
608.932754
21
57.699156
0
LINE
8
annotation
62
1
39
211
10
608.932754
20
57.699156
11
608.824456
21
57.750411
0
LINE
8
annotation
62
1
39
211
10
608.824456
20
57.750411
11
608.706821
21
57.782587
0
LINE
8
annotation
62
1
39
211
10
608.706821
20
57.782587
11
608.581806
21
57.793744
0
LINE
8
annotation
62
1
39
211
10
608.581806
20
57.793744
11
607.886707
21
57.793744
0
LINE
8
annotation
62
1
39
211
10
607.799648
20
55.666193
11
609.364749
21
55.666193
0
LINE
8
annotation
62
1
39
211
10
612.162566
20
57.622570
11
610.451025
21
57.622570
0
LINE
8
annotation
62
1
39
211
10
614.726532
20
56.057443
11
613.336334
21
56.057443
0
LINE
8
annotation
62
1
39
211
10
613.336334
20
56.057443
11
614.620923
21
58.125466
0
LINE
8
annotation
62
1
39
211
10
614.620923
20
58.125466
11
614.620923
21
58.125466
0
LINE
8
annotation
62
1
39
211
10
614.620923
20
58.125466
11
614.622458
21
58.127366
0
LINE
8
annotation
62
1
39
211
10
614.622458
20
58.127366
11
614.623931
21
58.129282
0
LINE
8
annotation
62
1
39
211
10
614.623931
20
58.129282
11
614.625350
21
58.131231
0
LINE
8
annotation
62
1
39
211
10
614.625350
20
58.131231
11
614.626726
21
58.133228
0
LINE
8
annotation
62
1
39
211
10
614.626726
20
58.133228
11
614.628068
21
58.135290
0
LINE
8
annotation
62
1
39
211
10
614.628068
20
58.135290
11
614.629385
21
58.137433
0
LINE
8
annotation
62
1
39
211
10
614.629385
20
58.137433
11
614.630688
21
58.139672
0
LINE
8
annotation
62
1
39
211
10
614.630688
20
58.139672
11
614.631986
21
58.142025
0
LINE
8
annotation
62
1
39
211
10
614.631986
20
58.142025
11
614.633289
21
58.144507
0
LINE
8
annotation
62
1
39
211
10
614.633289
20
58.144507
11
614.633289
21
58.144507
0
LINE
8
annotation
62
1
39
211
10
614.633289
20
58.144507
11
614.686330
21
58.258389
0
LINE
8
annotation
62
1
39
211
10
614.686330
20
58.258389
11
614.717315
21
58.376438
0
LINE
8
annotation
62
1
39
211
10
614.717315
20
58.376438
11
614.727005
21
58.495986
0
LINE
8
annotation
62
1
39
211
10
614.727005
20
58.495986
11
614.716158
21
58.614366
0
LINE
8
annotation
62
1
39
211
10
614.716158
20
58.614366
11
614.685534
21
58.728910
0
LINE
8
annotation
62
1
39
211
10
614.685534
20
58.728910
11
614.635892
21
58.836952
0
LINE
8
annotation
62
1
39
211
10
614.635892
20
58.836952
11
614.567992
21
58.935823
0
LINE
8
annotation
62
1
39
211
10
614.567992
20
58.935823
11
614.482593
21
59.022857
0
LINE
8
annotation
62
1
39
211
10
614.482593
20
59.022857
11
614.380455
21
59.095385
0
LINE
8
annotation
62
1
39
211
10
614.380455
20
59.095385
11
614.380455
21
59.095385
0
LINE
8
annotation
62
1
39
211
10
614.380455
20
59.095385
11
614.266256
21
59.147671
0
LINE
8
annotation
62
1
39
211
10
614.266256
20
59.147671
11
614.148026
21
59.178179
0
LINE
8
annotation
62
1
39
211
10
614.148026
20
59.178179
11
614.028409
21
59.187595
0
LINE
8
annotation
62
1
39
211
10
614.028409
20
59.187595
11
613.910046
21
59.176605
0
LINE
8
annotation
62
1
39
211
10
613.910046
20
59.176605
11
613.795583
21
59.145896
0
LINE
8
annotation
62
1
39
211
10
613.795583
20
59.145896
11
613.687661
21
59.096155
0
LINE
8
annotation
62
1
39
211
10
613.687661
20
59.096155
11
613.588923
21
59.028069
0
LINE
8
annotation
62
1
39
211
10
613.588923
20
59.028069
11
613.502014
21
58.942323
0
LINE
8
annotation
62
1
39
211
10
613.502014
20
58.942323
11
613.429577
21
58.839606
0
LINE
8
annotation
62
1
39
211
10
613.429577
20
58.839606
11
613.338297
21
58.664506
0
LINE
8
hole
62
5
39
2
10
740.765386
20
30.302178
11
741.336886
21
30.302178
0
LINE
8
hole
62
5
39
2
10
741.336886
20
30.302178
11
741.336886
21
30.873678
0
LINE
8
hole
62
5
39
2
10
741.336886
20
30.873678
11
740.765386
21
30.873678
0
LINE
8
hole
62
5
39
2
10
740.765386
20
30.873678
11
740.765386
21
30.302178
0
LINE
8
hole
62
5
39
2
10
691.186111
20
14.793264
11
691.757611
21
14.793264
0
LINE
8
hole
62
5
39
2
10
691.757611
20
14.793264
11
691.757611
21
15.364764
0
LINE
8
hole
62
5
39
2
10
691.757611
20
15.364764
11
691.186111
21
15.364764
0
LINE
8
hole
62
5
39
2
10
691.186111
20
15.364764
11
691.186111
21
14.793264
0
LINE
8
hole
62
5
39
2
10
703.267970
20
38.205213
11
703.839470
21
38.205213
0
LINE
8
hole
62
5
39
2
10
703.839470
20
38.205213
11
703.839470
21
38.776713
0
LINE
8
hole
62
5
39
2
10
703.839470
20
38.776713
11
703.267970
21
38.776713
0
LINE
8
hole
62
5
39
2
10
703.267970
20
38.776713
11
703.267970
21
38.205213
0
LINE
8
hole
62
5
39
2
10
682.798084
20
30.302178
11
683.369584
21
30.302178
0
LINE
8
hole
62
5
39
2
10
683.369584
20
30.302178
11
683.369584
21
30.873678
0
LINE
8
hole
62
5
39
2
10
683.369584
20
30.873678
11
682.798084
21
30.873678
0
LINE
8
hole
62
5
39
2
10
682.798084
20
30.873678
11
682.798084
21
30.302178
0
LINE
8
boundary
62
5
39
2
10
684.517485
20
21.767500
11
692.067485
21
6.667500
0
LINE
8
boundary
62
5
39
2
10
692.067485
20
6.667500
11
693.846057
21
6.667500
0
LINE
8
boundary
62
5
39
2
10
693.846057
20
6.667500
11
694.567486
21
6.667500
0
LINE
8
boundary
62
5
39
2
10
694.567486
20
6.667500
11
694.567486
21
16.767496
0
LINE
8
boundary
62
5
39
2
10
694.567486
20
16.767496
11
694.567486
21
36.667500
0
LINE
8
boundary
62
5
39
2
10
694.567486
20
36.667500
11
706.350814
21
36.667500
0
LINE
8
boundary
62
5
39
2
10
706.350814
20
36.667500
11
729.567484
21
36.667500
0
LINE
8
boundary
62
5
39
2
10
729.567484
20
36.667500
11
729.567484
21
16.767497
0
LINE
8
boundary
62
5
39
2
10
729.567484
20
16.767497
11
729.567484
21
6.667500
0
LINE
8
boundary
62
5
39
2
10
729.567484
20
6.667500
11
730.288913
21
6.667500
0
LINE
8
boundary
62
5
39
2
10
730.288913
20
6.667500
11
732.067484
21
6.667500
0
LINE
8
boundary
62
5
39
2
10
732.067484
20
6.667500
11
739.617484
21
21.767500
0
LINE
8
boundary
62
5
39
2
10
739.617484
20
21.767500
11
752.067484
21
46.667499
0
LINE
8
boundary
62
5
39
2
10
752.067484
20
46.667499
11
749.051360
21
49.683623
0
LINE
8
boundary
62
5
39
2
10
749.051360
20
49.683623
11
748.433600
21
50.301383
0
LINE
8
boundary
62
5
39
2
10
748.433600
20
50.301383
11
747.018927
21
49.488485
0
LINE
8
boundary
62
5
39
2
10
747.018927
20
49.488485
11
742.885859
21
47.113547
0
LINE
8
boundary
62
5
39
2
10
742.885859
20
47.113547
11
741.400573
21
46.438249
0
LINE
8
boundary
62
5
39
2
10
741.400573
20
46.438249
11
737.061204
21
44.465317
0
LINE
8
boundary
62
5
39
2
10
737.061204
20
44.465317
11
735.518649
21
43.933688
0
LINE
8
boundary
62
5
39
2
10
735.518649
20
43.933688
11
731.011967
21
42.380494
0
LINE
8
boundary
62
5
39
2
10
731.011967
20
42.380494
11
729.426006
21
41.997309
0
LINE
8
boundary
62
5
39
2
10
729.426006
20
41.997309
11
724.792509
21
40.877807
0
LINE
8
boundary
62
5
39
2
10
724.792509
20
40.877807
11
723.177392
21
40.646510
0
LINE
8
boundary
62
5
39
2
10
723.177392
20
40.646510
11
718.458711
21
39.970760
0
LINE
8
boundary
62
5
39
2
10
718.458711
20
39.970760
11
716.828950
21
39.893429
0
LINE
8
boundary
62
5
39
2
10
716.828950
20
39.893429
11
712.067485
21
39.667502
0
LINE
8
boundary
62
5
39
2
10
712.067485
20
39.667502
11
710.437723
21
39.744833
0
LINE
8
boundary
62
5
39
2
10
710.437723
20
39.744833
11
705.676258
21
39.970760
0
LINE
8
boundary
62
5
39
2
10
705.676258
20
39.970760
11
704.061141
21
40.202056
0
LINE
8
boundary
62
5
39
2
10
704.061141
20
40.202056
11
699.342461
21
40.877807
0
LINE
8
boundary
62
5
39
2
10
699.342461
20
40.877807
11
697.756500
21
41.260992
0
LINE
8
boundary
62
5
39
2
10
697.756500
20
41.260992
11
693.123003
21
42.380494
0
LINE
8
boundary
62
5
39
2
10
693.123003
20
42.380494
11
691.580449
21
42.912124
0
LINE
8
boundary
62
5
39
2
10
691.580449
20
42.912124
11
687.073766
21
44.465317
0
LINE
8
boundary
62
5
39
2
10
687.073766
20
44.465317
11
685.588480
21
45.140615
0
LINE
8
boundary
62
5
39
2
10
685.588480
20
45.140615
11
681.249111
21
47.113547
0
LINE
8
boundary
62
5
39
2
10
681.249111
20
47.113547
11
679.834438
21
47.926444
0
LINE
8
boundary
62
5
39
2
10
679.834438
20
47.926444
11
675.701370
21
50.301383
0
LINE
8
boundary
62
5
39
2
10
675.701370
20
50.301383
11
673.896540
21
48.496554
0
LINE
8
boundary
62
5
39
2
10
673.896540
20
48.496554
11
672.067486
21
46.667499
0
LINE
8
boundary
62
5
39
2
10
672.067486
20
46.667499
11
684.517485
21
21.767500
0
LINE
8
annotation
62
1
39
211
10
741.051136
20
30.587928
11
741.051136
21
32.016678
0
LINE
8
annotation
62
1
39
211
10
741.051136
20
30.587928
11
741.051136
21
32.016678
0
LINE
8
annotation
62
1
39
211
10
741.051136
20
32.016678
11
741.051136
21
30.587928
0
LINE
8
annotation
62
1
39
211
10
741.051136
20
30.587928
11
742.479886
21
30.587928
0
LINE
8
annotation
62
1
39
211
10
683.083834
20
30.587928
11
683.083834
21
29.159178
0
LINE
8
annotation
62
1
39
211
10
703.553720
20
38.490963
11
703.553720
21
39.919713
0
LINE
8
annotation
62
1
39
211
10
703.553720
20
38.490963
11
703.553720
21
39.919713
0
LINE
8
annotation
62
1
39
211
10
703.553720
20
39.919713
11
703.553720
21
38.490963
0
LINE
8
annotation
62
1
39
211
10
703.553720
20
38.490963
11
703.553720
21
37.062213
0
LINE
8
annotation
62
1
39
211
10
691.471861
20
15.079014
11
692.900611
21
15.079013
0
LINE
8
annotation
62
1
39
211
10
691.471861
20
15.079014
11
692.900611
21
15.079013
0
LINE
8
annotation
62
1
39
211
10
692.900611
20
15.079013
11
691.471861
21
15.079014
0
LINE
8
annotation
62
1
39
211
10
691.471861
20
15.079014
11
691.471860
21
13.650264
0
LINE
8
annotation
62
1
39
211
10
733.952938
20
33.674960
11
733.952938
21
33.674960
0
LINE
8
annotation
62
1
39
211
10
733.952938
20
33.674960
11
733.769708
21
33.606260
0
LINE
8
annotation
62
1
39
211
10
733.769708
20
33.606260
11
733.601570
21
33.513695
0
LINE
8
annotation
62
1
39
211
10
733.601570
20
33.513695
11
733.450251
21
33.399583
0
LINE
8
annotation
62
1
39
211
10
733.450251
20
33.399583
11
733.317476
21
33.266245
0
LINE
8
annotation
62
1
39
211
10
733.317476
20
33.266245
11
733.204972
21
33.116000
0
LINE
8
annotation
62
1
39
211
10
733.204972
20
33.116000
11
733.114464
21
32.951165
0
LINE
8
annotation
62
1
39
211
10
733.114464
20
32.951165
11
733.047679
21
32.774062
0
LINE
8
annotation
62
1
39
211
10
733.047679
20
32.774062
11
733.006342
21
32.587008
0
LINE
8
annotation
62
1
39
211
10
733.006342
20
32.587008
11
732.992179
21
32.392324
0
LINE
8
annotation
62
1
39
211
10
732.992179
20
32.392324
11
732.992179
21
31.434997
0
LINE
8
annotation
62
1
39
211
10
732.992179
20
31.434997
11
732.992179
21
31.434997
0
LINE
8
annotation
62
1
39
211
10
732.992179
20
31.434997
11
733.002506
21
31.319938
0
LINE
8
annotation
62
1
39
211
10
733.002506
20
31.319938
11
733.032270
21
31.211629
0
LINE
8
annotation
62
1
39
211
10
733.032270
20
31.211629
11
733.079650
21
31.111881
0
LINE
8
annotation
62
1
39
211
10
733.079650
20
31.111881
11
733.142822
21
31.022507
0
LINE
8
annotation
62
1
39
211
10
733.142822
20
31.022507
11
733.219965
21
30.945319
0
LINE
8
annotation
62
1
39
211
10
733.219965
20
30.945319
11
733.309254
21
30.882130
0
LINE
8
annotation
62
1
39
211
10
733.309254
20
30.882130
11
733.408869
21
30.834750
0
LINE
8
annotation
62
1
39
211
10
733.408869
20
30.834750
11
733.516985
21
30.804994
0
LINE
8
annotation
62
1
39
211
10
733.516985
20
30.804994
11
733.631782
21
30.794672
0
LINE
8
annotation
62
1
39
211
10
733.631782
20
30.794672
11
733.631782
21
30.794672
0
LINE
8
annotation
62
1
39
211
10
733.631782
20
30.794672
11
733.746816
21
30.804994
0
LINE
8
annotation
62
1
39
211
10
733.746816
20
30.804994
11
733.855059
21
30.834750
0
LINE
8
annotation
62
1
39
211
10
733.855059
20
30.834750
11
733.954710
21
30.882130
0
LINE
8
annotation
62
1
39
211
10
733.954710
20
30.882130
11
734.043970
21
30.945319
0
LINE
8
annotation
62
1
39
211
10
734.043970
20
30.945319
11
734.121038
21
31.022507
0
LINE
8
annotation
62
1
39
211
10
734.121038
20
31.022507
11
734.184114
21
31.111881
0
LINE
8
annotation
62
1
39
211
10
734.184114
20
31.111881
11
734.231397
21
31.211629
0
LINE
8
annotation
62
1
39
211
10
734.231397
20
31.211629
11
734.261087
21
31.319938
0
LINE
8
annotation
62
1
39
211
10
734.261087
20
31.319938
11
734.271384
21
31.434997
0
LINE
8
annotation
62
1
39
211
10
734.271384
20
31.434997
11
734.271384
21
31.753624
0
LINE
8
annotation
62
1
39
211
10
734.271384
20
31.753624
11
734.271384
21
31.753624
0
LINE
8
annotation
62
1
39
211
10
734.271384
20
31.753624
11
734.261087
21
31.868627
0
LINE
8
annotation
62
1
39
211
10
734.261087
20
31.868627
11
734.231397
21
31.976787
0
LINE
8
annotation
62
1
39
211
10
734.231397
20
31.976787
11
734.184114
21
32.076319
0
LINE
8
annotation
62
1
39
211
10
734.184114
20
32.076319
11
734.121038
21
32.165437
0
LINE
8
annotation
62
1
39
211
10
734.121038
20
32.165437
11
734.043970
21
32.242355
0
LINE
8
annotation
62
1
39
211
10
734.043970
20
32.242355
11
733.954710
21
32.305288
0
LINE
8
annotation
62
1
39
211
10
733.954710
20
32.305288
11
733.855059
21
32.352451
0
LINE
8
annotation
62
1
39
211
10
733.855059
20
32.352451
11
733.746816
21
32.382058
0
LINE
8
annotation
62
1
39
211
10
733.746816
20
32.382058
11
733.631782
21
32.392324
0
LINE
8
annotation
62
1
39
211
10
733.631782
20
32.392324
11
732.992179
21
32.392324
0
LINE
8
annotation
62
1
39
211
10
732.912071
20
30.434636
11
734.352215
21
30.434636
0
LINE
8
annotation
62
1
39
211
10
736.926655
20
32.234816
11
735.351763
21
32.234816
0
LINE
8
annotation
62
1
39
211
10
738.646907
20
30.794672
11
738.646907
21
33.674960
0
LINE
8
annotation
62
1
39
211
10
738.646907
20
33.674960
11
738.006582
21
33.034455
0
LINE
8
hole
62
5
39
2
10
700.665982
20
56.895647
11
701.237482
21
56.895647
0
LINE
8
hole
62
5
39
2
10
701.237482
20
56.895647
11
701.237482
21
57.467147
0
LINE
8
hole
62
5
39
2
10
701.237482
20
57.467147
11
700.665982
21
57.467147
0
LINE
8
hole
62
5
39
2
10
700.665982
20
57.467147
11
700.665982
21
56.895647
0
LINE
8
hole
62
5
39
2
10
693.924082
20
54.892413
11
694.495582
21
54.892413
0
LINE
8
hole
62
5
39
2
10
694.495582
20
54.892413
11
694.495582
21
55.463913
0
LINE
8
hole
62
5
39
2
10
694.495582
20
55.463913
11
693.924082
21
55.463913
0
LINE
8
hole
62
5
39
2
10
693.924082
20
55.463913
11
693.924082
21
54.892413
0
LINE
8
hole
62
5
39
2
10
693.755206
20
54.838787
11
694.326706
21
54.838787
0
LINE
8
hole
62
5
39
2
10
694.326706
20
54.838787
11
694.326706
21
55.410287
0
LINE
8
hole
62
5
39
2
10
694.326706
20
55.410287
11
693.755206
21
55.410287
0
LINE
8
hole
62
5
39
2
10
693.755206
20
55.410287
11
693.755206
21
54.838787
0
LINE
8
hole
62
5
39
2
10
686.368180
20
56.895647
11
686.939680
21
56.895647
0
LINE
8
hole
62
5
39
2
10
686.939680
20
56.895647
11
686.939680
21
57.467147
0
LINE
8
hole
62
5
39
2
10
686.939680
20
57.467147
11
686.368180
21
57.467147
0
LINE
8
hole
62
5
39
2
10
686.368180
20
57.467147
11
686.368180
21
56.895647
0
LINE
8
boundary
62
5
39
2
10
686.102831
20
60.410162
11
673.802831
21
60.410162
0
LINE
8
boundary
62
5
39
2
10
673.802831
20
60.410162
11
672.200529
21
58.807861
0
LINE
8
boundary
62
5
39
2
10
672.200529
20
58.807861
11
676.115138
21
56.855241
0
LINE
8
boundary
62
5
39
2
10
676.115138
20
56.855241
11
676.641103
21
56.618799
0
LINE
8
boundary
62
5
39
2
10
676.641103
20
56.618799
11
680.858025
21
55.236071
0
LINE
8
boundary
62
5
39
2
10
680.858025
20
55.236071
11
681.405985
21
55.056395
0
LINE
8
boundary
62
5
39
2
10
681.405985
20
55.056395
11
685.745176
21
54.125927
0
LINE
8
boundary
62
5
39
2
10
685.745176
20
54.125927
11
686.309025
21
54.005019
0
LINE
8
boundary
62
5
39
2
10
686.309025
20
54.005019
11
690.722129
21
53.537176
0
LINE
8
boundary
62
5
39
2
10
690.722129
20
53.537176
11
691.295582
21
53.476383
0
LINE
8
boundary
62
5
39
2
10
691.295582
20
53.476383
11
695.733414
21
53.476383
0
LINE
8
boundary
62
5
39
2
10
695.733414
20
53.476383
11
696.310080
21
53.476383
0
LINE
8
boundary
62
5
39
2
10
696.310080
20
53.476383
11
700.723184
21
53.944226
0
LINE
8
boundary
62
5
39
2
10
700.723184
20
53.944226
11
701.296637
21
54.005019
0
LINE
8
boundary
62
5
39
2
10
701.296637
20
54.005019
11
705.635828
21
54.935487
0
LINE
8
boundary
62
5
39
2
10
705.635828
20
54.935487
11
706.199677
21
55.056395
0
LINE
8
boundary
62
5
39
2
10
706.199677
20
55.056395
11
710.416598
21
56.439123
0
LINE
8
boundary
62
5
39
2
10
710.416598
20
56.439123
11
710.964559
21
56.618799
0
LINE
8
boundary
62
5
39
2
10
710.964559
20
56.618799
11
715.012211
21
58.438376
0
LINE
8
boundary
62
5
39
2
10
715.012211
20
58.438376
11
715.538176
21
58.674818
0
LINE
8
boundary
62
5
39
2
10
715.538176
20
58.674818
11
714.514322
21
59.698671
0
LINE
8
boundary
62
5
39
2
10
714.514322
20
59.698671
11
713.802831
21
60.410162
0
LINE
8
boundary
62
5
39
2
10
713.802831
20
60.410162
11
686.102831
21
60.410162
0
LINE
8
annotation
62
1
39
211
10
712.569384
20
60.410141
11
712.569384
21
60.410141
0
LINE
8
annotation
62
1
39
211
10
674.799269
20
57.446803
11
674.799269
21
57.446803
0
LINE
8
annotation
62
1
39
211
10
694.040956
20
55.124537
11
695.469706
21
55.124537
0
LINE
8
annotation
62
1
39
211
10
694.209832
20
55.178163
11
692.781082
21
55.178163
0
LINE
8
annotation
62
1
39
211
10
700.951732
20
57.181397
11
700.951732
21
58.610147
0
LINE
8
annotation
62
1
39
211
10
700.951732
20
57.181397
11
700.951732
21
58.610147
0
LINE
8
annotation
62
1
39
211
10
700.951732
20
58.610147
11
700.951732
21
57.181397
0
LINE
8
annotation
62
1
39
211
10
700.951732
20
57.181397
11
699.522982
21
57.181397
0
LINE
8
annotation
62
1
39
211
10
686.653930
20
57.181397
11
688.082680
21
57.181397
0
LINE
8
annotation
62
1
39
211
10
686.653930
20
57.181397
11
688.082680
21
57.181397
0
LINE
8
annotation
62
1
39
211
10
688.082680
20
57.181397
11
686.653930
21
57.181397
0
LINE
8
annotation
62
1
39
211
10
686.653930
20
57.181397
11
685.225180
21
57.181397
0
LINE
8
annotation
62
1
39
211
10
684.268730
20
56.057469
11
684.963829
21
56.057469
0
LINE
8
annotation
62
1
39
211
10
684.963829
20
56.057469
11
684.963829
21
56.057469
0
LINE
8
annotation
62
1
39
211
10
684.963829
20
56.057469
11
685.088586
21
56.068686
0
LINE
8
annotation
62
1
39
211
10
685.088586
20
56.068686
11
685.206084
21
56.101024
0
LINE
8
annotation
62
1
39
211
10
685.206084
20
56.101024
11
685.314341
21
56.152514
0
LINE
8
annotation
62
1
39
211
10
685.314341
20
56.152514
11
685.411379
21
56.221187
0
LINE
8
annotation
62
1
39
211
10
685.411379
20
56.221187
11
685.495214
21
56.305072
0
LINE
8
annotation
62
1
39
211
10
685.495214
20
56.305072
11
685.563868
21
56.402201
0
LINE
8
annotation
62
1
39
211
10
685.563868
20
56.402201
11
685.615359
21
56.510603
0
LINE
8
annotation
62
1
39
211
10
685.615359
20
56.510603
11
685.647706
21
56.628311
0
LINE
8
annotation
62
1
39
211
10
685.647706
20
56.628311
11
685.658928
21
56.753353
0
LINE
8
annotation
62
1
39
211
10
685.658928
20
56.753353
11
685.658928
21
57.099626
0
LINE
8
annotation
62
1
39
211
10
685.658928
20
57.099626
11
685.658928
21
57.099626
0
LINE
8
annotation
62
1
39
211
10
685.658928
20
57.099626
11
685.647712
21
57.224608
0
LINE
8
annotation
62
1
39
211
10
685.647712
20
57.224608
11
685.615381
21
57.342153
0
LINE
8
annotation
62
1
39
211
10
685.615381
20
57.342153
11
685.563912
21
57.450320
0
LINE
8
annotation
62
1
39
211
10
685.563912
20
57.450320
11
685.495279
21
57.547170
0
LINE
8
annotation
62
1
39
211
10
685.495279
20
57.547170
11
685.411459
21
57.630762
0
LINE
8
annotation
62
1
39
211
10
685.411459
20
57.630762
11
685.314429
21
57.699156
0
LINE
8
annotation
62
1
39
211
10
685.314429
20
57.699156
11
685.206163
21
57.750411
0
LINE
8
annotation
62
1
39
211
10
685.206163
20
57.750411
11
685.088638
21
57.782587
0
LINE
8
annotation
62
1
39
211
10
685.088638
20
57.782587
11
684.963829
21
57.793744
0
LINE
8
annotation
62
1
39
211
10
684.963829
20
57.793744
11
684.268730
21
57.793744
0
LINE
8
annotation
62
1
39
211
10
684.268730
20
57.793744
11
684.268730
21
59.187671
0
LINE
8
annotation
62
1
39
211
10
684.268730
20
59.187671
11
685.658928
21
59.187671
0
LINE
8
annotation
62
1
39
211
10
688.544590
20
57.622570
11
686.833049
21
57.622570
0
LINE
8
annotation
62
1
39
211
10
691.108556
20
56.057443
11
689.718358
21
56.057443
0
LINE
8
annotation
62
1
39
211
10
689.718358
20
56.057443
11
691.002946
21
58.125466
0
LINE
8
annotation
62
1
39
211
10
691.002946
20
58.125466
11
691.002946
21
58.125466
0
LINE
8
annotation
62
1
39
211
10
691.002946
20
58.125466
11
691.004482
21
58.127366
0
LINE
8
annotation
62
1
39
211
10
691.004482
20
58.127366
11
691.005955
21
58.129282
0
LINE
8
annotation
62
1
39
211
10
691.005955
20
58.129282
11
691.007374
21
58.131231
0
LINE
8
annotation
62
1
39
211
10
691.007374
20
58.131231
11
691.008750
21
58.133228
0
LINE
8
annotation
62
1
39
211
10
691.008750
20
58.133228
11
691.010091
21
58.135290
0
LINE
8
annotation
62
1
39
211
10
691.010091
20
58.135290
11
691.011409
21
58.137433
0
LINE
8
annotation
62
1
39
211
10
691.011409
20
58.137433
11
691.012712
21
58.139672
0
LINE
8
annotation
62
1
39
211
10
691.012712
20
58.139672
11
691.014010
21
58.142025
0
LINE
8
annotation
62
1
39
211
10
691.014010
20
58.142025
11
691.015313
21
58.144507
0
LINE
8
annotation
62
1
39
211
10
691.015313
20
58.144507
11
691.015313
21
58.144507
0
LINE
8
annotation
62
1
39
211
10
691.015313
20
58.144507
11
691.068353
21
58.258389
0
LINE
8
annotation
62
1
39
211
10
691.068353
20
58.258389
11
691.099339
21
58.376438
0
LINE
8
annotation
62
1
39
211
10
691.099339
20
58.376438
11
691.109028
21
58.495986
0
LINE
8
annotation
62
1
39
211
10
691.109028
20
58.495986
11
691.098181
21
58.614366
0
LINE
8
annotation
62
1
39
211
10
691.098181
20
58.614366
11
691.067558
21
58.728910
0
LINE
8
annotation
62
1
39
211
10
691.067558
20
58.728910
11
691.017916
21
58.836952
0
LINE
8
annotation
62
1
39
211
10
691.017916
20
58.836952
11
690.950016
21
58.935823
0
LINE
8
annotation
62
1
39
211
10
690.950016
20
58.935823
11
690.864617
21
59.022857
0
LINE
8
annotation
62
1
39
211
10
690.864617
20
59.022857
11
690.762478
21
59.095385
0
LINE
8
annotation
62
1
39
211
10
690.762478
20
59.095385
11
690.762478
21
59.095385
0
LINE
8
annotation
62
1
39
211
10
690.762478
20
59.095385
11
690.648280
21
59.147671
0
LINE
8
annotation
62
1
39
211
10
690.648280
20
59.147671
11
690.530050
21
59.178179
0
LINE
8
annotation
62
1
39
211
10
690.530050
20
59.178179
11
690.410432
21
59.187595
0
LINE
8
annotation
62
1
39
211
10
690.410432
20
59.187595
11
690.292070
21
59.176605
0
LINE
8
annotation
62
1
39
211
10
690.292070
20
59.176605
11
690.177606
21
59.145896
0
LINE
8
annotation
62
1
39
211
10
690.177606
20
59.145896
11
690.069684
21
59.096155
0
LINE
8
annotation
62
1
39
211
10
690.069684
20
59.096155
11
689.970947
21
59.028069
0
LINE
8
annotation
62
1
39
211
10
689.970947
20
59.028069
11
689.884038
21
58.942323
0
LINE
8
annotation
62
1
39
211
10
689.884038
20
58.942323
11
689.811600
21
58.839606
0
LINE
8
annotation
62
1
39
211
10
689.811600
20
58.839606
11
689.720321
21
58.664506
0
LINE
8
hole
62
5
39
2
10
25.786125
20
77.968262
11
26.357625
21
77.968262
0
LINE
8
hole
62
5
39
2
10
26.357625
20
77.968262
11
26.357625
21
78.539762
0
LINE
8
hole
62
5
39
2
10
26.357625
20
78.539762
11
25.786125
21
78.539762
0
LINE
8
hole
62
5
39
2
10
25.786125
20
78.539762
11
25.786125
21
77.968262
0
LINE
8
hole
62
5
39
2
10
17.398098
20
93.477177
11
17.969598
21
93.477177
0
LINE
8
hole
62
5
39
2
10
17.969598
20
93.477177
11
17.969598
21
94.048677
0
LINE
8
hole
62
5
39
2
10
17.969598
20
94.048677
11
17.398098
21
94.048677
0
LINE
8
hole
62
5
39
2
10
17.398098
20
94.048677
11
17.398098
21
93.477177
0
LINE
8
hole
62
5
39
2
10
37.867985
20
101.380212
11
38.439485
21
101.380212
0
LINE
8
hole
62
5
39
2
10
38.439485
20
101.380212
11
38.439485
21
101.951712
0
LINE
8
hole
62
5
39
2
10
38.439485
20
101.951712
11
37.867985
21
101.951712
0
LINE
8
hole
62
5
39
2
10
37.867985
20
101.951712
11
37.867985
21
101.380212
0
LINE
8
hole
62
5
39
2
10
75.365400
20
93.477177
11
75.936900
21
93.477177
0
LINE
8
hole
62
5
39
2
10
75.936900
20
93.477177
11
75.936900
21
94.048677
0
LINE
8
hole
62
5
39
2
10
75.936900
20
94.048677
11
75.365400
21
94.048677
0
LINE
8
hole
62
5
39
2
10
75.365400
20
94.048677
11
75.365400
21
93.477177
0
LINE
8
boundary
62
5
39
2
10
17.717500
20
87.742498
11
26.667500
21
69.842499
0
LINE
8
boundary
62
5
39
2
10
26.667500
20
69.842499
11
28.246071
21
69.842499
0
LINE
8
boundary
62
5
39
2
10
28.246071
20
69.842499
11
29.167500
21
69.842499
0
LINE
8
boundary
62
5
39
2
10
29.167500
20
69.842499
11
29.167500
21
82.742496
0
LINE
8
boundary
62
5
39
2
10
29.167500
20
82.742496
11
29.167500
21
99.842499
0
LINE
8
boundary
62
5
39
2
10
29.167500
20
99.842499
11
44.217495
21
99.842499
0
LINE
8
boundary
62
5
39
2
10
44.217495
20
99.842499
11
64.167498
21
99.842499
0
LINE
8
boundary
62
5
39
2
10
64.167498
20
99.842499
11
64.167498
21
82.742496
0
LINE
8
boundary
62
5
39
2
10
64.167498
20
82.742496
11
64.167498
21
69.842499
0
LINE
8
boundary
62
5
39
2
10
64.167498
20
69.842499
11
65.088927
21
69.842499
0
LINE
8
boundary
62
5
39
2
10
65.088927
20
69.842499
11
66.667499
21
69.842499
0
LINE
8
boundary
62
5
39
2
10
66.667499
20
69.842499
11
75.617499
21
87.742499
0
LINE
8
boundary
62
5
39
2
10
75.617499
20
87.742499
11
86.667498
21
109.842498
0
LINE
8
boundary
62
5
39
2
10
86.667498
20
109.842498
11
83.990537
21
112.519459
0
LINE
8
boundary
62
5
39
2
10
83.990537
20
112.519459
11
83.033615
21
113.476382
0
LINE
8
boundary
62
5
39
2
10
83.033615
20
113.476382
11
80.842257
21
112.217187
0
LINE
8
boundary
62
5
39
2
10
80.842257
20
112.217187
11
77.485873
21
110.288545
0
LINE
8
boundary
62
5
39
2
10
77.485873
20
110.288545
11
75.185135
21
109.242495
0
LINE
8
boundary
62
5
39
2
10
75.185135
20
109.242495
11
71.661218
21
107.640316
0
LINE
8
boundary
62
5
39
2
10
71.661218
20
107.640316
11
69.271770
21
106.816811
0
LINE
8
boundary
62
5
39
2
10
69.271770
20
106.816811
11
65.611981
21
105.555493
0
LINE
8
boundary
62
5
39
2
10
65.611981
20
105.555493
11
63.155296
21
104.961932
0
LINE
8
boundary
62
5
39
2
10
63.155296
20
104.961932
11
59.392523
21
104.052805
0
LINE
8
boundary
62
5
39
2
10
59.392523
20
104.052805
11
56.890674
21
103.694522
0
LINE
8
boundary
62
5
39
2
10
56.890674
20
103.694522
11
53.058726
21
103.145758
0
LINE
8
boundary
62
5
39
2
10
53.058726
20
103.145758
11
50.534192
21
103.025972
0
LINE
8
boundary
62
5
39
2
10
50.534192
20
103.025972
11
46.667499
21
102.842501
0
LINE
8
boundary
62
5
39
2
10
46.667499
20
102.842501
11
44.142966
21
102.962288
0
LINE
8
boundary
62
5
39
2
10
44.142966
20
102.962288
11
40.276273
21
103.145758
0
LINE
8
boundary
62
5
39
2
10
40.276273
20
103.145758
11
37.774423
21
103.504042
0
LINE
8
boundary
62
5
39
2
10
37.774423
20
103.504042
11
33.942475
21
104.052805
0
LINE
8
boundary
62
5
39
2
10
33.942475
20
104.052805
11
31.485790
21
104.646367
0
LINE
8
boundary
62
5
39
2
10
31.485790
20
104.646367
11
27.723017
21
105.555493
0
LINE
8
boundary
62
5
39
2
10
27.723017
20
105.555493
11
25.333570
21
106.378998
0
LINE
8
boundary
62
5
39
2
10
25.333570
20
106.378998
11
21.673780
21
107.640316
0
LINE
8
boundary
62
5
39
2
10
21.673780
20
107.640316
11
19.373043
21
108.686366
0
LINE
8
boundary
62
5
39
2
10
19.373043
20
108.686366
11
15.849125
21
110.288545
0
LINE
8
boundary
62
5
39
2
10
15.849125
20
110.288545
11
13.657768
21
111.547740
0
LINE
8
boundary
62
5
39
2
10
13.657768
20
111.547740
11
10.301384
21
113.476382
0
LINE
8
boundary
62
5
39
2
10
10.301384
20
113.476382
11
8.835717
21
112.010715
0
LINE
8
boundary
62
5
39
2
10
8.835717
20
112.010715
11
6.667500
21
109.842498
0
LINE
8
boundary
62
5
39
2
10
6.667500
20
109.842498
11
17.717500
21
87.742498
0
LINE
8
annotation
62
1
39
211
10
38.153735
20
101.665962
11
38.153735
21
103.094712
0
LINE
8
annotation
62
1
39
211
10
38.153735
20
101.665962
11
38.153735
21
103.094712
0
LINE
8
annotation
62
1
39
211
10
38.153735
20
103.094712
11
38.153735
21
101.665962
0
LINE
8
annotation
62
1
39
211
10
38.153735
20
101.665962
11
38.153735
21
100.237212
0
LINE
8
annotation
62
1
39
211
10
26.071875
20
78.254012
11
27.500625
21
78.254012
0
LINE
8
annotation
62
1
39
211
10
26.071875
20
78.254012
11
27.500625
21
78.254012
0
LINE
8
annotation
62
1
39
211
10
27.500625
20
78.254012
11
26.071875
21
78.254012
0
LINE
8
annotation
62
1
39
211
10
26.071875
20
78.254012
11
26.071875
21
76.825262
0
LINE
8
annotation
62
1
39
211
10
75.651150
20
93.762927
11
75.651150
21
95.191677
0
LINE
8
annotation
62
1
39
211
10
17.683848
20
93.762927
11
19.112598
21
93.762927
0
LINE
8
annotation
62
1
39
211
10
68.231796
20
93.969671
11
68.872121
21
96.849959
0
LINE
8
annotation
62
1
39
211
10
68.872121
20
96.849959
11
67.591290
21
96.849959
0
LINE
8
annotation
62
1
39
211
10
68.872121
20
95.567322
11
68.231796
21
95.567322
0
LINE
8
annotation
62
1
39
211
10
71.527482
20
95.409815
11
69.952590
21
95.409815
0
LINE
8
annotation
62
1
39
211
10
73.247734
20
93.969671
11
73.247734
21
96.849959
0
LINE
8
annotation
62
1
39
211
10
73.247734
20
96.849959
11
72.607410
21
96.209454
0
LINE
8
hole
62
5
39
2
10
108.961123
20
77.968262
11
109.532623
21
77.968262
0
LINE
8
hole
62
5
39
2
10
109.532623
20
77.968262
11
109.532623
21
78.539762
0
LINE
8
hole
62
5
39
2
10
109.532623
20
78.539762
11
108.961123
21
78.539762
0
LINE
8
hole
62
5
39
2
10
108.961123
20
78.539762
11
108.961123
21
77.968262
0
LINE
8
hole
62
5
39
2
10
100.573096
20
93.477177
11
101.144596
21
93.477177
0
LINE
8
hole
62
5
39
2
10
101.144596
20
93.477177
11
101.144596
21
94.048677
0
LINE
8
hole
62
5
39
2
10
101.144596
20
94.048677
11
100.573096
21
94.048677
0
LINE
8
hole
62
5
39
2
10
100.573096
20
94.048677
11
100.573096
21
93.477177
0
LINE
8
hole
62
5
39
2
10
121.042983
20
101.380212
11
121.614483
21
101.380212
0
LINE
8
hole
62
5
39
2
10
121.614483
20
101.380212
11
121.614483
21
101.951712
0
LINE
8
hole
62
5
39
2
10
121.614483
20
101.951712
11
121.042983
21
101.951712
0
LINE
8
hole
62
5
39
2
10
121.042983
20
101.951712
11
121.042983
21
101.380212
0
LINE
8
hole
62
5
39
2
10
158.540398
20
93.477177
11
159.111898
21
93.477177
0
LINE
8
hole
62
5
39
2
10
159.111898
20
93.477177
11
159.111898
21
94.048677
0
LINE
8
hole
62
5
39
2
10
159.111898
20
94.048677
11
158.540398
21
94.048677
0
LINE
8
hole
62
5
39
2
10
158.540398
20
94.048677
11
158.540398
21
93.477177
0
LINE
8
boundary
62
5
39
2
10
99.492498
20
90.542498
11
109.842498
21
69.842499
0
LINE
8
boundary
62
5
39
2
10
109.842498
20
69.842499
11
111.221070
21
69.842499
0
LINE
8
boundary
62
5
39
2
10
111.221070
20
69.842499
11
112.342498
21
69.842499
0
LINE
8
boundary
62
5
39
2
10
112.342498
20
69.842499
11
112.342498
21
85.542496
0
LINE
8
boundary
62
5
39
2
10
112.342498
20
85.542496
11
112.342498
21
99.842499
0
LINE
8
boundary
62
5
39
2
10
112.342498
20
99.842499
11
130.659161
21
99.842499
0
LINE
8
boundary
62
5
39
2
10
130.659161
20
99.842499
11
147.342497
21
99.842499
0
LINE
8
boundary
62
5
39
2
10
147.342497
20
99.842499
11
147.342497
21
85.542496
0
LINE
8
boundary
62
5
39
2
10
147.342497
20
85.542496
11
147.342497
21
69.842499
0
LINE
8
boundary
62
5
39
2
10
147.342497
20
69.842499
11
148.463925
21
69.842499
0
LINE
8
boundary
62
5
39
2
10
148.463925
20
69.842499
11
149.842497
21
69.842499
0
LINE
8
boundary
62
5
39
2
10
149.842497
20
69.842499
11
160.192497
21
90.542498
0
LINE
8
boundary
62
5
39
2
10
160.192497
20
90.542498
11
169.842497
21
109.842498
0
LINE
8
boundary
62
5
39
2
10
169.842497
20
109.842498
11
167.504698
21
112.180297
0
LINE
8
boundary
62
5
39
2
10
167.504698
20
112.180297
11
166.208613
21
113.476382
0
LINE
8
boundary
62
5
39
2
10
166.208613
20
113.476382
11
163.240572
21
111.770890
0
LINE
8
boundary
62
5
39
2
10
163.240572
20
111.770890
11
160.660871
21
110.288545
0
LINE
8
boundary
62
5
39
2
10
160.660871
20
110.288545
11
157.544682
21
108.871743
0
LINE
8
boundary
62
5
39
2
10
157.544682
20
108.871743
11
154.836216
21
107.640316
0
LINE
8
boundary
62
5
39
2
10
154.836216
20
107.640316
11
151.599875
21
106.524936
0
LINE
8
boundary
62
5
39
2
10
151.599875
20
106.524936
11
148.786979
21
105.555493
0
LINE
8
boundary
62
5
39
2
10
148.786979
20
105.555493
11
145.459570
21
104.751555
0
LINE
8
boundary
62
5
39
2
10
145.459570
20
104.751555
11
142.567522
21
104.052805
0
LINE
8
boundary
62
5
39
2
10
142.567522
20
104.052805
11
139.178941
21
103.567535
0
LINE
8
boundary
62
5
39
2
10
139.178941
20
103.567535
11
136.233724
21
103.145758
0
LINE
8
boundary
62
5
39
2
10
136.233724
20
103.145758
11
132.814419
21
102.983516
0
LINE
8
boundary
62
5
39
2
10
132.814419
20
102.983516
11
129.842497
21
102.842501
0
LINE
8
boundary
62
5
39
2
10
129.842497
20
102.842501
11
126.423192
21
103.004744
0
LINE
8
boundary
62
5
39
2
10
126.423192
20
103.004744
11
123.451271
21
103.145758
0
LINE
8
boundary
62
5
39
2
10
123.451271
20
103.145758
11
120.062690
21
103.631028
0
LINE
8
boundary
62
5
39
2
10
120.062690
20
103.631028
11
117.117473
21
104.052805
0
LINE
8
boundary
62
5
39
2
10
117.117473
20
104.052805
11
113.790064
21
104.856743
0
LINE
8
boundary
62
5
39
2
10
113.790064
20
104.856743
11
110.898016
21
105.555493
0
LINE
8
boundary
62
5
39
2
10
110.898016
20
105.555493
11
107.661675
21
106.670873
0
LINE
8
boundary
62
5
39
2
10
107.661675
20
106.670873
11
104.848779
21
107.640316
0
LINE
8
boundary
62
5
39
2
10
104.848779
20
107.640316
11
101.732589
21
109.057118
0
LINE
8
boundary
62
5
39
2
10
101.732589
20
109.057118
11
99.024124
21
110.288545
0
LINE
8
boundary
62
5
39
2
10
99.024124
20
110.288545
11
96.056083
21
111.994037
0
LINE
8
boundary
62
5
39
2
10
96.056083
20
111.994037
11
93.476382
21
113.476382
0
LINE
8
boundary
62
5
39
2
10
93.476382
20
113.476382
11
92.349878
21
112.349878
0
LINE
8
boundary
62
5
39
2
10
92.349878
20
112.349878
11
89.842498
21
109.842498
0
LINE
8
boundary
62
5
39
2
10
89.842498
20
109.842498
11
99.492498
21
90.542498
0
LINE
8
annotation
62
1
39
211
10
158.826148
20
93.762927
11
158.826148
21
95.191677
0
LINE
8
annotation
62
1
39
211
10
100.858846
20
93.762927
11
102.287596
21
93.762927
0
LINE
8
annotation
62
1
39
211
10
121.328733
20
101.665962
11
121.328733
21
103.094712
0
LINE
8
annotation
62
1
39
211
10
121.328733
20
101.665962
11
121.328733
21
103.094712
0
LINE
8
annotation
62
1
39
211
10
121.328733
20
103.094712
11
121.328733
21
101.665962
0
LINE
8
annotation
62
1
39
211
10
121.328733
20
101.665962
11
122.757483
21
101.665962
0
LINE
8
annotation
62
1
39
211
10
109.246873
20
78.254012
11
109.246873
21
76.825262
0
LINE
8
annotation
62
1
39
211
10
150.767192
20
94.608280
11
150.767192
21
94.608280
0
LINE
8
annotation
62
1
39
211
10
150.767192
20
94.608280
11
150.777518
21
94.493277
0
LINE
8
annotation
62
1
39
211
10
150.777518
20
94.493277
11
150.807283
21
94.385117
0
LINE
8
annotation
62
1
39
211
10
150.807283
20
94.385117
11
150.854662
21
94.285585
0
LINE
8
annotation
62
1
39
211
10
150.854662
20
94.285585
11
150.917835
21
94.196468
0
LINE
8
annotation
62
1
39
211
10
150.917835
20
94.196468
11
150.994977
21
94.119550
0
LINE
8
annotation
62
1
39
211
10
150.994977
20
94.119550
11
151.084267
21
94.056617
0
LINE
8
annotation
62
1
39
211
10
151.084267
20
94.056617
11
151.183881
21
94.009454
0
LINE
8
annotation
62
1
39
211
10
151.183881
20
94.009454
11
151.291998
21
93.979847
0
LINE
8
annotation
62
1
39
211
10
151.291998
20
93.979847
11
151.406794
21
93.969581
0
LINE
8
annotation
62
1
39
211
10
151.406794
20
93.969581
11
151.406794
21
93.969581
0
LINE
8
annotation
62
1
39
211
10
151.406794
20
93.969581
11
151.521590
21
93.979847
0
LINE
8
annotation
62
1
39
211
10
151.521590
20
93.979847
11
151.629707
21
94.009454
0
LINE
8
annotation
62
1
39
211
10
151.629707
20
94.009454
11
151.729321
21
94.056617
0
LINE
8
annotation
62
1
39
211
10
151.729321
20
94.056617
11
151.818611
21
94.119550
0
LINE
8
annotation
62
1
39
211
10
151.818611
20
94.119550
11
151.895754
21
94.196468
0
LINE
8
annotation
62
1
39
211
10
151.895754
20
94.196468
11
151.958926
21
94.285585
0
LINE
8
annotation
62
1
39
211
10
151.958926
20
94.285585
11
152.006306
21
94.385117
0
LINE
8
annotation
62
1
39
211
10
152.006306
20
94.385117
11
152.036070
21
94.493277
0
LINE
8
annotation
62
1
39
211
10
152.036070
20
94.493277
11
152.046397
21
94.608280
0
LINE
8
annotation
62
1
39
211
10
152.046397
20
94.608280
11
152.046397
21
94.926907
0
LINE
8
annotation
62
1
39
211
10
152.046397
20
94.926907
11
152.046397
21
94.926907
0
LINE
8
annotation
62
1
39
211
10
152.046397
20
94.926907
11
152.036076
21
95.041966
0
LINE
8
annotation
62
1
39
211
10
152.036076
20
95.041966
11
152.006326
21
95.150275
0
LINE
8
annotation
62
1
39
211
10
152.006326
20
95.150275
11
151.958966
21
95.250023
0
LINE
8
annotation
62
1
39
211
10
151.958966
20
95.250023
11
151.895813
21
95.339397
0
LINE
8
annotation
62
1
39
211
10
151.895813
20
95.339397
11
151.818686
21
95.416585
0
LINE
8
annotation
62
1
39
211
10
151.818686
20
95.416585
11
151.729402
21
95.479775
0
LINE
8
annotation
62
1
39
211
10
151.729402
20
95.479775
11
151.629780
21
95.527154
0
LINE
8
annotation
62
1
39
211
10
151.629780
20
95.527154
11
151.521638
21
95.556911
0
LINE
8
annotation
62
1
39
211
10
151.521638
20
95.556911
11
151.406794
21
95.567232
0
LINE
8
annotation
62
1
39
211
10
151.406794
20
95.567232
11
151.406794
21
95.567232
0
LINE
8
annotation
62
1
39
211
10
151.406794
20
95.567232
11
151.291950
21
95.556905
0
LINE
8
annotation
62
1
39
211
10
151.291950
20
95.556905
11
151.183808
21
95.527133
0
LINE
8
annotation
62
1
39
211
10
151.183808
20
95.527133
11
151.084187
21
95.479735
0
LINE
8
annotation
62
1
39
211
10
151.084187
20
95.479735
11
150.994903
21
95.416526
0
LINE
8
annotation
62
1
39
211
10
150.994903
20
95.416526
11
150.917775
21
95.339323
0
LINE
8
annotation
62
1
39
211
10
150.917775
20
95.339323
11
150.854622
21
95.249943
0
LINE
8
annotation
62
1
39
211
10
150.854622
20
95.249943
11
150.807262
21
95.150203
0
LINE
8
annotation
62
1
39
211
10
150.807262
20
95.150203
11
150.777512
21
95.041918
0
LINE
8
annotation
62
1
39
211
10
150.777512
20
95.041918
11
150.767192
21
94.926907
0
LINE
8
annotation
62
1
39
211
10
150.767192
20
94.926907
11
150.767192
21
94.608280
0
LINE
8
annotation
62
1
39
211
10
152.046397
20
96.207738
11
152.046397
21
96.207738
0
LINE
8
annotation
62
1
39
211
10
152.046397
20
96.207738
11
152.036076
21
96.322265
0
LINE
8
annotation
62
1
39
211
10
152.036076
20
96.322265
11
152.006326
21
96.430172
0
LINE
8
annotation
62
1
39
211
10
152.006326
20
96.430172
11
151.958966
21
96.529629
0
LINE
8
annotation
62
1
39
211
10
151.958966
20
96.529629
11
151.895813
21
96.618806
0
LINE
8
annotation
62
1
39
211
10
151.895813
20
96.618806
11
151.818686
21
96.695873
0
LINE
8
annotation
62
1
39
211
10
151.818686
20
96.695873
11
151.729402
21
96.759000
0
LINE
8
annotation
62
1
39
211
10
151.729402
20
96.759000
11
151.629780
21
96.806356
0
LINE
8
annotation
62
1
39
211
10
151.629780
20
96.806356
11
151.521638
21
96.836112
0
LINE
8
annotation
62
1
39
211
10
151.521638
20
96.836112
11
151.406794
21
96.846437
0
LINE
8
annotation
62
1
39
211
10
151.406794
20
96.846437
11
151.406794
21
96.846437
0
LINE
8
annotation
62
1
39
211
10
151.406794
20
96.846437
11
151.291950
21
96.836112
0
LINE
8
annotation
62
1
39
211
10
151.291950
20
96.836112
11
151.183808
21
96.806356
0
LINE
8
annotation
62
1
39
211
10
151.183808
20
96.806356
11
151.084187
21
96.759000
0
LINE
8
annotation
62
1
39
211
10
151.084187
20
96.759000
11
150.994903
21
96.695873
0
LINE
8
annotation
62
1
39
211
10
150.994903
20
96.695873
11
150.917775
21
96.618806
0
LINE
8
annotation
62
1
39
211
10
150.917775
20
96.618806
11
150.854622
21
96.529629
0
LINE
8
annotation
62
1
39
211
10
150.854622
20
96.529629
11
150.807262
21
96.430172
0
LINE
8
annotation
62
1
39
211
10
150.807262
20
96.430172
11
150.777512
21
96.322265
0
LINE
8
annotation
62
1
39
211
10
150.777512
20
96.322265
11
150.767192
21
96.207738
0
LINE
8
annotation
62
1
39
211
10
150.767192
20
96.207738
11
150.767192
21
96.207738
0
LINE
8
annotation
62
1
39
211
10
150.767192
20
96.207738
11
150.777518
21
96.092673
0
LINE
8
annotation
62
1
39
211
10
150.777518
20
96.092673
11
150.807283
21
95.984347
0
LINE
8
annotation
62
1
39
211
10
150.807283
20
95.984347
11
150.854662
21
95.884575
0
LINE
8
annotation
62
1
39
211
10
150.854662
20
95.884575
11
150.917835
21
95.795172
0
LINE
8
annotation
62
1
39
211
10
150.917835
20
95.795172
11
150.994977
21
95.717954
0
LINE
8
annotation
62
1
39
211
10
150.994977
20
95.717954
11
151.084267
21
95.654736
0
LINE
8
annotation
62
1
39
211
10
151.084267
20
95.654736
11
151.183881
21
95.607333
0
LINE
8
annotation
62
1
39
211
10
151.183881
20
95.607333
11
151.291998
21
95.577560
0
LINE
8
annotation
62
1
39
211
10
151.291998
20
95.577560
11
151.406794
21
95.567232
0
LINE
8
annotation
62
1
39
211
10
151.406794
20
95.567232
11
151.406794
21
95.567232
0
LINE
8
annotation
62
1
39
211
10
151.406794
20
95.567232
11
151.521590
21
95.577560
0
LINE
8
annotation
62
1
39
211
10
151.521590
20
95.577560
11
151.629707
21
95.607333
0
LINE
8
annotation
62
1
39
211
10
151.629707
20
95.607333
11
151.729321
21
95.654736
0
LINE
8
annotation
62
1
39
211
10
151.729321
20
95.654736
11
151.818611
21
95.717954
0
LINE
8
annotation
62
1
39
211
10
151.818611
20
95.717954
11
151.895754
21
95.795172
0
LINE
8
annotation
62
1
39
211
10
151.895754
20
95.795172
11
151.958926
21
95.884575
0
LINE
8
annotation
62
1
39
211
10
151.958926
20
95.884575
11
152.006306
21
95.984347
0
LINE
8
annotation
62
1
39
211
10
152.006306
20
95.984347
11
152.036070
21
96.092673
0
LINE
8
annotation
62
1
39
211
10
152.036070
20
96.092673
11
152.046397
21
96.207738
0
LINE
8
annotation
62
1
39
211
10
154.701668
20
95.409815
11
153.126775
21
95.409815
0
LINE
8
annotation
62
1
39
211
10
156.421920
20
93.969671
11
156.421920
21
96.849959
0
LINE
8
annotation
62
1
39
211
10
156.421920
20
96.849959
11
155.781595
21
96.209454
0
LINE
8
hole
62
5
39
2
10
192.136121
20
77.968262
11
192.707621
21
77.968262
0
LINE
8
hole
62
5
39
2
10
192.707621
20
77.968262
11
192.707621
21
78.539762
0
LINE
8
hole
62
5
39
2
10
192.707621
20
78.539762
11
192.136121
21
78.539762
0
LINE
8
hole
62
5
39
2
10
192.136121
20
78.539762
11
192.136121
21
77.968262
0
LINE
8
hole
62
5
39
2
10
241.715397
20
93.477177
11
242.286897
21
93.477177
0
LINE
8
hole
62
5
39
2
10
242.286897
20
93.477177
11
242.286897
21
94.048677
0
LINE
8
hole
62
5
39
2
10
242.286897
20
94.048677
11
241.715397
21
94.048677
0
LINE
8
hole
62
5
39
2
10
241.715397
20
94.048677
11
241.715397
21
93.477177
0
LINE
8
hole
62
5
39
2
10
204.217981
20
101.380212
11
204.789481
21
101.380212
0
LINE
8
hole
62
5
39
2
10
204.789481
20
101.380212
11
204.789481
21
101.951712
0
LINE
8
hole
62
5
39
2
10
204.789481
20
101.951712
11
204.217981
21
101.951712
0
LINE
8
hole
62
5
39
2
10
204.217981
20
101.951712
11
204.217981
21
101.380212
0
LINE
8
hole
62
5
39
2
10
183.748095
20
93.477177
11
184.319595
21
93.477177
0
LINE
8
hole
62
5
39
2
10
184.319595
20
93.477177
11
184.319595
21
94.048677
0
LINE
8
hole
62
5
39
2
10
184.319595
20
94.048677
11
183.748095
21
94.048677
0
LINE
8
hole
62
5
39
2
10
183.748095
20
94.048677
11
183.748095
21
93.477177
0
LINE
8
boundary
62
5
39
2
10
181.267496
20
93.342498
11
193.017496
21
69.842499
0
LINE
8
boundary
62
5
39
2
10
193.017496
20
69.842499
11
194.196068
21
69.842499
0
LINE
8
boundary
62
5
39
2
10
194.196068
20
69.842499
11
195.517496
21
69.842499
0
LINE
8
boundary
62
5
39
2
10
195.517496
20
69.842499
11
195.517496
21
88.342496
0
LINE
8
boundary
62
5
39
2
10
195.517496
20
88.342496
11
195.517496
21
99.842499
0
LINE
8
boundary
62
5
39
2
10
195.517496
20
99.842499
11
217.100826
21
99.842499
0
LINE
8
boundary
62
5
39
2
10
217.100826
20
99.842499
11
230.517495
21
99.842499
0
LINE
8
boundary
62
5
39
2
10
230.517495
20
99.842499
11
230.517495
21
88.342496
0
LINE
8
boundary
62
5
39
2
10
230.517495
20
88.342496
11
230.517495
21
69.842499
0
LINE
8
boundary
62
5
39
2
10
230.517495
20
69.842499
11
231.838924
21
69.842499
0
LINE
8
boundary
62
5
39
2
10
231.838924
20
69.842499
11
233.017495
21
69.842499
0
LINE
8
boundary
62
5
39
2
10
233.017495
20
69.842499
11
244.767495
21
93.342498
0
LINE
8
boundary
62
5
39
2
10
244.767495
20
93.342498
11
253.017495
21
109.842498
0
LINE
8
boundary
62
5
39
2
10
253.017495
20
109.842498
11
251.018858
21
111.841134
0
LINE
8
boundary
62
5
39
2
10
251.018858
20
111.841134
11
249.383611
21
113.476382
0
LINE
8
boundary
62
5
39
2
10
249.383611
20
113.476382
11
245.638886
21
111.324593
0
LINE
8
boundary
62
5
39
2
10
245.638886
20
111.324593
11
243.835869
21
110.288545
0
LINE
8
boundary
62
5
39
2
10
243.835869
20
110.288545
11
239.904228
21
108.500991
0
LINE
8
boundary
62
5
39
2
10
239.904228
20
108.500991
11
238.011214
21
107.640316
0
LINE
8
boundary
62
5
39
2
10
238.011214
20
107.640316
11
233.927980
21
106.233061
0
LINE
8
boundary
62
5
39
2
10
233.927980
20
106.233061
11
231.961977
21
105.555493
0
LINE
8
boundary
62
5
39
2
10
231.961977
20
105.555493
11
227.763844
21
104.541179
0
LINE
8
boundary
62
5
39
2
10
227.763844
20
104.541179
11
225.742520
21
104.052805
0
LINE
8
boundary
62
5
39
2
10
225.742520
20
104.052805
11
221.467207
21
103.440549
0
LINE
8
boundary
62
5
39
2
10
221.467207
20
103.440549
11
219.408722
21
103.145758
0
LINE
8
boundary
62
5
39
2
10
219.408722
20
103.145758
11
215.094645
21
102.941060
0
LINE
8
boundary
62
5
39
2
10
215.094645
20
102.941060
11
213.017496
21
102.842501
0
LINE
8
boundary
62
5
39
2
10
213.017496
20
102.842501
11
208.703419
21
103.047200
0
LINE
8
boundary
62
5
39
2
10
208.703419
20
103.047200
11
206.626269
21
103.145758
0
LINE
8
boundary
62
5
39
2
10
206.626269
20
103.145758
11
202.350956
21
103.758015
0
LINE
8
boundary
62
5
39
2
10
202.350956
20
103.758015
11
200.292471
21
104.052805
0
LINE
8
boundary
62
5
39
2
10
200.292471
20
104.052805
11
196.094338
21
105.067119
0
LINE
8
boundary
62
5
39
2
10
196.094338
20
105.067119
11
194.073014
21
105.555493
0
LINE
8
boundary
62
5
39
2
10
194.073014
20
105.555493
11
189.989780
21
106.962748
0
LINE
8
boundary
62
5
39
2
10
189.989780
20
106.962748
11
188.023777
21
107.640316
0
LINE
8
boundary
62
5
39
2
10
188.023777
20
107.640316
11
184.092136
21
109.427871
0
LINE
8
boundary
62
5
39
2
10
184.092136
20
109.427871
11
182.199122
21
110.288545
0
LINE
8
boundary
62
5
39
2
10
182.199122
20
110.288545
11
178.454397
21
112.440334
0
LINE
8
boundary
62
5
39
2
10
178.454397
20
112.440334
11
176.651380
21
113.476382
0
LINE
8
boundary
62
5
39
2
10
176.651380
20
113.476382
11
175.864039
21
112.689040
0
LINE
8
boundary
62
5
39
2
10
175.864039
20
112.689040
11
173.017497
21
109.842498
0
LINE
8
boundary
62
5
39
2
10
173.017497
20
109.842498
11
181.267496
21
93.342498
0
LINE
8
annotation
62
1
39
211
10
204.503731
20
101.665962
11
204.503731
21
103.094712
0
LINE
8
annotation
62
1
39
211
10
204.503731
20
101.665962
11
204.503731
21
103.094712
0
LINE
8
annotation
62
1
39
211
10
204.503731
20
103.094712
11
204.503731
21
101.665962
0
LINE
8
annotation
62
1
39
211
10
204.503731
20
101.665962
11
205.932481
21
101.665962
0
LINE
8
annotation
62
1
39
211
10
192.421871
20
78.254012
11
192.421871
21
76.825262
0
LINE
8
annotation
62
1
39
211
10
242.001147
20
93.762927
11
242.001147
21
95.191677
0
LINE
8
annotation
62
1
39
211
10
242.001147
20
93.762927
11
242.001147
21
95.191677
0
LINE
8
annotation
62
1
39
211
10
242.001147
20
95.191677
11
242.001147
21
93.762927
0
LINE
8
annotation
62
1
39
211
10
242.001147
20
93.762927
11
242.001147
21
92.334177
0
LINE
8
annotation
62
1
39
211
10
184.033845
20
93.762927
11
185.462595
21
93.762927
0
LINE
8
annotation
62
1
39
211
10
184.033845
20
93.762927
11
185.462595
21
93.762927
0
LINE
8
annotation
62
1
39
211
10
185.462595
20
93.762927
11
184.033845
21
93.762927
0
LINE
8
annotation
62
1
39
211
10
184.033845
20
93.762927
11
184.033844
21
92.334177
0
LINE
8
annotation
62
1
39
211
10
234.261540
20
93.969671
11
234.261540
21
93.969671
0
LINE
8
annotation
62
1
39
211
10
234.261540
20
93.969671
11
234.444447
21
94.037831
0
LINE
8
annotation
62
1
39
211
10
234.444447
20
94.037831
11
234.612333
21
94.129962
0
LINE
8
annotation
62
1
39
211
10
234.612333
20
94.129962
11
234.763464
21
94.243717
0
LINE
8
annotation
62
1
39
211
10
234.763464
20
94.243717
11
234.896103
21
94.376747
0
LINE
8
annotation
62
1
39
211
10
234.896103
20
94.376747
11
235.008517
21
94.526705
0
LINE
8
annotation
62
1
39
211
10
235.008517
20
94.526705
11
235.098969
21
94.691245
0
LINE
8
annotation
62
1
39
211
10
235.098969
20
94.691245
11
235.165727
21
94.868018
0
LINE
8
annotation
62
1
39
211
10
235.165727
20
94.868018
11
235.207053
21
95.054678
0
LINE
8
annotation
62
1
39
211
10
235.207053
20
95.054678
11
235.221214
21
95.248876
0
LINE
8
annotation
62
1
39
211
10
235.221214
20
95.248876
11
235.221214
21
96.209454
0
LINE
8
annotation
62
1
39
211
10
235.221214
20
96.209454
11
235.221214
21
96.209454
0
LINE
8
annotation
62
1
39
211
10
235.221214
20
96.209454
11
235.210917
21
96.324519
0
LINE
8
annotation
62
1
39
211
10
235.210917
20
96.324519
11
235.181227
21
96.432845
0
LINE
8
annotation
62
1
39
211
10
235.181227
20
96.432845
11
235.133944
21
96.532616
0
LINE
8
annotation
62
1
39
211
10
235.133944
20
96.532616
11
235.070869
21
96.622019
0
LINE
8
annotation
62
1
39
211
10
235.070869
20
96.622019
11
234.993801
21
96.699237
0
LINE
8
annotation
62
1
39
211
10
234.993801
20
96.699237
11
234.904540
21
96.762455
0
LINE
8
annotation
62
1
39
211
10
234.904540
20
96.762455
11
234.804889
21
96.809858
0
LINE
8
annotation
62
1
39
211
10
234.804889
20
96.809858
11
234.696646
21
96.839631
0
LINE
8
annotation
62
1
39
211
10
234.696646
20
96.839631
11
234.581612
21
96.849959
0
LINE
8
annotation
62
1
39
211
10
234.581612
20
96.849959
11
234.581612
21
96.849959
0
LINE
8
annotation
62
1
39
211
10
234.581612
20
96.849959
11
234.466816
21
96.839631
0
LINE
8
annotation
62
1
39
211
10
234.466816
20
96.839631
11
234.358699
21
96.809858
0
LINE
8
annotation
62
1
39
211
10
234.358699
20
96.809858
11
234.259084
21
96.762455
0
LINE
8
annotation
62
1
39
211
10
234.259084
20
96.762455
11
234.169795
21
96.699237
0
LINE
8
annotation
62
1
39
211
10
234.169795
20
96.699237
11
234.092652
21
96.622019
0
LINE
8
annotation
62
1
39
211
10
234.092652
20
96.622019
11
234.029480
21
96.532616
0
LINE
8
annotation
62
1
39
211
10
234.029480
20
96.532616
11
233.982100
21
96.432845
0
LINE
8
annotation
62
1
39
211
10
233.982100
20
96.432845
11
233.952336
21
96.324519
0
LINE
8
annotation
62
1
39
211
10
233.952336
20
96.324519
11
233.942009
21
96.209454
0
LINE
8
annotation
62
1
39
211
10
233.942009
20
96.209454
11
233.942009
21
95.889201
0
LINE
8
annotation
62
1
39
211
10
233.942009
20
95.889201
11
233.942009
21
95.889201
0
LINE
8
annotation
62
1
39
211
10
233.942009
20
95.889201
11
233.952336
21
95.774142
0
LINE
8
annotation
62
1
39
211
10
233.952336
20
95.774142
11
233.982100
21
95.665833
0
LINE
8
annotation
62
1
39
211
10
233.982100
20
95.665833
11
234.029480
21
95.566085
0
LINE
8
annotation
62
1
39
211
10
234.029480
20
95.566085
11
234.092652
21
95.476711
0
LINE
8
annotation
62
1
39
211
10
234.092652
20
95.476711
11
234.169795
21
95.399523
0
LINE
8
annotation
62
1
39
211
10
234.169795
20
95.399523
11
234.259084
21
95.336333
0
LINE
8
annotation
62
1
39
211
10
234.259084
20
95.336333
11
234.358699
21
95.288954
0
LINE
8
annotation
62
1
39
211
10
234.358699
20
95.288954
11
234.466816
21
95.259197
0
LINE
8
annotation
62
1
39
211
10
234.466816
20
95.259197
11
234.581612
21
95.248876
0
LINE
8
annotation
62
1
39
211
10
234.581612
20
95.248876
11
235.221214
21
95.248876
0
LINE
8
annotation
62
1
39
211
10
233.862082
20
93.609635
11
235.302226
21
93.609635
0
LINE
8
annotation
62
1
39
211
10
237.876666
20
95.409815
11
236.301774
21
95.409815
0
LINE
8
annotation
62
1
39
211
10
239.596918
20
93.969671
11
239.596918
21
96.849959
0
LINE
8
annotation
62
1
39
211
10
239.596918
20
96.849959
11
238.956593
21
96.209454
0
LINE
8
hole
62
5
39
2
10
275.311120
20
77.968262
11
275.882620
21
77.968262
0
LINE
8
hole
62
5
39
2
10
275.882620
20
77.968262
11
275.882620
21
78.539762
0
LINE
8
hole
62
5
39
2
10
275.882620
20
78.539762
11
275.311120
21
78.539762
0
LINE
8
hole
62
5
39
2
10
275.311120
20
78.539762
11
275.311120
21
77.968262
0
LINE
8
hole
62
5
39
2
10
324.890395
20
93.477177
11
325.461895
21
93.477177
0
LINE
8
hole
62
5
39
2
10
325.461895
20
93.477177
11
325.461895
21
94.048677
0
LINE
8
hole
62
5
39
2
10
325.461895
20
94.048677
11
324.890395
21
94.048677
0
LINE
8
hole
62
5
39
2
10
324.890395
20
94.048677
11
324.890395
21
93.477177
0
LINE
8
hole
62
5
39
2
10
287.392980
20
101.380212
11
287.964480
21
101.380212
0
LINE
8
hole
62
5
39
2
10
287.964480
20
101.380212
11
287.964480
21
101.951712
0
LINE
8
hole
62
5
39
2
10
287.964480
20
101.951712
11
287.392980
21
101.951712
0
LINE
8
hole
62
5
39
2
10
287.392980
20
101.951712
11
287.392980
21
101.380212
0
LINE
8
hole
62
5
39
2
10
266.923093
20
93.477177
11
267.494593
21
93.477177
0
LINE
8
hole
62
5
39
2
10
267.494593
20
93.477177
11
267.494593
21
94.048677
0
LINE
8
hole
62
5
39
2
10
267.494593
20
94.048677
11
266.923093
21
94.048677
0
LINE
8
hole
62
5
39
2
10
266.923093
20
94.048677
11
266.923093
21
93.477177
0
LINE
8
boundary
62
5
39
2
10
263.042495
20
96.142498
11
276.192494
21
69.842499
0
LINE
8
boundary
62
5
39
2
10
276.192494
20
69.842499
11
277.171066
21
69.842499
0
LINE
8
boundary
62
5
39
2
10
277.171066
20
69.842499
11
278.692495
21
69.842499
0
LINE
8
boundary
62
5
39
2
10
278.692495
20
69.842499
11
278.692495
21
91.142497
0
LINE
8
boundary
62
5
39
2
10
278.692495
20
91.142497
11
278.692495
21
99.842499
0
LINE
8
boundary
62
5
39
2
10
278.692495
20
99.842499
11
303.542491
21
99.842499
0
LINE
8
boundary
62
5
39
2
10
303.542491
20
99.842499
11
313.692493
21
99.842499
0
LINE
8
boundary
62
5
39
2
10
313.692493
20
99.842499
11
313.692493
21
91.142497
0
LINE
8
boundary
62
5
39
2
10
313.692493
20
91.142497
11
313.692493
21
69.842499
0
LINE
8
boundary
62
5
39
2
10
313.692493
20
69.842499
11
315.213922
21
69.842499
0
LINE
8
boundary
62
5
39
2
10
315.213922
20
69.842499
11
316.192493
21
69.842499
0
LINE
8
boundary
62
5
39
2
10
316.192493
20
69.842499
11
329.342493
21
96.142498
0
LINE
8
boundary
62
5
39
2
10
329.342493
20
96.142498
11
336.192493
21
109.842498
0
LINE
8
boundary
62
5
39
2
10
336.192493
20
109.842498
11
334.533019
21
111.501972
0
LINE
8
boundary
62
5
39
2
10
334.533019
20
111.501972
11
332.558609
21
113.476382
0
LINE
8
boundary
62
5
39
2
10
332.558609
20
113.476382
11
328.037201
21
110.878295
0
LINE
8
boundary
62
5
39
2
10
328.037201
20
110.878295
11
327.010868
21
110.288545
0
LINE
8
boundary
62
5
39
2
10
327.010868
20
110.288545
11
322.263775
21
108.130239
0
LINE
8
boundary
62
5
39
2
10
322.263775
20
108.130239
11
321.186213
21
107.640316
0
LINE
8
boundary
62
5
39
2
10
321.186213
20
107.640316
11
316.256085
21
105.941186
0
LINE
8
boundary
62
5
39
2
10
316.256085
20
105.941186
11
315.136976
21
105.555493
0
LINE
8
boundary
62
5
39
2
10
315.136976
20
105.555493
11
310.068118
21
104.330803
0
LINE
8
boundary
62
5
39
2
10
310.068118
20
104.330803
11
308.917518
21
104.052805
0
LINE
8
boundary
62
5
39
2
10
308.917518
20
104.052805
11
303.755474
21
103.313562
0
LINE
8
boundary
62
5
39
2
10
303.755474
20
103.313562
11
302.583721
21
103.145758
0
LINE
8
boundary
62
5
39
2
10
302.583721
20
103.145758
11
297.374872
21
102.898604
0
LINE
8
boundary
62
5
39
2
10
297.374872
20
102.898604
11
296.192494
21
102.842501
0
LINE
8
boundary
62
5
39
2
10
296.192494
20
102.842501
11
290.983645
21
103.089656
0
LINE
8
boundary
62
5
39
2
10
290.983645
20
103.089656
11
289.801267
21
103.145758
0
LINE
8
boundary
62
5
39
2
10
289.801267
20
103.145758
11
284.639223
21
103.885002
0
LINE
8
boundary
62
5
39
2
10
284.639223
20
103.885002
11
283.467470
21
104.052805
0
LINE
8
boundary
62
5
39
2
10
283.467470
20
104.052805
11
278.398613
21
105.277496
0
LINE
8
boundary
62
5
39
2
10
278.398613
20
105.277496
11
277.248012
21
105.555493
0
LINE
8
boundary
62
5
39
2
10
277.248012
20
105.555493
11
272.317885
21
107.254623
0
LINE
8
boundary
62
5
39
2
10
272.317885
20
107.254623
11
271.198775
21
107.640316
0
LINE
8
boundary
62
5
39
2
10
271.198775
20
107.640316
11
266.451682
21
109.798623
0
LINE
8
boundary
62
5
39
2
10
266.451682
20
109.798623
11
265.374120
21
110.288545
0
LINE
8
boundary
62
5
39
2
10
265.374120
20
110.288545
11
260.852711
21
112.886632
0
LINE
8
boundary
62
5
39
2
10
260.852711
20
112.886632
11
259.826379
21
113.476382
0
LINE
8
boundary
62
5
39
2
10
259.826379
20
113.476382
11
259.378199
21
113.028202
0
LINE
8
boundary
62
5
39
2
10
259.378199
20
113.028202
11
256.192495
21
109.842498
0
LINE
8
boundary
62
5
39
2
10
256.192495
20
109.842498
11
263.042495
21
96.142498
0
LINE
8
annotation
62
1
39
211
10
325.176145
20
93.762927
11
325.176145
21
95.191677
0
LINE
8
annotation
62
1
39
211
10
325.176145
20
93.762927
11
325.176145
21
95.191677
0
LINE
8
annotation
62
1
39
211
10
325.176145
20
95.191677
11
325.176145
21
93.762927
0
LINE
8
annotation
62
1
39
211
10
325.176145
20
93.762927
11
325.176145
21
92.334177
0
LINE
8
annotation
62
1
39
211
10
267.208843
20
93.762927
11
268.637593
21
93.762927
0
LINE
8
annotation
62
1
39
211
10
267.208843
20
93.762927
11
268.637593
21
93.762927
0
LINE
8
annotation
62
1
39
211
10
268.637593
20
93.762927
11
267.208843
21
93.762927
0
LINE
8
annotation
62
1
39
211
10
267.208843
20
93.762927
11
267.208843
21
92.334177
0
LINE
8
annotation
62
1
39
211
10
287.678730
20
101.665962
11
287.678730
21
103.094712
0
LINE
8
annotation
62
1
39
211
10
275.596870
20
78.254012
11
277.025620
21
78.254012
0
LINE
8
annotation
62
1
39
211
10
266.895215
20
98.970171
11
266.895215
21
101.850459
0
LINE
8
annotation
62
1
39
211
10
266.895215
20
101.850459
11
266.254890
21
101.209953
0
LINE
8
annotation
62
1
39
211
10
268.437883
20
99.008163
11
268.437883
21
99.008163
0
LINE
8
annotation
62
1
39
211
10
268.437883
20
99.008163
11
268.504825
21
98.983139
0
LINE
8
annotation
62
1
39
211
10
268.504825
20
98.983139
11
268.573479
21
98.970706
0
LINE
8
annotation
62
1
39
211
10
268.573479
20
98.970706
11
268.642293
21
98.970358
0
LINE
8
annotation
62
1
39
211
10
268.642293
20
98.970358
11
268.709717
21
98.981589
0
LINE
8
annotation
62
1
39
211
10
268.709717
20
98.981589
11
268.774196
21
99.003890
0
LINE
8
annotation
62
1
39
211
10
268.774196
20
99.003890
11
268.834180
21
99.036756
0
LINE
8
annotation
62
1
39
211
10
268.834180
20
99.036756
11
268.888116
21
99.079678
0
LINE
8
annotation
62
1
39
211
10
268.888116
20
99.079678
11
268.934453
21
99.132151
0
LINE
8
annotation
62
1
39
211
10
268.934453
20
99.132151
11
268.971638
21
99.193668
0
LINE
8
annotation
62
1
39
211
10
268.971638
20
99.193668
11
268.971638
21
99.193668
0
LINE
8
annotation
62
1
39
211
10
268.971638
20
99.193668
11
269.082583
21
99.453363
0
LINE
8
annotation
62
1
39
211
10
269.082583
20
99.453363
11
269.165792
21
99.720574
0
LINE
8
annotation
62
1
39
211
10
269.165792
20
99.720574
11
269.221265
21
99.993172
0
LINE
8
annotation
62
1
39
211
10
269.221265
20
99.993172
11
269.249002
21
100.269026
0
LINE
8
annotation
62
1
39
211
10
269.249002
20
100.269026
11
269.249002
21
100.546005
0
LINE
8
annotation
62
1
39
211
10
269.249002
20
100.546005
11
269.221265
21
100.821979
0
LINE
8
annotation
62
1
39
211
10
269.221265
20
100.821979
11
269.165792
21
101.094817
0
LINE
8
annotation
62
1
39
211
10
269.165792
20
101.094817
11
269.082583
21
101.362390
0
LINE
8
annotation
62
1
39
211
10
269.082583
20
101.362390
11
268.971638
21
101.622567
0
LINE
8
annotation
62
1
39
211
10
268.971638
20
101.622567
11
268.971638
21
101.622567
0
LINE
8
annotation
62
1
39
211
10
268.971638
20
101.622567
11
268.957529
21
101.648825
0
LINE
8
annotation
62
1
39
211
10
268.957529
20
101.648825
11
268.941533
21
101.673928
0
LINE
8
annotation
62
1
39
211
10
268.941533
20
101.673928
11
268.923771
21
101.697755
0
LINE
8
annotation
62
1
39
211
10
268.923771
20
101.697755
11
268.904364
21
101.720181
0
LINE
8
annotation
62
1
39
211
10
268.904364
20
101.720181
11
268.883431
21
101.741084
0
LINE
8
annotation
62
1
39
211
10
268.883431
20
101.741084
11
268.861094
21
101.760339
0
LINE
8
annotation
62
1
39
211
10
268.861094
20
101.760339
11
268.837472
21
101.777824
0
LINE
8
annotation
62
1
39
211
10
268.837472
20
101.777824
11
268.812685
21
101.793415
0
LINE
8
annotation
62
1
39
211
10
268.812685
20
101.793415
11
268.786856
21
101.806988
0
LINE
8
annotation
62
1
39
211
10
268.786856
20
101.806988
11
268.786856
21
101.806988
0
LINE
8
annotation
62
1
39
211
10
268.786856
20
101.806988
11
268.719383
21
101.832555
0
LINE
8
annotation
62
1
39
211
10
268.719383
20
101.832555
11
268.650327
21
101.845412
0
LINE
8
annotation
62
1
39
211
10
268.650327
20
101.845412
11
268.581221
21
101.846070
0
LINE
8
annotation
62
1
39
211
10
268.581221
20
101.846070
11
268.513601
21
101.835039
0
LINE
8
annotation
62
1
39
211
10
268.513601
20
101.835039
11
268.449000
21
101.812828
0
LINE
8
annotation
62
1
39
211
10
268.449000
20
101.812828
11
268.388953
21
101.779947
0
LINE
8
annotation
62
1
39
211
10
268.388953
20
101.779947
11
268.334994
21
101.736907
0
LINE
8
annotation
62
1
39
211
10
268.334994
20
101.736907
11
268.288657
21
101.684217
0
LINE
8
annotation
62
1
39
211
10
268.288657
20
101.684217
11
268.251475
21
101.622386
0
LINE
8
annotation
62
1
39
211
10
268.251475
20
101.622386
11
268.251475
21
101.622386
0
LINE
8
annotation
62
1
39
211
10
268.251475
20
101.622386
11
268.141065
21
101.362745
0
LINE
8
annotation
62
1
39
211
10
268.141065
20
101.362745
11
268.058257
21
101.095573
0
LINE
8
annotation
62
1
39
211
10
268.058257
20
101.095573
11
268.003052
21
100.823002
0
LINE
8
annotation
62
1
39
211
10
268.003052
20
100.823002
11
267.975450
21
100.547162
0
LINE
8
annotation
62
1
39
211
10
267.975450
20
100.547162
11
267.975450
21
100.270183
0
LINE
8
annotation
62
1
39
211
10
267.975450
20
100.270183
11
268.003052
21
99.994196
0
LINE
8
annotation
62
1
39
211
10
268.003052
20
99.994196
11
268.058257
21
99.721330
0
LINE
8
annotation
62
1
39
211
10
268.058257
20
99.721330
11
268.141065
21
99.453717
0
LINE
8
annotation
62
1
39
211
10
268.141065
20
99.453717
11
268.251475
21
99.193487
0
LINE
8
annotation
62
1
39
211
10
268.251475
20
99.193487
11
268.251475
21
99.193487
0
LINE
8
annotation
62
1
39
211
10
268.251475
20
99.193487
11
268.265533
21
99.167282
0
LINE
8
annotation
62
1
39
211
10
268.265533
20
99.167282
11
268.281411
21
99.142303
0
LINE
8
annotation
62
1
39
211
10
268.281411
20
99.142303
11
268.299041
21
99.118627
0
LINE
8
annotation
62
1
39
211
10
268.299041
20
99.118627
11
268.318357
21
99.096329
0
LINE
8
annotation
62
1
39
211
10
268.318357
20
99.096329
11
268.339292
21
99.075484
0
LINE
8
annotation
62
1
39
211
10
268.339292
20
99.075484
11
268.361779
21
99.056170
0
LINE
8
annotation
62
1
39
211
10
268.361779
20
99.056170
11
268.385751
21
99.038461
0
LINE
8
annotation
62
1
39
211
10
268.385751
20
99.038461
11
268.411141
21
99.022433
0
LINE
8
annotation
62
1
39
211
10
268.411141
20
99.022433
11
268.437883
21
99.008163
0
LINE
8
annotation
62
1
39
211
10
271.904055
20
100.410315
11
270.329163
21
100.410315
0
LINE
8
annotation
62
1
39
211
10
273.624307
20
98.970171
11
273.624307
21
101.850459
0
LINE
8
annotation
62
1
39
211
10
273.624307
20
101.850459
11
272.983983
21
101.209953
0
LINE
8
hole
62
5
39
2
10
358.486118
20
77.968262
11
359.057618
21
77.968262
0
LINE
8
hole
62
5
39
2
10
359.057618
20
77.968262
11
359.057618
21
78.539762
0
LINE
8
hole
62
5
39
2
10
359.057618
20
78.539762
11
358.486118
21
78.539762
0
LINE
8
hole
62
5
39
2
10
358.486118
20
78.539762
11
358.486118
21
77.968262
0
LINE
8
hole
62
5
39
2
10
408.065393
20
93.477177
11
408.636893
21
93.477177
0
LINE
8
hole
62
5
39
2
10
408.636893
20
93.477177
11
408.636893
21
94.048677
0
LINE
8
hole
62
5
39
2
10
408.636893
20
94.048677
11
408.065393
21
94.048677
0
LINE
8
hole
62
5
39
2
10
408.065393
20
94.048677
11
408.065393
21
93.477177
0
LINE
8
hole
62
5
39
2
10
350.098091
20
93.477177
11
350.669591
21
93.477177
0
LINE
8
hole
62
5
39
2
10
350.669591
20
93.477177
11
350.669591
21
94.048677
0
LINE
8
hole
62
5
39
2
10
350.669591
20
94.048677
11
350.098091
21
94.048677
0
LINE
8
hole
62
5
39
2
10
350.098091
20
94.048677
11
350.098091
21
93.477177
0
LINE
8
hole
62
5
39
2
10
370.567978
20
101.380212
11
371.139478
21
101.380212
0
LINE
8
hole
62
5
39
2
10
371.139478
20
101.380212
11
371.139478
21
101.951712
0
LINE
8
hole
62
5
39
2
10
371.139478
20
101.951712
11
370.567978
21
101.951712
0
LINE
8
hole
62
5
39
2
10
370.567978
20
101.951712
11
370.567978
21
101.380212
0
LINE
8
boundary
62
5
39
2
10
344.817493
20
98.942498
11
359.367493
21
69.842499
0
LINE
8
boundary
62
5
39
2
10
359.367493
20
69.842499
11
360.146064
21
69.842499
0
LINE
8
boundary
62
5
39
2
10
360.146064
20
69.842499
11
361.867493
21
69.842499
0
LINE
8
boundary
62
5
39
2
10
361.867493
20
69.842499
11
361.867493
21
93.942497
0
LINE
8
boundary
62
5
39
2
10
361.867493
20
93.942497
11
361.867493
21
99.842499
0
LINE
8
boundary
62
5
39
2
10
361.867493
20
99.842499
11
389.984156
21
99.842499
0
LINE
8
boundary
62
5
39
2
10
389.984156
20
99.842499
11
396.867491
21
99.842499
0
LINE
8
boundary
62
5
39
2
10
396.867491
20
99.842499
11
396.867491
21
93.942497
0
LINE
8
boundary
62
5
39
2
10
396.867491
20
93.942497
11
396.867491
21
69.842499
0
LINE
8
boundary
62
5
39
2
10
396.867491
20
69.842499
11
398.588920
21
69.842499
0
LINE
8
boundary
62
5
39
2
10
398.588920
20
69.842499
11
399.367492
21
69.842499
0
LINE
8
boundary
62
5
39
2
10
399.367492
20
69.842499
11
413.917491
21
98.942498
0
LINE
8
boundary
62
5
39
2
10
413.917491
20
98.942498
11
419.367491
21
109.842498
0
LINE
8
boundary
62
5
39
2
10
419.367491
20
109.842498
11
418.047180
21
111.162809
0
LINE
8
boundary
62
5
39
2
10
418.047180
20
111.162809
11
415.733608
21
113.476382
0
LINE
8
boundary
62
5
39
2
10
415.733608
20
113.476382
11
410.435515
21
110.431998
0
LINE
8
boundary
62
5
39
2
10
410.435515
20
110.431998
11
404.623321
21
107.759486
0
LINE
8
boundary
62
5
39
2
10
404.623321
20
107.759486
11
398.584190
21
105.649310
0
LINE
8
boundary
62
5
39
2
10
398.584190
20
105.649310
11
392.372393
21
104.120427
0
LINE
8
boundary
62
5
39
2
10
392.372393
20
104.120427
11
386.043740
21
103.186576
0
LINE
8
boundary
62
5
39
2
10
386.043740
20
103.186576
11
379.655098
21
102.856148
0
LINE
8
boundary
62
5
39
2
10
379.655098
20
102.856148
11
373.263871
21
103.132112
0
LINE
8
boundary
62
5
39
2
10
373.263871
20
103.132112
11
366.927489
21
104.011988
0
LINE
8
boundary
62
5
39
2
10
366.927489
20
104.011988
11
360.702887
21
105.487872
0
LINE
8
boundary
62
5
39
2
10
360.702887
20
105.487872
11
354.645990
21
107.546499
0
LINE
8
boundary
62
5
39
2
10
354.645990
20
107.546499
11
348.811228
21
110.169375
0
LINE
8
boundary
62
5
39
2
10
348.811228
20
110.169375
11
343.251026
21
113.332929
0
LINE
8
boundary
62
5
39
2
10
343.251026
20
113.332929
11
339.367493
21
109.842498
0
LINE
8
boundary
62
5
39
2
10
339.367493
20
109.842498
11
344.817493
21
98.942498
0
LINE
8
annotation
62
1
39
211
10
370.853728
20
101.665962
11
370.853728
21
103.094712
0
LINE
8
annotation
62
1
39
211
10
358.771868
20
78.254012
11
360.200618
21
78.254012
0
LINE
8
annotation
62
1
39
211
10
408.351143
20
93.762927
11
408.351143
21
95.191677
0
LINE
8
annotation
62
1
39
211
10
408.351143
20
93.762927
11
408.351143
21
95.191677
0
LINE
8
annotation
62
1
39
211
10
408.351143
20
95.191677
11
408.351143
21
93.762927
0
LINE
8
annotation
62
1
39
211
10
408.351143
20
93.762927
11
409.779893
21
93.762927
0
LINE
8
annotation
62
1
39
211
10
350.383841
20
93.762927
11
350.383841
21
92.334177
0
LINE
8
annotation
62
1
39
211
10
400.391825
20
93.969671
11
400.391825
21
96.849959
0
LINE
8
annotation
62
1
39
211
10
400.391825
20
96.849959
11
399.751500
21
96.209454
0
LINE
8
annotation
62
1
39
211
10
402.112258
20
93.969671
11
402.112258
21
96.849959
0
LINE
8
annotation
62
1
39
211
10
402.112258
20
96.849959
11
401.471933
21
96.209454
0
LINE
8
annotation
62
1
39
211
10
404.767439
20
95.409815
11
403.192547
21
95.409815
0
LINE
8
annotation
62
1
39
211
10
406.487691
20
93.969671
11
406.487691
21
96.849959
0
LINE
8
annotation
62
1
39
211
10
406.487691
20
96.849959
11
405.847366
21
96.209454
0
LINE
8
hole
62
5
39
2
10
451.140988
20
73.261763
11
451.712488
21
73.261763
0
LINE
8
hole
62
5
39
2
10
451.712488
20
73.261763
11
451.712488
21
73.833263
0
LINE
8
hole
62
5
39
2
10
451.712488
20
73.833263
11
451.140988
21
73.833263
0
LINE
8
hole
62
5
39
2
10
451.140988
20
73.833263
11
451.140988
21
73.261763
0
LINE
8
hole
62
5
39
2
10
444.230211
20
74.606525
11
444.801711
21
74.606525
0
LINE
8
hole
62
5
39
2
10
444.801711
20
74.606525
11
444.801711
21
75.178025
0
LINE
8
hole
62
5
39
2
10
444.801711
20
75.178025
11
444.230211
21
75.178025
0
LINE
8
hole
62
5
39
2
10
444.230211
20
75.178025
11
444.230211
21
74.606525
0
LINE
8
hole
62
5
39
2
10
444.230211
20
71.440752
11
444.801711
21
71.440752
0
LINE
8
hole
62
5
39
2
10
444.801711
20
71.440752
11
444.801711
21
72.012252
0
LINE
8
hole
62
5
39
2
10
444.801711
20
72.012252
11
444.230211
21
72.012252
0
LINE
8
hole
62
5
39
2
10
444.230211
20
72.012252
11
444.230211
21
71.440752
0
LINE
8
hole
62
5
39
2
10
436.843185
20
73.261763
11
437.414685
21
73.261763
0
LINE
8
hole
62
5
39
2
10
437.414685
20
73.261763
11
437.414685
21
73.833263
0
LINE
8
hole
62
5
39
2
10
437.414685
20
73.833263
11
436.843185
21
73.833263
0
LINE
8
hole
62
5
39
2
10
436.843185
20
73.833263
11
436.843185
21
73.261763
0
LINE
8
boundary
62
5
39
2
10
442.177837
20
76.776278
11
424.277837
21
76.776278
0
LINE
8
boundary
62
5
39
2
10
424.277837
20
76.776278
11
422.999466
21
75.497908
0
LINE
8
boundary
62
5
39
2
10
422.999466
20
75.497908
11
422.542491
21
75.040934
0
LINE
8
boundary
62
5
39
2
10
422.542491
20
75.040934
11
425.309530
21
73.797042
0
LINE
8
boundary
62
5
39
2
10
425.309530
20
73.797042
11
427.116108
21
72.984915
0
LINE
8
boundary
62
5
39
2
10
427.116108
20
72.984915
11
429.998863
21
72.039660
0
LINE
8
boundary
62
5
39
2
10
429.998863
20
72.039660
11
431.880991
21
71.422511
0
LINE
8
boundary
62
5
39
2
10
431.880991
20
71.422511
11
434.847331
21
70.786428
0
LINE
8
boundary
62
5
39
2
10
434.847331
20
70.786428
11
436.784031
21
70.371135
0
LINE
8
boundary
62
5
39
2
10
436.784031
20
70.371135
11
439.800898
21
70.051310
0
LINE
8
boundary
62
5
39
2
10
439.800898
20
70.051310
11
441.770587
21
69.842499
0
LINE
8
boundary
62
5
39
2
10
441.770587
20
69.842499
11
444.804360
21
69.842499
0
LINE
8
boundary
62
5
39
2
10
444.804360
20
69.842499
11
446.785086
21
69.842499
0
LINE
8
boundary
62
5
39
2
10
446.785086
20
69.842499
11
449.801953
21
70.162324
0
LINE
8
boundary
62
5
39
2
10
449.801953
20
70.162324
11
451.771642
21
70.371135
0
LINE
8
boundary
62
5
39
2
10
451.771642
20
70.371135
11
454.737982
21
71.007218
0
LINE
8
boundary
62
5
39
2
10
454.737982
20
71.007218
11
456.674682
21
71.422511
0
LINE
8
boundary
62
5
39
2
10
456.674682
20
71.422511
11
459.557437
21
72.367766
0
LINE
8
boundary
62
5
39
2
10
459.557437
20
72.367766
11
461.439565
21
72.984915
0
LINE
8
boundary
62
5
39
2
10
461.439565
20
72.984915
11
464.206604
21
74.228807
0
LINE
8
boundary
62
5
39
2
10
464.206604
20
74.228807
11
466.013182
21
75.040934
0
LINE
8
boundary
62
5
39
2
10
466.013182
20
75.040934
11
465.313259
21
75.740856
0
LINE
8
boundary
62
5
39
2
10
465.313259
20
75.740856
11
464.277836
21
76.776278
0
LINE
8
boundary
62
5
39
2
10
464.277836
20
76.776278
11
442.177837
21
76.776278
0
LINE
8
annotation
62
1
39
211
10
463.281407
20
73.812910
11
463.281407
21
73.812910
0
LINE
8
annotation
62
1
39
211
10
444.515961
20
74.892275
11
444.515961
21
76.321025
0
LINE
8
annotation
62
1
39
211
10
444.515961
20
74.892275
11
444.515961
21
76.321025
0
LINE
8
annotation
62
1
39
211
10
444.515961
20
76.321025
11
444.515961
21
74.892275
0
LINE
8
annotation
62
1
39
211
10
444.515961
20
74.892275
11
445.944711
21
74.892275
0
LINE
8
annotation
62
1
39
211
10
444.515961
20
74.892275
11
444.515961
21
76.321025
0
LINE
8
annotation
62
1
39
211
10
444.515961
20
76.321025
11
444.515961
21
74.892275
0
LINE
8
annotation
62
1
39
211
10
444.515961
20
74.892275
11
445.944711
21
74.892275
0
LINE
8
annotation
62
1
39
211
10
445.944711
20
74.892275
11
444.515961
21
74.892275
0
LINE
8
annotation
62
1
39
211
10
444.515961
20
74.892275
11
443.087212
21
74.892275
0
LINE
8
annotation
62
1
39
211
10
444.515961
20
71.726502
11
444.515961
21
70.297752
0
LINE
8
annotation
62
1
39
211
10
444.515961
20
71.726502
11
444.515961
21
70.297752
0
LINE
8
annotation
62
1
39
211
10
444.515961
20
70.297752
11
444.515961
21
71.726502
0
LINE
8
annotation
62
1
39
211
10
444.515961
20
71.726502
11
443.087212
21
71.726502
0
LINE
8
annotation
62
1
39
211
10
451.426738
20
73.547513
11
451.426738
21
74.976263
0
LINE
8
annotation
62
1
39
211
10
451.426738
20
73.547513
11
451.426738
21
74.976263
0
LINE
8
annotation
62
1
39
211
10
451.426738
20
74.976263
11
451.426738
21
73.547513
0
LINE
8
annotation
62
1
39
211
10
451.426738
20
73.547513
11
452.855488
21
73.547513
0
LINE
8
annotation
62
1
39
211
10
451.426738
20
73.547513
11
451.426738
21
74.976263
0
LINE
8
annotation
62
1
39
211
10
451.426738
20
74.976263
11
451.426738
21
73.547513
0
LINE
8
annotation
62
1
39
211
10
451.426738
20
73.547513
11
452.855488
21
73.547513
0
LINE
8
annotation
62
1
39
211
10
452.855488
20
73.547513
11
451.426738
21
73.547513
0
LINE
8
annotation
62
1
39
211
10
451.426738
20
73.547513
11
451.426737
21
72.118763
0
LINE
8
annotation
62
1
39
211
10
437.128935
20
73.547513
11
435.700185
21
73.547513
0
LINE
8
annotation
62
1
39
211
10
442.231809
20
72.423584
11
442.927694
21
75.553787
0
LINE
8
annotation
62
1
39
211
10
442.927694
20
75.553787
11
441.535729
21
75.553787
0
LINE
8
annotation
62
1
39
211
10
442.927694
20
74.159860
11
442.231809
21
74.159860
0
LINE
8
annotation
62
1
39
211
10
445.813454
20
73.988686
11
444.101912
21
73.988686
0
LINE
8
annotation
62
1
39
211
10
448.377419
20
72.423559
11
446.987221
21
72.423559
0
LINE
8
annotation
62
1
39
211
10
446.987221
20
72.423559
11
448.271810
21
74.491581
0
LINE
8
annotation
62
1
39
211
10
448.271810
20
74.491581
11
448.271810
21
74.491581
0
LINE
8
annotation
62
1
39
211
10
448.271810
20
74.491581
11
448.273345
21
74.493482
0
LINE
8
annotation
62
1
39
211
10
448.273345
20
74.493482
11
448.274818
21
74.495398
0
LINE
8
annotation
62
1
39
211
10
448.274818
20
74.495398
11
448.276237
21
74.497347
0
LINE
8
annotation
62
1
39
211
10
448.276237
20
74.497347
11
448.277613
21
74.499344
0
LINE
8
annotation
62
1
39
211
10
448.277613
20
74.499344
11
448.278955
21
74.501406
0
LINE
8
annotation
62
1
39
211
10
448.278955
20
74.501406
11
448.280272
21
74.503548
0
LINE
8
annotation
62
1
39
211
10
448.280272
20
74.503548
11
448.281575
21
74.505788
0
LINE
8
annotation
62
1
39
211
10
448.281575
20
74.505788
11
448.282874
21
74.508141
0
LINE
8
annotation
62
1
39
211
10
448.282874
20
74.508141
11
448.284177
21
74.510623
0
LINE
8
annotation
62
1
39
211
10
448.284177
20
74.510623
11
448.284177
21
74.510623
0
LINE
8
annotation
62
1
39
211
10
448.284177
20
74.510623
11
448.337217
21
74.624505
0
LINE
8
annotation
62
1
39
211
10
448.337217
20
74.624505
11
448.368202
21
74.742554
0
LINE
8
annotation
62
1
39
211
10
448.368202
20
74.742554
11
448.377892
21
74.862102
0
LINE
8
annotation
62
1
39
211
10
448.377892
20
74.862102
11
448.367045
21
74.980482
0
LINE
8
annotation
62
1
39
211
10
448.367045
20
74.980482
11
448.336421
21
75.095026
0
LINE
8
annotation
62
1
39
211
10
448.336421
20
75.095026
11
448.286779
21
75.203068
0
LINE
8
annotation
62
1
39
211
10
448.286779
20
75.203068
11
448.218880
21
75.301939
0
LINE
8
annotation
62
1
39
211
10
448.218880
20
75.301939
11
448.133481
21
75.388972
0
LINE
8
annotation
62
1
39
211
10
448.133481
20
75.388972
11
448.031342
21
75.461501
0
LINE
8
annotation
62
1
39
211
10
448.031342
20
75.461501
11
448.031342
21
75.461501
0
LINE
8
annotation
62
1
39
211
10
448.031342
20
75.461501
11
447.917143
21
75.513787
0
LINE
8
annotation
62
1
39
211
10
447.917143
20
75.513787
11
447.798913
21
75.544295
0
LINE
8
annotation
62
1
39
211
10
447.798913
20
75.544295
11
447.679296
21
75.553711
0
LINE
8
annotation
62
1
39
211
10
447.679296
20
75.553711
11
447.560934
21
75.542721
0
LINE
8
annotation
62
1
39
211
10
447.560934
20
75.542721
11
447.446470
21
75.512012
0
LINE
8
annotation
62
1
39
211
10
447.446470
20
75.512012
11
447.338548
21
75.462271
0
LINE
8
annotation
62
1
39
211
10
447.338548
20
75.462271
11
447.239811
21
75.394185
0
LINE
8
annotation
62
1
39
211
10
447.239811
20
75.394185
11
447.152902
21
75.308439
0
LINE
8
annotation
62
1
39
211
10
447.152902
20
75.308439
11
447.080464
21
75.205721
0
LINE
8
annotation
62
1
39
211
10
447.080464
20
75.205721
11
446.989184
21
75.030622
0
LINE
8
hole
62
5
39
2
10
451.140988
20
83.370543
11
451.712488
21
83.370543
0
LINE
8
hole
62
5
39
2
10
451.712488
20
83.370543
11
451.712488
21
83.942043
0
LINE
8
hole
62
5
39
2
10
451.712488
20
83.942043
11
451.140988
21
83.942043
0
LINE
8
hole
62
5
39
2
10
451.140988
20
83.942043
11
451.140988
21
83.370543
0
LINE
8
hole
62
5
39
2
10
444.230211
20
84.715304
11
444.801711
21
84.715304
0
LINE
8
hole
62
5
39
2
10
444.801711
20
84.715304
11
444.801711
21
85.286804
0
LINE
8
hole
62
5
39
2
10
444.801711
20
85.286804
11
444.230211
21
85.286804
0
LINE
8
hole
62
5
39
2
10
444.230211
20
85.286804
11
444.230211
21
84.715304
0
LINE
8
hole
62
5
39
2
10
444.230211
20
81.549531
11
444.801711
21
81.549531
0
LINE
8
hole
62
5
39
2
10
444.801711
20
81.549531
11
444.801711
21
82.121031
0
LINE
8
hole
62
5
39
2
10
444.801711
20
82.121031
11
444.230211
21
82.121031
0
LINE
8
hole
62
5
39
2
10
444.230211
20
82.121031
11
444.230211
21
81.549531
0
LINE
8
hole
62
5
39
2
10
436.843185
20
83.370543
11
437.414685
21
83.370543
0
LINE
8
hole
62
5
39
2
10
437.414685
20
83.370543
11
437.414685
21
83.942043
0
LINE
8
hole
62
5
39
2
10
437.414685
20
83.942043
11
436.843185
21
83.942043
0
LINE
8
hole
62
5
39
2
10
436.843185
20
83.942043
11
436.843185
21
83.370543
0
LINE
8
boundary
62
5
39
2
10
444.977837
20
86.885057
11
424.277837
21
86.885057
0
LINE
8
boundary
62
5
39
2
10
424.277837
20
86.885057
11
423.161431
21
85.768652
0
LINE
8
boundary
62
5
39
2
10
423.161431
20
85.768652
11
422.542491
21
85.149713
0
LINE
8
boundary
62
5
39
2
10
422.542491
20
85.149713
11
424.669224
21
84.193664
0
LINE
8
boundary
62
5
39
2
10
424.669224
20
84.193664
11
427.116108
21
83.093695
0
LINE
8
boundary
62
5
39
2
10
427.116108
20
83.093695
11
429.331779
21
82.367176
0
LINE
8
boundary
62
5
39
2
10
429.331779
20
82.367176
11
431.880991
21
81.531290
0
LINE
8
boundary
62
5
39
2
10
431.880991
20
81.531290
11
434.160905
21
81.042400
0
LINE
8
boundary
62
5
39
2
10
434.160905
20
81.042400
11
436.784031
21
80.479914
0
LINE
8
boundary
62
5
39
2
10
436.784031
20
80.479914
11
439.102780
21
80.234098
0
LINE
8
boundary
62
5
39
2
10
439.102780
20
80.234098
11
441.770587
21
79.951278
0
LINE
8
boundary
62
5
39
2
10
441.770587
20
79.951278
11
444.102330
21
79.951278
0
LINE
8
boundary
62
5
39
2
10
444.102330
20
79.951278
11
446.785086
21
79.951278
0
LINE
8
boundary
62
5
39
2
10
446.785086
20
79.951278
11
449.103835
21
80.197094
0
LINE
8
boundary
62
5
39
2
10
449.103835
20
80.197094
11
451.771642
21
80.479914
0
LINE
8
boundary
62
5
39
2
10
451.771642
20
80.479914
11
454.051557
21
80.968804
0
LINE
8
boundary
62
5
39
2
10
454.051557
20
80.968804
11
456.674682
21
81.531290
0
LINE
8
boundary
62
5
39
2
10
456.674682
20
81.531290
11
458.890353
21
82.257808
0
LINE
8
boundary
62
5
39
2
10
458.890353
20
82.257808
11
461.439565
21
83.093695
0
LINE
8
boundary
62
5
39
2
10
461.439565
20
83.093695
11
463.566297
21
84.049744
0
LINE
8
boundary
62
5
39
2
10
463.566297
20
84.049744
11
466.013182
21
85.149713
0
LINE
8
boundary
62
5
39
2
10
466.013182
20
85.149713
11
465.475224
21
85.687670
0
LINE
8
boundary
62
5
39
2
10
465.475224
20
85.687670
11
464.277836
21
86.885057
0
LINE
8
boundary
62
5
39
2
10
464.277836
20
86.885057
11
444.977837
21
86.885057
0
LINE
8
annotation
62
1
39
211
10
451.426738
20
83.656293
11
451.426738
21
85.085043
0
LINE
8
annotation
62
1
39
211
10
451.426738
20
83.656293
11
451.426738
21
85.085043
0
LINE
8
annotation
62
1
39
211
10
451.426738
20
85.085043
11
451.426738
21
83.656293
0
LINE
8
annotation
62
1
39
211
10
451.426738
20
83.656293
11
452.855488
21
83.656292
0
LINE
8
annotation
62
1
39
211
10
451.426738
20
83.656293
11
451.426738
21
85.085043
0
LINE
8
annotation
62
1
39
211
10
451.426738
20
85.085043
11
451.426738
21
83.656293
0
LINE
8
annotation
62
1
39
211
10
451.426738
20
83.656293
11
452.855488
21
83.656292
0
LINE
8
annotation
62
1
39
211
10
452.855488
20
83.656292
11
451.426738
21
83.656293
0
LINE
8
annotation
62
1
39
211
10
451.426738
20
83.656293
11
451.426737
21
82.227543
0
LINE
8
annotation
62
1
39
211
10
437.128935
20
83.656293
11
435.700185
21
83.656293
0
LINE
8
annotation
62
1
39
211
10
444.515961
20
85.001054
11
444.515961
21
86.429804
0
LINE
8
annotation
62
1
39
211
10
444.515961
20
85.001054
11
444.515961
21
86.429804
0
LINE
8
annotation
62
1
39
211
10
444.515961
20
86.429804
11
444.515961
21
85.001054
0
LINE
8
annotation
62
1
39
211
10
444.515961
20
85.001054
11
443.087212
21
85.001054
0
LINE
8
annotation
62
1
39
211
10
444.515961
20
81.835281
11
445.944711
21
81.835281
0
LINE
8
annotation
62
1
39
211
10
444.515961
20
81.835281
11
445.944711
21
81.835281
0
LINE
8
annotation
62
1
39
211
10
445.944711
20
81.835281
11
444.515961
21
81.835281
0
LINE
8
annotation
62
1
39
211
10
444.515961
20
81.835281
11
443.087212
21
81.835281
0
LINE
8
annotation
62
1
39
211
10
441.536711
20
83.226383
11
441.536711
21
83.226383
0
LINE
8
annotation
62
1
39
211
10
441.536711
20
83.226383
11
441.547933
21
83.101401
0
LINE
8
annotation
62
1
39
211
10
441.547933
20
83.101401
11
441.580280
21
82.983857
0
LINE
8
annotation
62
1
39
211
10
441.580280
20
82.983857
11
441.631771
21
82.875689
0
LINE
8
annotation
62
1
39
211
10
441.631771
20
82.875689
11
441.700424
21
82.778839
0
LINE
8
annotation
62
1
39
211
10
441.700424
20
82.778839
11
441.784260
21
82.695247
0
LINE
8
annotation
62
1
39
211
10
441.784260
20
82.695247
11
441.881297
21
82.626853
0
LINE
8
annotation
62
1
39
211
10
441.881297
20
82.626853
11
441.989555
21
82.575598
0
LINE
8
annotation
62
1
39
211
10
441.989555
20
82.575598
11
442.107053
21
82.543422
0
LINE
8
annotation
62
1
39
211
10
442.107053
20
82.543422
11
442.231809
21
82.532266
0
LINE
8
annotation
62
1
39
211
10
442.231809
20
82.532266
11
442.231809
21
82.532266
0
LINE
8
annotation
62
1
39
211
10
442.231809
20
82.532266
11
442.356566
21
82.543422
0
LINE
8
annotation
62
1
39
211
10
442.356566
20
82.543422
11
442.474064
21
82.575598
0
LINE
8
annotation
62
1
39
211
10
442.474064
20
82.575598
11
442.582322
21
82.626853
0
LINE
8
annotation
62
1
39
211
10
442.582322
20
82.626853
11
442.679359
21
82.695247
0
LINE
8
annotation
62
1
39
211
10
442.679359
20
82.695247
11
442.763195
21
82.778839
0
LINE
8
annotation
62
1
39
211
10
442.763195
20
82.778839
11
442.831848
21
82.875689
0
LINE
8
annotation
62
1
39
211
10
442.831848
20
82.875689
11
442.883339
21
82.983857
0
LINE
8
annotation
62
1
39
211
10
442.883339
20
82.983857
11
442.915686
21
83.101401
0
LINE
8
annotation
62
1
39
211
10
442.915686
20
83.101401
11
442.926908
21
83.226383
0
LINE
8
annotation
62
1
39
211
10
442.926908
20
83.226383
11
442.926908
21
83.572656
0
LINE
8
annotation
62
1
39
211
10
442.926908
20
83.572656
11
442.926908
21
83.572656
0
LINE
8
annotation
62
1
39
211
10
442.926908
20
83.572656
11
442.915692
21
83.697699
0
LINE
8
annotation
62
1
39
211
10
442.915692
20
83.697699
11
442.883362
21
83.815406
0
LINE
8
annotation
62
1
39
211
10
442.883362
20
83.815406
11
442.831892
21
83.923808
0
LINE
8
annotation
62
1
39
211
10
442.831892
20
83.923808
11
442.763259
21
84.020937
0
LINE
8
annotation
62
1
39
211
10
442.763259
20
84.020937
11
442.679440
21
84.104822
0
LINE
8
annotation
62
1
39
211
10
442.679440
20
84.104822
11
442.582409
21
84.173495
0
LINE
8
annotation
62
1
39
211
10
442.582409
20
84.173495
11
442.474143
21
84.224985
0
LINE
8
annotation
62
1
39
211
10
442.474143
20
84.224985
11
442.356618
21
84.257323
0
LINE
8
annotation
62
1
39
211
10
442.356618
20
84.257323
11
442.231809
21
84.268541
0
LINE
8
annotation
62
1
39
211
10
442.231809
20
84.268541
11
442.231809
21
84.268541
0
LINE
8
annotation
62
1
39
211
10
442.231809
20
84.268541
11
442.107001
21
84.257317
0
LINE
8
annotation
62
1
39
211
10
442.107001
20
84.257317
11
441.989476
21
84.224963
0
LINE
8
annotation
62
1
39
211
10
441.989476
20
84.224963
11
441.881210
21
84.173451
0
LINE
8
annotation
62
1
39
211
10
441.881210
20
84.173451
11
441.784179
21
84.104758
0
LINE
8
annotation
62
1
39
211
10
441.784179
20
84.104758
11
441.700360
21
84.020856
0
LINE
8
annotation
62
1
39
211
10
441.700360
20
84.020856
11
441.631727
21
83.923721
0
LINE
8
annotation
62
1
39
211
10
441.631727
20
83.923721
11
441.580257
21
83.815327
0
LINE
8
annotation
62
1
39
211
10
441.580257
20
83.815327
11
441.547927
21
83.697647
0
LINE
8
annotation
62
1
39
211
10
441.547927
20
83.697647
11
441.536711
21
83.572656
0
LINE
8
annotation
62
1
39
211
10
441.536711
20
83.572656
11
441.536711
21
83.226383
0
LINE
8
annotation
62
1
39
211
10
442.926908
20
84.964621
11
442.926908
21
84.964621
0
LINE
8
annotation
62
1
39
211
10
442.926908
20
84.964621
11
442.915692
21
85.089086
0
LINE
8
annotation
62
1
39
211
10
442.915692
20
85.089086
11
442.883362
21
85.206356
0
LINE
8
annotation
62
1
39
211
10
442.883362
20
85.206356
11
442.831892
21
85.314443
0
LINE
8
annotation
62
1
39
211
10
442.831892
20
85.314443
11
442.763259
21
85.411357
0
LINE
8
annotation
62
1
39
211
10
442.763259
20
85.411357
11
442.679440
21
85.495111
0
LINE
8
annotation
62
1
39
211
10
442.679440
20
85.495111
11
442.582409
21
85.563715
0
LINE
8
annotation
62
1
39
211
10
442.582409
20
85.563715
11
442.474143
21
85.615180
0
LINE
8
annotation
62
1
39
211
10
442.474143
20
85.615180
11
442.356618
21
85.647517
0
LINE
8
annotation
62
1
39
211
10
442.356618
20
85.647517
11
442.231809
21
85.658738
0
LINE
8
annotation
62
1
39
211
10
442.231809
20
85.658738
11
442.231809
21
85.658738
0
LINE
8
annotation
62
1
39
211
10
442.231809
20
85.658738
11
442.107001
21
85.647517
0
LINE
8
annotation
62
1
39
211
10
442.107001
20
85.647517
11
441.989476
21
85.615180
0
LINE
8
annotation
62
1
39
211
10
441.989476
20
85.615180
11
441.881210
21
85.563715
0
LINE
8
annotation
62
1
39
211
10
441.881210
20
85.563715
11
441.784179
21
85.495111
0
LINE
8
annotation
62
1
39
211
10
441.784179
20
85.495111
11
441.700360
21
85.411357
0
LINE
8
annotation
62
1
39
211
10
441.700360
20
85.411357
11
441.631727
21
85.314443
0
LINE
8
annotation
62
1
39
211
10
441.631727
20
85.314443
11
441.580257
21
85.206356
0
LINE
8
annotation
62
1
39
211
10
441.580257
20
85.206356
11
441.547927
21
85.089086
0
LINE
8
annotation
62
1
39
211
10
441.547927
20
85.089086
11
441.536711
21
84.964621
0
LINE
8
annotation
62
1
39
211
10
441.536711
20
84.964621
11
441.536711
21
84.964621
0
LINE
8
annotation
62
1
39
211
10
441.536711
20
84.964621
11
441.547933
21
84.839572
0
LINE
8
annotation
62
1
39
211
10
441.547933
20
84.839572
11
441.580280
21
84.721847
0
LINE
8
annotation
62
1
39
211
10
441.580280
20
84.721847
11
441.631771
21
84.613418
0
LINE
8
annotation
62
1
39
211
10
441.631771
20
84.613418
11
441.700424
21
84.516259
0
LINE
8
annotation
62
1
39
211
10
441.700424
20
84.516259
11
441.784260
21
84.432341
0
LINE
8
annotation
62
1
39
211
10
441.784260
20
84.432341
11
441.881297
21
84.363637
0
LINE
8
annotation
62
1
39
211
10
441.881297
20
84.363637
11
441.989555
21
84.312121
0
LINE
8
annotation
62
1
39
211
10
441.989555
20
84.312121
11
442.107053
21
84.279764
0
LINE
8
annotation
62
1
39
211
10
442.107053
20
84.279764
11
442.231809
21
84.268541
0
LINE
8
annotation
62
1
39
211
10
442.231809
20
84.268541
11
442.231809
21
84.268541
0
LINE
8
annotation
62
1
39
211
10
442.231809
20
84.268541
11
442.356566
21
84.279764
0
LINE
8
annotation
62
1
39
211
10
442.356566
20
84.279764
11
442.474064
21
84.312121
0
LINE
8
annotation
62
1
39
211
10
442.474064
20
84.312121
11
442.582322
21
84.363637
0
LINE
8
annotation
62
1
39
211
10
442.582322
20
84.363637
11
442.679359
21
84.432341
0
LINE
8
annotation
62
1
39
211
10
442.679359
20
84.432341
11
442.763195
21
84.516259
0
LINE
8
annotation
62
1
39
211
10
442.763195
20
84.516259
11
442.831848
21
84.613418
0
LINE
8
annotation
62
1
39
211
10
442.831848
20
84.613418
11
442.883339
21
84.721847
0
LINE
8
annotation
62
1
39
211
10
442.883339
20
84.721847
11
442.915686
21
84.839572
0
LINE
8
annotation
62
1
39
211
10
442.915686
20
84.839572
11
442.926908
21
84.964621
0
LINE
8
annotation
62
1
39
211
10
445.812570
20
84.097465
11
444.101029
21
84.097465
0
LINE
8
annotation
62
1
39
211
10
448.376536
20
82.532338
11
446.986338
21
82.532338
0
LINE
8
annotation
62
1
39
211
10
446.986338
20
82.532338
11
448.270926
21
84.600361
0
LINE
8
annotation
62
1
39
211
10
448.270926
20
84.600361
11
448.270926
21
84.600361
0
LINE
8
annotation
62
1
39
211
10
448.270926
20
84.600361
11
448.272462
21
84.602261
0
LINE
8
annotation
62
1
39
211
10
448.272462
20
84.602261
11
448.273935
21
84.604177
0
LINE
8
annotation
62
1
39
211
10
448.273935
20
84.604177
11
448.275354
21
84.606126
0
LINE
8
annotation
62
1
39
211
10
448.275354
20
84.606126
11
448.276730
21
84.608123
0
LINE
8
annotation
62
1
39
211
10
448.276730
20
84.608123
11
448.278072
21
84.610185
0
LINE
8
annotation
62
1
39
211
10
448.278072
20
84.610185
11
448.279389
21
84.612328
0
LINE
8
annotation
62
1
39
211
10
448.279389
20
84.612328
11
448.280692
21
84.614567
0
LINE
8
annotation
62
1
39
211
10
448.280692
20
84.614567
11
448.281990
21
84.616920
0
LINE
8
annotation
62
1
39
211
10
448.281990
20
84.616920
11
448.283293
21
84.619402
0
LINE
8
annotation
62
1
39
211
10
448.283293
20
84.619402
11
448.283293
21
84.619402
0
LINE
8
annotation
62
1
39
211
10
448.283293
20
84.619402
11
448.336334
21
84.733284
0
LINE
8
annotation
62
1
39
211
10
448.336334
20
84.733284
11
448.367319
21
84.851333
0
LINE
8
annotation
62
1
39
211
10
448.367319
20
84.851333
11
448.377008
21
84.970881
0
LINE
8
annotation
62
1
39
211
10
448.377008
20
84.970881
11
448.366162
21
85.089261
0
LINE
8
annotation
62
1
39
211
10
448.366162
20
85.089261
11
448.335538
21
85.203805
0
LINE
8
annotation
62
1
39
211
10
448.335538
20
85.203805
11
448.285896
21
85.311847
0
LINE
8
annotation
62
1
39
211
10
448.285896
20
85.311847
11
448.217996
21
85.410718
0
LINE
8
annotation
62
1
39
211
10
448.217996
20
85.410718
11
448.132597
21
85.497752
0
LINE
8
annotation
62
1
39
211
10
448.132597
20
85.497752
11
448.030459
21
85.570280
0
LINE
8
annotation
62
1
39
211
10
448.030459
20
85.570280
11
448.030459
21
85.570280
0
LINE
8
annotation
62
1
39
211
10
448.030459
20
85.570280
11
447.916260
21
85.622566
0
LINE
8
annotation
62
1
39
211
10
447.916260
20
85.622566
11
447.798030
21
85.653074
0
LINE
8
annotation
62
1
39
211
10
447.798030
20
85.653074
11
447.678412
21
85.662490
0
LINE
8
annotation
62
1
39
211
10
447.678412
20
85.662490
11
447.560050
21
85.651500
0
LINE
8
annotation
62
1
39
211
10
447.560050
20
85.651500
11
447.445586
21
85.620791
0
LINE
8
annotation
62
1
39
211
10
447.445586
20
85.620791
11
447.337664
21
85.571050
0
LINE
8
annotation
62
1
39
211
10
447.337664
20
85.571050
11
447.238927
21
85.502964
0
LINE
8
annotation
62
1
39
211
10
447.238927
20
85.502964
11
447.152018
21
85.417218
0
LINE
8
annotation
62
1
39
211
10
447.152018
20
85.417218
11
447.079581
21
85.314501
0
LINE
8
annotation
62
1
39
211
10
447.079581
20
85.314501
11
446.988301
21
85.139401
0
LINE
8
hole
62
5
39
2
10
451.140988
20
93.479322
11
451.712488
21
93.479322
0
LINE
8
hole
62
5
39
2
10
451.712488
20
93.479322
11
451.712488
21
94.050822
0
LINE
8
hole
62
5
39
2
10
451.712488
20
94.050822
11
451.140988
21
94.050822
0
LINE
8
hole
62
5
39
2
10
451.140988
20
94.050822
11
451.140988
21
93.479322
0
LINE
8
hole
62
5
39
2
10
444.230211
20
94.824083
11
444.801711
21
94.824083
0
LINE
8
hole
62
5
39
2
10
444.801711
20
94.824083
11
444.801711
21
95.395583
0
LINE
8
hole
62
5
39
2
10
444.801711
20
95.395583
11
444.230211
21
95.395583
0
LINE
8
hole
62
5
39
2
10
444.230211
20
95.395583
11
444.230211
21
94.824083
0
LINE
8
hole
62
5
39
2
10
444.230211
20
91.658310
11
444.801711
21
91.658310
0
LINE
8
hole
62
5
39
2
10
444.801711
20
91.658310
11
444.801711
21
92.229810
0
LINE
8
hole
62
5
39
2
10
444.801711
20
92.229810
11
444.230211
21
92.229810
0
LINE
8
hole
62
5
39
2
10
444.230211
20
92.229810
11
444.230211
21
91.658310
0
LINE
8
hole
62
5
39
2
10
436.843185
20
93.479322
11
437.414685
21
93.479322
0
LINE
8
hole
62
5
39
2
10
437.414685
20
93.479322
11
437.414685
21
94.050822
0
LINE
8
hole
62
5
39
2
10
437.414685
20
94.050822
11
436.843185
21
94.050822
0
LINE
8
hole
62
5
39
2
10
436.843185
20
94.050822
11
436.843185
21
93.479322
0
LINE
8
boundary
62
5
39
2
10
447.777836
20
96.993836
11
424.277837
21
96.993836
0
LINE
8
boundary
62
5
39
2
10
424.277837
20
96.993836
11
423.323397
21
96.039397
0
LINE
8
boundary
62
5
39
2
10
423.323397
20
96.039397
11
422.542491
21
95.258492
0
LINE
8
boundary
62
5
39
2
10
422.542491
20
95.258492
11
424.028918
21
94.590286
0
LINE
8
boundary
62
5
39
2
10
424.028918
20
94.590286
11
427.116108
21
93.202474
0
LINE
8
boundary
62
5
39
2
10
427.116108
20
93.202474
11
428.664696
21
92.694692
0
LINE
8
boundary
62
5
39
2
10
428.664696
20
92.694692
11
431.880991
21
91.640069
0
LINE
8
boundary
62
5
39
2
10
431.880991
20
91.640069
11
433.474479
21
91.298372
0
LINE
8
boundary
62
5
39
2
10
433.474479
20
91.298372
11
436.784031
21
90.588693
0
LINE
8
boundary
62
5
39
2
10
436.784031
20
90.588693
11
438.404662
21
90.416886
0
LINE
8
boundary
62
5
39
2
10
438.404662
20
90.416886
11
441.770587
21
90.060057
0
LINE
8
boundary
62
5
39
2
10
441.770587
20
90.060057
11
443.400300
21
90.060057
0
LINE
8
boundary
62
5
39
2
10
443.400300
20
90.060057
11
446.785086
21
90.060057
0
LINE
8
boundary
62
5
39
2
10
446.785086
20
90.060057
11
448.405717
21
90.231864
0
LINE
8
boundary
62
5
39
2
10
448.405717
20
90.231864
11
451.771642
21
90.588693
0
LINE
8
boundary
62
5
39
2
10
451.771642
20
90.588693
11
453.365131
21
90.930391
0
LINE
8
boundary
62
5
39
2
10
453.365131
20
90.930391
11
456.674682
21
91.640069
0
LINE
8
boundary
62
5
39
2
10
456.674682
20
91.640069
11
458.223270
21
92.147851
0
LINE
8
boundary
62
5
39
2
10
458.223270
20
92.147851
11
461.439565
21
93.202474
0
LINE
8
boundary
62
5
39
2
10
461.439565
20
93.202474
11
462.925991
21
93.870680
0
LINE
8
boundary
62
5
39
2
10
462.925991
20
93.870680
11
466.013182
21
95.258492
0
LINE
8
boundary
62
5
39
2
10
466.013182
20
95.258492
11
465.637190
21
95.634484
0
LINE
8
boundary
62
5
39
2
10
465.637190
20
95.634484
11
464.277836
21
96.993836
0
LINE
8
boundary
62
5
39
2
10
464.277836
20
96.993836
11
447.777836
21
96.993836
0
LINE
8
annotation
62
1
39
211
10
463.281394
20
94.030481
11
463.281394
21
94.030481
0
LINE
8
annotation
62
1
39
211
10
444.515961
20
95.109833
11
444.515961
21
96.538583
0
LINE
8
annotation
62
1
39
211
10
444.515961
20
95.109833
11
444.515961
21
96.538583
0
LINE
8
annotation
62
1
39
211
10
444.515961
20
96.538583
11
444.515961
21
95.109833
0
LINE
8
annotation
62
1
39
211
10
444.515961
20
95.109833
11
443.087212
21
95.109833
0
LINE
8
annotation
62
1
39
211
10
444.515961
20
91.944060
11
445.944711
21
91.944060
0
LINE
8
annotation
62
1
39
211
10
444.515961
20
91.944060
11
445.944711
21
91.944060
0
LINE
8
annotation
62
1
39
211
10
445.944711
20
91.944060
11
444.515961
21
91.944060
0
LINE
8
annotation
62
1
39
211
10
444.515961
20
91.944060
11
443.087212
21
91.944060
0
LINE
8
annotation
62
1
39
211
10
451.426738
20
93.765072
11
451.426738
21
95.193822
0
LINE
8
annotation
62
1
39
211
10
451.426738
20
93.765072
11
451.426738
21
95.193822
0
LINE
8
annotation
62
1
39
211
10
451.426738
20
95.193822
11
451.426738
21
93.765072
0
LINE
8
annotation
62
1
39
211
10
451.426738
20
93.765072
11
452.855488
21
93.765072
0
LINE
8
annotation
62
1
39
211
10
451.426738
20
93.765072
11
451.426738
21
95.193822
0
LINE
8
annotation
62
1
39
211
10
451.426738
20
95.193822
11
451.426738
21
93.765072
0
LINE
8
annotation
62
1
39
211
10
451.426738
20
93.765072
11
452.855488
21
93.765072
0
LINE
8
annotation
62
1
39
211
10
452.855488
20
93.765072
11
451.426738
21
93.765072
0
LINE
8
annotation
62
1
39
211
10
451.426738
20
93.765072
11
449.997988
21
93.765072
0
LINE
8
annotation
62
1
39
211
10
437.128935
20
93.765072
11
437.128935
21
92.336322
0
LINE
8
annotation
62
1
39
211
10
437.128935
20
93.765072
11
437.128935
21
92.336322
0
LINE
8
annotation
62
1
39
211
10
437.128935
20
92.336322
11
437.128935
21
93.765072
0
LINE
8
annotation
62
1
39
211
10
437.128935
20
93.765072
11
435.700185
21
93.765072
0
LINE
8
annotation
62
1
39
211
10
441.883769
20
92.641143
11
441.883769
21
92.641143
0
LINE
8
annotation
62
1
39
211
10
441.883769
20
92.641143
11
442.082547
21
92.715217
0
LINE
8
annotation
62
1
39
211
10
442.082547
20
92.715217
11
442.265000
21
92.815342
0
LINE
8
annotation
62
1
39
211
10
442.265000
20
92.815342
11
442.429244
21
92.938967
0
LINE
8
annotation
62
1
39
211
10
442.429244
20
92.938967
11
442.573392
21
93.083539
0
LINE
8
annotation
62
1
39
211
10
442.573392
20
93.083539
11
442.695559
21
93.246509
0
LINE
8
annotation
62
1
39
211
10
442.695559
20
93.246509
11
442.793861
21
93.425326
0
LINE
8
annotation
62
1
39
211
10
442.793861
20
93.425326
11
442.866410
21
93.617437
0
LINE
8
annotation
62
1
39
211
10
442.866410
20
93.617437
11
442.911322
21
93.820292
0
LINE
8
annotation
62
1
39
211
10
442.911322
20
93.820292
11
442.926712
21
94.031341
0
LINE
8
annotation
62
1
39
211
10
442.926712
20
94.031341
11
442.926712
21
95.075265
0
LINE
8
annotation
62
1
39
211
10
442.926712
20
95.075265
11
442.926712
21
95.075265
0
LINE
8
annotation
62
1
39
211
10
442.926712
20
95.075265
11
442.915522
21
95.200314
0
LINE
8
annotation
62
1
39
211
10
442.915522
20
95.200314
11
442.883256
21
95.318039
0
LINE
8
annotation
62
1
39
211
10
442.883256
20
95.318039
11
442.831870
21
95.426468
0
LINE
8
annotation
62
1
39
211
10
442.831870
20
95.426468
11
442.763321
21
95.523628
0
LINE
8
annotation
62
1
39
211
10
442.763321
20
95.523628
11
442.679566
21
95.607546
0
LINE
8
annotation
62
1
39
211
10
442.679566
20
95.607546
11
442.582562
21
95.676249
0
LINE
8
annotation
62
1
39
211
10
442.582562
20
95.676249
11
442.474263
21
95.727765
0
LINE
8
annotation
62
1
39
211
10
442.474263
20
95.727765
11
442.356628
21
95.760122
0
LINE
8
annotation
62
1
39
211
10
442.356628
20
95.760122
11
442.231613
21
95.771346
0
LINE
8
annotation
62
1
39
211
10
442.231613
20
95.771346
11
442.231613
21
95.771346
0
LINE
8
annotation
62
1
39
211
10
442.231613
20
95.771346
11
442.106856
21
95.760122
0
LINE
8
annotation
62
1
39
211
10
442.106856
20
95.760122
11
441.989359
21
95.727765
0
LINE
8
annotation
62
1
39
211
10
441.989359
20
95.727765
11
441.881101
21
95.676249
0
LINE
8
annotation
62
1
39
211
10
441.881101
20
95.676249
11
441.784064
21
95.607546
0
LINE
8
annotation
62
1
39
211
10
441.784064
20
95.607546
11
441.700228
21
95.523628
0
LINE
8
annotation
62
1
39
211
10
441.700228
20
95.523628
11
441.631574
21
95.426468
0
LINE
8
annotation
62
1
39
211
10
441.631574
20
95.426468
11
441.580084
21
95.318039
0
LINE
8
annotation
62
1
39
211
10
441.580084
20
95.318039
11
441.547737
21
95.200314
0
LINE
8
annotation
62
1
39
211
10
441.547737
20
95.200314
11
441.536514
21
95.075265
0
LINE
8
annotation
62
1
39
211
10
441.536514
20
95.075265
11
441.536514
21
94.727225
0
LINE
8
annotation
62
1
39
211
10
441.536514
20
94.727225
11
441.536514
21
94.727225
0
LINE
8
annotation
62
1
39
211
10
441.536514
20
94.727225
11
441.547737
21
94.602183
0
LINE
8
annotation
62
1
39
211
10
441.547737
20
94.602183
11
441.580084
21
94.484476
0
LINE
8
annotation
62
1
39
211
10
441.580084
20
94.484476
11
441.631574
21
94.376073
0
LINE
8
annotation
62
1
39
211
10
441.631574
20
94.376073
11
441.700228
21
94.278944
0
LINE
8
annotation
62
1
39
211
10
441.700228
20
94.278944
11
441.784064
21
94.195059
0
LINE
8
annotation
62
1
39
211
10
441.784064
20
94.195059
11
441.881101
21
94.126386
0
LINE
8
annotation
62
1
39
211
10
441.881101
20
94.126386
11
441.989359
21
94.074896
0
LINE
8
annotation
62
1
39
211
10
441.989359
20
94.074896
11
442.106856
21
94.042558
0
LINE
8
annotation
62
1
39
211
10
442.106856
20
94.042558
11
442.231613
21
94.031341
0
LINE
8
annotation
62
1
39
211
10
442.231613
20
94.031341
11
442.926712
21
94.031341
0
LINE
8
annotation
62
1
39
211
10
441.449651
20
92.249868
11
443.014753
21
92.249868
0
LINE
8
annotation
62
1
39
211
10
445.812570
20
94.206244
11
444.101029
21
94.206244
0
LINE
8
annotation
62
1
39
211
10
448.376536
20
92.641117
11
446.986338
21
92.641117
0
LINE
8
annotation
62
1
39
211
10
446.986338
20
92.641117
11
448.270926
21
94.709140
0
LINE
8
annotation
62
1
39
211
10
448.270926
20
94.709140
11
448.270926
21
94.709140
0
LINE
8
annotation
62
1
39
211
10
448.270926
20
94.709140
11
448.272462
21
94.711040
0
LINE
8
annotation
62
1
39
211
10
448.272462
20
94.711040
11
448.273935
21
94.712956
0
LINE
8
annotation
62
1
39
211
10
448.273935
20
94.712956
11
448.275354
21
94.714905
0
LINE
8
annotation
62
1
39
211
10
448.275354
20
94.714905
11
448.276730
21
94.716902
0
LINE
8
annotation
62
1
39
211
10
448.276730
20
94.716902
11
448.278072
21
94.718964
0
LINE
8
annotation
62
1
39
211
10
448.278072
20
94.718964
11
448.279389
21
94.721107
0
LINE
8
annotation
62
1
39
211
10
448.279389
20
94.721107
11
448.280692
21
94.723346
0
LINE
8
annotation
62
1
39
211
10
448.280692
20
94.723346
11
448.281990
21
94.725699
0
LINE
8
annotation
62
1
39
211
10
448.281990
20
94.725699
11
448.283293
21
94.728181
0
LINE
8
annotation
62
1
39
211
10
448.283293
20
94.728181
11
448.283293
21
94.728181
0
LINE
8
annotation
62
1
39
211
10
448.283293
20
94.728181
11
448.336334
21
94.842063
0
LINE
8
annotation
62
1
39
211
10
448.336334
20
94.842063
11
448.367319
21
94.960112
0
LINE
8
annotation
62
1
39
211
10
448.367319
20
94.960112
11
448.377008
21
95.079660
0
LINE
8
annotation
62
1
39
211
10
448.377008
20
95.079660
11
448.366162
21
95.198040
0
LINE
8
annotation
62
1
39
211
10
448.366162
20
95.198040
11
448.335538
21
95.312585
0
LINE
8
annotation
62
1
39
211
10
448.335538
20
95.312585
11
448.285896
21
95.420626
0
LINE
8
annotation
62
1
39
211
10
448.285896
20
95.420626
11
448.217996
21
95.519497
0
LINE
8
annotation
62
1
39
211
10
448.217996
20
95.519497
11
448.132597
21
95.606531
0
LINE
8
annotation
62
1
39
211
10
448.132597
20
95.606531
11
448.030459
21
95.679059
0
LINE
8
annotation
62
1
39
211
10
448.030459
20
95.679059
11
448.030459
21
95.679059
0
LINE
8
annotation
62
1
39
211
10
448.030459
20
95.679059
11
447.916260
21
95.731346
0
LINE
8
annotation
62
1
39
211
10
447.916260
20
95.731346
11
447.798030
21
95.761854
0
LINE
8
annotation
62
1
39
211
10
447.798030
20
95.761854
11
447.678412
21
95.771269
0
LINE
8
annotation
62
1
39
211
10
447.678412
20
95.771269
11
447.560050
21
95.760279
0
LINE
8
annotation
62
1
39
211
10
447.560050
20
95.760279
11
447.445586
21
95.729571
0
LINE
8
annotation
62
1
39
211
10
447.445586
20
95.729571
11
447.337664
21
95.679830
0
LINE
8
annotation
62
1
39
211
10
447.337664
20
95.679830
11
447.238927
21
95.611743
0
LINE
8
annotation
62
1
39
211
10
447.238927
20
95.611743
11
447.152018
21
95.525998
0
LINE
8
annotation
62
1
39
211
10
447.152018
20
95.525998
11
447.079581
21
95.423280
0
LINE
8
annotation
62
1
39
211
10
447.079581
20
95.423280
11
446.988301
21
95.248180
0
LINE
8
hole
62
5
39
2
10
451.140988
20
103.588101
11
451.712488
21
103.588101
0
LINE
8
hole
62
5
39
2
10
451.712488
20
103.588101
11
451.712488
21
104.159601
0
LINE
8
hole
62
5
39
2
10
451.712488
20
104.159601
11
451.140988
21
104.159601
0
LINE
8
hole
62
5
39
2
10
451.140988
20
104.159601
11
451.140988
21
103.588101
0
LINE
8
hole
62
5
39
2
10
444.230211
20
104.932863
11
444.801711
21
104.932863
0
LINE
8
hole
62
5
39
2
10
444.801711
20
104.932863
11
444.801711
21
105.504363
0
LINE
8
hole
62
5
39
2
10
444.801711
20
105.504363
11
444.230211
21
105.504363
0
LINE
8
hole
62
5
39
2
10
444.230211
20
105.504363
11
444.230211
21
104.932863
0
LINE
8
hole
62
5
39
2
10
444.230211
20
101.767089
11
444.801711
21
101.767089
0
LINE
8
hole
62
5
39
2
10
444.801711
20
101.767089
11
444.801711
21
102.338589
0
LINE
8
hole
62
5
39
2
10
444.801711
20
102.338589
11
444.230211
21
102.338589
0
LINE
8
hole
62
5
39
2
10
444.230211
20
102.338589
11
444.230211
21
101.767089
0
LINE
8
hole
62
5
39
2
10
436.843185
20
103.588101
11
437.414685
21
103.588101
0
LINE
8
hole
62
5
39
2
10
437.414685
20
103.588101
11
437.414685
21
104.159601
0
LINE
8
hole
62
5
39
2
10
437.414685
20
104.159601
11
436.843185
21
104.159601
0
LINE
8
hole
62
5
39
2
10
436.843185
20
104.159601
11
436.843185
21
103.588101
0
LINE
8
boundary
62
5
39
2
10
450.577836
20
107.102616
11
424.277837
21
107.102615
0
LINE
8
boundary
62
5
39
2
10
424.277837
20
107.102615
11
423.485362
21
106.310142
0
LINE
8
boundary
62
5
39
2
10
423.485362
20
106.310142
11
422.542491
21
105.367271
0
LINE
8
boundary
62
5
39
2
10
422.542491
20
105.367271
11
423.388611
21
104.986908
0
LINE
8
boundary
62
5
39
2
10
423.388611
20
104.986908
11
427.116108
21
103.311253
0
LINE
8
boundary
62
5
39
2
10
427.116108
20
103.311253
11
427.997612
21
103.022208
0
LINE
8
boundary
62
5
39
2
10
427.997612
20
103.022208
11
431.880991
21
101.748848
0
LINE
8
boundary
62
5
39
2
10
431.880991
20
101.748848
11
432.788054
21
101.554344
0
LINE
8
boundary
62
5
39
2
10
432.788054
20
101.554344
11
436.784031
21
100.697473
0
LINE
8
boundary
62
5
39
2
10
436.784031
20
100.697473
11
437.706544
21
100.599675
0
LINE
8
boundary
62
5
39
2
10
437.706544
20
100.599675
11
441.770587
21
100.168836
0
LINE
8
boundary
62
5
39
2
10
441.770587
20
100.168836
11
442.698270
21
100.168836
0
LINE
8
boundary
62
5
39
2
10
442.698270
20
100.168836
11
446.785086
21
100.168836
0
LINE
8
boundary
62
5
39
2
10
446.785086
20
100.168836
11
447.707599
21
100.266634
0
LINE
8
boundary
62
5
39
2
10
447.707599
20
100.266634
11
451.771642
21
100.697473
0
LINE
8
boundary
62
5
39
2
10
451.771642
20
100.697473
11
452.678705
21
100.891977
0
LINE
8
boundary
62
5
39
2
10
452.678705
20
100.891977
11
456.674682
21
101.748848
0
LINE
8
boundary
62
5
39
2
10
456.674682
20
101.748848
11
457.556186
21
102.037893
0
LINE
8
boundary
62
5
39
2
10
457.556186
20
102.037893
11
461.439565
21
103.311253
0
LINE
8
boundary
62
5
39
2
10
461.439565
20
103.311253
11
462.285684
21
103.691617
0
LINE
8
boundary
62
5
39
2
10
462.285684
20
103.691617
11
466.013182
21
105.367272
0
LINE
8
boundary
62
5
39
2
10
466.013182
20
105.367272
11
464.277836
21
107.102615
0
LINE
8
boundary
62
5
39
2
10
464.277836
20
107.102615
11
450.577836
21
107.102616
0
LINE
8
annotation
62
1
39
211
10
463.281414
20
104.139240
11
463.281414
21
104.139240
0
LINE
8
annotation
62
1
39
211
10
451.426738
20
103.873851
11
451.426738
21
105.302601
0
LINE
8
annotation
62
1
39
211
10
451.426738
20
103.873851
11
451.426738
21
105.302601
0
LINE
8
annotation
62
1
39
211
10
451.426738
20
105.302601
11
451.426738
21
103.873851
0
LINE
8
annotation
62
1
39
211
10
451.426738
20
103.873851
11
452.855488
21
103.873851
0
LINE
8
annotation
62
1
39
211
10
451.426738
20
103.873851
11
451.426738
21
105.302601
0
LINE
8
annotation
62
1
39
211
10
451.426738
20
105.302601
11
451.426738
21
103.873851
0
LINE
8
annotation
62
1
39
211
10
451.426738
20
103.873851
11
452.855488
21
103.873851
0
LINE
8
annotation
62
1
39
211
10
452.855488
20
103.873851
11
451.426738
21
103.873851
0
LINE
8
annotation
62
1
39
211
10
451.426738
20
103.873851
11
449.997988
21
103.873851
0
LINE
8
annotation
62
1
39
211
10
437.128935
20
103.873851
11
437.128935
21
102.445101
0
LINE
8
annotation
62
1
39
211
10
437.128935
20
103.873851
11
437.128935
21
102.445101
0
LINE
8
annotation
62
1
39
211
10
437.128935
20
102.445101
11
437.128935
21
103.873851
0
LINE
8
annotation
62
1
39
211
10
437.128935
20
103.873851
11
435.700185
21
103.873851
0
LINE
8
annotation
62
1
39
211
10
444.515961
20
105.218613
11
444.515961
21
106.647363
0
LINE
8
annotation
62
1
39
211
10
444.515961
20
105.218613
11
444.515961
21
106.647363
0
LINE
8
annotation
62
1
39
211
10
444.515961
20
106.647363
11
444.515961
21
105.218613
0
LINE
8
annotation
62
1
39
211
10
444.515961
20
105.218613
11
445.944711
21
105.218613
0
LINE
8
annotation
62
1
39
211
10
444.515961
20
105.218613
11
444.515961
21
106.647363
0
LINE
8
annotation
62
1
39
211
10
444.515961
20
106.647363
11
444.515961
21
105.218613
0
LINE
8
annotation
62
1
39
211
10
444.515961
20
105.218613
11
445.944711
21
105.218613
0
LINE
8
annotation
62
1
39
211
10
445.944711
20
105.218613
11
444.515961
21
105.218613
0
LINE
8
annotation
62
1
39
211
10
444.515961
20
105.218613
11
444.515961
21
103.789863
0
LINE
8
annotation
62
1
39
211
10
444.515961
20
102.052839
11
443.087212
21
102.052839
0
LINE
8
annotation
62
1
39
211
10
441.300909
20
102.749922
11
441.300909
21
105.880125
0
LINE
8
annotation
62
1
39
211
10
441.300909
20
105.880125
11
440.605025
21
105.184044
0
LINE
8
annotation
62
1
39
211
10
442.977431
20
102.791211
11
442.977431
21
102.791211
0
LINE
8
annotation
62
1
39
211
10
442.977431
20
102.791211
11
443.050181
21
102.764015
0
LINE
8
annotation
62
1
39
211
10
443.050181
20
102.764015
11
443.124792
21
102.750503
0
LINE
8
annotation
62
1
39
211
10
443.124792
20
102.750503
11
443.199578
21
102.750126
0
LINE
8
annotation
62
1
39
211
10
443.199578
20
102.750126
11
443.272851
21
102.762330
0
LINE
8
annotation
62
1
39
211
10
443.272851
20
102.762330
11
443.342925
21
102.786567
0
LINE
8
annotation
62
1
39
211
10
443.342925
20
102.786567
11
443.408114
21
102.822284
0
LINE
8
annotation
62
1
39
211
10
443.408114
20
102.822284
11
443.466730
21
102.868931
0
LINE
8
annotation
62
1
39
211
10
443.466730
20
102.868931
11
443.517087
21
102.925957
0
LINE
8
annotation
62
1
39
211
10
443.517087
20
102.925957
11
443.557498
21
102.992811
0
LINE
8
annotation
62
1
39
211
10
443.557498
20
102.992811
11
443.557498
21
102.992811
0
LINE
8
annotation
62
1
39
211
10
443.557498
20
102.992811
11
443.678070
21
103.275039
0
LINE
8
annotation
62
1
39
211
10
443.678070
20
103.275039
11
443.768499
21
103.565436
0
LINE
8
annotation
62
1
39
211
10
443.768499
20
103.565436
11
443.828785
21
103.861686
0
LINE
8
annotation
62
1
39
211
10
443.828785
20
103.861686
11
443.858928
21
104.161475
0
LINE
8
annotation
62
1
39
211
10
443.858928
20
104.161475
11
443.858928
21
104.462487
0
LINE
8
annotation
62
1
39
211
10
443.858928
20
104.462487
11
443.828785
21
104.762406
0
LINE
8
annotation
62
1
39
211
10
443.828785
20
104.762406
11
443.768499
21
105.058918
0
LINE
8
annotation
62
1
39
211
10
443.768499
20
105.058918
11
443.678070
21
105.349708
0
LINE
8
annotation
62
1
39
211
10
443.678070
20
105.349708
11
443.557498
21
105.632459
0
LINE
8
annotation
62
1
39
211
10
443.557498
20
105.632459
11
443.557498
21
105.632459
0
LINE
8
annotation
62
1
39
211
10
443.557498
20
105.632459
11
443.542165
21
105.660995
0
LINE
8
annotation
62
1
39
211
10
443.542165
20
105.660995
11
443.524782
21
105.688277
0
LINE
8
annotation
62
1
39
211
10
443.524782
20
105.688277
11
443.505479
21
105.714171
0
LINE
8
annotation
62
1
39
211
10
443.505479
20
105.714171
11
443.484387
21
105.738543
0
LINE
8
annotation
62
1
39
211
10
443.484387
20
105.738543
11
443.461638
21
105.761259
0
LINE
8
annotation
62
1
39
211
10
443.461638
20
105.761259
11
443.437362
21
105.782185
0
LINE
8
annotation
62
1
39
211
10
443.437362
20
105.782185
11
443.411691
21
105.801187
0
LINE
8
annotation
62
1
39
211
10
443.411691
20
105.801187
11
443.384754
21
105.818131
0
LINE
8
annotation
62
1
39
211
10
443.384754
20
105.818131
11
443.356683
21
105.832882
0
LINE
8
annotation
62
1
39
211
10
443.356683
20
105.832882
11
443.356683
21
105.832882
0
LINE
8
annotation
62
1
39
211
10
443.356683
20
105.832882
11
443.283356
21
105.860667
0
LINE
8
annotation
62
1
39
211
10
443.283356
20
105.860667
11
443.208308
21
105.874640
0
LINE
8
annotation
62
1
39
211
10
443.208308
20
105.874640
11
443.133206
21
105.875355
0
LINE
8
annotation
62
1
39
211
10
443.133206
20
105.875355
11
443.059719
21
105.863367
0
LINE
8
annotation
62
1
39
211
10
443.059719
20
105.863367
11
442.989513
21
105.839229
0
LINE
8
annotation
62
1
39
211
10
442.989513
20
105.839229
11
442.924256
21
105.803495
0
LINE
8
annotation
62
1
39
211
10
442.924256
20
105.803495
11
442.865614
21
105.756720
0
LINE
8
annotation
62
1
39
211
10
442.865614
20
105.756720
11
442.815257
21
105.699458
0
LINE
8
annotation
62
1
39
211
10
442.815257
20
105.699458
11
442.774849
21
105.632263
0
LINE
8
annotation
62
1
39
211
10
442.774849
20
105.632263
11
442.774849
21
105.632263
0
LINE
8
annotation
62
1
39
211
10
442.774849
20
105.632263
11
442.654859
21
105.350093
0
LINE
8
annotation
62
1
39
211
10
442.654859
20
105.350093
11
442.564866
21
105.059740
0
LINE
8
annotation
62
1
39
211
10
442.564866
20
105.059740
11
442.504871
21
104.763518
0
LINE
8
annotation
62
1
39
211
10
442.504871
20
104.763518
11
442.474874
21
104.463744
0
LINE
8
annotation
62
1
39
211
10
442.474874
20
104.463744
11
442.474874
21
104.162733
0
LINE
8
annotation
62
1
39
211
10
442.474874
20
104.162733
11
442.504871
21
103.862799
0
LINE
8
annotation
62
1
39
211
10
442.504871
20
103.862799
11
442.564866
21
103.566257
0
LINE
8
annotation
62
1
39
211
10
442.564866
20
103.566257
11
442.654859
21
103.275424
0
LINE
8
annotation
62
1
39
211
10
442.654859
20
103.275424
11
442.774849
21
102.992614
0
LINE
8
annotation
62
1
39
211
10
442.774849
20
102.992614
11
442.774849
21
102.992614
0
LINE
8
annotation
62
1
39
211
10
442.774849
20
102.992614
11
442.790127
21
102.964136
0
LINE
8
annotation
62
1
39
211
10
442.790127
20
102.964136
11
442.807382
21
102.936990
0
LINE
8
annotation
62
1
39
211
10
442.807382
20
102.936990
11
442.826542
21
102.911259
0
LINE
8
annotation
62
1
39
211
10
442.826542
20
102.911259
11
442.847534
21
102.887026
0
LINE
8
annotation
62
1
39
211
10
442.847534
20
102.887026
11
442.870285
21
102.864373
0
LINE
8
annotation
62
1
39
211
10
442.870285
20
102.864373
11
442.894723
21
102.843383
0
LINE
8
annotation
62
1
39
211
10
442.894723
20
102.843383
11
442.920776
21
102.824137
0
LINE
8
annotation
62
1
39
211
10
442.920776
20
102.824137
11
442.948369
21
102.806719
0
LINE
8
annotation
62
1
39
211
10
442.948369
20
102.806719
11
442.977431
21
102.791211
0
LINE
8
annotation
62
1
39
211
10
446.744353
20
104.315023
11
445.032812
21
104.315023
0
LINE
8
annotation
62
1
39
211
10
449.308319
20
102.749897
11
447.918121
21
102.749897
0
LINE
8
annotation
62
1
39
211
10
447.918121
20
102.749897
11
449.202710
21
104.817919
0
LINE
8
annotation
62
1
39
211
10
449.202710
20
104.817919
11
449.202710
21
104.817919
0
LINE
8
annotation
62
1
39
211
10
449.202710
20
104.817919
11
449.204245
21
104.819819
0
LINE
8
annotation
62
1
39
211
10
449.204245
20
104.819819
11
449.205718
21
104.821736
0
LINE
8
annotation
62
1
39
211
10
449.205718
20
104.821736
11
449.207137
21
104.823684
0
LINE
8
annotation
62
1
39
211
10
449.207137
20
104.823684
11
449.208513
21
104.825682
0
LINE
8
annotation
62
1
39
211
10
449.208513
20
104.825682
11
449.209855
21
104.827743
0
LINE
8
annotation
62
1
39
211
10
449.209855
20
104.827743
11
449.211172
21
104.829886
0
LINE
8
annotation
62
1
39
211
10
449.211172
20
104.829886
11
449.212475
21
104.832126
0
LINE
8
annotation
62
1
39
211
10
449.212475
20
104.832126
11
449.213774
21
104.834478
0
LINE
8
annotation
62
1
39
211
10
449.213774
20
104.834478
11
449.215077
21
104.836960
0
LINE
8
annotation
62
1
39
211
10
449.215077
20
104.836960
11
449.215077
21
104.836960
0
LINE
8
annotation
62
1
39
211
10
449.215077
20
104.836960
11
449.268117
21
104.950842
0
LINE
8
annotation
62
1
39
211
10
449.268117
20
104.950842
11
449.299102
21
105.068891
0
LINE
8
annotation
62
1
39
211
10
449.299102
20
105.068891
11
449.308792
21
105.188439
0
LINE
8
annotation
62
1
39
211
10
449.308792
20
105.188439
11
449.297945
21
105.306819
0
LINE
8
annotation
62
1
39
211
10
449.297945
20
105.306819
11
449.267321
21
105.421364
0
LINE
8
annotation
62
1
39
211
10
449.267321
20
105.421364
11
449.217679
21
105.529405
0
LINE
8
annotation
62
1
39
211
10
449.217679
20
105.529405
11
449.149779
21
105.628277
0
LINE
8
annotation
62
1
39
211
10
449.149779
20
105.628277
11
449.064381
21
105.715310
0
LINE
8
annotation
62
1
39
211
10
449.064381
20
105.715310
11
448.962242
21
105.787838
0
LINE
8
annotation
62
1
39
211
10
448.962242
20
105.787838
11
448.962242
21
105.787838
0
LINE
8
annotation
62
1
39
211
10
448.962242
20
105.787838
11
448.848043
21
105.840125
0
LINE
8
annotation
62
1
39
211
10
448.848043
20
105.840125
11
448.729813
21
105.870633
0
LINE
8
annotation
62
1
39
211
10
448.729813
20
105.870633
11
448.610196
21
105.880048
0
LINE
8
annotation
62
1
39
211
10
448.610196
20
105.880048
11
448.491834
21
105.869059
0
LINE
8
annotation
62
1
39
211
10
448.491834
20
105.869059
11
448.377370
21
105.838350
0
LINE
8
annotation
62
1
39
211
10
448.377370
20
105.838350
11
448.269448
21
105.788609
0
LINE
8
annotation
62
1
39
211
10
448.269448
20
105.788609
11
448.170711
21
105.720522
0
LINE
8
annotation
62
1
39
211
10
448.170711
20
105.720522
11
448.083802
21
105.634777
0
LINE
8
annotation
62
1
39
211
10
448.083802
20
105.634777
11
448.011364
21
105.532059
0
LINE
8
annotation
62
1
39
211
10
448.011364
20
105.532059
11
447.920084
21
105.356959
0
LINE
8
hole
62
5
39
2
10
497.786678
20
73.261763
11
498.358178
21
73.261763
0
LINE
8
hole
62
5
39
2
10
498.358178
20
73.261763
11
498.358178
21
73.833263
0
LINE
8
hole
62
5
39
2
10
498.358178
20
73.833263
11
497.786678
21
73.833263
0
LINE
8
hole
62
5
39
2
10
497.786678
20
73.833263
11
497.786678
21
73.261763
0
LINE
8
hole
62
5
39
2
10
490.875902
20
74.606525
11
491.447402
21
74.606525
0
LINE
8
hole
62
5
39
2
10
491.447402
20
74.606525
11
491.447402
21
75.178025
0
LINE
8
hole
62
5
39
2
10
491.447402
20
75.178025
11
490.875902
21
75.178025
0
LINE
8
hole
62
5
39
2
10
490.875902
20
75.178025
11
490.875902
21
74.606525
0
LINE
8
hole
62
5
39
2
10
490.875902
20
71.440752
11
491.447402
21
71.440752
0
LINE
8
hole
62
5
39
2
10
491.447402
20
71.440752
11
491.447402
21
72.012252
0
LINE
8
hole
62
5
39
2
10
491.447402
20
72.012252
11
490.875902
21
72.012252
0
LINE
8
hole
62
5
39
2
10
490.875902
20
72.012252
11
490.875902
21
71.440752
0
LINE
8
hole
62
5
39
2
10
483.488876
20
73.261763
11
484.060376
21
73.261763
0
LINE
8
hole
62
5
39
2
10
484.060376
20
73.261763
11
484.060376
21
73.833263
0
LINE
8
hole
62
5
39
2
10
484.060376
20
73.833263
11
483.488876
21
73.833263
0
LINE
8
hole
62
5
39
2
10
483.488876
20
73.833263
11
483.488876
21
73.261763
0
LINE
8
boundary
62
5
39
2
10
500.023527
20
76.776278
11
470.923527
21
76.776278
0
LINE
8
boundary
62
5
39
2
10
470.923527
20
76.776278
11
470.293018
21
76.145769
0
LINE
8
boundary
62
5
39
2
10
470.293018
20
76.145769
11
469.188182
21
75.040934
0
LINE
8
boundary
62
5
39
2
10
469.188182
20
75.040934
11
473.761799
21
72.984915
0
LINE
8
boundary
62
5
39
2
10
473.761799
20
72.984915
11
478.526681
21
71.422511
0
LINE
8
boundary
62
5
39
2
10
478.526681
20
71.422511
11
483.429721
21
70.371135
0
LINE
8
boundary
62
5
39
2
10
483.429721
20
70.371135
11
488.416277
21
69.842499
0
LINE
8
boundary
62
5
39
2
10
488.416277
20
69.842499
11
493.430776
21
69.842499
0
LINE
8
boundary
62
5
39
2
10
493.430776
20
69.842499
11
498.417333
21
70.371135
0
LINE
8
boundary
62
5
39
2
10
498.417333
20
70.371135
11
503.320373
21
71.422511
0
LINE
8
boundary
62
5
39
2
10
503.320373
20
71.422511
11
508.085255
21
72.984915
0
LINE
8
boundary
62
5
39
2
10
508.085255
20
72.984915
11
512.658872
21
75.040934
0
LINE
8
boundary
62
5
39
2
10
512.658872
20
75.040934
11
510.923526
21
76.776278
0
LINE
8
boundary
62
5
39
2
10
510.923526
20
76.776278
11
500.023527
21
76.776278
0
LINE
8
annotation
62
1
39
211
10
491.161652
20
74.892275
11
491.161652
21
76.321025
0
LINE
8
annotation
62
1
39
211
10
491.161652
20
74.892275
11
491.161652
21
76.321025
0
LINE
8
annotation
62
1
39
211
10
491.161652
20
76.321025
11
491.161652
21
74.892275
0
LINE
8
annotation
62
1
39
211
10
491.161652
20
74.892275
11
492.590402
21
74.892275
0
LINE
8
annotation
62
1
39
211
10
491.161652
20
74.892275
11
491.161652
21
76.321025
0
LINE
8
annotation
62
1
39
211
10
491.161652
20
76.321025
11
491.161652
21
74.892275
0
LINE
8
annotation
62
1
39
211
10
491.161652
20
74.892275
11
492.590402
21
74.892275
0
LINE
8
annotation
62
1
39
211
10
492.590402
20
74.892275
11
491.161652
21
74.892275
0
LINE
8
annotation
62
1
39
211
10
491.161652
20
74.892275
11
491.161652
21
73.463525
0
LINE
8
annotation
62
1
39
211
10
491.161652
20
71.726502
11
489.732902
21
71.726502
0
LINE
8
annotation
62
1
39
211
10
498.072428
20
73.547513
11
498.072428
21
74.976263
0
LINE
8
annotation
62
1
39
211
10
498.072428
20
73.547513
11
498.072428
21
74.976263
0
LINE
8
annotation
62
1
39
211
10
498.072428
20
74.976263
11
498.072428
21
73.547513
0
LINE
8
annotation
62
1
39
211
10
498.072428
20
73.547513
11
496.643678
21
73.547513
0
LINE
8
annotation
62
1
39
211
10
483.774626
20
73.547513
11
485.203376
21
73.547513
0
LINE
8
annotation
62
1
39
211
10
483.774626
20
73.547513
11
485.203376
21
73.547513
0
LINE
8
annotation
62
1
39
211
10
485.203376
20
73.547513
11
483.774626
21
73.547513
0
LINE
8
annotation
62
1
39
211
10
483.774626
20
73.547513
11
482.345876
21
73.547513
0
LINE
8
annotation
62
1
39
211
10
488.290685
20
72.423584
11
488.290685
21
75.553787
0
LINE
8
annotation
62
1
39
211
10
488.290685
20
75.553787
11
487.594801
21
74.857707
0
LINE
8
annotation
62
1
39
211
10
490.160395
20
72.423584
11
490.160395
21
75.553787
0
LINE
8
annotation
62
1
39
211
10
490.160395
20
75.553787
11
489.464511
21
74.857707
0
LINE
8
annotation
62
1
39
211
10
493.045959
20
73.988686
11
491.334417
21
73.988686
0
LINE
8
annotation
62
1
39
211
10
495.609924
20
72.423559
11
494.219726
21
72.423559
0
LINE
8
annotation
62
1
39
211
10
494.219726
20
72.423559
11
495.504315
21
74.491581
0
LINE
8
annotation
62
1
39
211
10
495.504315
20
74.491581
11
495.504315
21
74.491581
0
LINE
8
annotation
62
1
39
211
10
495.504315
20
74.491581
11
495.505851
21
74.493482
0
LINE
8
annotation
62
1
39
211
10
495.505851
20
74.493482
11
495.507323
21
74.495398
0
LINE
8
annotation
62
1
39
211
10
495.507323
20
74.495398
11
495.508743
21
74.497347
0
LINE
8
annotation
62
1
39
211
10
495.508743
20
74.497347
11
495.510118
21
74.499344
0
LINE
8
annotation
62
1
39
211
10
495.510118
20
74.499344
11
495.511460
21
74.501406
0
LINE
8
annotation
62
1
39
211
10
495.511460
20
74.501406
11
495.512778
21
74.503548
0
LINE
8
annotation
62
1
39
211
10
495.512778
20
74.503548
11
495.514081
21
74.505788
0
LINE
8
annotation
62
1
39
211
10
495.514081
20
74.505788
11
495.515379
21
74.508141
0
LINE
8
annotation
62
1
39
211
10
495.515379
20
74.508141
11
495.516682
21
74.510623
0
LINE
8
annotation
62
1
39
211
10
495.516682
20
74.510623
11
495.516682
21
74.510623
0
LINE
8
annotation
62
1
39
211
10
495.516682
20
74.510623
11
495.569722
21
74.624505
0
LINE
8
annotation
62
1
39
211
10
495.569722
20
74.624505
11
495.600707
21
74.742554
0
LINE
8
annotation
62
1
39
211
10
495.600707
20
74.742554
11
495.610397
21
74.862102
0
LINE
8
annotation
62
1
39
211
10
495.610397
20
74.862102
11
495.599550
21
74.980482
0
LINE
8
annotation
62
1
39
211
10
495.599550
20
74.980482
11
495.568926
21
75.095026
0
LINE
8
annotation
62
1
39
211
10
495.568926
20
75.095026
11
495.519285
21
75.203068
0
LINE
8
annotation
62
1
39
211
10
495.519285
20
75.203068
11
495.451385
21
75.301939
0
LINE
8
annotation
62
1
39
211
10
495.451385
20
75.301939
11
495.365986
21
75.388972
0
LINE
8
annotation
62
1
39
211
10
495.365986
20
75.388972
11
495.263847
21
75.461501
0
LINE
8
annotation
62
1
39
211
10
495.263847
20
75.461501
11
495.263847
21
75.461501
0
LINE
8
annotation
62
1
39
211
10
495.263847
20
75.461501
11
495.149648
21
75.513787
0
LINE
8
annotation
62
1
39
211
10
495.149648
20
75.513787
11
495.031419
21
75.544295
0
LINE
8
annotation
62
1
39
211
10
495.031419
20
75.544295
11
494.911801
21
75.553711
0
LINE
8
annotation
62
1
39
211
10
494.911801
20
75.553711
11
494.793439
21
75.542721
0
LINE
8
annotation
62
1
39
211
10
494.793439
20
75.542721
11
494.678975
21
75.512012
0
LINE
8
annotation
62
1
39
211
10
494.678975
20
75.512012
11
494.571053
21
75.462271
0
LINE
8
annotation
62
1
39
211
10
494.571053
20
75.462271
11
494.472316
21
75.394185
0
LINE
8
annotation
62
1
39
211
10
494.472316
20
75.394185
11
494.385407
21
75.308439
0
LINE
8
annotation
62
1
39
211
10
494.385407
20
75.308439
11
494.312969
21
75.205721
0
LINE
8
annotation
62
1
39
211
10
494.312969
20
75.205721
11
494.221689
21
75.030622
0
LINE
8
frame
62
5
39
2
10
0.000000
20
0.000000
11
800.000000
21
0.000000
0
LINE
8
frame
62
5
39
2
10
800.000000
20
0.000000
11
800.000000
21
1000.000000
0
LINE
8
frame
62
5
39
2
10
800.000000
20
1000.000000
11
0.000000
21
1000.000000
0
LINE
8
frame
62
5
39
2
10
0.000000
20
1000.000000
11
0.000000
21
0.000000
0
ENDSEC
0
EOF
