0
SECTION
2
HEADER
9
$ACADVER
1
AC1009
0
ENDSEC
0
SECTION
2
TABLES
0
TABLE
2
VPORT
70
1
0
VPORT
2
ACTIVE
70
0
10
0.0
20
0.0
11
0.0
21
0.0
12
0.0
22
0.0
13
0.0
23
0.0
14
0.0
24
0.0
15
0.0
25
0.0
16
0.0
26
0.0
36
0.0
17
0.0
27
0.0
37
0.0
40
0.0
41
0.0
42
0.0
43
0.0
44
0.0
50
0.0
51
0.0
71
0
72
1000
73
1
74
3
75
0
76
0
77
0
78
0
0
ENDTAB
0
ENDSEC
0
SECTION
2
ENTITIES
0
LINE
8
hole
62
5
39
2
10
37.881752
20
60.094421
11
38.453252
21
60.094421
0
LINE
8
hole
62
5
39
2
10
38.453252
20
60.094421
11
38.453252
21
60.665921
0
LINE
8
hole
62
5
39
2
10
38.453252
20
60.665921
11
37.881752
21
60.665921
0
LINE
8
hole
62
5
39
2
10
37.881752
20
60.665921
11
37.881752
21
60.094421
0
LINE
8
hole
62
5
39
2
10
9.881750
20
60.094421
11
10.453250
21
60.094421
0
LINE
8
hole
62
5
39
2
10
10.453250
20
60.094421
11
10.453250
21
60.665921
0
LINE
8
hole
62
5
39
2
10
10.453250
20
60.665921
11
9.881750
21
60.665921
0
LINE
8
hole
62
5
39
2
10
9.881750
20
60.665921
11
9.881750
21
60.094421
0
LINE
8
hole
62
5
39
2
10
22.991929
20
12.049466
11
22.549467
21
12.491930
0
LINE
8
hole
62
5
39
2
10
22.549467
20
12.491930
11
22.265388
21
13.049463
0
LINE
8
hole
62
5
39
2
10
22.265388
20
13.049463
11
22.167502
21
13.667497
0
LINE
8
hole
62
5
39
2
10
22.167502
20
13.667497
11
22.265388
21
14.285531
0
LINE
8
hole
62
5
39
2
10
22.265388
20
14.285531
11
22.549468
21
14.843064
0
LINE
8
hole
62
5
39
2
10
22.549468
20
14.843064
11
22.991930
21
15.285527
0
LINE
8
hole
62
5
39
2
10
22.991930
20
15.285527
11
23.549467
21
15.569612
0
LINE
8
hole
62
5
39
2
10
23.549467
20
15.569612
11
24.167501
21
15.667496
0
LINE
8
hole
62
5
39
2
10
24.167501
20
15.667496
11
24.785536
21
15.569612
0
LINE
8
hole
62
5
39
2
10
24.785536
20
15.569612
11
25.343074
21
15.285527
0
LINE
8
hole
62
5
39
2
10
25.343074
20
15.285527
11
25.785535
21
14.843064
0
LINE
8
hole
62
5
39
2
10
25.785535
20
14.843064
11
26.069615
21
14.285531
0
LINE
8
hole
62
5
39
2
10
26.069615
20
14.285531
11
26.167502
21
13.667497
0
LINE
8
hole
62
5
39
2
10
26.167502
20
13.667497
11
26.069615
21
13.049463
0
LINE
8
hole
62
5
39
2
10
26.069615
20
13.049463
11
25.785535
21
12.491930
0
LINE
8
hole
62
5
39
2
10
25.785535
20
12.491930
11
25.343074
21
12.049466
0
LINE
8
hole
62
5
39
2
10
25.343074
20
12.049466
11
24.785536
21
11.765381
0
LINE
8
hole
62
5
39
2
10
24.785536
20
11.765381
11
24.167501
21
11.667498
0
LINE
8
hole
62
5
39
2
10
24.167501
20
11.667498
11
23.549467
21
11.765381
0
LINE
8
hole
62
5
39
2
10
23.549467
20
11.765381
11
22.991929
21
12.049466
0
LINE
8
hole
62
5
39
2
10
21.062651
20
92.788333
11
20.122417
21
93.728568
0
LINE
8
hole
62
5
39
2
10
20.122417
20
93.728568
11
19.412219
21
95.122412
0
LINE
8
hole
62
5
39
2
10
19.412219
20
95.122412
11
19.167501
21
96.667497
0
LINE
8
hole
62
5
39
2
10
19.167501
20
96.667497
11
19.412219
21
98.212578
0
LINE
8
hole
62
5
39
2
10
19.412219
20
98.212578
11
20.122417
21
99.606422
0
LINE
8
hole
62
5
39
2
10
20.122417
20
99.606422
11
21.228574
21
100.712580
0
LINE
8
hole
62
5
39
2
10
21.228574
20
100.712580
11
22.622416
21
101.422778
0
LINE
8
hole
62
5
39
2
10
22.622416
20
101.422778
11
24.167501
21
101.667497
0
LINE
8
hole
62
5
39
2
10
24.167501
20
101.667497
11
25.712587
21
101.422778
0
LINE
8
hole
62
5
39
2
10
25.712587
20
101.422778
11
27.106429
21
100.712580
0
LINE
8
hole
62
5
39
2
10
27.106429
20
100.712580
11
28.212588
21
99.606422
0
LINE
8
hole
62
5
39
2
10
28.212588
20
99.606422
11
28.922785
21
98.212578
0
LINE
8
hole
62
5
39
2
10
28.922785
20
98.212578
11
29.167502
21
96.667496
0
LINE
8
hole
62
5
39
2
10
29.167502
20
96.667496
11
28.922785
21
95.122412
0
LINE
8
hole
62
5
39
2
10
28.922785
20
95.122412
11
28.212588
21
93.728568
0
LINE
8
hole
62
5
39
2
10
28.212588
20
93.728568
11
27.106429
21
92.622410
0
LINE
8
hole
62
5
39
2
10
27.106429
20
92.622410
11
25.712587
21
91.912212
0
LINE
8
hole
62
5
39
2
10
25.712587
20
91.912212
11
24.167501
21
91.667496
0
LINE
8
hole
62
5
39
2
10
24.167501
20
91.667496
11
22.622416
21
91.912212
0
LINE
8
hole
62
5
39
2
10
22.622416
20
91.912212
11
21.228574
21
92.622410
0
LINE
8
hole
62
5
39
2
10
21.228574
20
92.622410
11
21.062651
21
92.788333
0
LINE
8
boundary
62
5
39
2
10
6.667500
20
83.167498
11
6.667500
21
6.667500
0
LINE
8
boundary
62
5
39
2
10
6.667500
20
6.667500
11
36.417502
21
6.667500
0
LINE
8
boundary
62
5
39
2
10
36.417502
20
6.667500
11
41.667501
21
6.667500
0
LINE
8
boundary
62
5
39
2
10
41.667501
20
6.667500
11
41.667502
21
83.167498
0
LINE
8
boundary
62
5
39
2
10
41.667502
20
83.167498
11
41.667502
21
96.667496
0
LINE
8
boundary
62
5
39
2
10
41.667502
20
96.667496
11
41.414227
21
99.400768
0
LINE
8
boundary
62
5
39
2
10
41.414227
20
99.400768
11
40.618333
21
102.523305
0
LINE
8
boundary
62
5
39
2
10
40.618333
20
102.523305
11
39.262221
21
105.446433
0
LINE
8
boundary
62
5
39
2
10
39.262221
20
105.446433
11
37.392080
21
108.070602
0
LINE
8
boundary
62
5
39
2
10
37.392080
20
108.070602
11
35.071592
21
110.306452
0
LINE
8
boundary
62
5
39
2
10
35.071592
20
110.306452
11
32.379775
21
112.077844
0
LINE
8
boundary
62
5
39
2
10
32.379775
20
112.077844
11
29.408302
21
113.324454
0
LINE
8
boundary
62
5
39
2
10
29.408302
20
113.324454
11
26.258359
21
114.003831
0
LINE
8
boundary
62
5
39
2
10
26.258359
20
114.003831
11
23.037214
21
114.092841
0
LINE
8
boundary
62
5
39
2
10
23.037214
20
114.092841
11
19.854559
21
113.588452
0
LINE
8
boundary
62
5
39
2
10
19.854559
20
113.588452
11
16.818778
21
112.507841
0
LINE
8
boundary
62
5
39
2
10
16.818778
20
112.507841
11
14.033247
21
110.887804
0
LINE
8
boundary
62
5
39
2
10
14.033247
20
110.887804
11
11.592826
21
108.783513
0
LINE
8
boundary
62
5
39
2
10
11.592826
20
108.783513
11
9.580622
21
106.266625
0
LINE
8
boundary
62
5
39
2
10
9.580622
20
106.266625
11
8.065155
21
103.422847
0
LINE
8
boundary
62
5
39
2
10
8.065155
20
103.422847
11
7.098036
21
100.349027
0
LINE
8
boundary
62
5
39
2
10
7.098036
20
100.349027
11
6.712196
21
97.149839
0
LINE
8
boundary
62
5
39
2
10
6.712196
20
97.149839
11
6.667500
21
83.167498
0
LINE
8
annotation
62
1
39
211
10
38.167502
20
60.380171
11
38.167502
21
61.808920
0
LINE
8
annotation
62
1
39
211
10
10.167500
20
60.380171
11
11.596250
21
60.380170
0
LINE
8
annotation
62
1
39
211
10
19.250036
20
25.423155
11
19.250036
21
71.835543
0
LINE
8
annotation
62
1
39
211
10
19.250036
20
71.835543
11
8.931968
21
61.514564
0
LINE
8
hole
62
5
39
2
10
37.881752
20
170.694762
11
38.453252
21
170.694762
0
LINE
8
hole
62
5
39
2
10
38.453252
20
170.694762
11
38.453252
21
171.266262
0
LINE
8
hole
62
5
39
2
10
38.453252
20
171.266262
11
37.881752
21
171.266262
0
LINE
8
hole
62
5
39
2
10
37.881752
20
171.266262
11
37.881752
21
170.694762
0
LINE
8
hole
62
5
39
2
10
9.881750
20
170.694762
11
10.453250
21
170.694762
0
LINE
8
hole
62
5
39
2
10
10.453250
20
170.694762
11
10.453250
21
171.266262
0
LINE
8
hole
62
5
39
2
10
10.453250
20
171.266262
11
9.881750
21
171.266262
0
LINE
8
hole
62
5
39
2
10
9.881750
20
171.266262
11
9.881750
21
170.694762
0
LINE
8
hole
62
5
39
2
10
23.881751
20
213.664898
11
24.453251
21
213.664898
0
LINE
8
hole
62
5
39
2
10
24.453251
20
213.664898
11
24.453251
21
214.236398
0
LINE
8
hole
62
5
39
2
10
24.453251
20
214.236398
11
23.881751
21
214.236398
0
LINE
8
hole
62
5
39
2
10
23.881751
20
214.236398
11
23.881751
21
213.664898
0
LINE
8
hole
62
5
39
2
10
23.881751
20
127.724625
11
24.453251
21
127.724625
0
LINE
8
hole
62
5
39
2
10
24.453251
20
127.724625
11
24.453251
21
128.296125
0
LINE
8
hole
62
5
39
2
10
24.453251
20
128.296125
11
23.881751
21
128.296125
0
LINE
8
hole
62
5
39
2
10
23.881751
20
128.296125
11
23.881751
21
127.724625
0
LINE
8
hole
62
5
39
2
10
22.991929
20
122.649807
11
22.549467
21
123.092271
0
LINE
8
hole
62
5
39
2
10
22.549467
20
123.092271
11
22.265388
21
123.649804
0
LINE
8
hole
62
5
39
2
10
22.265388
20
123.649804
11
22.167502
21
124.267838
0
LINE
8
hole
62
5
39
2
10
22.167502
20
124.267838
11
22.265388
21
124.885872
0
LINE
8
hole
62
5
39
2
10
22.265388
20
124.885872
11
22.549468
21
125.443405
0
LINE
8
hole
62
5
39
2
10
22.549468
20
125.443405
11
22.991930
21
125.885868
0
LINE
8
hole
62
5
39
2
10
22.991930
20
125.885868
11
23.549467
21
126.169953
0
LINE
8
hole
62
5
39
2
10
23.549467
20
126.169953
11
24.167501
21
126.267837
0
LINE
8
hole
62
5
39
2
10
24.167501
20
126.267837
11
24.785536
21
126.169953
0
LINE
8
hole
62
5
39
2
10
24.785536
20
126.169953
11
25.343074
21
125.885868
0
LINE
8
hole
62
5
39
2
10
25.343074
20
125.885868
11
25.785535
21
125.443405
0
LINE
8
hole
62
5
39
2
10
25.785535
20
125.443405
11
26.069615
21
124.885872
0
LINE
8
hole
62
5
39
2
10
26.069615
20
124.885872
11
26.167502
21
124.267838
0
LINE
8
hole
62
5
39
2
10
26.167502
20
124.267838
11
26.069615
21
123.649804
0
LINE
8
hole
62
5
39
2
10
26.069615
20
123.649804
11
25.785535
21
123.092271
0
LINE
8
hole
62
5
39
2
10
25.785535
20
123.092271
11
25.343074
21
122.649807
0
LINE
8
hole
62
5
39
2
10
25.343074
20
122.649807
11
24.785536
21
122.365722
0
LINE
8
hole
62
5
39
2
10
24.785536
20
122.365722
11
24.167501
21
122.267839
0
LINE
8
hole
62
5
39
2
10
24.167501
20
122.267839
11
23.549467
21
122.365722
0
LINE
8
hole
62
5
39
2
10
23.549467
20
122.365722
11
22.991929
21
122.649807
0
LINE
8
hole
62
5
39
2
10
20.752927
20
203.698399
11
20.122417
21
204.328909
0
LINE
8
hole
62
5
39
2
10
20.122417
20
204.328909
11
19.817032
21
204.928262
0
LINE
8
hole
62
5
39
2
10
19.817032
20
204.928262
11
19.412219
21
205.722753
0
LINE
8
hole
62
5
39
2
10
19.412219
20
205.722753
11
19.306990
21
206.387139
0
LINE
8
hole
62
5
39
2
10
19.306990
20
206.387139
11
19.167501
21
207.267838
0
LINE
8
hole
62
5
39
2
10
19.167501
20
207.267838
11
19.272730
21
207.932223
0
LINE
8
hole
62
5
39
2
10
19.272730
20
207.932223
11
19.412219
21
208.812919
0
LINE
8
hole
62
5
39
2
10
19.412219
20
208.812919
11
19.717604
21
209.412272
0
LINE
8
hole
62
5
39
2
10
19.717604
20
209.412272
11
20.122417
21
210.206763
0
LINE
8
hole
62
5
39
2
10
20.122417
20
210.206763
11
20.598065
21
210.682411
0
LINE
8
hole
62
5
39
2
10
20.598065
20
210.682411
11
21.228574
21
211.312921
0
LINE
8
hole
62
5
39
2
10
21.228574
20
211.312921
11
21.827926
21
211.618306
0
LINE
8
hole
62
5
39
2
10
21.827926
20
211.618306
11
22.622416
21
212.023119
0
LINE
8
hole
62
5
39
2
10
22.622416
20
212.023119
11
23.286802
21
212.128348
0
LINE
8
hole
62
5
39
2
10
23.286802
20
212.128348
11
24.167501
21
212.267838
0
LINE
8
hole
62
5
39
2
10
24.167501
20
212.267838
11
24.831888
21
212.162609
0
LINE
8
hole
62
5
39
2
10
24.831888
20
212.162609
11
25.712587
21
212.023119
0
LINE
8
hole
62
5
39
2
10
25.712587
20
212.023119
11
26.311939
21
211.717734
0
LINE
8
hole
62
5
39
2
10
26.311939
20
211.717734
11
27.106429
21
211.312921
0
LINE
8
hole
62
5
39
2
10
27.106429
20
211.312921
11
27.582077
21
210.837273
0
LINE
8
hole
62
5
39
2
10
27.582077
20
210.837273
11
28.212588
21
210.206763
0
LINE
8
hole
62
5
39
2
10
28.212588
20
210.206763
11
28.517973
21
209.607410
0
LINE
8
hole
62
5
39
2
10
28.517973
20
209.607410
11
28.922785
21
208.812919
0
LINE
8
hole
62
5
39
2
10
28.922785
20
208.812919
11
29.028013
21
208.148534
0
LINE
8
hole
62
5
39
2
10
29.028013
20
208.148534
11
29.167502
21
207.267837
0
LINE
8
hole
62
5
39
2
10
29.167502
20
207.267837
11
29.062274
21
206.603451
0
LINE
8
hole
62
5
39
2
10
29.062274
20
206.603451
11
28.922785
21
205.722753
0
LINE
8
hole
62
5
39
2
10
28.922785
20
205.722753
11
28.617400
21
205.123400
0
LINE
8
hole
62
5
39
2
10
28.617400
20
205.123400
11
28.212588
21
204.328909
0
LINE
8
hole
62
5
39
2
10
28.212588
20
204.328909
11
27.736939
21
203.853261
0
LINE
8
hole
62
5
39
2
10
27.736939
20
203.853261
11
27.106429
21
203.222751
0
LINE
8
hole
62
5
39
2
10
27.106429
20
203.222751
11
26.507077
21
202.917366
0
LINE
8
hole
62
5
39
2
10
26.507077
20
202.917366
11
25.712587
21
202.512553
0
LINE
8
hole
62
5
39
2
10
25.712587
20
202.512553
11
25.048200
21
202.407325
0
LINE
8
hole
62
5
39
2
10
25.048200
20
202.407325
11
24.167501
21
202.267837
0
LINE
8
hole
62
5
39
2
10
24.167501
20
202.267837
11
23.503114
21
202.373065
0
LINE
8
hole
62
5
39
2
10
23.503114
20
202.373065
11
22.622416
21
202.512553
0
LINE
8
hole
62
5
39
2
10
22.622416
20
202.512553
11
22.023064
21
202.817938
0
LINE
8
hole
62
5
39
2
10
22.023064
20
202.817938
11
21.228574
21
203.222751
0
LINE
8
hole
62
5
39
2
10
21.228574
20
203.222751
11
20.752927
21
203.698399
0
LINE
8
boundary
62
5
39
2
10
6.667500
20
168.567839
11
6.667500
21
117.267841
0
LINE
8
boundary
62
5
39
2
10
6.667500
20
117.267841
11
26.617501
21
117.267841
0
LINE
8
boundary
62
5
39
2
10
26.617501
20
117.267841
11
41.667501
21
117.267841
0
LINE
8
boundary
62
5
39
2
10
41.667501
20
117.267841
11
41.667502
21
168.567839
0
LINE
8
boundary
62
5
39
2
10
41.667502
20
168.567839
11
41.667502
21
207.267838
0
LINE
8
boundary
62
5
39
2
10
41.667502
20
207.267838
11
41.497659
21
209.100737
0
LINE
8
boundary
62
5
39
2
10
41.497659
20
209.100737
11
41.369532
21
210.483451
0
LINE
8
boundary
62
5
39
2
10
41.369532
20
210.483451
11
40.865787
21
212.253935
0
LINE
8
boundary
62
5
39
2
10
40.865787
20
212.253935
11
40.485768
21
213.589563
0
LINE
8
boundary
62
5
39
2
10
40.485768
20
213.589563
11
39.665272
21
215.237340
0
LINE
8
boundary
62
5
39
2
10
39.665272
20
215.237340
11
39.046301
21
216.480399
0
LINE
8
boundary
62
5
39
2
10
39.046301
20
216.480399
11
37.937000
21
217.949352
0
LINE
8
boundary
62
5
39
2
10
37.937000
20
217.949352
11
37.100158
21
219.057510
0
LINE
8
boundary
62
5
39
2
10
37.100158
20
219.057510
11
35.739825
21
220.297617
0
LINE
8
boundary
62
5
39
2
10
35.739825
20
220.297617
11
34.713610
21
221.233137
0
LINE
8
boundary
62
5
39
2
10
34.713610
20
221.233137
11
33.148568
21
222.202169
0
LINE
8
boundary
62
5
39
2
10
33.148568
20
222.202169
11
31.967923
21
222.933194
0
LINE
8
boundary
62
5
39
2
10
31.967923
20
222.933194
11
30.251471
21
223.598150
0
LINE
8
boundary
62
5
39
2
10
30.251471
20
223.598150
11
28.956605
21
224.099783
0
LINE
8
boundary
62
5
39
2
10
28.956605
20
224.099783
11
27.147193
21
224.438020
0
LINE
8
boundary
62
5
39
2
10
27.147193
20
224.438020
11
25.782198
21
224.693182
0
LINE
8
boundary
62
5
39
2
10
25.782198
20
224.693182
11
23.941444
21
224.693182
0
LINE
8
boundary
62
5
39
2
10
23.941444
20
224.693182
11
22.552805
21
224.693182
0
LINE
8
boundary
62
5
39
2
10
22.552805
20
224.693182
11
20.743393
21
224.354945
0
LINE
8
boundary
62
5
39
2
10
20.743393
20
224.354945
11
19.378398
21
224.099783
0
LINE
8
boundary
62
5
39
2
10
19.378398
20
224.099783
11
17.661947
21
223.434827
0
LINE
8
boundary
62
5
39
2
10
17.661947
20
223.434827
11
16.367080
21
222.933194
0
LINE
8
boundary
62
5
39
2
10
16.367080
20
222.933194
11
14.802039
21
221.964161
0
LINE
8
boundary
62
5
39
2
10
14.802039
20
221.964161
11
13.621395
21
221.233137
0
LINE
8
boundary
62
5
39
2
10
13.621395
20
221.233137
11
12.261060
21
219.993029
0
LINE
8
boundary
62
5
39
2
10
12.261060
20
219.993029
11
11.234843
21
219.057510
0
LINE
8
boundary
62
5
39
2
10
11.234843
20
219.057510
11
10.125542
21
217.588557
0
LINE
8
boundary
62
5
39
2
10
10.125542
20
217.588557
11
9.288700
21
216.480399
0
LINE
8
boundary
62
5
39
2
10
9.288700
20
216.480399
11
8.468205
21
214.832622
0
LINE
8
boundary
62
5
39
2
10
8.468205
20
214.832622
11
7.849235
21
213.589563
0
LINE
8
boundary
62
5
39
2
10
7.849235
20
213.589563
11
7.345490
21
211.819079
0
LINE
8
boundary
62
5
39
2
10
7.345490
20
211.819079
11
6.965471
21
210.483451
0
LINE
8
boundary
62
5
39
2
10
6.965471
20
210.483451
11
6.795628
21
208.650551
0
LINE
8
boundary
62
5
39
2
10
6.795628
20
208.650551
11
6.667500
21
207.267838
0
LINE
8
boundary
62
5
39
2
10
6.667500
20
207.267838
11
6.667500
21
168.567839
0
LINE
8
annotation
62
1
39
211
10
38.167502
20
170.980512
11
38.167502
21
172.409262
0
LINE
8
annotation
62
1
39
211
10
10.167500
20
170.980512
11
11.596250
21
170.980511
0
LINE
8
annotation
62
1
39
211
10
24.167501
20
213.950648
11
24.167501
21
215.379398
0
LINE
8
annotation
62
1
39
211
10
24.167501
20
213.950648
11
24.167501
21
215.379398
0
LINE
8
annotation
62
1
39
211
10
24.167501
20
215.379398
11
24.167501
21
213.950648
0
LINE
8
annotation
62
1
39
211
10
24.167501
20
213.950648
11
25.596251
21
213.950648
0
LINE
8
annotation
62
1
39
211
10
24.167501
20
128.010375
11
24.167501
21
126.581625
0
LINE
8
annotation
62
1
39
211
10
32.751338
20
143.248258
11
15.573962
21
143.248258
0
LINE
8
annotation
62
1
39
211
10
15.573962
20
143.248258
11
31.446420
21
168.800879
0
LINE
8
annotation
62
1
39
211
10
31.446420
20
168.800879
11
31.446420
21
168.800879
0
LINE
8
annotation
62
1
39
211
10
31.446420
20
168.800879
11
31.465395
21
168.824359
0
LINE
8
annotation
62
1
39
211
10
31.465395
20
168.824359
11
31.483591
21
168.848038
0
LINE
8
annotation
62
1
39
211
10
31.483591
20
168.848038
11
31.501129
21
168.872117
0
LINE
8
annotation
62
1
39
211
10
31.501129
20
168.872117
11
31.518127
21
168.896794
0
LINE
8
annotation
62
1
39
211
10
31.518127
20
168.896794
11
31.534706
21
168.922270
0
LINE
8
annotation
62
1
39
211
10
31.534706
20
168.922270
11
31.550986
21
168.948744
0
LINE
8
annotation
62
1
39
211
10
31.550986
20
168.948744
11
31.567086
21
168.976416
0
LINE
8
annotation
62
1
39
211
10
31.567086
20
168.976416
11
31.583126
21
169.005486
0
LINE
8
annotation
62
1
39
211
10
31.583126
20
169.005486
11
31.599227
21
169.036152
0
LINE
8
annotation
62
1
39
211
10
31.599227
20
169.036152
11
31.599227
21
169.036152
0
LINE
8
annotation
62
1
39
211
10
31.599227
20
169.036152
11
32.254597
21
170.443287
0
LINE
8
annotation
62
1
39
211
10
32.254597
20
170.443287
11
32.637453
21
171.901906
0
LINE
8
annotation
62
1
39
211
10
32.637453
20
171.901906
11
32.757177
21
173.379051
0
LINE
8
annotation
62
1
39
211
10
32.757177
20
173.379051
11
32.623153
21
174.841763
0
LINE
8
annotation
62
1
39
211
10
32.623153
20
174.841763
11
32.244762
21
176.257082
0
LINE
8
annotation
62
1
39
211
10
32.244762
20
176.257082
11
31.631387
21
177.592051
0
LINE
8
annotation
62
1
39
211
10
31.631387
20
177.592051
11
30.792411
21
178.813710
0
LINE
8
annotation
62
1
39
211
10
30.792411
20
178.813710
11
29.737216
21
179.889101
0
LINE
8
annotation
62
1
39
211
10
29.737216
20
179.889101
11
28.475185
21
180.785264
0
LINE
8
annotation
62
1
39
211
10
28.475185
20
180.785264
11
28.475185
21
180.785264
0
LINE
8
annotation
62
1
39
211
10
28.475185
20
180.785264
11
27.064138
21
181.431322
0
LINE
8
annotation
62
1
39
211
10
27.064138
20
181.431322
11
25.603282
21
181.808279
0
LINE
8
annotation
62
1
39
211
10
25.603282
20
181.808279
11
24.125279
21
181.924619
0
LINE
8
annotation
62
1
39
211
10
24.125279
20
181.924619
11
22.662787
21
181.788828
0
LINE
8
annotation
62
1
39
211
10
22.662787
20
181.788828
11
21.248466
21
181.409389
0
LINE
8
annotation
62
1
39
211
10
21.248466
20
181.409389
11
19.914974
21
180.794786
0
LINE
8
annotation
62
1
39
211
10
19.914974
20
180.794786
11
18.694972
21
179.953505
0
LINE
8
annotation
62
1
39
211
10
18.694972
20
179.953505
11
17.621119
21
178.894028
0
LINE
8
annotation
62
1
39
211
10
17.621119
20
178.894028
11
16.726073
21
177.624840
0
LINE
8
annotation
62
1
39
211
10
16.726073
20
177.624840
11
15.598217
21
175.461296
0
LINE
8
hole
62
5
39
2
10
23.881751
20
324.265239
11
24.453251
21
324.265239
0
LINE
8
hole
62
5
39
2
10
24.453251
20
324.265239
11
24.453251
21
324.836739
0
LINE
8
hole
62
5
39
2
10
24.453251
20
324.836739
11
23.881751
21
324.836739
0
LINE
8
hole
62
5
39
2
10
23.881751
20
324.836739
11
23.881751
21
324.265239
0
LINE
8
hole
62
5
39
2
10
23.881751
20
238.324966
11
24.453251
21
238.324966
0
LINE
8
hole
62
5
39
2
10
24.453251
20
238.324966
11
24.453251
21
238.896466
0
LINE
8
hole
62
5
39
2
10
24.453251
20
238.896466
11
23.881751
21
238.896466
0
LINE
8
hole
62
5
39
2
10
23.881751
20
238.896466
11
23.881751
21
238.324966
0
LINE
8
hole
62
5
39
2
10
37.881752
20
281.295103
11
38.453252
21
281.295103
0
LINE
8
hole
62
5
39
2
10
38.453252
20
281.295103
11
38.453252
21
281.866603
0
LINE
8
hole
62
5
39
2
10
38.453252
20
281.866603
11
37.881752
21
281.866603
0
LINE
8
hole
62
5
39
2
10
37.881752
20
281.866603
11
37.881752
21
281.295103
0
LINE
8
hole
62
5
39
2
10
9.881750
20
281.295103
11
10.453250
21
281.295103
0
LINE
8
hole
62
5
39
2
10
10.453250
20
281.295103
11
10.453250
21
281.866603
0
LINE
8
hole
62
5
39
2
10
10.453250
20
281.866603
11
9.881750
21
281.866603
0
LINE
8
hole
62
5
39
2
10
9.881750
20
281.866603
11
9.881750
21
281.295103
0
LINE
8
hole
62
5
39
2
10
22.991929
20
233.250148
11
22.549467
21
233.692612
0
LINE
8
hole
62
5
39
2
10
22.549467
20
233.692612
11
22.265388
21
234.250145
0
LINE
8
hole
62
5
39
2
10
22.265388
20
234.250145
11
22.167502
21
234.868179
0
LINE
8
hole
62
5
39
2
10
22.167502
20
234.868179
11
22.265388
21
235.486213
0
LINE
8
hole
62
5
39
2
10
22.265388
20
235.486213
11
22.549468
21
236.043746
0
LINE
8
hole
62
5
39
2
10
22.549468
20
236.043746
11
22.991930
21
236.486209
0
LINE
8
hole
62
5
39
2
10
22.991930
20
236.486209
11
23.549467
21
236.770294
0
LINE
8
hole
62
5
39
2
10
23.549467
20
236.770294
11
24.167501
21
236.868178
0
LINE
8
hole
62
5
39
2
10
24.167501
20
236.868178
11
24.785536
21
236.770294
0
LINE
8
hole
62
5
39
2
10
24.785536
20
236.770294
11
25.343074
21
236.486209
0
LINE
8
hole
62
5
39
2
10
25.343074
20
236.486209
11
25.785535
21
236.043746
0
LINE
8
hole
62
5
39
2
10
25.785535
20
236.043746
11
26.069615
21
235.486213
0
LINE
8
hole
62
5
39
2
10
26.069615
20
235.486213
11
26.167502
21
234.868179
0
LINE
8
hole
62
5
39
2
10
26.167502
20
234.868179
11
26.069615
21
234.250145
0
LINE
8
hole
62
5
39
2
10
26.069615
20
234.250145
11
25.785535
21
233.692612
0
LINE
8
hole
62
5
39
2
10
25.785535
20
233.692612
11
25.343074
21
233.250148
0
LINE
8
hole
62
5
39
2
10
25.343074
20
233.250148
11
24.785536
21
232.966063
0
LINE
8
hole
62
5
39
2
10
24.785536
20
232.966063
11
24.167501
21
232.868180
0
LINE
8
hole
62
5
39
2
10
24.167501
20
232.868180
11
23.549467
21
232.966063
0
LINE
8
hole
62
5
39
2
10
23.549467
20
232.966063
11
22.991929
21
233.250148
0
LINE
8
hole
62
5
39
2
10
20.443203
20
314.608464
11
19.618176
21
315.918879
0
LINE
8
hole
62
5
39
2
10
19.618176
20
315.918879
11
19.238469
21
317.420104
0
LINE
8
hole
62
5
39
2
10
19.238469
20
317.420104
11
19.341251
21
318.965187
0
LINE
8
hole
62
5
39
2
10
19.341251
20
318.965187
11
19.916459
21
320.402889
0
LINE
8
hole
62
5
39
2
10
19.916459
20
320.402889
11
20.907789
21
321.592477
0
LINE
8
hole
62
5
39
2
10
20.907789
20
321.592477
11
22.218202
21
322.417503
0
LINE
8
hole
62
5
39
2
10
22.218202
20
322.417503
11
23.719426
21
322.797211
0
LINE
8
hole
62
5
39
2
10
23.719426
20
322.797211
11
25.264512
21
322.694429
0
LINE
8
hole
62
5
39
2
10
25.264512
20
322.694429
11
26.702215
21
322.119220
0
LINE
8
hole
62
5
39
2
10
26.702215
20
322.119220
11
27.891802
21
321.127890
0
LINE
8
hole
62
5
39
2
10
27.891802
20
321.127890
11
28.716828
21
319.817475
0
LINE
8
hole
62
5
39
2
10
28.716828
20
319.817475
11
29.096534
21
318.316252
0
LINE
8
hole
62
5
39
2
10
29.096534
20
318.316252
11
28.993753
21
316.771168
0
LINE
8
hole
62
5
39
2
10
28.993753
20
316.771168
11
28.418545
21
315.333465
0
LINE
8
hole
62
5
39
2
10
28.418545
20
315.333465
11
27.427215
21
314.143878
0
LINE
8
hole
62
5
39
2
10
27.427215
20
314.143878
11
26.116801
21
313.318851
0
LINE
8
hole
62
5
39
2
10
26.116801
20
313.318851
11
24.615576
21
312.939146
0
LINE
8
hole
62
5
39
2
10
24.615576
20
312.939146
11
23.070491
21
313.041926
0
LINE
8
hole
62
5
39
2
10
23.070491
20
313.041926
11
21.632788
21
313.617134
0
LINE
8
hole
62
5
39
2
10
21.632788
20
313.617134
11
20.443203
21
314.608464
0
LINE
8
boundary
62
5
39
2
10
6.667500
20
253.968181
11
6.667500
21
227.868182
0
LINE
8
boundary
62
5
39
2
10
6.667500
20
227.868182
11
16.817500
21
227.868182
0
LINE
8
boundary
62
5
39
2
10
16.817500
20
227.868182
11
41.667501
21
227.868182
0
LINE
8
boundary
62
5
39
2
10
41.667501
20
227.868182
11
41.667502
21
253.968181
0
LINE
8
boundary
62
5
39
2
10
41.667502
20
253.968181
11
41.667502
21
317.868179
0
LINE
8
boundary
62
5
39
2
10
41.667502
20
317.868179
11
41.581090
21
318.800706
0
LINE
8
boundary
62
5
39
2
10
41.581090
20
318.800706
11
41.369532
21
321.083792
0
LINE
8
boundary
62
5
39
2
10
41.369532
20
321.083792
11
41.113240
21
321.984565
0
LINE
8
boundary
62
5
39
2
10
41.113240
20
321.984565
11
40.485768
21
324.189904
0
LINE
8
boundary
62
5
39
2
10
40.485768
20
324.189904
11
40.068323
21
325.028246
0
LINE
8
boundary
62
5
39
2
10
40.068323
20
325.028246
11
39.046301
21
327.080740
0
LINE
8
boundary
62
5
39
2
10
39.046301
20
327.080740
11
38.481920
21
327.828102
0
LINE
8
boundary
62
5
39
2
10
38.481920
20
327.828102
11
37.100158
21
329.657851
0
LINE
8
boundary
62
5
39
2
10
37.100158
20
329.657851
11
36.408059
21
330.288783
0
LINE
8
boundary
62
5
39
2
10
36.408059
20
330.288783
11
34.713610
21
331.833478
0
LINE
8
boundary
62
5
39
2
10
34.713610
20
331.833478
11
33.917360
21
332.326494
0
LINE
8
boundary
62
5
39
2
10
33.917360
20
332.326494
11
31.967923
21
333.533535
0
LINE
8
boundary
62
5
39
2
10
31.967923
20
333.533535
11
31.094640
21
333.871846
0
LINE
8
boundary
62
5
39
2
10
31.094640
20
333.871846
11
28.956605
21
334.700124
0
LINE
8
boundary
62
5
39
2
10
28.956605
20
334.700124
11
28.036027
21
334.872210
0
LINE
8
boundary
62
5
39
2
10
28.036027
20
334.872210
11
25.782198
21
335.293523
0
LINE
8
boundary
62
5
39
2
10
25.782198
20
335.293523
11
24.845674
21
335.293523
0
LINE
8
boundary
62
5
39
2
10
24.845674
20
335.293523
11
22.552805
21
335.293523
0
LINE
8
boundary
62
5
39
2
10
22.552805
20
335.293523
11
21.632227
21
335.121437
0
LINE
8
boundary
62
5
39
2
10
21.632227
20
335.121437
11
19.378398
21
334.700124
0
LINE
8
boundary
62
5
39
2
10
19.378398
20
334.700124
11
18.505116
21
334.361813
0
LINE
8
boundary
62
5
39
2
10
18.505116
20
334.361813
11
16.367080
21
333.533535
0
LINE
8
boundary
62
5
39
2
10
16.367080
20
333.533535
11
15.570831
21
333.040518
0
LINE
8
boundary
62
5
39
2
10
15.570831
20
333.040518
11
13.621395
21
331.833478
0
LINE
8
boundary
62
5
39
2
10
13.621395
20
331.833478
11
12.929295
21
331.202546
0
LINE
8
boundary
62
5
39
2
10
12.929295
20
331.202546
11
11.234843
21
329.657851
0
LINE
8
boundary
62
5
39
2
10
11.234843
20
329.657851
11
10.670462
21
328.910489
0
LINE
8
boundary
62
5
39
2
10
10.670462
20
328.910489
11
9.288700
21
327.080740
0
LINE
8
boundary
62
5
39
2
10
9.288700
20
327.080740
11
8.871255
21
326.242398
0
LINE
8
boundary
62
5
39
2
10
8.871255
20
326.242398
11
7.849235
21
324.189904
0
LINE
8
boundary
62
5
39
2
10
7.849235
20
324.189904
11
7.592944
21
323.289132
0
LINE
8
boundary
62
5
39
2
10
7.592944
20
323.289132
11
6.965471
21
321.083792
0
LINE
8
boundary
62
5
39
2
10
6.965471
20
321.083792
11
6.879060
21
320.151264
0
LINE
8
boundary
62
5
39
2
10
6.879060
20
320.151264
11
6.667500
21
317.868179
0
LINE
8
boundary
62
5
39
2
10
6.667500
20
317.868179
11
6.667500
21
253.968181
0
LINE
8
annotation
62
1
39
211
10
24.167501
20
324.550989
11
24.167501
21
325.979739
0
LINE
8
annotation
62
1
39
211
10
24.167501
20
324.550989
11
24.167501
21
325.979739
0
LINE
8
annotation
62
1
39
211
10
24.167501
20
325.979739
11
24.167501
21
324.550989
0
LINE
8
annotation
62
1
39
211
10
24.167501
20
324.550989
11
25.596251
21
324.550989
0
LINE
8
annotation
62
1
39
211
10
24.167501
20
238.610716
11
24.167501
21
237.181966
0
LINE
8
annotation
62
1
39
211
10
38.167502
20
281.580853
11
38.167502
21
283.009603
0
LINE
8
annotation
62
1
39
211
10
38.167502
20
281.580853
11
38.167502
21
283.009603
0
LINE
8
annotation
62
1
39
211
10
38.167502
20
283.009603
11
38.167502
21
281.580853
0
LINE
8
annotation
62
1
39
211
10
38.167502
20
281.580853
11
38.167501
21
280.152103
0
LINE
8
annotation
62
1
39
211
10
10.167500
20
281.580853
11
11.596250
21
281.580853
0
LINE
8
annotation
62
1
39
211
10
10.167500
20
281.580853
11
11.596250
21
281.580853
0
LINE
8
annotation
62
1
39
211
10
11.596250
20
281.580853
11
10.167500
21
281.580853
0
LINE
8
annotation
62
1
39
211
10
10.167500
20
281.580853
11
10.167500
21
280.152103
0
LINE
8
annotation
62
1
39
211
10
15.573962
20
253.850126
11
24.162650
21
253.850126
0
LINE
8
annotation
62
1
39
211
10
24.162650
20
253.850126
11
24.162650
21
253.850126
0
LINE
8
annotation
62
1
39
211
10
24.162650
20
253.850126
11
25.707346
21
253.988696
0
LINE
8
annotation
62
1
39
211
10
25.707346
20
253.988696
11
27.160851
21
254.388061
0
LINE
8
annotation
62
1
39
211
10
27.160851
20
254.388061
11
28.498991
21
255.023708
0
LINE
8
annotation
62
1
39
211
10
28.498991
20
255.023708
11
29.697590
21
255.871122
0
LINE
8
annotation
62
1
39
211
10
29.697590
20
255.871122
11
30.732472
21
256.905788
0
LINE
8
annotation
62
1
39
211
10
30.732472
20
256.905788
11
31.579463
21
258.103192
0
LINE
8
annotation
62
1
39
211
10
31.579463
20
258.103192
11
32.214388
21
259.438820
0
LINE
8
annotation
62
1
39
211
10
32.214388
20
259.438820
11
32.613071
21
260.888156
0
LINE
8
annotation
62
1
39
211
10
32.613071
20
260.888156
11
32.751338
21
262.426687
0
LINE
8
annotation
62
1
39
211
10
32.751338
20
262.426687
11
32.751338
21
266.727095
0
LINE
8
annotation
62
1
39
211
10
32.751338
20
266.727095
11
32.751338
21
266.727095
0
LINE
8
annotation
62
1
39
211
10
32.751338
20
266.727095
11
32.613071
21
268.264987
0
LINE
8
annotation
62
1
39
211
10
32.613071
20
268.264987
11
32.214388
21
269.713984
0
LINE
8
annotation
62
1
39
211
10
32.214388
20
269.713984
11
31.579463
21
271.049512
0
LINE
8
annotation
62
1
39
211
10
31.579463
20
271.049512
11
30.732472
21
272.246996
0
LINE
8
annotation
62
1
39
211
10
30.732472
20
272.246996
11
29.697590
21
273.281862
0
LINE
8
annotation
62
1
39
211
10
29.697590
20
273.281862
11
28.498991
21
274.129535
0
LINE
8
annotation
62
1
39
211
10
28.498991
20
274.129535
11
27.160851
21
274.765441
0
LINE
8
annotation
62
1
39
211
10
27.160851
20
274.765441
11
25.707346
21
275.165006
0
LINE
8
annotation
62
1
39
211
10
25.707346
20
275.165006
11
24.162650
21
275.303656
0
LINE
8
annotation
62
1
39
211
10
24.162650
20
275.303656
11
19.862242
21
275.303656
0
LINE
8
annotation
62
1
39
211
10
19.862242
20
275.303656
11
24.162650
21
275.303656
0
LINE
8
annotation
62
1
39
211
10
24.162650
20
275.303656
11
24.162650
21
275.303656
0
LINE
8
annotation
62
1
39
211
10
24.162650
20
275.303656
11
25.707346
21
275.442338
0
LINE
8
annotation
62
1
39
211
10
25.707346
20
275.442338
11
27.160851
21
275.842136
0
LINE
8
annotation
62
1
39
211
10
27.160851
20
275.842136
11
28.498991
21
276.478675
0
LINE
8
annotation
62
1
39
211
10
28.498991
20
276.478675
11
29.697590
21
277.327579
0
LINE
8
annotation
62
1
39
211
10
29.697590
20
277.327579
11
30.732472
21
278.364474
0
LINE
8
annotation
62
1
39
211
10
30.732472
20
278.364474
11
31.579463
21
279.564986
0
LINE
8
annotation
62
1
39
211
10
31.579463
20
279.564986
11
32.214388
21
280.904739
0
LINE
8
annotation
62
1
39
211
10
32.214388
20
280.904739
11
32.613071
21
282.359359
0
LINE
8
annotation
62
1
39
211
10
32.613071
20
282.359359
11
32.751338
21
283.904471
0
LINE
8
annotation
62
1
39
211
10
32.751338
20
283.904471
11
32.751338
21
283.904471
0
LINE
8
annotation
62
1
39
211
10
32.751338
20
283.904471
11
32.613071
21
285.442363
0
LINE
8
annotation
62
1
39
211
10
32.613071
20
285.442363
11
32.214388
21
286.891360
0
LINE
8
annotation
62
1
39
211
10
32.214388
20
286.891360
11
31.579463
21
288.226888
0
LINE
8
annotation
62
1
39
211
10
31.579463
20
288.226888
11
30.732472
21
289.424372
0
LINE
8
annotation
62
1
39
211
10
30.732472
20
289.424372
11
29.697590
21
290.459238
0
LINE
8
annotation
62
1
39
211
10
29.697590
20
290.459238
11
28.498991
21
291.306911
0
LINE
8
annotation
62
1
39
211
10
28.498991
20
291.306911
11
27.160851
21
291.942818
0
LINE
8
annotation
62
1
39
211
10
27.160851
20
291.942818
11
25.707346
21
292.342383
0
LINE
8
annotation
62
1
39
211
10
25.707346
20
292.342383
11
24.162650
21
292.481032
0
LINE
8
annotation
62
1
39
211
10
24.162650
20
292.481032
11
15.573962
21
292.481032
0
LINE
8
hole
62
5
39
2
10
37.881752
20
391.895444
11
38.453252
21
391.895444
0
LINE
8
hole
62
5
39
2
10
38.453252
20
391.895444
11
38.453252
21
392.466944
0
LINE
8
hole
62
5
39
2
10
38.453252
20
392.466944
11
37.881752
21
392.466944
0
LINE
8
hole
62
5
39
2
10
37.881752
20
392.466944
11
37.881752
21
391.895444
0
LINE
8
hole
62
5
39
2
10
9.881750
20
391.895444
11
10.453250
21
391.895444
0
LINE
8
hole
62
5
39
2
10
10.453250
20
391.895444
11
10.453250
21
392.466944
0
LINE
8
hole
62
5
39
2
10
10.453250
20
392.466944
11
9.881750
21
392.466944
0
LINE
8
hole
62
5
39
2
10
9.881750
20
392.466944
11
9.881750
21
391.895444
0
LINE
8
hole
62
5
39
2
10
22.991929
20
343.850489
11
22.553892
21
344.288528
0
LINE
8
hole
62
5
39
2
10
22.553892
20
344.288528
11
22.268229
21
344.844910
0
LINE
8
hole
62
5
39
2
10
22.268229
20
344.844910
11
22.168480
21
345.462339
0
LINE
8
hole
62
5
39
2
10
22.168480
20
345.462339
11
22.264409
21
346.080373
0
LINE
8
hole
62
5
39
2
10
22.264409
20
346.080373
11
22.546627
21
346.638512
0
LINE
8
hole
62
5
39
2
10
22.546627
20
346.638512
11
22.987505
21
347.082126
0
LINE
8
hole
62
5
39
2
10
22.987505
20
347.082126
11
23.543892
21
347.367795
0
LINE
8
hole
62
5
39
2
10
23.543892
20
347.367795
11
24.161320
21
347.467540
0
LINE
8
hole
62
5
39
2
10
24.161320
20
347.467540
11
24.779356
21
347.371614
0
LINE
8
hole
62
5
39
2
10
24.779356
20
347.371614
11
25.337498
21
347.089391
0
LINE
8
hole
62
5
39
2
10
25.337498
20
347.089391
11
25.781111
21
346.648512
0
LINE
8
hole
62
5
39
2
10
25.781111
20
346.648512
11
26.066774
21
346.092129
0
LINE
8
hole
62
5
39
2
10
26.066774
20
346.092129
11
26.166523
21
345.474700
0
LINE
8
hole
62
5
39
2
10
26.166523
20
345.474700
11
26.070594
21
344.856666
0
LINE
8
hole
62
5
39
2
10
26.070594
20
344.856666
11
25.788376
21
344.298528
0
LINE
8
hole
62
5
39
2
10
25.788376
20
344.298528
11
25.347498
21
343.854914
0
LINE
8
hole
62
5
39
2
10
25.347498
20
343.854914
11
24.791111
21
343.569245
0
LINE
8
hole
62
5
39
2
10
24.791111
20
343.569245
11
24.173681
21
343.469500
0
LINE
8
hole
62
5
39
2
10
24.173681
20
343.469500
11
23.555647
21
343.565425
0
LINE
8
hole
62
5
39
2
10
23.555647
20
343.565425
11
22.997505
21
343.847649
0
LINE
8
hole
62
5
39
2
10
22.997505
20
343.847649
11
22.991929
21
343.850489
0
LINE
8
hole
62
5
39
2
10
20.133479
20
425.518529
11
19.419321
21
426.909496
0
LINE
8
hole
62
5
39
2
10
19.419321
20
426.909496
11
19.169949
21
428.453069
0
LINE
8
hole
62
5
39
2
10
19.169949
20
428.453069
11
19.409771
21
429.998151
0
LINE
8
hole
62
5
39
2
10
19.409771
20
429.998151
11
20.115315
21
431.393507
0
LINE
8
hole
62
5
39
2
10
20.115315
20
431.393507
11
21.217513
21
432.502542
0
LINE
8
hole
62
5
39
2
10
21.217513
20
432.502542
11
22.608478
21
433.216699
0
LINE
8
hole
62
5
39
2
10
22.608478
20
433.216699
11
24.152050
21
433.466073
0
LINE
8
hole
62
5
39
2
10
24.152050
20
433.466073
11
25.697136
21
433.226248
0
LINE
8
hole
62
5
39
2
10
25.697136
20
433.226248
11
27.092490
21
432.520705
0
LINE
8
hole
62
5
39
2
10
27.092490
20
432.520705
11
28.201526
21
431.418507
0
LINE
8
hole
62
5
39
2
10
28.201526
20
431.418507
11
28.915683
21
430.027540
0
LINE
8
hole
62
5
39
2
10
28.915683
20
430.027540
11
29.165055
21
428.483970
0
LINE
8
hole
62
5
39
2
10
29.165055
20
428.483970
11
28.925233
21
426.938886
0
LINE
8
hole
62
5
39
2
10
28.925233
20
426.938886
11
28.219690
21
425.543530
0
LINE
8
hole
62
5
39
2
10
28.219690
20
425.543530
11
27.117490
21
424.434494
0
LINE
8
hole
62
5
39
2
10
27.117490
20
424.434494
11
25.726526
21
423.720337
0
LINE
8
hole
62
5
39
2
10
25.726526
20
423.720337
11
24.182952
21
423.470966
0
LINE
8
hole
62
5
39
2
10
24.182952
20
423.470966
11
22.637867
21
423.710788
0
LINE
8
hole
62
5
39
2
10
22.637867
20
423.710788
11
21.242513
21
424.416331
0
LINE
8
hole
62
5
39
2
10
21.242513
20
424.416331
11
20.133479
21
425.518529
0
LINE
8
boundary
62
5
39
2
10
6.667500
20
339.368522
11
6.667500
21
338.468523
0
LINE
8
boundary
62
5
39
2
10
6.667500
20
338.468523
11
41.667501
21
338.468523
0
LINE
8
boundary
62
5
39
2
10
41.667501
20
338.468523
11
41.667502
21
339.368522
0
LINE
8
boundary
62
5
39
2
10
41.667502
20
339.368522
11
41.667502
21
428.468520
0
LINE
8
boundary
62
5
39
2
10
41.667502
20
428.468520
11
41.369532
21
431.684133
0
LINE
8
boundary
62
5
39
2
10
41.369532
20
431.684133
11
40.485768
21
434.790245
0
LINE
8
boundary
62
5
39
2
10
40.485768
20
434.790245
11
39.046301
21
437.681081
0
LINE
8
boundary
62
5
39
2
10
39.046301
20
437.681081
11
37.100158
21
440.258192
0
LINE
8
boundary
62
5
39
2
10
37.100158
20
440.258192
11
34.713610
21
442.433819
0
LINE
8
boundary
62
5
39
2
10
34.713610
20
442.433819
11
31.967923
21
444.133876
0
LINE
8
boundary
62
5
39
2
10
31.967923
20
444.133876
11
28.956605
21
445.300465
0
LINE
8
boundary
62
5
39
2
10
28.956605
20
445.300465
11
25.782198
21
445.893864
0
LINE
8
boundary
62
5
39
2
10
25.782198
20
445.893864
11
22.552805
21
445.893864
0
LINE
8
boundary
62
5
39
2
10
22.552805
20
445.893864
11
19.378398
21
445.300465
0
LINE
8
boundary
62
5
39
2
10
19.378398
20
445.300465
11
16.367080
21
444.133876
0
LINE
8
boundary
62
5
39
2
10
16.367080
20
444.133876
11
13.621395
21
442.433819
0
LINE
8
boundary
62
5
39
2
10
13.621395
20
442.433819
11
11.234843
21
440.258192
0
LINE
8
boundary
62
5
39
2
10
11.234843
20
440.258192
11
9.288700
21
437.681081
0
LINE
8
boundary
62
5
39
2
10
9.288700
20
437.681081
11
7.849235
21
434.790245
0
LINE
8
boundary
62
5
39
2
10
7.849235
20
434.790245
11
6.965471
21
431.684133
0
LINE
8
boundary
62
5
39
2
10
6.965471
20
431.684133
11
6.667500
21
428.468520
0
LINE
8
boundary
62
5
39
2
10
6.667500
20
428.468520
11
6.667500
21
339.368522
0
LINE
8
annotation
62
1
39
211
10
38.167502
20
392.181194
11
38.167502
21
393.609944
0
LINE
8
annotation
62
1
39
211
10
38.167502
20
392.181194
11
38.167502
21
393.609944
0
LINE
8
annotation
62
1
39
211
10
38.167502
20
393.609944
11
38.167502
21
392.181194
0
LINE
8
annotation
62
1
39
211
10
38.167502
20
392.181194
11
38.167501
21
390.752444
0
LINE
8
annotation
62
1
39
211
10
10.167500
20
392.181194
11
11.596250
21
392.181194
0
LINE
8
annotation
62
1
39
211
10
10.167500
20
392.181194
11
11.596250
21
392.181194
0
LINE
8
annotation
62
1
39
211
10
11.596250
20
392.181194
11
10.167500
21
392.181194
0
LINE
8
annotation
62
1
39
211
10
10.167500
20
392.181194
11
10.167500
21
390.752444
0
LINE
8
annotation
62
1
39
211
10
34.900329
20
376.405022
11
13.424970
21
376.405022
0
LINE
8
annotation
62
1
39
211
10
13.424970
20
376.405022
11
22.001531
21
406.483622
0
LINE
8
annotation
62
1
39
211
10
28.463058
20
367.806632
11
28.463058
21
384.984009
0
LINE
8
frame
62
5
39
2
10
0.000000
20
0.000000
11
800.000000
21
0.000000
0
LINE
8
frame
62
5
39
2
10
800.000000
20
0.000000
11
800.000000
21
1000.000000
0
LINE
8
frame
62
5
39
2
10
800.000000
20
1000.000000
11
0.000000
21
1000.000000
0
LINE
8
frame
62
5
39
2
10
0.000000
20
1000.000000
11
0.000000
21
0.000000
0
ENDSEC
0
EOF
