0
SECTION
2
HEADER
9
$ACADVER
1
AC1009
0
ENDSEC
0
SECTION
2
TABLES
0
TABLE
2
VPORT
70
1
0
VPORT
2
ACTIVE
70
0
10
0.0
20
0.0
11
0.0
21
0.0
12
0.0
22
0.0
13
0.0
23
0.0
14
0.0
24
0.0
15
0.0
25
0.0
16
0.0
26
0.0
36
0.0
17
0.0
27
0.0
37
0.0
40
0.0
41
0.0
42
0.0
43
0.0
44
0.0
50
0.0
51
0.0
71
0
72
1000
73
1
74
3
75
0
76
0
77
0
78
0
0
ENDTAB
0
ENDSEC
0
SECTION
2
ENTITIES
0
LINE
8
hole
62
5
39
2
10
26.381750
20
106.381751
11
26.953250
21
106.381751
0
LINE
8
hole
62
5
39
2
10
26.953250
20
106.381751
11
26.953250
21
106.953251
0
LINE
8
hole
62
5
39
2
10
26.953250
20
106.953251
11
26.381750
21
106.953251
0
LINE
8
hole
62
5
39
2
10
26.381750
20
106.953251
11
26.381750
21
106.381751
0
LINE
8
hole
62
5
39
2
10
186.381752
20
106.381751
11
186.953252
21
106.381751
0
LINE
8
hole
62
5
39
2
10
186.953252
20
106.381751
11
186.953252
21
106.953251
0
LINE
8
hole
62
5
39
2
10
186.953252
20
106.953251
11
186.381752
21
106.953251
0
LINE
8
hole
62
5
39
2
10
186.381752
20
106.953251
11
186.381752
21
106.381751
0
LINE
8
boundary
62
5
39
2
10
74.939562
20
68.040025
11
86.090650
21
9.727517
0
LINE
8
boundary
62
5
39
2
10
86.090650
20
9.727517
11
86.667501
21
6.667500
0
LINE
8
boundary
62
5
39
2
10
86.667501
20
6.667500
11
88.667503
21
6.667500
0
LINE
8
boundary
62
5
39
2
10
88.667503
20
6.667500
11
126.667501
21
6.667500
0
LINE
8
boundary
62
5
39
2
10
126.667501
20
6.667500
11
127.244352
21
9.727517
0
LINE
8
boundary
62
5
39
2
10
127.244352
20
9.727517
11
138.204523
21
67.867807
0
LINE
8
boundary
62
5
39
2
10
138.204523
20
67.867807
11
141.831925
21
71.139944
0
LINE
8
boundary
62
5
39
2
10
141.831925
20
71.139944
11
145.294977
21
74.939563
0
LINE
8
boundary
62
5
39
2
10
145.294977
20
74.939563
11
203.607485
21
86.090650
0
LINE
8
boundary
62
5
39
2
10
203.607485
20
86.090650
11
206.667502
21
86.667501
0
LINE
8
boundary
62
5
39
2
10
206.667502
20
86.667501
11
206.667502
21
124.667499
0
LINE
8
boundary
62
5
39
2
10
206.667502
20
124.667499
11
206.667502
21
126.667500
0
LINE
8
boundary
62
5
39
2
10
206.667502
20
126.667500
11
203.607484
21
127.244352
0
LINE
8
boundary
62
5
39
2
10
203.607484
20
127.244352
11
145.467195
21
138.204523
0
LINE
8
boundary
62
5
39
2
10
145.467195
20
138.204523
11
142.195058
21
141.831924
0
LINE
8
boundary
62
5
39
2
10
142.195058
20
141.831924
11
138.395440
21
145.294977
0
LINE
8
boundary
62
5
39
2
10
138.395440
20
145.294977
11
127.244352
21
203.607484
0
LINE
8
boundary
62
5
39
2
10
127.244352
20
203.607484
11
126.667501
21
206.667502
0
LINE
8
boundary
62
5
39
2
10
126.667501
20
206.667502
11
88.667503
21
206.667502
0
LINE
8
boundary
62
5
39
2
10
88.667503
20
206.667502
11
86.667501
21
206.667502
0
LINE
8
boundary
62
5
39
2
10
86.667501
20
206.667502
11
86.090650
21
203.607485
0
LINE
8
boundary
62
5
39
2
10
86.090650
20
203.607485
11
75.130479
21
145.467195
0
LINE
8
boundary
62
5
39
2
10
75.130479
20
145.467195
11
71.503077
21
142.195058
0
LINE
8
boundary
62
5
39
2
10
71.503077
20
142.195058
11
68.040025
21
138.395439
0
LINE
8
boundary
62
5
39
2
10
68.040025
20
138.395439
11
64.807790
21
137.627672
0
LINE
8
boundary
62
5
39
2
10
64.807790
20
137.627672
11
6.667500
21
126.667501
0
LINE
8
boundary
62
5
39
2
10
6.667500
20
126.667501
11
6.667500
21
124.667499
0
LINE
8
boundary
62
5
39
2
10
6.667500
20
124.667499
11
6.667500
21
86.667502
0
LINE
8
boundary
62
5
39
2
10
6.667500
20
86.667502
11
9.727517
21
86.090650
0
LINE
8
boundary
62
5
39
2
10
9.727517
20
86.090650
11
67.867807
21
75.130478
0
LINE
8
boundary
62
5
39
2
10
67.867807
20
75.130478
11
71.139944
21
71.503077
0
LINE
8
boundary
62
5
39
2
10
71.139944
20
71.503077
11
74.939562
21
68.040025
0
LINE
8
annotation
62
1
39
211
10
186.667502
20
106.667501
11
186.667502
21
108.096251
0
LINE
8
annotation
62
1
39
211
10
26.667500
20
106.667501
11
28.096250
21
106.667501
0
LINE
8
annotation
62
1
39
211
10
115.538120
20
55.787413
11
115.538120
21
163.798214
0
LINE
8
annotation
62
1
39
211
10
115.538120
20
163.798214
11
91.525936
21
139.779256
0
LINE
8
hole
62
5
39
2
10
229.556752
20
106.381751
11
230.128252
21
106.381751
0
LINE
8
hole
62
5
39
2
10
230.128252
20
106.381751
11
230.128252
21
106.953251
0
LINE
8
hole
62
5
39
2
10
230.128252
20
106.953251
11
229.556752
21
106.953251
0
LINE
8
hole
62
5
39
2
10
229.556752
20
106.953251
11
229.556752
21
106.381751
0
LINE
8
hole
62
5
39
2
10
389.556754
20
106.381751
11
390.128254
21
106.381751
0
LINE
8
hole
62
5
39
2
10
390.128254
20
106.381751
11
390.128254
21
106.953251
0
LINE
8
hole
62
5
39
2
10
390.128254
20
106.953251
11
389.556754
21
106.953251
0
LINE
8
hole
62
5
39
2
10
389.556754
20
106.953251
11
389.556754
21
106.381751
0
LINE
8
hole
62
5
39
2
10
309.556753
20
26.381750
11
310.128253
21
26.381750
0
LINE
8
hole
62
5
39
2
10
310.128253
20
26.381750
11
310.128253
21
26.953250
0
LINE
8
hole
62
5
39
2
10
310.128253
20
26.953250
11
309.556753
21
26.953250
0
LINE
8
hole
62
5
39
2
10
309.556753
20
26.953250
11
309.556753
21
26.381750
0
LINE
8
hole
62
5
39
2
10
309.556753
20
186.381752
11
310.128253
21
186.381752
0
LINE
8
hole
62
5
39
2
10
310.128253
20
186.381752
11
310.128253
21
186.953252
0
LINE
8
hole
62
5
39
2
10
310.128253
20
186.953252
11
309.556753
21
186.953252
0
LINE
8
hole
62
5
39
2
10
309.556753
20
186.953252
11
309.556753
21
186.381752
0
LINE
8
boundary
62
5
39
2
10
277.350901
20
68.728896
11
278.305481
21
67.867807
0
LINE
8
boundary
62
5
39
2
10
278.305481
20
67.867807
11
286.958248
21
21.967578
0
LINE
8
boundary
62
5
39
2
10
286.958248
20
21.967578
11
289.842503
21
6.667500
0
LINE
8
boundary
62
5
39
2
10
289.842503
20
6.667500
11
299.842504
21
6.667500
0
LINE
8
boundary
62
5
39
2
10
299.842504
20
6.667500
11
329.842502
21
6.667500
0
LINE
8
boundary
62
5
39
2
10
329.842502
20
6.667500
11
332.726758
21
21.967578
0
LINE
8
boundary
62
5
39
2
10
332.726758
20
21.967578
11
341.379525
21
67.867807
0
LINE
8
boundary
62
5
39
2
10
341.379525
20
67.867807
11
344.243263
21
70.451073
0
LINE
8
boundary
62
5
39
2
10
344.243263
20
70.451073
11
345.197843
21
71.312162
0
LINE
8
boundary
62
5
39
2
10
345.197843
20
71.312162
11
347.781108
21
74.175899
0
LINE
8
boundary
62
5
39
2
10
347.781108
20
74.175899
11
348.642197
21
75.130479
0
LINE
8
boundary
62
5
39
2
10
348.642197
20
75.130479
11
394.542426
21
83.783246
0
LINE
8
boundary
62
5
39
2
10
394.542426
20
83.783246
11
409.842504
21
86.667501
0
LINE
8
boundary
62
5
39
2
10
409.842504
20
86.667501
11
409.842504
21
116.667500
0
LINE
8
boundary
62
5
39
2
10
409.842504
20
116.667500
11
409.842504
21
126.667500
0
LINE
8
boundary
62
5
39
2
10
409.842504
20
126.667500
11
394.542426
21
129.551756
0
LINE
8
boundary
62
5
39
2
10
394.542426
20
129.551756
11
348.642197
21
138.204523
0
LINE
8
boundary
62
5
39
2
10
348.642197
20
138.204523
11
346.058931
21
141.068261
0
LINE
8
boundary
62
5
39
2
10
346.058931
20
141.068261
11
345.197842
21
142.022841
0
LINE
8
boundary
62
5
39
2
10
345.197842
20
142.022841
11
342.334105
21
144.606106
0
LINE
8
boundary
62
5
39
2
10
342.334105
20
144.606106
11
341.379525
21
145.467195
0
LINE
8
boundary
62
5
39
2
10
341.379525
20
145.467195
11
332.726758
21
191.367424
0
LINE
8
boundary
62
5
39
2
10
332.726758
20
191.367424
11
329.842503
21
206.667502
0
LINE
8
boundary
62
5
39
2
10
329.842503
20
206.667502
11
299.842504
21
206.667502
0
LINE
8
boundary
62
5
39
2
10
299.842504
20
206.667502
11
289.842503
21
206.667502
0
LINE
8
boundary
62
5
39
2
10
289.842503
20
206.667502
11
286.958247
21
191.367424
0
LINE
8
boundary
62
5
39
2
10
286.958247
20
191.367424
11
278.305480
21
145.467195
0
LINE
8
boundary
62
5
39
2
10
278.305480
20
145.467195
11
275.441743
21
142.883929
0
LINE
8
boundary
62
5
39
2
10
275.441743
20
142.883929
11
274.487163
21
142.022840
0
LINE
8
boundary
62
5
39
2
10
274.487163
20
142.022840
11
271.903897
21
139.159103
0
LINE
8
boundary
62
5
39
2
10
271.903897
20
139.159103
11
271.042809
21
138.204523
0
LINE
8
boundary
62
5
39
2
10
271.042809
20
138.204523
11
255.742731
21
135.320267
0
LINE
8
boundary
62
5
39
2
10
255.742731
20
135.320267
11
209.842502
21
126.667501
0
LINE
8
boundary
62
5
39
2
10
209.842502
20
126.667501
11
209.842502
21
116.667500
0
LINE
8
boundary
62
5
39
2
10
209.842502
20
116.667500
11
209.842502
21
86.667502
0
LINE
8
boundary
62
5
39
2
10
209.842502
20
86.667502
11
225.142580
21
83.783246
0
LINE
8
boundary
62
5
39
2
10
225.142580
20
83.783246
11
271.042809
21
75.130478
0
LINE
8
boundary
62
5
39
2
10
271.042809
20
75.130478
11
273.626075
21
72.266741
0
LINE
8
boundary
62
5
39
2
10
273.626075
20
72.266741
11
274.487163
21
71.312161
0
LINE
8
boundary
62
5
39
2
10
274.487163
20
71.312161
11
277.350901
21
68.728896
0
LINE
8
annotation
62
1
39
211
10
389.842504
20
106.667501
11
389.842504
21
108.096251
0
LINE
8
annotation
62
1
39
211
10
229.842502
20
106.667501
11
231.271252
21
106.667501
0
LINE
8
annotation
62
1
39
211
10
309.842503
20
186.667502
11
309.842503
21
188.096252
0
LINE
8
annotation
62
1
39
211
10
309.842503
20
186.667502
11
309.842503
21
188.096252
0
LINE
8
annotation
62
1
39
211
10
309.842503
20
188.096252
11
309.842503
21
186.667502
0
LINE
8
annotation
62
1
39
211
10
309.842503
20
186.667502
11
311.271253
21
186.667501
0
LINE
8
annotation
62
1
39
211
10
309.842503
20
26.667500
11
309.842503
21
25.238750
0
LINE
8
annotation
62
1
39
211
10
322.698219
20
73.788628
11
290.718099
21
73.788628
0
LINE
8
annotation
62
1
39
211
10
290.718099
20
73.788628
11
320.268777
21
121.361427
0
LINE
8
annotation
62
1
39
211
10
320.268777
20
121.361427
11
320.268777
21
121.361427
0
LINE
8
annotation
62
1
39
211
10
320.268777
20
121.361427
11
320.304104
21
121.405141
0
LINE
8
annotation
62
1
39
211
10
320.304104
20
121.405141
11
320.337981
21
121.449226
0
LINE
8
annotation
62
1
39
211
10
320.337981
20
121.449226
11
320.370631
21
121.494055
0
LINE
8
annotation
62
1
39
211
10
320.370631
20
121.494055
11
320.402278
21
121.539998
0
LINE
8
annotation
62
1
39
211
10
320.402278
20
121.539998
11
320.433145
21
121.587428
0
LINE
8
annotation
62
1
39
211
10
320.433145
20
121.587428
11
320.463454
21
121.636717
0
LINE
8
annotation
62
1
39
211
10
320.463454
20
121.636717
11
320.493428
21
121.688235
0
LINE
8
annotation
62
1
39
211
10
320.493428
20
121.688235
11
320.523291
21
121.742356
0
LINE
8
annotation
62
1
39
211
10
320.523291
20
121.742356
11
320.553266
21
121.799449
0
LINE
8
annotation
62
1
39
211
10
320.553266
20
121.799449
11
320.553266
21
121.799449
0
LINE
8
annotation
62
1
39
211
10
320.553266
20
121.799449
11
321.773407
21
124.419194
0
LINE
8
annotation
62
1
39
211
10
321.773407
20
124.419194
11
322.486192
21
127.134790
0
LINE
8
annotation
62
1
39
211
10
322.486192
20
127.134790
11
322.709090
21
129.884877
0
LINE
8
annotation
62
1
39
211
10
322.709090
20
129.884877
11
322.459569
21
132.608092
0
LINE
8
annotation
62
1
39
211
10
322.459569
20
132.608092
11
321.755096
21
135.243075
0
LINE
8
annotation
62
1
39
211
10
321.755096
20
135.243075
11
320.613141
21
137.728464
0
LINE
8
annotation
62
1
39
211
10
320.613141
20
137.728464
11
319.051170
21
140.002897
0
LINE
8
annotation
62
1
39
211
10
319.051170
20
140.002897
11
317.086653
21
142.005015
0
LINE
8
annotation
62
1
39
211
10
317.086653
20
142.005015
11
314.737057
21
143.673454
0
LINE
8
annotation
62
1
39
211
10
314.737057
20
143.673454
11
314.737057
21
143.673454
0
LINE
8
annotation
62
1
39
211
10
314.737057
20
143.673454
11
312.110027
21
144.876257
0
LINE
8
annotation
62
1
39
211
10
312.110027
20
144.876257
11
309.390268
21
145.578059
0
LINE
8
annotation
62
1
39
211
10
309.390268
20
145.578059
11
306.638584
21
145.794658
0
LINE
8
annotation
62
1
39
211
10
306.638584
20
145.794658
11
303.915777
21
145.541847
0
LINE
8
annotation
62
1
39
211
10
303.915777
20
145.541847
11
301.282653
21
144.835423
0
LINE
8
annotation
62
1
39
211
10
301.282653
20
144.835423
11
298.800014
21
143.691182
0
LINE
8
annotation
62
1
39
211
10
298.800014
20
143.691182
11
296.528665
21
142.124919
0
LINE
8
annotation
62
1
39
211
10
296.528665
20
142.124919
11
294.529410
21
140.152429
0
LINE
8
annotation
62
1
39
211
10
294.529410
20
140.152429
11
292.863052
21
137.789509
0
LINE
8
annotation
62
1
39
211
10
292.863052
20
137.789509
11
290.763256
21
133.761513
0
LINE
8
hole
62
5
39
2
10
432.731754
20
106.381751
11
433.303254
21
106.381751
0
LINE
8
hole
62
5
39
2
10
433.303254
20
106.381751
11
433.303254
21
106.953251
0
LINE
8
hole
62
5
39
2
10
433.303254
20
106.953251
11
432.731754
21
106.953251
0
LINE
8
hole
62
5
39
2
10
432.731754
20
106.953251
11
432.731754
21
106.381751
0
LINE
8
hole
62
5
39
2
10
592.731755
20
106.381751
11
593.303255
21
106.381751
0
LINE
8
hole
62
5
39
2
10
593.303255
20
106.381751
11
593.303255
21
106.953251
0
LINE
8
hole
62
5
39
2
10
593.303255
20
106.953251
11
592.731755
21
106.953251
0
LINE
8
hole
62
5
39
2
10
592.731755
20
106.953251
11
592.731755
21
106.381751
0
LINE
8
hole
62
5
39
2
10
512.731755
20
26.381750
11
513.303255
21
26.381750
0
LINE
8
hole
62
5
39
2
10
513.303255
20
26.381750
11
513.303255
21
26.953250
0
LINE
8
hole
62
5
39
2
10
513.303255
20
26.953250
11
512.731755
21
26.953250
0
LINE
8
hole
62
5
39
2
10
512.731755
20
26.953250
11
512.731755
21
26.381750
0
LINE
8
hole
62
5
39
2
10
512.731755
20
186.381752
11
513.303255
21
186.381752
0
LINE
8
hole
62
5
39
2
10
513.303255
20
186.381752
11
513.303255
21
186.953252
0
LINE
8
hole
62
5
39
2
10
513.303255
20
186.953252
11
512.731755
21
186.953252
0
LINE
8
hole
62
5
39
2
10
512.731755
20
186.953252
11
512.731755
21
186.381752
0
LINE
8
boundary
62
5
39
2
10
479.762239
20
69.417767
11
481.480482
21
67.867807
0
LINE
8
boundary
62
5
39
2
10
481.480482
20
67.867807
11
487.825845
21
34.207639
0
LINE
8
boundary
62
5
39
2
10
487.825845
20
34.207639
11
493.017505
21
6.667500
0
LINE
8
boundary
62
5
39
2
10
493.017505
20
6.667500
11
511.017505
21
6.667500
0
LINE
8
boundary
62
5
39
2
10
511.017505
20
6.667500
11
533.017504
21
6.667500
0
LINE
8
boundary
62
5
39
2
10
533.017504
20
6.667500
11
538.209164
21
34.207638
0
LINE
8
boundary
62
5
39
2
10
538.209164
20
34.207638
11
544.554527
21
67.867807
0
LINE
8
boundary
62
5
39
2
10
544.554527
20
67.867807
11
546.654602
21
69.762202
0
LINE
8
boundary
62
5
39
2
10
546.654602
20
69.762202
11
548.372844
21
71.312162
0
LINE
8
boundary
62
5
39
2
10
548.372844
20
71.312162
11
550.267239
21
73.412236
0
LINE
8
boundary
62
5
39
2
10
550.267239
20
73.412236
11
551.817198
21
75.130479
0
LINE
8
boundary
62
5
39
2
10
551.817198
20
75.130479
11
585.477367
21
81.475841
0
LINE
8
boundary
62
5
39
2
10
585.477367
20
81.475841
11
613.017506
21
86.667501
0
LINE
8
boundary
62
5
39
2
10
613.017506
20
86.667501
11
613.017505
21
108.667501
0
LINE
8
boundary
62
5
39
2
10
613.017505
20
108.667501
11
613.017506
21
126.667500
0
LINE
8
boundary
62
5
39
2
10
613.017506
20
126.667500
11
585.477367
21
131.859161
0
LINE
8
boundary
62
5
39
2
10
585.477367
20
131.859161
11
551.817199
21
138.204523
0
LINE
8
boundary
62
5
39
2
10
551.817199
20
138.204523
11
549.922804
21
140.304598
0
LINE
8
boundary
62
5
39
2
10
549.922804
20
140.304598
11
548.372844
21
142.022841
0
LINE
8
boundary
62
5
39
2
10
548.372844
20
142.022841
11
546.272770
21
143.917235
0
LINE
8
boundary
62
5
39
2
10
546.272770
20
143.917235
11
544.554527
21
145.467195
0
LINE
8
boundary
62
5
39
2
10
544.554527
20
145.467195
11
538.209164
21
179.127363
0
LINE
8
boundary
62
5
39
2
10
538.209164
20
179.127363
11
533.017504
21
206.667502
0
LINE
8
boundary
62
5
39
2
10
533.017504
20
206.667502
11
511.017505
21
206.667502
0
LINE
8
boundary
62
5
39
2
10
511.017505
20
206.667502
11
493.017505
21
206.667502
0
LINE
8
boundary
62
5
39
2
10
493.017505
20
206.667502
11
487.825845
21
179.127363
0
LINE
8
boundary
62
5
39
2
10
487.825845
20
179.127363
11
481.480482
21
145.467195
0
LINE
8
boundary
62
5
39
2
10
481.480482
20
145.467195
11
479.380408
21
143.572800
0
LINE
8
boundary
62
5
39
2
10
479.380408
20
143.572800
11
477.662165
21
142.022840
0
LINE
8
boundary
62
5
39
2
10
477.662165
20
142.022840
11
475.767770
21
139.922766
0
LINE
8
boundary
62
5
39
2
10
475.767770
20
139.922766
11
474.217811
21
138.204523
0
LINE
8
boundary
62
5
39
2
10
474.217811
20
138.204523
11
446.677672
21
133.012863
0
LINE
8
boundary
62
5
39
2
10
446.677672
20
133.012863
11
413.017504
21
126.667501
0
LINE
8
boundary
62
5
39
2
10
413.017504
20
126.667501
11
413.017504
21
108.667501
0
LINE
8
boundary
62
5
39
2
10
413.017504
20
108.667501
11
413.017504
21
86.667502
0
LINE
8
boundary
62
5
39
2
10
413.017504
20
86.667502
11
440.557642
21
81.475841
0
LINE
8
boundary
62
5
39
2
10
440.557642
20
81.475841
11
474.217811
21
75.130478
0
LINE
8
boundary
62
5
39
2
10
474.217811
20
75.130478
11
476.112206
21
73.030404
0
LINE
8
boundary
62
5
39
2
10
476.112206
20
73.030404
11
477.662165
21
71.312161
0
LINE
8
boundary
62
5
39
2
10
477.662165
20
71.312161
11
479.762239
21
69.417767
0
LINE
8
annotation
62
1
39
211
10
513.017505
20
186.667502
11
513.017505
21
188.096252
0
LINE
8
annotation
62
1
39
211
10
513.017505
20
186.667502
11
513.017505
21
188.096252
0
LINE
8
annotation
62
1
39
211
10
513.017505
20
188.096252
11
513.017505
21
186.667502
0
LINE
8
annotation
62
1
39
211
10
513.017505
20
186.667502
11
514.446255
21
186.667501
0
LINE
8
annotation
62
1
39
211
10
513.017505
20
26.667500
11
513.017505
21
25.238750
0
LINE
8
annotation
62
1
39
211
10
593.017505
20
106.667501
11
593.017505
21
108.096251
0
LINE
8
annotation
62
1
39
211
10
593.017505
20
106.667501
11
593.017505
21
108.096251
0
LINE
8
annotation
62
1
39
211
10
593.017505
20
108.096251
11
593.017505
21
106.667501
0
LINE
8
annotation
62
1
39
211
10
593.017505
20
106.667501
11
593.017505
21
105.238751
0
LINE
8
annotation
62
1
39
211
10
433.017504
20
106.667501
11
434.446254
21
106.667501
0
LINE
8
annotation
62
1
39
211
10
433.017504
20
106.667501
11
434.446254
21
106.667501
0
LINE
8
annotation
62
1
39
211
10
434.446254
20
106.667501
11
433.017504
21
106.667501
0
LINE
8
annotation
62
1
39
211
10
433.017504
20
106.667501
11
433.017504
21
105.238751
0
LINE
8
annotation
62
1
39
211
10
500.143726
20
73.791471
11
516.133786
21
73.791471
0
LINE
8
annotation
62
1
39
211
10
516.133786
20
73.791471
11
516.133786
21
73.791471
0
LINE
8
annotation
62
1
39
211
10
516.133786
20
73.791471
11
519.009637
21
74.049454
0
LINE
8
annotation
62
1
39
211
10
519.009637
20
74.049454
11
521.715712
21
74.792975
0
LINE
8
annotation
62
1
39
211
10
521.715712
20
74.792975
11
524.207004
21
75.976396
0
LINE
8
annotation
62
1
39
211
10
524.207004
20
75.976396
11
526.438505
21
77.554076
0
LINE
8
annotation
62
1
39
211
10
526.438505
20
77.554076
11
528.365206
21
79.480374
0
LINE
8
annotation
62
1
39
211
10
528.365206
20
79.480374
11
529.942098
21
81.709651
0
LINE
8
annotation
62
1
39
211
10
529.942098
20
81.709651
11
531.124175
21
84.196266
0
LINE
8
annotation
62
1
39
211
10
531.124175
20
84.196266
11
531.866427
21
86.894580
0
LINE
8
annotation
62
1
39
211
10
531.866427
20
86.894580
11
532.123846
21
89.758952
0
LINE
8
annotation
62
1
39
211
10
532.123846
20
89.758952
11
532.123846
21
97.765272
0
LINE
8
annotation
62
1
39
211
10
532.123846
20
97.765272
11
532.123846
21
97.765272
0
LINE
8
annotation
62
1
39
211
10
532.123846
20
97.765272
11
531.866427
21
100.628455
0
LINE
8
annotation
62
1
39
211
10
531.866427
20
100.628455
11
531.124175
21
103.326137
0
LINE
8
annotation
62
1
39
211
10
531.124175
20
103.326137
11
529.942098
21
105.812567
0
LINE
8
annotation
62
1
39
211
10
529.942098
20
105.812567
11
528.365206
21
108.041992
0
LINE
8
annotation
62
1
39
211
10
528.365206
20
108.041992
11
526.438505
21
109.968662
0
LINE
8
annotation
62
1
39
211
10
526.438505
20
109.968662
11
524.207004
21
111.546825
0
LINE
8
annotation
62
1
39
211
10
524.207004
20
111.546825
11
521.715712
21
112.730728
0
LINE
8
annotation
62
1
39
211
10
521.715712
20
112.730728
11
519.009637
21
113.474622
0
LINE
8
annotation
62
1
39
211
10
519.009637
20
113.474622
11
516.133786
21
113.732753
0
LINE
8
annotation
62
1
39
211
10
516.133786
20
113.732753
11
508.127467
21
113.732753
0
LINE
8
annotation
62
1
39
211
10
508.127467
20
113.732753
11
516.133786
21
113.732753
0
LINE
8
annotation
62
1
39
211
10
516.133786
20
113.732753
11
516.133786
21
113.732753
0
LINE
8
annotation
62
1
39
211
10
516.133786
20
113.732753
11
519.009637
21
113.990947
0
LINE
8
annotation
62
1
39
211
10
519.009637
20
113.990947
11
521.715712
21
114.735274
0
LINE
8
annotation
62
1
39
211
10
521.715712
20
114.735274
11
524.207004
21
115.920355
0
LINE
8
annotation
62
1
39
211
10
524.207004
20
115.920355
11
526.438505
21
117.500809
0
LINE
8
annotation
62
1
39
211
10
526.438505
20
117.500809
11
528.365206
21
119.431257
0
LINE
8
annotation
62
1
39
211
10
528.365206
20
119.431257
11
529.942098
21
121.666320
0
LINE
8
annotation
62
1
39
211
10
529.942098
20
121.666320
11
531.124175
21
124.160616
0
LINE
8
annotation
62
1
39
211
10
531.124175
20
124.160616
11
531.866427
21
126.868767
0
LINE
8
annotation
62
1
39
211
10
531.866427
20
126.868767
11
532.123846
21
129.745392
0
LINE
8
annotation
62
1
39
211
10
532.123846
20
129.745392
11
532.123846
21
129.745392
0
LINE
8
annotation
62
1
39
211
10
532.123846
20
129.745392
11
531.866427
21
132.608575
0
LINE
8
annotation
62
1
39
211
10
531.866427
20
132.608575
11
531.124175
21
135.306257
0
LINE
8
annotation
62
1
39
211
10
531.124175
20
135.306257
11
529.942098
21
137.792687
0
LINE
8
annotation
62
1
39
211
10
529.942098
20
137.792687
11
528.365206
21
140.022112
0
LINE
8
annotation
62
1
39
211
10
528.365206
20
140.022112
11
526.438505
21
141.948782
0
LINE
8
annotation
62
1
39
211
10
526.438505
20
141.948782
11
524.207004
21
143.526945
0
LINE
8
annotation
62
1
39
211
10
524.207004
20
143.526945
11
521.715712
21
144.710849
0
LINE
8
annotation
62
1
39
211
10
521.715712
20
144.710849
11
519.009637
21
145.454742
0
LINE
8
annotation
62
1
39
211
10
519.009637
20
145.454742
11
516.133786
21
145.712873
0
LINE
8
annotation
62
1
39
211
10
516.133786
20
145.712873
11
500.143726
21
145.712873
0
LINE
8
hole
62
5
39
2
10
26.381750
20
309.556753
11
26.953250
21
309.556753
0
LINE
8
hole
62
5
39
2
10
26.953250
20
309.556753
11
26.953250
21
310.128253
0
LINE
8
hole
62
5
39
2
10
26.953250
20
310.128253
11
26.381750
21
310.128253
0
LINE
8
hole
62
5
39
2
10
26.381750
20
310.128253
11
26.381750
21
309.556753
0
LINE
8
hole
62
5
39
2
10
186.381752
20
309.556753
11
186.953252
21
309.556753
0
LINE
8
hole
62
5
39
2
10
186.953252
20
309.556753
11
186.953252
21
310.128253
0
LINE
8
hole
62
5
39
2
10
186.953252
20
310.128253
11
186.381752
21
310.128253
0
LINE
8
hole
62
5
39
2
10
186.381752
20
310.128253
11
186.381752
21
309.556753
0
LINE
8
hole
62
5
39
2
10
106.381751
20
229.556752
11
106.953251
21
229.556752
0
LINE
8
hole
62
5
39
2
10
106.953251
20
229.556752
11
106.953251
21
230.128252
0
LINE
8
hole
62
5
39
2
10
106.953251
20
230.128252
11
106.381751
21
230.128252
0
LINE
8
hole
62
5
39
2
10
106.381751
20
230.128252
11
106.381751
21
229.556752
0
LINE
8
hole
62
5
39
2
10
106.381751
20
389.556753
11
106.953251
21
389.556753
0
LINE
8
hole
62
5
39
2
10
106.953251
20
389.556753
11
106.953251
21
390.128253
0
LINE
8
hole
62
5
39
2
10
106.953251
20
390.128253
11
106.381751
21
390.128253
0
LINE
8
hole
62
5
39
2
10
106.381751
20
390.128253
11
106.381751
21
389.556753
0
LINE
8
boundary
62
5
39
2
10
72.648572
20
273.281639
11
75.130479
21
271.042809
0
LINE
8
boundary
62
5
39
2
10
75.130479
20
271.042809
11
79.168437
21
249.622701
0
LINE
8
boundary
62
5
39
2
10
79.168437
20
249.622701
11
86.667501
21
209.842502
0
LINE
8
boundary
62
5
39
2
10
86.667501
20
209.842502
11
112.667501
21
209.842502
0
LINE
8
boundary
62
5
39
2
10
112.667501
20
209.842502
11
126.667501
21
209.842502
0
LINE
8
boundary
62
5
39
2
10
126.667501
20
209.842502
11
134.166565
21
249.622701
0
LINE
8
boundary
62
5
39
2
10
134.166565
20
249.622701
11
138.204523
21
271.042809
0
LINE
8
boundary
62
5
39
2
10
138.204523
20
271.042809
11
139.540934
21
272.248333
0
LINE
8
boundary
62
5
39
2
10
139.540934
20
272.248333
11
142.022841
21
274.487163
0
LINE
8
boundary
62
5
39
2
10
142.022841
20
274.487163
11
143.228365
21
275.823574
0
LINE
8
boundary
62
5
39
2
10
143.228365
20
275.823574
11
145.467195
21
278.305480
0
LINE
8
boundary
62
5
39
2
10
145.467195
20
278.305480
11
166.887303
21
282.343438
0
LINE
8
boundary
62
5
39
2
10
166.887303
20
282.343438
11
206.667502
21
289.842503
0
LINE
8
boundary
62
5
39
2
10
206.667502
20
289.842503
11
206.667502
21
303.842503
0
LINE
8
boundary
62
5
39
2
10
206.667502
20
303.842503
11
206.667502
21
329.842502
0
LINE
8
boundary
62
5
39
2
10
206.667502
20
329.842502
11
166.887303
21
337.341567
0
LINE
8
boundary
62
5
39
2
10
166.887303
20
337.341567
11
145.467195
21
341.379525
0
LINE
8
boundary
62
5
39
2
10
145.467195
20
341.379525
11
144.261671
21
342.715936
0
LINE
8
boundary
62
5
39
2
10
144.261671
20
342.715936
11
142.022841
21
345.197842
0
LINE
8
boundary
62
5
39
2
10
142.022841
20
345.197842
11
140.686430
21
346.403366
0
LINE
8
boundary
62
5
39
2
10
140.686430
20
346.403366
11
138.204523
21
348.642197
0
LINE
8
boundary
62
5
39
2
10
138.204523
20
348.642197
11
134.166565
21
370.062304
0
LINE
8
boundary
62
5
39
2
10
134.166565
20
370.062304
11
126.667501
21
409.842503
0
LINE
8
boundary
62
5
39
2
10
126.667501
20
409.842503
11
112.667501
21
409.842503
0
LINE
8
boundary
62
5
39
2
10
112.667501
20
409.842503
11
86.667501
21
409.842503
0
LINE
8
boundary
62
5
39
2
10
86.667501
20
409.842503
11
79.168437
21
370.062305
0
LINE
8
boundary
62
5
39
2
10
79.168437
20
370.062305
11
75.130479
21
348.642196
0
LINE
8
boundary
62
5
39
2
10
75.130479
20
348.642196
11
73.794067
21
347.436672
0
LINE
8
boundary
62
5
39
2
10
73.794067
20
347.436672
11
71.312161
21
345.197842
0
LINE
8
boundary
62
5
39
2
10
71.312161
20
345.197842
11
70.106637
21
343.861431
0
LINE
8
boundary
62
5
39
2
10
70.106637
20
343.861431
11
67.867807
21
341.379525
0
LINE
8
boundary
62
5
39
2
10
67.867807
20
341.379525
11
28.087608
21
333.880460
0
LINE
8
boundary
62
5
39
2
10
28.087608
20
333.880460
11
6.667500
21
329.842502
0
LINE
8
boundary
62
5
39
2
10
6.667500
20
329.842502
11
6.667500
21
303.842503
0
LINE
8
boundary
62
5
39
2
10
6.667500
20
303.842503
11
6.667500
21
289.842503
0
LINE
8
boundary
62
5
39
2
10
6.667500
20
289.842503
11
46.447699
21
282.343438
0
LINE
8
boundary
62
5
39
2
10
46.447699
20
282.343438
11
67.867807
21
278.305480
0
LINE
8
boundary
62
5
39
2
10
67.867807
20
278.305480
11
69.073331
21
276.969069
0
LINE
8
boundary
62
5
39
2
10
69.073331
20
276.969069
11
71.312162
21
274.487163
0
LINE
8
boundary
62
5
39
2
10
71.312162
20
274.487163
11
72.648572
21
273.281639
0
LINE
8
annotation
62
1
39
211
10
186.667502
20
309.842503
11
186.667502
21
311.271253
0
LINE
8
annotation
62
1
39
211
10
186.667502
20
309.842503
11
186.667502
21
311.271253
0
LINE
8
annotation
62
1
39
211
10
186.667502
20
311.271253
11
186.667502
21
309.842503
0
LINE
8
annotation
62
1
39
211
10
186.667502
20
309.842503
11
186.667502
21
308.413753
0
LINE
8
annotation
62
1
39
211
10
26.667500
20
309.842503
11
28.096250
21
309.842503
0
LINE
8
annotation
62
1
39
211
10
26.667500
20
309.842503
11
28.096250
21
309.842503
0
LINE
8
annotation
62
1
39
211
10
28.096250
20
309.842503
11
26.667500
21
309.842503
0
LINE
8
annotation
62
1
39
211
10
26.667500
20
309.842503
11
26.667500
21
308.413753
0
LINE
8
annotation
62
1
39
211
10
106.667501
20
389.842503
11
106.667501
21
391.271253
0
LINE
8
annotation
62
1
39
211
10
106.667501
20
229.842502
11
108.096251
21
229.842502
0
LINE
8
annotation
62
1
39
211
10
125.778358
20
296.971433
11
93.792819
21
296.971433
0
LINE
8
annotation
62
1
39
211
10
93.792819
20
296.971433
11
106.566804
21
341.770695
0
LINE
8
annotation
62
1
39
211
10
116.190644
20
284.164935
11
116.190644
21
309.749031
0
LINE
8
hole
62
5
39
2
10
106.381751
20
432.731754
11
106.953251
21
432.731754
0
LINE
8
hole
62
5
39
2
10
106.953251
20
432.731754
11
106.953251
21
433.303254
0
LINE
8
hole
62
5
39
2
10
106.953251
20
433.303254
11
106.381751
21
433.303254
0
LINE
8
hole
62
5
39
2
10
106.381751
20
433.303254
11
106.381751
21
432.731754
0
LINE
8
hole
62
5
39
2
10
106.381751
20
592.731755
11
106.953251
21
592.731755
0
LINE
8
hole
62
5
39
2
10
106.953251
20
592.731755
11
106.953251
21
593.303255
0
LINE
8
hole
62
5
39
2
10
106.953251
20
593.303255
11
106.381751
21
593.303255
0
LINE
8
hole
62
5
39
2
10
106.381751
20
593.303255
11
106.381751
21
592.731755
0
LINE
8
boundary
62
5
39
2
10
71.884909
20
477.145512
11
75.130479
21
474.217810
0
LINE
8
boundary
62
5
39
2
10
75.130479
20
474.217810
11
76.861032
21
465.037763
0
LINE
8
boundary
62
5
39
2
10
76.861032
20
465.037763
11
86.667501
21
413.017504
0
LINE
8
boundary
62
5
39
2
10
86.667501
20
413.017504
11
120.667500
21
413.017503
0
LINE
8
boundary
62
5
39
2
10
120.667500
20
413.017503
11
126.667501
21
413.017503
0
LINE
8
boundary
62
5
39
2
10
126.667501
20
413.017503
11
136.473970
21
465.037763
0
LINE
8
boundary
62
5
39
2
10
136.473970
20
465.037763
11
138.204523
21
474.217810
0
LINE
8
boundary
62
5
39
2
10
138.204523
20
474.217810
11
138.777271
21
474.734464
0
LINE
8
boundary
62
5
39
2
10
138.777271
20
474.734464
11
142.022841
21
477.662165
0
LINE
8
boundary
62
5
39
2
10
142.022841
20
477.662165
11
142.539494
21
478.234913
0
LINE
8
boundary
62
5
39
2
10
142.539494
20
478.234913
11
145.467195
21
481.480482
0
LINE
8
boundary
62
5
39
2
10
145.467195
20
481.480482
11
154.647242
21
483.211036
0
LINE
8
boundary
62
5
39
2
10
154.647242
20
483.211036
11
206.667502
21
493.017505
0
LINE
8
boundary
62
5
39
2
10
206.667502
20
493.017505
11
206.667502
21
499.017506
0
LINE
8
boundary
62
5
39
2
10
206.667502
20
499.017506
11
206.667502
21
533.017504
0
LINE
8
boundary
62
5
39
2
10
206.667502
20
533.017504
11
154.647242
21
542.823973
0
LINE
8
boundary
62
5
39
2
10
154.647242
20
542.823973
11
145.467195
21
544.554527
0
LINE
8
boundary
62
5
39
2
10
145.467195
20
544.554527
11
144.950542
21
545.127274
0
LINE
8
boundary
62
5
39
2
10
144.950542
20
545.127274
11
142.022841
21
548.372844
0
LINE
8
boundary
62
5
39
2
10
142.022841
20
548.372844
11
141.450093
21
548.889497
0
LINE
8
boundary
62
5
39
2
10
141.450093
20
548.889497
11
138.204523
21
551.817198
0
LINE
8
boundary
62
5
39
2
10
138.204523
20
551.817198
11
136.473970
21
560.997245
0
LINE
8
boundary
62
5
39
2
10
136.473970
20
560.997245
11
126.667501
21
613.017505
0
LINE
8
boundary
62
5
39
2
10
126.667501
20
613.017505
11
120.667500
21
613.017505
0
LINE
8
boundary
62
5
39
2
10
120.667500
20
613.017505
11
86.667501
21
613.017505
0
LINE
8
boundary
62
5
39
2
10
86.667501
20
613.017505
11
76.861032
21
560.997246
0
LINE
8
boundary
62
5
39
2
10
76.861032
20
560.997246
11
75.130479
21
551.817198
0
LINE
8
boundary
62
5
39
2
10
75.130479
20
551.817198
11
74.557731
21
551.300545
0
LINE
8
boundary
62
5
39
2
10
74.557731
20
551.300545
11
71.312161
21
548.372844
0
LINE
8
boundary
62
5
39
2
10
71.312161
20
548.372844
11
70.795508
21
547.800096
0
LINE
8
boundary
62
5
39
2
10
70.795508
20
547.800096
11
67.867807
21
544.554527
0
LINE
8
boundary
62
5
39
2
10
67.867807
20
544.554527
11
15.847547
21
534.748057
0
LINE
8
boundary
62
5
39
2
10
15.847547
20
534.748057
11
6.667500
21
533.017504
0
LINE
8
boundary
62
5
39
2
10
6.667500
20
533.017504
11
6.667500
21
499.017505
0
LINE
8
boundary
62
5
39
2
10
6.667500
20
499.017505
11
6.667500
21
493.017505
0
LINE
8
boundary
62
5
39
2
10
6.667500
20
493.017505
11
58.687760
21
483.211036
0
LINE
8
boundary
62
5
39
2
10
58.687760
20
483.211036
11
67.867807
21
481.480482
0
LINE
8
boundary
62
5
39
2
10
67.867807
20
481.480482
11
68.384460
21
480.907734
0
LINE
8
boundary
62
5
39
2
10
68.384460
20
480.907734
11
71.312162
21
477.662165
0
LINE
8
boundary
62
5
39
2
10
71.312162
20
477.662165
11
71.884909
21
477.145512
0
LINE
8
annotation
62
1
39
211
10
106.667501
20
593.017505
11
106.667501
21
594.446255
0
LINE
8
annotation
62
1
39
211
10
106.667501
20
433.017504
11
108.096251
21
433.017504
0
LINE
8
annotation
62
1
39
211
10
93.793722
20
480.139216
11
109.783782
21
480.139216
0
LINE
8
annotation
62
1
39
211
10
109.783782
20
480.139216
11
109.783782
21
480.139216
0
LINE
8
annotation
62
1
39
211
10
109.783782
20
480.139216
11
112.653686
21
480.397255
0
LINE
8
annotation
62
1
39
211
10
112.653686
20
480.397255
11
115.356603
21
481.141167
0
LINE
8
annotation
62
1
39
211
10
115.356603
20
481.141167
11
117.846966
21
482.325647
0
LINE
8
annotation
62
1
39
211
10
117.846966
20
482.325647
11
120.079210
21
483.905389
0
LINE
8
annotation
62
1
39
211
10
120.079210
20
483.905389
11
122.007769
21
485.835088
0
LINE
8
annotation
62
1
39
211
10
122.007769
20
485.835088
11
123.587077
21
488.069438
0
LINE
8
annotation
62
1
39
211
10
123.587077
20
488.069438
11
124.771569
21
490.563134
0
LINE
8
annotation
62
1
39
211
10
124.771569
20
490.563134
11
125.515680
21
493.270869
0
LINE
8
annotation
62
1
39
211
10
125.515680
20
493.270869
11
125.773842
21
496.147339
0
LINE
8
annotation
62
1
39
211
10
125.773842
20
496.147339
11
125.773842
21
504.113017
0
LINE
8
annotation
62
1
39
211
10
125.773842
20
504.113017
11
125.773842
21
504.113017
0
LINE
8
annotation
62
1
39
211
10
125.773842
20
504.113017
11
125.515828
21
506.988094
0
LINE
8
annotation
62
1
39
211
10
125.515828
20
506.988094
11
124.772090
21
509.692094
0
LINE
8
annotation
62
1
39
211
10
124.772090
20
509.692094
11
123.588081
21
512.180382
0
LINE
8
annotation
62
1
39
211
10
123.588081
20
512.180382
11
122.009255
21
514.408321
0
LINE
8
annotation
62
1
39
211
10
122.009255
20
514.408321
11
120.081068
21
516.331274
0
LINE
8
annotation
62
1
39
211
10
120.081068
20
516.331274
11
117.848973
21
517.904605
0
LINE
8
annotation
62
1
39
211
10
117.848973
20
517.904605
11
115.358424
21
519.083677
0
LINE
8
annotation
62
1
39
211
10
115.358424
20
519.083677
11
112.654875
21
519.823854
0
LINE
8
annotation
62
1
39
211
10
112.654875
20
519.823854
11
109.783782
21
520.080499
0
LINE
8
annotation
62
1
39
211
10
109.783782
20
520.080499
11
93.793722
21
520.080499
0
LINE
8
annotation
62
1
39
211
10
93.793722
20
520.080499
11
93.793722
21
552.146417
0
LINE
8
annotation
62
1
39
211
10
93.793722
20
552.146417
11
125.773842
21
552.146417
0
LINE
8
frame
62
5
39
2
10
0.000000
20
0.000000
11
800.000000
21
0.000000
0
LINE
8
frame
62
5
39
2
10
800.000000
20
0.000000
11
800.000000
21
1000.000000
0
LINE
8
frame
62
5
39
2
10
800.000000
20
1000.000000
11
0.000000
21
1000.000000
0
LINE
8
frame
62
5
39
2
10
0.000000
20
1000.000000
11
0.000000
21
0.000000
0
ENDSEC
0
EOF
