0
SECTION
2
HEADER
9
$ACADVER
1
AC1009
0
ENDSEC
0
SECTION
2
TABLES
0
TABLE
2
VPORT
70
1
0
VPORT
2
ACTIVE
70
0
10
0.0
20
0.0
11
0.0
21
0.0
12
0.0
22
0.0
13
0.0
23
0.0
14
0.0
24
0.0
15
0.0
25
0.0
16
0.0
26
0.0
36
0.0
17
0.0
27
0.0
37
0.0
40
0.0
41
0.0
42
0.0
43
0.0
44
0.0
50
0.0
51
0.0
71
0
72
1000
73
1
74
3
75
0
76
0
77
0
78
0
0
ENDTAB
0
ENDSEC
0
SECTION
2
ENTITIES
0
LINE
8
hole
62
5
39
2
10
11.381750
20
58.881749
11
11.953250
21
58.881749
0
LINE
8
hole
62
5
39
2
10
11.953250
20
58.881749
11
11.953250
21
59.453249
0
LINE
8
hole
62
5
39
2
10
11.953250
20
59.453249
11
11.381750
21
59.453249
0
LINE
8
hole
62
5
39
2
10
11.381750
20
59.453249
11
11.381750
21
58.881749
0
LINE
8
hole
62
5
39
2
10
51.381752
20
58.881749
11
51.953252
21
58.881749
0
LINE
8
hole
62
5
39
2
10
51.953252
20
58.881749
11
51.953252
21
59.453249
0
LINE
8
hole
62
5
39
2
10
51.953252
20
59.453249
11
51.381752
21
59.453249
0
LINE
8
hole
62
5
39
2
10
51.381752
20
59.453249
11
51.381752
21
58.881749
0
LINE
8
hole
62
5
39
2
10
30.491931
20
103.049468
11
30.049467
21
103.491929
0
LINE
8
hole
62
5
39
2
10
30.049467
20
103.491929
11
29.765389
21
104.049468
0
LINE
8
hole
62
5
39
2
10
29.765389
20
104.049468
11
29.667502
21
104.667502
0
LINE
8
hole
62
5
39
2
10
29.667502
20
104.667502
11
29.765389
21
105.285533
0
LINE
8
hole
62
5
39
2
10
29.765389
20
105.285533
11
30.049467
21
105.843072
0
LINE
8
hole
62
5
39
2
10
30.049467
20
105.843072
11
30.491931
21
106.285535
0
LINE
8
hole
62
5
39
2
10
30.491931
20
106.285535
11
31.049468
21
106.569614
0
LINE
8
hole
62
5
39
2
10
31.049468
20
106.569614
11
31.667502
21
106.667501
0
LINE
8
hole
62
5
39
2
10
31.667502
20
106.667501
11
32.285537
21
106.569614
0
LINE
8
hole
62
5
39
2
10
32.285537
20
106.569614
11
32.843073
21
106.285535
0
LINE
8
hole
62
5
39
2
10
32.843073
20
106.285535
11
33.285537
21
105.843072
0
LINE
8
hole
62
5
39
2
10
33.285537
20
105.843072
11
33.569614
21
105.285533
0
LINE
8
hole
62
5
39
2
10
33.569614
20
105.285533
11
33.667502
21
104.667502
0
LINE
8
hole
62
5
39
2
10
33.667502
20
104.667502
11
33.569614
21
104.049468
0
LINE
8
hole
62
5
39
2
10
33.569614
20
104.049468
11
33.285537
21
103.491929
0
LINE
8
hole
62
5
39
2
10
33.285537
20
103.491929
11
32.843073
21
103.049468
0
LINE
8
hole
62
5
39
2
10
32.843073
20
103.049468
11
32.285537
21
102.765386
0
LINE
8
hole
62
5
39
2
10
32.285537
20
102.765386
11
31.667502
21
102.667503
0
LINE
8
hole
62
5
39
2
10
31.667502
20
102.667503
11
31.049468
21
102.765386
0
LINE
8
hole
62
5
39
2
10
31.049468
20
102.765386
11
30.491931
21
103.049468
0
LINE
8
hole
62
5
39
2
10
28.540529
20
27.810460
11
27.622418
21
28.728572
0
LINE
8
hole
62
5
39
2
10
27.622418
20
28.728572
11
26.912219
21
30.122412
0
LINE
8
hole
62
5
39
2
10
26.912219
20
30.122412
11
26.667502
21
31.667497
0
LINE
8
hole
62
5
39
2
10
26.667502
20
31.667497
11
26.912219
21
33.212585
0
LINE
8
hole
62
5
39
2
10
26.912219
20
33.212585
11
27.622418
21
34.606424
0
LINE
8
hole
62
5
39
2
10
27.622418
20
34.606424
11
28.728575
21
35.712584
0
LINE
8
hole
62
5
39
2
10
28.728575
20
35.712584
11
30.122417
21
36.422782
0
LINE
8
hole
62
5
39
2
10
30.122417
20
36.422782
11
31.667502
21
36.667498
0
LINE
8
hole
62
5
39
2
10
31.667502
20
36.667498
11
33.212588
21
36.422782
0
LINE
8
hole
62
5
39
2
10
33.212588
20
36.422782
11
34.606428
21
35.712584
0
LINE
8
hole
62
5
39
2
10
34.606428
20
35.712584
11
35.712588
21
34.606424
0
LINE
8
hole
62
5
39
2
10
35.712588
20
34.606424
11
36.422785
21
33.212585
0
LINE
8
hole
62
5
39
2
10
36.422785
20
33.212585
11
36.667501
21
31.667497
0
LINE
8
hole
62
5
39
2
10
36.667501
20
31.667497
11
36.422785
21
30.122412
0
LINE
8
hole
62
5
39
2
10
36.422785
20
30.122412
11
35.712588
21
28.728572
0
LINE
8
hole
62
5
39
2
10
35.712588
20
28.728572
11
34.606428
21
27.622414
0
LINE
8
hole
62
5
39
2
10
34.606428
20
27.622414
11
33.212588
21
26.912216
0
LINE
8
hole
62
5
39
2
10
33.212588
20
26.912216
11
31.667502
21
26.667500
0
LINE
8
hole
62
5
39
2
10
31.667502
20
26.667500
11
30.122417
21
26.912216
0
LINE
8
hole
62
5
39
2
10
30.122417
20
26.912216
11
28.728576
21
27.622414
0
LINE
8
hole
62
5
39
2
10
28.728576
20
27.622414
11
28.540529
21
27.810460
0
LINE
8
boundary
62
5
39
2
10
16.972870
20
11.442072
11
19.749111
21
9.740792
0
LINE
8
boundary
62
5
39
2
10
19.749111
20
9.740792
11
20.317739
21
9.392337
0
LINE
8
boundary
62
5
39
2
10
20.317739
20
9.392337
11
23.325939
21
8.146300
0
LINE
8
boundary
62
5
39
2
10
23.325939
20
8.146300
11
23.942077
21
7.891087
0
LINE
8
boundary
62
5
39
2
10
23.942077
20
7.891087
11
27.108164
21
7.130979
0
LINE
8
boundary
62
5
39
2
10
27.108164
20
7.130979
11
27.756640
21
6.975294
0
LINE
8
boundary
62
5
39
2
10
27.756640
20
6.975294
11
31.002655
21
6.719825
0
LINE
8
boundary
62
5
39
2
10
31.002655
20
6.719825
11
31.667502
21
6.667500
0
LINE
8
boundary
62
5
39
2
10
31.667502
20
6.667500
11
34.913517
21
6.922969
0
LINE
8
boundary
62
5
39
2
10
34.913517
20
6.922969
11
35.578363
21
6.975294
0
LINE
8
boundary
62
5
39
2
10
35.578363
20
6.975294
11
38.744451
21
7.735402
0
LINE
8
boundary
62
5
39
2
10
38.744451
20
7.735402
11
39.392927
21
7.891087
0
LINE
8
boundary
62
5
39
2
10
39.392927
20
7.891087
11
42.401127
21
9.137124
0
LINE
8
boundary
62
5
39
2
10
42.401127
20
9.137124
11
43.017265
21
9.392337
0
LINE
8
boundary
62
5
39
2
10
43.017265
20
9.392337
11
45.793505
21
11.093617
0
LINE
8
boundary
62
5
39
2
10
45.793505
20
11.093617
11
46.362132
21
11.442072
0
LINE
8
boundary
62
5
39
2
10
46.362132
20
11.442072
11
48.838055
21
13.556712
0
LINE
8
boundary
62
5
39
2
10
48.838055
20
13.556712
11
49.345171
21
13.989830
0
LINE
8
boundary
62
5
39
2
10
49.345171
20
13.989830
11
51.459811
21
16.465753
0
LINE
8
boundary
62
5
39
2
10
51.459811
20
16.465753
11
51.892930
21
16.972870
0
LINE
8
boundary
62
5
39
2
10
51.892930
20
16.972870
11
53.594210
21
19.749109
0
LINE
8
boundary
62
5
39
2
10
53.594210
20
19.749109
11
53.942665
21
20.317736
0
LINE
8
boundary
62
5
39
2
10
53.942665
20
20.317736
11
55.188701
21
23.325938
0
LINE
8
boundary
62
5
39
2
10
55.188701
20
23.325938
11
55.443914
21
23.942076
0
LINE
8
boundary
62
5
39
2
10
55.443914
20
23.942076
11
56.204024
21
27.108160
0
LINE
8
boundary
62
5
39
2
10
56.204024
20
27.108160
11
56.359710
21
27.756635
0
LINE
8
boundary
62
5
39
2
10
56.359710
20
27.756635
11
56.615177
21
31.002651
0
LINE
8
boundary
62
5
39
2
10
56.615177
20
31.002651
11
56.667502
21
31.667497
0
LINE
8
boundary
62
5
39
2
10
56.667502
20
31.667497
11
56.667502
21
35.917498
0
LINE
8
boundary
62
5
39
2
10
56.667502
20
35.917498
11
56.667502
21
102.317497
0
LINE
8
boundary
62
5
39
2
10
56.667502
20
102.317497
11
56.667502
21
111.667499
0
LINE
8
boundary
62
5
39
2
10
56.667502
20
111.667499
11
55.392502
21
111.667498
0
LINE
8
boundary
62
5
39
2
10
55.392502
20
111.667498
11
49.442500
21
111.667499
0
LINE
8
boundary
62
5
39
2
10
49.442500
20
111.667499
11
7.942501
21
111.667499
0
LINE
8
boundary
62
5
39
2
10
7.942501
20
111.667499
11
7.305000
21
111.667498
0
LINE
8
boundary
62
5
39
2
10
7.305000
20
111.667498
11
6.667500
21
111.667498
0
LINE
8
boundary
62
5
39
2
10
6.667500
20
111.667498
11
6.667500
21
102.317497
0
LINE
8
boundary
62
5
39
2
10
6.667500
20
102.317497
11
6.667500
21
35.917498
0
LINE
8
boundary
62
5
39
2
10
6.667500
20
35.917498
11
6.667500
21
31.667497
0
LINE
8
boundary
62
5
39
2
10
6.667500
20
31.667497
11
6.922968
21
28.421482
0
LINE
8
boundary
62
5
39
2
10
6.922968
20
28.421482
11
6.975292
21
27.756635
0
LINE
8
boundary
62
5
39
2
10
6.975292
20
27.756635
11
7.735403
21
24.590551
0
LINE
8
boundary
62
5
39
2
10
7.735403
20
24.590551
11
7.891089
21
23.942076
0
LINE
8
boundary
62
5
39
2
10
7.891089
20
23.942076
11
9.137126
21
20.933874
0
LINE
8
boundary
62
5
39
2
10
9.137126
20
20.933874
11
9.392338
21
20.317736
0
LINE
8
boundary
62
5
39
2
10
9.392338
20
20.317736
11
11.093621
21
17.541497
0
LINE
8
boundary
62
5
39
2
10
11.093621
20
17.541497
11
11.442077
21
16.972870
0
LINE
8
boundary
62
5
39
2
10
11.442077
20
16.972870
11
13.556714
21
14.496947
0
LINE
8
boundary
62
5
39
2
10
13.556714
20
14.496947
11
13.989832
21
13.989831
0
LINE
8
boundary
62
5
39
2
10
13.989832
20
13.989831
11
16.465753
21
11.875191
0
LINE
8
boundary
62
5
39
2
10
16.465753
20
11.875191
11
16.972870
21
11.442072
0
LINE
8
annotation
62
1
39
211
10
51.667502
20
59.167499
11
51.667502
21
60.596249
0
LINE
8
annotation
62
1
39
211
10
11.667500
20
59.167499
11
13.096250
21
59.167499
0
LINE
8
annotation
62
1
39
211
10
51.892751
20
42.798988
11
51.892751
21
91.943901
0
LINE
8
annotation
62
1
39
211
10
51.892751
20
91.943901
11
40.967208
21
81.015276
0
LINE
8
hole
62
5
39
2
10
31.381751
20
125.056748
11
31.953251
21
125.056748
0
LINE
8
hole
62
5
39
2
10
31.953251
20
125.056748
11
31.953251
21
125.628248
0
LINE
8
hole
62
5
39
2
10
31.953251
20
125.628248
11
31.381751
21
125.628248
0
LINE
8
hole
62
5
39
2
10
31.381751
20
125.628248
11
31.381751
21
125.056748
0
LINE
8
hole
62
5
39
2
10
11.381750
20
167.056748
11
11.953250
21
167.056748
0
LINE
8
hole
62
5
39
2
10
11.953250
20
167.056748
11
11.953250
21
167.628248
0
LINE
8
hole
62
5
39
2
10
11.953250
20
167.628248
11
11.381750
21
167.628248
0
LINE
8
hole
62
5
39
2
10
11.381750
20
167.628248
11
11.381750
21
167.056748
0
LINE
8
hole
62
5
39
2
10
51.381752
20
167.056748
11
51.953252
21
167.056748
0
LINE
8
hole
62
5
39
2
10
51.953252
20
167.056748
11
51.953252
21
167.628248
0
LINE
8
hole
62
5
39
2
10
51.953252
20
167.628248
11
51.381752
21
167.628248
0
LINE
8
hole
62
5
39
2
10
51.381752
20
167.628248
11
51.381752
21
167.056748
0
LINE
8
hole
62
5
39
2
10
31.381751
20
209.056747
11
31.953251
21
209.056747
0
LINE
8
hole
62
5
39
2
10
31.953251
20
209.056747
11
31.953251
21
209.628247
0
LINE
8
hole
62
5
39
2
10
31.953251
20
209.628247
11
31.381751
21
209.628247
0
LINE
8
hole
62
5
39
2
10
31.381751
20
209.628247
11
31.381751
21
209.056747
0
LINE
8
hole
62
5
39
2
10
30.491931
20
211.224467
11
30.049467
21
211.666927
0
LINE
8
hole
62
5
39
2
10
30.049467
20
211.666927
11
29.765389
21
212.224466
0
LINE
8
hole
62
5
39
2
10
29.765389
20
212.224466
11
29.667502
21
212.842500
0
LINE
8
hole
62
5
39
2
10
29.667502
20
212.842500
11
29.765389
21
213.460531
0
LINE
8
hole
62
5
39
2
10
29.765389
20
213.460531
11
30.049467
21
214.018071
0
LINE
8
hole
62
5
39
2
10
30.049467
20
214.018071
11
30.491931
21
214.460534
0
LINE
8
hole
62
5
39
2
10
30.491931
20
214.460534
11
31.049468
21
214.744613
0
LINE
8
hole
62
5
39
2
10
31.049468
20
214.744613
11
31.667502
21
214.842499
0
LINE
8
hole
62
5
39
2
10
31.667502
20
214.842499
11
32.285537
21
214.744613
0
LINE
8
hole
62
5
39
2
10
32.285537
20
214.744613
11
32.843073
21
214.460534
0
LINE
8
hole
62
5
39
2
10
32.843073
20
214.460534
11
33.285537
21
214.018071
0
LINE
8
hole
62
5
39
2
10
33.285537
20
214.018071
11
33.569614
21
213.460531
0
LINE
8
hole
62
5
39
2
10
33.569614
20
213.460531
11
33.667502
21
212.842500
0
LINE
8
hole
62
5
39
2
10
33.667502
20
212.842500
11
33.569614
21
212.224466
0
LINE
8
hole
62
5
39
2
10
33.569614
20
212.224466
11
33.285537
21
211.666927
0
LINE
8
hole
62
5
39
2
10
33.285537
20
211.666927
11
32.843073
21
211.224467
0
LINE
8
hole
62
5
39
2
10
32.843073
20
211.224467
11
32.285537
21
210.940385
0
LINE
8
hole
62
5
39
2
10
32.285537
20
210.940385
11
31.667502
21
210.842501
0
LINE
8
hole
62
5
39
2
10
31.667502
20
210.842501
11
31.049468
21
210.940385
0
LINE
8
hole
62
5
39
2
10
31.049468
20
210.940385
11
30.491931
21
211.224467
0
LINE
8
hole
62
5
39
2
10
28.230804
20
136.295183
11
27.622418
21
136.903570
0
LINE
8
hole
62
5
39
2
10
27.622418
20
136.903570
11
27.302828
21
137.530799
0
LINE
8
hole
62
5
39
2
10
27.302828
20
137.530799
11
26.912219
21
138.297411
0
LINE
8
hole
62
5
39
2
10
26.912219
20
138.297411
11
26.802097
21
138.992699
0
LINE
8
hole
62
5
39
2
10
26.802097
20
138.992699
11
26.667502
21
139.842496
0
LINE
8
hole
62
5
39
2
10
26.667502
20
139.842496
11
26.777625
21
140.537785
0
LINE
8
hole
62
5
39
2
10
26.777625
20
140.537785
11
26.912219
21
141.387584
0
LINE
8
hole
62
5
39
2
10
26.912219
20
141.387584
11
27.231809
21
142.014811
0
LINE
8
hole
62
5
39
2
10
27.231809
20
142.014811
11
27.622418
21
142.781423
0
LINE
8
hole
62
5
39
2
10
27.622418
20
142.781423
11
28.120189
21
143.279195
0
LINE
8
hole
62
5
39
2
10
28.120189
20
143.279195
11
28.728575
21
143.887583
0
LINE
8
hole
62
5
39
2
10
28.728575
20
143.887583
11
29.355804
21
144.207172
0
LINE
8
hole
62
5
39
2
10
29.355804
20
144.207172
11
30.122417
21
144.597780
0
LINE
8
hole
62
5
39
2
10
30.122417
20
144.597780
11
30.817705
21
144.707903
0
LINE
8
hole
62
5
39
2
10
30.817705
20
144.707903
11
31.667502
21
144.842497
0
LINE
8
hole
62
5
39
2
10
31.667502
20
144.842497
11
32.362790
21
144.732374
0
LINE
8
hole
62
5
39
2
10
32.362790
20
144.732374
11
33.212588
21
144.597780
0
LINE
8
hole
62
5
39
2
10
33.212588
20
144.597780
11
33.839816
21
144.278191
0
LINE
8
hole
62
5
39
2
10
33.839816
20
144.278191
11
34.606428
21
143.887583
0
LINE
8
hole
62
5
39
2
10
34.606428
20
143.887583
11
35.104200
21
143.389811
0
LINE
8
hole
62
5
39
2
10
35.104200
20
143.389811
11
35.712588
21
142.781423
0
LINE
8
hole
62
5
39
2
10
35.712588
20
142.781423
11
36.032177
21
142.154195
0
LINE
8
hole
62
5
39
2
10
36.032177
20
142.154195
11
36.422785
21
141.387584
0
LINE
8
hole
62
5
39
2
10
36.422785
20
141.387584
11
36.532907
21
140.692294
0
LINE
8
hole
62
5
39
2
10
36.532907
20
140.692294
11
36.667501
21
139.842496
0
LINE
8
hole
62
5
39
2
10
36.667501
20
139.842496
11
36.557379
21
139.147208
0
LINE
8
hole
62
5
39
2
10
36.557379
20
139.147208
11
36.422785
21
138.297411
0
LINE
8
hole
62
5
39
2
10
36.422785
20
138.297411
11
36.103196
21
137.670183
0
LINE
8
hole
62
5
39
2
10
36.103196
20
137.670183
11
35.712588
21
136.903570
0
LINE
8
hole
62
5
39
2
10
35.712588
20
136.903570
11
35.214816
21
136.405799
0
LINE
8
hole
62
5
39
2
10
35.214816
20
136.405799
11
34.606428
21
135.797412
0
LINE
8
hole
62
5
39
2
10
34.606428
20
135.797412
11
33.979200
21
135.477823
0
LINE
8
hole
62
5
39
2
10
33.979200
20
135.477823
11
33.212588
21
135.087214
0
LINE
8
hole
62
5
39
2
10
33.212588
20
135.087214
11
32.517299
21
134.977092
0
LINE
8
hole
62
5
39
2
10
32.517299
20
134.977092
11
31.667502
21
134.842498
0
LINE
8
hole
62
5
39
2
10
31.667502
20
134.842498
11
30.972214
21
134.952621
0
LINE
8
hole
62
5
39
2
10
30.972214
20
134.952621
11
30.122417
21
135.087214
0
LINE
8
hole
62
5
39
2
10
30.122417
20
135.087214
11
29.495188
21
135.406803
0
LINE
8
hole
62
5
39
2
10
29.495188
20
135.406803
11
28.728576
21
135.797412
0
LINE
8
hole
62
5
39
2
10
28.728576
20
135.797412
11
28.230804
21
136.295183
0
LINE
8
boundary
62
5
39
2
10
16.972870
20
119.617071
11
18.812548
21
118.489716
0
LINE
8
boundary
62
5
39
2
10
18.812548
20
118.489716
11
20.317739
21
117.567335
0
LINE
8
boundary
62
5
39
2
10
20.317739
20
117.567335
11
22.311125
21
116.741648
0
LINE
8
boundary
62
5
39
2
10
22.311125
20
116.741648
11
23.942077
21
116.066086
0
LINE
8
boundary
62
5
39
2
10
23.942077
20
116.066086
11
26.040087
21
115.562399
0
LINE
8
boundary
62
5
39
2
10
26.040087
20
115.562399
11
27.756640
21
115.150292
0
LINE
8
boundary
62
5
39
2
10
27.756640
20
115.150292
11
29.907614
21
114.981006
0
LINE
8
boundary
62
5
39
2
10
29.907614
20
114.981006
11
31.667502
21
114.842499
0
LINE
8
boundary
62
5
39
2
10
31.667502
20
114.842499
11
33.818476
21
115.011785
0
LINE
8
boundary
62
5
39
2
10
33.818476
20
115.011785
11
35.578363
21
115.150292
0
LINE
8
boundary
62
5
39
2
10
35.578363
20
115.150292
11
37.676373
21
115.653979
0
LINE
8
boundary
62
5
39
2
10
37.676373
20
115.653979
11
39.392927
21
116.066086
0
LINE
8
boundary
62
5
39
2
10
39.392927
20
116.066086
11
41.386313
21
116.891773
0
LINE
8
boundary
62
5
39
2
10
41.386313
20
116.891773
11
43.017265
21
117.567335
0
LINE
8
boundary
62
5
39
2
10
43.017265
20
117.567335
11
44.856942
21
118.694690
0
LINE
8
boundary
62
5
39
2
10
44.856942
20
118.694690
11
46.362132
21
119.617071
0
LINE
8
boundary
62
5
39
2
10
46.362132
20
119.617071
11
48.002804
21
121.018338
0
LINE
8
boundary
62
5
39
2
10
48.002804
20
121.018338
11
49.345171
21
122.164829
0
LINE
8
boundary
62
5
39
2
10
49.345171
20
122.164829
11
50.746438
21
123.805501
0
LINE
8
boundary
62
5
39
2
10
50.746438
20
123.805501
11
51.892930
21
125.147868
0
LINE
8
boundary
62
5
39
2
10
51.892930
20
125.147868
11
53.020284
21
126.987545
0
LINE
8
boundary
62
5
39
2
10
53.020284
20
126.987545
11
53.942665
21
128.492734
0
LINE
8
boundary
62
5
39
2
10
53.942665
20
128.492734
11
54.768352
21
130.486121
0
LINE
8
boundary
62
5
39
2
10
54.768352
20
130.486121
11
55.443914
21
132.117074
0
LINE
8
boundary
62
5
39
2
10
55.443914
20
132.117074
11
55.947602
21
134.215082
0
LINE
8
boundary
62
5
39
2
10
55.947602
20
134.215082
11
56.359710
21
135.931634
0
LINE
8
boundary
62
5
39
2
10
56.359710
20
135.931634
11
56.528996
21
138.082608
0
LINE
8
boundary
62
5
39
2
10
56.528996
20
138.082608
11
56.667502
21
139.842496
0
LINE
8
boundary
62
5
39
2
10
56.667502
20
139.842496
11
56.667502
21
151.092497
0
LINE
8
boundary
62
5
39
2
10
56.667502
20
151.092497
11
56.667502
21
195.092496
0
LINE
8
boundary
62
5
39
2
10
56.667502
20
195.092496
11
56.667502
21
219.842497
0
LINE
8
boundary
62
5
39
2
10
56.667502
20
219.842497
11
53.292502
21
219.842497
0
LINE
8
boundary
62
5
39
2
10
53.292502
20
219.842497
11
37.542501
21
219.842497
0
LINE
8
boundary
62
5
39
2
10
37.542501
20
219.842497
11
10.042501
21
219.842497
0
LINE
8
boundary
62
5
39
2
10
10.042501
20
219.842497
11
8.355000
21
219.842497
0
LINE
8
boundary
62
5
39
2
10
8.355000
20
219.842497
11
6.667500
21
219.842497
0
LINE
8
boundary
62
5
39
2
10
6.667500
20
219.842497
11
6.667500
21
195.092496
0
LINE
8
boundary
62
5
39
2
10
6.667500
20
195.092496
11
6.667500
21
151.092497
0
LINE
8
boundary
62
5
39
2
10
6.667500
20
151.092497
11
6.667500
21
139.842496
0
LINE
8
boundary
62
5
39
2
10
6.667500
20
139.842496
11
6.836786
21
137.691522
0
LINE
8
boundary
62
5
39
2
10
6.836786
20
137.691522
11
6.975292
21
135.931634
0
LINE
8
boundary
62
5
39
2
10
6.975292
20
135.931634
11
7.478980
21
133.833626
0
LINE
8
boundary
62
5
39
2
10
7.478980
20
133.833626
11
7.891089
21
132.117074
0
LINE
8
boundary
62
5
39
2
10
7.891089
20
132.117074
11
8.716776
21
130.123687
0
LINE
8
boundary
62
5
39
2
10
8.716776
20
130.123687
11
9.392338
21
128.492734
0
LINE
8
boundary
62
5
39
2
10
9.392338
20
128.492734
11
10.519694
21
126.653058
0
LINE
8
boundary
62
5
39
2
10
10.519694
20
126.653058
11
11.442077
21
125.147868
0
LINE
8
boundary
62
5
39
2
10
11.442077
20
125.147868
11
12.843342
21
123.507197
0
LINE
8
boundary
62
5
39
2
10
12.843342
20
123.507197
11
13.989832
21
122.164829
0
LINE
8
boundary
62
5
39
2
10
13.989832
20
122.164829
11
15.630503
21
120.763562
0
LINE
8
boundary
62
5
39
2
10
15.630503
20
120.763562
11
16.972870
21
119.617071
0
LINE
8
annotation
62
1
39
211
10
51.667502
20
167.342498
11
51.667502
21
168.771248
0
LINE
8
annotation
62
1
39
211
10
11.667500
20
167.342498
11
13.096250
21
167.342498
0
LINE
8
annotation
62
1
39
211
10
31.667501
20
209.342497
11
31.667501
21
210.771247
0
LINE
8
annotation
62
1
39
211
10
31.667501
20
209.342497
11
31.667501
21
210.771247
0
LINE
8
annotation
62
1
39
211
10
31.667501
20
210.771247
11
31.667501
21
209.342497
0
LINE
8
annotation
62
1
39
211
10
31.667501
20
209.342497
11
33.096251
21
209.342497
0
LINE
8
annotation
62
1
39
211
10
31.667501
20
125.342498
11
31.667501
21
123.913748
0
LINE
8
annotation
62
1
39
211
10
37.577748
20
158.534466
11
22.467141
21
158.534466
0
LINE
8
annotation
62
1
39
211
10
22.467141
20
158.534466
11
36.429837
21
181.012613
0
LINE
8
annotation
62
1
39
211
10
36.429837
20
181.012613
11
36.429837
21
181.012613
0
LINE
8
annotation
62
1
39
211
10
36.429837
20
181.012613
11
36.446529
21
181.033268
0
LINE
8
annotation
62
1
39
211
10
36.446529
20
181.033268
11
36.462535
21
181.054098
0
LINE
8
annotation
62
1
39
211
10
36.462535
20
181.054098
11
36.477963
21
181.075279
0
LINE
8
annotation
62
1
39
211
10
36.477963
20
181.075279
11
36.492916
21
181.096988
0
LINE
8
annotation
62
1
39
211
10
36.492916
20
181.096988
11
36.507500
21
181.119398
0
LINE
8
annotation
62
1
39
211
10
36.507500
20
181.119398
11
36.521821
21
181.142687
0
LINE
8
annotation
62
1
39
211
10
36.521821
20
181.142687
11
36.535984
21
181.167030
0
LINE
8
annotation
62
1
39
211
10
36.535984
20
181.167030
11
36.550095
21
181.192602
0
LINE
8
annotation
62
1
39
211
10
36.550095
20
181.192602
11
36.564258
21
181.219578
0
LINE
8
annotation
62
1
39
211
10
36.564258
20
181.219578
11
36.564258
21
181.219578
0
LINE
8
annotation
62
1
39
211
10
36.564258
20
181.219578
11
37.140774
21
182.457408
0
LINE
8
annotation
62
1
39
211
10
37.140774
20
182.457408
11
37.477565
21
183.740527
0
LINE
8
annotation
62
1
39
211
10
37.477565
20
183.740527
11
37.582884
21
185.039943
0
LINE
8
annotation
62
1
39
211
10
37.582884
20
185.039943
11
37.464986
21
186.326662
0
LINE
8
annotation
62
1
39
211
10
37.464986
20
186.326662
11
37.132122
21
187.571691
0
LINE
8
annotation
62
1
39
211
10
37.132122
20
187.571691
11
36.592548
21
188.746037
0
LINE
8
annotation
62
1
39
211
10
36.592548
20
188.746037
11
35.854517
21
189.820707
0
LINE
8
annotation
62
1
39
211
10
35.854517
20
189.820707
11
34.926283
21
190.766708
0
LINE
8
annotation
62
1
39
211
10
34.926283
20
190.766708
11
33.816099
21
191.555045
0
LINE
8
annotation
62
1
39
211
10
33.816099
20
191.555045
11
33.816099
21
191.555045
0
LINE
8
annotation
62
1
39
211
10
33.816099
20
191.555045
11
32.574827
21
192.123370
0
LINE
8
annotation
62
1
39
211
10
32.574827
20
192.123370
11
31.289741
21
192.454971
0
LINE
8
annotation
62
1
39
211
10
31.289741
20
192.454971
11
29.989570
21
192.557314
0
LINE
8
annotation
62
1
39
211
10
29.989570
20
192.557314
11
28.703044
21
192.437861
0
LINE
8
annotation
62
1
39
211
10
28.703044
20
192.437861
11
27.458893
21
192.104076
0
LINE
8
annotation
62
1
39
211
10
27.458893
20
192.104076
11
26.285846
21
191.563422
0
LINE
8
annotation
62
1
39
211
10
26.285846
20
191.563422
11
25.212634
21
190.823363
0
LINE
8
annotation
62
1
39
211
10
25.212634
20
190.823363
11
24.267986
21
189.891361
0
LINE
8
annotation
62
1
39
211
10
24.267986
20
189.891361
11
23.480632
21
188.774881
0
LINE
8
annotation
62
1
39
211
10
23.480632
20
188.774881
11
22.488478
21
186.871653
0
LINE
8
hole
62
5
39
2
10
31.381751
20
233.231747
11
31.953251
21
233.231747
0
LINE
8
hole
62
5
39
2
10
31.953251
20
233.231747
11
31.953251
21
233.803247
0
LINE
8
hole
62
5
39
2
10
31.953251
20
233.803247
11
31.381751
21
233.803247
0
LINE
8
hole
62
5
39
2
10
31.381751
20
233.803247
11
31.381751
21
233.231747
0
LINE
8
hole
62
5
39
2
10
51.619877
20
275.946121
11
52.191377
21
275.946121
0
LINE
8
hole
62
5
39
2
10
52.191377
20
275.946121
11
52.191377
21
276.517621
0
LINE
8
hole
62
5
39
2
10
52.191377
20
276.517621
11
51.619877
21
276.517621
0
LINE
8
hole
62
5
39
2
10
51.619877
20
276.517621
11
51.619877
21
275.946121
0
LINE
8
hole
62
5
39
2
10
31.381751
20
317.231746
11
31.953251
21
317.231746
0
LINE
8
hole
62
5
39
2
10
31.953251
20
317.231746
11
31.953251
21
317.803246
0
LINE
8
hole
62
5
39
2
10
31.953251
20
317.803246
11
31.381751
21
317.803246
0
LINE
8
hole
62
5
39
2
10
31.381751
20
317.803246
11
31.381751
21
317.231746
0
LINE
8
hole
62
5
39
2
10
11.619875
20
275.946121
11
12.191375
21
275.946121
0
LINE
8
hole
62
5
39
2
10
12.191375
20
275.946121
11
12.191375
21
276.517621
0
LINE
8
hole
62
5
39
2
10
12.191375
20
276.517621
11
11.619875
21
276.517621
0
LINE
8
hole
62
5
39
2
10
11.619875
20
276.517621
11
11.619875
21
275.946121
0
LINE
8
hole
62
5
39
2
10
30.491931
20
319.399465
11
30.049467
21
319.841926
0
LINE
8
hole
62
5
39
2
10
30.049467
20
319.841926
11
29.765389
21
320.399465
0
LINE
8
hole
62
5
39
2
10
29.765389
20
320.399465
11
29.667502
21
321.017499
0
LINE
8
hole
62
5
39
2
10
29.667502
20
321.017499
11
29.765389
21
321.635530
0
LINE
8
hole
62
5
39
2
10
29.765389
20
321.635530
11
30.049467
21
322.193069
0
LINE
8
hole
62
5
39
2
10
30.049467
20
322.193069
11
30.491931
21
322.635533
0
LINE
8
hole
62
5
39
2
10
30.491931
20
322.635533
11
31.049468
21
322.919611
0
LINE
8
hole
62
5
39
2
10
31.049468
20
322.919611
11
31.667502
21
323.017498
0
LINE
8
hole
62
5
39
2
10
31.667502
20
323.017498
11
32.285537
21
322.919612
0
LINE
8
hole
62
5
39
2
10
32.285537
20
322.919612
11
32.843073
21
322.635532
0
LINE
8
hole
62
5
39
2
10
32.843073
20
322.635532
11
33.285537
21
322.193069
0
LINE
8
hole
62
5
39
2
10
33.285537
20
322.193069
11
33.569614
21
321.635530
0
LINE
8
hole
62
5
39
2
10
33.569614
20
321.635530
11
33.667502
21
321.017499
0
LINE
8
hole
62
5
39
2
10
33.667502
20
321.017499
11
33.569614
21
320.399465
0
LINE
8
hole
62
5
39
2
10
33.569614
20
320.399465
11
33.285537
21
319.841926
0
LINE
8
hole
62
5
39
2
10
33.285537
20
319.841926
11
32.843073
21
319.399465
0
LINE
8
hole
62
5
39
2
10
32.843073
20
319.399465
11
32.285537
21
319.115383
0
LINE
8
hole
62
5
39
2
10
32.285537
20
319.115383
11
31.667502
21
319.017500
0
LINE
8
hole
62
5
39
2
10
31.667502
20
319.017500
11
31.049468
21
319.115383
0
LINE
8
hole
62
5
39
2
10
31.049468
20
319.115383
11
30.491931
21
319.399465
0
LINE
8
hole
62
5
39
2
10
27.921080
20
244.779906
11
27.103973
21
246.096072
0
LINE
8
hole
62
5
39
2
10
27.103973
20
246.096072
11
26.733576
21
247.600321
0
LINE
8
hole
62
5
39
2
10
26.733576
20
247.600321
11
26.846146
21
249.145409
0
LINE
8
hole
62
5
39
2
10
26.846146
20
249.145409
11
27.430664
21
250.580085
0
LINE
8
hole
62
5
39
2
10
27.430664
20
250.580085
11
28.429913
21
251.763918
0
LINE
8
hole
62
5
39
2
10
28.429913
20
251.763918
11
29.746080
21
252.581026
0
LINE
8
hole
62
5
39
2
10
29.746080
20
252.581026
11
31.250329
21
252.951422
0
LINE
8
hole
62
5
39
2
10
31.250329
20
252.951422
11
32.795415
21
252.838852
0
LINE
8
hole
62
5
39
2
10
32.795415
20
252.838852
11
34.230091
21
252.254334
0
LINE
8
hole
62
5
39
2
10
34.230091
20
252.254334
11
35.413925
21
251.255084
0
LINE
8
hole
62
5
39
2
10
35.413925
20
251.255084
11
36.231032
21
249.938919
0
LINE
8
hole
62
5
39
2
10
36.231032
20
249.938919
11
36.601428
21
248.434668
0
LINE
8
hole
62
5
39
2
10
36.601428
20
248.434668
11
36.488859
21
246.889582
0
LINE
8
hole
62
5
39
2
10
36.488859
20
246.889582
11
35.904341
21
245.454906
0
LINE
8
hole
62
5
39
2
10
35.904341
20
245.454906
11
34.905091
21
244.271073
0
LINE
8
hole
62
5
39
2
10
34.905091
20
244.271073
11
33.588925
21
243.453966
0
LINE
8
hole
62
5
39
2
10
33.588925
20
243.453966
11
32.084675
21
243.083570
0
LINE
8
hole
62
5
39
2
10
32.084675
20
243.083570
11
30.539590
21
243.196140
0
LINE
8
hole
62
5
39
2
10
30.539590
20
243.196140
11
29.104913
21
243.780657
0
LINE
8
hole
62
5
39
2
10
29.104913
20
243.780657
11
27.921080
21
244.779906
0
LINE
8
boundary
62
5
39
2
10
16.972870
20
227.792069
11
17.875984
21
227.238641
0
LINE
8
boundary
62
5
39
2
10
17.875984
20
227.238641
11
20.317739
21
225.742334
0
LINE
8
boundary
62
5
39
2
10
20.317739
20
225.742334
11
21.296310
21
225.336997
0
LINE
8
boundary
62
5
39
2
10
21.296310
20
225.336997
11
23.942077
21
224.241084
0
LINE
8
boundary
62
5
39
2
10
23.942077
20
224.241084
11
24.972009
21
223.993820
0
LINE
8
boundary
62
5
39
2
10
24.972009
20
223.993820
11
27.756640
21
223.325291
0
LINE
8
boundary
62
5
39
2
10
27.756640
20
223.325291
11
28.812573
21
223.242187
0
LINE
8
boundary
62
5
39
2
10
28.812573
20
223.242187
11
31.667502
21
223.017497
0
LINE
8
boundary
62
5
39
2
10
31.667502
20
223.017497
11
32.723434
21
223.100601
0
LINE
8
boundary
62
5
39
2
10
32.723434
20
223.100601
11
35.578363
21
223.325291
0
LINE
8
boundary
62
5
39
2
10
35.578363
20
223.325291
11
36.608296
21
223.572555
0
LINE
8
boundary
62
5
39
2
10
36.608296
20
223.572555
11
39.392927
21
224.241084
0
LINE
8
boundary
62
5
39
2
10
39.392927
20
224.241084
11
40.371498
21
224.646422
0
LINE
8
boundary
62
5
39
2
10
40.371498
20
224.646422
11
43.017265
21
225.742334
0
LINE
8
boundary
62
5
39
2
10
43.017265
20
225.742334
11
43.920379
21
226.295762
0
LINE
8
boundary
62
5
39
2
10
43.920379
20
226.295762
11
46.362132
21
227.792070
0
LINE
8
boundary
62
5
39
2
10
46.362132
20
227.792070
11
47.167553
21
228.479964
0
LINE
8
boundary
62
5
39
2
10
47.167553
20
228.479964
11
49.345171
21
230.339828
0
LINE
8
boundary
62
5
39
2
10
49.345171
20
230.339828
11
50.033066
21
231.145248
0
LINE
8
boundary
62
5
39
2
10
50.033066
20
231.145248
11
51.892930
21
233.322867
0
LINE
8
boundary
62
5
39
2
10
51.892930
20
233.322867
11
52.446358
21
234.225981
0
LINE
8
boundary
62
5
39
2
10
52.446358
20
234.225981
11
53.942665
21
236.667733
0
LINE
8
boundary
62
5
39
2
10
53.942665
20
236.667733
11
54.348002
21
237.646305
0
LINE
8
boundary
62
5
39
2
10
54.348002
20
237.646305
11
55.443914
21
240.292073
0
LINE
8
boundary
62
5
39
2
10
55.443914
20
240.292073
11
55.691179
21
241.322004
0
LINE
8
boundary
62
5
39
2
10
55.691179
20
241.322004
11
56.359710
21
244.106632
0
LINE
8
boundary
62
5
39
2
10
56.359710
20
244.106632
11
56.442814
21
245.162565
0
LINE
8
boundary
62
5
39
2
10
56.442814
20
245.162565
11
56.667502
21
248.017494
0
LINE
8
boundary
62
5
39
2
10
56.667502
20
248.017494
11
56.667502
21
266.267496
0
LINE
8
boundary
62
5
39
2
10
56.667502
20
266.267496
11
56.667502
21
287.867496
0
LINE
8
boundary
62
5
39
2
10
56.667502
20
287.867496
11
56.667502
21
328.017496
0
LINE
8
boundary
62
5
39
2
10
56.667502
20
328.017496
11
51.192502
21
328.017496
0
LINE
8
boundary
62
5
39
2
10
51.192502
20
328.017496
11
25.642501
21
328.017496
0
LINE
8
boundary
62
5
39
2
10
25.642501
20
328.017496
11
12.142501
21
328.017496
0
LINE
8
boundary
62
5
39
2
10
12.142501
20
328.017496
11
9.405000
21
328.017496
0
LINE
8
boundary
62
5
39
2
10
9.405000
20
328.017496
11
6.667500
21
328.017495
0
LINE
8
boundary
62
5
39
2
10
6.667500
20
328.017495
11
6.667500
21
287.867496
0
LINE
8
boundary
62
5
39
2
10
6.667500
20
287.867496
11
6.667500
21
266.267496
0
LINE
8
boundary
62
5
39
2
10
6.667500
20
266.267496
11
6.667500
21
248.017494
0
LINE
8
boundary
62
5
39
2
10
6.667500
20
248.017494
11
6.750604
21
246.961562
0
LINE
8
boundary
62
5
39
2
10
6.750604
20
246.961562
11
6.975292
21
244.106632
0
LINE
8
boundary
62
5
39
2
10
6.975292
20
244.106632
11
7.222557
21
243.076701
0
LINE
8
boundary
62
5
39
2
10
7.222557
20
243.076701
11
7.891089
21
240.292073
0
LINE
8
boundary
62
5
39
2
10
7.891089
20
240.292073
11
8.296426
21
239.313501
0
LINE
8
boundary
62
5
39
2
10
8.296426
20
239.313501
11
9.392338
21
236.667733
0
LINE
8
boundary
62
5
39
2
10
9.392338
20
236.667733
11
9.945768
21
235.764619
0
LINE
8
boundary
62
5
39
2
10
9.945768
20
235.764619
11
11.442077
21
233.322867
0
LINE
8
boundary
62
5
39
2
10
11.442077
20
233.322867
11
12.129971
21
232.517446
0
LINE
8
boundary
62
5
39
2
10
12.129971
20
232.517446
11
13.989832
21
230.339828
0
LINE
8
boundary
62
5
39
2
10
13.989832
20
230.339828
11
14.795252
21
229.651933
0
LINE
8
boundary
62
5
39
2
10
14.795252
20
229.651933
11
16.972870
21
227.792069
0
LINE
8
annotation
62
1
39
211
10
9.467500
20
273.017446
11
53.867502
21
273.017502
0
LINE
8
annotation
62
1
39
211
10
49.167510
20
325.217496
11
49.167463
21
314.157534
0
LINE
8
annotation
62
1
39
211
10
49.167463
20
314.157534
11
49.167527
21
314.017467
0
LINE
8
annotation
62
1
39
211
10
49.167527
20
314.017467
11
14.517457
21
314.017496
0
LINE
8
annotation
62
1
39
211
10
14.517457
20
314.017496
11
14.167518
21
314.017441
0
LINE
8
annotation
62
1
39
211
10
14.167518
20
314.017441
11
14.167504
21
325.217496
0
LINE
8
annotation
62
1
39
211
10
31.667501
20
317.517496
11
31.667501
21
318.946246
0
LINE
8
annotation
62
1
39
211
10
31.667501
20
317.517496
11
31.667501
21
318.946246
0
LINE
8
annotation
62
1
39
211
10
31.667501
20
318.946246
11
31.667501
21
317.517496
0
LINE
8
annotation
62
1
39
211
10
31.667501
20
317.517496
11
33.096251
21
317.517496
0
LINE
8
annotation
62
1
39
211
10
31.667501
20
233.517497
11
31.667501
21
232.088747
0
LINE
8
annotation
62
1
39
211
10
51.905627
20
276.231871
11
51.905627
21
277.660621
0
LINE
8
annotation
62
1
39
211
10
51.905627
20
276.231871
11
51.905627
21
277.660621
0
LINE
8
annotation
62
1
39
211
10
51.905627
20
277.660621
11
51.905627
21
276.231871
0
LINE
8
annotation
62
1
39
211
10
51.905627
20
276.231871
11
51.905627
21
274.803121
0
LINE
8
annotation
62
1
39
211
10
11.905625
20
276.231871
11
13.334375
21
276.231871
0
LINE
8
annotation
62
1
39
211
10
11.905625
20
276.231871
11
13.334375
21
276.231871
0
LINE
8
annotation
62
1
39
211
10
13.334375
20
276.231871
11
11.905625
21
276.231871
0
LINE
8
annotation
62
1
39
211
10
11.905625
20
276.231871
11
11.905625
21
274.803121
0
LINE
8
annotation
62
1
39
211
10
22.467141
20
266.710808
11
30.022445
21
266.710808
0
LINE
8
annotation
62
1
39
211
10
30.022445
20
266.710808
11
30.022445
21
266.710808
0
LINE
8
annotation
62
1
39
211
10
30.022445
20
266.710808
11
31.381284
21
266.832705
0
LINE
8
annotation
62
1
39
211
10
31.381284
20
266.832705
11
32.659905
21
267.184019
0
LINE
8
annotation
62
1
39
211
10
32.659905
20
267.184019
11
33.837040
21
267.743185
0
LINE
8
annotation
62
1
39
211
10
33.837040
20
267.743185
11
34.891424
21
268.488638
0
LINE
8
annotation
62
1
39
211
10
34.891424
20
268.488638
11
35.801790
21
269.398814
0
LINE
8
annotation
62
1
39
211
10
35.801790
20
269.398814
11
36.546872
21
270.452147
0
LINE
8
annotation
62
1
39
211
10
36.546872
20
270.452147
11
37.105403
21
271.627073
0
LINE
8
annotation
62
1
39
211
10
37.105403
20
271.627073
11
37.456117
21
272.902027
0
LINE
8
annotation
62
1
39
211
10
37.456117
20
272.902027
11
37.577748
21
274.255443
0
LINE
8
annotation
62
1
39
211
10
37.577748
20
274.255443
11
37.577748
21
278.038428
0
LINE
8
annotation
62
1
39
211
10
37.577748
20
278.038428
11
37.577748
21
278.038428
0
LINE
8
annotation
62
1
39
211
10
37.577748
20
278.038428
11
37.456117
21
279.391282
0
LINE
8
annotation
62
1
39
211
10
37.456117
20
279.391282
11
37.105403
21
280.665937
0
LINE
8
annotation
62
1
39
211
10
37.105403
20
280.665937
11
36.546872
21
281.840775
0
LINE
8
annotation
62
1
39
211
10
36.546872
20
281.840775
11
35.801790
21
282.894179
0
LINE
8
annotation
62
1
39
211
10
35.801790
20
282.894179
11
34.891424
21
283.804530
0
LINE
8
annotation
62
1
39
211
10
34.891424
20
283.804530
11
33.837040
21
284.550212
0
LINE
8
annotation
62
1
39
211
10
33.837040
20
284.550212
11
32.659905
21
285.109606
0
LINE
8
annotation
62
1
39
211
10
32.659905
20
285.109606
11
31.381284
21
285.461096
0
LINE
8
annotation
62
1
39
211
10
31.381284
20
285.461096
11
30.022445
21
285.583063
0
LINE
8
annotation
62
1
39
211
10
30.022445
20
285.583063
11
26.239459
21
285.583063
0
LINE
8
annotation
62
1
39
211
10
26.239459
20
285.583063
11
30.022445
21
285.583063
0
LINE
8
annotation
62
1
39
211
10
30.022445
20
285.583063
11
30.022445
21
285.583063
0
LINE
8
annotation
62
1
39
211
10
30.022445
20
285.583063
11
31.381284
21
285.705060
0
LINE
8
annotation
62
1
39
211
10
31.381284
20
285.705060
11
32.659905
21
286.056754
0
LINE
8
annotation
62
1
39
211
10
32.659905
20
286.056754
11
33.837040
21
286.616705
0
LINE
8
annotation
62
1
39
211
10
33.837040
20
286.616705
11
34.891424
21
287.363469
0
LINE
8
annotation
62
1
39
211
10
34.891424
20
287.363469
11
35.801790
21
288.275606
0
LINE
8
annotation
62
1
39
211
10
35.801790
20
288.275606
11
36.546872
21
289.331673
0
LINE
8
annotation
62
1
39
211
10
36.546872
20
289.331673
11
37.105403
21
290.510228
0
LINE
8
annotation
62
1
39
211
10
37.105403
20
290.510228
11
37.456117
21
291.789829
0
LINE
8
annotation
62
1
39
211
10
37.456117
20
291.789829
11
37.577748
21
293.149035
0
LINE
8
annotation
62
1
39
211
10
37.577748
20
293.149035
11
37.577748
21
293.149035
0
LINE
8
annotation
62
1
39
211
10
37.577748
20
293.149035
11
37.456117
21
294.501889
0
LINE
8
annotation
62
1
39
211
10
37.456117
20
294.501889
11
37.105403
21
295.776544
0
LINE
8
annotation
62
1
39
211
10
37.105403
20
295.776544
11
36.546872
21
296.951381
0
LINE
8
annotation
62
1
39
211
10
36.546872
20
296.951381
11
35.801790
21
298.004785
0
LINE
8
annotation
62
1
39
211
10
35.801790
20
298.004785
11
34.891424
21
298.915136
0
LINE
8
annotation
62
1
39
211
10
34.891424
20
298.915136
11
33.837040
21
299.660818
0
LINE
8
annotation
62
1
39
211
10
33.837040
20
299.660818
11
32.659905
21
300.220213
0
LINE
8
annotation
62
1
39
211
10
32.659905
20
300.220213
11
31.381284
21
300.571702
0
LINE
8
annotation
62
1
39
211
10
31.381284
20
300.571702
11
30.022445
21
300.693670
0
LINE
8
annotation
62
1
39
211
10
30.022445
20
300.693670
11
22.467141
21
300.693670
0
LINE
8
hole
62
5
39
2
10
31.381751
20
425.406744
11
31.953251
21
425.406744
0
LINE
8
hole
62
5
39
2
10
31.953251
20
425.406744
11
31.953251
21
425.978244
0
LINE
8
hole
62
5
39
2
10
31.953251
20
425.978244
11
31.381751
21
425.978244
0
LINE
8
hole
62
5
39
2
10
31.381751
20
425.978244
11
31.381751
21
425.406744
0
LINE
8
hole
62
5
39
2
10
31.381751
20
341.406746
11
31.953251
21
341.406746
0
LINE
8
hole
62
5
39
2
10
31.953251
20
341.406746
11
31.953251
21
341.978246
0
LINE
8
hole
62
5
39
2
10
31.953251
20
341.978246
11
31.381751
21
341.978246
0
LINE
8
hole
62
5
39
2
10
31.381751
20
341.978246
11
31.381751
21
341.406746
0
LINE
8
hole
62
5
39
2
10
51.381752
20
408.406744
11
51.953252
21
408.406744
0
LINE
8
hole
62
5
39
2
10
51.953252
20
408.406744
11
51.953252
21
408.978244
0
LINE
8
hole
62
5
39
2
10
51.953252
20
408.978244
11
51.381752
21
408.978244
0
LINE
8
hole
62
5
39
2
10
51.381752
20
408.978244
11
51.381752
21
408.406744
0
LINE
8
hole
62
5
39
2
10
11.381750
20
408.406744
11
11.953250
21
408.406744
0
LINE
8
hole
62
5
39
2
10
11.953250
20
408.406744
11
11.953250
21
408.978244
0
LINE
8
hole
62
5
39
2
10
11.953250
20
408.978244
11
11.381750
21
408.978244
0
LINE
8
hole
62
5
39
2
10
11.381750
20
408.978244
11
11.381750
21
408.406744
0
LINE
8
hole
62
5
39
2
10
30.491931
20
427.574464
11
30.049467
21
428.016924
0
LINE
8
hole
62
5
39
2
10
30.049467
20
428.016924
11
29.765389
21
428.574463
0
LINE
8
hole
62
5
39
2
10
29.765389
20
428.574463
11
29.667502
21
429.192497
0
LINE
8
hole
62
5
39
2
10
29.667502
20
429.192497
11
29.765389
21
429.810528
0
LINE
8
hole
62
5
39
2
10
29.765389
20
429.810528
11
30.049467
21
430.368068
0
LINE
8
hole
62
5
39
2
10
30.049467
20
430.368068
11
30.491931
21
430.810531
0
LINE
8
hole
62
5
39
2
10
30.491931
20
430.810531
11
31.049468
21
431.094610
0
LINE
8
hole
62
5
39
2
10
31.049468
20
431.094610
11
31.667502
21
431.192496
0
LINE
8
hole
62
5
39
2
10
31.667502
20
431.192496
11
32.285537
21
431.094610
0
LINE
8
hole
62
5
39
2
10
32.285537
20
431.094610
11
32.843073
21
430.810531
0
LINE
8
hole
62
5
39
2
10
32.843073
20
430.810531
11
33.285537
21
430.368068
0
LINE
8
hole
62
5
39
2
10
33.285537
20
430.368068
11
33.569614
21
429.810528
0
LINE
8
hole
62
5
39
2
10
33.569614
20
429.810528
11
33.667502
21
429.192497
0
LINE
8
hole
62
5
39
2
10
33.667502
20
429.192497
11
33.569614
21
428.574463
0
LINE
8
hole
62
5
39
2
10
33.569614
20
428.574463
11
33.285537
21
428.016924
0
LINE
8
hole
62
5
39
2
10
33.285537
20
428.016924
11
32.843073
21
427.574464
0
LINE
8
hole
62
5
39
2
10
32.843073
20
427.574464
11
32.285537
21
427.290382
0
LINE
8
hole
62
5
39
2
10
32.285537
20
427.290382
11
31.667502
21
427.192498
0
LINE
8
hole
62
5
39
2
10
31.667502
20
427.192498
11
31.049468
21
427.290382
0
LINE
8
hole
62
5
39
2
10
31.049468
20
427.290382
11
30.491931
21
427.574464
0
LINE
8
hole
62
5
39
2
10
28.728576
20
352.147409
11
27.622418
21
353.253567
0
LINE
8
hole
62
5
39
2
10
27.622418
20
353.253567
11
26.912219
21
354.647408
0
LINE
8
hole
62
5
39
2
10
26.912219
20
354.647408
11
26.667502
21
356.192493
0
LINE
8
hole
62
5
39
2
10
26.667502
20
356.192493
11
26.912219
21
357.737581
0
LINE
8
hole
62
5
39
2
10
26.912219
20
357.737581
11
27.622418
21
359.131420
0
LINE
8
hole
62
5
39
2
10
27.622418
20
359.131420
11
28.728576
21
360.237580
0
LINE
8
hole
62
5
39
2
10
28.728576
20
360.237580
11
30.122417
21
360.947777
0
LINE
8
hole
62
5
39
2
10
30.122417
20
360.947777
11
31.667502
21
361.192493
0
LINE
8
hole
62
5
39
2
10
31.667502
20
361.192493
11
33.212588
21
360.947777
0
LINE
8
hole
62
5
39
2
10
33.212588
20
360.947777
11
34.606428
21
360.237580
0
LINE
8
hole
62
5
39
2
10
34.606428
20
360.237580
11
35.712588
21
359.131420
0
LINE
8
hole
62
5
39
2
10
35.712588
20
359.131420
11
36.422785
21
357.737581
0
LINE
8
hole
62
5
39
2
10
36.422785
20
357.737581
11
36.667501
21
356.192493
0
LINE
8
hole
62
5
39
2
10
36.667501
20
356.192493
11
36.422785
21
354.647408
0
LINE
8
hole
62
5
39
2
10
36.422785
20
354.647408
11
35.712588
21
353.253567
0
LINE
8
hole
62
5
39
2
10
35.712588
20
353.253567
11
34.606428
21
352.147409
0
LINE
8
hole
62
5
39
2
10
34.606428
20
352.147409
11
33.212588
21
351.437211
0
LINE
8
hole
62
5
39
2
10
33.212588
20
351.437211
11
31.667502
21
351.192495
0
LINE
8
hole
62
5
39
2
10
31.667502
20
351.192495
11
30.122417
21
351.437211
0
LINE
8
hole
62
5
39
2
10
30.122417
20
351.437211
11
28.728576
21
352.147409
0
LINE
8
boundary
62
5
39
2
10
13.658624
20
338.902621
11
13.989832
21
338.514826
0
LINE
8
boundary
62
5
39
2
10
13.989832
20
338.514826
11
16.585075
21
336.298276
0
LINE
8
boundary
62
5
39
2
10
16.585075
20
336.298276
11
16.972870
21
335.967068
0
LINE
8
boundary
62
5
39
2
10
16.972870
20
335.967068
11
19.882906
21
334.183798
0
LINE
8
boundary
62
5
39
2
10
19.882906
20
334.183798
11
20.317739
21
333.917332
0
LINE
8
boundary
62
5
39
2
10
20.317739
20
333.917332
11
23.470913
21
332.611245
0
LINE
8
boundary
62
5
39
2
10
23.470913
20
332.611245
11
23.942077
21
332.416082
0
LINE
8
boundary
62
5
39
2
10
23.942077
20
332.416082
11
27.260747
21
331.619343
0
LINE
8
boundary
62
5
39
2
10
27.260747
20
331.619343
11
27.756640
21
331.500289
0
LINE
8
boundary
62
5
39
2
10
27.756640
20
331.500289
11
31.159090
21
331.232509
0
LINE
8
boundary
62
5
39
2
10
31.159090
20
331.232509
11
31.667502
21
331.192496
0
LINE
8
boundary
62
5
39
2
10
31.667502
20
331.192496
11
35.069952
21
331.460276
0
LINE
8
boundary
62
5
39
2
10
35.069952
20
331.460276
11
35.578363
21
331.500289
0
LINE
8
boundary
62
5
39
2
10
35.578363
20
331.500289
11
38.897034
21
332.297029
0
LINE
8
boundary
62
5
39
2
10
38.897034
20
332.297029
11
39.392927
21
332.416082
0
LINE
8
boundary
62
5
39
2
10
39.392927
20
332.416082
11
42.546101
21
333.722170
0
LINE
8
boundary
62
5
39
2
10
42.546101
20
333.722170
11
43.017265
21
333.917332
0
LINE
8
boundary
62
5
39
2
10
43.017265
20
333.917332
11
45.927300
21
335.700602
0
LINE
8
boundary
62
5
39
2
10
45.927300
20
335.700602
11
46.362132
21
335.967068
0
LINE
8
boundary
62
5
39
2
10
46.362132
20
335.967068
11
48.957377
21
338.183618
0
LINE
8
boundary
62
5
39
2
10
48.957377
20
338.183618
11
49.345172
21
338.514826
0
LINE
8
boundary
62
5
39
2
10
49.345172
20
338.514826
11
51.561721
21
341.110070
0
LINE
8
boundary
62
5
39
2
10
51.561721
20
341.110070
11
51.892930
21
341.497865
0
LINE
8
boundary
62
5
39
2
10
51.892930
20
341.497865
11
53.676200
21
344.407899
0
LINE
8
boundary
62
5
39
2
10
53.676200
20
344.407899
11
53.942665
21
344.842731
0
LINE
8
boundary
62
5
39
2
10
53.942665
20
344.842731
11
55.248751
21
347.995907
0
LINE
8
boundary
62
5
39
2
10
55.248751
20
347.995907
11
55.443914
21
348.467071
0
LINE
8
boundary
62
5
39
2
10
55.443914
20
348.467071
11
56.240656
21
351.785738
0
LINE
8
boundary
62
5
39
2
10
56.240656
20
351.785738
11
56.359710
21
352.281630
0
LINE
8
boundary
62
5
39
2
10
56.359710
20
352.281630
11
56.627489
21
355.684081
0
LINE
8
boundary
62
5
39
2
10
56.627489
20
355.684081
11
56.667502
21
356.192493
0
LINE
8
boundary
62
5
39
2
10
56.667502
20
356.192493
11
56.667502
21
377.942495
0
LINE
8
boundary
62
5
39
2
10
56.667502
20
377.942495
11
56.667502
21
388.342493
0
LINE
8
boundary
62
5
39
2
10
56.667502
20
388.342493
11
56.667502
21
412.267493
0
LINE
8
boundary
62
5
39
2
10
56.667502
20
412.267493
11
56.667502
21
436.192494
0
LINE
8
boundary
62
5
39
2
10
56.667502
20
436.192494
11
53.405002
21
436.192494
0
LINE
8
boundary
62
5
39
2
10
53.405002
20
436.192494
11
50.142502
21
436.192494
0
LINE
8
boundary
62
5
39
2
10
50.142502
20
436.192494
11
19.692500
21
436.192494
0
LINE
8
boundary
62
5
39
2
10
19.692500
20
436.192494
11
13.192501
21
436.192494
0
LINE
8
boundary
62
5
39
2
10
13.192501
20
436.192494
11
6.667500
21
436.192494
0
LINE
8
boundary
62
5
39
2
10
6.667500
20
436.192494
11
6.667500
21
412.267493
0
LINE
8
boundary
62
5
39
2
10
6.667500
20
412.267493
11
6.667500
21
388.342493
0
LINE
8
boundary
62
5
39
2
10
6.667500
20
388.342493
11
6.667500
21
377.942495
0
LINE
8
boundary
62
5
39
2
10
6.667500
20
377.942495
11
6.667500
21
356.192493
0
LINE
8
boundary
62
5
39
2
10
6.667500
20
356.192493
11
6.935279
21
352.790042
0
LINE
8
boundary
62
5
39
2
10
6.935279
20
352.790042
11
6.975292
21
352.281630
0
LINE
8
boundary
62
5
39
2
10
6.975292
20
352.281630
11
7.772035
21
348.962964
0
LINE
8
boundary
62
5
39
2
10
7.772035
20
348.962964
11
7.891089
21
348.467071
0
LINE
8
boundary
62
5
39
2
10
7.891089
20
348.467071
11
9.197176
21
345.313895
0
LINE
8
boundary
62
5
39
2
10
9.197176
20
345.313895
11
9.392338
21
344.842731
0
LINE
8
boundary
62
5
39
2
10
9.392338
20
344.842731
11
11.175611
21
341.932698
0
LINE
8
boundary
62
5
39
2
10
11.175611
20
341.932698
11
11.442077
21
341.497865
0
LINE
8
boundary
62
5
39
2
10
11.442077
20
341.497865
11
13.658624
21
338.902621
0
LINE
8
annotation
62
1
39
211
10
51.667502
20
408.692494
11
51.667502
21
410.121244
0
LINE
8
annotation
62
1
39
211
10
11.667500
20
408.692494
11
13.096250
21
408.692494
0
LINE
8
annotation
62
1
39
211
10
31.667501
20
425.692494
11
31.667501
21
427.121244
0
LINE
8
annotation
62
1
39
211
10
31.667501
20
425.692494
11
31.667501
21
427.121244
0
LINE
8
annotation
62
1
39
211
10
31.667501
20
427.121244
11
31.667501
21
425.692494
0
LINE
8
annotation
62
1
39
211
10
31.667501
20
425.692494
11
33.096251
21
425.692494
0
LINE
8
annotation
62
1
39
211
10
31.667501
20
341.692496
11
31.667501
21
340.263746
0
LINE
8
annotation
62
1
39
211
10
25.748720
20
382.428307
11
25.748720
21
382.428307
0
LINE
8
annotation
62
1
39
211
10
25.748720
20
382.428307
11
25.870701
21
381.069834
0
LINE
8
annotation
62
1
39
211
10
25.870701
20
381.069834
11
26.222293
21
379.792194
0
LINE
8
annotation
62
1
39
211
10
26.222293
20
379.792194
11
26.781966
21
378.616478
0
LINE
8
annotation
62
1
39
211
10
26.781966
20
378.616478
11
27.528189
21
377.563777
0
LINE
8
annotation
62
1
39
211
10
27.528189
20
377.563777
11
28.439433
21
376.655181
0
LINE
8
annotation
62
1
39
211
10
28.439433
20
376.655181
11
29.494169
21
375.911782
0
LINE
8
annotation
62
1
39
211
10
29.494169
20
375.911782
11
30.670865
21
375.354671
0
LINE
8
annotation
62
1
39
211
10
30.670865
20
375.354671
11
31.947993
21
375.004937
0
LINE
8
annotation
62
1
39
211
10
31.947993
20
375.004937
11
33.304023
21
374.883672
0
LINE
8
annotation
62
1
39
211
10
33.304023
20
374.883672
11
33.304023
21
374.883672
0
LINE
8
annotation
62
1
39
211
10
33.304023
20
374.883672
11
34.660052
21
375.004937
0
LINE
8
annotation
62
1
39
211
10
34.660052
20
375.004937
11
35.937180
21
375.354671
0
LINE
8
annotation
62
1
39
211
10
35.937180
20
375.354671
11
37.113877
21
375.911782
0
LINE
8
annotation
62
1
39
211
10
37.113877
20
375.911782
11
38.168612
21
376.655181
0
LINE
8
annotation
62
1
39
211
10
38.168612
20
376.655181
11
39.079856
21
377.563777
0
LINE
8
annotation
62
1
39
211
10
39.079856
20
377.563777
11
39.826080
21
378.616478
0
LINE
8
annotation
62
1
39
211
10
39.826080
20
378.616478
11
40.385752
21
379.792194
0
LINE
8
annotation
62
1
39
211
10
40.385752
20
379.792194
11
40.737344
21
381.069834
0
LINE
8
annotation
62
1
39
211
10
40.737344
20
381.069834
11
40.859326
21
382.428307
0
LINE
8
annotation
62
1
39
211
10
40.859326
20
382.428307
11
40.859326
21
386.192090
0
LINE
8
annotation
62
1
39
211
10
40.859326
20
386.192090
11
40.859326
21
386.192090
0
LINE
8
annotation
62
1
39
211
10
40.859326
20
386.192090
11
40.737414
21
387.551222
0
LINE
8
annotation
62
1
39
211
10
40.737414
20
387.551222
11
40.385998
21
388.830627
0
LINE
8
annotation
62
1
39
211
10
40.385998
20
388.830627
11
39.826554
21
390.008898
0
LINE
8
annotation
62
1
39
211
10
39.826554
20
390.008898
11
39.080559
21
391.064629
0
LINE
8
annotation
62
1
39
211
10
39.080559
20
391.064629
11
38.169490
21
391.976411
0
LINE
8
annotation
62
1
39
211
10
38.169490
20
391.976411
11
37.114825
21
392.722840
0
LINE
8
annotation
62
1
39
211
10
37.114825
20
392.722840
11
35.938041
21
393.282506
0
LINE
8
annotation
62
1
39
211
10
35.938041
20
393.282506
11
34.660614
21
393.634005
0
LINE
8
annotation
62
1
39
211
10
34.660614
20
393.634005
11
33.304023
21
393.755928
0
LINE
8
annotation
62
1
39
211
10
33.304023
20
393.755928
11
33.304023
21
393.755928
0
LINE
8
annotation
62
1
39
211
10
33.304023
20
393.755928
11
31.947431
21
393.633935
0
LINE
8
annotation
62
1
39
211
10
31.947431
20
393.633935
11
30.670005
21
393.282261
0
LINE
8
annotation
62
1
39
211
10
30.670005
20
393.282261
11
29.493220
21
392.722365
0
LINE
8
annotation
62
1
39
211
10
29.493220
20
392.722365
11
28.438555
21
391.975709
0
LINE
8
annotation
62
1
39
211
10
28.438555
20
391.975709
11
27.527487
21
391.063751
0
LINE
8
annotation
62
1
39
211
10
27.527487
20
391.063751
11
26.781492
21
390.007950
0
LINE
8
annotation
62
1
39
211
10
26.781492
20
390.007950
11
26.222048
21
388.829767
0
LINE
8
annotation
62
1
39
211
10
26.222048
20
388.829767
11
25.870631
21
387.550660
0
LINE
8
annotation
62
1
39
211
10
25.870631
20
387.550660
11
25.748720
21
386.192090
0
LINE
8
annotation
62
1
39
211
10
25.748720
20
386.192090
11
25.748720
21
382.428307
0
LINE
8
annotation
62
1
39
211
10
40.859326
20
401.321900
11
40.859326
21
401.321900
0
LINE
8
annotation
62
1
39
211
10
40.859326
20
401.321900
11
40.737414
21
402.674754
0
LINE
8
annotation
62
1
39
211
10
40.737414
20
402.674754
11
40.385998
21
403.949408
0
LINE
8
annotation
62
1
39
211
10
40.385998
20
403.949408
11
39.826554
21
405.124246
0
LINE
8
annotation
62
1
39
211
10
39.826554
20
405.124246
11
39.080559
21
406.177650
0
LINE
8
annotation
62
1
39
211
10
39.080559
20
406.177650
11
38.169490
21
407.088001
0
LINE
8
annotation
62
1
39
211
10
38.169490
20
407.088001
11
37.114825
21
407.833683
0
LINE
8
annotation
62
1
39
211
10
37.114825
20
407.833683
11
35.938041
21
408.393078
0
LINE
8
annotation
62
1
39
211
10
35.938041
20
408.393078
11
34.660614
21
408.744567
0
LINE
8
annotation
62
1
39
211
10
34.660614
20
408.744567
11
33.304023
21
408.866534
0
LINE
8
annotation
62
1
39
211
10
33.304023
20
408.866534
11
33.304023
21
408.866534
0
LINE
8
annotation
62
1
39
211
10
33.304023
20
408.866534
11
31.947431
21
408.744567
0
LINE
8
annotation
62
1
39
211
10
31.947431
20
408.744567
11
30.670005
21
408.393078
0
LINE
8
annotation
62
1
39
211
10
30.670005
20
408.393078
11
29.493220
21
407.833683
0
LINE
8
annotation
62
1
39
211
10
29.493220
20
407.833683
11
28.438555
21
407.088001
0
LINE
8
annotation
62
1
39
211
10
28.438555
20
407.088001
11
27.527487
21
406.177650
0
LINE
8
annotation
62
1
39
211
10
27.527487
20
406.177650
11
26.781492
21
405.124246
0
LINE
8
annotation
62
1
39
211
10
26.781492
20
405.124246
11
26.222048
21
403.949408
0
LINE
8
annotation
62
1
39
211
10
26.222048
20
403.949408
11
25.870631
21
402.674754
0
LINE
8
annotation
62
1
39
211
10
25.870631
20
402.674754
11
25.748720
21
401.321900
0
LINE
8
annotation
62
1
39
211
10
25.748720
20
401.321900
11
25.748720
21
401.321900
0
LINE
8
annotation
62
1
39
211
10
25.748720
20
401.321900
11
25.870701
21
399.962694
0
LINE
8
annotation
62
1
39
211
10
25.870701
20
399.962694
11
26.222293
21
398.683093
0
LINE
8
annotation
62
1
39
211
10
26.222293
20
398.683093
11
26.781966
21
397.504538
0
LINE
8
annotation
62
1
39
211
10
26.781966
20
397.504538
11
27.528189
21
396.448471
0
LINE
8
annotation
62
1
39
211
10
27.528189
20
396.448471
11
28.439433
21
395.536334
0
LINE
8
annotation
62
1
39
211
10
28.439433
20
395.536334
11
29.494169
21
394.789570
0
LINE
8
annotation
62
1
39
211
10
29.494169
20
394.789570
11
30.670865
21
394.229619
0
LINE
8
annotation
62
1
39
211
10
30.670865
20
394.229619
11
31.947993
21
393.877924
0
LINE
8
annotation
62
1
39
211
10
31.947993
20
393.877924
11
33.304023
21
393.755928
0
LINE
8
annotation
62
1
39
211
10
33.304023
20
393.755928
11
33.304023
21
393.755928
0
LINE
8
annotation
62
1
39
211
10
33.304023
20
393.755928
11
34.660052
21
393.877924
0
LINE
8
annotation
62
1
39
211
10
34.660052
20
393.877924
11
35.937180
21
394.229619
0
LINE
8
annotation
62
1
39
211
10
35.937180
20
394.229619
11
37.113877
21
394.789570
0
LINE
8
annotation
62
1
39
211
10
37.113877
20
394.789570
11
38.168612
21
395.536334
0
LINE
8
annotation
62
1
39
211
10
38.168612
20
395.536334
11
39.079856
21
396.448471
0
LINE
8
annotation
62
1
39
211
10
39.079856
20
396.448471
11
39.826080
21
397.504538
0
LINE
8
annotation
62
1
39
211
10
39.826080
20
397.504538
11
40.385752
21
398.683093
0
LINE
8
annotation
62
1
39
211
10
40.385752
20
398.683093
11
40.737344
21
399.962694
0
LINE
8
annotation
62
1
39
211
10
40.737344
20
399.962694
11
40.859326
21
401.321900
0
LINE
8
hole
62
5
39
2
10
31.381751
20
533.581743
11
31.953251
21
533.581743
0
LINE
8
hole
62
5
39
2
10
31.953251
20
533.581743
11
31.953251
21
534.153243
0
LINE
8
hole
62
5
39
2
10
31.953251
20
534.153243
11
31.381751
21
534.153243
0
LINE
8
hole
62
5
39
2
10
31.381751
20
534.153243
11
31.381751
21
533.581743
0
LINE
8
hole
62
5
39
2
10
51.381752
20
491.581743
11
51.953252
21
491.581743
0
LINE
8
hole
62
5
39
2
10
51.953252
20
491.581743
11
51.953252
21
492.153243
0
LINE
8
hole
62
5
39
2
10
51.953252
20
492.153243
11
51.381752
21
492.153243
0
LINE
8
hole
62
5
39
2
10
51.381752
20
492.153243
11
51.381752
21
491.581743
0
LINE
8
hole
62
5
39
2
10
11.381750
20
491.581743
11
11.953250
21
491.581743
0
LINE
8
hole
62
5
39
2
10
11.953250
20
491.581743
11
11.953250
21
492.153243
0
LINE
8
hole
62
5
39
2
10
11.953250
20
492.153243
11
11.381750
21
492.153243
0
LINE
8
hole
62
5
39
2
10
11.381750
20
492.153243
11
11.381750
21
491.581743
0
LINE
8
hole
62
5
39
2
10
31.381751
20
449.581744
11
31.953251
21
449.581744
0
LINE
8
hole
62
5
39
2
10
31.953251
20
449.581744
11
31.953251
21
450.153244
0
LINE
8
hole
62
5
39
2
10
31.953251
20
450.153244
11
31.381751
21
450.153244
0
LINE
8
hole
62
5
39
2
10
31.381751
20
450.153244
11
31.381751
21
449.581744
0
LINE
8
hole
62
5
39
2
10
30.491931
20
535.749462
11
30.049467
21
536.191923
0
LINE
8
hole
62
5
39
2
10
30.049467
20
536.191923
11
29.765389
21
536.749462
0
LINE
8
hole
62
5
39
2
10
29.765389
20
536.749462
11
29.667502
21
537.367496
0
LINE
8
hole
62
5
39
2
10
29.667502
20
537.367496
11
29.765389
21
537.985527
0
LINE
8
hole
62
5
39
2
10
29.765389
20
537.985527
11
30.049467
21
538.543066
0
LINE
8
hole
62
5
39
2
10
30.049467
20
538.543066
11
30.491931
21
538.985529
0
LINE
8
hole
62
5
39
2
10
30.491931
20
538.985529
11
31.049468
21
539.269608
0
LINE
8
hole
62
5
39
2
10
31.049468
20
539.269608
11
31.667502
21
539.367495
0
LINE
8
hole
62
5
39
2
10
31.667502
20
539.367495
11
32.285537
21
539.269608
0
LINE
8
hole
62
5
39
2
10
32.285537
20
539.269608
11
32.843073
21
538.985529
0
LINE
8
hole
62
5
39
2
10
32.843073
20
538.985529
11
33.285537
21
538.543066
0
LINE
8
hole
62
5
39
2
10
33.285537
20
538.543066
11
33.569614
21
537.985527
0
LINE
8
hole
62
5
39
2
10
33.569614
20
537.985527
11
33.667502
21
537.367496
0
LINE
8
hole
62
5
39
2
10
33.667502
20
537.367496
11
33.569614
21
536.749462
0
LINE
8
hole
62
5
39
2
10
33.569614
20
536.749462
11
33.285537
21
536.191922
0
LINE
8
hole
62
5
39
2
10
33.285537
20
536.191922
11
32.843073
21
535.749462
0
LINE
8
hole
62
5
39
2
10
32.843073
20
535.749462
11
32.285537
21
535.465380
0
LINE
8
hole
62
5
39
2
10
32.285537
20
535.465380
11
31.667502
21
535.367497
0
LINE
8
hole
62
5
39
2
10
31.667502
20
535.367497
11
31.049468
21
535.465380
0
LINE
8
hole
62
5
39
2
10
31.049468
20
535.465380
11
30.491931
21
535.749462
0
LINE
8
hole
62
5
39
2
10
28.728576
20
460.322407
11
28.275051
21
460.775932
0
LINE
8
hole
62
5
39
2
10
28.275051
20
460.775932
11
27.622418
21
461.428566
0
LINE
8
hole
62
5
39
2
10
27.622418
20
461.428566
11
27.331236
21
462.000040
0
LINE
8
hole
62
5
39
2
10
27.331236
20
462.000040
11
26.912219
21
462.822406
0
LINE
8
hole
62
5
39
2
10
26.912219
20
462.822406
11
26.811885
21
463.455891
0
LINE
8
hole
62
5
39
2
10
26.811885
20
463.455891
11
26.667502
21
464.367491
0
LINE
8
hole
62
5
39
2
10
26.667502
20
464.367491
11
26.767836
21
465.000977
0
LINE
8
hole
62
5
39
2
10
26.767836
20
465.000977
11
26.912219
21
465.912579
0
LINE
8
hole
62
5
39
2
10
26.912219
20
465.912579
11
27.203401
21
466.484053
0
LINE
8
hole
62
5
39
2
10
27.203401
20
466.484053
11
27.622418
21
467.306418
0
LINE
8
hole
62
5
39
2
10
27.622418
20
467.306418
11
28.075942
21
467.759944
0
LINE
8
hole
62
5
39
2
10
28.075942
20
467.759944
11
28.728576
21
468.412578
0
LINE
8
hole
62
5
39
2
10
28.728576
20
468.412578
11
29.300051
21
468.703759
0
LINE
8
hole
62
5
39
2
10
29.300051
20
468.703759
11
30.122417
21
469.122776
0
LINE
8
hole
62
5
39
2
10
30.122417
20
469.122776
11
30.755902
21
469.223109
0
LINE
8
hole
62
5
39
2
10
30.755902
20
469.223109
11
31.667502
21
469.367492
0
LINE
8
hole
62
5
39
2
10
31.667502
20
469.367492
11
32.300987
21
469.267158
0
LINE
8
hole
62
5
39
2
10
32.300987
20
469.267158
11
33.212588
21
469.122776
0
LINE
8
hole
62
5
39
2
10
33.212588
20
469.122776
11
33.784062
21
468.831595
0
LINE
8
hole
62
5
39
2
10
33.784062
20
468.831595
11
34.606428
21
468.412578
0
LINE
8
hole
62
5
39
2
10
34.606428
20
468.412578
11
35.059953
21
467.959052
0
LINE
8
hole
62
5
39
2
10
35.059953
20
467.959052
11
35.712588
21
467.306418
0
LINE
8
hole
62
5
39
2
10
35.712588
20
467.306418
11
36.003769
21
466.734944
0
LINE
8
hole
62
5
39
2
10
36.003769
20
466.734944
11
36.422785
21
465.912579
0
LINE
8
hole
62
5
39
2
10
36.422785
20
465.912579
11
36.523119
21
465.279093
0
LINE
8
hole
62
5
39
2
10
36.523119
20
465.279093
11
36.667501
21
464.367491
0
LINE
8
hole
62
5
39
2
10
36.667501
20
464.367491
11
36.567168
21
463.734007
0
LINE
8
hole
62
5
39
2
10
36.567168
20
463.734007
11
36.422785
21
462.822406
0
LINE
8
hole
62
5
39
2
10
36.422785
20
462.822406
11
36.131604
21
462.250932
0
LINE
8
hole
62
5
39
2
10
36.131604
20
462.250932
11
35.712588
21
461.428566
0
LINE
8
hole
62
5
39
2
10
35.712588
20
461.428566
11
35.259062
21
460.975041
0
LINE
8
hole
62
5
39
2
10
35.259062
20
460.975041
11
34.606428
21
460.322407
0
LINE
8
hole
62
5
39
2
10
34.606428
20
460.322407
11
34.034954
21
460.031226
0
LINE
8
hole
62
5
39
2
10
34.034954
20
460.031226
11
33.212588
21
459.612210
0
LINE
8
hole
62
5
39
2
10
33.212588
20
459.612210
11
32.579103
21
459.511876
0
LINE
8
hole
62
5
39
2
10
32.579103
20
459.511876
11
31.667502
21
459.367494
0
LINE
8
hole
62
5
39
2
10
31.667502
20
459.367494
11
31.034017
21
459.467827
0
LINE
8
hole
62
5
39
2
10
31.034017
20
459.467827
11
30.122417
21
459.612210
0
LINE
8
hole
62
5
39
2
10
30.122417
20
459.612210
11
29.550942
21
459.903391
0
LINE
8
hole
62
5
39
2
10
29.550942
20
459.903391
11
28.728576
21
460.322407
0
LINE
8
boundary
62
5
39
2
10
12.945253
20
447.912871
11
13.989832
21
446.689824
0
LINE
8
boundary
62
5
39
2
10
13.989832
20
446.689824
11
15.749824
21
445.186647
0
LINE
8
boundary
62
5
39
2
10
15.749824
20
445.186647
11
16.972870
21
444.142066
0
LINE
8
boundary
62
5
39
2
10
16.972870
20
444.142066
11
18.946343
21
442.932722
0
LINE
8
boundary
62
5
39
2
10
18.946343
20
442.932722
11
20.317739
21
442.092331
0
LINE
8
boundary
62
5
39
2
10
20.317739
20
442.092331
11
22.456098
21
441.206593
0
LINE
8
boundary
62
5
39
2
10
22.456098
20
441.206593
11
23.942077
21
440.591081
0
LINE
8
boundary
62
5
39
2
10
23.942077
20
440.591081
11
26.192669
21
440.050763
0
LINE
8
boundary
62
5
39
2
10
26.192669
20
440.050763
11
27.756640
21
439.675288
0
LINE
8
boundary
62
5
39
2
10
27.756640
20
439.675288
11
30.064049
21
439.493690
0
LINE
8
boundary
62
5
39
2
10
30.064049
20
439.493690
11
31.667502
21
439.367494
0
LINE
8
boundary
62
5
39
2
10
31.667502
20
439.367494
11
33.974910
21
439.549092
0
LINE
8
boundary
62
5
39
2
10
33.974910
20
439.549092
11
35.578363
21
439.675288
0
LINE
8
boundary
62
5
39
2
10
35.578363
20
439.675288
11
37.828956
21
440.215606
0
LINE
8
boundary
62
5
39
2
10
37.828956
20
440.215606
11
39.392927
21
440.591081
0
LINE
8
boundary
62
5
39
2
10
39.392927
20
440.591081
11
41.531286
21
441.476818
0
LINE
8
boundary
62
5
39
2
10
41.531286
20
441.476818
11
43.017265
21
442.092331
0
LINE
8
boundary
62
5
39
2
10
43.017265
20
442.092331
11
44.990737
21
443.301675
0
LINE
8
boundary
62
5
39
2
10
44.990737
20
443.301675
11
46.362132
21
444.142066
0
LINE
8
boundary
62
5
39
2
10
46.362132
20
444.142066
11
48.122126
21
445.645244
0
LINE
8
boundary
62
5
39
2
10
48.122126
20
445.645244
11
49.345172
21
446.689825
0
LINE
8
boundary
62
5
39
2
10
49.345172
20
446.689825
11
50.848349
21
448.449818
0
LINE
8
boundary
62
5
39
2
10
50.848349
20
448.449818
11
51.892930
21
449.672864
0
LINE
8
boundary
62
5
39
2
10
51.892930
20
449.672864
11
53.102274
21
451.646335
0
LINE
8
boundary
62
5
39
2
10
53.102274
20
451.646335
11
53.942665
21
453.017730
0
LINE
8
boundary
62
5
39
2
10
53.942665
20
453.017730
11
54.828402
21
455.156090
0
LINE
8
boundary
62
5
39
2
10
54.828402
20
455.156090
11
55.443914
21
456.642069
0
LINE
8
boundary
62
5
39
2
10
55.443914
20
456.642069
11
55.984233
21
458.892660
0
LINE
8
boundary
62
5
39
2
10
55.984233
20
458.892660
11
56.359710
21
460.456629
0
LINE
8
boundary
62
5
39
2
10
56.359710
20
460.456629
11
56.541307
21
462.764038
0
LINE
8
boundary
62
5
39
2
10
56.541307
20
462.764038
11
56.667502
21
464.367491
0
LINE
8
boundary
62
5
39
2
10
56.667502
20
464.367491
11
56.667502
21
479.117493
0
LINE
8
boundary
62
5
39
2
10
56.667502
20
479.117493
11
56.667502
21
511.917491
0
LINE
8
boundary
62
5
39
2
10
56.667502
20
511.917491
11
56.667502
21
528.142492
0
LINE
8
boundary
62
5
39
2
10
56.667502
20
528.142492
11
56.667502
21
544.367493
0
LINE
8
boundary
62
5
39
2
10
56.667502
20
544.367493
11
54.455002
21
544.367493
0
LINE
8
boundary
62
5
39
2
10
54.455002
20
544.367493
11
52.242502
21
544.367492
0
LINE
8
boundary
62
5
39
2
10
52.242502
20
544.367492
11
31.592500
21
544.367492
0
LINE
8
boundary
62
5
39
2
10
31.592500
20
544.367492
11
11.092501
21
544.367492
0
LINE
8
boundary
62
5
39
2
10
11.092501
20
544.367492
11
6.667500
21
544.367492
0
LINE
8
boundary
62
5
39
2
10
6.667500
20
544.367492
11
6.667500
21
528.142492
0
LINE
8
boundary
62
5
39
2
10
6.667500
20
528.142492
11
6.667500
21
511.917491
0
LINE
8
boundary
62
5
39
2
10
6.667500
20
511.917491
11
6.667500
21
479.117493
0
LINE
8
boundary
62
5
39
2
10
6.667500
20
479.117493
11
6.667500
21
464.367491
0
LINE
8
boundary
62
5
39
2
10
6.667500
20
464.367491
11
6.849097
21
462.060082
0
LINE
8
boundary
62
5
39
2
10
6.849097
20
462.060082
11
6.975292
21
460.456629
0
LINE
8
boundary
62
5
39
2
10
6.975292
20
460.456629
11
7.515612
21
458.206039
0
LINE
8
boundary
62
5
39
2
10
7.515612
20
458.206039
11
7.891089
21
456.642070
0
LINE
8
boundary
62
5
39
2
10
7.891089
20
456.642070
11
8.776826
21
454.503709
0
LINE
8
boundary
62
5
39
2
10
8.776826
20
454.503709
11
9.392338
21
453.017730
0
LINE
8
boundary
62
5
39
2
10
9.392338
20
453.017730
11
10.601684
21
451.044259
0
LINE
8
boundary
62
5
39
2
10
10.601684
20
451.044259
11
11.442077
21
449.672864
0
LINE
8
boundary
62
5
39
2
10
11.442077
20
449.672864
11
12.945253
21
447.912871
0
LINE
8
annotation
62
1
39
211
10
31.667501
20
533.867493
11
31.667501
21
535.296243
0
LINE
8
annotation
62
1
39
211
10
31.667501
20
533.867493
11
31.667501
21
535.296243
0
LINE
8
annotation
62
1
39
211
10
31.667501
20
535.296243
11
31.667501
21
533.867493
0
LINE
8
annotation
62
1
39
211
10
31.667501
20
533.867493
11
33.096251
21
533.867493
0
LINE
8
annotation
62
1
39
211
10
31.667501
20
449.867494
11
31.667501
21
448.438744
0
LINE
8
annotation
62
1
39
211
10
51.667502
20
491.867493
11
51.667502
21
493.296243
0
LINE
8
annotation
62
1
39
211
10
51.667502
20
491.867493
11
51.667502
21
493.296243
0
LINE
8
annotation
62
1
39
211
10
51.667502
20
493.296243
11
51.667502
21
491.867493
0
LINE
8
annotation
62
1
39
211
10
51.667502
20
491.867493
11
51.667502
21
490.438743
0
LINE
8
annotation
62
1
39
211
10
11.667500
20
491.867493
11
13.096250
21
491.867493
0
LINE
8
annotation
62
1
39
211
10
11.667500
20
491.867493
11
13.096250
21
491.867493
0
LINE
8
annotation
62
1
39
211
10
13.096250
20
491.867493
11
11.667500
21
491.867493
0
LINE
8
annotation
62
1
39
211
10
11.667500
20
491.867493
11
11.667500
21
490.438743
0
LINE
8
annotation
62
1
39
211
10
29.521037
20
483.059738
11
29.521037
21
483.059738
0
LINE
8
annotation
62
1
39
211
10
29.521037
20
483.059738
11
31.681631
21
483.864881
0
LINE
8
annotation
62
1
39
211
10
31.681631
20
483.864881
11
33.664788
21
484.953178
0
LINE
8
annotation
62
1
39
211
10
33.664788
20
484.953178
11
35.450014
21
486.296901
0
LINE
8
annotation
62
1
39
211
10
35.450014
20
486.296901
11
37.016817
21
487.868319
0
LINE
8
annotation
62
1
39
211
10
37.016817
20
487.868319
11
38.344702
21
489.639705
0
LINE
8
annotation
62
1
39
211
10
38.344702
20
489.639705
11
39.413176
21
491.583329
0
LINE
8
annotation
62
1
39
211
10
39.413176
20
491.583329
11
40.201745
21
493.671463
0
LINE
8
annotation
62
1
39
211
10
40.201745
20
493.671463
11
40.689915
21
495.876378
0
LINE
8
annotation
62
1
39
211
10
40.689915
20
495.876378
11
40.857192
21
498.170344
0
LINE
8
annotation
62
1
39
211
10
40.857192
20
498.170344
11
40.857192
21
509.517168
0
LINE
8
annotation
62
1
39
211
10
40.857192
20
509.517168
11
40.857192
21
509.517168
0
LINE
8
annotation
62
1
39
211
10
40.857192
20
509.517168
11
40.735562
21
510.876373
0
LINE
8
annotation
62
1
39
211
10
40.735562
20
510.876373
11
40.384848
21
512.155974
0
LINE
8
annotation
62
1
39
211
10
40.384848
20
512.155974
11
39.826317
21
513.334529
0
LINE
8
annotation
62
1
39
211
10
39.826317
20
513.334529
11
39.081235
21
514.390596
0
LINE
8
annotation
62
1
39
211
10
39.081235
20
514.390596
11
38.170869
21
515.302733
0
LINE
8
annotation
62
1
39
211
10
38.170869
20
515.302733
11
37.116485
21
516.049498
0
LINE
8
annotation
62
1
39
211
10
37.116485
20
516.049498
11
35.939349
21
516.609448
0
LINE
8
annotation
62
1
39
211
10
35.939349
20
516.609448
11
34.660728
21
516.961143
0
LINE
8
annotation
62
1
39
211
10
34.660728
20
516.961143
11
33.301889
21
517.083139
0
LINE
8
annotation
62
1
39
211
10
33.301889
20
517.083139
11
33.301889
21
517.083139
0
LINE
8
annotation
62
1
39
211
10
33.301889
20
517.083139
11
31.945859
21
516.961143
0
LINE
8
annotation
62
1
39
211
10
31.945859
20
516.961143
11
30.668731
21
516.609448
0
LINE
8
annotation
62
1
39
211
10
30.668731
20
516.609448
11
29.492035
21
516.049498
0
LINE
8
annotation
62
1
39
211
10
29.492035
20
516.049498
11
28.437300
21
515.302733
0
LINE
8
annotation
62
1
39
211
10
28.437300
20
515.302733
11
27.526056
21
514.390596
0
LINE
8
annotation
62
1
39
211
10
27.526056
20
514.390596
11
26.779832
21
513.334529
0
LINE
8
annotation
62
1
39
211
10
26.779832
20
513.334529
11
26.220160
21
512.155974
0
LINE
8
annotation
62
1
39
211
10
26.220160
20
512.155974
11
25.868568
21
510.876373
0
LINE
8
annotation
62
1
39
211
10
25.868568
20
510.876373
11
25.746586
21
509.517168
0
LINE
8
annotation
62
1
39
211
10
25.746586
20
509.517168
11
25.746586
21
505.734182
0
LINE
8
annotation
62
1
39
211
10
25.746586
20
505.734182
11
25.746586
21
505.734182
0
LINE
8
annotation
62
1
39
211
10
25.746586
20
505.734182
11
25.868568
21
504.375050
0
LINE
8
annotation
62
1
39
211
10
25.868568
20
504.375050
11
26.220160
21
503.095645
0
LINE
8
annotation
62
1
39
211
10
26.220160
20
503.095645
11
26.779832
21
501.917374
0
LINE
8
annotation
62
1
39
211
10
26.779832
20
501.917374
11
27.526056
21
500.861643
0
LINE
8
annotation
62
1
39
211
10
27.526056
20
500.861643
11
28.437300
21
499.949861
0
LINE
8
annotation
62
1
39
211
10
28.437300
20
499.949861
11
29.492035
21
499.203433
0
LINE
8
annotation
62
1
39
211
10
29.492035
20
499.203433
11
30.668731
21
498.643766
0
LINE
8
annotation
62
1
39
211
10
30.668731
20
498.643766
11
31.945859
21
498.292267
0
LINE
8
annotation
62
1
39
211
10
31.945859
20
498.292267
11
33.301889
21
498.170344
0
LINE
8
annotation
62
1
39
211
10
33.301889
20
498.170344
11
40.857192
21
498.170344
0
LINE
8
annotation
62
1
39
211
10
24.802440
20
478.806813
11
41.814140
21
478.806813
0
LINE
8
hole
62
5
39
2
10
31.381751
20
641.756741
11
31.953251
21
641.756741
0
LINE
8
hole
62
5
39
2
10
31.953251
20
641.756741
11
31.953251
21
642.328241
0
LINE
8
hole
62
5
39
2
10
31.953251
20
642.328241
11
31.381751
21
642.328241
0
LINE
8
hole
62
5
39
2
10
31.381751
20
642.328241
11
31.381751
21
641.756741
0
LINE
8
hole
62
5
39
2
10
51.381752
20
599.756742
11
51.953252
21
599.756742
0
LINE
8
hole
62
5
39
2
10
51.953252
20
599.756742
11
51.953252
21
600.328242
0
LINE
8
hole
62
5
39
2
10
51.953252
20
600.328242
11
51.381752
21
600.328242
0
LINE
8
hole
62
5
39
2
10
51.381752
20
600.328242
11
51.381752
21
599.756742
0
LINE
8
hole
62
5
39
2
10
11.381750
20
599.756742
11
11.953250
21
599.756742
0
LINE
8
hole
62
5
39
2
10
11.953250
20
599.756742
11
11.953250
21
600.328242
0
LINE
8
hole
62
5
39
2
10
11.953250
20
600.328242
11
11.381750
21
600.328242
0
LINE
8
hole
62
5
39
2
10
11.381750
20
600.328242
11
11.381750
21
599.756742
0
LINE
8
hole
62
5
39
2
10
31.381751
20
557.756742
11
31.953251
21
557.756742
0
LINE
8
hole
62
5
39
2
10
31.953251
20
557.756742
11
31.953251
21
558.328242
0
LINE
8
hole
62
5
39
2
10
31.953251
20
558.328242
11
31.381751
21
558.328242
0
LINE
8
hole
62
5
39
2
10
31.381751
20
558.328242
11
31.381751
21
557.756742
0
LINE
8
hole
62
5
39
2
10
30.491931
20
643.924461
11
30.049467
21
644.366921
0
LINE
8
hole
62
5
39
2
10
30.049467
20
644.366921
11
29.765389
21
644.924460
0
LINE
8
hole
62
5
39
2
10
29.765389
20
644.924460
11
29.667502
21
645.542494
0
LINE
8
hole
62
5
39
2
10
29.667502
20
645.542494
11
29.765389
21
646.160525
0
LINE
8
hole
62
5
39
2
10
29.765389
20
646.160525
11
30.049467
21
646.718064
0
LINE
8
hole
62
5
39
2
10
30.049467
20
646.718064
11
30.491931
21
647.160528
0
LINE
8
hole
62
5
39
2
10
30.491931
20
647.160528
11
31.049468
21
647.444607
0
LINE
8
hole
62
5
39
2
10
31.049468
20
647.444607
11
31.667502
21
647.542493
0
LINE
8
hole
62
5
39
2
10
31.667502
20
647.542493
11
32.285537
21
647.444607
0
LINE
8
hole
62
5
39
2
10
32.285537
20
647.444607
11
32.843073
21
647.160528
0
LINE
8
hole
62
5
39
2
10
32.843073
20
647.160528
11
33.285537
21
646.718064
0
LINE
8
hole
62
5
39
2
10
33.285537
20
646.718064
11
33.569614
21
646.160525
0
LINE
8
hole
62
5
39
2
10
33.569614
20
646.160525
11
33.667502
21
645.542494
0
LINE
8
hole
62
5
39
2
10
33.667502
20
645.542494
11
33.569614
21
644.924460
0
LINE
8
hole
62
5
39
2
10
33.569614
20
644.924460
11
33.285537
21
644.366921
0
LINE
8
hole
62
5
39
2
10
33.285537
20
644.366921
11
32.843073
21
643.924461
0
LINE
8
hole
62
5
39
2
10
32.843073
20
643.924461
11
32.285537
21
643.640379
0
LINE
8
hole
62
5
39
2
10
32.285537
20
643.640379
11
31.667502
21
643.542495
0
LINE
8
hole
62
5
39
2
10
31.667502
20
643.542495
11
31.049468
21
643.640379
0
LINE
8
hole
62
5
39
2
10
31.049468
20
643.640379
11
30.491931
21
643.924461
0
LINE
8
hole
62
5
39
2
10
28.728576
20
568.497406
11
27.965327
21
569.260655
0
LINE
8
hole
62
5
39
2
10
27.965327
20
569.260655
11
27.132381
21
570.565314
0
LINE
8
hole
62
5
39
2
10
27.132381
20
570.565314
11
26.743365
21
572.063513
0
LINE
8
hole
62
5
39
2
10
26.743365
20
572.063513
11
26.836357
21
573.608600
0
LINE
8
hole
62
5
39
2
10
26.836357
20
573.608600
11
27.402256
21
575.049327
0
LINE
8
hole
62
5
39
2
10
27.402256
20
575.049327
11
28.385667
21
576.244667
0
LINE
8
hole
62
5
39
2
10
28.385667
20
576.244667
11
29.690326
21
577.077613
0
LINE
8
hole
62
5
39
2
10
29.690326
20
577.077613
11
31.188525
21
577.466628
0
LINE
8
hole
62
5
39
2
10
31.188525
20
577.466628
11
32.733611
21
577.373636
0
LINE
8
hole
62
5
39
2
10
32.733611
20
577.373636
11
34.174337
21
576.807738
0
LINE
8
hole
62
5
39
2
10
34.174337
20
576.807738
11
35.369678
21
575.824326
0
LINE
8
hole
62
5
39
2
10
35.369678
20
575.824326
11
36.202624
21
574.519668
0
LINE
8
hole
62
5
39
2
10
36.202624
20
574.519668
11
36.591639
21
573.021467
0
LINE
8
hole
62
5
39
2
10
36.591639
20
573.021467
11
36.498647
21
571.476381
0
LINE
8
hole
62
5
39
2
10
36.498647
20
571.476381
11
35.932749
21
570.035655
0
LINE
8
hole
62
5
39
2
10
35.932749
20
570.035655
11
34.949338
21
568.840315
0
LINE
8
hole
62
5
39
2
10
34.949338
20
568.840315
11
33.644678
21
568.007370
0
LINE
8
hole
62
5
39
2
10
33.644678
20
568.007370
11
32.146479
21
567.618354
0
LINE
8
hole
62
5
39
2
10
32.146479
20
567.618354
11
30.601394
21
567.711346
0
LINE
8
hole
62
5
39
2
10
30.601394
20
567.711346
11
29.160666
21
568.277245
0
LINE
8
hole
62
5
39
2
10
29.160666
20
568.277245
11
28.728576
21
568.497406
0
LINE
8
boundary
62
5
39
2
10
12.231881
20
556.923120
11
13.989832
21
554.864823
0
LINE
8
boundary
62
5
39
2
10
13.989832
20
554.864823
11
14.914574
21
554.075018
0
LINE
8
boundary
62
5
39
2
10
14.914574
20
554.075018
11
16.972870
21
552.317065
0
LINE
8
boundary
62
5
39
2
10
16.972870
20
552.317065
11
18.009779
21
551.681647
0
LINE
8
boundary
62
5
39
2
10
18.009779
20
551.681647
11
20.317739
21
550.267329
0
LINE
8
boundary
62
5
39
2
10
20.317739
20
550.267329
11
21.441284
21
549.801942
0
LINE
8
boundary
62
5
39
2
10
21.441284
20
549.801942
11
23.942077
21
548.766079
0
LINE
8
boundary
62
5
39
2
10
23.942077
20
548.766079
11
25.124592
21
548.482184
0
LINE
8
boundary
62
5
39
2
10
25.124592
20
548.482184
11
27.756640
21
547.850286
0
LINE
8
boundary
62
5
39
2
10
27.756640
20
547.850286
11
28.969008
21
547.754870
0
LINE
8
boundary
62
5
39
2
10
28.969008
20
547.754870
11
31.667502
21
547.542493
0
LINE
8
boundary
62
5
39
2
10
31.667502
20
547.542493
11
32.879869
21
547.637909
0
LINE
8
boundary
62
5
39
2
10
32.879869
20
547.637909
11
35.578363
21
547.850286
0
LINE
8
boundary
62
5
39
2
10
35.578363
20
547.850286
11
36.760878
21
548.134182
0
LINE
8
boundary
62
5
39
2
10
36.760878
20
548.134182
11
39.392927
21
548.766079
0
LINE
8
boundary
62
5
39
2
10
39.392927
20
548.766079
11
40.516472
21
549.231467
0
LINE
8
boundary
62
5
39
2
10
40.516472
20
549.231467
11
43.017265
21
550.267329
0
LINE
8
boundary
62
5
39
2
10
43.017265
20
550.267329
11
44.054174
21
550.902747
0
LINE
8
boundary
62
5
39
2
10
44.054174
20
550.902747
11
46.362132
21
552.317065
0
LINE
8
boundary
62
5
39
2
10
46.362132
20
552.317065
11
47.286875
21
553.106870
0
LINE
8
boundary
62
5
39
2
10
47.286875
20
553.106870
11
49.345172
21
554.864823
0
LINE
8
boundary
62
5
39
2
10
49.345172
20
554.864823
11
50.134977
21
555.789565
0
LINE
8
boundary
62
5
39
2
10
50.134977
20
555.789565
11
51.892930
21
557.847862
0
LINE
8
boundary
62
5
39
2
10
51.892930
20
557.847862
11
52.528348
21
558.884771
0
LINE
8
boundary
62
5
39
2
10
52.528348
20
558.884771
11
53.942665
21
561.192728
0
LINE
8
boundary
62
5
39
2
10
53.942665
20
561.192728
11
54.408052
21
562.316274
0
LINE
8
boundary
62
5
39
2
10
54.408052
20
562.316274
11
55.443914
21
564.817068
0
LINE
8
boundary
62
5
39
2
10
55.443914
20
564.817068
11
55.727810
21
565.999581
0
LINE
8
boundary
62
5
39
2
10
55.727810
20
565.999581
11
56.359710
21
568.631627
0
LINE
8
boundary
62
5
39
2
10
56.359710
20
568.631627
11
56.455125
21
569.843995
0
LINE
8
boundary
62
5
39
2
10
56.455125
20
569.843995
11
56.667502
21
572.542490
0
LINE
8
boundary
62
5
39
2
10
56.667502
20
572.542490
11
56.667502
21
580.292491
0
LINE
8
boundary
62
5
39
2
10
56.667502
20
580.292491
11
56.667502
21
635.492489
0
LINE
8
boundary
62
5
39
2
10
56.667502
20
635.492489
11
56.667502
21
644.017490
0
LINE
8
boundary
62
5
39
2
10
56.667502
20
644.017490
11
56.667502
21
652.542491
0
LINE
8
boundary
62
5
39
2
10
56.667502
20
652.542491
11
55.505002
21
652.542491
0
LINE
8
boundary
62
5
39
2
10
55.505002
20
652.542491
11
54.342502
21
652.542491
0
LINE
8
boundary
62
5
39
2
10
54.342502
20
652.542491
11
43.492500
21
652.542491
0
LINE
8
boundary
62
5
39
2
10
43.492500
20
652.542491
11
8.992501
21
652.542491
0
LINE
8
boundary
62
5
39
2
10
8.992501
20
652.542491
11
6.667500
21
652.542491
0
LINE
8
boundary
62
5
39
2
10
6.667500
20
652.542491
11
6.667500
21
644.017490
0
LINE
8
boundary
62
5
39
2
10
6.667500
20
644.017490
11
6.667500
21
635.492489
0
LINE
8
boundary
62
5
39
2
10
6.667500
20
635.492489
11
6.667500
21
580.292491
0
LINE
8
boundary
62
5
39
2
10
6.667500
20
580.292491
11
6.667500
21
572.542490
0
LINE
8
boundary
62
5
39
2
10
6.667500
20
572.542490
11
6.762916
21
571.330122
0
LINE
8
boundary
62
5
39
2
10
6.762916
20
571.330122
11
6.975292
21
568.631627
0
LINE
8
boundary
62
5
39
2
10
6.975292
20
568.631627
11
7.259189
21
567.449114
0
LINE
8
boundary
62
5
39
2
10
7.259189
20
567.449114
11
7.891089
21
564.817068
0
LINE
8
boundary
62
5
39
2
10
7.891089
20
564.817068
11
8.356476
21
563.693523
0
LINE
8
boundary
62
5
39
2
10
8.356476
20
563.693523
11
9.392338
21
561.192728
0
LINE
8
boundary
62
5
39
2
10
9.392338
20
561.192728
11
10.027757
21
560.155820
0
LINE
8
boundary
62
5
39
2
10
10.027757
20
560.155820
11
11.442077
21
557.847862
0
LINE
8
boundary
62
5
39
2
10
11.442077
20
557.847862
11
12.231881
21
556.923120
0
LINE
8
annotation
62
1
39
211
10
51.667502
20
600.042492
11
51.667502
21
601.471242
0
LINE
8
annotation
62
1
39
211
10
51.667502
20
600.042492
11
51.667502
21
601.471242
0
LINE
8
annotation
62
1
39
211
10
51.667502
20
601.471242
11
51.667502
21
600.042492
0
LINE
8
annotation
62
1
39
211
10
51.667502
20
600.042492
11
51.667502
21
598.613742
0
LINE
8
annotation
62
1
39
211
10
11.667500
20
600.042492
11
13.096250
21
600.042492
0
LINE
8
annotation
62
1
39
211
10
11.667500
20
600.042492
11
13.096250
21
600.042492
0
LINE
8
annotation
62
1
39
211
10
13.096250
20
600.042492
11
11.667500
21
600.042492
0
LINE
8
annotation
62
1
39
211
10
11.667500
20
600.042492
11
11.667500
21
598.613742
0
LINE
8
annotation
62
1
39
211
10
31.667501
20
642.042491
11
31.667501
21
643.471241
0
LINE
8
annotation
62
1
39
211
10
31.667501
20
558.042492
11
33.096251
21
558.042492
0
LINE
8
annotation
62
1
39
211
10
24.310437
20
596.406503
11
24.310437
21
626.649527
0
LINE
8
annotation
62
1
39
211
10
24.310437
20
626.649527
11
17.587026
21
619.924219
0
LINE
8
annotation
62
1
39
211
10
40.508457
20
596.805419
11
40.508457
21
596.805419
0
LINE
8
annotation
62
1
39
211
10
40.508457
20
596.805419
11
41.211342
21
596.542662
0
LINE
8
annotation
62
1
39
211
10
41.211342
20
596.542662
11
41.932210
21
596.412120
0
LINE
8
annotation
62
1
39
211
10
41.932210
20
596.412120
11
42.654764
21
596.408470
0
LINE
8
annotation
62
1
39
211
10
42.654764
20
596.408470
11
43.362708
21
596.526389
0
LINE
8
annotation
62
1
39
211
10
43.362708
20
596.526389
11
44.039743
21
596.760554
0
LINE
8
annotation
62
1
39
211
10
44.039743
20
596.760554
11
44.669575
21
597.105643
0
LINE
8
annotation
62
1
39
211
10
44.669575
20
597.105643
11
45.235906
21
597.556331
0
LINE
8
annotation
62
1
39
211
10
45.235906
20
597.556331
11
45.722440
21
598.107297
0
LINE
8
annotation
62
1
39
211
10
45.722440
20
598.107297
11
46.112880
21
598.753217
0
LINE
8
annotation
62
1
39
211
10
46.112880
20
598.753217
11
46.112880
21
598.753217
0
LINE
8
annotation
62
1
39
211
10
46.112880
20
598.753217
11
47.277808
21
601.480017
0
LINE
8
annotation
62
1
39
211
10
47.277808
20
601.480017
11
48.151504
21
604.285739
0
LINE
8
annotation
62
1
39
211
10
48.151504
20
604.285739
11
48.733967
21
607.148016
0
LINE
8
annotation
62
1
39
211
10
48.733967
20
607.148016
11
49.025199
21
610.044478
0
LINE
8
annotation
62
1
39
211
10
49.025199
20
610.044478
11
49.025199
21
612.952757
0
LINE
8
annotation
62
1
39
211
10
49.025199
20
612.952757
11
48.733967
21
615.850484
0
LINE
8
annotation
62
1
39
211
10
48.733967
20
615.850484
11
48.151504
21
618.715290
0
LINE
8
annotation
62
1
39
211
10
48.151504
20
618.715290
11
47.277808
21
621.524805
0
LINE
8
annotation
62
1
39
211
10
47.277808
20
621.524805
11
46.112880
21
624.256662
0
LINE
8
annotation
62
1
39
211
10
46.112880
20
624.256662
11
46.112880
21
624.256662
0
LINE
8
annotation
62
1
39
211
10
46.112880
20
624.256662
11
45.964735
21
624.532365
0
LINE
8
annotation
62
1
39
211
10
45.964735
20
624.532365
11
45.796782
21
624.795955
0
LINE
8
annotation
62
1
39
211
10
45.796782
20
624.795955
11
45.610284
21
625.046136
0
LINE
8
annotation
62
1
39
211
10
45.610284
20
625.046136
11
45.406506
21
625.281612
0
LINE
8
annotation
62
1
39
211
10
45.406506
20
625.281612
11
45.186712
21
625.501088
0
LINE
8
annotation
62
1
39
211
10
45.186712
20
625.501088
11
44.952167
21
625.703269
0
LINE
8
annotation
62
1
39
211
10
44.952167
20
625.703269
11
44.704135
21
625.886858
0
LINE
8
annotation
62
1
39
211
10
44.704135
20
625.886858
11
44.443881
21
626.050561
0
LINE
8
annotation
62
1
39
211
10
44.443881
20
626.050561
11
44.172669
21
626.193081
0
LINE
8
annotation
62
1
39
211
10
44.172669
20
626.193081
11
44.172669
21
626.193081
0
LINE
8
annotation
62
1
39
211
10
44.172669
20
626.193081
11
43.464202
21
626.461533
0
LINE
8
annotation
62
1
39
211
10
43.464202
20
626.461533
11
42.739112
21
626.596537
0
LINE
8
annotation
62
1
39
211
10
42.739112
20
626.596537
11
42.013506
21
626.603447
0
LINE
8
annotation
62
1
39
211
10
42.013506
20
626.603447
11
41.303495
21
626.487617
0
LINE
8
annotation
62
1
39
211
10
41.303495
20
626.487617
11
40.625187
21
626.254401
0
LINE
8
annotation
62
1
39
211
10
40.625187
20
626.254401
11
39.994692
21
625.909154
0
LINE
8
annotation
62
1
39
211
10
39.994692
20
625.909154
11
39.428119
21
625.457230
0
LINE
8
annotation
62
1
39
211
10
39.428119
20
625.457230
11
38.941577
21
624.903982
0
LINE
8
annotation
62
1
39
211
10
38.941577
20
624.903982
11
38.551176
21
624.254766
0
LINE
8
annotation
62
1
39
211
10
38.551176
20
624.254766
11
38.551176
21
624.254766
0
LINE
8
annotation
62
1
39
211
10
38.551176
20
624.254766
11
37.391868
21
621.528528
0
LINE
8
annotation
62
1
39
211
10
37.391868
20
621.528528
11
36.522387
21
618.723227
0
LINE
8
annotation
62
1
39
211
10
36.522387
20
618.723227
11
35.942733
21
615.861231
0
LINE
8
annotation
62
1
39
211
10
35.942733
20
615.861231
11
35.652905
21
612.964910
0
LINE
8
annotation
62
1
39
211
10
35.652905
20
612.964910
11
35.652905
21
610.056631
0
LINE
8
annotation
62
1
39
211
10
35.652905
20
610.056631
11
35.942733
21
607.158763
0
LINE
8
annotation
62
1
39
211
10
35.942733
20
607.158763
11
36.522387
21
604.293677
0
LINE
8
annotation
62
1
39
211
10
36.522387
20
604.293677
11
37.391868
21
601.483740
0
LINE
8
annotation
62
1
39
211
10
37.391868
20
601.483740
11
38.551176
21
598.751321
0
LINE
8
annotation
62
1
39
211
10
38.551176
20
598.751321
11
38.551176
21
598.751321
0
LINE
8
annotation
62
1
39
211
10
38.551176
20
598.751321
11
38.698782
21
598.476167
0
LINE
8
annotation
62
1
39
211
10
38.698782
20
598.476167
11
38.865495
21
598.213891
0
LINE
8
annotation
62
1
39
211
10
38.865495
20
598.213891
11
39.050611
21
597.965289
0
LINE
8
annotation
62
1
39
211
10
39.050611
20
597.965289
11
39.253429
21
597.731158
0
LINE
8
annotation
62
1
39
211
10
39.253429
20
597.731158
11
39.473246
21
597.512293
0
LINE
8
annotation
62
1
39
211
10
39.473246
20
597.512293
11
39.709360
21
597.309491
0
LINE
8
annotation
62
1
39
211
10
39.709360
20
597.309491
11
39.961068
21
597.123547
0
LINE
8
annotation
62
1
39
211
10
39.961068
20
597.123547
11
40.227668
21
596.955258
0
LINE
8
annotation
62
1
39
211
10
40.227668
20
596.955258
11
40.508457
21
596.805419
0
LINE
8
hole
62
5
39
2
10
31.381751
20
749.931740
11
31.953251
21
749.931740
0
LINE
8
hole
62
5
39
2
10
31.953251
20
749.931740
11
31.953251
21
750.503240
0
LINE
8
hole
62
5
39
2
10
31.953251
20
750.503240
11
31.381751
21
750.503240
0
LINE
8
hole
62
5
39
2
10
31.381751
20
750.503240
11
31.381751
21
749.931740
0
LINE
8
hole
62
5
39
2
10
31.381751
20
665.931741
11
31.953251
21
665.931741
0
LINE
8
hole
62
5
39
2
10
31.953251
20
665.931741
11
31.953251
21
666.503241
0
LINE
8
hole
62
5
39
2
10
31.953251
20
666.503241
11
31.381751
21
666.503241
0
LINE
8
hole
62
5
39
2
10
31.381751
20
666.503241
11
31.381751
21
665.931741
0
LINE
8
hole
62
5
39
2
10
30.491931
20
752.099459
11
30.062741
21
752.528646
0
LINE
8
hole
62
5
39
2
10
30.062741
20
752.528646
11
29.773912
21
753.082732
0
LINE
8
hole
62
5
39
2
10
29.773912
20
753.082732
11
29.670439
21
753.698952
0
LINE
8
hole
62
5
39
2
10
29.670439
20
753.698952
11
29.762453
21
754.316983
0
LINE
8
hole
62
5
39
2
10
29.762453
20
754.316983
11
30.040945
21
754.876337
0
LINE
8
hole
62
5
39
2
10
30.040945
20
754.876337
11
30.478657
21
755.322252
0
LINE
8
hole
62
5
39
2
10
30.478657
20
755.322252
11
31.032742
21
755.611083
0
LINE
8
hole
62
5
39
2
10
31.032742
20
755.611083
11
31.648961
21
755.714555
0
LINE
8
hole
62
5
39
2
10
31.648961
20
755.714555
11
32.266996
21
755.622542
0
LINE
8
hole
62
5
39
2
10
32.266996
20
755.622542
11
32.826346
21
755.344049
0
LINE
8
hole
62
5
39
2
10
32.826346
20
755.344049
11
33.272263
21
754.906337
0
LINE
8
hole
62
5
39
2
10
33.272263
20
754.906337
11
33.561092
21
754.352250
0
LINE
8
hole
62
5
39
2
10
33.561092
20
754.352250
11
33.664565
21
753.736034
0
LINE
8
hole
62
5
39
2
10
33.664565
20
753.736034
11
33.572551
21
753.118000
0
LINE
8
hole
62
5
39
2
10
33.572551
20
753.118000
11
33.294059
21
752.558646
0
LINE
8
hole
62
5
39
2
10
33.294059
20
752.558646
11
32.856347
21
752.112733
0
LINE
8
hole
62
5
39
2
10
32.856347
20
752.112733
11
32.302263
21
751.823900
0
LINE
8
hole
62
5
39
2
10
32.302263
20
751.823900
11
31.686043
21
751.720430
0
LINE
8
hole
62
5
39
2
10
31.686043
20
751.720430
11
31.068009
21
751.812441
0
LINE
8
hole
62
5
39
2
10
31.068009
20
751.812441
11
30.508657
21
752.090937
0
LINE
8
hole
62
5
39
2
10
30.508657
20
752.090937
11
30.491931
21
752.099459
0
LINE
8
hole
62
5
39
2
10
28.728576
20
676.672404
11
27.655602
21
677.745378
0
LINE
8
hole
62
5
39
2
10
27.655602
20
677.745378
11
26.933525
21
679.130588
0
LINE
8
hole
62
5
39
2
10
26.933525
20
679.130588
11
26.674844
21
680.671136
0
LINE
8
hole
62
5
39
2
10
26.674844
20
680.671136
11
26.904878
21
682.216223
0
LINE
8
hole
62
5
39
2
10
26.904878
20
682.216223
11
27.601112
21
683.614600
0
LINE
8
hole
62
5
39
2
10
27.601112
20
683.614600
11
28.695391
21
684.729390
0
LINE
8
hole
62
5
39
2
10
28.695391
20
684.729390
11
30.080602
21
685.451467
0
LINE
8
hole
62
5
39
2
10
30.080602
20
685.451467
11
31.621149
21
685.710147
0
LINE
8
hole
62
5
39
2
10
31.621149
20
685.710147
11
33.166235
21
685.480114
0
LINE
8
hole
62
5
39
2
10
33.166235
20
685.480114
11
34.564613
21
684.783881
0
LINE
8
hole
62
5
39
2
10
34.564613
20
684.783881
11
35.679403
21
683.689600
0
LINE
8
hole
62
5
39
2
10
35.679403
20
683.689600
11
36.401479
21
682.304391
0
LINE
8
hole
62
5
39
2
10
36.401479
20
682.304391
11
36.660160
21
680.763841
0
LINE
8
hole
62
5
39
2
10
36.660160
20
680.763841
11
36.430127
21
679.218756
0
LINE
8
hole
62
5
39
2
10
36.430127
20
679.218756
11
35.733894
21
677.820378
0
LINE
8
hole
62
5
39
2
10
35.733894
20
677.820378
11
34.639613
21
676.705589
0
LINE
8
hole
62
5
39
2
10
34.639613
20
676.705589
11
33.254403
21
675.983513
0
LINE
8
hole
62
5
39
2
10
33.254403
20
675.983513
11
31.713854
21
675.724832
0
LINE
8
hole
62
5
39
2
10
31.713854
20
675.724832
11
30.168770
21
675.954865
0
LINE
8
hole
62
5
39
2
10
30.168770
20
675.954865
11
28.770391
21
676.651098
0
LINE
8
hole
62
5
39
2
10
28.770391
20
676.651098
11
28.728576
21
676.672404
0
LINE
8
boundary
62
5
39
2
10
11.518510
20
665.933369
11
13.989832
21
663.039821
0
LINE
8
boundary
62
5
39
2
10
13.989832
20
663.039821
11
16.972870
21
660.492063
0
LINE
8
boundary
62
5
39
2
10
16.972870
20
660.492063
11
20.317739
21
658.442328
0
LINE
8
boundary
62
5
39
2
10
20.317739
20
658.442328
11
23.942077
21
656.941078
0
LINE
8
boundary
62
5
39
2
10
23.942077
20
656.941078
11
27.756640
21
656.025285
0
LINE
8
boundary
62
5
39
2
10
27.756640
20
656.025285
11
31.667502
21
655.717491
0
LINE
8
boundary
62
5
39
2
10
31.667502
20
655.717491
11
35.578363
21
656.025285
0
LINE
8
boundary
62
5
39
2
10
35.578363
20
656.025285
11
39.392927
21
656.941078
0
LINE
8
boundary
62
5
39
2
10
39.392927
20
656.941078
11
43.017265
21
658.442328
0
LINE
8
boundary
62
5
39
2
10
43.017265
20
658.442328
11
46.362132
21
660.492063
0
LINE
8
boundary
62
5
39
2
10
46.362132
20
660.492063
11
49.345172
21
663.039821
0
LINE
8
boundary
62
5
39
2
10
49.345172
20
663.039821
11
51.892930
21
666.022861
0
LINE
8
boundary
62
5
39
2
10
51.892930
20
666.022861
11
53.942665
21
669.367727
0
LINE
8
boundary
62
5
39
2
10
53.942665
20
669.367727
11
55.443914
21
672.992066
0
LINE
8
boundary
62
5
39
2
10
55.443914
20
672.992066
11
56.359710
21
676.806626
0
LINE
8
boundary
62
5
39
2
10
56.359710
20
676.806626
11
56.667502
21
680.717488
0
LINE
8
boundary
62
5
39
2
10
56.667502
20
680.717488
11
56.667502
21
681.467489
0
LINE
8
boundary
62
5
39
2
10
56.667502
20
681.467489
11
56.667502
21
759.067487
0
LINE
8
boundary
62
5
39
2
10
56.667502
20
759.067487
11
56.667502
21
759.892488
0
LINE
8
boundary
62
5
39
2
10
56.667502
20
759.892488
11
56.667502
21
760.717489
0
LINE
8
boundary
62
5
39
2
10
56.667502
20
760.717489
11
55.392500
21
760.717489
0
LINE
8
boundary
62
5
39
2
10
55.392500
20
760.717489
11
6.892501
21
760.717489
0
LINE
8
boundary
62
5
39
2
10
6.892501
20
760.717489
11
6.667500
21
759.892488
0
LINE
8
boundary
62
5
39
2
10
6.667500
20
759.892488
11
6.667500
21
759.067487
0
LINE
8
boundary
62
5
39
2
10
6.667500
20
759.067487
11
6.667500
21
681.467489
0
LINE
8
boundary
62
5
39
2
10
6.667500
20
681.467489
11
6.667500
21
680.717488
0
LINE
8
boundary
62
5
39
2
10
6.667500
20
680.717488
11
6.975292
21
676.806626
0
LINE
8
boundary
62
5
39
2
10
6.975292
20
676.806626
11
7.891089
21
672.992066
0
LINE
8
boundary
62
5
39
2
10
7.891089
20
672.992066
11
9.392338
21
669.367727
0
LINE
8
boundary
62
5
39
2
10
9.392338
20
669.367727
11
11.442077
21
666.022860
0
LINE
8
boundary
62
5
39
2
10
11.442077
20
666.022860
11
11.518510
21
665.933369
0
LINE
8
annotation
62
1
39
211
10
31.667501
20
750.217490
11
31.667501
21
751.646240
0
LINE
8
annotation
62
1
39
211
10
31.667501
20
666.217491
11
33.096251
21
666.217491
0
LINE
8
annotation
62
1
39
211
10
26.925702
20
699.409735
11
26.925702
21
733.433136
0
LINE
8
annotation
62
1
39
211
10
26.925702
20
733.433136
11
19.361864
21
725.867165
0
LINE
8
annotation
62
1
39
211
10
47.248315
20
699.409735
11
47.248315
21
733.433136
0
LINE
8
annotation
62
1
39
211
10
47.248315
20
733.433136
11
39.684477
21
725.867165
0
LINE
8
hole
62
5
39
2
10
31.619876
20
802.939864
11
32.191376
21
802.939864
0
LINE
8
hole
62
5
39
2
10
32.191376
20
802.939864
11
32.191376
21
803.511364
0
LINE
8
hole
62
5
39
2
10
32.191376
20
803.511364
11
31.619876
21
803.511364
0
LINE
8
hole
62
5
39
2
10
31.619876
20
803.511364
11
31.619876
21
802.939864
0
LINE
8
hole
62
5
39
2
10
51.619877
20
766.821115
11
52.191377
21
766.821115
0
LINE
8
hole
62
5
39
2
10
52.191377
20
766.821115
11
52.191377
21
767.392615
0
LINE
8
hole
62
5
39
2
10
52.191377
20
767.392615
11
51.619877
21
767.392615
0
LINE
8
hole
62
5
39
2
10
51.619877
20
767.392615
11
51.619877
21
766.821115
0
LINE
8
hole
62
5
39
2
10
31.381751
20
769.106739
11
31.953251
21
769.106739
0
LINE
8
hole
62
5
39
2
10
31.953251
20
769.106739
11
31.953251
21
769.678239
0
LINE
8
hole
62
5
39
2
10
31.953251
20
769.678239
11
31.381751
21
769.678239
0
LINE
8
hole
62
5
39
2
10
31.381751
20
769.678239
11
31.381751
21
769.106739
0
LINE
8
hole
62
5
39
2
10
11.619875
20
766.821115
11
12.191375
21
766.821115
0
LINE
8
hole
62
5
39
2
10
12.191375
20
766.821115
11
12.191375
21
767.392615
0
LINE
8
hole
62
5
39
2
10
12.191375
20
767.392615
11
11.619875
21
767.392615
0
LINE
8
hole
62
5
39
2
10
11.619875
20
767.392615
11
11.619875
21
766.821115
0
LINE
8
boundary
62
5
39
2
10
7.167500
20
763.892489
11
56.667502
21
763.892489
0
LINE
8
boundary
62
5
39
2
10
56.667502
20
763.892489
11
56.667502
21
818.892489
0
LINE
8
boundary
62
5
39
2
10
56.667502
20
818.892489
11
49.205002
21
818.892489
0
LINE
8
boundary
62
5
39
2
10
49.205002
20
818.892489
11
49.167502
21
805.032489
0
LINE
8
boundary
62
5
39
2
10
49.167502
20
805.032489
11
14.517501
21
804.892489
0
LINE
8
boundary
62
5
39
2
10
14.517501
20
804.892489
11
14.167501
21
818.752489
0
LINE
8
boundary
62
5
39
2
10
14.167501
20
818.752489
11
10.455001
21
818.892489
0
LINE
8
boundary
62
5
39
2
10
10.455001
20
818.892489
11
6.667500
21
818.892489
0
LINE
8
boundary
62
5
39
2
10
6.667500
20
818.892489
11
6.667500
21
764.167489
0
LINE
8
boundary
62
5
39
2
10
6.667500
20
764.167489
11
7.167500
21
763.892489
0
LINE
8
annotation
62
1
39
211
10
51.905627
20
767.106865
11
51.905627
21
768.535615
0
LINE
8
annotation
62
1
39
211
10
51.905627
20
767.106865
11
51.905627
21
768.535615
0
LINE
8
annotation
62
1
39
211
10
51.905627
20
768.535615
11
51.905627
21
767.106865
0
LINE
8
annotation
62
1
39
211
10
51.905627
20
767.106865
11
51.905627
21
765.678115
0
LINE
8
annotation
62
1
39
211
10
11.905625
20
767.106865
11
13.334375
21
767.106865
0
LINE
8
annotation
62
1
39
211
10
11.905625
20
767.106865
11
13.334375
21
767.106865
0
LINE
8
annotation
62
1
39
211
10
13.334375
20
767.106865
11
11.905625
21
767.106865
0
LINE
8
annotation
62
1
39
211
10
11.905625
20
767.106865
11
11.905625
21
765.678115
0
LINE
8
annotation
62
1
39
211
10
31.905626
20
803.225614
11
31.905626
21
804.654364
0
LINE
8
annotation
62
1
39
211
10
31.667501
20
769.392489
11
33.096251
21
769.392489
0
LINE
8
annotation
62
1
39
211
10
38.571496
20
777.608709
11
26.476964
21
777.608709
0
LINE
8
annotation
62
1
39
211
10
26.476964
20
777.608709
11
31.307127
21
794.548430
0
LINE
8
annotation
62
1
39
211
10
34.946141
20
772.766252
11
34.946141
21
782.440238
0
LINE
8
hole
62
5
39
2
10
51.381752
20
849.281739
11
51.953252
21
849.281739
0
LINE
8
hole
62
5
39
2
10
51.953252
20
849.281739
11
51.953252
21
849.853239
0
LINE
8
hole
62
5
39
2
10
51.953252
20
849.853239
11
51.381752
21
849.853239
0
LINE
8
hole
62
5
39
2
10
51.381752
20
849.853239
11
51.381752
21
849.281739
0
LINE
8
hole
62
5
39
2
10
11.381750
20
849.281739
11
11.953250
21
849.281739
0
LINE
8
hole
62
5
39
2
10
11.953250
20
849.281739
11
11.953250
21
849.853239
0
LINE
8
hole
62
5
39
2
10
11.953250
20
849.853239
11
11.381750
21
849.853239
0
LINE
8
hole
62
5
39
2
10
11.381750
20
849.853239
11
11.381750
21
849.281739
0
LINE
8
hole
62
5
39
2
10
31.619876
20
861.114864
11
32.191376
21
861.114864
0
LINE
8
hole
62
5
39
2
10
32.191376
20
861.114864
11
32.191376
21
861.686364
0
LINE
8
hole
62
5
39
2
10
32.191376
20
861.686364
11
31.619876
21
861.686364
0
LINE
8
hole
62
5
39
2
10
31.619876
20
861.686364
11
31.619876
21
861.114864
0
LINE
8
hole
62
5
39
2
10
31.381751
20
827.281739
11
31.953251
21
827.281739
0
LINE
8
hole
62
5
39
2
10
31.953251
20
827.281739
11
31.953251
21
827.853239
0
LINE
8
hole
62
5
39
2
10
31.953251
20
827.853239
11
31.381751
21
827.853239
0
LINE
8
hole
62
5
39
2
10
31.381751
20
827.853239
11
31.381751
21
827.281739
0
LINE
8
boundary
62
5
39
2
10
21.167500
20
822.067489
11
56.667502
21
822.067489
0
LINE
8
boundary
62
5
39
2
10
56.667502
20
822.067489
11
56.667502
21
830.042488
0
LINE
8
boundary
62
5
39
2
10
56.667502
20
830.042488
11
56.667502
21
877.067488
0
LINE
8
boundary
62
5
39
2
10
56.667502
20
877.067488
11
50.255002
21
877.067488
0
LINE
8
boundary
62
5
39
2
10
50.255002
20
877.067488
11
49.167503
21
877.067488
0
LINE
8
boundary
62
5
39
2
10
49.167503
20
877.067488
11
49.167502
21
867.127488
0
LINE
8
boundary
62
5
39
2
10
49.167502
20
867.127488
11
49.167503
21
863.067489
0
LINE
8
boundary
62
5
39
2
10
49.167503
20
863.067489
11
24.317501
21
863.067489
0
LINE
8
boundary
62
5
39
2
10
24.317501
20
863.067489
11
14.167501
21
863.067489
0
LINE
8
boundary
62
5
39
2
10
14.167501
20
863.067489
11
14.167501
21
873.007489
0
LINE
8
boundary
62
5
39
2
10
14.167501
20
873.007489
11
14.167501
21
877.067488
0
LINE
8
boundary
62
5
39
2
10
14.167501
20
877.067488
11
11.505001
21
877.067488
0
LINE
8
boundary
62
5
39
2
10
11.505001
20
877.067488
11
6.667500
21
877.067488
0
LINE
8
boundary
62
5
39
2
10
6.667500
20
877.067488
11
6.667500
21
830.042488
0
LINE
8
boundary
62
5
39
2
10
6.667500
20
830.042488
11
6.667500
21
822.067489
0
LINE
8
boundary
62
5
39
2
10
6.667500
20
822.067489
11
21.167500
21
822.067489
0
LINE
8
annotation
62
1
39
211
10
31.905626
20
861.400614
11
31.905626
21
862.829364
0
LINE
8
annotation
62
1
39
211
10
31.667501
20
827.567489
11
33.096251
21
827.567489
0
LINE
8
annotation
62
1
39
211
10
51.667502
20
849.567489
11
51.667502
21
850.996239
0
LINE
8
annotation
62
1
39
211
10
51.667502
20
849.567489
11
51.667502
21
850.996239
0
LINE
8
annotation
62
1
39
211
10
51.667502
20
850.996239
11
51.667502
21
849.567489
0
LINE
8
annotation
62
1
39
211
10
51.667502
20
849.567489
11
53.096252
21
849.567488
0
LINE
8
annotation
62
1
39
211
10
11.667500
20
849.567489
11
11.667500
21
848.138739
0
LINE
8
annotation
62
1
39
211
10
27.687237
20
830.941251
11
32.524230
21
830.941251
0
LINE
8
annotation
62
1
39
211
10
32.524230
20
830.941251
11
32.524230
21
830.941251
0
LINE
8
annotation
62
1
39
211
10
32.524230
20
830.941251
11
33.392376
21
831.019308
0
LINE
8
annotation
62
1
39
211
10
33.392376
20
831.019308
11
34.210008
21
831.244341
0
LINE
8
annotation
62
1
39
211
10
34.210008
20
831.244341
11
34.963343
21
831.602647
0
LINE
8
annotation
62
1
39
211
10
34.963343
20
831.602647
11
35.638597
21
832.080518
0
LINE
8
annotation
62
1
39
211
10
35.638597
20
832.080518
11
36.221986
21
832.664252
0
LINE
8
annotation
62
1
39
211
10
36.221986
20
832.664252
11
36.699727
21
833.340143
0
LINE
8
annotation
62
1
39
211
10
36.699727
20
833.340143
11
37.058036
21
834.094486
0
LINE
8
annotation
62
1
39
211
10
37.058036
20
834.094486
11
37.283129
21
834.913576
0
LINE
8
annotation
62
1
39
211
10
37.283129
20
834.913576
11
37.361223
21
835.783708
0
LINE
8
annotation
62
1
39
211
10
37.361223
20
835.783708
11
37.361223
21
838.193326
0
LINE
8
annotation
62
1
39
211
10
37.361223
20
838.193326
11
37.361223
21
838.193326
0
LINE
8
annotation
62
1
39
211
10
37.361223
20
838.193326
11
37.283174
21
839.063036
0
LINE
8
annotation
62
1
39
211
10
37.283174
20
839.063036
11
37.058193
21
839.880997
0
LINE
8
annotation
62
1
39
211
10
37.058193
20
839.880997
11
36.700030
21
840.633704
0
LINE
8
annotation
62
1
39
211
10
36.700030
20
840.633704
11
36.222435
21
841.307655
0
LINE
8
annotation
62
1
39
211
10
36.222435
20
841.307655
11
35.639159
21
841.889349
0
LINE
8
annotation
62
1
39
211
10
35.639159
20
841.889349
11
34.963950
21
842.365281
0
LINE
8
annotation
62
1
39
211
10
34.963950
20
842.365281
11
34.210559
21
842.721950
0
LINE
8
annotation
62
1
39
211
10
34.210559
20
842.721950
11
33.392736
21
842.945854
0
LINE
8
annotation
62
1
39
211
10
33.392736
20
842.945854
11
32.524230
21
843.023489
0
LINE
8
annotation
62
1
39
211
10
32.524230
20
843.023489
11
27.687237
21
843.023489
0
LINE
8
annotation
62
1
39
211
10
27.687237
20
843.023489
11
27.687237
21
852.723429
0
LINE
8
annotation
62
1
39
211
10
27.687237
20
852.723429
11
37.361223
21
852.723429
0
LINE
8
hole
62
5
39
2
10
51.381752
20
907.456738
11
51.953252
21
907.456738
0
LINE
8
hole
62
5
39
2
10
51.953252
20
907.456738
11
51.953252
21
908.028238
0
LINE
8
hole
62
5
39
2
10
51.953252
20
908.028238
11
51.381752
21
908.028238
0
LINE
8
hole
62
5
39
2
10
51.381752
20
908.028238
11
51.381752
21
907.456738
0
LINE
8
hole
62
5
39
2
10
11.381750
20
907.456738
11
11.953250
21
907.456738
0
LINE
8
hole
62
5
39
2
10
11.953250
20
907.456738
11
11.953250
21
908.028238
0
LINE
8
hole
62
5
39
2
10
11.953250
20
908.028238
11
11.381750
21
908.028238
0
LINE
8
hole
62
5
39
2
10
11.381750
20
908.028238
11
11.381750
21
907.456738
0
LINE
8
hole
62
5
39
2
10
31.619876
20
919.289863
11
32.191376
21
919.289863
0
LINE
8
hole
62
5
39
2
10
32.191376
20
919.289863
11
32.191376
21
919.861363
0
LINE
8
hole
62
5
39
2
10
32.191376
20
919.861363
11
31.619876
21
919.861363
0
LINE
8
hole
62
5
39
2
10
31.619876
20
919.861363
11
31.619876
21
919.289863
0
LINE
8
hole
62
5
39
2
10
31.381751
20
885.456738
11
31.953251
21
885.456738
0
LINE
8
hole
62
5
39
2
10
31.953251
20
885.456738
11
31.953251
21
886.028238
0
LINE
8
hole
62
5
39
2
10
31.953251
20
886.028238
11
31.381751
21
886.028238
0
LINE
8
hole
62
5
39
2
10
31.381751
20
886.028238
11
31.381751
21
885.456738
0
LINE
8
boundary
62
5
39
2
10
35.167500
20
880.242488
11
56.667502
21
880.242488
0
LINE
8
boundary
62
5
39
2
10
56.667502
20
880.242488
11
56.667502
21
895.917488
0
LINE
8
boundary
62
5
39
2
10
56.667502
20
895.917488
11
56.667502
21
935.242488
0
LINE
8
boundary
62
5
39
2
10
56.667502
20
935.242488
11
51.305002
21
935.242488
0
LINE
8
boundary
62
5
39
2
10
51.305002
20
935.242488
11
49.167503
21
935.242488
0
LINE
8
boundary
62
5
39
2
10
49.167503
20
935.242488
11
49.167502
21
929.222488
0
LINE
8
boundary
62
5
39
2
10
49.167502
20
929.222488
11
49.167503
21
921.242488
0
LINE
8
boundary
62
5
39
2
10
49.167503
20
921.242488
11
34.117501
21
921.242488
0
LINE
8
boundary
62
5
39
2
10
34.117501
20
921.242488
11
14.167501
21
921.242488
0
LINE
8
boundary
62
5
39
2
10
14.167501
20
921.242488
11
14.167501
21
927.262488
0
LINE
8
boundary
62
5
39
2
10
14.167501
20
927.262488
11
14.167501
21
935.242488
0
LINE
8
boundary
62
5
39
2
10
14.167501
20
935.242488
11
12.555001
21
935.242488
0
LINE
8
boundary
62
5
39
2
10
12.555001
20
935.242488
11
6.667500
21
935.242488
0
LINE
8
boundary
62
5
39
2
10
6.667500
20
935.242488
11
6.667500
21
895.917488
0
LINE
8
boundary
62
5
39
2
10
6.667500
20
895.917488
11
6.667500
21
880.242488
0
LINE
8
boundary
62
5
39
2
10
6.667500
20
880.242488
11
35.167500
21
880.242488
0
LINE
8
annotation
62
1
39
211
10
51.667502
20
907.742488
11
51.667502
21
909.171238
0
LINE
8
annotation
62
1
39
211
10
51.667502
20
907.742488
11
51.667502
21
909.171238
0
LINE
8
annotation
62
1
39
211
10
51.667502
20
909.171238
11
51.667502
21
907.742488
0
LINE
8
annotation
62
1
39
211
10
51.667502
20
907.742488
11
53.096252
21
907.742488
0
LINE
8
annotation
62
1
39
211
10
11.667500
20
907.742488
11
11.667500
21
906.313738
0
LINE
8
annotation
62
1
39
211
10
31.905626
20
919.575613
11
31.905626
21
921.004363
0
LINE
8
annotation
62
1
39
211
10
31.905626
20
919.575613
11
31.905626
21
921.004363
0
LINE
8
annotation
62
1
39
211
10
31.905626
20
921.004363
11
31.905626
21
919.575613
0
LINE
8
annotation
62
1
39
211
10
31.905626
20
919.575613
11
31.905626
21
918.146863
0
LINE
8
annotation
62
1
39
211
10
31.667501
20
885.742488
11
33.096251
21
885.742488
0
LINE
8
annotation
62
1
39
211
10
31.667501
20
885.742488
11
33.096251
21
885.742488
0
LINE
8
annotation
62
1
39
211
10
33.096251
20
885.742488
11
31.667501
21
885.742488
0
LINE
8
annotation
62
1
39
211
10
31.667501
20
885.742488
11
31.667501
21
884.313738
0
LINE
8
annotation
62
1
39
211
10
34.952971
20
910.898429
11
34.952971
21
910.898429
0
LINE
8
annotation
62
1
39
211
10
34.952971
20
910.898429
11
33.567295
21
910.378883
0
LINE
8
annotation
62
1
39
211
10
33.567295
20
910.378883
11
32.295754
21
909.678858
0
LINE
8
annotation
62
1
39
211
10
32.295754
20
909.678858
11
31.151404
21
908.815891
0
LINE
8
annotation
62
1
39
211
10
31.151404
20
908.815891
11
30.147295
21
907.807522
0
LINE
8
annotation
62
1
39
211
10
30.147295
20
907.807522
11
29.296482
21
906.671288
0
LINE
8
annotation
62
1
39
211
10
29.296482
20
906.671288
11
28.612016
21
905.424729
0
LINE
8
annotation
62
1
39
211
10
28.612016
20
905.424729
11
28.106952
21
904.085384
0
LINE
8
annotation
62
1
39
211
10
28.106952
20
904.085384
11
27.794341
21
902.670791
0
LINE
8
annotation
62
1
39
211
10
27.794341
20
902.670791
11
27.687237
21
901.198488
0
LINE
8
annotation
62
1
39
211
10
27.687237
20
901.198488
11
27.687237
21
893.958708
0
LINE
8
annotation
62
1
39
211
10
27.687237
20
893.958708
11
27.687237
21
893.958708
0
LINE
8
annotation
62
1
39
211
10
27.687237
20
893.958708
11
27.765331
21
893.088576
0
LINE
8
annotation
62
1
39
211
10
27.765331
20
893.088576
11
27.990424
21
892.269486
0
LINE
8
annotation
62
1
39
211
10
27.990424
20
892.269486
11
28.348733
21
891.515143
0
LINE
8
annotation
62
1
39
211
10
28.348733
20
891.515143
11
28.826474
21
890.839252
0
LINE
8
annotation
62
1
39
211
10
28.826474
20
890.839252
11
29.409863
21
890.255518
0
LINE
8
annotation
62
1
39
211
10
29.409863
20
890.255518
11
30.085117
21
889.777646
0
LINE
8
annotation
62
1
39
211
10
30.085117
20
889.777646
11
30.838452
21
889.419341
0
LINE
8
annotation
62
1
39
211
10
30.838452
20
889.419341
11
31.656084
21
889.194307
0
LINE
8
annotation
62
1
39
211
10
31.656084
20
889.194307
11
32.524230
21
889.116251
0
LINE
8
annotation
62
1
39
211
10
32.524230
20
889.116251
11
32.524230
21
889.116251
0
LINE
8
annotation
62
1
39
211
10
32.524230
20
889.116251
11
33.394175
21
889.194307
0
LINE
8
annotation
62
1
39
211
10
33.394175
20
889.194307
11
34.212763
21
889.419341
0
LINE
8
annotation
62
1
39
211
10
34.212763
20
889.419341
11
34.966378
21
889.777646
0
LINE
8
annotation
62
1
39
211
10
34.966378
20
889.777646
11
35.641407
21
890.255518
0
LINE
8
annotation
62
1
39
211
10
35.641407
20
890.255518
11
36.224234
21
890.839252
0
LINE
8
annotation
62
1
39
211
10
36.224234
20
890.839252
11
36.701244
21
891.515143
0
LINE
8
annotation
62
1
39
211
10
36.701244
20
891.515143
11
37.058823
21
892.269486
0
LINE
8
annotation
62
1
39
211
10
37.058823
20
892.269486
11
37.283354
21
893.088576
0
LINE
8
annotation
62
1
39
211
10
37.283354
20
893.088576
11
37.361223
21
893.958708
0
LINE
8
annotation
62
1
39
211
10
37.361223
20
893.958708
11
37.361223
21
896.368325
0
LINE
8
annotation
62
1
39
211
10
37.361223
20
896.368325
11
37.361223
21
896.368325
0
LINE
8
annotation
62
1
39
211
10
37.361223
20
896.368325
11
37.283354
21
897.238036
0
LINE
8
annotation
62
1
39
211
10
37.283354
20
897.238036
11
37.058823
21
898.055996
0
LINE
8
annotation
62
1
39
211
10
37.058823
20
898.055996
11
36.701244
21
898.808703
0
LINE
8
annotation
62
1
39
211
10
36.701244
20
898.808703
11
36.224234
21
899.482655
0
LINE
8
annotation
62
1
39
211
10
36.224234
20
899.482655
11
35.641407
21
900.064348
0
LINE
8
annotation
62
1
39
211
10
35.641407
20
900.064348
11
34.966378
21
900.540281
0
LINE
8
annotation
62
1
39
211
10
34.966378
20
900.540281
11
34.212763
21
900.896950
0
LINE
8
annotation
62
1
39
211
10
34.212763
20
900.896950
11
33.394175
21
901.120853
0
LINE
8
annotation
62
1
39
211
10
33.394175
20
901.120853
11
32.524230
21
901.198488
0
LINE
8
annotation
62
1
39
211
10
32.524230
20
901.198488
11
27.687237
21
901.198488
0
LINE
8
annotation
62
1
39
211
10
27.081417
20
886.393479
11
37.972506
21
886.393479
0
LINE
8
hole
62
5
39
2
10
84.794878
20
45.714875
11
85.366378
21
45.714875
0
LINE
8
hole
62
5
39
2
10
85.366378
20
45.714875
11
85.366378
21
46.286375
0
LINE
8
hole
62
5
39
2
10
85.366378
20
46.286375
11
84.794878
21
46.286375
0
LINE
8
hole
62
5
39
2
10
84.794878
20
46.286375
11
84.794878
21
45.714875
0
LINE
8
hole
62
5
39
2
10
84.556753
20
11.881750
11
85.128253
21
11.881750
0
LINE
8
hole
62
5
39
2
10
85.128253
20
11.881750
11
85.128253
21
12.453250
0
LINE
8
hole
62
5
39
2
10
85.128253
20
12.453250
11
84.556753
21
12.453250
0
LINE
8
hole
62
5
39
2
10
84.556753
20
12.453250
11
84.556753
21
11.881750
0
LINE
8
hole
62
5
39
2
10
104.556754
20
33.881750
11
105.128254
21
33.881750
0
LINE
8
hole
62
5
39
2
10
105.128254
20
33.881750
11
105.128254
21
34.453250
0
LINE
8
hole
62
5
39
2
10
105.128254
20
34.453250
11
104.556754
21
34.453250
0
LINE
8
hole
62
5
39
2
10
104.556754
20
34.453250
11
104.556754
21
33.881750
0
LINE
8
hole
62
5
39
2
10
64.556752
20
33.881750
11
65.128252
21
33.881750
0
LINE
8
hole
62
5
39
2
10
65.128252
20
33.881750
11
65.128252
21
34.453250
0
LINE
8
hole
62
5
39
2
10
65.128252
20
34.453250
11
64.556752
21
34.453250
0
LINE
8
hole
62
5
39
2
10
64.556752
20
34.453250
11
64.556752
21
33.881750
0
LINE
8
boundary
62
5
39
2
10
102.342503
20
6.667500
11
109.842504
21
6.667500
0
LINE
8
boundary
62
5
39
2
10
109.842504
20
6.667500
11
109.842504
21
30.042499
0
LINE
8
boundary
62
5
39
2
10
109.842504
20
30.042499
11
109.842504
21
61.667499
0
LINE
8
boundary
62
5
39
2
10
109.842504
20
61.667499
11
105.530004
21
61.667499
0
LINE
8
boundary
62
5
39
2
10
105.530004
20
61.667499
11
102.342505
21
61.667499
0
LINE
8
boundary
62
5
39
2
10
102.342505
20
61.667499
11
102.342505
21
59.567499
0
LINE
8
boundary
62
5
39
2
10
102.342505
20
59.567499
11
102.342505
21
47.667500
0
LINE
8
boundary
62
5
39
2
10
102.342505
20
47.667500
11
97.092504
21
47.667500
0
LINE
8
boundary
62
5
39
2
10
97.092504
20
47.667500
11
67.342503
21
47.667500
0
LINE
8
boundary
62
5
39
2
10
67.342503
20
47.667500
11
67.342503
21
49.767500
0
LINE
8
boundary
62
5
39
2
10
67.342503
20
49.767500
11
67.342503
21
61.667499
0
LINE
8
boundary
62
5
39
2
10
67.342503
20
61.667499
11
66.780003
21
61.667499
0
LINE
8
boundary
62
5
39
2
10
66.780003
20
61.667499
11
59.842502
21
61.667499
0
LINE
8
boundary
62
5
39
2
10
59.842502
20
61.667499
11
59.842502
21
30.042499
0
LINE
8
boundary
62
5
39
2
10
59.842502
20
30.042499
11
59.842502
21
6.667500
0
LINE
8
boundary
62
5
39
2
10
59.842502
20
6.667500
11
102.342503
21
6.667500
0
LINE
8
annotation
62
1
39
211
10
85.080628
20
46.000625
11
85.080628
21
47.429375
0
LINE
8
annotation
62
1
39
211
10
85.080628
20
46.000625
11
85.080628
21
47.429375
0
LINE
8
annotation
62
1
39
211
10
85.080628
20
47.429375
11
85.080628
21
46.000625
0
LINE
8
annotation
62
1
39
211
10
85.080628
20
46.000625
11
85.080628
21
44.571875
0
LINE
8
annotation
62
1
39
211
10
84.842503
20
12.167500
11
86.271253
21
12.167500
0
LINE
8
annotation
62
1
39
211
10
84.842503
20
12.167500
11
86.271253
21
12.167500
0
LINE
8
annotation
62
1
39
211
10
86.271253
20
12.167500
11
84.842503
21
12.167500
0
LINE
8
annotation
62
1
39
211
10
84.842503
20
12.167500
11
84.842503
21
10.738750
0
LINE
8
annotation
62
1
39
211
10
104.842504
20
34.167500
11
104.842504
21
35.596250
0
LINE
8
annotation
62
1
39
211
10
64.842502
20
34.167500
11
66.271252
21
34.167500
0
LINE
8
annotation
62
1
39
211
10
85.699232
20
15.541262
11
90.541689
21
37.323440
0
LINE
8
annotation
62
1
39
211
10
90.541689
20
37.323440
11
80.855409
21
37.323440
0
LINE
8
annotation
62
1
39
211
10
90.541689
20
27.623500
11
85.699232
21
27.623500
0
LINE
8
frame
62
5
39
2
10
0.000000
20
0.000000
11
800.000000
21
0.000000
0
LINE
8
frame
62
5
39
2
10
800.000000
20
0.000000
11
800.000000
21
1000.000000
0
LINE
8
frame
62
5
39
2
10
800.000000
20
1000.000000
11
0.000000
21
1000.000000
0
LINE
8
frame
62
5
39
2
10
0.000000
20
1000.000000
11
0.000000
21
0.000000
0
ENDSEC
0
EOF
